<?xml version="1.0" encoding="utf-8"?>
<!-- Generator: Adobe Illustrator 19.1.0, SVG Export Plug-In . SVG Version: 6.00 Build 0)  -->
<svg version="1.1" id="Layer_1" xmlns="http://www.w3.org/2000/svg" xmlns:xlink="http://www.w3.org/1999/xlink" x="0px" y="0px"
	 viewBox="-164 255.8 282.2 283.2" style="enable-background:new -164 255.8 282.2 283.2;" xml:space="preserve">
<style type="text/css">
	.st0{fill:#435363;}
	.st1{fill:#F38B00;}
</style>
<path class="st0" d="M-22.3,461.2c-35.2,0-63.8-28.6-63.8-63.8s28.6-63.8,63.8-63.8c29,0,53.6,19.5,61.3,46.1h24.7
	c-8.2-39.9-43.6-70-86-70c-48.4,0-87.7,39.4-87.7,87.7c0,48.4,39.4,87.7,87.7,87.7c42.3,0,77.7-30.1,86-70H38.9
	C31.2,441.7,6.7,461.2-22.3,461.2"/>
<path class="st0" d="M-65.3,440.4c11,11,26.2,17.8,43,17.8v-25.4c-9.8,0-18.6-4-25-10.4L-65.3,440.4z"/>
<path class="st1" d="M-83.2,397.4c0,8.7,1.9,17,5.2,24.5l23.3-10.2c-1.9-4.4-3-9.2-3-14.3c0-19.6,15.9-35.4,35.4-35.4v-25.4
	C-55.9,336.6-83.2,363.9-83.2,397.4"/>
<path class="st0" d="M-0.3,340.7l-9.2,23.7c7.5,2.9,13.8,8.4,17.8,15.3h27.6C30.4,361.9,17,347.5-0.3,340.7"/>
<path class="st1" d="M-9.5,430.4l9.2,23.7c17.3-6.7,30.7-21.1,36.1-39H8.3C4.3,422-2,427.5-9.5,430.4"/>
<path class="st1" d="M-22.3,515c-32.4,0-61.8-13.2-83.1-34.5l-17,17c25.6,25.6,61,41.5,100.1,41.5c72.2,0,131.8-54.1,140.5-123.9
	H93.9C85.4,471.6,36.5,515-22.3,515"/>
<path class="st1" d="M-22.3,279.8c26.3,0,50.7,8.7,70.3,23.4l14.4-19.3c-23.7-17.6-53-28.1-84.7-28.1c-60.1,0-111.4,37.4-132,90.3
	l22.4,8.7C-114.8,310.9-72.1,279.8-22.3,279.8"/>
<path class="st0" d="M93.9,379.7h24.3c-2.6-20.8-9.7-40.3-20.4-57.3l-20.4,12.7C85.7,348.5,91.5,363.6,93.9,379.7"/>
<path class="st1" d="M66.6,379.7h24.3c-6.3-40.8-34.3-74.5-71.7-89.1l-8.7,22.3C39,324,60.5,349.1,66.6,379.7"/>
<path class="st0" d="M-22.3,306.7L-22.3,306.7v-24l0,0c-48.6,0-90.2,30.4-106.8,73.1l22.3,8.7C-93.7,330.7-60.8,306.7-22.3,306.7"/>
<path class="st1" d="M-113,397.4L-113,397.4h-24l0,0c0,48.2,29.9,89.5,72.1,106.4l8.9-22.2C-89.4,468.2-113,435.5-113,397.4"/>
<path class="st0" d="M-22.3,488.1v24c57.2,0,104.7-42.1,113.3-97H66.7C58.4,456.7,21.6,488.1-22.3,488.1"/>
<path class="st0" d="M-152,454.4c-8-18.1-12-37.6-12-57h24.1c0,16.1,3.3,32.3,9.9,47.3L-152,454.4z"/>
</svg>
