<?xml version="1.0" encoding="utf-8"?>
<!-- Generator: Adobe Illustrator 22.1.0, SVG Export Plug-In . SVG Version: 6.00 Build 0)  -->
<svg version="1.1" id="Layer_1" xmlns="http://www.w3.org/2000/svg" xmlns:xlink="http://www.w3.org/1999/xlink" x="0px" y="0px" width="100%" height="100%"
	 viewBox="0 0 40 40" style="fill: #5c6670; enable-background:new 0 0 40 40;" xml:space="preserve">
<title>71E1EBC1-4CFF-4FAC-A470-AD30723F3F69</title>
<desc>Created with sketchtool.</desc>
<g>
	<rect x="13.3" y="14.9" class="st0" width="4.4" height="30"/>
	<g>
		<path id="Shape_1_" class="st1" d="M0,6.3c3.1-1.9,7-1.9,10.1,0c3.2,1.7,5.1,5.1,4.9,8.6c-3.1,1.9-7,1.9-10.1,0
			C1.8,13.2-0.2,9.9,0,6.3L0,6.3z"/>
		<path id="Shape_2_" class="st2" d="M0,6.3c3.1-1.9,7-1.9,10.1,0c3.2,1.7,5.1,5.1,4.9,8.6L0,6.3z"/>
	</g>
	<g>
		<path id="Shape_3_" class="st1" d="M30,6.3c-3.1-1.9-7-1.9-10.1,0c-3.2,1.7-5.1,5.1-4.9,8.6c3.1,1.9,7,1.9,10.1,0
			C28.2,13.2,30.2,9.9,30,6.3L30,6.3z"/>
		<path id="Shape_4_" class="st2" d="M30,6.3c-3.1-1.9-7-1.9-10.1,0c-3.2,1.7-5.1,5.1-4.9,8.6L30,6.3z"/>
	</g>
</g>
</svg>
