<?xml version="1.0" encoding="utf-8"?>
<!-- Generator: Adobe Illustrator 24.3.0, SVG Export Plug-In . SVG Version: 6.00 Build 0)  -->
<svg version="1.1" xmlns="http://www.w3.org/2000/svg" xmlns:xlink="http://www.w3.org/1999/xlink" x="0px" y="0px"
	 viewBox="0 0 506.8 214.8" style="enable-background:new 0 0 506.8 214.8;" xml:space="preserve">
<style type="text/css">
	.st0{fill:#373A3F;}
	.st1{fill:#FFFFFF;}
	.st2{fill:#191919;}
	.st3{fill:#EF9600;}
	.st4{fill:#5CE500;}
	.st5{fill:#425563;}
	.st6{fill:#4B4E52;}
	.st7{fill:#E3E3E3;}
	.st8{fill:#E4E4E3;}
</style>
<g id="Guides__x26__Information">
</g>
<g id="Logos">
	<g>
		<g>
			<path class="st5" d="M215.1,92.3v-0.2c-0.3-18.6,14.6-34,33.2-34.3h1.4c9.8-0.5,19.3,3.2,26.2,10.2l-9.3,10.7
				c-4.5-4.6-10.6-7.2-17-7.4c-11.2,0-19.2,9.3-19.2,20.7s7.9,20.9,19.2,20.9c7.6,0,12.2-3,17.4-7.8l9.3,9.4
				c-6.8,7.9-16.8,12.3-27.2,11.8c-18.5,0.3-33.7-14.5-34-33L215.1,92.3"/>
			<polygon class="st5" points="293.3,59 307.9,59 307.9,85.2 334.8,85.2 334.8,59 349.4,59 349.4,125.3 334.8,125.3 334.8,98.7 
				307.9,98.7 307.9,125.3 293.3,125.3 			"/>
			<polygon class="st5" points="367.2,59 417.3,59 417.3,72 381.7,72 381.7,85.4 413,85.4 413,98.4 381.7,98.4 381.7,112.3 
				417.8,112.3 417.8,125.3 367.2,125.3 			"/>
			<polygon class="st5" points="436.8,59 487.4,59 487.4,72.2 451.4,72.2 451.4,86.4 483.1,86.4 483.1,99.6 451.4,99.6 451.4,125.3 
				436.8,125.3 			"/>
			<path class="st5" d="M498.3,68.6v-6.7h2.8c0.5,0,1.1,0,1.6,0.2c0.3,0.1,0.6,0.3,0.8,0.6c0.2,0.3,0.3,0.7,0.3,1.1
				c0,0.3-0.1,0.7-0.2,1c-0.1,0.1-0.1,0.2-0.2,0.3c-0.3,0.3-0.7,0.5-1.1,0.6c0.2,0.2,0.4,0.4,0.5,0.6c0.3,0.3,0.5,0.7,0.8,1.1
				l0.8,1.3h-1.6l-1-1.5c-0.2-0.3-0.5-0.7-0.7-1c-0.1-0.1-0.2-0.2-0.4-0.3c-0.2-0.1-0.5-0.1-0.7-0.1h-0.3v2.8H498.3z M499.7,64.7h1
				c0.4,0,0.8,0,1.2-0.1c0.2,0,0.3-0.1,0.4-0.3c0.1-0.2,0.1-0.3,0.1-0.5c0-0.2-0.1-0.4-0.2-0.5c-0.1-0.1-0.3-0.2-0.5-0.3
				c-0.3,0-0.7,0-1,0h-1.1L499.7,64.7z"/>
			<path class="st5" d="M500.9,71.2c-0.8,0-1.6-0.2-2.3-0.5c-0.4-0.1-0.7-0.3-1-0.6c-0.3-0.2-0.6-0.5-0.9-0.7
				c-0.3-0.3-0.5-0.6-0.7-0.9c-1.1-1.7-1.3-3.8-0.6-5.7c0.2-0.4,0.3-0.7,0.6-1c0.2-0.3,0.5-0.6,0.7-0.9c0.3-0.3,0.6-0.5,0.9-0.7
				c0.3-0.2,0.7-0.4,1-0.6c1.5-0.6,3.2-0.6,4.6,0c0.4,0.2,0.7,0.3,1,0.6c0.3,0.2,0.6,0.5,0.9,0.7c0.3,0.3,0.5,0.6,0.7,0.9
				c0.2,0.3,0.4,0.7,0.5,1c0.6,1.5,0.6,3.2,0,4.7c-0.1,0.4-0.3,0.7-0.5,1c-0.2,0.3-0.5,0.6-0.7,0.9c-0.5,0.5-1.2,1-1.9,1.3
				C502.4,71.1,501.7,71.2,500.9,71.2 M500.9,59.8c-3,0-5.5,2.4-5.5,5.5c0,3,2.4,5.5,5.5,5.5c3,0,5.5-2.4,5.5-5.5
				C506.3,62.2,503.9,59.8,500.9,59.8L500.9,59.8"/>
			<g>
				<path class="st5" d="M1.5,94.7c0.3,10.8,2.5,21.4,6.5,31.4l11.3-4.6c-3.5-8.7-5.4-17.9-5.7-27.3L1.5,94.7z"/>
				<path class="st3" d="M93.5,12.1c16.7,0,32.8,5.2,46.4,14.9l7.1-9.8c-41.3-29.5-98.8-20-128.4,21.3C15,43.6,12,49.1,9.4,54.8
					l11.1,5C33.3,30.8,61.8,12.2,93.5,12.1z"/>
				<path class="st5" d="M184.4,77.9c-1.8-11.5-5.7-22.6-11.7-32.6l-10.5,6c4.9,8.1,8.2,17.1,9.9,26.6
					C172.1,77.9,184.4,77.9,184.4,77.9z"/>
				<path class="st3" d="M172.1,106.1c-7.7,43.4-49.2,72.3-92.6,64.5c-15.9-2.9-30.4-10.4-41.9-21.6l-8.4,8.7
					c36.3,35.6,94.6,34.9,130.1-1.4c13.5-13.7,22.2-31.3,25.2-50.3L172.1,106.1L172.1,106.1z"/>
				<path class="st3" d="M153,77.9h12.4c-4.8-23.8-20.8-43.7-43.1-53.2l-4.9,11C135.3,43.3,148.5,59,153,77.9z"/>
				<path class="st5" d="M37.5,67.3c9.8-22.1,31.6-36.4,55.8-36.5l0.1-12.1c-28.9,0-55.2,17.1-67,43.6L37.5,67.3z"/>
				<path class="st3" d="M69.8,148.4c-22.1-9.3-36.8-30.5-37.5-54.5l-12.1,0.4c0.9,28.7,18.5,54.3,45.1,65.4L69.8,148.4z"/>
				<path class="st5" d="M153,106.1c-6.4,27.1-30.3,46.4-58.2,47.1l0.4,12.1c34.4-0.9,63.5-25.5,70.2-59.2H153z"/>
				<path class="st5" d="M133.6,106.1c-7.8,22.1-32,33.7-54.1,26s-33.7-32-26-54.1s32-33.7,54.1-26c12.1,4.3,21.7,13.8,26,26h12.7
					c-7.8-29.1-37.7-46.4-66.8-38.7s-46.4,37.7-38.7,66.8s37.7,46.4,66.8,38.7c18.8-5.1,33.6-19.7,38.7-38.7H133.6z"/>
				<path class="st3" d="M112.6,106.1c-2.4,3.3-5.7,5.8-9.3,7.5l5.3,10.9c8-3.8,14.4-10.3,17.8-18.4H112.6z"/>
				<path class="st5" d="M93.5,115.8c-6.3,0-12.5-2.6-17-7.1l-8.4,8.7C74.9,124.1,84,128,93.5,128h0.4L93.5,115.8L93.5,115.8z"/>
				<path class="st3" d="M92.7,68.3V56.2c-19.8,0.3-35.5,16.7-35.2,36.5c0.1,4.3,0.9,8.4,2.5,12.4l11.2-4.6
					c-4.7-12.2,1.4-25.9,13.6-30.6C87.4,68.9,90.1,68.4,92.7,68.3z"/>
				<path class="st5" d="M107.5,59l-4.9,11.1c4,1.7,7.4,4.4,10,7.8h13.9C122.8,69.4,115.9,62.7,107.5,59z"/>
			</g>
		</g>
		<g>
			<path class="st4" d="M268.9,193.4c0,0.6-0.4,1.4-1,1.7l-13.5,7.8v-30.1l-26.1-15.1l13.5-7.8c0.5-0.3,1.4-0.3,1.9,0l25.1,14.5
				V193.4z M248.6,176.1l-17.9-10.3c-0.5-0.3-1.4-0.3-1.9,0l-12.1,7l18.8,10.9l0,21.8l12.1-7c0.5-0.3,1-1.1,1-1.7V176.1z
				 M216.7,194.5l13,7.5V187L216.7,194.5z"/>
			<path class="st6" d="M297.6,164.4h-14.2v38.5h6.3v-15.1h8c8.6,0,13.4-4.2,13.4-11.9C311,172.4,309.7,164.4,297.6,164.4
				 M304.6,176c0,4.3-2.3,6.1-7.8,6.1h-7.1V170h8C302.3,170,304.6,172,304.6,176 M329.8,174.8l0.5,0.2l-1.1,5.7l-0.7-0.2
				c-0.6-0.2-1.2-0.3-1.8-0.3c-5.9,0-6.4,4.7-6.4,10.4v12.3h-5.8v-28.3h5.5v3.4c1.5-2.3,3.3-3.5,5.7-3.8
				C327.1,174.1,328.6,174.3,329.8,174.8 M344.2,174c-4.6,0-8.3,1.8-10.7,5.1c-2.5,3.5-2.9,7.6-2.9,9.7c0,8.9,5.3,14.7,13.5,14.7
				c10,0,13.5-8,13.5-14.9c0-4-1.2-7.6-3.3-10.1C352,175.6,348.4,174,344.2,174 M344.2,198.3c-4.6,0-7.4-3.6-7.4-9.5
				c0-5.9,2.8-9.6,7.4-9.6c4.5,0,7.5,3.7,7.5,9.5C351.6,194.6,348.8,198.3,344.2,198.3 M406.8,174.8l0.5,0.2l-1.1,5.7l-0.7-0.2
				c-0.6-0.2-1.2-0.3-1.8-0.3c-5.9,0-6.4,4.7-6.4,10.4v12.3h-5.8v-28.3h5.5v3.4c1.5-2.3,3.3-3.5,5.7-3.8
				C404.1,174.1,405.6,174.3,406.8,174.8 M427.7,193.8l-0.1,0.3c-1.2,3.5-4.1,4.2-6.4,4.2c-4.4,0-7.3-2.9-7.5-7.7h20l0.1-0.6
				c0.1-0.7,0.1-1.6,0.1-2.2c0-0.2,0-0.3,0-0.5c-0.3-7.9-5.5-13.2-12.8-13.2c-4.3,0-7.9,1.7-10.2,4.9c-1.9,2.6-3,6.2-3,9.9
				c0,8.7,5.4,14.6,13.5,14.6c6.3,0,10.6-3.2,12.1-8.9l0.2-0.7H427.7z M413.9,185.5c0.5-3.9,3.2-6.4,7-6.4c2.9,0,6.4,1.7,6.8,6.4
				H413.9z M380.8,177c-1.9-2-4.4-2.9-7.5-2.9c-8.6,0-12.5,7.5-12.5,14.5c0,7.2,3.9,14.4,12.5,14.4c2.9,0,5.4-1.1,7.3-3
				c0,1.2-0.1,2.4-0.1,2.9c-0.3,4.7-2.6,6.8-7.1,6.8c-2.4,0-5.2-0.9-5.8-3.3l-0.1-0.5l-5.8,0l0.1,0.8c0.6,5,5,8.1,11.4,8.1
				c5.7,0,9.7-2.1,11.6-6.2c0.9-1.9,1.4-4.8,1.4-8.4v-25.7h-5.5V177z M373.6,197.8c-2,0-6.8-0.9-6.8-9.5c0-5.6,2.7-9.1,6.9-9.1
				c3.3,0,6.8,2.4,6.8,9.1C380.6,194.3,378,197.8,373.6,197.8 M460.8,194.4c0,4.5-3.7,9-12.1,9c-7.4,0-11.8-3.2-12.4-9l-0.1-0.6h5.7
				l0.1,0.4c0.7,3.5,4,4.2,6.7,4.2c2.9,0,6-0.9,6-3.6c0-1.3-0.9-2.3-2.6-2.8c-1-0.3-2.3-0.7-3.6-1c-2.3-0.6-4.6-1.3-6.1-1.8
				c-3.6-1.3-5.6-3.8-5.6-6.9c0-5.7,5.5-8.3,11-8.3c7.4,0,11.2,2.8,11.6,8.5l0,0.6l-5.7,0l-0.1-0.4c-0.6-3.3-3.8-3.8-5.7-3.8
				c-1.6,0-5.4,0.3-5.4,3c0,1.2,1.1,2.1,3.2,2.8c0.6,0.2,1.6,0.4,2.7,0.7c2.3,0.6,5.2,1.3,6.6,1.8
				C459,188.5,460.8,190.9,460.8,194.4 M487.8,194.4c0,4.5-3.7,9-12.1,9c-7.4,0-11.8-3.2-12.4-9l-0.1-0.6h5.8l0.1,0.4
				c0.7,3.5,4,4.2,6.7,4.2c2.9,0,6-0.9,6-3.6c0-1.3-0.9-2.3-2.6-2.8c-1-0.3-2.3-0.7-3.6-1c-2.3-0.6-4.6-1.3-6.1-1.8
				c-3.6-1.3-5.6-3.8-5.6-6.9c0-5.7,5.5-8.3,11-8.3c7.4,0,11.2,2.8,11.6,8.5l0.1,0.6l-5.7,0l-0.1-0.4c-0.6-3.3-3.8-3.8-5.7-3.8
				c-1.6,0-5.4,0.3-5.4,3c0,1.2,1.1,2.1,3.2,2.8c0.6,0.2,1.6,0.4,2.7,0.7c2.3,0.6,5.2,1.3,6.6,1.8
				C486,188.5,487.8,190.9,487.8,194.4"/>
			<path class="st6" d="M492.4,177.6c-2.2,0-4-1.7-4-4c0-2.3,1.8-4,4-4c2.2,0,4,1.7,4,4C496.4,175.9,494.6,177.6,492.4,177.6
				 M492.4,170.3c-1.8,0-3.3,1.4-3.3,3.3c0,2,1.5,3.3,3.3,3.3c1.8,0,3.3-1.4,3.3-3.3C495.7,171.6,494.2,170.3,492.4,170.3
				 M492,174.3v1.3h-1.2v-4.2h2c0.9,0,1.6,0.6,1.6,1.5c0,0.7-0.3,1.1-0.8,1.3l1,1.5h-1.3l-0.8-1.3H492z M492.6,172.5H492v0.9h0.7
				c0.4,0,0.6-0.2,0.6-0.5C493.2,172.7,493,172.5,492.6,172.5"/>
		</g>
	</g>
</g>
<g id="Guide_Elements_Disable_At_Export">
</g>
</svg>
