<svg id="Layer_1" data-name="Layer 1" xmlns="http://www.w3.org/2000/svg" viewBox="0 0 169.2 169.2"><defs><style>.cls-1{fill:#fff;}.cls-2{fill:#404447;}</style></defs><rect class="cls-1" width="169.2" height="169.2"/><path class="cls-2" d="M131.1,108.7H36.3a4.27,4.27,0,0,1-4.3-4.3V44.1a4.27,4.27,0,0,1,4.3-4.3h94.8a4.27,4.27,0,0,1,4.3,4.3v60.4a4.25,4.25,0,0,1-4.3,4.2Zm-90.5-8.6h86.2V48.4H40.6v51.7Z"/><path class="cls-2" d="M122.5,98H44.9a2.22,2.22,0,0,1-2.2-2.2V52.7a2.22,2.22,0,0,1,2.2-2.2h77.6a2.22,2.22,0,0,1,2.2,2.2V95.8a2.22,2.22,0,0,1-2.2,2.2ZM47.1,93.6h73.3V54.8H47.1V93.6Z"/><path class="cls-2" d="M144.4,121.3H24.4a4.3,4.3,0,0,1,0-8.6h120a4.3,4.3,0,0,1,0,8.6Z"/><path class="cls-2" d="M18.25,152.83a.62.62,0,0,1,.23,0,.85.85,0,0,1,.21.14l1.24,1.31a5.11,5.11,0,0,1-2,1.61,7.2,7.2,0,0,1-2.91.54,7.06,7.06,0,0,1-2.75-.52,6.14,6.14,0,0,1-2.07-1.45,6.31,6.31,0,0,1-1.3-2.19,8.08,8.08,0,0,1-.45-2.74,7.21,7.21,0,0,1,.52-2.78,6.4,6.4,0,0,1,1.45-2.18,6.58,6.58,0,0,1,2.22-1.43,8,8,0,0,1,2.87-.5,7.31,7.31,0,0,1,1.43.13,6.74,6.74,0,0,1,1.25.37,6.15,6.15,0,0,1,1.08.57,4.76,4.76,0,0,1,.87.72L19,145.89a1.81,1.81,0,0,1-.24.24.63.63,0,0,1-.39.1.67.67,0,0,1-.31-.07l-.32-.18-.36-.23a3.06,3.06,0,0,0-.48-.24,4,4,0,0,0-.63-.18,5.34,5.34,0,0,0-.86-.07,3.94,3.94,0,0,0-1.56.3,3.47,3.47,0,0,0-1.21.86,4,4,0,0,0-.78,1.36,5.29,5.29,0,0,0-.29,1.79,5.51,5.51,0,0,0,.29,1.84,4,4,0,0,0,.76,1.36,3.31,3.31,0,0,0,1.14.84,3.39,3.39,0,0,0,1.39.28,6.35,6.35,0,0,0,.78,0,3.25,3.25,0,0,0,.65-.14,3,3,0,0,0,.57-.27,3.24,3.24,0,0,0,.56-.4,1,1,0,0,1,.24-.15A.58.58,0,0,1,18.25,152.83Z"/><path class="cls-2" d="M21.36,156.32V142.45h2.87v5.11a4.51,4.51,0,0,1,1.13-.72,3.51,3.51,0,0,1,1.45-.27,3.41,3.41,0,0,1,1.39.27,2.85,2.85,0,0,1,1,.76,3.17,3.17,0,0,1,.63,1.16,4.86,4.86,0,0,1,.22,1.46v6.1H27.19v-6.1a1.66,1.66,0,0,0-.32-1.1,1.17,1.17,0,0,0-.95-.4,1.91,1.91,0,0,0-.89.21,3.41,3.41,0,0,0-.8.54v6.85Z"/><path class="cls-2" d="M36.22,146.57a5.12,5.12,0,0,1,1.74.29,3.76,3.76,0,0,1,2.25,2.25,4.94,4.94,0,0,1,.32,1.86,3.64,3.64,0,0,1,0,.52.72.72,0,0,1-.1.33.42.42,0,0,1-.2.17,1,1,0,0,1-.32,0H34.35a2.68,2.68,0,0,0,.73,1.75,2.17,2.17,0,0,0,1.53.54,2.75,2.75,0,0,0,.86-.12,4.25,4.25,0,0,0,.64-.27l.52-.27a1.07,1.07,0,0,1,.49-.12.58.58,0,0,1,.52.25l.84,1a4.33,4.33,0,0,1-1,.83,5.11,5.11,0,0,1-1.06.5,6,6,0,0,1-1.08.25,7.53,7.53,0,0,1-1,.07,5.38,5.38,0,0,1-1.9-.33,4.36,4.36,0,0,1-2.59-2.59,5.94,5.94,0,0,1-.39-2.24,5.12,5.12,0,0,1,.33-1.83,4.65,4.65,0,0,1,.95-1.51,4.39,4.39,0,0,1,1.49-1A4.79,4.79,0,0,1,36.22,146.57Zm.05,2A1.71,1.71,0,0,0,35,149a2.5,2.5,0,0,0-.61,1.34H38a2.44,2.44,0,0,0-.09-.66,1.51,1.51,0,0,0-.29-.58,1.34,1.34,0,0,0-.52-.41A1.74,1.74,0,0,0,36.27,148.55Z"/><path class="cls-2" d="M42.61,156.32v-7.63l-.63-.13a1.44,1.44,0,0,1-.53-.23.58.58,0,0,1-.2-.47v-1.13h1.36v-.54a4.12,4.12,0,0,1,.26-1.49,3.13,3.13,0,0,1,.76-1.14,3.43,3.43,0,0,1,1.21-.74,4.83,4.83,0,0,1,1.62-.26,4.29,4.29,0,0,1,.65.05,3.93,3.93,0,0,1,.63.13l-.06,1.4a.36.36,0,0,1-.08.24.44.44,0,0,1-.17.16.73.73,0,0,1-.22.09l-.25,0a2.7,2.7,0,0,0-.67.07,1.06,1.06,0,0,0-.5.27,1.17,1.17,0,0,0-.3.5,2.42,2.42,0,0,0-.1.78v.45h2.26v2H45.48v7.62Z"/><path class="cls-2" d="M51.44,142.82h2.64a1.24,1.24,0,0,1,.68.19.82.82,0,0,1,.35.49l1.86,7c.06.23.12.47.18.73a6.67,6.67,0,0,1,.14.82c.06-.29.13-.57.2-.82l.22-.73,2.18-7a1.07,1.07,0,0,1,1-.68h.93a1.17,1.17,0,0,1,.67.18.94.94,0,0,1,.37.5l2.16,7c.07.22.14.45.22.69s.14.51.19.78l.15-.78c.06-.24.11-.47.17-.69l1.85-7A.88.88,0,0,1,68,143a1.09,1.09,0,0,1,.67-.21H71.1l-4.17,13.5H64.1L61.56,148c0-.13-.09-.28-.13-.43s-.1-.32-.14-.49c0,.17-.09.34-.13.49s-.09.3-.14.43l-2.57,8.36H55.61Z"/><path class="cls-2" d="M76.12,146.57a5.51,5.51,0,0,1,2,.34,4.36,4.36,0,0,1,1.55,1,4.46,4.46,0,0,1,1,1.55,5.76,5.76,0,0,1,.35,2.05,5.83,5.83,0,0,1-.35,2.07,4.45,4.45,0,0,1-1,1.57,4.38,4.38,0,0,1-1.55,1,5.86,5.86,0,0,1-4,0,4.43,4.43,0,0,1-1.56-1,4.34,4.34,0,0,1-1-1.57,5.62,5.62,0,0,1-.36-2.07,5.55,5.55,0,0,1,.36-2.05,4.34,4.34,0,0,1,1-1.55,4.4,4.4,0,0,1,1.56-1A5.56,5.56,0,0,1,76.12,146.57Zm0,7.77a1.65,1.65,0,0,0,1.46-.7,3.91,3.91,0,0,0,.47-2.13,3.85,3.85,0,0,0-.47-2.12,1.64,1.64,0,0,0-1.46-.69,1.68,1.68,0,0,0-1.49.69,3.85,3.85,0,0,0-.47,2.12,3.91,3.91,0,0,0,.47,2.13A1.69,1.69,0,0,0,76.12,154.34Z"/><path class="cls-2" d="M82.59,156.32v-9.61h1.7a1.79,1.79,0,0,1,.36,0,.68.68,0,0,1,.24.12.57.57,0,0,1,.15.21,3.09,3.09,0,0,1,.09.31l.15.9A5,5,0,0,1,86.47,147a2.45,2.45,0,0,1,1.43-.47,1.65,1.65,0,0,1,1.06.31L88.59,149a.36.36,0,0,1-.15.27.5.5,0,0,1-.29.08,2.76,2.76,0,0,1-.37,0,2.76,2.76,0,0,0-.54-.05,2,2,0,0,0-1.78,1.21v5.89Z"/><path class="cls-2" d="M93.11,142.45v7.77h.43a.92.92,0,0,0,.41-.07.77.77,0,0,0,.27-.27l1.82-2.7a1,1,0,0,1,.37-.35,1.15,1.15,0,0,1,.55-.12h2.63l-2.48,3.42a2.25,2.25,0,0,1-.38.43,3.72,3.72,0,0,1-.45.33,2.71,2.71,0,0,1,.72.84l2.71,4.59h-2.6a1.25,1.25,0,0,1-.56-.11.8.8,0,0,1-.38-.37l-1.82-3.4a.62.62,0,0,0-.27-.3.89.89,0,0,0-.41-.07h-.56v4.25H90.24V142.45Z"/><path class="cls-2" d="M106.78,148.82a.81.81,0,0,1-.23.25.63.63,0,0,1-.32.07,1,1,0,0,1-.41-.09l-.44-.19c-.15-.06-.33-.13-.53-.19a2.73,2.73,0,0,0-.67-.08,1.51,1.51,0,0,0-.84.2.69.69,0,0,0-.29.58.58.58,0,0,0,.19.45,2,2,0,0,0,.5.31,6.63,6.63,0,0,0,.72.25l.81.27a8.24,8.24,0,0,1,.81.35,2.72,2.72,0,0,1,.71.49,2.19,2.19,0,0,1,.51.71,2.51,2.51,0,0,1,.19,1,3.33,3.33,0,0,1-.26,1.31,2.75,2.75,0,0,1-.78,1,3.62,3.62,0,0,1-1.26.68,5.81,5.81,0,0,1-1.74.24,5.33,5.33,0,0,1-1-.09,8.78,8.78,0,0,1-1-.25,5.08,5.08,0,0,1-.85-.38,3.46,3.46,0,0,1-.67-.47l.67-1.05a1,1,0,0,1,.29-.3.78.78,0,0,1,.43-.1.94.94,0,0,1,.45.11l.43.24a3.37,3.37,0,0,0,.54.24,2.25,2.25,0,0,0,.79.11,1.82,1.82,0,0,0,.56-.07.86.86,0,0,0,.37-.19.9.9,0,0,0,.21-.27.77.77,0,0,0,.06-.3.61.61,0,0,0-.19-.47,1.59,1.59,0,0,0-.51-.32,5,5,0,0,0-.72-.25l-.82-.27a8.41,8.41,0,0,1-.82-.35,2.91,2.91,0,0,1-.72-.53,2.63,2.63,0,0,1-.51-.78,2.94,2.94,0,0,1-.19-1.13,3.08,3.08,0,0,1,.23-1.16,2.8,2.8,0,0,1,.71-1,3.76,3.76,0,0,1,1.19-.66,5.21,5.21,0,0,1,1.67-.24,5.55,5.55,0,0,1,1,.09,5.06,5.06,0,0,1,.91.26,4.06,4.06,0,0,1,.78.39,3.87,3.87,0,0,1,.62.5Z"/><path class="cls-2" d="M112.43,156.47a3.49,3.49,0,0,1-1.21-.2,2.39,2.39,0,0,1-.88-.57,2.51,2.51,0,0,1-.54-.88,3.53,3.53,0,0,1-.18-1.16v-5h-.82a.52.52,0,0,1-.53-.57V147l1.52-.3.57-2.34a.56.56,0,0,1,.63-.44h1.5v2.8h2.33v2h-2.33v4.77a.9.9,0,0,0,.16.55.57.57,0,0,0,.47.22.68.68,0,0,0,.26,0,.84.84,0,0,0,.19-.07l.15-.07a.27.27,0,0,1,.16,0,.37.37,0,0,1,.21.06,1.12,1.12,0,0,1,.16.19l.87,1.36a4,4,0,0,1-1.25.63A4.92,4.92,0,0,1,112.43,156.47Z"/><path class="cls-2" d="M123.1,156.32a1.38,1.38,0,0,1-.61-.11.87.87,0,0,1-.35-.46l-.2-.53c-.24.2-.48.38-.7.53a4,4,0,0,1-.69.4,3.21,3.21,0,0,1-.76.24,4.82,4.82,0,0,1-.89.08,4.09,4.09,0,0,1-1.2-.17,2.69,2.69,0,0,1-.91-.51,2.26,2.26,0,0,1-.58-.83,3.09,3.09,0,0,1-.2-1.14,2.32,2.32,0,0,1,.26-1,2.57,2.57,0,0,1,.9-1,5.8,5.8,0,0,1,1.72-.73,11.17,11.17,0,0,1,2.73-.33v-.41a1.78,1.78,0,0,0-.34-1.22,1.31,1.31,0,0,0-1-.38,2.39,2.39,0,0,0-.83.12,2.81,2.81,0,0,0-.58.25l-.5.25a1.41,1.41,0,0,1-.57.11.85.85,0,0,1-.51-.15A1,1,0,0,1,117,149l-.52-.9a6,6,0,0,1,1.93-1.15,6.81,6.81,0,0,1,2.28-.37,4.14,4.14,0,0,1,1.57.28,3.31,3.31,0,0,1,1.93,2,4.37,4.37,0,0,1,.26,1.52v6Zm-3.3-1.75a2.48,2.48,0,0,0,1-.19,2.88,2.88,0,0,0,.84-.63v-1.34a11.08,11.08,0,0,0-1.42.15,3.26,3.26,0,0,0-.88.28,1,1,0,0,0-.45.38.82.82,0,0,0-.13.46.8.8,0,0,0,.27.69A1.33,1.33,0,0,0,119.8,154.57Z"/><path class="cls-2" d="M129.83,156.47a3.45,3.45,0,0,1-1.21-.2,2.31,2.31,0,0,1-.88-.57,2.25,2.25,0,0,1-.54-.88,3.53,3.53,0,0,1-.19-1.16v-5h-.81a.52.52,0,0,1-.38-.15.51.51,0,0,1-.16-.42V147l1.53-.3.56-2.34a.57.57,0,0,1,.63-.44h1.5v2.8h2.34v2h-2.34v4.77a.9.9,0,0,0,.17.55.56.56,0,0,0,.46.22.7.7,0,0,0,.27,0,.75.75,0,0,0,.18-.07l.15-.07a.29.29,0,0,1,.16,0,.33.33,0,0,1,.21.06.62.62,0,0,1,.16.19l.88,1.36a4,4,0,0,1-1.26.63A4.9,4.9,0,0,1,129.83,156.47Z"/><path class="cls-2" d="M137.17,144.08a1.58,1.58,0,0,1-.14.65,1.79,1.79,0,0,1-.38.52,1.74,1.74,0,0,1-1.24.5,1.67,1.67,0,0,1-1.2-2.86,1.42,1.42,0,0,1,.54-.36,1.59,1.59,0,0,1,.66-.13,1.75,1.75,0,0,1,.68.13,1.58,1.58,0,0,1,.56.36,1.75,1.75,0,0,1,.38.54A1.58,1.58,0,0,1,137.17,144.08Zm-.34,2.63v9.61H134v-9.61Z"/><path class="cls-2" d="M143.43,146.57a5.51,5.51,0,0,1,2,.34,4.32,4.32,0,0,1,1.54,1,4.46,4.46,0,0,1,1,1.55,5.55,5.55,0,0,1,.36,2.05,5.62,5.62,0,0,1-.36,2.07,4.45,4.45,0,0,1-1,1.57,4.34,4.34,0,0,1-1.54,1,5.51,5.51,0,0,1-2,.35,5.58,5.58,0,0,1-2-.35,4.38,4.38,0,0,1-1.55-1,4.21,4.21,0,0,1-1-1.57,5.62,5.62,0,0,1-.36-2.07,5.55,5.55,0,0,1,.36-2.05,4.21,4.21,0,0,1,1-1.55,4.36,4.36,0,0,1,1.55-1A5.58,5.58,0,0,1,143.43,146.57Zm0,7.77a1.66,1.66,0,0,0,1.46-.7,3.92,3.92,0,0,0,.46-2.13,3.86,3.86,0,0,0-.46-2.12,1.65,1.65,0,0,0-1.46-.69,1.67,1.67,0,0,0-1.49.69,3.76,3.76,0,0,0-.48,2.12,3.81,3.81,0,0,0,.48,2.13A1.68,1.68,0,0,0,143.43,154.34Z"/><path class="cls-2" d="M149.89,156.32v-9.61h1.78a.79.79,0,0,1,.45.12.72.72,0,0,1,.26.37l.16.55c.19-.17.38-.33.58-.48a3.64,3.64,0,0,1,.63-.38,4.16,4.16,0,0,1,.73-.24,4.65,4.65,0,0,1,.86-.08,3.38,3.38,0,0,1,1.39.27,2.8,2.8,0,0,1,1,.76,3.17,3.17,0,0,1,.63,1.16,4.86,4.86,0,0,1,.21,1.46v6.1h-2.87v-6.1a1.66,1.66,0,0,0-.33-1.1,1.16,1.16,0,0,0-1-.4,2,2,0,0,0-.89.21,3.63,3.63,0,0,0-.8.54v6.85Z"/></svg>