<svg id="Layer_1" data-name="Layer 1" xmlns="http://www.w3.org/2000/svg" viewBox="0 0 169.2 169.2"><defs><style>.cls-1{fill:#ef9600;}</style></defs><path class="cls-1" d="M138.14,130.86H31.34a4.91,4.91,0,0,1-4.9-4.9V21a4.91,4.91,0,0,1,4.9-4.9h106.8A4.91,4.91,0,0,1,143,21v104.9a4.93,4.93,0,0,1-4.9,5ZM36.24,121h97V25.86h-97V121Z"/><path class="cls-1" d="M35.17,153.05a.45.45,0,0,1,.2,0,.57.57,0,0,1,.2.13l1.12,1.19a4.61,4.61,0,0,1-1.85,1.45,6.44,6.44,0,0,1-2.64.5,6.23,6.23,0,0,1-2.5-.48,5.35,5.35,0,0,1-1.87-1.31,5.82,5.82,0,0,1-1.19-2,7.49,7.49,0,0,1-.41-2.5,6.69,6.69,0,0,1,.47-2.52,6.13,6.13,0,0,1,1.32-2,6,6,0,0,1,2-1.29,7,7,0,0,1,2.6-.46,6.75,6.75,0,0,1,1.3.12,6.33,6.33,0,0,1,1.14.33,5.59,5.59,0,0,1,1,.52,4.69,4.69,0,0,1,.79.66l-1,1.28a2.28,2.28,0,0,1-.22.22.62.62,0,0,1-.36.09A.67.67,0,0,1,35,147a3.09,3.09,0,0,1-.29-.17l-.33-.21a3.47,3.47,0,0,0-.43-.21,3.42,3.42,0,0,0-.58-.16,4,4,0,0,0-2.19.2,3.22,3.22,0,0,0-1.1.79,3.71,3.71,0,0,0-.71,1.23,4.83,4.83,0,0,0-.26,1.62,5,5,0,0,0,.26,1.67,3.65,3.65,0,0,0,.7,1.24,3,3,0,0,0,1,.76,3.12,3.12,0,0,0,1.26.26,5.08,5.08,0,0,0,.7,0,2.77,2.77,0,0,0,.6-.13,2.71,2.71,0,0,0,.52-.24,4.75,4.75,0,0,0,.5-.36.74.74,0,0,1,.22-.14A.53.53,0,0,1,35.17,153.05Z"/><path class="cls-1" d="M38,156.22V143.63H40.6v4.64a4.24,4.24,0,0,1,1-.66,3.23,3.23,0,0,1,1.31-.24,3.16,3.16,0,0,1,1.27.24,2.69,2.69,0,0,1,.93.69,3.09,3.09,0,0,1,.57,1.06,4.25,4.25,0,0,1,.19,1.32v5.54h-2.6v-5.54a1.51,1.51,0,0,0-.3-1,1.06,1.06,0,0,0-.86-.35,1.85,1.85,0,0,0-.81.18,2.83,2.83,0,0,0-.72.5v6.21Z"/><path class="cls-1" d="M51.48,147.37a4.48,4.48,0,0,1,1.58.27,3.53,3.53,0,0,1,1.24.78,3.58,3.58,0,0,1,.8,1.25,4.51,4.51,0,0,1,.29,1.69,3.25,3.25,0,0,1,0,.48.9.9,0,0,1-.09.29.39.39,0,0,1-.18.16,1.19,1.19,0,0,1-.29,0h-5a2.39,2.39,0,0,0,.66,1.58,2,2,0,0,0,1.39.5,2.57,2.57,0,0,0,.78-.11,5.51,5.51,0,0,0,.59-.25l.47-.24a1,1,0,0,1,.45-.11.53.53,0,0,1,.47.23l.76.93a3.78,3.78,0,0,1-.87.75,4.67,4.67,0,0,1-1,.46,5,5,0,0,1-1,.22,6.22,6.22,0,0,1-.94.07,4.9,4.9,0,0,1-1.72-.3,4,4,0,0,1-1.4-.89,4.15,4.15,0,0,1-.95-1.46,5.55,5.55,0,0,1-.35-2,4.56,4.56,0,0,1,.3-1.65,4,4,0,0,1,.86-1.38,4.07,4.07,0,0,1,1.35-.93A4.48,4.48,0,0,1,51.48,147.37Zm.05,1.8a1.58,1.58,0,0,0-1.17.42,2.21,2.21,0,0,0-.56,1.22h3.26a2.47,2.47,0,0,0-.08-.6,1.64,1.64,0,0,0-.26-.53,1.29,1.29,0,0,0-.48-.37A1.53,1.53,0,0,0,51.53,149.17Z"/><path class="cls-1" d="M57.28,156.22v-6.93l-.57-.12a1.18,1.18,0,0,1-.48-.2.52.52,0,0,1-.18-.43v-1h1.23V147a3.61,3.61,0,0,1,.24-1.35,2.87,2.87,0,0,1,.69-1,3.16,3.16,0,0,1,1.1-.66,4.2,4.2,0,0,1,1.47-.24,5.3,5.3,0,0,1,.59,0l.57.12,0,1.27a.42.42,0,0,1-.08.23.5.5,0,0,1-.15.14.66.66,0,0,1-.21.08.82.82,0,0,1-.22,0,2.77,2.77,0,0,0-.61.07,1.08,1.08,0,0,0-.45.24,1.23,1.23,0,0,0-.28.46,2.32,2.32,0,0,0-.09.71v.41h2.05v1.78h-2v6.92Z"/><path class="cls-1" d="M77.63,156.22h-2.2a1,1,0,0,1-.61-.17,1,1,0,0,1-.34-.44l-.72-2.14H69.1l-.72,2.14a1,1,0,0,1-.33.42.92.92,0,0,1-.6.19H65.23L70,144h2.91Zm-7.87-4.68H73.1L72,148.18l-.26-.75c-.1-.29-.19-.6-.29-.94-.09.34-.18.66-.28.95s-.18.55-.26.76Z"/><path class="cls-1" d="M81.06,147.5V153a1.58,1.58,0,0,0,.29,1,1.09,1.09,0,0,0,.87.35,1.8,1.8,0,0,0,.8-.18,3,3,0,0,0,.73-.49V147.5h2.61v8.72H84.74a.62.62,0,0,1-.64-.44l-.16-.5a4.32,4.32,0,0,1-.52.44,3.3,3.3,0,0,1-.57.34,4.64,4.64,0,0,1-.66.22,3.81,3.81,0,0,1-.78.08,3.15,3.15,0,0,1-1.26-.25,2.6,2.6,0,0,1-.93-.7,3,3,0,0,1-.57-1,4.27,4.27,0,0,1-.2-1.33V147.5Z"/><path class="cls-1" d="M91.44,156.36a3.09,3.09,0,0,1-1.1-.18,2.36,2.36,0,0,1-.8-.52,2.11,2.11,0,0,1-.49-.8,3.12,3.12,0,0,1-.17-1.05V149.3h-.74a.47.47,0,0,1-.34-.13.48.48,0,0,1-.15-.38v-1L89,147.5l.51-2.13a.52.52,0,0,1,.57-.4h1.37v2.55h2.12v1.78H91.49v4.33a.87.87,0,0,0,.14.5.51.51,0,0,0,.43.2.88.88,0,0,0,.24,0l.17-.07.13-.06a.33.33,0,0,1,.15,0,.29.29,0,0,1,.19.05,1.38,1.38,0,0,1,.15.17l.79,1.24a3.81,3.81,0,0,1-1.14.57A4.7,4.7,0,0,1,91.44,156.36Z"/><path class="cls-1" d="M99,147.37a5,5,0,0,1,1.81.31,3.85,3.85,0,0,1,2.3,2.3,5,5,0,0,1,.33,1.86,5.08,5.08,0,0,1-.33,1.88,3.92,3.92,0,0,1-.9,1.42,4,4,0,0,1-1.4.9,5.31,5.31,0,0,1-3.63,0,4,4,0,0,1-1.41-.9,3.83,3.83,0,0,1-.92-1.42,5.08,5.08,0,0,1-.32-1.88,5,5,0,0,1,.32-1.86,3.88,3.88,0,0,1,.92-1.41,3.94,3.94,0,0,1,1.41-.89A5,5,0,0,1,99,147.37Zm0,7a1.47,1.47,0,0,0,1.32-.63,3.47,3.47,0,0,0,.43-1.93,3.43,3.43,0,0,0-.43-1.93A1.47,1.47,0,0,0,99,149.3a1.53,1.53,0,0,0-1.36.63,3.52,3.52,0,0,0-.42,1.93,3.57,3.57,0,0,0,.42,1.93A1.53,1.53,0,0,0,99,154.42Z"/><path class="cls-1" d="M104.86,156.22V147.5h1.61a.73.73,0,0,1,.41.11.54.54,0,0,1,.23.33l.15.47a4.47,4.47,0,0,1,.45-.42,3.36,3.36,0,0,1,.51-.32,2.32,2.32,0,0,1,.59-.22,2.51,2.51,0,0,1,.69-.08,2.07,2.07,0,0,1,1.31.4,2.66,2.66,0,0,1,.78,1.09,2.67,2.67,0,0,1,.54-.69,2.81,2.81,0,0,1,.68-.46,3.33,3.33,0,0,1,.77-.26,3.77,3.77,0,0,1,.81-.08,3.64,3.64,0,0,1,1.33.22,2.44,2.44,0,0,1,1,.65,2.87,2.87,0,0,1,.6,1,4.64,4.64,0,0,1,.2,1.4v5.54h-2.61v-5.54c0-.9-.38-1.35-1.16-1.35a1.21,1.21,0,0,0-.88.34,1.39,1.39,0,0,0-.35,1v5.54h-2.6v-5.54a1.46,1.46,0,0,0-.3-1.05,1.14,1.14,0,0,0-.86-.3,1.41,1.41,0,0,0-.67.16,2.17,2.17,0,0,0-.59.43v6.3Z"/><path class="cls-1" d="M125.36,156.22a1.19,1.19,0,0,1-.56-.1.81.81,0,0,1-.32-.42l-.18-.48a7.8,7.8,0,0,1-.63.49,3.94,3.94,0,0,1-.63.36,3.49,3.49,0,0,1-.69.22,4.89,4.89,0,0,1-.81.07,3.6,3.6,0,0,1-1.08-.16,2.23,2.23,0,0,1-.83-.46,2,2,0,0,1-.53-.75,2.8,2.8,0,0,1-.18-1,2.28,2.28,0,0,1,.23-.95,2.43,2.43,0,0,1,.82-.89,5.45,5.45,0,0,1,1.56-.66,10.91,10.91,0,0,1,2.48-.31v-.37a1.57,1.57,0,0,0-.31-1.1,1.15,1.15,0,0,0-.9-.34,2.23,2.23,0,0,0-.75.1,3.25,3.25,0,0,0-.53.22,4.78,4.78,0,0,1-.45.23,1.18,1.18,0,0,1-.52.1.78.78,0,0,1-.46-.13,1.14,1.14,0,0,1-.3-.32l-.47-.82a5.43,5.43,0,0,1,1.76-1,6.27,6.27,0,0,1,2.06-.34,3.74,3.74,0,0,1,1.42.26,3,3,0,0,1,1.08.71,3.14,3.14,0,0,1,.68,1.09,3.85,3.85,0,0,1,.23,1.38v5.45Zm-3-1.59a2.24,2.24,0,0,0,.89-.17,2.56,2.56,0,0,0,.76-.58v-1.21a9.4,9.4,0,0,0-1.29.14,3.45,3.45,0,0,0-.8.25,1.11,1.11,0,0,0-.41.34.89.89,0,0,0-.11.43.73.73,0,0,0,.24.62A1.24,1.24,0,0,0,122.36,154.63Z"/><path class="cls-1" d="M131.47,156.36a3.06,3.06,0,0,1-1.1-.18,2.26,2.26,0,0,1-.8-.52,2.11,2.11,0,0,1-.49-.8,2.89,2.89,0,0,1-.17-1.05V149.3h-.74a.49.49,0,0,1-.35-.13.51.51,0,0,1-.14-.38v-1l1.39-.27.51-2.13a.52.52,0,0,1,.57-.4h1.37v2.55h2.11v1.78h-2.11v4.33a.8.8,0,0,0,.14.5.51.51,0,0,0,.43.2.88.88,0,0,0,.24,0l.17-.07.13-.06a.33.33,0,0,1,.15,0,.3.3,0,0,1,.19.05l.14.17.79,1.24a3.64,3.64,0,0,1-1.13.57A4.75,4.75,0,0,1,131.47,156.36Z"/><path class="cls-1" d="M138.86,147.37a4.5,4.5,0,0,1,1.59.27,3.53,3.53,0,0,1,1.24.78,3.58,3.58,0,0,1,.8,1.25,4.51,4.51,0,0,1,.29,1.69c0,.2,0,.36,0,.48a.9.9,0,0,1-.09.29.37.37,0,0,1-.19.16,1.06,1.06,0,0,1-.29,0h-5a2.39,2.39,0,0,0,.66,1.58,2,2,0,0,0,1.39.5,2.57,2.57,0,0,0,.78-.11,4.58,4.58,0,0,0,.58-.25l.48-.24a1,1,0,0,1,.45-.11.53.53,0,0,1,.47.23l.75.93a3.78,3.78,0,0,1-.87.75,4.22,4.22,0,0,1-1,.46,4.78,4.78,0,0,1-1,.22,6.22,6.22,0,0,1-.94.07,4.9,4.9,0,0,1-1.72-.3,4,4,0,0,1-1.4-.89,4.15,4.15,0,0,1-1-1.46,5.55,5.55,0,0,1-.35-2,4.56,4.56,0,0,1,.3-1.65,4,4,0,0,1,.86-1.38,4.07,4.07,0,0,1,1.35-.93A4.46,4.46,0,0,1,138.86,147.37Zm0,1.8a1.57,1.57,0,0,0-1.16.42,2.21,2.21,0,0,0-.56,1.22h3.26a2.47,2.47,0,0,0-.08-.6,1.48,1.48,0,0,0-.27-.53,1.25,1.25,0,0,0-.47-.37A1.6,1.6,0,0,0,138.91,149.17Z"/><path class="cls-1" d="M47.88,75.38a35.24,35.24,0,0,0,2.56,12.33l4.43-1.79a31.5,31.5,0,0,1-2.21-10.69Z"/><path class="cls-1" d="M84,43a31.23,31.23,0,0,1,18.2,5.83L104.94,45A36.09,36.09,0,0,0,54.6,53.34,37,37,0,0,0,51,59.76L55.3,61.7A31.38,31.38,0,0,1,84,43Z"/><path class="cls-1" d="M119.6,68.81A35.71,35.71,0,0,0,115,56l-4.12,2.38a30.76,30.76,0,0,1,3.89,10.41Z"/><path class="cls-1" d="M114.78,79.85a31.28,31.28,0,0,1-36.31,25.31A31.66,31.66,0,0,1,62,96.69l-3.31,3.42A36.08,36.08,0,0,0,119.6,79.85Z"/><path class="cls-1" d="M107.28,68.81h4.86A28.8,28.8,0,0,0,95.23,47.94l-1.91,4.31A24.17,24.17,0,0,1,107.28,68.81Z"/><path class="cls-1" d="M62,64.65a24,24,0,0,1,21.88-14.3l0-4.74a28.82,28.82,0,0,0-26.28,17.1Z"/><path class="cls-1" d="M74.66,96.45A23.93,23.93,0,0,1,60,75.07l-4.75.16a28.8,28.8,0,0,0,17.69,25.66Z"/><path class="cls-1" d="M107.28,79.85A24.06,24.06,0,0,1,84.46,98.32l.15,4.74a28.81,28.81,0,0,0,27.53-23.21Z"/><path class="cls-1" d="M99.66,79.85a16.64,16.64,0,1,1,0-11h5a21.42,21.42,0,1,0,0,11Z"/><path class="cls-1" d="M91.42,79.85a9.33,9.33,0,0,1-3.66,3l2.06,4.27a14.06,14.06,0,0,0,7-7.23Z"/><path class="cls-1" d="M84,83.66a9.32,9.32,0,0,1-6.65-2.8L74,84.29a14.11,14.11,0,0,0,10,4.16h.16L84,83.66Z"/><path class="cls-1" d="M83.64,65V60.3A14,14,0,0,0,70.81,79.47l4.4-1.79a9.33,9.33,0,0,1,5.32-12A9.89,9.89,0,0,1,83.64,65Z"/><path class="cls-1" d="M89.43,61.39l-1.9,4.35a9.61,9.61,0,0,1,3.93,3.07H96.9A14.5,14.5,0,0,0,89.43,61.39Z"/></svg>