<?xml version="1.0" encoding="utf-8"?>
<!-- Generator: Adobe Illustrator 20.0.0, SVG Export Plug-In . SVG Version: 6.00 Build 0)  -->
<svg version="1.1" id="Layer_1" xmlns="http://www.w3.org/2000/svg" xmlns:xlink="http://www.w3.org/1999/xlink" x="0px" y="0px"
	 viewBox="0 0 336.4 235.6" style="enable-background:new 0 0 336.4 235.6;" xml:space="preserve">
<style type="text/css">
	.st0{opacity:0.7;fill:none;stroke:#7F888D;stroke-width:3;stroke-miterlimit:10;}
	.st1{fill:#7F888D;}
	.st2{opacity:0.2;fill:#F08921;}
	.st3{fill:#445464;}
	.st4{font-family:'Gotham-Bold';}
	.st5{font-size:9px;}
	.st6{fill:#435363;}
	.st7{fill:#F38B00;}
	.st8{fill:#F08921;}
	.st9{fill:#FFFFFF;}
	.st10{font-size:12px;}
	.st11{font-family:'Gotham-Book';}
	.st12{font-size:7px;}
	.st13{clip-path:url(#SVGID_2_);fill:#FFFFFF;}
</style>
<line class="st0" x1="52.5" y1="120.1" x2="52.5" y2="176.1"/>
<line class="st0" x1="283.5" y1="120.1" x2="283.5" y2="176.1"/>
<line class="st0" x1="168.5" y1="120.1" x2="168.5" y2="176.1"/>
<rect x="19.3" y="130.1" class="st1" width="297.8" height="31.5"/>
<rect x="305.2" y="0.2" class="st2" width="31.3" height="120"/>
<text transform="matrix(0 1 -1 0 317.3317 22.1944)" class="st3 st4 st5">High Availability</text>
<rect class="st2" width="301" height="120.1"/>
<path class="st6" d="M9.2,14.4L9.2,14.4c0-3.6,2.7-6.5,6.6-6.5c2.4,0,3.8,0.8,5,1.9l-1.8,2c-1-0.9-2-1.4-3.2-1.4
	c-2.1,0-3.6,1.8-3.6,3.9v0c0,2.2,1.5,4,3.6,4c1.4,0,2.3-0.6,3.3-1.5l1.8,1.8c-1.3,1.4-2.7,2.2-5.2,2.2C11.9,20.9,9.2,18,9.2,14.4z"
	/>
<path class="st6" d="M23,8.1h2.8v5h5.1v-5h2.8v12.6h-2.8v-5.1h-5.1v5.1H23V8.1z"/>
<path class="st6" d="M36.7,8.1h9.5v2.5h-6.7v2.6h5.9v2.5h-5.9v2.6h6.8v2.5h-9.6V8.1z"/>
<path class="st6" d="M48.7,8.1h9.6v2.5h-6.8v2.7h6v2.5h-6v4.9h-2.8V8.1z"/>
<path class="st7" d="M65.4,8h1.3l5.7,12.7h-1.5l-1.5-3.3h-6.8l-1.5,3.3h-1.5L65.4,8z M68.9,16l-2.9-6.4L63.2,16H68.9z"/>
<path class="st7" d="M74.3,15.4V8.1h1.4v7.2c0,2.7,1.5,4.2,3.8,4.2c2.3,0,3.8-1.4,3.8-4.2V8.1h1.4v7.2c0,3.7-2.1,5.6-5.2,5.6
	C76.4,20.8,74.3,18.9,74.3,15.4z"/>
<path class="st7" d="M91.5,9.4h-4.2V8.1h9.9v1.3h-4.2v11.3h-1.4V9.4z"/>
<path class="st7" d="M98.4,14.4L98.4,14.4c0-3.5,2.6-6.5,6.4-6.5s6.4,3,6.4,6.5v0c0,3.5-2.6,6.5-6.4,6.5S98.4,17.9,98.4,14.4z
	 M109.7,14.4L109.7,14.4c0-2.9-2.1-5.2-5-5.2s-4.9,2.3-4.9,5.2v0c0,2.9,2.1,5.2,5,5.2S109.7,17.2,109.7,14.4z"/>
<path class="st7" d="M114.2,8.1h1.4l4.6,6.9l4.6-6.9h1.4v12.6h-1.4V10.5l-4.6,6.7h-0.1l-4.6-6.7v10.2h-1.4V8.1z"/>
<path class="st7" d="M134.5,8h1.3l5.7,12.7H140l-1.5-3.3h-6.8l-1.5,3.3h-1.5L134.5,8z M138,16l-2.9-6.4l-2.9,6.4H138z"/>
<path class="st7" d="M145.7,9.4h-4.2V8.1h9.9v1.3h-4.2v11.3h-1.4V9.4z"/>
<path class="st7" d="M154,8.1h9.1v1.3h-7.7v4.3h6.9v1.3h-6.9v4.4h7.8v1.3H154V8.1z"/>
<rect x="105.4" y="28.9" class="st8" width="90.3" height="82.9"/>
<rect x="7.3" y="28.9" class="st8" width="90.3" height="82.9"/>
<rect x="203.4" y="28.9" class="st8" width="90.3" height="82.9"/>
<text transform="matrix(1 0 0 1 22.4307 73.7145)" class="st9 st4 st10">Workflow</text>
<text transform="matrix(1 0 0 1 123.8077 73.7143)" class="st9 st4 st10">Visibility</text>
<text transform="matrix(1 0 0 1 212.3982 73.7146)" class="st9 st4 st10">Compliance</text>
<rect x="0.1" y="171.8" class="st3" width="106.1" height="63.7"/>
<rect x="230.2" y="171.8" class="st3" width="106.1" height="63.7"/>
<rect x="115.2" y="171.8" class="st3" width="106.1" height="63.7"/>
<g>
	<text transform="matrix(1 0 0 1 7.7183 222.3801)" class="st9 st11 st12">Infrastructure Automation</text>
</g>
<g>
	<text transform="matrix(1 0 0 1 241.0177 222.3801)" class="st9 st11 st12">Compliance Automation</text>
</g>
<g>
	<text transform="matrix(1 0 0 1 126.5329 222.3801)" class="st9 st11 st12">Application Automation</text>
</g>
<path class="st9" d="M64.3,203L64.3,203l-0.1-0.5H64v-0.1h0.5v0.1h-0.2V203L64.3,203z M64.9,202.9L64.9,202.9l-0.2-0.3v0.5h-0.1
	v-0.6h0.1l0.2,0.3l0.2-0.3h0.1v0.6h-0.1v-0.5L64.9,202.9L64.9,202.9z"/>
<path class="st9" d="M41.1,205L41.1,205c0-1.6,1.2-2.8,2.8-2.8c1,0,1.6,0.3,2.1,0.8l-0.8,0.9c-0.4-0.4-0.8-0.6-1.4-0.6
	c-0.9,0-1.6,0.8-1.6,1.7v0c0,0.9,0.6,1.7,1.6,1.7c0.6,0,1-0.2,1.4-0.6l0.8,0.8c-0.6,0.6-1.2,1-2.2,1C42.3,207.8,41.1,206.6,41.1,205
	"/>
<polygon class="st9" points="47.5,202.3 48.7,202.3 48.7,204.5 50.9,204.5 50.9,202.3 52.1,202.3 52.1,207.7 50.9,207.7 50.9,205.6 
	48.7,205.6 48.7,207.7 47.5,207.7 47.5,202.3 "/>
<polygon class="st9" points="53.5,202.3 57.6,202.3 57.6,203.4 54.7,203.4 54.7,204.5 57.3,204.5 57.3,205.5 54.7,205.5 54.7,206.7 
	57.6,206.7 57.6,207.7 53.5,207.7 53.5,202.3 "/>
<polygon class="st9" points="59.2,202.3 63.3,202.3 63.3,203.4 60.4,203.4 60.4,204.6 63,204.6 63,205.6 60.4,205.6 60.4,207.7 
	59.2,207.7 59.2,202.3 "/>
<path class="st9" d="M52.3,195c-1.9,0-3.4-1.5-3.4-3.4c0-1.9,1.5-3.4,3.4-3.4c1.5,0,2.9,1,3.3,2.5h1.3c-0.4-2.1-2.3-3.7-4.6-3.7
	c-2.6,0-4.7,2.1-4.7,4.7c0,2.6,2.1,4.7,4.7,4.7c2.3,0,4.1-1.6,4.6-3.7h-1.3C55.2,194,53.9,195,52.3,195"/>
<path class="st9" d="M50.1,193.9c0.6,0.6,1.4,1,2.3,1v-1.4c-0.5,0-1-0.2-1.3-0.6L50.1,193.9L50.1,193.9z"/>
<path class="st9" d="M49.1,191.6c0,0.5,0.1,0.9,0.3,1.3l1.2-0.5c-0.1-0.2-0.2-0.5-0.2-0.8c0-1,0.8-1.9,1.9-1.9v-1.4
	C50.6,188.4,49.1,189.8,49.1,191.6"/>
<path class="st9" d="M53.5,188.6l-0.5,1.3c0.4,0.2,0.7,0.4,1,0.8h1.5C55.2,189.7,54.4,188.9,53.5,188.6"/>
<path class="st9" d="M53,193.4l0.5,1.3c0.9-0.4,1.6-1.1,1.9-2.1H54C53.8,192.9,53.4,193.2,53,193.4"/>
<path class="st9" d="M52.3,197.9c-1.7,0-3.3-0.7-4.4-1.8l-0.9,0.9c1.4,1.4,3.3,2.2,5.3,2.2c3.9,0,7-2.9,7.5-6.6h-1.3
	C58.1,195.6,55.5,197.9,52.3,197.9"/>
<path class="st9" d="M52.3,185.3c1.4,0,2.7,0.5,3.8,1.2l0.8-1c-1.3-0.9-2.8-1.5-4.5-1.5c-3.2,0-5.9,2-7,4.8l1.2,0.5
	C47.4,187,49.7,185.3,52.3,185.3"/>
<path class="st9" d="M58.6,190.7h1.3c-0.1-1.1-0.5-2.1-1.1-3.1l-1.1,0.7C58.1,189,58.4,189.8,58.6,190.7"/>
<path class="st9" d="M57.1,190.7h1.3c-0.3-2.2-1.8-4-3.8-4.8l-0.5,1.2C55.6,187.7,56.8,189,57.1,190.7"/>
<path class="st9" d="M52.3,186.8L52.3,186.8l0-1.3h0c-2.6,0-4.8,1.6-5.7,3.9l1.2,0.5C48.5,188,50.3,186.8,52.3,186.8"/>
<path class="st9" d="M47.5,191.6L47.5,191.6l-1.3,0v0c0,2.6,1.6,4.8,3.8,5.7l0.5-1.2C48.8,195.4,47.5,193.6,47.5,191.6"/>
<path class="st9" d="M52.3,196.4v1.3c3.1,0,5.6-2.2,6-5.2h-1.3C56.7,194.8,54.7,196.4,52.3,196.4"/>
<path class="st9" d="M45.4,194.6c-0.4-1-0.6-2-0.6-3l1.3,0c0,0.9,0.2,1.7,0.5,2.5L45.4,194.6L45.4,194.6z"/>
<path class="st9" d="M264.1,196c0,1.3-1.1,2.4-2.4,2.4s-2.4-1.1-2.4-2.4s1.1-2.4,2.4-2.4S264.2,194.6,264.1,196L264.1,196z"/>
<path class="st9" d="M268.8,196c0,3.9-3.2,7-7.1,7c-1.6,0-3.1-0.6-4.3-1.5l2-2c0.6,0.4,1.4,0.7,2.2,0.7c2.3,0,4.2-1.9,4.2-4.2
	c0-2.3-1.9-4.2-4.2-4.2c-2.3,0-4.2,1.9-4.2,4.2c0,0.8,0.2,1.6,0.6,2.3l-2,2c-0.9-1.2-1.4-2.7-1.4-4.3c0-3.9,3.2-7,7.1-7
	C265.7,188.9,268.8,192.1,268.8,196L268.8,196z"/>
<polygon class="st9" points="271.4,199.8 271.4,191.8 273,191.8 273,199.8 271.4,199.8 "/>
<polygon class="st9" points="281.3,199.8 276.8,195.1 276.8,199.8 275.2,199.8 275.2,191.8 275.7,191.8 280.1,196.3 280.1,191.8 
	281.7,191.8 281.7,199.8 281.3,199.8 "/>
<path class="st9" d="M286.2,196.4c-0.3-0.1-0.8-0.2-1.2-0.5c-0.6-0.4-1-1-1-1.8c0-0.6,0.2-1.2,0.6-1.6c0.6-0.6,1.5-0.8,1.9-0.8
	c1.2,0,1.8,0.4,2.4,0.8l0.3,0.2l-0.8,1.4l-0.3-0.2c-0.5-0.3-0.8-0.6-1.5-0.6c-0.1,0-0.5,0.1-0.7,0.3c-0.1,0.1-0.1,0.2-0.1,0.5
	c0,0.4,0.3,0.6,1,0.8c0.1,0,0.2,0,0.2,0.1c0.8,0.3,1.4,0.6,1.8,1.1c0.4,0.5,0.6,1,0.6,1.6c0,0.6-0.2,1.1-0.6,1.6
	c-0.5,0.5-1.1,0.8-1.8,0.8c-0.4,0-0.8,0-1.4-0.2c-0.7-0.2-1.4-0.6-1.9-1.2l1.2-1.1c0.8,0.9,1.8,0.9,2.2,0.9c0.7,0,0.9-0.6,0.9-0.8
	C287.6,197.1,287.1,196.7,286.2,196.4L286.2,196.4L286.2,196.4L286.2,196.4z"/>
<path class="st9" d="M293.8,195c0.4,0,0.8-0.4,0.8-0.8c0-0.4-0.4-0.8-0.8-0.8h-1v1.6H293.8L293.8,195z M293.8,191.8
	c1.3,0,2.4,1.1,2.4,2.4c0,1.3-1.1,2.4-2.4,2.4h-1v3.2h-1.6v-8H293.8L293.8,191.8z"/>
<path class="st9" d="M297.9,198.2h5.3v1.6h-5.3V198.2L297.9,198.2z M297.9,194.9h4.4v1.6h-4.4V194.9L297.9,194.9z M303.3,193.4h-5.4
	v-1.6h5.4V193.4L303.3,193.4z"/>
<path class="st9" d="M310.8,193.7c-1.6-1-3.9-0.1-3.9,2.1c0,2.3,2.5,3.2,4,2l1,1.2c-0.7,0.6-1.7,1-2.7,1c-2.3,0-4.2-1.9-4.2-4.2
	s1.9-4.2,4.2-4.2c1,0,1.9,0.3,2.6,0.9L310.8,193.7L310.8,193.7z"/>
<path class="st9" d="M161.4,203.2c-0.4,0.4-0.9,0.6-1.5,0.6c0,0,0,0,0,0c-1.2,0-2.1-0.8-2.1-2c0-1.2,0.8-2,2-2.1c1.2,0,2,0.8,2,1.9
	C161.9,202.3,161.7,202.9,161.4,203.2L161.4,203.2z M162,199.4c-0.6-0.5-1.4-0.8-2.2-0.7c-0.6,0.1-1.2,0.3-1.6,0.7
	c-0.1,0.1-0.3,0-0.3-0.1v-2.7c0-0.1-0.1-0.2-0.2-0.2h-0.7c-0.1,0-0.2,0.1-0.2,0.2l0,0c0,0,0,0.1,0,0.1c0,0.1,0,0.1,0,0.2l0,0.6
	c0,1.4,0,2.8,0,4.2c0,0.2,0,0.5,0.1,0.8c0.3,1.5,1.5,2.4,3.1,2.4c0,0,0.1,0,0.1,0c1.3,0,2.4-0.8,2.8-1.9
	C163.3,201.6,162.9,200.2,162,199.4L162,199.4z"/>
<path class="st9" d="M146.9,198.7c-0.9-0.1-1.6,0-2.2,0.5c-0.1,0.1-0.3,0-0.3-0.1v-2.5c0-0.1-0.1-0.2-0.2-0.2h-0.7
	c-0.1,0-0.2,0.1-0.2,0.2v7.9c0,0.1,0.1,0.2,0.2,0.2h0.7c0.1,0,0.2-0.1,0.2-0.2c0-0.3,0-0.9,0-1.1c0-0.6,0-1.2,0-1.8
	c0-0.6,0.2-1.1,0.5-1.4c0.3-0.3,0.9-0.5,1.5-0.4c0.9,0.1,1.5,0.6,1.6,1.5c0,0.7,0,1.3,0,2c0,0.3,0,0.6,0,0.9c0,0.1,0,0.2,0,0.3
	l0,0.1c0,0.1,0.1,0.2,0.2,0.2h0.7c0.1,0,0.2-0.1,0.2-0.2v0c0-0.3,0-0.6,0-1c0-0.7,0-1.4,0-2.2C149.1,199.9,148.3,199,146.9,198.7
	L146.9,198.7z"/>
<path class="st9" d="M164.7,198.8l-0.7,0c-0.1,0-0.2,0.1-0.2,0.2v5.5c0,0.1,0.1,0.2,0.2,0.2h0.7c0.1,0,0.2-0.1,0.2-0.2V199
	C164.8,198.9,164.8,198.8,164.7,198.8L164.7,198.8z"/>
<path class="st9" d="M154.3,203.2c-0.4,0.4-0.9,0.6-1.5,0.6c0,0,0,0,0,0c-1.2,0-2-0.8-2-2c0-1.2,0.8-2.1,2-2.1c0,0,0,0,0,0
	c1.2,0,2,0.8,2,2C154.9,202.3,154.7,202.8,154.3,203.2L154.3,203.2z M155.3,199.8c-0.9-1.1-2.6-1.4-4-0.8c-1.3,0.6-1.9,2.1-1.5,3.5
	c0.3,1.1,1,1.9,2.1,2.2c0.3,0.1,0.6,0.1,0.9,0.1c0.8,0,1.4-0.3,2-0.9c0.1-0.1,0.1-0.1,0.2-0.2v0.7c0,0.1,0.1,0.2,0.2,0.2h0.6
	c0.1,0,0.2-0.1,0.2-0.2v0c0-0.3,0-0.6,0-1c0-0.8,0-1.5,0-2.3C155.9,200.8,155.7,200.3,155.3,199.8L155.3,199.8z"/>
<g>
	<defs>
		<rect id="SVGID_1_" x="143.4" y="187" width="49.9" height="17.8"/>
	</defs>
	<clipPath id="SVGID_2_">
		<use xlink:href="#SVGID_1_"  style="overflow:visible;"/>
	</clipPath>
	<path class="st13" d="M182.5,202.2h-0.8c-0.1,0-0.2,0.1-0.2,0.2l0,0.1c0,0.1,0,0.1,0,0.2c0,0.7-0.4,1-1.1,1.1
		c-0.5,0-1.3-0.1-1.3-0.9c-0.1-0.7-0.1-1.5-0.1-2.2c0-0.2,0-0.4,0-0.7c0-0.1,0.1-0.2,0.2-0.2h2c0.2,0,0.2-0.2,0.1-0.3l-0.9-0.7
		c0,0-0.1,0-0.1,0h-1.2c-0.1,0-0.2-0.1-0.2-0.2v-1.1c0-0.1-0.1-0.2-0.2-0.2h-0.7c-0.1,0-0.2,0.1-0.2,0.2l0,0.3c0,0,0,3.1,0,5
		c0,0.8,0.7,1.6,1.6,1.8c0.2,0.1,0.5,0.1,0.8,0.1c0,0,0.1,0,0.1,0c0.6,0,1.2-0.3,1.6-0.7c0.4-0.5,0.6-1.1,0.5-1.7L182.5,202.2
		L182.5,202.2z"/>
	<path class="st13" d="M190.5,193.8l-0.9,0.9c-0.1,0.1-0.2,0-0.2-0.1v-0.3c0-0.1-0.1-0.1-0.1-0.1h-0.5c-0.1,0-0.1,0.1-0.1,0.1v0.7
		c0,0.1,0.1,0.1,0.1,0.1h0.2c0.1,0,0.2,0.2,0.1,0.2l-0.9,0.9c-0.1,0.1-0.1,0.1-0.2,0l-0.9-0.9c-0.1-0.1,0-0.2,0.1-0.2h0.2
		c0.1,0,0.1-0.1,0.1-0.1v-0.7c0-0.1-0.1-0.1-0.1-0.1H186c-0.1,0-0.1,0.1-0.1,0.1v0.7c0,0.1,0.1,0.1,0.1,0.1h0.2
		c0.1,0,0.2,0.2,0.1,0.2l-0.9,0.9c-0.1,0.1-0.1,0.1-0.2,0l-0.9-0.9c-0.1-0.1,0-0.2,0.1-0.2h0.2c0.1,0,0.1-0.1,0.1-0.1v-0.7
		c0-0.1-0.1-0.1-0.1-0.1H184c-0.1,0-0.1,0.1-0.1,0.1v0.3c0,0.1-0.2,0.2-0.2,0.1l-0.9-0.9c-0.1-0.1-0.1-0.1,0-0.2l0.9-0.9
		c0.1-0.1,0.2,0,0.2,0.1v0.3c0,0.1,0.1,0.1,0.1,0.1h0.5c0.1,0,0.1-0.1,0.1-0.1v-0.7c0-0.1-0.1-0.1-0.1-0.1h-0.2
		c-0.1,0-0.2-0.2-0.1-0.2l0.9-0.9c0.1-0.1,0.1-0.1,0.2,0l0.9,0.9c0.1,0.1,0,0.2-0.1,0.2H186c-0.1,0-0.1,0.1-0.1,0.1v0.7
		c0,0.1,0.1,0.1,0.1,0.1h1.1c0.1,0,0.1-0.1,0.1-0.1v-0.7c0-0.1-0.1-0.1-0.1-0.1h-0.2c-0.1,0-0.2-0.2-0.1-0.2l0.9-0.9
		c0.1-0.1,0.1-0.1,0.2,0l0.9,0.9c0.1,0.1,0,0.2-0.1,0.2h-0.2c-0.1,0-0.1,0.1-0.1,0.1v0.7c0,0.1,0.1,0.1,0.1,0.1h0.5
		c0.1,0,0.1-0.1,0.1-0.1v-0.3c0-0.1,0.2-0.2,0.2-0.1l0.9,0.9C190.5,193.7,190.5,193.7,190.5,193.8L190.5,193.8z M192.8,192.6
		l-5.1-5.1c-0.6-0.6-1.6-0.6-2.2,0l-5.1,5.1c-0.6,0.6-0.6,1.6,0,2.2l5.1,5.1c0.6,0.6,1.6,0.6,2.2,0l5.1-5.1
		C193.4,194.2,193.4,193.2,192.8,192.6L192.8,192.6z"/>
</g>
<path class="st9" d="M175.7,203.2c-0.4,0.4-0.9,0.6-1.5,0.6c0,0,0,0,0,0c-1.2,0-2-0.8-2-2c0-1.2,0.8-2.1,2-2.1c0,0,0,0,0,0
	c1.2,0,2,0.8,2,2C176.2,202.3,176,202.8,175.7,203.2L175.7,203.2z M176.7,199.8c-0.9-1.1-2.6-1.4-4-0.8c-1.3,0.6-1.9,2.1-1.5,3.5
	c0.3,1.1,1,1.9,2.1,2.2c0.3,0.1,0.6,0.1,0.9,0.1c0.8,0,1.4-0.3,2-0.9c0.1-0.1,0.1-0.1,0.2-0.2v0.7c0,0.1,0.1,0.2,0.2,0.2h0.6
	c0.1,0,0.2-0.1,0.2-0.2v0c0-0.3,0-0.6,0-1c0-0.8,0-1.5,0-2.3C177.3,200.8,177,200.3,176.7,199.8L176.7,199.8z"/>
<path class="st9" d="M170.4,202.2h-0.8c-0.1,0-0.2,0.1-0.2,0.2l0,0.1c0,0.1,0,0.2,0,0.2c0,0.6-0.4,1-1.1,1.1c-0.5,0-1.3-0.1-1.3-0.9
	c-0.1-0.7-0.1-1.5-0.1-2.2c0-0.2,0-0.5,0-0.7c0-0.1,0.1-0.2,0.2-0.2h2.1c0.2,0,0.2-0.2,0.1-0.3l-0.8-0.7c0,0-0.1,0-0.1,0H167
	c-0.1,0-0.2-0.1-0.2-0.2v-1.1c0-0.1-0.1-0.2-0.2-0.2H166c-0.1,0-0.2,0.1-0.2,0.2l0,0.3c0,0,0,3.2,0,5.1c0,0.5,0.2,0.9,0.6,1.3
	c0.5,0.5,1.1,0.6,1.6,0.6c0.1,0,0.3,0,0.4,0c0.6,0,1.2-0.4,1.5-0.9c0.4-0.5,0.5-1.1,0.4-1.6L170.4,202.2L170.4,202.2z"/>
<path class="st9" d="M164.7,197.1H164c-0.1,0-0.2,0.1-0.2,0.2v0.7c0,0.1,0.1,0.2,0.2,0.2h0.7c0.1,0,0.2-0.1,0.2-0.2v-0.7
	C164.8,197.2,164.8,197.1,164.7,197.1L164.7,197.1z"/>
<g>
	<text transform="matrix(1 0 0 1 55.1533 148.3981)"><tspan x="0" y="0" class="st9 st4 st5">Content </tspan><tspan x="39.5" y="0" class="st9 st11 st12">(Chef Cookbooks, Habitat Plans, Compliance Profiles)</tspan></text>
</g>
</svg>
