<?xml version="1.0" encoding="utf-8"?>
<!-- Generator: Adobe Illustrator 21.0.2, SVG Export Plug-In . SVG Version: 6.00 Build 0)  -->
<svg version="1.1" id="Layer_1" xmlns="http://www.w3.org/2000/svg" xmlns:xlink="http://www.w3.org/1999/xlink" x="0px" y="0px"
	 viewBox="0 0 951 576" enable-background="new 0 0 951 576" xml:space="preserve">
<rect fill="#7F888D" width="951" height="576.4"/>
<rect x="13.9" y="14" fill="#FFFFFF" width="923.3" height="553"/>
<polygon fill="#FCB716" fill-opacity="0.35" points="248.3,535.8 218,503.1 217.7,503.1 217.7,395 218,395 248.3,362.3 "/>
<rect x="248.3" y="362.3" fill="#FCB716" fill-opacity="0.35" width="512.9" height="173.5"/>
<rect x="775.6" y="87.3" fill="#6CB2E2" width="133.4" height="133.4"/>
<g>
	<g>
		<path fill="#FFFFFF" d="M843.2,160.3c-7.1,0-12.9-5.8-12.9-12.9c0-7.1,5.8-12.9,12.9-12.9c5.8,0,10.8,3.9,12.3,9.3h5
			c-1.7-8-8.8-14.1-17.3-14.1c-9.7,0-17.7,7.9-17.7,17.7c0,9.7,7.9,17.7,17.7,17.7c8.5,0,15.7-6.1,17.3-14.1h-5
			C854,156.3,849.1,160.3,843.2,160.3"/>
		<path fill="#FFFFFF" d="M834.5,156.1c2.2,2.2,5.3,3.6,8.7,3.6v-5.1c-2,0-3.8-0.8-5-2.1L834.5,156.1z"/>
		<path fill="#FFFFFF" d="M830.9,147.4c0,1.8,0.4,3.4,1,4.9l4.7-2.1c-0.4-0.9-0.6-1.8-0.6-2.9c0-3.9,3.2-7.1,7.1-7.1v-5.1
			C836.4,135.1,830.9,140.6,830.9,147.4"/>
		<path fill="#FFFFFF" d="M847.6,136l-1.9,4.8c1.5,0.6,2.8,1.7,3.6,3.1h5.5C853.8,140.2,851.1,137.3,847.6,136"/>
		<path fill="#FFFFFF" d="M845.8,154l1.9,4.8c3.5-1.4,6.2-4.3,7.3-7.9h-5.5C848.6,152.4,847.3,153.5,845.8,154"/>
		<path fill="#FFFFFF" d="M820.5,154.3c-0.1-0.3-0.2-0.5-0.2-0.8c0,0,0,0,0,0c-0.1-0.3-0.1-0.5-0.2-0.8c0-0.1,0-0.1,0-0.2
			c0-0.2-0.1-0.4-0.1-0.7c0-0.1,0-0.2-0.1-0.3c0-0.2-0.1-0.4-0.1-0.5c0-0.2,0-0.3-0.1-0.5c-0.1-1-0.2-2.1-0.2-3.1h-4.8
			c0,1.2,0.1,2.3,0.2,3.4h0c0,0,0,0,0,0.1c0,0.3,0.1,0.6,0.1,0.9c0,0.1,0,0.2,0,0.3c0,0.3,0.1,0.5,0.1,0.7c0,0.1,0.1,0.3,0.1,0.4
			c0,0.2,0.1,0.4,0.1,0.6c0,0.2,0.1,0.3,0.1,0.5c0,0.2,0.1,0.3,0.1,0.5c0.1,0.2,0.1,0.4,0.2,0.6c0,0.1,0,0.2,0.1,0.3l0,0
			c0.3,1.1,0.7,2.2,1.2,3.2l4.4-2C821.1,156.1,820.8,155.2,820.5,154.3z"/>
		<path fill="#FFFFFF" d="M843.2,171.1c-6.5,0-12.5-2.7-16.7-7l-3.4,3.4c5.2,5.2,12.3,8.4,20.2,8.4c14.6,0,26.6-10.9,28.3-25h-4.9
			C864.9,162.3,855.1,171.1,843.2,171.1"/>
		<path fill="#FFFFFF" d="M843.2,123.7c5.3,0,10.2,1.8,14.2,4.7l2.9-3.9c-4.8-3.6-10.7-5.7-17.1-5.7c-12.1,0-22.5,7.5-26.6,18.2
			l4.5,1.8C824.6,130,833.2,123.7,843.2,123.7"/>
		<path fill="#FFFFFF" d="M866.6,143.8h4.9c-0.5-4.2-2-8.1-4.1-11.5l-4.1,2.6C865,137.5,866.1,140.6,866.6,143.8"/>
		<path fill="#FFFFFF" d="M861.1,143.8h4.9c-1.3-8.2-6.9-15-14.4-18l-1.8,4.5C855.6,132.6,859.9,137.7,861.1,143.8"/>
		<path fill="#FFFFFF" d="M843.2,129.1L843.2,129.1l0-4.8h0c-9.8,0-18.2,6.1-21.5,14.7l4.5,1.8C828.8,134,835.5,129.1,843.2,129.1"
			/>
		<path fill="#FFFFFF" d="M824.9,147.4L824.9,147.4l-4.8,0v0c0,9.7,6,18,14.5,21.4l1.8-4.5C829.7,161.7,824.9,155.1,824.9,147.4"/>
		<path fill="#FFFFFF" d="M843.2,165.7v4.8c11.5,0,21.1-8.5,22.8-19.5h-4.9C859.5,159.3,852.1,165.7,843.2,165.7"/>
	</g>
	<rect x="804.2" y="109.2" fill="none" stroke="#FFFFFF" stroke-width="4" stroke-miterlimit="10" width="76.8" height="76.4"/>
</g>
<g>
	<g>
		<g>
			<path fill="#FFFFFF" d="M800.6,209.9c-0.5,0.3-1.5,0.5-2.8,0.5c-3,0-5.3-1.9-5.3-5.5c0-3.4,2.3-5.7,5.6-5.7
				c1.3,0,2.2,0.3,2.6,0.5l-0.3,1.1c-0.5-0.3-1.3-0.4-2.2-0.4c-2.5,0-4.2,1.6-4.2,4.5c0,2.6,1.5,4.3,4.1,4.3c0.8,0,1.7-0.2,2.3-0.4
				L800.6,209.9z"/>
			<path fill="#FFFFFF" d="M802.3,198.9h1.4v4.8h0c0.2-0.4,0.6-0.8,1-1c0.4-0.2,0.9-0.4,1.4-0.4c1,0,2.7,0.6,2.7,3.3v4.6h-1.4v-4.4
				c0-1.2-0.5-2.3-1.8-2.3c-0.9,0-1.6,0.6-1.9,1.4c-0.1,0.2-0.1,0.4-0.1,0.7v4.7h-1.4V198.9z"/>
			<path fill="#FFFFFF" d="M812,206.7c0,1.9,1.2,2.7,2.7,2.7c1,0,1.6-0.2,2.1-0.4l0.2,1c-0.5,0.2-1.3,0.5-2.6,0.5
				c-2.4,0-3.8-1.6-3.8-3.9s1.4-4.2,3.6-4.2c2.5,0,3.2,2.2,3.2,3.6c0,0.3,0,0.5,0,0.7H812z M816.1,205.6c0-0.9-0.4-2.3-2-2.3
				c-1.4,0-2,1.3-2.2,2.3H816.1z"/>
			<path fill="#FFFFFF" d="M819.4,210.3v-6.7h-1.1v-1.1h1.1v-0.4c0-1.1,0.2-2.1,0.9-2.7c0.5-0.5,1.2-0.7,1.9-0.7
				c0.5,0,0.9,0.1,1.2,0.2l-0.2,1.1c-0.2-0.1-0.5-0.2-0.9-0.2c-1.2,0-1.5,1.1-1.5,2.2v0.4h1.9v1.1h-1.9v6.7H819.4z"/>
			<path fill="#FFFFFF" d="M829.1,206.9l-1.1,3.4h-1.4l3.7-10.8h1.7l3.7,10.8h-1.5l-1.2-3.4H829.1z M832.6,205.8l-1.1-3.1
				c-0.2-0.7-0.4-1.3-0.6-2h0c-0.2,0.6-0.3,1.3-0.5,2l-1.1,3.1H832.6z"/>
			<path fill="#FFFFFF" d="M843.4,208.2c0,0.8,0,1.5,0.1,2.1h-1.2l-0.1-1.3h0c-0.4,0.6-1.2,1.4-2.6,1.4c-1.2,0-2.7-0.7-2.7-3.4v-4.5
				h1.4v4.3c0,1.5,0.4,2.5,1.7,2.5c0.9,0,1.6-0.7,1.9-1.3c0.1-0.2,0.1-0.5,0.1-0.7v-4.8h1.4V208.2z"/>
			<path fill="#FFFFFF" d="M847.4,200.3v2.2h2v1.1h-2v4.2c0,1,0.3,1.5,1.1,1.5c0.4,0,0.6,0,0.8-0.1l0.1,1.1
				c-0.3,0.1-0.7,0.2-1.2,0.2c-0.7,0-1.2-0.2-1.5-0.6c-0.4-0.4-0.5-1.1-0.5-2v-4.2h-1.2v-1.1h1.2v-1.9L847.4,200.3z"/>
			<path fill="#FFFFFF" d="M857.9,206.3c0,2.9-2,4.1-3.9,4.1c-2.1,0-3.7-1.5-3.7-4c0-2.6,1.7-4.1,3.8-4.1
				C856.4,202.3,857.9,204,857.9,206.3z M851.8,206.4c0,1.7,1,3,2.4,3c1.3,0,2.4-1.3,2.4-3c0-1.3-0.7-3-2.3-3
				C852.5,203.4,851.8,204.9,851.8,206.4z"/>
			<path fill="#FFFFFF" d="M859.7,204.6c0-0.8,0-1.5-0.1-2.1h1.2l0.1,1.2h0c0.4-0.7,1.2-1.4,2.4-1.4c1.1,0,1.9,0.6,2.2,1.6h0
				c0.2-0.4,0.5-0.8,0.9-1c0.5-0.4,1-0.5,1.7-0.5c1,0,2.5,0.7,2.5,3.4v4.6h-1.4v-4.4c0-1.5-0.5-2.4-1.7-2.4c-0.8,0-1.4,0.6-1.7,1.3
				c-0.1,0.2-0.1,0.4-0.1,0.7v4.8h-1.4v-4.6c0-1.2-0.5-2.1-1.6-2.1c-0.9,0-1.5,0.7-1.7,1.4c-0.1,0.2-0.1,0.4-0.1,0.7v4.7h-1.4V204.6
				z"/>
			<path fill="#FFFFFF" d="M877.3,210.3l-0.1-1h0c-0.4,0.6-1.3,1.2-2.4,1.2c-1.6,0-2.4-1.1-2.4-2.2c0-1.9,1.7-2.9,4.7-2.9v-0.2
				c0-0.6-0.2-1.8-1.8-1.8c-0.7,0-1.5,0.2-2,0.6L873,203c0.6-0.4,1.6-0.7,2.5-0.7c2.4,0,2.9,1.6,2.9,3.2v2.9c0,0.7,0,1.3,0.1,1.9
				H877.3z M877.1,206.3c-1.5,0-3.3,0.2-3.3,1.7c0,0.9,0.6,1.3,1.3,1.3c1,0,1.6-0.6,1.9-1.3c0-0.1,0.1-0.3,0.1-0.4V206.3z"/>
			<path fill="#FFFFFF" d="M882.4,200.3v2.2h2v1.1h-2v4.2c0,1,0.3,1.5,1.1,1.5c0.4,0,0.6,0,0.8-0.1l0.1,1.1
				c-0.3,0.1-0.7,0.2-1.2,0.2c-0.7,0-1.2-0.2-1.5-0.6c-0.4-0.4-0.5-1.1-0.5-2v-4.2h-1.2v-1.1h1.2v-1.9L882.4,200.3z"/>
			<path fill="#FFFFFF" d="M886.7,206.7c0,1.9,1.2,2.7,2.7,2.7c1,0,1.6-0.2,2.1-0.4l0.2,1c-0.5,0.2-1.3,0.5-2.6,0.5
				c-2.4,0-3.8-1.6-3.8-3.9s1.4-4.2,3.6-4.2c2.5,0,3.2,2.2,3.2,3.6c0,0.3,0,0.5,0,0.7H886.7z M890.8,205.6c0-0.9-0.4-2.3-2-2.3
				c-1.4,0-2,1.3-2.2,2.3H890.8z"/>
		</g>
	</g>
</g>
<g>
	<rect x="438.3" y="87.3" fill="#F08921" width="133.4" height="133.4"/>
	<g>
		<g>
			<path fill="#FFFFFF" d="M505.6,160.3c-7.1,0-12.9-5.8-12.9-12.9c0-7.1,5.8-12.9,12.9-12.9c5.8,0,10.8,3.9,12.3,9.3h5
				c-1.7-8-8.8-14.1-17.3-14.1c-9.7,0-17.7,7.9-17.7,17.7c0,9.7,7.9,17.7,17.7,17.7c8.5,0,15.7-6.1,17.3-14.1h-5
				C516.4,156.3,511.4,160.3,505.6,160.3"/>
			<path fill="#FFFFFF" d="M496.9,156.1c2.2,2.2,5.3,3.6,8.7,3.6v-5.1c-2,0-3.8-0.8-5-2.1L496.9,156.1z"/>
			<path fill="#FFFFFF" d="M493.3,147.4c0,1.8,0.4,3.4,1,4.9l4.7-2.1c-0.4-0.9-0.6-1.8-0.6-2.9c0-3.9,3.2-7.1,7.1-7.1v-5.1
				C498.8,135.1,493.3,140.6,493.3,147.4"/>
			<path fill="#FFFFFF" d="M510,136l-1.9,4.8c1.5,0.6,2.8,1.7,3.6,3.1h5.5C516.2,140.2,513.5,137.3,510,136"/>
			<path fill="#FFFFFF" d="M508.2,154l1.9,4.8c3.5-1.4,6.2-4.3,7.3-7.9h-5.5C511,152.4,509.7,153.5,508.2,154"/>
			<path fill="#FFFFFF" d="M482.9,154.3c-0.1-0.3-0.2-0.5-0.2-0.8c0,0,0,0,0,0c-0.1-0.3-0.1-0.5-0.2-0.8c0-0.1,0-0.1,0-0.2
				c0-0.2-0.1-0.4-0.1-0.7c0-0.1,0-0.2-0.1-0.3c0-0.2-0.1-0.4-0.1-0.5c0-0.2,0-0.3-0.1-0.5c-0.1-1-0.2-2.1-0.2-3.1h-4.8
				c0,1.2,0.1,2.3,0.2,3.4h0c0,0,0,0,0,0.1c0,0.3,0.1,0.6,0.1,0.9c0,0.1,0,0.2,0,0.3c0,0.3,0.1,0.5,0.1,0.7c0,0.1,0.1,0.3,0.1,0.4
				c0,0.2,0.1,0.4,0.1,0.6c0,0.2,0.1,0.3,0.1,0.5c0,0.2,0.1,0.3,0.1,0.5c0.1,0.2,0.1,0.4,0.2,0.6c0,0.1,0,0.2,0.1,0.3l0,0
				c0.3,1.1,0.7,2.2,1.2,3.2l4.4-2C483.5,156.1,483.2,155.2,482.9,154.3z"/>
			<path fill="#FFFFFF" d="M505.6,171.1c-6.5,0-12.5-2.7-16.7-7l-3.4,3.4c5.2,5.2,12.3,8.4,20.2,8.4c14.6,0,26.6-10.9,28.3-25H529
				C527.3,162.3,517.5,171.1,505.6,171.1"/>
			<path fill="#FFFFFF" d="M505.6,123.7c5.3,0,10.2,1.8,14.2,4.7l2.9-3.9c-4.8-3.6-10.7-5.7-17.1-5.7c-12.1,0-22.5,7.5-26.6,18.2
				l4.5,1.8C487,130,495.6,123.7,505.6,123.7"/>
			<path fill="#FFFFFF" d="M529,143.8h4.9c-0.5-4.2-2-8.1-4.1-11.5l-4.1,2.6C527.4,137.5,528.5,140.6,529,143.8"/>
			<path fill="#FFFFFF" d="M523.5,143.8h4.9c-1.3-8.2-6.9-15-14.4-18l-1.8,4.5C518,132.6,522.3,137.7,523.5,143.8"/>
			<path fill="#FFFFFF" d="M505.6,129.1L505.6,129.1l0-4.8h0c-9.8,0-18.2,6.1-21.5,14.7l4.5,1.8C491.2,134,497.9,129.1,505.6,129.1"
				/>
			<path fill="#FFFFFF" d="M487.3,147.4L487.3,147.4l-4.8,0v0c0,9.7,6,18,14.5,21.4l1.8-4.5C492.1,161.7,487.3,155.1,487.3,147.4"/>
			<path fill="#FFFFFF" d="M505.6,165.7v4.8c11.5,0,21.1-8.5,22.8-19.5h-4.9C521.9,159.3,514.5,165.7,505.6,165.7"/>
		</g>
		<rect x="466.6" y="109.2" fill="none" stroke="#FFFFFF" stroke-width="4" stroke-miterlimit="10" width="76.8" height="76.4"/>
	</g>
	<g>
		<g>
			<g>
				<path fill="#FFFFFF" d="M475.4,209.9c-0.5,0.3-1.5,0.5-2.8,0.5c-3,0-5.3-1.9-5.3-5.5c0-3.4,2.3-5.7,5.6-5.7
					c1.3,0,2.2,0.3,2.6,0.5l-0.3,1.1c-0.5-0.3-1.3-0.4-2.2-0.4c-2.5,0-4.2,1.6-4.2,4.5c0,2.6,1.5,4.3,4.1,4.3c0.8,0,1.7-0.2,2.3-0.4
					L475.4,209.9z"/>
				<path fill="#FFFFFF" d="M477.1,198.9h1.4v4.8h0c0.2-0.4,0.6-0.8,1-1c0.4-0.2,0.9-0.4,1.4-0.4c1,0,2.7,0.6,2.7,3.3v4.6h-1.4v-4.4
					c0-1.2-0.5-2.3-1.8-2.3c-0.9,0-1.6,0.6-1.9,1.4c-0.1,0.2-0.1,0.4-0.1,0.7v4.7h-1.4V198.9z"/>
				<path fill="#FFFFFF" d="M486.8,206.7c0,1.9,1.2,2.7,2.7,2.7c1,0,1.6-0.2,2.1-0.4l0.2,1c-0.5,0.2-1.3,0.5-2.6,0.5
					c-2.4,0-3.8-1.6-3.8-3.9s1.4-4.2,3.6-4.2c2.5,0,3.2,2.2,3.2,3.6c0,0.3,0,0.5,0,0.7H486.8z M490.9,205.6c0-0.9-0.4-2.3-2-2.3
					c-1.4,0-2,1.3-2.2,2.3H490.9z"/>
				<path fill="#FFFFFF" d="M494.2,210.3v-6.7h-1.1v-1.1h1.1v-0.4c0-1.1,0.2-2.1,0.9-2.7c0.5-0.5,1.2-0.7,1.9-0.7
					c0.5,0,0.9,0.1,1.2,0.2L498,200c-0.2-0.1-0.5-0.2-0.9-0.2c-1.2,0-1.5,1.1-1.5,2.2v0.4h1.9v1.1h-1.9v6.7H494.2z"/>
				<path fill="#FFFFFF" d="M501.9,208.6c0.6,0.4,1.5,0.7,2.5,0.7c1.4,0,2.3-0.8,2.3-1.8c0-1-0.6-1.6-2-2.1
					c-1.8-0.6-2.8-1.5-2.8-3.1c0-1.7,1.4-2.9,3.5-2.9c1.1,0,1.9,0.3,2.4,0.5l-0.4,1.1c-0.4-0.2-1.1-0.5-2-0.5c-1.5,0-2,0.9-2,1.6
					c0,1,0.7,1.5,2.1,2.1c1.8,0.7,2.8,1.6,2.8,3.2c0,1.7-1.2,3.1-3.8,3.1c-1,0-2.2-0.3-2.8-0.7L501.9,208.6z"/>
				<path fill="#FFFFFF" d="M510.8,206.7c0,1.9,1.2,2.7,2.7,2.7c1,0,1.6-0.2,2.1-0.4l0.2,1c-0.5,0.2-1.3,0.5-2.6,0.5
					c-2.4,0-3.8-1.6-3.8-3.9s1.4-4.2,3.6-4.2c2.5,0,3.2,2.2,3.2,3.6c0,0.3,0,0.5,0,0.7H510.8z M515,205.6c0-0.9-0.4-2.3-2-2.3
					c-1.4,0-2,1.3-2.2,2.3H515z"/>
				<path fill="#FFFFFF" d="M518.1,204.9c0-0.9,0-1.7-0.1-2.4h1.2l0,1.5h0.1c0.4-1,1.2-1.7,2.1-1.7c0.2,0,0.3,0,0.4,0v1.3
					c-0.1,0-0.3,0-0.5,0c-1,0-1.7,0.8-1.9,1.8c0,0.2-0.1,0.4-0.1,0.7v4.1h-1.4V204.9z"/>
				<path fill="#FFFFFF" d="M524.3,202.5l1.5,4.4c0.3,0.7,0.5,1.3,0.6,2h0c0.2-0.6,0.4-1.3,0.7-2l1.5-4.4h1.5l-3,7.7h-1.3l-2.9-7.7
					H524.3z"/>
				<path fill="#FFFFFF" d="M532,206.7c0,1.9,1.2,2.7,2.7,2.7c1,0,1.6-0.2,2.1-0.4l0.2,1c-0.5,0.2-1.3,0.5-2.6,0.5
					c-2.4,0-3.8-1.6-3.8-3.9s1.4-4.2,3.6-4.2c2.5,0,3.2,2.2,3.2,3.6c0,0.3,0,0.5,0,0.7H532z M536.2,205.6c0-0.9-0.4-2.3-2-2.3
					c-1.4,0-2,1.3-2.2,2.3H536.2z"/>
				<path fill="#FFFFFF" d="M539.3,204.9c0-0.9,0-1.7-0.1-2.4h1.2l0,1.5h0.1c0.4-1,1.2-1.7,2.1-1.7c0.2,0,0.3,0,0.4,0v1.3
					c-0.1,0-0.3,0-0.5,0c-1,0-1.7,0.8-1.9,1.8c0,0.2-0.1,0.4-0.1,0.7v4.1h-1.4V204.9z"/>
			</g>
		</g>
	</g>
</g>
<g>
	<rect x="44.3" y="382.3" fill="#FCB716" width="133.4" height="133.4"/>
	<g>
		<g>
			<path fill="#FFFFFF" d="M111.9,455.3c-7.1,0-12.9-5.8-12.9-12.9c0-7.1,5.8-12.9,12.9-12.9c5.8,0,10.8,3.9,12.3,9.3h5
				c-1.7-8-8.8-14.1-17.3-14.1c-9.7,0-17.7,7.9-17.7,17.7c0,9.7,7.9,17.7,17.7,17.7c8.5,0,15.7-6.1,17.3-14.1h-5
				C122.7,451.4,117.8,455.3,111.9,455.3"/>
			<path fill="#FFFFFF" d="M103.2,451.1c2.2,2.2,5.3,3.6,8.7,3.6v-5.1c-2,0-3.8-0.8-5-2.1L103.2,451.1z"/>
			<path fill="#FFFFFF" d="M99.6,442.4c0,1.8,0.4,3.4,1,4.9l4.7-2.1c-0.4-0.9-0.6-1.8-0.6-2.9c0-3.9,3.2-7.1,7.1-7.1v-5.1
				C105.1,430.2,99.6,435.7,99.6,442.4"/>
			<path fill="#FFFFFF" d="M116.3,431l-1.9,4.8c1.5,0.6,2.8,1.7,3.6,3.1h5.5C122.5,435.3,119.8,432.4,116.3,431"/>
			<path fill="#FFFFFF" d="M114.5,449.1l1.9,4.8c3.5-1.4,6.2-4.3,7.3-7.9h-5.5C117.3,447.4,116,448.5,114.5,449.1"/>
			<path fill="#FFFFFF" d="M89.2,449.3c-0.1-0.3-0.2-0.5-0.2-0.8c0,0,0,0,0,0c-0.1-0.3-0.1-0.5-0.2-0.8c0-0.1,0-0.1,0-0.2
				c0-0.2-0.1-0.4-0.1-0.7c0-0.1,0-0.2-0.1-0.3c0-0.2-0.1-0.4-0.1-0.5c0-0.2,0-0.3-0.1-0.5c-0.1-1-0.2-2.1-0.2-3.1h-4.8
				c0,1.2,0.1,2.3,0.2,3.4h0c0,0,0,0,0,0.1c0,0.3,0.1,0.6,0.1,0.9c0,0.1,0,0.2,0,0.3c0,0.3,0.1,0.5,0.1,0.7c0,0.1,0.1,0.3,0.1,0.4
				c0,0.2,0.1,0.4,0.1,0.6c0,0.2,0.1,0.3,0.1,0.5c0,0.2,0.1,0.3,0.1,0.5c0.1,0.2,0.1,0.4,0.2,0.6c0,0.1,0,0.2,0.1,0.3l0,0
				c0.3,1.1,0.7,2.2,1.2,3.2l4.4-2C89.8,451.1,89.5,450.2,89.2,449.3z"/>
			<path fill="#FFFFFF" d="M111.9,466.1c-6.5,0-12.5-2.7-16.7-7l-3.4,3.4c5.2,5.2,12.3,8.4,20.2,8.4c14.6,0,26.6-10.9,28.3-25h-4.9
				C133.6,457.4,123.8,466.1,111.9,466.1"/>
			<path fill="#FFFFFF" d="M111.9,418.7c5.3,0,10.2,1.8,14.2,4.7l2.9-3.9c-4.8-3.6-10.7-5.7-17.1-5.7c-12.1,0-22.5,7.5-26.6,18.2
				l4.5,1.8C93.3,425,101.9,418.7,111.9,418.7"/>
			<path fill="#FFFFFF" d="M135.3,438.9h4.9c-0.5-4.2-2-8.1-4.1-11.5l-4.1,2.6C133.7,432.6,134.8,435.6,135.3,438.9"/>
			<path fill="#FFFFFF" d="M129.8,438.9h4.9c-1.3-8.2-6.9-15-14.4-18l-1.8,4.5C124.3,427.7,128.6,432.7,129.8,438.9"/>
			<path fill="#FFFFFF" d="M111.9,424.2L111.9,424.2l0-4.8h0c-9.8,0-18.2,6.1-21.5,14.7l4.5,1.8C97.5,429,104.2,424.2,111.9,424.2"
				/>
			<path fill="#FFFFFF" d="M93.6,442.4L93.6,442.4l-4.8,0v0c0,9.7,6,18,14.5,21.4l1.8-4.5C98.4,456.7,93.6,450.1,93.6,442.4"/>
			<path fill="#FFFFFF" d="M111.9,460.7v4.8c11.5,0,21.1-8.5,22.8-19.5h-4.9C128.2,454.4,120.8,460.7,111.9,460.7"/>
		</g>
		<rect x="72.9" y="404.3" fill="none" stroke="#FFFFFF" stroke-width="4" stroke-miterlimit="10" width="76.8" height="76.4"/>
	</g>
	<g>
		<g>
			<g>
				<path fill="#FFFFFF" d="M68.9,503.6c0.6,0.4,1.5,0.7,2.5,0.7c1.4,0,2.3-0.8,2.3-1.8c0-1-0.6-1.6-2-2.1c-1.8-0.6-2.8-1.5-2.8-3.1
					c0-1.7,1.4-2.9,3.5-2.9c1.1,0,1.9,0.3,2.4,0.5l-0.4,1.1c-0.4-0.2-1.1-0.5-2-0.5c-1.5,0-2,0.9-2,1.6c0,1,0.7,1.5,2.1,2.1
					c1.8,0.7,2.8,1.6,2.8,3.2c0,1.7-1.2,3.1-3.8,3.1c-1,0-2.2-0.3-2.8-0.7L68.9,503.6z"/>
				<path fill="#FFFFFF" d="M83.4,503.2c0,0.8,0,1.5,0.1,2.1h-1.2l-0.1-1.3h0c-0.4,0.6-1.2,1.4-2.6,1.4c-1.2,0-2.7-0.7-2.7-3.4v-4.5
					h1.4v4.3c0,1.5,0.4,2.5,1.7,2.5c0.9,0,1.6-0.7,1.9-1.3c0.1-0.2,0.1-0.5,0.1-0.7v-4.8h1.4V503.2z"/>
				<path fill="#FFFFFF" d="M85.7,500.1c0-1,0-1.8-0.1-2.5h1.3l0.1,1.3h0c0.6-0.9,1.5-1.5,2.8-1.5c1.9,0,3.3,1.6,3.3,3.9
					c0,2.8-1.7,4.2-3.5,4.2c-1,0-1.9-0.4-2.4-1.2h0v4.2h-1.4V500.1z M87.1,502.2c0,0.2,0,0.4,0.1,0.6c0.3,1,1.1,1.6,2.1,1.6
					c1.5,0,2.4-1.2,2.4-3c0-1.6-0.8-2.9-2.3-2.9c-1,0-1.9,0.7-2.1,1.7c0,0.2-0.1,0.4-0.1,0.6V502.2z"/>
				<path fill="#FFFFFF" d="M95.6,501.7c0,1.9,1.2,2.7,2.7,2.7c1,0,1.6-0.2,2.1-0.4l0.2,1c-0.5,0.2-1.3,0.5-2.6,0.5
					c-2.4,0-3.8-1.6-3.8-3.9s1.4-4.2,3.6-4.2c2.5,0,3.2,2.2,3.2,3.6c0,0.3,0,0.5,0,0.7H95.6z M99.7,500.7c0-0.9-0.4-2.3-2-2.3
					c-1.4,0-2,1.3-2.2,2.3H99.7z"/>
				<path fill="#FFFFFF" d="M102.8,500c0-0.9,0-1.7-0.1-2.4h1.2l0,1.5h0.1c0.4-1,1.2-1.7,2.1-1.7c0.2,0,0.3,0,0.4,0v1.3
					c-0.1,0-0.3,0-0.5,0c-1,0-1.7,0.8-1.9,1.8c0,0.2-0.1,0.4-0.1,0.7v4.1h-1.4V500z"/>
				<path fill="#FFFFFF" d="M108.1,499.7c0-0.8,0-1.5-0.1-2.1h1.2l0.1,1.2h0c0.4-0.7,1.2-1.4,2.4-1.4c1.1,0,1.9,0.6,2.2,1.6h0
					c0.2-0.4,0.5-0.8,0.9-1c0.5-0.4,1-0.5,1.7-0.5c1,0,2.5,0.7,2.5,3.4v4.6h-1.4v-4.4c0-1.5-0.5-2.4-1.7-2.4c-0.8,0-1.4,0.6-1.7,1.3
					c-0.1,0.2-0.1,0.4-0.1,0.7v4.8H113v-4.6c0-1.2-0.5-2.1-1.6-2.1c-0.9,0-1.5,0.7-1.7,1.4c-0.1,0.2-0.1,0.4-0.1,0.7v4.7h-1.4V499.7
					z"/>
				<path fill="#FFFFFF" d="M125.8,505.3l-0.1-1h0c-0.4,0.6-1.3,1.2-2.4,1.2c-1.6,0-2.4-1.1-2.4-2.2c0-1.9,1.7-2.9,4.7-2.9v-0.2
					c0-0.6-0.2-1.8-1.8-1.8c-0.7,0-1.5,0.2-2,0.6l-0.3-0.9c0.6-0.4,1.6-0.7,2.5-0.7c2.4,0,2.9,1.6,2.9,3.2v2.9c0,0.7,0,1.3,0.1,1.9
					H125.8z M125.6,501.4c-1.5,0-3.3,0.2-3.3,1.7c0,0.9,0.6,1.3,1.3,1.3c1,0,1.6-0.6,1.9-1.3c0-0.1,0.1-0.3,0.1-0.4V501.4z"/>
				<path fill="#FFFFFF" d="M129.2,500c0-0.9,0-1.7-0.1-2.4h1.2l0,1.5h0.1c0.4-1,1.2-1.7,2.1-1.7c0.2,0,0.3,0,0.4,0v1.3
					c-0.1,0-0.3,0-0.5,0c-1,0-1.7,0.8-1.9,1.8c0,0.2-0.1,0.4-0.1,0.7v4.1h-1.4V500z"/>
				<path fill="#FFFFFF" d="M135.9,501.1L135.9,501.1c0.2-0.3,0.5-0.6,0.7-0.9l2.3-2.7h1.7l-3,3.2l3.4,4.6h-1.7l-2.7-3.7l-0.7,0.8
					v2.9h-1.4v-11.4h1.4V501.1z"/>
				<path fill="#FFFFFF" d="M142.8,501.7c0,1.9,1.2,2.7,2.7,2.7c1,0,1.6-0.2,2.1-0.4l0.2,1c-0.5,0.2-1.3,0.5-2.6,0.5
					c-2.4,0-3.8-1.6-3.8-3.9s1.4-4.2,3.6-4.2c2.5,0,3.2,2.2,3.2,3.6c0,0.3,0,0.5,0,0.7H142.8z M146.9,500.7c0-0.9-0.4-2.3-2-2.3
					c-1.4,0-2,1.3-2.2,2.3H146.9z"/>
				<path fill="#FFFFFF" d="M151.7,495.3v2.2h2v1.1h-2v4.2c0,1,0.3,1.5,1.1,1.5c0.4,0,0.6,0,0.8-0.1l0.1,1.1
					c-0.3,0.1-0.7,0.2-1.2,0.2c-0.7,0-1.2-0.2-1.5-0.6c-0.4-0.4-0.5-1.1-0.5-2v-4.2h-1.2v-1.1h1.2v-1.9L151.7,495.3z"/>
			</g>
		</g>
	</g>
</g>
<line fill="none" stroke="#7F888D" stroke-width="4" stroke-miterlimit="10" x1="763" y1="154" x2="580" y2="154"/>
<line fill="none" stroke="#7F888D" stroke-width="4" stroke-miterlimit="10" x1="504" y1="231" x2="504" y2="355"/>
<polyline fill="none" stroke="#7F888D" stroke-width="4" stroke-miterlimit="10" points="336,355 336,313 675,313 675,355 "/>
<g>
	<g>
		<g>
			<path fill="#445464" d="M818.1,462.2c0.7-0.1,1.7-0.2,2.7-0.2c1.5,0,2.4,0.3,3.1,0.9c0.5,0.5,0.8,1.2,0.8,2c0,1.4-0.9,2.4-2,2.8
				v0c0.8,0.3,1.3,1.1,1.6,2.2c0.4,1.5,0.6,2.5,0.8,3h-1.4c-0.2-0.3-0.4-1.2-0.7-2.6c-0.3-1.5-0.9-2-2.2-2.1h-1.3v4.7h-1.4V462.2z
				 M819.5,467.1h1.4c1.5,0,2.4-0.8,2.4-2c0-1.4-1-2-2.5-2c-0.7,0-1.2,0.1-1.4,0.1V467.1z"/>
			<path fill="#445464" d="M832.3,467.7h-4.2v3.9h4.7v1.2h-6.1V462h5.8v1.2h-4.4v3.4h4.2V467.7z"/>
			<path fill="#445464" d="M834.4,471.1c0.6,0.4,1.5,0.7,2.5,0.7c1.4,0,2.3-0.8,2.3-1.8c0-1-0.6-1.6-2-2.1c-1.8-0.6-2.8-1.5-2.8-3.1
				c0-1.7,1.4-2.9,3.5-2.9c1.1,0,1.9,0.3,2.4,0.5l-0.4,1.1c-0.4-0.2-1.1-0.5-2-0.5c-1.5,0-2,0.9-2,1.6c0,1,0.7,1.5,2.1,2.1
				c1.8,0.7,2.8,1.6,2.8,3.2c0,1.7-1.2,3.1-3.8,3.1c-1,0-2.2-0.3-2.8-0.7L834.4,471.1z"/>
			<path fill="#445464" d="M844.5,463.2h-3.3V462h8v1.2h-3.3v9.6h-1.4V463.2z"/>
			<path fill="#445464" d="M855.5,469.4l-1.1,3.4H853l3.7-10.8h1.7l3.7,10.8h-1.5l-1.2-3.4H855.5z M859.1,468.3l-1.1-3.1
				c-0.2-0.7-0.4-1.3-0.6-2h0c-0.2,0.6-0.3,1.3-0.5,2l-1.1,3.1H859.1z"/>
			<path fill="#445464" d="M863.6,462.1c0.7-0.1,1.6-0.2,2.7-0.2c1.4,0,2.4,0.3,3,0.9c0.6,0.5,0.9,1.3,0.9,2.3c0,1-0.3,1.7-0.8,2.3
				c-0.7,0.8-1.9,1.2-3.3,1.2c-0.4,0-0.8,0-1.1-0.1v4.3h-1.4V462.1z M865,467.3c0.3,0.1,0.7,0.1,1.2,0.1c1.7,0,2.7-0.8,2.7-2.3
				c0-1.4-1-2.1-2.5-2.1c-0.6,0-1.1,0-1.3,0.1V467.3z"/>
			<path fill="#445464" d="M873.5,462v10.8h-1.4V462H873.5z"/>
			<path fill="#445464" d="M823.4,491.6c-0.5,0.3-1.5,0.5-2.8,0.5c-3,0-5.3-1.9-5.3-5.5c0-3.4,2.3-5.7,5.6-5.7
				c1.3,0,2.2,0.3,2.6,0.5l-0.3,1.1c-0.5-0.3-1.3-0.4-2.2-0.4c-2.5,0-4.2,1.6-4.2,4.5c0,2.6,1.5,4.3,4.1,4.3c0.8,0,1.7-0.2,2.3-0.4
				L823.4,491.6z"/>
			<path fill="#445464" d="M829.3,492l-0.1-1h0c-0.4,0.6-1.3,1.2-2.4,1.2c-1.6,0-2.4-1.1-2.4-2.2c0-1.9,1.7-2.9,4.7-2.9v-0.2
				c0-0.6-0.2-1.8-1.8-1.8c-0.7,0-1.5,0.2-2,0.6l-0.3-0.9c0.6-0.4,1.6-0.7,2.5-0.7c2.4,0,2.9,1.6,2.9,3.2v2.9c0,0.7,0,1.3,0.1,1.9
				H829.3z M829.1,488c-1.5,0-3.3,0.2-3.3,1.7c0,0.9,0.6,1.3,1.3,1.3c1,0,1.6-0.6,1.9-1.3c0-0.1,0.1-0.3,0.1-0.4V488z"/>
			<path fill="#445464" d="M832.7,480.6h1.4V492h-1.4V480.6z"/>
			<path fill="#445464" d="M836.5,480.6h1.4V492h-1.4V480.6z"/>
			<path fill="#445464" d="M840.2,492c0-0.5,0.1-1.3,0.1-2v-9.4h1.4v4.9h0c0.5-0.9,1.4-1.4,2.6-1.4c1.9,0,3.3,1.6,3.3,4
				c0,2.8-1.7,4.1-3.5,4.1c-1.1,0-2-0.4-2.6-1.5h0l-0.1,1.3H840.2z M841.7,488.9c0,0.2,0,0.4,0.1,0.5c0.3,1,1.1,1.6,2.1,1.6
				c1.5,0,2.4-1.2,2.4-3c0-1.6-0.8-2.9-2.3-2.9c-1,0-1.9,0.7-2.1,1.7c0,0.2-0.1,0.4-0.1,0.6V488.9z"/>
			<path fill="#445464" d="M853.7,492l-0.1-1h0c-0.4,0.6-1.3,1.2-2.4,1.2c-1.6,0-2.4-1.1-2.4-2.2c0-1.9,1.7-2.9,4.7-2.9v-0.2
				c0-0.6-0.2-1.8-1.8-1.8c-0.7,0-1.5,0.2-2,0.6l-0.3-0.9c0.6-0.4,1.6-0.7,2.5-0.7c2.4,0,2.9,1.6,2.9,3.2v2.9c0,0.7,0,1.3,0.1,1.9
				H853.7z M853.4,488c-1.5,0-3.3,0.2-3.3,1.7c0,0.9,0.6,1.3,1.3,1.3c1,0,1.6-0.6,1.9-1.3c0-0.1,0.1-0.3,0.1-0.4V488z"/>
			<path fill="#445464" d="M862.6,491.7c-0.4,0.2-1.2,0.4-2.2,0.4c-2.3,0-3.9-1.6-3.9-4c0-2.4,1.6-4.1,4.2-4.1c0.8,0,1.6,0.2,2,0.4
				l-0.3,1.1c-0.3-0.2-0.9-0.4-1.6-0.4c-1.8,0-2.7,1.3-2.7,2.9c0,1.8,1.2,2.9,2.7,2.9c0.8,0,1.3-0.2,1.7-0.4L862.6,491.7z"/>
			<path fill="#445464" d="M865.6,487.8L865.6,487.8c0.2-0.3,0.5-0.6,0.7-0.9l2.3-2.7h1.7l-3,3.2l3.4,4.6H869l-2.7-3.7l-0.7,0.8v2.9
				h-1.4v-11.4h1.4V487.8z"/>
			<path fill="#445464" d="M871.6,490.6c0.4,0.3,1.2,0.6,1.9,0.6c1,0,1.5-0.5,1.5-1.2c0-0.7-0.4-1-1.4-1.4c-1.4-0.5-2-1.3-2-2.2
				c0-1.2,1-2.3,2.7-2.3c0.8,0,1.5,0.2,1.9,0.5l-0.4,1c-0.3-0.2-0.9-0.4-1.6-0.4c-0.8,0-1.3,0.5-1.3,1.1c0,0.6,0.5,0.9,1.5,1.3
				c1.3,0.5,2,1.2,2,2.3c0,1.4-1.1,2.3-2.9,2.3c-0.8,0-1.6-0.2-2.2-0.5L871.6,490.6z"/>
		</g>
	</g>
</g>
<g>
	<rect x="608.3" y="382.3" fill="#445464" width="133.4" height="133.4"/>
	<g>
		<g>
			<path fill="#FFFFFF" d="M709.3,479h-68c-1.7,0-3.1-1.4-3.1-3.1v-66.8c0-1.7,1.4-3.1,3.1-3.1h68c1.7,0,3.1,1.4,3.1,3.1v66.8
				C712.5,477.6,711.1,479,709.3,479L709.3,479z M644.5,472.8h61.7v-60.5h-61.7V472.8L644.5,472.8z"/>
		</g>
		<g>
			<g>
				<g>
					<path fill="#FFFFFF" d="M664.3,444.3c-6.1,0-11-4.9-11-11s4.9-11,11-11s11,4.9,11,11C675.4,439.4,670.4,444.3,664.3,444.3
						L664.3,444.3z M664.3,426c-4.1,0-7.4,3.3-7.4,7.4c0,4.1,3.3,7.4,7.4,7.4s7.4-3.3,7.4-7.4S668.4,426,664.3,426L664.3,426z"/>
				</g>
				<g>
					<g>
						<path fill="#FFFFFF" d="M657.4,428.2c-0.5,0-0.9-0.2-1.3-0.5l-2.6-2.6c-0.7-0.7-0.7-1.9,0-2.6c0.7-0.7,1.9-0.7,2.6,0l2.6,2.6
							c0.7,0.7,0.7,1.9,0,2.6C658.4,428,657.9,428.2,657.4,428.2L657.4,428.2z"/>
					</g>
					<g>
						<path fill="#FFFFFF" d="M673.8,444.6c-0.5,0-0.9-0.2-1.3-0.5l-3-3c-0.7-0.7-0.7-1.9,0-2.6c0.7-0.7,1.9-0.7,2.6,0l3,3
							c0.7,0.7,0.7,1.9,0,2.6C674.8,444.5,674.3,444.6,673.8,444.6L673.8,444.6z"/>
					</g>
				</g>
				<g>
					<g>
						<path fill="#FFFFFF" d="M671.3,428.2c-0.5,0-0.9-0.2-1.3-0.5c-0.7-0.7-0.7-1.9,0-2.6l2.6-2.6c0.7-0.7,1.9-0.7,2.6,0
							s0.7,1.9,0,2.6l-2.6,2.6C672.2,428,671.7,428.2,671.3,428.2L671.3,428.2z"/>
					</g>
					<g>
						<path fill="#FFFFFF" d="M654.9,444.6c-0.5,0-0.9-0.2-1.3-0.5c-0.7-0.7-0.7-1.9,0-2.6l3-3c0.7-0.7,1.9-0.7,2.6,0s0.7,1.9,0,2.6
							l-3,3C655.8,444.5,655.3,444.6,654.9,444.6L654.9,444.6z"/>
					</g>
				</g>
				<g>
					<g>
						<path fill="#FFFFFF" d="M664.4,425.4c-1,0-1.8-0.8-1.8-1.8V420c0-1,0.8-1.8,1.8-1.8s1.8,0.8,1.8,1.8v3.6
							C666.2,424.5,665.4,425.4,664.4,425.4L664.4,425.4z"/>
					</g>
					<g>
						<path fill="#FFFFFF" d="M664.3,448.6L664.3,448.6c-1,0-1.8-0.8-1.8-1.8v-4.3c0-1,0.8-1.8,1.8-1.8l0,0c1,0,1.8,0.8,1.8,1.8v4.3
							C666.2,447.7,665.4,448.6,664.3,448.6L664.3,448.6z"/>
					</g>
				</g>
				<g>
					<g>
						<path fill="#FFFFFF" d="M677.8,435.1h-3.6c-1,0-1.8-0.8-1.8-1.8s0.8-1.8,1.8-1.8h3.6c1,0,1.8,0.8,1.8,1.8
							C679.6,434.3,678.8,435.1,677.8,435.1L677.8,435.1z"/>
					</g>
					<g>
						<path fill="#FFFFFF" d="M655.2,435.1h-4.3c-1,0-1.8-0.8-1.8-1.8s0.8-1.8,1.8-1.8h4.3c1,0,1.8,0.8,1.8,1.8
							C657,434.3,656.2,435.1,655.2,435.1L655.2,435.1z"/>
					</g>
				</g>
			</g>
			<g>
				<g>
					<path fill="#FFFFFF" d="M690,456.7c-4.6,0-8.4-3.8-8.4-8.4s3.8-8.4,8.4-8.4s8.4,3.8,8.4,8.4S694.6,456.7,690,456.7L690,456.7z
						 M690,442.7c-3.1,0-5.6,2.5-5.6,5.6s2.5,5.6,5.6,5.6s5.6-2.5,5.6-5.6S693.1,442.7,690,442.7L690,442.7z"/>
				</g>
				<g>
					<g>
						<path fill="#FFFFFF" d="M684.7,444.5c-0.4,0-0.7-0.1-1-0.4l-1.9-1.9c-0.5-0.5-0.5-1.4,0-2c0.5-0.5,1.4-0.5,2,0l1.9,1.9
							c0.5,0.5,0.5,1.4,0,2C685.4,444.3,685.1,444.5,684.7,444.5L684.7,444.5z"/>
					</g>
					<g>
						<path fill="#FFFFFF" d="M697.2,456.9c-0.4,0-0.7-0.1-1-0.4l-2.3-2.3c-0.5-0.5-0.5-1.4,0-2c0.5-0.5,1.4-0.5,2,0l2.3,2.3
							c0.5,0.5,0.5,1.4,0,2C697.9,456.8,697.5,456.9,697.2,456.9L697.2,456.9z"/>
					</g>
				</g>
				<g>
					<g>
						<path fill="#FFFFFF" d="M695.2,444.5c-0.4,0-0.7-0.1-1-0.4c-0.5-0.5-0.5-1.4,0-2l1.9-1.9c0.5-0.5,1.4-0.5,2,0
							c0.5,0.5,0.5,1.4,0,2l-1.9,1.9C695.9,444.3,695.6,444.5,695.2,444.5L695.2,444.5z"/>
					</g>
					<g>
						<path fill="#FFFFFF" d="M682.8,456.9c-0.4,0-0.7-0.1-1-0.4c-0.5-0.5-0.5-1.4,0-2l2.3-2.3c0.5-0.5,1.4-0.5,2,0
							c0.5,0.5,0.5,1.4,0,2l-2.3,2.3C683.5,456.8,683.1,456.9,682.8,456.9L682.8,456.9z"/>
					</g>
				</g>
				<g>
					<g>
						<path fill="#FFFFFF" d="M690,442.3c-0.8,0-1.4-0.6-1.4-1.4v-2.7c0-0.8,0.6-1.4,1.4-1.4s1.4,0.6,1.4,1.4v2.7
							C691.4,441.7,690.7,442.3,690,442.3L690,442.3z"/>
					</g>
					<g>
						<path fill="#FFFFFF" d="M690,459.9L690,459.9c-0.8,0-1.4-0.6-1.4-1.4v-3.2c0-0.8,0.6-1.4,1.4-1.4l0,0c0.8,0,1.4,0.6,1.4,1.4
							v3.2C691.4,459.3,690.7,459.9,690,459.9L690,459.9z"/>
					</g>
				</g>
				<g>
					<g>
						<path fill="#FFFFFF" d="M700.2,449.7h-2.7c-0.8,0-1.4-0.6-1.4-1.4c0-0.8,0.6-1.4,1.4-1.4h2.7c0.8,0,1.4,0.6,1.4,1.4
							S700.9,449.7,700.2,449.7L700.2,449.7z"/>
					</g>
					<g>
						<path fill="#FFFFFF" d="M683,449.7h-3.2c-0.8,0-1.4-0.6-1.4-1.4c0-0.8,0.6-1.4,1.4-1.4h3.2c0.8,0,1.4,0.6,1.4,1.4
							S683.8,449.7,683,449.7L683,449.7z"/>
					</g>
				</g>
			</g>
			<g>
				<g>
					<path fill="#FFFFFF" d="M669.7,464.6c-3.4,0-6.1-2.7-6.1-6.1s2.7-6.1,6.1-6.1s6.1,2.7,6.1,6.1S673.1,464.6,669.7,464.6
						L669.7,464.6z M669.7,454.4c-2.2,0-4.1,1.8-4.1,4.1s1.8,4.1,4.1,4.1c2.2,0,4.1-1.8,4.1-4.1S672,454.4,669.7,454.4L669.7,454.4z
						"/>
				</g>
				<g>
					<g>
						<path fill="#FFFFFF" d="M665.9,455.7c-0.3,0-0.5-0.1-0.7-0.3l-1.4-1.4c-0.4-0.4-0.4-1,0-1.4s1-0.4,1.4,0l1.4,1.4
							c0.4,0.4,0.4,1,0,1.4C666.4,455.6,666.1,455.7,665.9,455.7L665.9,455.7z"/>
					</g>
					<g>
						<path fill="#FFFFFF" d="M675,464.8c-0.3,0-0.5-0.1-0.7-0.3l-1.7-1.7c-0.4-0.4-0.4-1,0-1.4s1-0.4,1.4,0l1.7,1.7
							c0.4,0.4,0.4,1,0,1.4C675.5,464.7,675.2,464.8,675,464.8L675,464.8z"/>
					</g>
				</g>
				<g>
					<g>
						<path fill="#FFFFFF" d="M673.5,455.7c-0.3,0-0.5-0.1-0.7-0.3c-0.4-0.4-0.4-1,0-1.4l1.4-1.4c0.4-0.4,1-0.4,1.4,0s0.4,1,0,1.4
							l-1.4,1.4C674.1,455.6,673.8,455.7,673.5,455.7L673.5,455.7z"/>
					</g>
					<g>
						<path fill="#FFFFFF" d="M664.5,464.8c-0.3,0-0.5-0.1-0.7-0.3c-0.4-0.4-0.4-1,0-1.4l1.7-1.7c0.4-0.4,1-0.4,1.4,0s0.4,1,0,1.4
							l-1.7,1.7C665,464.7,664.7,464.8,664.5,464.8L664.5,464.8z"/>
					</g>
				</g>
				<g>
					<g>
						<path fill="#FFFFFF" d="M669.7,454.1c-0.6,0-1-0.5-1-1v-2c0-0.6,0.5-1,1-1c0.6,0,1,0.5,1,1v2
							C670.7,453.6,670.3,454.1,669.7,454.1L669.7,454.1z"/>
					</g>
					<g>
						<path fill="#FFFFFF" d="M669.7,466.9L669.7,466.9c-0.6,0-1-0.5-1-1v-2.4c0-0.6,0.5-1,1-1l0,0c0.6,0,1,0.5,1,1v2.4
							C670.7,466.5,670.3,466.9,669.7,466.9L669.7,466.9z"/>
					</g>
				</g>
				<g>
					<g>
						<path fill="#FFFFFF" d="M677.1,459.5h-2c-0.6,0-1-0.5-1-1c0-0.6,0.5-1,1-1h2c0.6,0,1,0.5,1,1
							C678.1,459.1,677.7,459.5,677.1,459.5L677.1,459.5z"/>
					</g>
					<g>
						<path fill="#FFFFFF" d="M664.7,459.5h-2.4c-0.6,0-1-0.5-1-1c0-0.6,0.5-1,1-1h2.4c0.6,0,1,0.5,1,1
							C665.7,459.1,665.2,459.5,664.7,459.5L664.7,459.5z"/>
					</g>
				</g>
			</g>
		</g>
	</g>
	<g>
		<g>
			<g>
				<path fill="#FFFFFF" d="M653.9,500.1c0-0.9,0-1.7-0.1-2.4h1.2l0,1.5h0.1c0.4-1,1.2-1.7,2.1-1.7c0.2,0,0.3,0,0.4,0v1.3
					c-0.1,0-0.3,0-0.5,0c-1,0-1.7,0.8-1.9,1.8c0,0.2-0.1,0.4-0.1,0.7v4.1h-1.4V500.1z"/>
				<path fill="#FFFFFF" d="M665.7,503.4c0,0.8,0,1.5,0.1,2.1h-1.2l-0.1-1.3h0c-0.4,0.6-1.2,1.4-2.6,1.4c-1.2,0-2.7-0.7-2.7-3.4
					v-4.5h1.4v4.3c0,1.5,0.4,2.5,1.7,2.5c0.9,0,1.6-0.7,1.9-1.3c0.1-0.2,0.1-0.5,0.1-0.7v-4.8h1.4V503.4z"/>
				<path fill="#FFFFFF" d="M668,499.8c0-0.8,0-1.5-0.1-2.1h1.2l0.1,1.3h0c0.4-0.7,1.3-1.5,2.6-1.5c1.1,0,2.7,0.6,2.7,3.3v4.6h-1.4
					V501c0-1.2-0.5-2.3-1.8-2.3c-0.9,0-1.6,0.7-1.9,1.4c-0.1,0.2-0.1,0.4-0.1,0.7v4.7H668V499.8z"/>
				<path fill="#FFFFFF" d="M676.9,499.8c0-0.8,0-1.5-0.1-2.1h1.2l0.1,1.3h0c0.4-0.7,1.3-1.5,2.6-1.5c1.1,0,2.7,0.6,2.7,3.3v4.6
					h-1.4V501c0-1.2-0.5-2.3-1.8-2.3c-0.9,0-1.6,0.7-1.9,1.4c-0.1,0.2-0.1,0.4-0.1,0.7v4.7h-1.4V499.8z"/>
				<path fill="#FFFFFF" d="M686.5,501.9c0,1.9,1.2,2.7,2.7,2.7c1,0,1.6-0.2,2.1-0.4l0.2,1c-0.5,0.2-1.3,0.5-2.6,0.5
					c-2.4,0-3.8-1.6-3.8-3.9s1.4-4.2,3.6-4.2c2.5,0,3.2,2.2,3.2,3.6c0,0.3,0,0.5,0,0.7H686.5z M690.7,500.8c0-0.9-0.4-2.3-2-2.3
					c-1.4,0-2,1.3-2.2,2.3H690.7z"/>
				<path fill="#FFFFFF" d="M693.8,500.1c0-0.9,0-1.7-0.1-2.4h1.2l0,1.5h0.1c0.4-1,1.2-1.7,2.1-1.7c0.2,0,0.3,0,0.4,0v1.3
					c-0.1,0-0.3,0-0.5,0c-1,0-1.7,0.8-1.9,1.8c0,0.2-0.1,0.4-0.1,0.7v4.1h-1.4V500.1z"/>
			</g>
		</g>
	</g>
</g>
<g>
	<rect x="268.3" y="382.3" fill="#445464" width="133.4" height="133.4"/>
	<g>
		<g>
			<path fill="#FFFFFF" d="M369.3,479h-68c-1.7,0-3.1-1.4-3.1-3.1v-66.8c0-1.7,1.4-3.1,3.1-3.1h68c1.7,0,3.1,1.4,3.1,3.1v66.8
				C372.5,477.6,371.1,479,369.3,479L369.3,479z M304.5,472.8h61.7v-60.5h-61.7V472.8L304.5,472.8z"/>
		</g>
		<g>
			<g>
				<g>
					<path fill="#FFFFFF" d="M324.3,444.3c-6.1,0-11-4.9-11-11s4.9-11,11-11s11,4.9,11,11C335.4,439.4,330.4,444.3,324.3,444.3
						L324.3,444.3z M324.3,426c-4.1,0-7.4,3.3-7.4,7.4c0,4.1,3.3,7.4,7.4,7.4s7.4-3.3,7.4-7.4S328.4,426,324.3,426L324.3,426z"/>
				</g>
				<g>
					<g>
						<path fill="#FFFFFF" d="M317.4,428.2c-0.5,0-0.9-0.2-1.3-0.5l-2.6-2.6c-0.7-0.7-0.7-1.9,0-2.6s1.9-0.7,2.6,0l2.6,2.6
							c0.7,0.7,0.7,1.9,0,2.6C318.4,428,317.9,428.2,317.4,428.2L317.4,428.2z"/>
					</g>
					<g>
						<path fill="#FFFFFF" d="M333.8,444.6c-0.5,0-0.9-0.2-1.3-0.5l-3-3c-0.7-0.7-0.7-1.9,0-2.6s1.9-0.7,2.6,0l3,3
							c0.7,0.7,0.7,1.9,0,2.6C334.8,444.5,334.3,444.6,333.8,444.6L333.8,444.6z"/>
					</g>
				</g>
				<g>
					<g>
						<path fill="#FFFFFF" d="M331.3,428.2c-0.5,0-0.9-0.2-1.3-0.5c-0.7-0.7-0.7-1.9,0-2.6l2.6-2.6c0.7-0.7,1.9-0.7,2.6,0
							s0.7,1.9,0,2.6l-2.6,2.6C332.2,428,331.7,428.2,331.3,428.2L331.3,428.2z"/>
					</g>
					<g>
						<path fill="#FFFFFF" d="M314.9,444.6c-0.5,0-0.9-0.2-1.3-0.5c-0.7-0.7-0.7-1.9,0-2.6l3-3c0.7-0.7,1.9-0.7,2.6,0s0.7,1.9,0,2.6
							l-3,3C315.8,444.5,315.3,444.6,314.9,444.6L314.9,444.6z"/>
					</g>
				</g>
				<g>
					<g>
						<path fill="#FFFFFF" d="M324.4,425.4c-1,0-1.8-0.8-1.8-1.8V420c0-1,0.8-1.8,1.8-1.8s1.8,0.8,1.8,1.8v3.6
							C326.2,424.5,325.4,425.4,324.4,425.4L324.4,425.4z"/>
					</g>
					<g>
						<path fill="#FFFFFF" d="M324.3,448.6L324.3,448.6c-1,0-1.8-0.8-1.8-1.8v-4.3c0-1,0.8-1.8,1.8-1.8l0,0c1,0,1.8,0.8,1.8,1.8v4.3
							C326.2,447.7,325.4,448.6,324.3,448.6L324.3,448.6z"/>
					</g>
				</g>
				<g>
					<g>
						<path fill="#FFFFFF" d="M337.8,435.1h-3.6c-1,0-1.8-0.8-1.8-1.8s0.8-1.8,1.8-1.8h3.6c1,0,1.8,0.8,1.8,1.8
							C339.6,434.3,338.8,435.1,337.8,435.1L337.8,435.1z"/>
					</g>
					<g>
						<path fill="#FFFFFF" d="M315.2,435.1h-4.3c-1,0-1.8-0.8-1.8-1.8s0.8-1.8,1.8-1.8h4.3c1,0,1.8,0.8,1.8,1.8
							C317,434.3,316.2,435.1,315.2,435.1L315.2,435.1z"/>
					</g>
				</g>
			</g>
			<g>
				<g>
					<path fill="#FFFFFF" d="M350,456.7c-4.6,0-8.4-3.8-8.4-8.4s3.8-8.4,8.4-8.4s8.4,3.8,8.4,8.4C358.3,453,354.6,456.7,350,456.7
						L350,456.7z M350,442.7c-3.1,0-5.6,2.5-5.6,5.6s2.5,5.6,5.6,5.6s5.6-2.5,5.6-5.6C355.6,445.3,353.1,442.7,350,442.7L350,442.7z
						"/>
				</g>
				<g>
					<g>
						<path fill="#FFFFFF" d="M344.7,444.5c-0.4,0-0.7-0.1-1-0.4l-1.9-1.9c-0.5-0.5-0.5-1.4,0-2s1.4-0.5,2,0l1.9,1.9
							c0.5,0.5,0.5,1.4,0,2C345.4,444.3,345.1,444.5,344.7,444.5L344.7,444.5z"/>
					</g>
					<g>
						<path fill="#FFFFFF" d="M357.2,456.9c-0.4,0-0.7-0.1-1-0.4l-2.3-2.3c-0.5-0.5-0.5-1.4,0-2c0.5-0.5,1.4-0.5,2,0l2.3,2.3
							c0.5,0.5,0.5,1.4,0,2C357.9,456.8,357.5,456.9,357.2,456.9L357.2,456.9z"/>
					</g>
				</g>
				<g>
					<g>
						<path fill="#FFFFFF" d="M355.2,444.5c-0.4,0-0.7-0.1-1-0.4c-0.5-0.5-0.5-1.4,0-2l1.9-1.9c0.5-0.5,1.4-0.5,2,0
							c0.5,0.5,0.5,1.4,0,2l-1.9,1.9C355.9,444.3,355.6,444.5,355.2,444.5L355.2,444.5z"/>
					</g>
					<g>
						<path fill="#FFFFFF" d="M342.8,456.9c-0.4,0-0.7-0.1-1-0.4c-0.5-0.5-0.5-1.4,0-2l2.3-2.3c0.5-0.5,1.4-0.5,2,0
							c0.5,0.5,0.5,1.4,0,2l-2.3,2.3C343.5,456.8,343.1,456.9,342.8,456.9L342.8,456.9z"/>
					</g>
				</g>
				<g>
					<g>
						<path fill="#FFFFFF" d="M350,442.3c-0.8,0-1.4-0.6-1.4-1.4v-2.7c0-0.8,0.6-1.4,1.4-1.4s1.4,0.6,1.4,1.4v2.7
							C351.4,441.7,350.7,442.3,350,442.3L350,442.3z"/>
					</g>
					<g>
						<path fill="#FFFFFF" d="M350,459.9L350,459.9c-0.8,0-1.4-0.6-1.4-1.4v-3.2c0-0.8,0.6-1.4,1.4-1.4l0,0c0.8,0,1.4,0.6,1.4,1.4
							v3.2C351.4,459.3,350.7,459.9,350,459.9L350,459.9z"/>
					</g>
				</g>
				<g>
					<g>
						<path fill="#FFFFFF" d="M360.2,449.7h-2.7c-0.8,0-1.4-0.6-1.4-1.4s0.6-1.4,1.4-1.4h2.7c0.8,0,1.4,0.6,1.4,1.4
							S360.9,449.7,360.2,449.7L360.2,449.7z"/>
					</g>
					<g>
						<path fill="#FFFFFF" d="M343,449.7h-3.2c-0.8,0-1.4-0.6-1.4-1.4s0.6-1.4,1.4-1.4h3.2c0.8,0,1.4,0.6,1.4,1.4
							S343.8,449.7,343,449.7L343,449.7z"/>
					</g>
				</g>
			</g>
			<g>
				<g>
					<path fill="#FFFFFF" d="M329.7,464.6c-3.4,0-6.1-2.7-6.1-6.1s2.7-6.1,6.1-6.1s6.1,2.7,6.1,6.1
						C335.8,461.9,333.1,464.6,329.7,464.6L329.7,464.6z M329.7,454.4c-2.2,0-4.1,1.8-4.1,4.1c0,2.2,1.8,4.1,4.1,4.1
						c2.2,0,4.1-1.8,4.1-4.1C333.8,456.3,332,454.4,329.7,454.4L329.7,454.4z"/>
				</g>
				<g>
					<g>
						<path fill="#FFFFFF" d="M325.9,455.7c-0.3,0-0.5-0.1-0.7-0.3l-1.4-1.4c-0.4-0.4-0.4-1,0-1.4s1-0.4,1.4,0l1.4,1.4
							c0.4,0.4,0.4,1,0,1.4C326.4,455.6,326.1,455.7,325.9,455.7L325.9,455.7z"/>
					</g>
					<g>
						<path fill="#FFFFFF" d="M335,464.8c-0.3,0-0.5-0.1-0.7-0.3l-1.7-1.7c-0.4-0.4-0.4-1,0-1.4s1-0.4,1.4,0l1.7,1.7
							c0.4,0.4,0.4,1,0,1.4C335.5,464.7,335.2,464.8,335,464.8L335,464.8z"/>
					</g>
				</g>
				<g>
					<g>
						<path fill="#FFFFFF" d="M333.5,455.7c-0.3,0-0.5-0.1-0.7-0.3c-0.4-0.4-0.4-1,0-1.4l1.4-1.4c0.4-0.4,1-0.4,1.4,0s0.4,1,0,1.4
							l-1.4,1.4C334.1,455.6,333.8,455.7,333.5,455.7L333.5,455.7z"/>
					</g>
					<g>
						<path fill="#FFFFFF" d="M324.5,464.8c-0.3,0-0.5-0.1-0.7-0.3c-0.4-0.4-0.4-1,0-1.4l1.7-1.7c0.4-0.4,1-0.4,1.4,0s0.4,1,0,1.4
							l-1.7,1.7C325,464.7,324.7,464.8,324.5,464.8L324.5,464.8z"/>
					</g>
				</g>
				<g>
					<g>
						<path fill="#FFFFFF" d="M329.7,454.1c-0.6,0-1-0.5-1-1v-2c0-0.6,0.5-1,1-1c0.6,0,1,0.5,1,1v2
							C330.7,453.6,330.3,454.1,329.7,454.1L329.7,454.1z"/>
					</g>
					<g>
						<path fill="#FFFFFF" d="M329.7,466.9L329.7,466.9c-0.6,0-1-0.5-1-1v-2.4c0-0.6,0.5-1,1-1l0,0c0.6,0,1,0.5,1,1v2.4
							C330.7,466.5,330.3,466.9,329.7,466.9L329.7,466.9z"/>
					</g>
				</g>
				<g>
					<g>
						<path fill="#FFFFFF" d="M337.1,459.5h-2c-0.6,0-1-0.5-1-1c0-0.6,0.5-1,1-1h2c0.6,0,1,0.5,1,1
							C338.1,459.1,337.7,459.5,337.1,459.5L337.1,459.5z"/>
					</g>
					<g>
						<path fill="#FFFFFF" d="M324.7,459.5h-2.4c-0.6,0-1-0.5-1-1c0-0.6,0.5-1,1-1h2.4c0.6,0,1,0.5,1,1
							C325.7,459.1,325.2,459.5,324.7,459.5L324.7,459.5z"/>
					</g>
				</g>
			</g>
		</g>
	</g>
	<g>
		<g>
			<g>
				<path fill="#FFFFFF" d="M313.9,500.1c0-0.9,0-1.7-0.1-2.4h1.2l0,1.5h0.1c0.4-1,1.2-1.7,2.1-1.7c0.2,0,0.3,0,0.4,0v1.3
					c-0.1,0-0.3,0-0.5,0c-1,0-1.7,0.8-1.9,1.8c0,0.2-0.1,0.4-0.1,0.7v4.1h-1.4V500.1z"/>
				<path fill="#FFFFFF" d="M325.7,503.4c0,0.8,0,1.5,0.1,2.1h-1.2l-0.1-1.3h0c-0.4,0.6-1.2,1.4-2.6,1.4c-1.2,0-2.7-0.7-2.7-3.4
					v-4.5h1.4v4.3c0,1.5,0.4,2.5,1.7,2.5c0.9,0,1.6-0.7,1.9-1.3c0.1-0.2,0.1-0.5,0.1-0.7v-4.8h1.4V503.4z"/>
				<path fill="#FFFFFF" d="M328,499.8c0-0.8,0-1.5-0.1-2.1h1.2l0.1,1.3h0c0.4-0.7,1.3-1.5,2.6-1.5c1.1,0,2.7,0.6,2.7,3.3v4.6h-1.4
					V501c0-1.2-0.5-2.3-1.8-2.3c-0.9,0-1.6,0.7-1.9,1.4c-0.1,0.2-0.1,0.4-0.1,0.7v4.7H328V499.8z"/>
				<path fill="#FFFFFF" d="M336.9,499.8c0-0.8,0-1.5-0.1-2.1h1.2l0.1,1.3h0c0.4-0.7,1.3-1.5,2.6-1.5c1.1,0,2.7,0.6,2.7,3.3v4.6
					h-1.4V501c0-1.2-0.5-2.3-1.8-2.3c-0.9,0-1.6,0.7-1.9,1.4c-0.1,0.2-0.1,0.4-0.1,0.7v4.7h-1.4V499.8z"/>
				<path fill="#FFFFFF" d="M346.5,501.9c0,1.9,1.2,2.7,2.7,2.7c1,0,1.6-0.2,2.1-0.4l0.2,1c-0.5,0.2-1.3,0.5-2.6,0.5
					c-2.4,0-3.8-1.6-3.8-3.9s1.4-4.2,3.6-4.2c2.5,0,3.2,2.2,3.2,3.6c0,0.3,0,0.5,0,0.7H346.5z M350.7,500.8c0-0.9-0.4-2.3-2-2.3
					c-1.4,0-2,1.3-2.2,2.3H350.7z"/>
				<path fill="#FFFFFF" d="M353.8,500.1c0-0.9,0-1.7-0.1-2.4h1.2l0,1.5h0.1c0.4-1,1.2-1.7,2.1-1.7c0.2,0,0.3,0,0.4,0v1.3
					c-0.1,0-0.3,0-0.5,0c-1,0-1.7,0.8-1.9,1.8c0,0.2-0.1,0.4-0.1,0.7v4.1h-1.4V500.1z"/>
			</g>
		</g>
	</g>
</g>
<g>
	<rect x="438.3" y="382.3" fill="#445464" width="133.4" height="133.4"/>
	<g>
		<g>
			<path fill="#FFFFFF" d="M539.3,479h-68c-1.7,0-3.1-1.4-3.1-3.1v-66.8c0-1.7,1.4-3.1,3.1-3.1h68c1.7,0,3.1,1.4,3.1,3.1v66.8
				C542.5,477.6,541.1,479,539.3,479L539.3,479z M474.5,472.8h61.7v-60.5h-61.7V472.8L474.5,472.8z"/>
		</g>
		<g>
			<g>
				<g>
					<path fill="#FFFFFF" d="M494.3,444.3c-6.1,0-11-4.9-11-11s4.9-11,11-11s11,4.9,11,11C505.4,439.4,500.4,444.3,494.3,444.3
						L494.3,444.3z M494.3,426c-4.1,0-7.4,3.3-7.4,7.4s3.3,7.4,7.4,7.4s7.4-3.3,7.4-7.4C501.7,429.3,498.4,426,494.3,426L494.3,426z
						"/>
				</g>
				<g>
					<g>
						<path fill="#FFFFFF" d="M487.4,428.2c-0.5,0-0.9-0.2-1.3-0.5l-2.6-2.6c-0.7-0.7-0.7-1.9,0-2.6s1.9-0.7,2.6,0l2.6,2.6
							c0.7,0.7,0.7,1.9,0,2.6C488.4,428,487.9,428.2,487.4,428.2L487.4,428.2z"/>
					</g>
					<g>
						<path fill="#FFFFFF" d="M503.8,444.6c-0.5,0-0.9-0.2-1.3-0.5l-3-3c-0.7-0.7-0.7-1.9,0-2.6s1.9-0.7,2.6,0l3,3
							c0.7,0.7,0.7,1.9,0,2.6C504.8,444.5,504.3,444.6,503.8,444.6L503.8,444.6z"/>
					</g>
				</g>
				<g>
					<g>
						<path fill="#FFFFFF" d="M501.3,428.2c-0.5,0-0.9-0.2-1.3-0.5c-0.7-0.7-0.7-1.9,0-2.6l2.6-2.6c0.7-0.7,1.9-0.7,2.6,0
							s0.7,1.9,0,2.6l-2.6,2.6C502.2,428,501.7,428.2,501.3,428.2L501.3,428.2z"/>
					</g>
					<g>
						<path fill="#FFFFFF" d="M484.9,444.6c-0.5,0-0.9-0.2-1.3-0.5c-0.7-0.7-0.7-1.9,0-2.6l3-3c0.7-0.7,1.9-0.7,2.6,0s0.7,1.9,0,2.6
							l-3,3C485.8,444.5,485.3,444.6,484.9,444.6L484.9,444.6z"/>
					</g>
				</g>
				<g>
					<g>
						<path fill="#FFFFFF" d="M494.4,425.4c-1,0-1.8-0.8-1.8-1.8V420c0-1,0.8-1.8,1.8-1.8s1.8,0.8,1.8,1.8v3.6
							C496.2,424.5,495.4,425.4,494.4,425.4L494.4,425.4z"/>
					</g>
					<g>
						<path fill="#FFFFFF" d="M494.3,448.6L494.3,448.6c-1,0-1.8-0.8-1.8-1.8v-4.3c0-1,0.8-1.8,1.8-1.8l0,0c1,0,1.8,0.8,1.8,1.8v4.3
							C496.2,447.7,495.4,448.6,494.3,448.6L494.3,448.6z"/>
					</g>
				</g>
				<g>
					<g>
						<path fill="#FFFFFF" d="M507.8,435.1h-3.6c-1,0-1.8-0.8-1.8-1.8s0.8-1.8,1.8-1.8h3.6c1,0,1.8,0.8,1.8,1.8
							S508.8,435.1,507.8,435.1L507.8,435.1z"/>
					</g>
					<g>
						<path fill="#FFFFFF" d="M485.2,435.1h-4.3c-1,0-1.8-0.8-1.8-1.8s0.8-1.8,1.8-1.8h4.3c1,0,1.8,0.8,1.8,1.8
							S486.2,435.1,485.2,435.1L485.2,435.1z"/>
					</g>
				</g>
			</g>
			<g>
				<g>
					<path fill="#FFFFFF" d="M520,456.7c-4.6,0-8.4-3.8-8.4-8.4s3.8-8.4,8.4-8.4s8.4,3.8,8.4,8.4C528.3,453,524.6,456.7,520,456.7
						L520,456.7z M520,442.7c-3.1,0-5.6,2.5-5.6,5.6s2.5,5.6,5.6,5.6s5.6-2.5,5.6-5.6C525.6,445.3,523.1,442.7,520,442.7L520,442.7z
						"/>
				</g>
				<g>
					<g>
						<path fill="#FFFFFF" d="M514.7,444.5c-0.4,0-0.7-0.1-1-0.4l-1.9-1.9c-0.5-0.5-0.5-1.4,0-2s1.4-0.5,2,0l1.9,1.9
							c0.5,0.5,0.5,1.4,0,2C515.4,444.3,515.1,444.5,514.7,444.5L514.7,444.5z"/>
					</g>
					<g>
						<path fill="#FFFFFF" d="M527.2,456.9c-0.4,0-0.7-0.1-1-0.4l-2.3-2.3c-0.5-0.5-0.5-1.4,0-2c0.5-0.5,1.4-0.5,2,0l2.3,2.3
							c0.5,0.5,0.5,1.4,0,2C527.9,456.8,527.5,456.9,527.2,456.9L527.2,456.9z"/>
					</g>
				</g>
				<g>
					<g>
						<path fill="#FFFFFF" d="M525.2,444.5c-0.4,0-0.7-0.1-1-0.4c-0.5-0.5-0.5-1.4,0-2l1.9-1.9c0.5-0.5,1.4-0.5,2,0
							c0.5,0.5,0.5,1.4,0,2l-1.9,1.9C525.9,444.3,525.6,444.5,525.2,444.5L525.2,444.5z"/>
					</g>
					<g>
						<path fill="#FFFFFF" d="M512.8,456.9c-0.4,0-0.7-0.1-1-0.4c-0.5-0.5-0.5-1.4,0-2l2.3-2.3c0.5-0.5,1.4-0.5,2,0
							c0.5,0.5,0.5,1.4,0,2l-2.3,2.3C513.5,456.8,513.1,456.9,512.8,456.9L512.8,456.9z"/>
					</g>
				</g>
				<g>
					<g>
						<path fill="#FFFFFF" d="M520,442.3c-0.8,0-1.4-0.6-1.4-1.4v-2.7c0-0.8,0.6-1.4,1.4-1.4s1.4,0.6,1.4,1.4v2.7
							C521.4,441.7,520.7,442.3,520,442.3L520,442.3z"/>
					</g>
					<g>
						<path fill="#FFFFFF" d="M520,459.9L520,459.9c-0.8,0-1.4-0.6-1.4-1.4v-3.2c0-0.8,0.6-1.4,1.4-1.4l0,0c0.8,0,1.4,0.6,1.4,1.4
							v3.2C521.4,459.3,520.7,459.9,520,459.9L520,459.9z"/>
					</g>
				</g>
				<g>
					<g>
						<path fill="#FFFFFF" d="M530.2,449.7h-2.7c-0.8,0-1.4-0.6-1.4-1.4s0.6-1.4,1.4-1.4h2.7c0.8,0,1.4,0.6,1.4,1.4
							S530.9,449.7,530.2,449.7L530.2,449.7z"/>
					</g>
					<g>
						<path fill="#FFFFFF" d="M513,449.7h-3.2c-0.8,0-1.4-0.6-1.4-1.4s0.6-1.4,1.4-1.4h3.2c0.8,0,1.4,0.6,1.4,1.4
							S513.8,449.7,513,449.7L513,449.7z"/>
					</g>
				</g>
			</g>
			<g>
				<g>
					<path fill="#FFFFFF" d="M499.7,464.6c-3.4,0-6.1-2.7-6.1-6.1s2.7-6.1,6.1-6.1s6.1,2.7,6.1,6.1
						C505.8,461.9,503.1,464.6,499.7,464.6L499.7,464.6z M499.7,454.4c-2.2,0-4.1,1.8-4.1,4.1c0,2.2,1.8,4.1,4.1,4.1
						c2.2,0,4.1-1.8,4.1-4.1C503.8,456.3,502,454.4,499.7,454.4L499.7,454.4z"/>
				</g>
				<g>
					<g>
						<path fill="#FFFFFF" d="M495.9,455.7c-0.3,0-0.5-0.1-0.7-0.3l-1.4-1.4c-0.4-0.4-0.4-1,0-1.4s1-0.4,1.4,0l1.4,1.4
							c0.4,0.4,0.4,1,0,1.4C496.4,455.6,496.1,455.7,495.9,455.7L495.9,455.7z"/>
					</g>
					<g>
						<path fill="#FFFFFF" d="M505,464.8c-0.3,0-0.5-0.1-0.7-0.3l-1.7-1.7c-0.4-0.4-0.4-1,0-1.4s1-0.4,1.4,0l1.7,1.7
							c0.4,0.4,0.4,1,0,1.4C505.5,464.7,505.2,464.8,505,464.8L505,464.8z"/>
					</g>
				</g>
				<g>
					<g>
						<path fill="#FFFFFF" d="M503.5,455.7c-0.3,0-0.5-0.1-0.7-0.3c-0.4-0.4-0.4-1,0-1.4l1.4-1.4c0.4-0.4,1-0.4,1.4,0s0.4,1,0,1.4
							l-1.4,1.4C504.1,455.6,503.8,455.7,503.5,455.7L503.5,455.7z"/>
					</g>
					<g>
						<path fill="#FFFFFF" d="M494.5,464.8c-0.3,0-0.5-0.1-0.7-0.3c-0.4-0.4-0.4-1,0-1.4l1.7-1.7c0.4-0.4,1-0.4,1.4,0s0.4,1,0,1.4
							l-1.7,1.7C495,464.7,494.7,464.8,494.5,464.8L494.5,464.8z"/>
					</g>
				</g>
				<g>
					<g>
						<path fill="#FFFFFF" d="M499.7,454.1c-0.6,0-1-0.5-1-1v-2c0-0.6,0.5-1,1-1c0.6,0,1,0.5,1,1v2
							C500.7,453.6,500.3,454.1,499.7,454.1L499.7,454.1z"/>
					</g>
					<g>
						<path fill="#FFFFFF" d="M499.7,466.9L499.7,466.9c-0.6,0-1-0.5-1-1v-2.4c0-0.6,0.5-1,1-1l0,0c0.6,0,1,0.5,1,1v2.4
							C500.7,466.5,500.3,466.9,499.7,466.9L499.7,466.9z"/>
					</g>
				</g>
				<g>
					<g>
						<path fill="#FFFFFF" d="M507.1,459.5h-2c-0.6,0-1-0.5-1-1c0-0.6,0.5-1,1-1h2c0.6,0,1,0.5,1,1
							C508.1,459.1,507.7,459.5,507.1,459.5L507.1,459.5z"/>
					</g>
					<g>
						<path fill="#FFFFFF" d="M494.7,459.5h-2.4c-0.6,0-1-0.5-1-1c0-0.6,0.5-1,1-1h2.4c0.6,0,1,0.5,1,1
							C495.7,459.1,495.2,459.5,494.7,459.5L494.7,459.5z"/>
					</g>
				</g>
			</g>
		</g>
	</g>
	<g>
		<g>
			<g>
				<path fill="#FFFFFF" d="M483.9,500.1c0-0.9,0-1.7-0.1-2.4h1.2l0,1.5h0.1c0.4-1,1.2-1.7,2.1-1.7c0.2,0,0.3,0,0.4,0v1.3
					c-0.1,0-0.3,0-0.5,0c-1,0-1.7,0.8-1.9,1.8c0,0.2-0.1,0.4-0.1,0.7v4.1h-1.4V500.1z"/>
				<path fill="#FFFFFF" d="M495.7,503.4c0,0.8,0,1.5,0.1,2.1h-1.2l-0.1-1.3h0c-0.4,0.6-1.2,1.4-2.6,1.4c-1.2,0-2.7-0.7-2.7-3.4
					v-4.5h1.4v4.3c0,1.5,0.4,2.5,1.7,2.5c0.9,0,1.6-0.7,1.9-1.3c0.1-0.2,0.1-0.5,0.1-0.7v-4.8h1.4V503.4z"/>
				<path fill="#FFFFFF" d="M498,499.8c0-0.8,0-1.5-0.1-2.1h1.2l0.1,1.3h0c0.4-0.7,1.3-1.5,2.6-1.5c1.1,0,2.7,0.6,2.7,3.3v4.6h-1.4
					V501c0-1.2-0.5-2.3-1.8-2.3c-0.9,0-1.6,0.7-1.9,1.4c-0.1,0.2-0.1,0.4-0.1,0.7v4.7H498V499.8z"/>
				<path fill="#FFFFFF" d="M506.9,499.8c0-0.8,0-1.5-0.1-2.1h1.2l0.1,1.3h0c0.4-0.7,1.3-1.5,2.6-1.5c1.1,0,2.7,0.6,2.7,3.3v4.6
					h-1.4V501c0-1.2-0.5-2.3-1.8-2.3c-0.9,0-1.6,0.7-1.9,1.4c-0.1,0.2-0.1,0.4-0.1,0.7v4.7h-1.4V499.8z"/>
				<path fill="#FFFFFF" d="M516.5,501.9c0,1.9,1.2,2.7,2.7,2.7c1,0,1.6-0.2,2.1-0.4l0.2,1c-0.5,0.2-1.3,0.5-2.6,0.5
					c-2.4,0-3.8-1.6-3.8-3.9s1.4-4.2,3.6-4.2c2.5,0,3.2,2.2,3.2,3.6c0,0.3,0,0.5,0,0.7H516.5z M520.7,500.8c0-0.9-0.4-2.3-2-2.3
					c-1.4,0-2,1.3-2.2,2.3H520.7z"/>
				<path fill="#FFFFFF" d="M523.8,500.1c0-0.9,0-1.7-0.1-2.4h1.2l0,1.5h0.1c0.4-1,1.2-1.7,2.1-1.7c0.2,0,0.3,0,0.4,0v1.3
					c-0.1,0-0.3,0-0.5,0c-1,0-1.7,0.8-1.9,1.8c0,0.2-0.1,0.4-0.1,0.7v4.1h-1.4V500.1z"/>
			</g>
		</g>
	</g>
</g>
<line fill="none" stroke="#7F888D" stroke-width="4" stroke-miterlimit="10" x1="258" y1="449" x2="187" y2="449"/>
<polyline fill="none" stroke="#7F888D" stroke-width="4" stroke-miterlimit="10" points="846,231 846,448 770,448 "/>
<rect x="44.2" y="37" fill="#FCB716" fill-opacity="0.35" width="173.5" height="317"/>
<g>
	<g>
		<rect x="67.3" y="52.3" fill="#445464" width="133.4" height="133.4"/>
	</g>
	<g>
		<g>
			<path fill="#FFFFFF" d="M168.3,149h-68c-1.7,0-3.1-1.4-3.1-3.1V79.1c0-1.7,1.4-3.1,3.1-3.1h68c1.7,0,3.1,1.4,3.1,3.1v66.8
				C171.5,147.6,170.1,149,168.3,149L168.3,149z M103.5,142.8h61.7V82.3h-61.7V142.8L103.5,142.8z"/>
		</g>
		<g>
			<g>
				<g>
					<path fill="#FFFFFF" d="M123.3,114.3c-6.1,0-11-4.9-11-11s4.9-11,11-11s11,4.9,11,11C134.4,109.4,129.4,114.3,123.3,114.3
						L123.3,114.3z M123.3,96c-4.1,0-7.4,3.3-7.4,7.4s3.3,7.4,7.4,7.4s7.4-3.3,7.4-7.4S127.4,96,123.3,96L123.3,96z"/>
				</g>
				<g>
					<g>
						<path fill="#FFFFFF" d="M116.4,98.2c-0.5,0-0.9-0.2-1.3-0.5l-2.6-2.6c-0.7-0.7-0.7-1.9,0-2.6c0.7-0.7,1.9-0.7,2.6,0l2.6,2.6
							c0.7,0.7,0.7,1.9,0,2.6C117.4,98,116.9,98.2,116.4,98.2L116.4,98.2z"/>
					</g>
					<g>
						<path fill="#FFFFFF" d="M132.8,114.6c-0.5,0-0.9-0.2-1.3-0.5l-3-3c-0.7-0.7-0.7-1.9,0-2.6s1.9-0.7,2.6,0l3,3
							c0.7,0.7,0.7,1.9,0,2.6C133.8,114.5,133.3,114.6,132.8,114.6L132.8,114.6z"/>
					</g>
				</g>
				<g>
					<g>
						<path fill="#FFFFFF" d="M130.3,98.2c-0.5,0-0.9-0.2-1.3-0.5c-0.7-0.7-0.7-1.9,0-2.6l2.6-2.6c0.7-0.7,1.9-0.7,2.6,0
							s0.7,1.9,0,2.6l-2.6,2.6C131.2,98,130.7,98.2,130.3,98.2L130.3,98.2z"/>
					</g>
					<g>
						<path fill="#FFFFFF" d="M113.9,114.6c-0.5,0-0.9-0.2-1.3-0.5c-0.7-0.7-0.7-1.9,0-2.6l3-3c0.7-0.7,1.9-0.7,2.6,0s0.7,1.9,0,2.6
							l-3,3C114.8,114.5,114.3,114.6,113.9,114.6L113.9,114.6z"/>
					</g>
				</g>
				<g>
					<g>
						<path fill="#FFFFFF" d="M123.4,95.4c-1,0-1.8-0.8-1.8-1.8V90c0-1,0.8-1.8,1.8-1.8s1.8,0.8,1.8,1.8v3.6
							C125.2,94.5,124.4,95.4,123.4,95.4L123.4,95.4z"/>
					</g>
					<g>
						<path fill="#FFFFFF" d="M123.3,118.6L123.3,118.6c-1,0-1.8-0.8-1.8-1.8v-4.3c0-1,0.8-1.8,1.8-1.8l0,0c1,0,1.8,0.8,1.8,1.8v4.3
							C125.2,117.7,124.4,118.6,123.3,118.6L123.3,118.6z"/>
					</g>
				</g>
				<g>
					<g>
						<path fill="#FFFFFF" d="M136.8,105.1h-3.6c-1,0-1.8-0.8-1.8-1.8s0.8-1.8,1.8-1.8h3.6c1,0,1.8,0.8,1.8,1.8
							C138.6,104.3,137.8,105.1,136.8,105.1L136.8,105.1z"/>
					</g>
					<g>
						<path fill="#FFFFFF" d="M114.2,105.1h-4.3c-1,0-1.8-0.8-1.8-1.8s0.8-1.8,1.8-1.8h4.3c1,0,1.8,0.8,1.8,1.8
							C116,104.3,115.2,105.1,114.2,105.1L114.2,105.1z"/>
					</g>
				</g>
			</g>
			<g>
				<g>
					<path fill="#FFFFFF" d="M149,126.7c-4.6,0-8.4-3.8-8.4-8.4s3.8-8.4,8.4-8.4s8.4,3.8,8.4,8.4C157.3,123,153.6,126.7,149,126.7
						L149,126.7z M149,112.7c-3.1,0-5.6,2.5-5.6,5.6s2.5,5.6,5.6,5.6s5.6-2.5,5.6-5.6C154.6,115.3,152.1,112.7,149,112.7L149,112.7z
						"/>
				</g>
				<g>
					<g>
						<path fill="#FFFFFF" d="M143.7,114.5c-0.4,0-0.7-0.1-1-0.4l-1.9-1.9c-0.5-0.5-0.5-1.4,0-2s1.4-0.5,2,0l1.9,1.9
							c0.5,0.5,0.5,1.4,0,2C144.4,114.3,144.1,114.5,143.7,114.5L143.7,114.5z"/>
					</g>
					<g>
						<path fill="#FFFFFF" d="M156.2,126.9c-0.4,0-0.7-0.1-1-0.4l-2.3-2.3c-0.5-0.5-0.5-1.4,0-2c0.5-0.5,1.4-0.5,2,0l2.3,2.3
							c0.5,0.5,0.5,1.4,0,2C156.9,126.8,156.5,126.9,156.2,126.9L156.2,126.9z"/>
					</g>
				</g>
				<g>
					<g>
						<path fill="#FFFFFF" d="M154.2,114.5c-0.4,0-0.7-0.1-1-0.4c-0.5-0.5-0.5-1.4,0-2l1.9-1.9c0.5-0.5,1.4-0.5,2,0
							c0.5,0.5,0.5,1.4,0,2l-1.9,1.9C154.9,114.3,154.6,114.5,154.2,114.5L154.2,114.5z"/>
					</g>
					<g>
						<path fill="#FFFFFF" d="M141.8,126.9c-0.4,0-0.7-0.1-1-0.4c-0.5-0.5-0.5-1.4,0-2l2.3-2.3c0.5-0.5,1.4-0.5,2,0
							c0.5,0.5,0.5,1.4,0,2l-2.3,2.3C142.5,126.8,142.1,126.9,141.8,126.9L141.8,126.9z"/>
					</g>
				</g>
				<g>
					<g>
						<path fill="#FFFFFF" d="M149,112.3c-0.8,0-1.4-0.6-1.4-1.4v-2.7c0-0.8,0.6-1.4,1.4-1.4s1.4,0.6,1.4,1.4v2.7
							C150.4,111.7,149.7,112.3,149,112.3L149,112.3z"/>
					</g>
					<g>
						<path fill="#FFFFFF" d="M149,129.9L149,129.9c-0.8,0-1.4-0.6-1.4-1.4v-3.2c0-0.8,0.6-1.4,1.4-1.4l0,0c0.8,0,1.4,0.6,1.4,1.4
							v3.2C150.4,129.3,149.7,129.9,149,129.9L149,129.9z"/>
					</g>
				</g>
				<g>
					<g>
						<path fill="#FFFFFF" d="M159.2,119.7h-2.7c-0.8,0-1.4-0.6-1.4-1.4s0.6-1.4,1.4-1.4h2.7c0.8,0,1.4,0.6,1.4,1.4
							S159.9,119.7,159.2,119.7L159.2,119.7z"/>
					</g>
					<g>
						<path fill="#FFFFFF" d="M142,119.7h-3.2c-0.8,0-1.4-0.6-1.4-1.4s0.6-1.4,1.4-1.4h3.2c0.8,0,1.4,0.6,1.4,1.4
							S142.8,119.7,142,119.7L142,119.7z"/>
					</g>
				</g>
			</g>
			<g>
				<g>
					<path fill="#FFFFFF" d="M128.7,134.6c-3.4,0-6.1-2.7-6.1-6.1s2.7-6.1,6.1-6.1s6.1,2.7,6.1,6.1
						C134.8,131.9,132.1,134.6,128.7,134.6L128.7,134.6z M128.7,124.4c-2.2,0-4.1,1.8-4.1,4.1c0,2.2,1.8,4.1,4.1,4.1
						c2.2,0,4.1-1.8,4.1-4.1C132.8,126.3,131,124.4,128.7,124.4L128.7,124.4z"/>
				</g>
				<g>
					<g>
						<path fill="#FFFFFF" d="M124.9,125.7c-0.3,0-0.5-0.1-0.7-0.3l-1.4-1.4c-0.4-0.4-0.4-1,0-1.4s1-0.4,1.4,0l1.4,1.4
							c0.4,0.4,0.4,1,0,1.4C125.4,125.6,125.1,125.7,124.9,125.7L124.9,125.7z"/>
					</g>
					<g>
						<path fill="#FFFFFF" d="M134,134.8c-0.3,0-0.5-0.1-0.7-0.3l-1.7-1.7c-0.4-0.4-0.4-1,0-1.4s1-0.4,1.4,0l1.7,1.7
							c0.4,0.4,0.4,1,0,1.4C134.5,134.7,134.2,134.8,134,134.8L134,134.8z"/>
					</g>
				</g>
				<g>
					<g>
						<path fill="#FFFFFF" d="M132.5,125.7c-0.3,0-0.5-0.1-0.7-0.3c-0.4-0.4-0.4-1,0-1.4l1.4-1.4c0.4-0.4,1-0.4,1.4,0s0.4,1,0,1.4
							l-1.4,1.4C133.1,125.6,132.8,125.7,132.5,125.7L132.5,125.7z"/>
					</g>
					<g>
						<path fill="#FFFFFF" d="M123.5,134.8c-0.3,0-0.5-0.1-0.7-0.3c-0.4-0.4-0.4-1,0-1.4l1.7-1.7c0.4-0.4,1-0.4,1.4,0s0.4,1,0,1.4
							l-1.7,1.7C124,134.7,123.7,134.8,123.5,134.8L123.5,134.8z"/>
					</g>
				</g>
				<g>
					<g>
						<path fill="#FFFFFF" d="M128.7,124.1c-0.6,0-1-0.5-1-1v-2c0-0.6,0.5-1,1-1c0.6,0,1,0.5,1,1v2
							C129.7,123.6,129.3,124.1,128.7,124.1L128.7,124.1z"/>
					</g>
					<g>
						<path fill="#FFFFFF" d="M128.7,136.9L128.7,136.9c-0.6,0-1-0.5-1-1v-2.4c0-0.6,0.5-1,1-1l0,0c0.6,0,1,0.5,1,1v2.4
							C129.7,136.5,129.3,136.9,128.7,136.9L128.7,136.9z"/>
					</g>
				</g>
				<g>
					<g>
						<path fill="#FFFFFF" d="M136.1,129.5h-2c-0.6,0-1-0.5-1-1c0-0.6,0.5-1,1-1h2c0.6,0,1,0.5,1,1
							C137.1,129.1,136.7,129.5,136.1,129.5L136.1,129.5z"/>
					</g>
					<g>
						<path fill="#FFFFFF" d="M123.7,129.5h-2.4c-0.6,0-1-0.5-1-1c0-0.6,0.5-1,1-1h2.4c0.6,0,1,0.5,1,1
							C124.7,129.1,124.2,129.5,123.7,129.5L123.7,129.5z"/>
					</g>
				</g>
			</g>
		</g>
	</g>
	<g>
		<g>
			<g>
				<path fill="#FFFFFF" d="M72.5,164.7v10.8h-1.4v-10.8H72.5z"/>
				<path fill="#FFFFFF" d="M75.1,169.8c0-0.8,0-1.5-0.1-2.1h1.2l0.1,1.3h0c0.4-0.7,1.3-1.5,2.6-1.5c1.1,0,2.7,0.6,2.7,3.3v4.6h-1.4
					V171c0-1.2-0.5-2.3-1.8-2.3c-0.9,0-1.6,0.7-1.9,1.4c-0.1,0.2-0.1,0.4-0.1,0.7v4.7h-1.4V169.8z"/>
				<path fill="#FFFFFF" d="M84.1,175.5v-6.7H83v-1.1h1.1v-0.4c0-1.1,0.2-2.1,0.9-2.7c0.5-0.5,1.2-0.7,1.9-0.7
					c0.5,0,0.9,0.1,1.2,0.2l-0.2,1.1c-0.2-0.1-0.5-0.2-0.9-0.2c-1.2,0-1.5,1.1-1.5,2.2v0.4h1.9v1.1h-1.9v6.7H84.1z"/>
				<path fill="#FFFFFF" d="M88.6,170.1c0-0.9,0-1.7-0.1-2.4h1.2l0,1.5h0.1c0.4-1,1.2-1.7,2.1-1.7c0.2,0,0.3,0,0.4,0v1.3
					c-0.1,0-0.3,0-0.5,0c-1,0-1.7,0.8-1.9,1.8c0,0.2-0.1,0.4-0.1,0.7v4.1h-1.4V170.1z"/>
				<path fill="#FFFFFF" d="M98.1,175.5l-0.1-1h0c-0.4,0.6-1.3,1.2-2.4,1.2c-1.6,0-2.4-1.1-2.4-2.2c0-1.9,1.7-2.9,4.7-2.9v-0.2
					c0-0.6-0.2-1.8-1.8-1.8c-0.7,0-1.5,0.2-2,0.6l-0.3-0.9c0.6-0.4,1.6-0.7,2.5-0.7c2.4,0,2.9,1.6,2.9,3.2v2.9c0,0.7,0,1.3,0.1,1.9
					H98.1z M97.9,171.5c-1.5,0-3.3,0.2-3.3,1.7c0,0.9,0.6,1.3,1.3,1.3c1,0,1.6-0.6,1.9-1.3c0-0.1,0.1-0.3,0.1-0.4V171.5z"/>
				<path fill="#FFFFFF" d="M101.3,174c0.4,0.3,1.2,0.6,1.9,0.6c1,0,1.5-0.5,1.5-1.2c0-0.7-0.4-1-1.4-1.4c-1.4-0.5-2-1.3-2-2.2
					c0-1.2,1-2.3,2.7-2.3c0.8,0,1.5,0.2,1.9,0.5l-0.4,1c-0.3-0.2-0.9-0.4-1.6-0.4c-0.8,0-1.3,0.5-1.3,1.1c0,0.6,0.5,0.9,1.5,1.3
					c1.3,0.5,2,1.2,2,2.3c0,1.4-1.1,2.3-2.9,2.3c-0.8,0-1.6-0.2-2.2-0.5L101.3,174z"/>
				<path fill="#FFFFFF" d="M109.5,165.5v2.2h2v1.1h-2v4.2c0,1,0.3,1.5,1.1,1.5c0.4,0,0.6,0,0.8-0.1l0.1,1.1
					c-0.3,0.1-0.7,0.2-1.2,0.2c-0.7,0-1.2-0.2-1.5-0.6c-0.4-0.4-0.5-1.1-0.5-2v-4.2H107v-1.1h1.2v-1.9L109.5,165.5z"/>
				<path fill="#FFFFFF" d="M113.1,170.1c0-0.9,0-1.7-0.1-2.4h1.2l0,1.5h0.1c0.4-1,1.2-1.7,2.1-1.7c0.2,0,0.3,0,0.4,0v1.3
					c-0.1,0-0.3,0-0.5,0c-1,0-1.7,0.8-1.9,1.8c0,0.2-0.1,0.4-0.1,0.7v4.1h-1.4V170.1z"/>
				<path fill="#FFFFFF" d="M124.8,173.4c0,0.8,0,1.5,0.1,2.1h-1.2l-0.1-1.3h0c-0.4,0.6-1.2,1.4-2.6,1.4c-1.2,0-2.7-0.7-2.7-3.4
					v-4.5h1.4v4.3c0,1.5,0.4,2.5,1.7,2.5c0.9,0,1.6-0.7,1.9-1.3c0.1-0.2,0.1-0.5,0.1-0.7v-4.8h1.4V173.4z"/>
				<path fill="#FFFFFF" d="M132.7,175.2c-0.4,0.2-1.2,0.4-2.2,0.4c-2.3,0-3.9-1.6-3.9-4c0-2.4,1.6-4.1,4.2-4.1c0.8,0,1.6,0.2,2,0.4
					l-0.3,1.1c-0.3-0.2-0.9-0.4-1.6-0.4c-1.8,0-2.7,1.3-2.7,2.9c0,1.8,1.2,2.9,2.7,2.9c0.8,0,1.3-0.2,1.7-0.4L132.7,175.2z"/>
				<path fill="#FFFFFF" d="M136.2,165.5v2.2h2v1.1h-2v4.2c0,1,0.3,1.5,1.1,1.5c0.4,0,0.6,0,0.8-0.1l0.1,1.1
					c-0.3,0.1-0.7,0.2-1.2,0.2c-0.7,0-1.2-0.2-1.5-0.6c-0.4-0.4-0.5-1.1-0.5-2v-4.2h-1.2v-1.1h1.2v-1.9L136.2,165.5z"/>
				<path fill="#FFFFFF" d="M146.3,173.4c0,0.8,0,1.5,0.1,2.1h-1.2l-0.1-1.3h0c-0.4,0.6-1.2,1.4-2.6,1.4c-1.2,0-2.7-0.7-2.7-3.4
					v-4.5h1.4v4.3c0,1.5,0.4,2.5,1.7,2.5c0.9,0,1.6-0.7,1.9-1.3c0.1-0.2,0.1-0.5,0.1-0.7v-4.8h1.4V173.4z"/>
				<path fill="#FFFFFF" d="M148.7,170.1c0-0.9,0-1.7-0.1-2.4h1.2l0,1.5h0.1c0.4-1,1.2-1.7,2.1-1.7c0.2,0,0.3,0,0.4,0v1.3
					c-0.1,0-0.3,0-0.5,0c-1,0-1.7,0.8-1.9,1.8c0,0.2-0.1,0.4-0.1,0.7v4.1h-1.4V170.1z"/>
				<path fill="#FFFFFF" d="M154.5,171.9c0,1.9,1.2,2.7,2.7,2.7c1,0,1.6-0.2,2.1-0.4l0.2,1c-0.5,0.2-1.3,0.5-2.6,0.5
					c-2.4,0-3.8-1.6-3.8-3.9s1.4-4.2,3.6-4.2c2.5,0,3.2,2.2,3.2,3.6c0,0.3,0,0.5,0,0.7H154.5z M158.6,170.8c0-0.9-0.4-2.3-2-2.3
					c-1.4,0-2,1.3-2.2,2.3H158.6z"/>
				<path fill="#FFFFFF" d="M165.1,169.8c0-0.8,0-1.5-0.1-2.1h1.2l0.1,1.3h0c0.4-0.7,1.3-1.5,2.6-1.5c1.1,0,2.7,0.6,2.7,3.3v4.6
					h-1.4V171c0-1.2-0.5-2.3-1.8-2.3c-0.9,0-1.6,0.7-1.9,1.4c-0.1,0.2-0.1,0.4-0.1,0.7v4.7h-1.4V169.8z"/>
				<path fill="#FFFFFF" d="M181,171.5c0,2.9-2,4.1-3.9,4.1c-2.1,0-3.7-1.5-3.7-4c0-2.6,1.7-4.1,3.8-4.1
					C179.5,167.5,181,169.2,181,171.5z M174.9,171.6c0,1.7,1,3,2.4,3c1.3,0,2.4-1.3,2.4-3c0-1.3-0.7-3-2.3-3
					C175.6,168.6,174.9,170.1,174.9,171.6z"/>
				<path fill="#FFFFFF" d="M189.5,164.1v9.4c0,0.7,0,1.5,0.1,2h-1.3l-0.1-1.3h0c-0.4,0.9-1.4,1.5-2.6,1.5c-1.9,0-3.3-1.6-3.3-3.9
					c0-2.6,1.6-4.2,3.5-4.2c1.2,0,2,0.6,2.3,1.2h0v-4.6H189.5z M188.1,170.9c0-0.2,0-0.4-0.1-0.6c-0.2-0.9-1-1.6-2-1.6
					c-1.5,0-2.3,1.3-2.3,3c0,1.6,0.8,2.9,2.3,2.9c0.9,0,1.8-0.6,2.1-1.7c0-0.2,0.1-0.4,0.1-0.6V170.9z"/>
				<path fill="#FFFFFF" d="M192.6,171.9c0,1.9,1.2,2.7,2.7,2.7c1,0,1.6-0.2,2.1-0.4l0.2,1c-0.5,0.2-1.3,0.5-2.6,0.5
					c-2.4,0-3.8-1.6-3.8-3.9s1.4-4.2,3.6-4.2c2.5,0,3.2,2.2,3.2,3.6c0,0.3,0,0.5,0,0.7H192.6z M196.7,170.8c0-0.9-0.4-2.3-2-2.3
					c-1.4,0-2,1.3-2.2,2.3H196.7z"/>
			</g>
		</g>
	</g>
</g>
<line fill="none" stroke="#7F888D" stroke-width="4" stroke-miterlimit="10" x1="419" y1="152" x2="236" y2="152"/>
<g>
</g>
<g>
	<g>
		<g>
			<path fill="#445464" d="M298.1,129.1c0.7-0.1,1.6-0.2,2.7-0.2c1.4,0,2.4,0.3,3,0.9c0.6,0.5,0.9,1.3,0.9,2.3c0,1-0.3,1.7-0.8,2.3
				c-0.7,0.8-1.9,1.2-3.3,1.2c-0.4,0-0.8,0-1.1-0.1v4.3h-1.4V129.1z M299.5,134.3c0.3,0.1,0.7,0.1,1.2,0.1c1.7,0,2.7-0.8,2.7-2.3
				c0-1.4-1-2.1-2.5-2.1c-0.6,0-1.1,0-1.3,0.1V134.3z"/>
			<path fill="#445464" d="M312.8,137.7c0,0.8,0,1.5,0.1,2.1h-1.2l-0.1-1.3h0c-0.4,0.6-1.2,1.4-2.6,1.4c-1.2,0-2.7-0.7-2.7-3.4v-4.5
				h1.4v4.3c0,1.5,0.4,2.5,1.7,2.5c0.9,0,1.6-0.7,1.9-1.3c0.1-0.2,0.1-0.5,0.1-0.7v-4.8h1.4V137.7z"/>
			<path fill="#445464" d="M314.9,138.4c0.4,0.3,1.2,0.6,1.9,0.6c1,0,1.5-0.5,1.5-1.2c0-0.7-0.4-1-1.4-1.4c-1.4-0.5-2-1.3-2-2.2
				c0-1.2,1-2.3,2.7-2.3c0.8,0,1.5,0.2,1.9,0.5l-0.4,1c-0.3-0.2-0.9-0.4-1.6-0.4c-0.8,0-1.3,0.5-1.3,1.1c0,0.6,0.5,0.9,1.5,1.3
				c1.3,0.5,2,1.2,2,2.3c0,1.4-1.1,2.3-2.9,2.3c-0.8,0-1.6-0.2-2.2-0.5L314.9,138.4z"/>
			<path fill="#445464" d="M321.5,128.4h1.4v4.8h0c0.2-0.4,0.6-0.8,1-1c0.4-0.2,0.9-0.4,1.4-0.4c1,0,2.7,0.6,2.7,3.3v4.6h-1.4v-4.4
				c0-1.2-0.5-2.3-1.8-2.3c-0.9,0-1.6,0.6-1.9,1.4c-0.1,0.2-0.1,0.4-0.1,0.7v4.7h-1.4V128.4z"/>
			<path fill="#445464" d="M336,129h1.4v7.2c0,2.9-1.4,3.7-3.3,3.7c-0.5,0-1.1-0.1-1.5-0.3l0.2-1.1c0.3,0.1,0.7,0.2,1.2,0.2
				c1.2,0,2-0.6,2-2.7V129z"/>
			<path fill="#445464" d="M346.7,135.9c0,2.9-2,4.1-3.9,4.1c-2.1,0-3.7-1.5-3.7-4c0-2.6,1.7-4.1,3.8-4.1
				C345.2,131.9,346.7,133.5,346.7,135.9z M340.5,135.9c0,1.7,1,3,2.4,3c1.3,0,2.4-1.3,2.4-3c0-1.3-0.7-3-2.3-3
				C341.2,132.9,340.5,134.5,340.5,135.9z"/>
			<path fill="#445464" d="M348.4,139.8c0-0.5,0.1-1.3,0.1-2v-9.4h1.4v4.9h0c0.5-0.9,1.4-1.4,2.6-1.4c1.9,0,3.3,1.6,3.3,4
				c0,2.8-1.7,4.1-3.5,4.1c-1.1,0-2-0.4-2.6-1.5h0l-0.1,1.3H348.4z M349.8,136.7c0,0.2,0,0.4,0.1,0.5c0.3,1,1.1,1.6,2.1,1.6
				c1.5,0,2.4-1.2,2.4-3c0-1.6-0.8-2.9-2.3-2.9c-1,0-1.9,0.7-2.1,1.7c0,0.2-0.1,0.4-0.1,0.6V136.7z"/>
			<path fill="#445464" d="M357.4,138.4c0.4,0.3,1.2,0.6,1.9,0.6c1,0,1.5-0.5,1.5-1.2c0-0.7-0.4-1-1.4-1.4c-1.4-0.5-2-1.3-2-2.2
				c0-1.2,1-2.3,2.7-2.3c0.8,0,1.5,0.2,1.9,0.5l-0.4,1c-0.3-0.2-0.9-0.4-1.6-0.4c-0.8,0-1.3,0.5-1.3,1.1c0,0.6,0.5,0.9,1.5,1.3
				c1.3,0.5,2,1.2,2,2.3c0,1.4-1.1,2.3-2.9,2.3c-0.8,0-1.6-0.2-2.2-0.5L357.4,138.4z"/>
		</g>
	</g>
</g>
<g>
	<rect x="66.3" y="204.3" fill="#445464" width="133.4" height="133.4"/>
	<g>
		<g>
			<path fill="#FFFFFF" d="M167.3,301h-68c-1.7,0-3.1-1.4-3.1-3.1v-66.8c0-1.7,1.4-3.1,3.1-3.1h68c1.7,0,3.1,1.4,3.1,3.1v66.8
				C170.5,299.6,169.1,301,167.3,301L167.3,301z M102.5,294.8h61.7v-60.5h-61.7V294.8L102.5,294.8z"/>
		</g>
		<g>
			<g>
				<g>
					<path fill="#FFFFFF" d="M122.3,266.3c-6.1,0-11-4.9-11-11s4.9-11,11-11s11,4.9,11,11C133.4,261.4,128.4,266.3,122.3,266.3
						L122.3,266.3z M122.3,248c-4.1,0-7.4,3.3-7.4,7.4s3.3,7.4,7.4,7.4s7.4-3.3,7.4-7.4S126.4,248,122.3,248L122.3,248z"/>
				</g>
				<g>
					<g>
						<path fill="#FFFFFF" d="M115.4,250.2c-0.5,0-0.9-0.2-1.3-0.5l-2.6-2.6c-0.7-0.7-0.7-1.9,0-2.6c0.7-0.7,1.9-0.7,2.6,0l2.6,2.6
							c0.7,0.7,0.7,1.9,0,2.6C116.4,250,115.9,250.2,115.4,250.2L115.4,250.2z"/>
					</g>
					<g>
						<path fill="#FFFFFF" d="M131.8,266.6c-0.5,0-0.9-0.2-1.3-0.5l-3-3c-0.7-0.7-0.7-1.9,0-2.6s1.9-0.7,2.6,0l3,3
							c0.7,0.7,0.7,1.9,0,2.6C132.8,266.5,132.3,266.6,131.8,266.6L131.8,266.6z"/>
					</g>
				</g>
				<g>
					<g>
						<path fill="#FFFFFF" d="M129.3,250.2c-0.5,0-0.9-0.2-1.3-0.5c-0.7-0.7-0.7-1.9,0-2.6l2.6-2.6c0.7-0.7,1.9-0.7,2.6,0
							s0.7,1.9,0,2.6l-2.6,2.6C130.2,250,129.7,250.2,129.3,250.2L129.3,250.2z"/>
					</g>
					<g>
						<path fill="#FFFFFF" d="M112.9,266.6c-0.5,0-0.9-0.2-1.3-0.5c-0.7-0.7-0.7-1.9,0-2.6l3-3c0.7-0.7,1.9-0.7,2.6,0s0.7,1.9,0,2.6
							l-3,3C113.8,266.5,113.3,266.6,112.9,266.6L112.9,266.6z"/>
					</g>
				</g>
				<g>
					<g>
						<path fill="#FFFFFF" d="M122.4,247.4c-1,0-1.8-0.8-1.8-1.8V242c0-1,0.8-1.8,1.8-1.8s1.8,0.8,1.8,1.8v3.6
							C124.2,246.5,123.4,247.4,122.4,247.4L122.4,247.4z"/>
					</g>
					<g>
						<path fill="#FFFFFF" d="M122.3,270.6L122.3,270.6c-1,0-1.8-0.8-1.8-1.8v-4.3c0-1,0.8-1.8,1.8-1.8l0,0c1,0,1.8,0.8,1.8,1.8v4.3
							C124.2,269.7,123.4,270.6,122.3,270.6L122.3,270.6z"/>
					</g>
				</g>
				<g>
					<g>
						<path fill="#FFFFFF" d="M135.8,257.1h-3.6c-1,0-1.8-0.8-1.8-1.8c0-1,0.8-1.8,1.8-1.8h3.6c1,0,1.8,0.8,1.8,1.8
							C137.6,256.3,136.8,257.1,135.8,257.1L135.8,257.1z"/>
					</g>
					<g>
						<path fill="#FFFFFF" d="M113.2,257.1h-4.3c-1,0-1.8-0.8-1.8-1.8c0-1,0.8-1.8,1.8-1.8h4.3c1,0,1.8,0.8,1.8,1.8
							C115,256.3,114.2,257.1,113.2,257.1L113.2,257.1z"/>
					</g>
				</g>
			</g>
			<g>
				<g>
					<path fill="#FFFFFF" d="M148,278.7c-4.6,0-8.4-3.8-8.4-8.4s3.8-8.4,8.4-8.4s8.4,3.8,8.4,8.4C156.3,275,152.6,278.7,148,278.7
						L148,278.7z M148,264.7c-3.1,0-5.6,2.5-5.6,5.6s2.5,5.6,5.6,5.6s5.6-2.5,5.6-5.6C153.6,267.3,151.1,264.7,148,264.7L148,264.7z
						"/>
				</g>
				<g>
					<g>
						<path fill="#FFFFFF" d="M142.7,266.5c-0.4,0-0.7-0.1-1-0.4l-1.9-1.9c-0.5-0.5-0.5-1.4,0-2s1.4-0.5,2,0l1.9,1.9
							c0.5,0.5,0.5,1.4,0,2C143.4,266.3,143.1,266.5,142.7,266.5L142.7,266.5z"/>
					</g>
					<g>
						<path fill="#FFFFFF" d="M155.2,278.9c-0.4,0-0.7-0.1-1-0.4l-2.3-2.3c-0.5-0.5-0.5-1.4,0-2c0.5-0.5,1.4-0.5,2,0l2.3,2.3
							c0.5,0.5,0.5,1.4,0,2C155.9,278.8,155.5,278.9,155.2,278.9L155.2,278.9z"/>
					</g>
				</g>
				<g>
					<g>
						<path fill="#FFFFFF" d="M153.2,266.5c-0.4,0-0.7-0.1-1-0.4c-0.5-0.5-0.5-1.4,0-2l1.9-1.9c0.5-0.5,1.4-0.5,2,0
							c0.5,0.5,0.5,1.4,0,2l-1.9,1.9C153.9,266.3,153.6,266.5,153.2,266.5L153.2,266.5z"/>
					</g>
					<g>
						<path fill="#FFFFFF" d="M140.8,278.9c-0.4,0-0.7-0.1-1-0.4c-0.5-0.5-0.5-1.4,0-2l2.3-2.3c0.5-0.5,1.4-0.5,2,0
							c0.5,0.5,0.5,1.4,0,2l-2.3,2.3C141.5,278.8,141.1,278.9,140.8,278.9L140.8,278.9z"/>
					</g>
				</g>
				<g>
					<g>
						<path fill="#FFFFFF" d="M148,264.3c-0.8,0-1.4-0.6-1.4-1.4v-2.7c0-0.8,0.6-1.4,1.4-1.4s1.4,0.6,1.4,1.4v2.7
							C149.4,263.7,148.7,264.3,148,264.3L148,264.3z"/>
					</g>
					<g>
						<path fill="#FFFFFF" d="M148,281.9L148,281.9c-0.8,0-1.4-0.6-1.4-1.4v-3.2c0-0.8,0.6-1.4,1.4-1.4l0,0c0.8,0,1.4,0.6,1.4,1.4
							v3.2C149.4,281.3,148.7,281.9,148,281.9L148,281.9z"/>
					</g>
				</g>
				<g>
					<g>
						<path fill="#FFFFFF" d="M158.2,271.7h-2.7c-0.8,0-1.4-0.6-1.4-1.4s0.6-1.4,1.4-1.4h2.7c0.8,0,1.4,0.6,1.4,1.4
							S158.9,271.7,158.2,271.7L158.2,271.7z"/>
					</g>
					<g>
						<path fill="#FFFFFF" d="M141,271.7h-3.2c-0.8,0-1.4-0.6-1.4-1.4s0.6-1.4,1.4-1.4h3.2c0.8,0,1.4,0.6,1.4,1.4
							S141.8,271.7,141,271.7L141,271.7z"/>
					</g>
				</g>
			</g>
			<g>
				<g>
					<path fill="#FFFFFF" d="M127.7,286.6c-3.4,0-6.1-2.7-6.1-6.1s2.7-6.1,6.1-6.1s6.1,2.7,6.1,6.1
						C133.8,283.9,131.1,286.6,127.7,286.6L127.7,286.6z M127.7,276.4c-2.2,0-4.1,1.8-4.1,4.1c0,2.2,1.8,4.1,4.1,4.1
						c2.2,0,4.1-1.8,4.1-4.1C131.8,278.3,130,276.4,127.7,276.4L127.7,276.4z"/>
				</g>
				<g>
					<g>
						<path fill="#FFFFFF" d="M123.9,277.7c-0.3,0-0.5-0.1-0.7-0.3l-1.4-1.4c-0.4-0.4-0.4-1,0-1.4s1-0.4,1.4,0l1.4,1.4
							c0.4,0.4,0.4,1,0,1.4C124.4,277.6,124.1,277.7,123.9,277.7L123.9,277.7z"/>
					</g>
					<g>
						<path fill="#FFFFFF" d="M133,286.8c-0.3,0-0.5-0.1-0.7-0.3l-1.7-1.7c-0.4-0.4-0.4-1,0-1.4s1-0.4,1.4,0l1.7,1.7
							c0.4,0.4,0.4,1,0,1.4C133.5,286.7,133.2,286.8,133,286.8L133,286.8z"/>
					</g>
				</g>
				<g>
					<g>
						<path fill="#FFFFFF" d="M131.5,277.7c-0.3,0-0.5-0.1-0.7-0.3c-0.4-0.4-0.4-1,0-1.4l1.4-1.4c0.4-0.4,1-0.4,1.4,0s0.4,1,0,1.4
							l-1.4,1.4C132.1,277.6,131.8,277.7,131.5,277.7L131.5,277.7z"/>
					</g>
					<g>
						<path fill="#FFFFFF" d="M122.5,286.8c-0.3,0-0.5-0.1-0.7-0.3c-0.4-0.4-0.4-1,0-1.4l1.7-1.7c0.4-0.4,1-0.4,1.4,0s0.4,1,0,1.4
							l-1.7,1.7C123,286.7,122.7,286.8,122.5,286.8L122.5,286.8z"/>
					</g>
				</g>
				<g>
					<g>
						<path fill="#FFFFFF" d="M127.7,276.1c-0.6,0-1-0.5-1-1v-2c0-0.6,0.5-1,1-1c0.6,0,1,0.5,1,1v2
							C128.7,275.6,128.3,276.1,127.7,276.1L127.7,276.1z"/>
					</g>
					<g>
						<path fill="#FFFFFF" d="M127.7,288.9L127.7,288.9c-0.6,0-1-0.5-1-1v-2.4c0-0.6,0.5-1,1-1l0,0c0.6,0,1,0.5,1,1v2.4
							C128.7,288.5,128.3,288.9,127.7,288.9L127.7,288.9z"/>
					</g>
				</g>
				<g>
					<g>
						<path fill="#FFFFFF" d="M135.1,281.5h-2c-0.6,0-1-0.5-1-1c0-0.6,0.5-1,1-1h2c0.6,0,1,0.5,1,1
							C136.1,281.1,135.7,281.5,135.1,281.5L135.1,281.5z"/>
					</g>
					<g>
						<path fill="#FFFFFF" d="M122.7,281.5h-2.4c-0.6,0-1-0.5-1-1c0-0.6,0.5-1,1-1h2.4c0.6,0,1,0.5,1,1
							C123.7,281.1,123.2,281.5,122.7,281.5L122.7,281.5z"/>
					</g>
				</g>
			</g>
		</g>
	</g>
	<g>
		<g>
			<g>
				<path fill="#FFFFFF" d="M71.5,316.7v10.8h-1.4v-10.8H71.5z"/>
				<path fill="#FFFFFF" d="M74.1,321.8c0-0.8,0-1.5-0.1-2.1h1.2l0.1,1.3h0c0.4-0.7,1.3-1.5,2.6-1.5c1.1,0,2.7,0.6,2.7,3.3v4.6h-1.4
					V323c0-1.2-0.5-2.3-1.8-2.3c-0.9,0-1.6,0.7-1.9,1.4c-0.1,0.2-0.1,0.4-0.1,0.7v4.7h-1.4V321.8z"/>
				<path fill="#FFFFFF" d="M83.1,327.5v-6.7H82v-1.1h1.1v-0.4c0-1.1,0.2-2.1,0.9-2.7c0.5-0.5,1.2-0.7,1.9-0.7
					c0.5,0,0.9,0.1,1.2,0.2l-0.2,1.1c-0.2-0.1-0.5-0.2-0.9-0.2c-1.2,0-1.5,1.1-1.5,2.2v0.4h1.9v1.1h-1.9v6.7H83.1z"/>
				<path fill="#FFFFFF" d="M87.6,322.1c0-0.9,0-1.7-0.1-2.4h1.2l0,1.5h0.1c0.4-1,1.2-1.7,2.1-1.7c0.2,0,0.3,0,0.4,0v1.3
					c-0.1,0-0.3,0-0.5,0c-1,0-1.7,0.8-1.9,1.8c0,0.2-0.1,0.4-0.1,0.7v4.1h-1.4V322.1z"/>
				<path fill="#FFFFFF" d="M97.1,327.5l-0.1-1h0c-0.4,0.6-1.3,1.2-2.4,1.2c-1.6,0-2.4-1.1-2.4-2.2c0-1.9,1.7-2.9,4.7-2.9v-0.2
					c0-0.6-0.2-1.8-1.8-1.8c-0.7,0-1.5,0.2-2,0.6l-0.3-0.9c0.6-0.4,1.6-0.7,2.5-0.7c2.4,0,2.9,1.6,2.9,3.2v2.9c0,0.7,0,1.3,0.1,1.9
					H97.1z M96.9,323.5c-1.5,0-3.3,0.2-3.3,1.7c0,0.9,0.6,1.3,1.3,1.3c1,0,1.6-0.6,1.9-1.3c0-0.1,0.1-0.3,0.1-0.4V323.5z"/>
				<path fill="#FFFFFF" d="M100.3,326c0.4,0.3,1.2,0.6,1.9,0.6c1,0,1.5-0.5,1.5-1.2c0-0.7-0.4-1-1.4-1.4c-1.4-0.5-2-1.3-2-2.2
					c0-1.2,1-2.3,2.7-2.3c0.8,0,1.5,0.2,1.9,0.5l-0.4,1c-0.3-0.2-0.9-0.4-1.6-0.4c-0.8,0-1.3,0.5-1.3,1.1c0,0.6,0.5,0.9,1.5,1.3
					c1.3,0.5,2,1.2,2,2.3c0,1.4-1.1,2.3-2.9,2.3c-0.8,0-1.6-0.2-2.2-0.5L100.3,326z"/>
				<path fill="#FFFFFF" d="M108.5,317.5v2.2h2v1.1h-2v4.2c0,1,0.3,1.5,1.1,1.5c0.4,0,0.6,0,0.8-0.1l0.1,1.1
					c-0.3,0.1-0.7,0.2-1.2,0.2c-0.7,0-1.2-0.2-1.5-0.6c-0.4-0.4-0.5-1.1-0.5-2v-4.2H106v-1.1h1.2v-1.9L108.5,317.5z"/>
				<path fill="#FFFFFF" d="M112.1,322.1c0-0.9,0-1.7-0.1-2.4h1.2l0,1.5h0.1c0.4-1,1.2-1.7,2.1-1.7c0.2,0,0.3,0,0.4,0v1.3
					c-0.1,0-0.3,0-0.5,0c-1,0-1.7,0.8-1.9,1.8c0,0.2-0.1,0.4-0.1,0.7v4.1h-1.4V322.1z"/>
				<path fill="#FFFFFF" d="M123.8,325.4c0,0.8,0,1.5,0.1,2.1h-1.2l-0.1-1.3h0c-0.4,0.6-1.2,1.4-2.6,1.4c-1.2,0-2.7-0.7-2.7-3.4
					v-4.5h1.4v4.3c0,1.5,0.4,2.5,1.7,2.5c0.9,0,1.6-0.7,1.9-1.3c0.1-0.2,0.1-0.5,0.1-0.7v-4.8h1.4V325.4z"/>
				<path fill="#FFFFFF" d="M131.7,327.2c-0.4,0.2-1.2,0.4-2.2,0.4c-2.3,0-3.9-1.6-3.9-4c0-2.4,1.6-4.1,4.2-4.1c0.8,0,1.6,0.2,2,0.4
					l-0.3,1.1c-0.3-0.2-0.9-0.4-1.6-0.4c-1.8,0-2.7,1.3-2.7,2.9c0,1.8,1.2,2.9,2.7,2.9c0.8,0,1.3-0.2,1.7-0.4L131.7,327.2z"/>
				<path fill="#FFFFFF" d="M135.2,317.5v2.2h2v1.1h-2v4.2c0,1,0.3,1.5,1.1,1.5c0.4,0,0.6,0,0.8-0.1l0.1,1.1
					c-0.3,0.1-0.7,0.2-1.2,0.2c-0.7,0-1.2-0.2-1.5-0.6c-0.4-0.4-0.5-1.1-0.5-2v-4.2h-1.2v-1.1h1.2v-1.9L135.2,317.5z"/>
				<path fill="#FFFFFF" d="M145.3,325.4c0,0.8,0,1.5,0.1,2.1h-1.2l-0.1-1.3h0c-0.4,0.6-1.2,1.4-2.6,1.4c-1.2,0-2.7-0.7-2.7-3.4
					v-4.5h1.4v4.3c0,1.5,0.4,2.5,1.7,2.5c0.9,0,1.6-0.7,1.9-1.3c0.1-0.2,0.1-0.5,0.1-0.7v-4.8h1.4V325.4z"/>
				<path fill="#FFFFFF" d="M147.7,322.1c0-0.9,0-1.7-0.1-2.4h1.2l0,1.5h0.1c0.4-1,1.2-1.7,2.1-1.7c0.2,0,0.3,0,0.4,0v1.3
					c-0.1,0-0.3,0-0.5,0c-1,0-1.7,0.8-1.9,1.8c0,0.2-0.1,0.4-0.1,0.7v4.1h-1.4V322.1z"/>
				<path fill="#FFFFFF" d="M153.5,323.9c0,1.9,1.2,2.7,2.7,2.7c1,0,1.6-0.2,2.1-0.4l0.2,1c-0.5,0.2-1.3,0.5-2.6,0.5
					c-2.4,0-3.8-1.6-3.8-3.9s1.4-4.2,3.6-4.2c2.5,0,3.2,2.2,3.2,3.6c0,0.3,0,0.5,0,0.7H153.5z M157.6,322.8c0-0.9-0.4-2.3-2-2.3
					c-1.4,0-2,1.3-2.2,2.3H157.6z"/>
				<path fill="#FFFFFF" d="M164.1,321.8c0-0.8,0-1.5-0.1-2.1h1.2l0.1,1.3h0c0.4-0.7,1.3-1.5,2.6-1.5c1.1,0,2.7,0.6,2.7,3.3v4.6
					h-1.4V323c0-1.2-0.5-2.3-1.8-2.3c-0.9,0-1.6,0.7-1.9,1.4c-0.1,0.2-0.1,0.4-0.1,0.7v4.7h-1.4V321.8z"/>
				<path fill="#FFFFFF" d="M180,323.5c0,2.9-2,4.1-3.9,4.1c-2.1,0-3.7-1.5-3.7-4c0-2.6,1.7-4.1,3.8-4.1
					C178.5,319.5,180,321.2,180,323.5z M173.9,323.6c0,1.7,1,3,2.4,3c1.3,0,2.4-1.3,2.4-3c0-1.3-0.7-3-2.3-3
					C174.6,320.6,173.9,322.1,173.9,323.6z"/>
				<path fill="#FFFFFF" d="M188.5,316.1v9.4c0,0.7,0,1.5,0.1,2h-1.3l-0.1-1.3h0c-0.4,0.9-1.4,1.5-2.6,1.5c-1.9,0-3.3-1.6-3.3-3.9
					c0-2.6,1.6-4.2,3.5-4.2c1.2,0,2,0.6,2.3,1.2h0v-4.6H188.5z M187.1,322.9c0-0.2,0-0.4-0.1-0.6c-0.2-0.9-1-1.6-2-1.6
					c-1.5,0-2.3,1.3-2.3,3c0,1.6,0.8,2.9,2.3,2.9c0.9,0,1.8-0.6,2.1-1.7c0-0.2,0.1-0.4,0.1-0.6V322.9z"/>
				<path fill="#FFFFFF" d="M191.6,323.9c0,1.9,1.2,2.7,2.7,2.7c1,0,1.6-0.2,2.1-0.4l0.2,1c-0.5,0.2-1.3,0.5-2.6,0.5
					c-2.4,0-3.8-1.6-3.8-3.9s1.4-4.2,3.6-4.2c2.5,0,3.2,2.2,3.2,3.6c0,0.3,0,0.5,0,0.7H191.6z M195.7,322.8c0-0.9-0.4-2.3-2-2.3
					c-1.4,0-2,1.3-2.2,2.3H195.7z"/>
			</g>
		</g>
	</g>
</g>
<g>
</g>
<g>
</g>
<g>
</g>
<g>
</g>
<g>
</g>
<g>
</g>
<g>
</g>
<g>
</g>
<g>
</g>
<g>
</g>
<g>
</g>
<g>
</g>
<g>
</g>
<g>
</g>
<g>
</g>
</svg>
