<?xml version="1.0" encoding="utf-8"?>
<!-- Generator: Adobe Illustrator 19.1.0, SVG Export Plug-In . SVG Version: 6.00 Build 0)  -->
<svg version="1.1" id="Layer_1" xmlns="http://www.w3.org/2000/svg" xmlns:xlink="http://www.w3.org/1999/xlink" x="0px" y="0px"
	 viewBox="0 0 941 692" enable-background="new 0 0 941 692" xml:space="preserve">
<polygon fill="#F08921" points="485.5,433.2 175.7,433.2 175.7,264.2 485.5,264.2 485.5,331.8 "/>
<rect x="328.1" y="272.2" fill="#FFFFFF" width="149.3" height="153.8"/>
<rect x="118.4" y="502.7" fill="#6CB2E2" width="423.3" height="169"/>
<rect x="263.6" y="510.2" fill="#FFFFFF" width="269.4" height="153.8"/>
<g>
	<g>
		<path fill="#FFFFFF" d="M236.3,606h-91.2c-2.3,0-4.1-1.9-4.1-4.1v-58c0-2.3,1.9-4.1,4.1-4.1h91.2c2.3,0,4.1,1.9,4.1,4.1v58
			C240.5,604.1,238.6,606,236.3,606L236.3,606z M149.3,597.7h82.9v-49.7h-82.9V597.7L149.3,597.7z"/>
	</g>
	<g>
		<path fill="#FFFFFF" d="M228,595.6h-74.6c-1.2,0-2.1-0.9-2.1-2.1v-41.5c0-1.1,0.9-2.1,2.1-2.1H228c1.1,0,2.1,0.9,2.1,2.1v41.5
			C230.1,594.7,229.2,595.6,228,595.6L228,595.6z M155.5,591.5H226v-37.3h-70.5V591.5L155.5,591.5z"/>
	</g>
	<g>
		<path fill="#FFFFFF" d="M249.1,618.1H133.7c-2.3,0-4.1-1.9-4.1-4.1c0-2.3,1.9-4.1,4.1-4.1h115.4c2.3,0,4.1,1.9,4.1,4.1
			C253.3,616.2,251.4,618.1,249.1,618.1L249.1,618.1z"/>
	</g>
</g>
<g>
	<g>
		<path fill="#FFFFFF" d="M136.9,647h2.8l1.5,5.9l1.8-5.9h2.4l1.8,5.9l1.6-5.9h2.7l-3,9.7h-2.5l-1.9-5.9l-1.9,5.9h-2.4L136.9,647z"
			/>
		<path fill="#FFFFFF" d="M152.3,651.9L152.3,651.9c0-2.8,2.2-5.1,5.2-5.1c3,0,5.2,2.2,5.2,5v0c0,2.8-2.2,5-5.2,5
			C154.5,656.9,152.3,654.7,152.3,651.9z M160.1,651.9L160.1,651.9c0-1.5-1-2.7-2.5-2.7c-1.6,0-2.5,1.2-2.5,2.6v0
			c0,1.4,1,2.7,2.5,2.7C159.1,654.5,160.1,653.3,160.1,651.9z"/>
		<path fill="#FFFFFF" d="M164.7,647h2.7v1.9c0.6-1.3,1.5-2.2,3.1-2.1v2.9h-0.1c-1.8,0-2.9,1.1-2.9,3.4v3.6h-2.7V647z"/>
		<path fill="#FFFFFF" d="M172.3,643.5h2.7v7l3.2-3.5h3.3l-3.7,3.8l3.8,5.9h-3.1l-2.5-3.9l-1,1v2.9h-2.7V643.5z"/>
		<path fill="#FFFFFF" d="M182.2,655.4l1.2-1.8c1,0.8,2.1,1.2,3,1.2c0.8,0,1.2-0.3,1.2-0.7v0c0-0.6-0.9-0.8-2-1.1
			c-1.3-0.4-2.9-1-2.9-2.9v0c0-2,1.6-3.1,3.5-3.1c1.2,0,2.6,0.4,3.6,1.1l-1,1.9c-1-0.6-1.9-0.9-2.6-0.9c-0.7,0-1,0.3-1,0.7v0
			c0,0.5,0.9,0.8,2,1.2c1.4,0.5,2.9,1.1,2.9,2.9v0c0,2.1-1.6,3.1-3.7,3.1C184.9,656.9,183.4,656.4,182.2,655.4z"/>
		<path fill="#FFFFFF" d="M192.2,653.9v-4.6h-1.2V647h1.2v-2.5h2.7v2.5h2.3v2.3H195v4.1c0,0.6,0.3,0.9,0.9,0.9c0.5,0,1-0.1,1.4-0.3
			v2.2c-0.6,0.3-1.2,0.6-2.2,0.6C193.3,656.8,192.2,656.2,192.2,653.9z"/>
		<path fill="#FFFFFF" d="M198.7,653.9L198.7,653.9c0-2.1,1.6-3.1,3.9-3.1c1,0,1.7,0.2,2.4,0.4V651c0-1.1-0.7-1.8-2.1-1.8
			c-1,0-1.8,0.2-2.7,0.5l-0.7-2.1c1.1-0.5,2.1-0.8,3.7-0.8c1.5,0,2.6,0.4,3.3,1.1c0.7,0.7,1,1.8,1,3.1v5.6h-2.6v-1
			c-0.7,0.7-1.6,1.2-2.9,1.2C200.2,656.9,198.7,655.8,198.7,653.9z M204.9,653.3v-0.5c-0.5-0.2-1.1-0.4-1.7-0.4
			c-1.2,0-1.9,0.5-1.9,1.3v0c0,0.7,0.6,1.2,1.5,1.2C204.1,655,204.9,654.3,204.9,653.3z"/>
		<path fill="#FFFFFF" d="M210.3,653.9v-4.6h-1.2V647h1.2v-2.5h2.7v2.5h2.3v2.3H213v4.1c0,0.6,0.3,0.9,0.9,0.9c0.5,0,1-0.1,1.4-0.3
			v2.2c-0.6,0.3-1.2,0.6-2.2,0.6C211.4,656.8,210.3,656.2,210.3,653.9z"/>
		<path fill="#FFFFFF" d="M217.3,643.5h2.9v2.4h-2.9V643.5z M217.4,647h2.7v9.7h-2.7V647z"/>
		<path fill="#FFFFFF" d="M222.2,651.9L222.2,651.9c0-2.8,2.2-5.1,5.2-5.1c3,0,5.2,2.2,5.2,5v0c0,2.8-2.2,5-5.2,5
			C224.5,656.9,222.2,654.7,222.2,651.9z M230,651.9L230,651.9c0-1.5-1-2.7-2.5-2.7c-1.6,0-2.5,1.2-2.5,2.6v0c0,1.4,1,2.7,2.5,2.7
			C229,654.5,230,653.3,230,651.9z"/>
		<path fill="#FFFFFF" d="M234.7,647h2.7v1.4c0.6-0.8,1.4-1.5,2.8-1.5c2.1,0,3.3,1.4,3.3,3.6v6.2h-2.7v-5.4c0-1.3-0.6-2-1.7-2
			c-1,0-1.7,0.7-1.7,2v5.4h-2.7V647z"/>
	</g>
</g>
<g>
	<g>
		<rect x="273.3" y="520.4" fill="#FFFFFF" width="133.4" height="133.4"/>
		<g>
			<path fill="#445464" d="M301.1,639.6L301.1,639.6c0-2.2,1.7-4,4-4c1.4,0,2.3,0.5,3,1.3l-1.3,1.4c-0.5-0.5-1-0.8-1.7-0.8
				c-1.1,0-1.8,1-1.8,2.1v0c0,1.2,0.8,2.1,1.9,2.1c0.7,0,1.2-0.3,1.7-0.8l1.3,1.3c-0.7,0.8-1.6,1.4-3.1,1.4
				C302.7,643.5,301.1,641.7,301.1,639.6z"/>
			<path fill="#445464" d="M309,639.6L309,639.6c0-2.2,1.8-4,4.1-4c2.4,0,4.1,1.7,4.1,3.9v0c0,2.2-1.8,4-4.1,4
				C310.7,643.5,309,641.7,309,639.6z M315.1,639.6L315.1,639.6c0-1.1-0.8-2.1-2-2.1c-1.2,0-2,1-2,2.1v0c0,1.1,0.8,2.1,2,2.1
				C314.3,641.6,315.1,640.7,315.1,639.6z"/>
			<path fill="#445464" d="M318.4,639.6L318.4,639.6c0-2.2,1.8-4,4.1-4c2.4,0,4.1,1.7,4.1,3.9v0c0,2.2-1.8,4-4.1,4
				C320.1,643.5,318.4,641.7,318.4,639.6z M324.5,639.6L324.5,639.6c0-1.1-0.8-2.1-2-2.1c-1.2,0-2,1-2,2.1v0c0,1.1,0.8,2.1,2,2.1
				C323.7,641.6,324.5,640.7,324.5,639.6z"/>
			<path fill="#445464" d="M328.2,633h2.2v5.5l2.5-2.8h2.6l-2.9,3l3,4.6h-2.5l-2-3.1l-0.8,0.8v2.3h-2.2V633z"/>
			<path fill="#445464" d="M338.7,642.3v1h-2.2V633h2.2v3.8c0.5-0.7,1.2-1.2,2.4-1.2c1.8,0,3.5,1.4,3.5,3.9v0c0,2.5-1.7,3.9-3.5,3.9
				C339.9,643.5,339.2,642.9,338.7,642.3z M342.4,639.5L342.4,639.5c0-1.3-0.9-2.1-1.9-2.1s-1.8,0.8-1.8,2.1v0
				c0,1.3,0.8,2.1,1.8,2.1S342.4,640.8,342.4,639.5z"/>
			<path fill="#445464" d="M345.8,639.6L345.8,639.6c0-2.2,1.8-4,4.1-4c2.4,0,4.1,1.7,4.1,3.9v0c0,2.2-1.8,4-4.1,4
				C347.5,643.5,345.8,641.7,345.8,639.6z M351.9,639.6L351.9,639.6c0-1.1-0.8-2.1-2-2.1c-1.2,0-2,1-2,2.1v0c0,1.1,0.8,2.1,2,2.1
				C351.1,641.6,351.9,640.7,351.9,639.6z"/>
			<path fill="#445464" d="M355.2,639.6L355.2,639.6c0-2.2,1.8-4,4.1-4c2.4,0,4.1,1.7,4.1,3.9v0c0,2.2-1.8,4-4.1,4
				C356.9,643.5,355.2,641.7,355.2,639.6z M361.3,639.6L361.3,639.6c0-1.1-0.8-2.1-2-2.1c-1.2,0-2,1-2,2.1v0c0,1.1,0.8,2.1,2,2.1
				C360.6,641.6,361.3,640.7,361.3,639.6z"/>
			<path fill="#445464" d="M365,633h2.2v5.5l2.5-2.8h2.6l-2.9,3l3,4.6h-2.5l-2-3.1l-0.8,0.8v2.3H365V633z"/>
			<path fill="#445464" d="M372.8,642.3l0.9-1.4c0.8,0.6,1.7,0.9,2.4,0.9c0.6,0,0.9-0.2,0.9-0.6v0c0-0.5-0.7-0.6-1.6-0.9
				c-1.1-0.3-2.3-0.8-2.3-2.3v0c0-1.5,1.2-2.4,2.8-2.4c1,0,2,0.3,2.8,0.9L378,638c-0.8-0.4-1.5-0.7-2.1-0.7c-0.5,0-0.8,0.2-0.8,0.5
				v0c0,0.4,0.7,0.6,1.5,0.9c1.1,0.4,2.3,0.9,2.3,2.3v0c0,1.7-1.3,2.5-2.9,2.5C375,643.5,373.8,643.1,372.8,642.3z"/>
		</g>
	</g>
	<g>
		<g>
			<path fill="#445464" d="M355.4,574.8h-24.7c-0.9,0-1.6-0.7-1.6-1.6v-14c0-0.9,0.7-1.6,1.6-1.6h24.7c0.9,0,1.6,0.7,1.6,1.6v14
				C357,574,356.3,574.8,355.4,574.8L355.4,574.8z M332.3,571.5h21.5v-10.8h-21.5V571.5L332.3,571.5z"/>
		</g>
		<g>
			<g>
				<path fill="#445464" d="M368.9,619h-55.4c-1.8,0-3.2-1.4-3.2-3.2v-69.6c0-1.8,1.4-3.2,3.2-3.2h55.4c1.8,0,3.2,1.4,3.2,3.2v69.6
					C372.2,617.6,370.7,619,368.9,619L368.9,619z M316.8,612.5h48.9v-63.1h-48.9V612.5L316.8,612.5z"/>
			</g>
			<g>
				<path fill="#445464" d="M319.2,562.4h-11.3c-1.8,0-3.2-1.4-3.2-3.2s1.4-3.2,3.2-3.2h11.3c1.8,0,3.2,1.4,3.2,3.2
					S321,562.4,319.2,562.4L319.2,562.4z"/>
			</g>
			<g>
				<path fill="#445464" d="M319.2,576.8h-11.3c-1.8,0-3.2-1.4-3.2-3.2c0-1.8,1.4-3.2,3.2-3.2h11.3c1.8,0,3.2,1.4,3.2,3.2
					C322.5,575.4,321,576.8,319.2,576.8L319.2,576.8z"/>
			</g>
			<g>
				<path fill="#445464" d="M319.2,591.2h-11.3c-1.8,0-3.2-1.4-3.2-3.2s1.4-3.2,3.2-3.2h11.3c1.8,0,3.2,1.4,3.2,3.2
					S321,591.2,319.2,591.2L319.2,591.2z"/>
			</g>
			<g>
				<path fill="#445464" d="M319.2,605.6h-11.3c-1.8,0-3.2-1.4-3.2-3.2c0-1.8,1.4-3.2,3.2-3.2h11.3c1.8,0,3.2,1.4,3.2,3.2
					C322.5,604.2,321,605.6,319.2,605.6L319.2,605.6z"/>
			</g>
		</g>
	</g>
</g>
<polygon fill="#6CB2E2" fill-opacity="0.5" points="139.7,492.7 211.7,443.1 211.7,442.7 449.7,442.7 449.7,443.1 521.7,492.7 "/>
<g>
	<g>
		<g>
			<path fill="#FFFFFF" d="M205.9,412.9L205.9,412.9c0-3,2.2-5.5,5.5-5.5c2,0,3.2,0.7,4.1,1.6l-1.5,1.7c-0.8-0.7-1.6-1.2-2.7-1.2
				c-1.8,0-3,1.5-3,3.3v0c0,1.8,1.2,3.3,3,3.3c1.2,0,1.9-0.5,2.8-1.2l1.5,1.5c-1.1,1.2-2.3,1.9-4.3,1.9
				C208.2,418.3,205.9,415.9,205.9,412.9z"/>
			<path fill="#FFFFFF" d="M217.2,407.2h2.3v4c0.5-0.7,1.2-1.3,2.4-1.3c1.7,0,2.7,1.1,2.7,3v5.2h-2.3v-4.5c0-1.1-0.5-1.6-1.4-1.6
				s-1.4,0.6-1.4,1.6v4.5h-2.3V407.2z"/>
			<path fill="#FFFFFF" d="M226.2,414.2L226.2,414.2c0-2.3,1.6-4.2,4-4.2c2.7,0,3.9,2.1,3.9,4.4c0,0.2,0,0.4,0,0.6h-5.6
				c0.2,1,0.9,1.6,2,1.6c0.8,0,1.3-0.2,2-0.8l1.3,1.2c-0.8,0.9-1.8,1.5-3.3,1.5C227.9,418.3,226.2,416.6,226.2,414.2z M231.8,413.5
				c-0.1-1-0.7-1.7-1.7-1.7c-0.9,0-1.6,0.7-1.7,1.7H231.8z"/>
			<path fill="#FFFFFF" d="M236.1,412h-0.9v-1.9h0.9v-0.5c0-0.9,0.2-1.5,0.6-2c0.4-0.4,1-0.6,1.8-0.6c0.7,0,1.2,0.1,1.6,0.2v1.9
				c-0.3-0.1-0.6-0.2-1-0.2c-0.5,0-0.8,0.3-0.8,0.9v0.3h1.8v1.9h-1.8v6.1h-2.3V412z"/>
			<path fill="#FFFFFF" d="M245.5,416.6l1.4-1.6c0.9,0.8,1.9,1.3,3.1,1.3c0.9,0,1.5-0.4,1.5-1v0c0-0.6-0.4-0.9-2.1-1.3
				c-2.1-0.5-3.5-1.1-3.5-3.2v0c0-1.9,1.5-3.2,3.7-3.2c1.5,0,2.8,0.5,3.9,1.3l-1.2,1.7c-0.9-0.6-1.8-1-2.7-1s-1.3,0.4-1.3,0.9v0
				c0,0.7,0.5,0.9,2.3,1.4c2.1,0.6,3.3,1.3,3.3,3.1v0c0,2.1-1.6,3.3-3.9,3.3C248.4,418.3,246.8,417.7,245.5,416.6z"/>
			<path fill="#FFFFFF" d="M255.2,414.2L255.2,414.2c0-2.3,1.6-4.2,4-4.2c2.7,0,3.9,2.1,3.9,4.4c0,0.2,0,0.4,0,0.6h-5.6
				c0.2,1,0.9,1.6,2,1.6c0.8,0,1.3-0.2,1.9-0.8l1.3,1.2c-0.8,0.9-1.8,1.5-3.3,1.5C257,418.3,255.2,416.6,255.2,414.2z M260.9,413.5
				c-0.1-1-0.7-1.7-1.7-1.7c-0.9,0-1.6,0.7-1.7,1.7H260.9z"/>
			<path fill="#FFFFFF" d="M264.8,410.1h2.3v1.6c0.5-1.1,1.2-1.8,2.6-1.8v2.4h-0.1c-1.5,0-2.4,0.9-2.4,2.8v3h-2.3V410.1z"/>
			<path fill="#FFFFFF" d="M270.3,410.1h2.4l1.8,5.4l1.8-5.4h2.4l-3.2,8.1h-2.1L270.3,410.1z"/>
			<path fill="#FFFFFF" d="M279.2,414.2L279.2,414.2c0-2.3,1.6-4.2,4-4.2c2.7,0,3.9,2.1,3.9,4.4c0,0.2,0,0.4,0,0.6h-5.6
				c0.2,1,0.9,1.6,2,1.6c0.8,0,1.3-0.2,2-0.8l1.3,1.2c-0.8,0.9-1.8,1.5-3.3,1.5C281,418.3,279.2,416.6,279.2,414.2z M284.9,413.5
				c-0.1-1-0.7-1.7-1.7-1.7c-0.9,0-1.6,0.7-1.7,1.7H284.9z"/>
			<path fill="#FFFFFF" d="M288.8,410.1h2.3v1.6c0.5-1.1,1.2-1.8,2.6-1.8v2.4h-0.1c-1.5,0-2.4,0.9-2.4,2.8v3h-2.3V410.1z"/>
		</g>
	</g>
</g>
<g>
	<g>
		<rect x="334.9" y="281.9" fill="#FFFFFF" width="133.4" height="133.4"/>
		<g>
			<path fill="#445464" d="M376.4,397.2h2.2v1.5c0.4-1.1,1.1-1.7,2.4-1.7v2.3h-0.1c-1.4,0-2.3,0.9-2.3,2.7v2.8h-2.2V397.2z"/>
			<path fill="#445464" d="M381.7,401L381.7,401c0-2.2,1.5-4,3.8-4c2.5,0,3.7,2,3.7,4.1c0,0.2,0,0.4,0,0.6h-5.3
				c0.2,1,0.9,1.5,1.9,1.5c0.7,0,1.2-0.2,1.8-0.8l1.2,1.1c-0.7,0.9-1.7,1.4-3.1,1.4C383.4,404.9,381.7,403.3,381.7,401z
				 M387.1,400.4c-0.1-1-0.7-1.6-1.6-1.6c-0.9,0-1.5,0.6-1.6,1.6H387.1z"/>
			<path fill="#445464" d="M390.8,397.2h2.2v1.1c0.5-0.7,1.2-1.2,2.4-1.2c1.8,0,3.5,1.4,3.5,3.9v0c0,2.5-1.7,3.9-3.5,3.9
				c-1.1,0-1.9-0.5-2.4-1.1v3.3h-2.2V397.2z M396.6,401L396.6,401c0-1.3-0.9-2.1-1.9-2.1c-1,0-1.8,0.8-1.8,2.1v0
				c0,1.3,0.8,2.1,1.8,2.1C395.8,403.1,396.6,402.3,396.6,401z"/>
			<path fill="#445464" d="M400,401L400,401c0-2.2,1.8-4,4.1-4c2.4,0,4.1,1.7,4.1,3.9v0c0,2.2-1.8,4-4.1,4
				C401.7,404.9,400,403.2,400,401z M406.1,401L406.1,401c0-1.1-0.8-2.1-2-2.1c-1.2,0-2,1-2,2.1v0c0,1.1,0.8,2.1,2,2.1
				C405.3,403.1,406.1,402.1,406.1,401z"/>
			<path fill="#445464" d="M409.8,397.2h2.2v1.5c0.4-1.1,1.1-1.7,2.4-1.7v2.3h-0.1c-1.4,0-2.3,0.9-2.3,2.7v2.8h-2.2V397.2z"/>
			<path fill="#445464" d="M416.1,402.6V399h-0.9v-1.8h0.9v-1.9h2.2v1.9h1.8v1.8h-1.8v3.2c0,0.5,0.2,0.7,0.7,0.7
				c0.4,0,0.8-0.1,1.1-0.3v1.7c-0.5,0.3-1,0.4-1.7,0.4C417,404.9,416.1,404.4,416.1,402.6z"/>
			<path fill="#445464" d="M421,403.8l0.9-1.4c0.8,0.6,1.7,0.9,2.4,0.9c0.6,0,0.9-0.2,0.9-0.6v0c0-0.5-0.7-0.6-1.6-0.9
				c-1.1-0.3-2.3-0.8-2.3-2.3v0c0-1.5,1.2-2.4,2.8-2.4c1,0,2,0.3,2.8,0.9l-0.8,1.5c-0.8-0.4-1.5-0.7-2.1-0.7c-0.5,0-0.8,0.2-0.8,0.5
				v0c0,0.4,0.7,0.6,1.5,0.9c1.1,0.4,2.3,0.9,2.3,2.3v0c0,1.7-1.3,2.5-2.9,2.5C423.2,404.9,422,404.6,421,403.8z"/>
		</g>
	</g>
</g>
<g>
	<g>
		<path fill="#FFFFFF" d="M250.1,353.1c-9.7,0-17.6-7.9-17.6-17.6c0-9.7,7.9-17.6,17.6-17.6c8,0,14.8,5.4,16.9,12.7h6.8
			c-2.3-11-12-19.3-23.7-19.3c-13.3,0-24.2,10.9-24.2,24.2c0,13.3,10.9,24.2,24.2,24.2c11.7,0,21.4-8.3,23.7-19.3H267
			C264.9,347.7,258.1,353.1,250.1,353.1"/>
		<path fill="#FFFFFF" d="M238.3,347.3c3,3,7.2,4.9,11.9,4.9v-7c-2.7,0-5.1-1.1-6.9-2.9L238.3,347.3z"/>
		<path fill="#FFFFFF" d="M233.3,335.5c0,2.4,0.5,4.7,1.4,6.8l6.4-2.8c-0.5-1.2-0.8-2.5-0.8-3.9c0-5.4,4.4-9.8,9.8-9.8v-7
			C240.9,318.7,233.3,326.2,233.3,335.5"/>
		<path fill="#FFFFFF" d="M256.2,319.8l-2.5,6.5c2.1,0.8,3.8,2.3,4.9,4.2h7.6C264.7,325.7,261,321.7,256.2,319.8"/>
		<path fill="#FFFFFF" d="M253.7,344.6l2.5,6.5c4.8-1.9,8.5-5.8,10-10.8h-7.6C257.5,342.3,255.7,343.8,253.7,344.6"/>
		<path fill="#FFFFFF" d="M219.1,344.9c-0.1-0.4-0.2-0.7-0.3-1.1c0,0,0,0,0-0.1c-0.1-0.3-0.2-0.7-0.3-1c0-0.1,0-0.1,0-0.2
			c-0.1-0.3-0.1-0.6-0.2-0.9c0-0.1,0-0.3-0.1-0.4c0-0.2-0.1-0.5-0.1-0.7c0-0.2-0.1-0.4-0.1-0.6c-0.2-1.4-0.3-2.9-0.3-4.3h-6.6
			c0,1.6,0.1,3.2,0.3,4.7h0c0,0,0,0.1,0,0.1c0.1,0.4,0.1,0.8,0.2,1.3c0,0.1,0,0.2,0.1,0.3c0.1,0.3,0.1,0.7,0.2,1
			c0,0.2,0.1,0.4,0.1,0.5c0.1,0.3,0.1,0.5,0.2,0.8c0.1,0.2,0.1,0.5,0.2,0.7c0.1,0.2,0.1,0.4,0.2,0.6c0.1,0.3,0.2,0.6,0.2,0.8
			c0,0.1,0.1,0.2,0.1,0.3l0,0c0.5,1.5,1,3,1.6,4.4l6.1-2.7C219.9,347.3,219.5,346.1,219.1,344.9z"/>
		<path fill="#FFFFFF" d="M250.1,367.9c-8.9,0-17.1-3.6-22.9-9.5l-4.7,4.7c7.1,7.1,16.8,11.4,27.6,11.4c19.9,0,36.4-14.9,38.8-34.2
			h-6.7C279.8,355.9,266.4,367.9,250.1,367.9"/>
		<path fill="#FFFFFF" d="M250.1,303c7.3,0,14,2.4,19.4,6.5l4-5.3c-6.5-4.9-14.6-7.8-23.4-7.8c-16.6,0-30.7,10.3-36.4,24.9l6.2,2.4
			C224.6,311.6,236.4,303,250.1,303"/>
		<path fill="#FFFFFF" d="M282.2,330.6h6.7c-0.7-5.7-2.7-11.1-5.6-15.8l-5.6,3.5C279.9,322,281.5,326.1,282.2,330.6"/>
		<path fill="#FFFFFF" d="M274.7,330.6h6.7c-1.8-11.3-9.5-20.6-19.8-24.6l-2.4,6.2C267.1,315.2,273,322.1,274.7,330.6"/>
		<path fill="#FFFFFF" d="M250.1,310.4L250.1,310.4l0-6.6h0c-13.4,0-24.9,8.4-29.5,20.2l6.2,2.4
			C230.5,317.1,239.5,310.4,250.1,310.4"/>
		<path fill="#FFFFFF" d="M225.1,335.5L225.1,335.5l-6.6,0v0c0,13.3,8.2,24.7,19.9,29.4l2.5-6.1C231.6,355,225.1,346,225.1,335.5"/>
		<path fill="#FFFFFF" d="M250.1,360.5v6.6c15.8,0,28.9-11.6,31.2-26.7h-6.7C272.4,351.8,262.3,360.5,250.1,360.5"/>
	</g>
	<rect x="196.7" y="283.2" fill="none" stroke="#FFFFFF" stroke-width="4" stroke-miterlimit="10" width="105.2" height="104.7"/>
</g>
<g>
	<rect x="789" y="279" fill="#455565" width="133.4" height="133.4"/>
	<g>
		<g>
			<g>
				<g>
					<path fill="#FFFFFF" d="M836.5,393.6h2.4v1.2c0.6-0.7,1.3-1.4,2.5-1.4c1.8,0,2.9,1.2,2.9,3.2v5.6h-2.4v-4.8
						c0-1.2-0.5-1.7-1.5-1.7c-0.9,0-1.5,0.6-1.5,1.7v4.8h-2.4V393.6z"/>
					<path fill="#FFFFFF" d="M846.1,398L846.1,398c0-2.5,2-4.5,4.7-4.5c2.7,0,4.6,2,4.6,4.4v0c0,2.5-2,4.5-4.7,4.5
						C848,402.4,846.1,400.4,846.1,398z M852.9,398L852.9,398c0-1.3-0.9-2.4-2.3-2.4c-1.4,0-2.2,1.1-2.2,2.3v0
						c0,1.3,0.9,2.4,2.3,2.4C852.1,400.3,852.9,399.2,852.9,398z"/>
					<path fill="#FFFFFF" d="M856.7,397.9L856.7,397.9c0-2.9,1.9-4.5,3.9-4.5c1.3,0,2.1,0.6,2.7,1.3v-4.2h2.4v11.7h-2.4V401
						c-0.6,0.8-1.4,1.4-2.7,1.4C858.6,402.4,856.7,400.8,856.7,397.9z M863.3,397.9L863.3,397.9c0-1.5-0.9-2.4-2.1-2.4
						s-2.1,0.9-2.1,2.4v0c0,1.4,1,2.4,2.1,2.4S863.3,399.3,863.3,397.9z"/>
					<path fill="#FFFFFF" d="M867.5,398L867.5,398c0-2.5,1.7-4.5,4.2-4.5c2.9,0,4.2,2.2,4.2,4.7c0,0.2,0,0.4,0,0.6h-6
						c0.2,1.1,1,1.7,2.1,1.7c0.8,0,1.4-0.3,2.1-0.9l1.4,1.2c-0.8,1-2,1.6-3.5,1.6C869.4,402.4,867.5,400.6,867.5,398z M873.5,397.2
						c-0.1-1.1-0.8-1.8-1.8-1.8c-1,0-1.7,0.7-1.9,1.8H873.5z"/>
				</g>
			</g>
		</g>
		<g>
			<g>
				<path fill="#FFFFFF" d="M889.5,378.2h-68c-1.7,0-3.1-1.4-3.1-3.1v-66.8c0-1.7,1.4-3.1,3.1-3.1h68c1.7,0,3.1,1.4,3.1,3.1v66.8
					C892.7,376.8,891.3,378.2,889.5,378.2L889.5,378.2z M824.7,372h61.7v-60.5h-61.7V372L824.7,372z"/>
			</g>
		</g>
	</g>
</g>
<g>
	<rect x="789" y="449" fill="#455565" width="133.4" height="133.4"/>
	<g>
		<g>
			<g>
				<g>
					<path fill="#FFFFFF" d="M836.5,563.6h2.4v1.2c0.6-0.7,1.3-1.4,2.5-1.4c1.8,0,2.9,1.2,2.9,3.2v5.6h-2.4v-4.8
						c0-1.2-0.5-1.7-1.5-1.7c-0.9,0-1.5,0.6-1.5,1.7v4.8h-2.4V563.6z"/>
					<path fill="#FFFFFF" d="M846.1,568L846.1,568c0-2.5,2-4.5,4.7-4.5c2.7,0,4.6,2,4.6,4.4v0c0,2.5-2,4.5-4.7,4.5
						C848,572.4,846.1,570.4,846.1,568z M852.9,568L852.9,568c0-1.3-0.9-2.4-2.3-2.4c-1.4,0-2.2,1.1-2.2,2.3v0
						c0,1.3,0.9,2.4,2.3,2.4C852.1,570.3,852.9,569.2,852.9,568z"/>
					<path fill="#FFFFFF" d="M856.7,567.9L856.7,567.9c0-2.9,1.9-4.5,3.9-4.5c1.3,0,2.1,0.6,2.7,1.3v-4.2h2.4v11.7h-2.4V571
						c-0.6,0.8-1.4,1.4-2.7,1.4C858.6,572.4,856.7,570.8,856.7,567.9z M863.3,567.9L863.3,567.9c0-1.5-0.9-2.4-2.1-2.4
						s-2.1,0.9-2.1,2.4v0c0,1.4,1,2.4,2.1,2.4S863.3,569.3,863.3,567.9z"/>
					<path fill="#FFFFFF" d="M867.5,568L867.5,568c0-2.5,1.7-4.5,4.2-4.5c2.9,0,4.2,2.2,4.2,4.7c0,0.2,0,0.4,0,0.6h-6
						c0.2,1.1,1,1.7,2.1,1.7c0.8,0,1.4-0.3,2.1-0.9l1.4,1.2c-0.8,1-2,1.6-3.5,1.6C869.4,572.4,867.5,570.6,867.5,568z M873.5,567.2
						c-0.1-1.1-0.8-1.8-1.8-1.8c-1,0-1.7,0.7-1.9,1.8H873.5z"/>
				</g>
			</g>
		</g>
		<g>
			<g>
				<path fill="#FFFFFF" d="M889.5,548.2h-68c-1.7,0-3.1-1.4-3.1-3.1v-66.8c0-1.7,1.4-3.1,3.1-3.1h68c1.7,0,3.1,1.4,3.1,3.1v66.8
					C892.7,546.8,891.3,548.2,889.5,548.2L889.5,548.2z M824.7,542h61.7v-60.5h-61.7V542L824.7,542z"/>
			</g>
		</g>
	</g>
</g>
<g>
	<rect x="789" y="109" fill="#455565" width="133.4" height="133.4"/>
	<g>
		<g>
			<g>
				<g>
					<path fill="#FFFFFF" d="M836.5,223.6h2.4v1.2c0.6-0.7,1.3-1.4,2.5-1.4c1.8,0,2.9,1.2,2.9,3.2v5.6h-2.4v-4.8
						c0-1.2-0.5-1.7-1.5-1.7c-0.9,0-1.5,0.6-1.5,1.7v4.8h-2.4V223.6z"/>
					<path fill="#FFFFFF" d="M846.1,228L846.1,228c0-2.5,2-4.5,4.7-4.5c2.7,0,4.6,2,4.6,4.4v0c0,2.5-2,4.5-4.7,4.5
						C848,232.4,846.1,230.4,846.1,228z M852.9,228L852.9,228c0-1.3-0.9-2.4-2.3-2.4c-1.4,0-2.2,1.1-2.2,2.3v0
						c0,1.3,0.9,2.4,2.3,2.4C852.1,230.3,852.9,229.2,852.9,228z"/>
					<path fill="#FFFFFF" d="M856.7,227.9L856.7,227.9c0-2.9,1.9-4.5,3.9-4.5c1.3,0,2.1,0.6,2.7,1.3v-4.2h2.4v11.7h-2.4V231
						c-0.6,0.8-1.4,1.4-2.7,1.4C858.6,232.4,856.7,230.8,856.7,227.9z M863.3,227.9L863.3,227.9c0-1.5-0.9-2.4-2.1-2.4
						s-2.1,0.9-2.1,2.4v0c0,1.4,1,2.4,2.1,2.4S863.3,229.3,863.3,227.9z"/>
					<path fill="#FFFFFF" d="M867.5,228L867.5,228c0-2.5,1.7-4.5,4.2-4.5c2.9,0,4.2,2.2,4.2,4.7c0,0.2,0,0.4,0,0.6h-6
						c0.2,1.1,1,1.7,2.1,1.7c0.8,0,1.4-0.3,2.1-0.9l1.4,1.2c-0.8,1-2,1.6-3.5,1.6C869.4,232.4,867.5,230.6,867.5,228z M873.5,227.2
						c-0.1-1.1-0.8-1.8-1.8-1.8c-1,0-1.7,0.7-1.9,1.8H873.5z"/>
				</g>
			</g>
		</g>
		<g>
			<g>
				<path fill="#FFFFFF" d="M889.5,208.2h-68c-1.7,0-3.1-1.4-3.1-3.1v-66.8c0-1.7,1.4-3.1,3.1-3.1h68c1.7,0,3.1,1.4,3.1,3.1v66.8
					C892.7,206.8,891.3,208.2,889.5,208.2L889.5,208.2z M824.7,202h61.7v-60.5h-61.7V202L824.7,202z"/>
			</g>
		</g>
	</g>
</g>
<g>
	<g>
		<polyline fill="none" stroke="#80888D" stroke-width="4" stroke-miterlimit="10" points="765,515 734,515 734,176 765,176 		"/>
		<g>
			<polygon fill="#80888D" points="762,507.2 775.8,515.2 762,523.2 			"/>
		</g>
		<g>
			<polygon fill="#80888D" points="762,184.2 775.8,176.2 762,168.2 			"/>
		</g>
	</g>
</g>
<polygon fill="#FCB716" points="694,194.2 23.4,194.2 23.4,25.2 694,25.2 694,92.8 "/>
<rect x="178.6" y="33.2" fill="#FFFFFF" width="506.3" height="153.8"/>
<g>
	<g>
		<g>
			<path fill="#FFFFFF" d="M43.6,173.6L43.6,173.6c0-3.2,2.4-5.8,5.8-5.8c2.1,0,3.4,0.7,4.4,1.7l-1.6,1.8c-0.9-0.8-1.7-1.3-2.9-1.3
				c-1.9,0-3.2,1.6-3.2,3.5v0c0,1.9,1.3,3.5,3.2,3.5c1.3,0,2.1-0.5,2.9-1.3l1.6,1.6c-1.2,1.2-2.4,2-4.6,2
				C46,179.3,43.6,176.8,43.6,173.6z"/>
			<path fill="#FFFFFF" d="M55.6,167.4h2.4v4.3c0.6-0.7,1.3-1.4,2.5-1.4c1.8,0,2.9,1.2,2.9,3.2v5.6h-2.4v-4.8c0-1.2-0.5-1.7-1.5-1.7
				s-1.5,0.6-1.5,1.7v4.8h-2.4V167.4z"/>
			<path fill="#FFFFFF" d="M65.2,174.9L65.2,174.9c0-2.5,1.7-4.5,4.2-4.5c2.9,0,4.2,2.2,4.2,4.7c0,0.2,0,0.4,0,0.6h-6
				c0.2,1.1,1,1.7,2.1,1.7c0.8,0,1.4-0.3,2.1-0.9l1.4,1.2c-0.8,1-2,1.6-3.5,1.6C67.1,179.3,65.2,177.5,65.2,174.9z M71.3,174.2
				c-0.1-1.1-0.8-1.8-1.8-1.8c-1,0-1.7,0.7-1.9,1.8H71.3z"/>
			<path fill="#FFFFFF" d="M75.8,172.6h-1v-2h1v-0.5c0-0.9,0.2-1.6,0.7-2.1s1.1-0.7,2-0.7c0.8,0,1.3,0.1,1.7,0.2v2
				c-0.4-0.1-0.7-0.2-1.1-0.2c-0.6,0-0.9,0.3-0.9,0.9v0.3h2v2h-1.9v6.5h-2.4V172.6z"/>
			<path fill="#FFFFFF" d="M90.4,167.8h2.3l4.8,11.3h-2.6l-1-2.5h-4.7l-1,2.5h-2.5L90.4,167.8z M93,174.4l-1.5-3.6l-1.5,3.6H93z"/>
			<path fill="#FFFFFF" d="M99,170.6h2.4v1.2c0.6-0.7,1.3-1.4,2.5-1.4c1.8,0,2.9,1.2,2.9,3.2v5.6h-2.4v-4.8c0-1.2-0.5-1.7-1.5-1.7
				c-0.9,0-1.5,0.6-1.5,1.7v4.8H99V170.6z"/>
			<path fill="#FFFFFF" d="M108.4,176.7L108.4,176.7c0-1.9,1.4-2.8,3.5-2.8c0.9,0,1.5,0.1,2.1,0.4v-0.1c0-1-0.6-1.6-1.8-1.6
				c-0.9,0-1.6,0.2-2.4,0.5l-0.6-1.9c0.9-0.4,1.9-0.7,3.3-0.7c1.3,0,2.3,0.4,2.9,1c0.6,0.6,0.9,1.6,0.9,2.7v5H114v-0.9
				c-0.6,0.7-1.4,1.1-2.6,1.1C109.8,179.3,108.4,178.4,108.4,176.7z M114,176.1v-0.4c-0.4-0.2-1-0.3-1.6-0.3c-1,0-1.7,0.4-1.7,1.2v0
				c0,0.7,0.5,1,1.3,1C113.2,177.6,114,177,114,176.1z"/>
			<path fill="#FFFFFF" d="M118.5,167.4h2.4v11.7h-2.4V167.4z"/>
			<path fill="#FFFFFF" d="M123.1,181.1l0.8-1.8c0.3,0.2,0.7,0.3,1,0.3c0.4,0,0.6-0.1,0.8-0.6l-3.4-8.6h2.6l2,5.8l1.9-5.8h2.5
				l-3.3,8.8c-0.7,1.7-1.4,2.4-2.8,2.4C124.4,181.7,123.8,181.5,123.1,181.1z"/>
			<path fill="#FFFFFF" d="M133.2,176.7v-4.1h-1v-2.1h1v-2.2h2.4v2.2h2v2.1h-2v3.7c0,0.6,0.2,0.8,0.8,0.8c0.4,0,0.8-0.1,1.2-0.3v2
				c-0.5,0.3-1.1,0.5-1.9,0.5C134.3,179.3,133.2,178.7,133.2,176.7z"/>
			<path fill="#FFFFFF" d="M139.5,167.4h2.6v2.2h-2.6V167.4z M139.6,170.6h2.4v8.6h-2.4V170.6z"/>
			<path fill="#FFFFFF" d="M143.9,174.9L143.9,174.9c0-2.5,1.9-4.5,4.5-4.5c1.6,0,2.6,0.5,3.4,1.4l-1.5,1.6c-0.5-0.6-1.1-0.9-2-0.9
				c-1.2,0-2.1,1.1-2.1,2.3v0c0,1.3,0.8,2.4,2.2,2.4c0.8,0,1.4-0.4,2-0.9l1.4,1.4c-0.8,0.9-1.8,1.6-3.5,1.6
				C145.8,179.3,143.9,177.3,143.9,174.9z"/>
			<path fill="#FFFFFF" d="M152.8,178l1-1.6c0.9,0.7,1.9,1,2.7,1c0.7,0,1-0.3,1-0.6v0c0-0.5-0.8-0.7-1.8-1c-1.2-0.4-2.6-0.9-2.6-2.6
				v0c0-1.7,1.4-2.7,3.1-2.7c1.1,0,2.3,0.4,3.2,1l-0.9,1.7c-0.8-0.5-1.7-0.8-2.3-0.8c-0.6,0-0.9,0.3-0.9,0.6v0c0,0.5,0.8,0.7,1.7,1
				c1.2,0.4,2.6,1,2.6,2.5v0c0,1.9-1.4,2.8-3.3,2.8C155.3,179.3,153.9,178.9,152.8,178z"/>
		</g>
	</g>
</g>
<g>
	<g>
		<path fill="#FFFFFF" d="M102.1,114.1c-9.7,0-17.6-7.9-17.6-17.6c0-9.7,7.9-17.6,17.6-17.6c8,0,14.8,5.4,16.9,12.7h6.8
			c-2.3-11-12-19.3-23.7-19.3c-13.3,0-24.2,10.9-24.2,24.2c0,13.3,10.9,24.2,24.2,24.2c11.7,0,21.4-8.3,23.7-19.3H119
			C116.9,108.7,110.1,114.1,102.1,114.1"/>
		<path fill="#FFFFFF" d="M90.3,108.3c3,3,7.2,4.9,11.9,4.9v-7c-2.7,0-5.1-1.1-6.9-2.9L90.3,108.3z"/>
		<path fill="#FFFFFF" d="M85.3,96.5c0,2.4,0.5,4.7,1.4,6.8l6.4-2.8c-0.5-1.2-0.8-2.5-0.8-3.9c0-5.4,4.4-9.8,9.8-9.8v-7
			C92.9,79.7,85.3,87.2,85.3,96.5"/>
		<path fill="#FFFFFF" d="M108.2,80.8l-2.5,6.5c2.1,0.8,3.8,2.3,4.9,4.2h7.6C116.7,86.7,113,82.7,108.2,80.8"/>
		<path fill="#FFFFFF" d="M105.7,105.6l2.5,6.5c4.8-1.9,8.5-5.8,10-10.8h-7.6C109.5,103.3,107.7,104.8,105.7,105.6"/>
		<path fill="#FFFFFF" d="M71.1,105.9c-0.1-0.4-0.2-0.7-0.3-1.1c0,0,0,0,0-0.1c-0.1-0.3-0.2-0.7-0.3-1c0-0.1,0-0.1,0-0.2
			c-0.1-0.3-0.1-0.6-0.2-0.9c0-0.1,0-0.3-0.1-0.4c0-0.2-0.1-0.5-0.1-0.7c0-0.2-0.1-0.4-0.1-0.6c-0.2-1.4-0.3-2.9-0.3-4.3h-6.6
			c0,1.6,0.1,3.2,0.3,4.7h0c0,0,0,0.1,0,0.1c0.1,0.4,0.1,0.8,0.2,1.3c0,0.1,0,0.2,0.1,0.3c0.1,0.3,0.1,0.7,0.2,1
			c0,0.2,0.1,0.4,0.1,0.5c0.1,0.3,0.1,0.5,0.2,0.8c0.1,0.2,0.1,0.5,0.2,0.7c0.1,0.2,0.1,0.4,0.2,0.6c0.1,0.3,0.2,0.6,0.2,0.8
			c0,0.1,0.1,0.2,0.1,0.3l0,0c0.5,1.5,1,3,1.6,4.4l6.1-2.7C71.9,108.3,71.5,107.1,71.1,105.9z"/>
		<path fill="#FFFFFF" d="M102.1,128.9c-8.9,0-17.1-3.6-22.9-9.5l-4.7,4.7c7.1,7.1,16.8,11.4,27.6,11.4c19.9,0,36.4-14.9,38.8-34.2
			h-6.7C131.8,116.9,118.4,128.9,102.1,128.9"/>
		<path fill="#FFFFFF" d="M102.1,64c7.3,0,14,2.4,19.4,6.5l4-5.3c-6.5-4.9-14.6-7.8-23.4-7.8c-16.6,0-30.7,10.3-36.4,24.9l6.2,2.4
			C76.6,72.6,88.4,64,102.1,64"/>
		<path fill="#FFFFFF" d="M134.2,91.6h6.7c-0.7-5.7-2.7-11.1-5.6-15.8l-5.6,3.5C131.9,83,133.5,87.1,134.2,91.6"/>
		<path fill="#FFFFFF" d="M126.7,91.6h6.7c-1.8-11.3-9.5-20.6-19.8-24.6l-2.4,6.2C119.1,76.2,125,83.1,126.7,91.6"/>
		<path fill="#FFFFFF" d="M102.1,71.4L102.1,71.4l0-6.6h0c-13.4,0-24.9,8.4-29.5,20.2l6.2,2.4C82.5,78.1,91.5,71.4,102.1,71.4"/>
		<path fill="#FFFFFF" d="M77.1,96.5L77.1,96.5l-6.6,0v0c0,13.3,8.2,24.7,19.9,29.4l2.5-6.1C83.6,116,77.1,107,77.1,96.5"/>
		<path fill="#FFFFFF" d="M102.1,121.5v6.6c15.8,0,28.9-11.6,31.2-26.7h-6.7C124.4,112.8,114.3,121.5,102.1,121.5"/>
	</g>
	<rect x="48.7" y="44.2" fill="none" stroke="#FFFFFF" stroke-width="4" stroke-miterlimit="10" width="105.2" height="104.7"/>
</g>
<g>
	<g>
		<rect x="394.4" y="517.3" fill="#FFFFFF" width="135.3" height="135.3"/>
		<g>
			<path fill="#445464" d="M432.9,638.1L432.9,638.1c0-2.2,1.7-4,4-4c1.5,0,2.4,0.5,3.1,1.3l-1.3,1.4c-0.5-0.5-1-0.8-1.8-0.8
				c-1.1,0-1.9,1-1.9,2.1v0c0,1.2,0.8,2.1,2,2.1c0.7,0,1.2-0.3,1.8-0.8l1.3,1.3c-0.7,0.8-1.6,1.4-3.2,1.4
				C434.6,642.1,432.9,640.3,432.9,638.1z"/>
			<path fill="#445464" d="M440.9,638.1L440.9,638.1c0-2.2,1.8-4,4.2-4c2.4,0,4.2,1.8,4.2,4v0c0,2.2-1.8,4-4.2,4
				C442.7,642.1,440.9,640.4,440.9,638.1z M447.1,638.1L447.1,638.1c0-1.2-0.8-2.2-2-2.2c-1.3,0-2,1-2,2.1v0c0,1.1,0.8,2.1,2,2.1
				C446.3,640.2,447.1,639.3,447.1,638.1z"/>
			<path fill="#445464" d="M450.8,634.2h2.2v1.1c0.5-0.6,1.2-1.2,2.3-1.2c1.7,0,2.6,1.1,2.6,2.9v5h-2.2v-4.3c0-1-0.5-1.6-1.3-1.6
				c-0.8,0-1.4,0.5-1.4,1.6v4.3h-2.2V634.2z"/>
			<path fill="#445464" d="M460.2,639.8v-3.7h-0.9v-1.9h0.9v-2h2.2v2h1.8v1.9h-1.8v3.3c0,0.5,0.2,0.7,0.7,0.7c0.4,0,0.8-0.1,1.1-0.3
				v1.8c-0.5,0.3-1,0.4-1.7,0.4C461.1,642.1,460.2,641.6,460.2,639.8z"/>
			<path fill="#445464" d="M465.8,634.2h2.2v1.6c0.4-1.1,1.2-1.8,2.5-1.7v2.3h-0.1c-1.5,0-2.3,0.9-2.3,2.7v2.8h-2.2V634.2z"/>
			<path fill="#445464" d="M471.2,638.1L471.2,638.1c0-2.2,1.8-4,4.2-4c2.4,0,4.2,1.8,4.2,4v0c0,2.2-1.8,4-4.2,4
				C473,642.1,471.2,640.4,471.2,638.1z M477.4,638.1L477.4,638.1c0-1.2-0.8-2.2-2-2.2c-1.3,0-2,1-2,2.1v0c0,1.1,0.8,2.1,2,2.1
				C476.6,640.2,477.4,639.3,477.4,638.1z"/>
			<path fill="#445464" d="M481.2,631.5h2.2V642h-2.2V631.5z"/>
			<path fill="#445464" d="M484.9,640.9l0.9-1.4c0.8,0.6,1.7,0.9,2.4,0.9c0.6,0,0.9-0.2,0.9-0.6v0c0-0.5-0.7-0.6-1.6-0.9
				c-1.1-0.3-2.3-0.8-2.3-2.3v0c0-1.6,1.3-2.4,2.8-2.4c1,0,2,0.3,2.9,0.9l-0.8,1.5c-0.8-0.4-1.5-0.7-2.1-0.7c-0.5,0-0.8,0.2-0.8,0.5
				v0c0,0.4,0.7,0.6,1.6,0.9c1.1,0.4,2.3,0.9,2.3,2.3v0c0,1.7-1.3,2.5-3,2.5C487.1,642.1,485.9,641.7,484.9,640.9z"/>
		</g>
	</g>
	<g>
		<g>
			<path fill="#445464" d="M482.6,616.8h-40.8c-1.3,0-2.4-0.7-3-1.8l-20.4-35.3c-0.6-1.1-0.6-2.4,0-3.5l20.4-35.3
				c0.6-1.1,1.8-1.8,3-1.8h40.8c1.3,0,2.4,0.7,3,1.8l20.4,35.3c0.6,1.1,0.6,2.4,0,3.5L485.6,615C485,616.1,483.8,616.8,482.6,616.8
				L482.6,616.8z M443.8,609.8h36.7l18.4-31.8l-18.4-31.8h-36.7L425.5,578L443.8,609.8L443.8,609.8z"/>
		</g>
		<g>
			<path fill="#445464" d="M462.2,599.1c-11.6,0-21.1-9.5-21.1-21.1s9.5-21.1,21.1-21.1c11.6,0,21.1,9.5,21.1,21.1
				S473.8,599.1,462.2,599.1L462.2,599.1z M462.2,563.9c-7.7,0-14.1,6.3-14.1,14.1s6.3,14.1,14.1,14.1c7.8,0,14.1-6.3,14.1-14.1
				S469.9,563.9,462.2,563.9L462.2,563.9z"/>
		</g>
	</g>
</g>
<g>
	<g>
		<rect x="185.1" y="39.7" fill="#FFFFFF" width="139.8" height="139.8"/>
		<g>
			<path fill="#445464" d="M213.4,160.5h2.3v1.1c0.5-0.7,1.2-1.3,2.3-1.3c1.7,0,2.7,1.1,2.7,3v5.2h-2.3V164c0-1.1-0.5-1.6-1.4-1.6
				c-0.9,0-1.4,0.6-1.4,1.6v4.4h-2.3V160.5z"/>
			<path fill="#445464" d="M222.3,164.5L222.3,164.5c0-2.3,1.8-4.2,4.3-4.2c2.5,0,4.3,1.8,4.3,4.1v0c0,2.3-1.8,4.2-4.3,4.2
				C224.1,168.7,222.3,166.8,222.3,164.5z M228.7,164.5L228.7,164.5c0-1.2-0.8-2.2-2.1-2.2c-1.3,0-2.1,1-2.1,2.2v0
				c0,1.2,0.8,2.2,2.1,2.2C227.9,166.7,228.7,165.7,228.7,164.5z"/>
			<path fill="#445464" d="M232.2,164.5L232.2,164.5c0-2.7,1.7-4.2,3.6-4.2c1.2,0,1.9,0.6,2.5,1.2v-3.9h2.3v10.9h-2.3v-1.1
				c-0.6,0.7-1.3,1.3-2.5,1.3C234,168.6,232.2,167.2,232.2,164.5z M238.3,164.5L238.3,164.5c0-1.4-0.9-2.2-1.9-2.2
				c-1.1,0-1.9,0.9-1.9,2.2v0c0,1.3,0.9,2.2,1.9,2.2C237.5,166.7,238.3,165.8,238.3,164.5z"/>
			<path fill="#445464" d="M242.2,164.5L242.2,164.5c0-2.3,1.6-4.2,3.9-4.2c2.7,0,3.9,2.1,3.9,4.3c0,0.2,0,0.4,0,0.6h-5.5
				c0.2,1,0.9,1.6,1.9,1.6c0.8,0,1.3-0.2,1.9-0.8l1.3,1.1c-0.7,0.9-1.8,1.5-3.3,1.5C244,168.7,242.2,167,242.2,164.5z M247.8,163.9
				c-0.1-1-0.7-1.7-1.7-1.7c-0.9,0-1.5,0.7-1.7,1.7H247.8z"/>
			<path fill="#445464" d="M251.1,167.4l1-1.5c0.9,0.6,1.8,1,2.5,1c0.7,0,1-0.2,1-0.6v0c0-0.5-0.8-0.7-1.7-0.9
				c-1.1-0.3-2.4-0.8-2.4-2.4v0c0-1.6,1.3-2.5,2.9-2.5c1,0,2.1,0.3,3,0.9l-0.9,1.6c-0.8-0.5-1.6-0.7-2.2-0.7c-0.6,0-0.8,0.2-0.8,0.6
				v0c0,0.4,0.8,0.7,1.6,1c1.1,0.4,2.4,0.9,2.4,2.4v0c0,1.8-1.3,2.6-3,2.6C253.4,168.6,252.2,168.3,251.1,167.4z"/>
			<path fill="#445464" d="M262.9,160.5h2.4l1.8,5.3l1.8-5.3h2.4l-3.1,8h-2.1L262.9,160.5z"/>
			<path fill="#445464" d="M272.6,157.6h2.4v2h-2.4V157.6z M272.7,160.5h2.3v8h-2.3V160.5z"/>
			<path fill="#445464" d="M276.7,164.5L276.7,164.5c0-2.3,1.6-4.2,3.9-4.2c2.7,0,3.9,2.1,3.9,4.3c0,0.2,0,0.4,0,0.6h-5.5
				c0.2,1,0.9,1.6,1.9,1.6c0.8,0,1.3-0.2,1.9-0.8l1.3,1.1c-0.7,0.9-1.8,1.5-3.3,1.5C278.5,168.7,276.7,167,276.7,164.5z
				 M282.3,163.9c-0.1-1-0.7-1.7-1.7-1.7c-0.9,0-1.5,0.7-1.7,1.7H282.3z"/>
			<path fill="#445464" d="M285.2,160.5h2.3l1.3,4.8l1.5-4.9h1.9l1.5,4.9l1.3-4.9h2.2l-2.5,8h-2l-1.5-4.9l-1.6,4.9h-2L285.2,160.5z"
				/>
		</g>
	</g>
</g>
<g>
	<g>
		<g>
			
				<rect x="10" y="251.6" fill="#FFFFFF" stroke="#FFFFFF" stroke-miterlimit="10" stroke-opacity="0.4" width="89.6" height="89.6"/>
			<g>
				<path fill="#445464" d="M25.2,329h1.4v0.7c0.3-0.4,0.8-0.8,1.5-0.8c1.1,0,1.7,0.7,1.7,1.9v3.3h-1.4v-2.8c0-0.7-0.3-1-0.9-1
					c-0.6,0-0.9,0.4-0.9,1v2.8h-1.4V329z"/>
				<path fill="#445464" d="M30.9,331.6L30.9,331.6c0-1.5,1.2-2.7,2.8-2.7c1.6,0,2.8,1.2,2.8,2.6v0c0,1.5-1.2,2.7-2.8,2.7
					C32,334.2,30.9,333.1,30.9,331.6z M35,331.6L35,331.6c0-0.8-0.5-1.4-1.3-1.4c-0.8,0-1.3,0.6-1.3,1.4v0c0,0.8,0.5,1.4,1.3,1.4
					C34.5,333,35,332.4,35,331.6z"/>
				<path fill="#445464" d="M37.7,332.7v-2.4h-0.6V329h0.6v-1.3h1.4v1.3h1.2v1.2h-1.2v2.2c0,0.3,0.1,0.5,0.5,0.5
					c0.3,0,0.5-0.1,0.7-0.2v1.2c-0.3,0.2-0.7,0.3-1.1,0.3C38.3,334.2,37.7,333.9,37.7,332.7z"/>
				<path fill="#445464" d="M41.4,327.2h1.5v1.3h-1.5V327.2z M41.5,329h1.4v5.1h-1.4V329z"/>
				<path fill="#445464" d="M44.5,330.3h-0.6v-1.2h0.6v-0.3c0-0.6,0.1-1,0.4-1.2s0.7-0.4,1.2-0.4c0.5,0,0.8,0.1,1,0.1v1.2
					c-0.2-0.1-0.4-0.1-0.7-0.1c-0.3,0-0.5,0.2-0.5,0.6v0.2h1.2v1.2H46v3.9h-1.4V330.3z"/>
				<path fill="#445464" d="M47.9,327.2h1.5v1.3h-1.5V327.2z M48,329h1.4v5.1H48V329z"/>
				<path fill="#445464" d="M50.5,331.6L50.5,331.6c0-1.5,1.1-2.7,2.7-2.7c1,0,1.6,0.3,2,0.9l-0.9,1c-0.3-0.3-0.6-0.6-1.2-0.6
					c-0.7,0-1.2,0.6-1.2,1.4v0c0,0.8,0.5,1.4,1.3,1.4c0.5,0,0.8-0.2,1.2-0.5l0.8,0.9c-0.5,0.5-1.1,0.9-2.1,0.9
					C51.7,334.2,50.5,333.1,50.5,331.6z"/>
				<path fill="#445464" d="M55.9,332.7L55.9,332.7c0-1.1,0.8-1.6,2.1-1.6c0.5,0,0.9,0.1,1.2,0.2v-0.1c0-0.6-0.4-0.9-1.1-0.9
					c-0.6,0-0.9,0.1-1.4,0.3l-0.4-1.1c0.6-0.2,1.1-0.4,2-0.4c0.8,0,1.4,0.2,1.7,0.6c0.4,0.4,0.6,0.9,0.6,1.6v3h-1.4v-0.6
					c-0.4,0.4-0.8,0.6-1.5,0.6C56.7,334.2,55.9,333.7,55.9,332.7z M59.2,332.3v-0.3c-0.2-0.1-0.6-0.2-0.9-0.2c-0.6,0-1,0.2-1,0.7v0
					c0,0.4,0.3,0.6,0.8,0.6C58.8,333.2,59.2,332.9,59.2,332.3z"/>
				<path fill="#445464" d="M62.1,332.7v-2.4h-0.6V329h0.6v-1.3h1.4v1.3h1.2v1.2h-1.2v2.2c0,0.3,0.1,0.5,0.5,0.5
					c0.3,0,0.5-0.1,0.7-0.2v1.2c-0.3,0.2-0.7,0.3-1.1,0.3C62.7,334.2,62.1,333.9,62.1,332.7z"/>
				<path fill="#445464" d="M65.8,327.2h1.5v1.3h-1.5V327.2z M65.8,329h1.4v5.1h-1.4V329z"/>
				<path fill="#445464" d="M68.4,331.6L68.4,331.6c0-1.5,1.2-2.7,2.8-2.7c1.6,0,2.8,1.2,2.8,2.6v0c0,1.5-1.2,2.7-2.8,2.7
					C69.6,334.2,68.4,333.1,68.4,331.6z M72.5,331.6L72.5,331.6c0-0.8-0.5-1.4-1.3-1.4c-0.8,0-1.3,0.6-1.3,1.4v0
					c0,0.8,0.5,1.4,1.3,1.4C72,333,72.5,332.4,72.5,331.6z"/>
				<path fill="#445464" d="M75,329h1.4v0.7c0.3-0.4,0.8-0.8,1.5-0.8c1.1,0,1.7,0.7,1.7,1.9v3.3h-1.4v-2.8c0-0.7-0.3-1-0.9-1
					c-0.6,0-0.9,0.4-0.9,1v2.8H75V329z"/>
				<path fill="#445464" d="M80.5,333.5l0.6-1c0.6,0.4,1.1,0.6,1.6,0.6c0.4,0,0.6-0.2,0.6-0.4v0c0-0.3-0.5-0.4-1.1-0.6
					c-0.7-0.2-1.5-0.5-1.5-1.5v0c0-1,0.8-1.6,1.9-1.6c0.6,0,1.4,0.2,1.9,0.6l-0.6,1c-0.5-0.3-1-0.5-1.4-0.5c-0.4,0-0.5,0.2-0.5,0.4
					v0c0,0.3,0.5,0.4,1,0.6c0.7,0.2,1.5,0.6,1.5,1.5v0c0,1.1-0.8,1.6-2,1.6C82,334.2,81.2,334,80.5,333.5z"/>
			</g>
		</g>
	</g>
	<g>
		<g>
			<path fill="#445464" d="M72.9,311.9h-38c-2.7,0-4.9-2.2-4.9-4.9v-24.9c0-2.7,2.2-4.9,4.9-4.9h38c2.7,0,4.9,2.2,4.9,4.9V307
				C77.8,309.7,75.6,311.9,72.9,311.9L72.9,311.9z M34.9,281.4c-0.4,0-0.8,0.3-0.8,0.7V307c0,0.4,0.3,0.7,0.8,0.7h38
				c0.4,0,0.7-0.3,0.7-0.7v-24.9c0-0.4-0.3-0.7-0.7-0.7H34.9L34.9,281.4z"/>
		</g>
		<g>
			<path fill="#445464" d="M72.9,310.9h-38c-1.6,0-3.1-1-3.6-2.5c-0.2-0.4,0-0.9,0.3-1.2L46.4,294c0.4-0.4,1.1-0.3,1.5,0.1
				c0.4,0.4,0.3,1.1-0.1,1.5l-14.2,12.7c0.3,0.4,0.8,0.6,1.3,0.6h38c0.5,0,1-0.2,1.3-0.6l-14.4-12.8c-0.4-0.4-0.5-1-0.1-1.5
				c0.4-0.4,1-0.5,1.5-0.1l15,13.4c0.3,0.3,0.4,0.7,0.3,1.2C75.9,309.9,74.5,310.9,72.9,310.9L72.9,310.9z"/>
		</g>
		<g>
			<path fill="#445464" d="M53.9,301.5c-0.2,0-0.5-0.1-0.7-0.3l-21.6-19.3c-0.3-0.3-0.4-0.7-0.3-1.2c0.6-1.5,2-2.5,3.6-2.5h38
				c1.6,0,3.1,1,3.6,2.5c0.2,0.4,0,0.9-0.3,1.2l-21.6,19.3C54.4,301.4,54.1,301.5,53.9,301.5L53.9,301.5z M33.6,280.9L53.9,299
				l20.3-18.1c-0.3-0.4-0.8-0.6-1.3-0.6h-38C34.4,280.3,33.9,280.5,33.6,280.9L33.6,280.9z"/>
		</g>
	</g>
</g>
<g>
	<g>
		<path fill="#445464" d="M435.1,378.5h-67.5c-1.7,0-3.1-1.4-3.1-3.1v-67.5c0-1.7,1.4-3.1,3.1-3.1c1.7,0,3.1,1.4,3.1,3.1v64.4h64.4
			c1.7,0,3.1,1.4,3.1,3.1C438.2,377.1,436.8,378.5,435.1,378.5L435.1,378.5z"/>
	</g>
	<g>
		<path fill="#445464" d="M390.1,367.3h-11.4c-1.6,0-2.8-1.3-2.8-2.9v-16c0-1.6,1.3-2.9,2.8-2.9h11.4c1.6,0,2.8,1.3,2.8,2.9v16
			C393,366,391.7,367.3,390.1,367.3L390.1,367.3z M381.6,361.6h5.7v-10.3h-5.7V361.6L381.6,361.6z"/>
	</g>
	<g>
		<path fill="#445464" d="M434.2,367.3h-11.4c-1.6,0-2.8-1.3-2.8-2.9v-56.5c0-1.6,1.3-2.9,2.8-2.9h11.4c1.6,0,2.9,1.3,2.9,2.9v56.5
			C437,366,435.7,367.3,434.2,367.3L434.2,367.3z M425.6,361.6h5.7v-50.8h-5.7V361.6L425.6,361.6z"/>
	</g>
	<g>
		<path fill="#445464" d="M412.2,367.3h-11.4c-1.6,0-2.9-1.3-2.9-2.9v-35.8c0-1.6,1.3-2.9,2.9-2.9h11.4c1.6,0,2.9,1.3,2.9,2.9v35.8
			C415,366,413.7,367.3,412.2,367.3L412.2,367.3z M403.6,361.6h5.7v-30.1h-5.7V361.6L403.6,361.6z"/>
	</g>
</g>
<g>
	<g>
		<line fill="none" stroke="#80888D" stroke-width="4" stroke-miterlimit="10" x1="635.3" y1="213.5" x2="635.3" y2="332.9"/>
		<g>
			<polygon fill="#80888D" points="627.3,215.8 635.3,202 643.3,215.8 			"/>
		</g>
	</g>
</g>
<g>
	<g>
		<line fill="none" stroke="#80888D" stroke-width="4" stroke-miterlimit="10" x1="505.5" y1="348.6" x2="764.8" y2="348.6"/>
		<g>
			<polygon fill="#80888D" points="507.9,356.6 494,348.6 507.9,340.6 			"/>
		</g>
		<g>
			<polygon fill="#80888D" points="762.5,356.6 776.3,348.6 762.5,340.6 			"/>
		</g>
	</g>
</g>
<g>
	<rect x="565.5" y="334.5" fill="#FFFFFF" width="138.4" height="28.5"/>
	<g>
		<g>
			<g>
				<path fill="#455565" d="M581.7,342.9h2.3l4.8,11.3h-2.6l-1-2.5h-4.7l-1,2.5h-2.5L581.7,342.9z M584.3,349.5l-1.5-3.6l-1.5,3.6
					H584.3z"/>
				<path fill="#455565" d="M590.2,345.6h2.4v1.2c0.6-0.7,1.3-1.4,2.5-1.4c1.8,0,2.9,1.2,2.9,3.2v5.6h-2.4v-4.8
					c0-1.2-0.5-1.7-1.5-1.7c-0.9,0-1.5,0.6-1.5,1.7v4.8h-2.4V345.6z"/>
				<path fill="#455565" d="M599.7,351.7L599.7,351.7c0-1.9,1.4-2.8,3.5-2.8c0.9,0,1.5,0.1,2.1,0.4v-0.1c0-1-0.6-1.6-1.8-1.6
					c-0.9,0-1.6,0.2-2.4,0.5l-0.6-1.9c0.9-0.4,1.9-0.7,3.3-0.7c1.3,0,2.3,0.4,2.9,1c0.6,0.6,0.9,1.6,0.9,2.7v5h-2.4v-0.9
					c-0.6,0.7-1.4,1.1-2.6,1.1C601,354.3,599.7,353.4,599.7,351.7z M605.3,351.1v-0.4c-0.4-0.2-1-0.3-1.6-0.3c-1,0-1.7,0.4-1.7,1.2
					v0c0,0.7,0.5,1,1.3,1C604.5,352.6,605.3,352,605.3,351.1z"/>
				<path fill="#455565" d="M609.8,342.5h2.4v11.7h-2.4V342.5z"/>
				<path fill="#455565" d="M614.4,356.2l0.8-1.8c0.3,0.2,0.7,0.3,1,0.3c0.4,0,0.6-0.1,0.8-0.6l-3.4-8.6h2.6l2,5.8l1.9-5.8h2.5
					l-3.3,8.8c-0.7,1.7-1.4,2.4-2.8,2.4C615.7,356.8,615,356.5,614.4,356.2z"/>
				<path fill="#455565" d="M624.5,351.7v-4.1h-1v-2.1h1v-2.2h2.4v2.2h2v2.1h-2v3.7c0,0.6,0.2,0.8,0.8,0.8c0.4,0,0.8-0.1,1.2-0.3v2
					c-0.5,0.3-1.1,0.5-1.9,0.5C625.5,354.3,624.5,353.7,624.5,351.7z"/>
				<path fill="#455565" d="M630.8,342.5h2.6v2.2h-2.6V342.5z M630.8,345.6h2.4v8.6h-2.4V345.6z"/>
				<path fill="#455565" d="M635.1,349.9L635.1,349.9c0-2.5,1.9-4.5,4.5-4.5c1.6,0,2.6,0.5,3.4,1.4l-1.5,1.6c-0.5-0.6-1.1-0.9-2-0.9
					c-1.2,0-2.1,1.1-2.1,2.3v0c0,1.3,0.8,2.4,2.2,2.4c0.8,0,1.4-0.4,2-0.9l1.4,1.4c-0.8,0.9-1.8,1.6-3.5,1.6
					C637,354.3,635.1,352.3,635.1,349.9z"/>
				<path fill="#455565" d="M644,353l1-1.6c0.9,0.7,1.9,1,2.7,1c0.7,0,1-0.3,1-0.6v0c0-0.5-0.8-0.7-1.8-1c-1.2-0.4-2.6-0.9-2.6-2.6
					v0c0-1.7,1.4-2.7,3.1-2.7c1.1,0,2.3,0.4,3.2,1l-0.9,1.7c-0.8-0.5-1.7-0.8-2.3-0.8c-0.6,0-0.9,0.3-0.9,0.6v0c0,0.5,0.8,0.7,1.7,1
					c1.2,0.4,2.6,1,2.6,2.5v0c0,1.9-1.4,2.8-3.3,2.8C646.5,354.3,645.2,353.9,644,353z"/>
				<path fill="#455565" d="M657.8,342.9h4.4c3.5,0,6,2.4,6,5.6v0c0,3.2-2.4,5.6-6,5.6h-4.4V342.9z M662.2,351.9
					c2,0,3.4-1.4,3.4-3.3v0c0-2-1.4-3.4-3.4-3.4h-1.9v6.8H662.2z"/>
				<path fill="#455565" d="M669.5,351.7L669.5,351.7c0-1.9,1.4-2.8,3.5-2.8c0.9,0,1.5,0.1,2.1,0.4v-0.1c0-1-0.6-1.6-1.8-1.6
					c-0.9,0-1.6,0.2-2.4,0.5l-0.6-1.9c0.9-0.4,1.9-0.7,3.3-0.7c1.3,0,2.3,0.4,2.9,1c0.6,0.6,0.9,1.6,0.9,2.7v5h-2.4v-0.9
					c-0.6,0.7-1.4,1.1-2.6,1.1C670.9,354.3,669.5,353.4,669.5,351.7z M675.1,351.1v-0.4c-0.4-0.2-1-0.3-1.6-0.3
					c-1,0-1.7,0.4-1.7,1.2v0c0,0.7,0.5,1,1.3,1C674.3,352.6,675.1,352,675.1,351.1z"/>
				<path fill="#455565" d="M679.8,351.7v-4.1h-1v-2.1h1v-2.2h2.4v2.2h2v2.1h-2v3.7c0,0.6,0.2,0.8,0.8,0.8c0.4,0,0.8-0.1,1.2-0.3v2
					c-0.5,0.3-1.1,0.5-1.9,0.5C680.8,354.3,679.8,353.7,679.8,351.7z"/>
				<path fill="#455565" d="M685.6,351.7L685.6,351.7c0-1.9,1.4-2.8,3.5-2.8c0.9,0,1.5,0.1,2.1,0.4v-0.1c0-1-0.6-1.6-1.8-1.6
					c-0.9,0-1.6,0.2-2.4,0.5l-0.6-1.9c0.9-0.4,1.9-0.7,3.3-0.7c1.3,0,2.3,0.4,2.9,1c0.6,0.6,0.9,1.6,0.9,2.7v5h-2.4v-0.9
					c-0.6,0.7-1.4,1.1-2.6,1.1C686.9,354.3,685.6,353.4,685.6,351.7z M691.1,351.1v-0.4c-0.4-0.2-1-0.3-1.6-0.3
					c-1,0-1.7,0.4-1.7,1.2v0c0,0.7,0.5,1,1.3,1C690.4,352.6,691.1,352,691.1,351.1z"/>
			</g>
		</g>
	</g>
</g>
<g>
	<g>
		<line fill="none" stroke="#80888D" stroke-width="4" stroke-miterlimit="10" x1="53.7" y1="252.3" x2="53.7" y2="200.6"/>
		<g>
			<polygon fill="#80888D" points="61.7,250 53.7,263.8 45.7,250 			"/>
		</g>
	</g>
</g>
<g>
	<g>
		<rect x="305.1" y="39.7" fill="#FFFFFF" width="139.8" height="139.8"/>
		<g>
			<path fill="#445464" d="M345.8,166.2v-3.8h-1v-1.9h1v-2h2.3v2h1.9v1.9H348v3.4c0,0.5,0.2,0.8,0.7,0.8c0.4,0,0.8-0.1,1.1-0.3v1.8
				c-0.5,0.3-1,0.5-1.8,0.5C346.7,168.6,345.8,168.1,345.8,166.2z"/>
			<path fill="#445464" d="M351.6,157.6h2.4v2h-2.4V157.6z M351.7,160.5h2.3v8h-2.3V160.5z"/>
			<path fill="#445464" d="M356,160.5h2.3v1.1c0.5-0.7,1.2-1.3,2.4-1.3c1,0,1.8,0.5,2.2,1.3c0.7-0.8,1.5-1.3,2.6-1.3
				c1.7,0,2.7,1,2.7,2.9v5.2H366V164c0-1.1-0.5-1.6-1.3-1.6c-0.8,0-1.4,0.6-1.4,1.6v4.4H361V164c0-1.1-0.5-1.6-1.3-1.6
				s-1.4,0.6-1.4,1.6v4.4H356V160.5z"/>
			<path fill="#445464" d="M369.8,164.5L369.8,164.5c0-2.3,1.6-4.2,3.9-4.2c2.7,0,3.9,2.1,3.9,4.3c0,0.2,0,0.4,0,0.6H372
				c0.2,1,0.9,1.6,1.9,1.6c0.8,0,1.3-0.2,1.9-0.8l1.3,1.1c-0.7,0.9-1.8,1.5-3.3,1.5C371.6,168.7,369.8,167,369.8,164.5z
				 M375.4,163.9c-0.1-1-0.7-1.7-1.7-1.7c-0.9,0-1.5,0.7-1.7,1.7H375.4z"/>
			<path fill="#445464" d="M379.4,157.6h2.3v10.9h-2.3V157.6z"/>
			<path fill="#445464" d="M383.8,157.6h2.4v2h-2.4V157.6z M383.9,160.5h2.3v8h-2.3V160.5z"/>
			<path fill="#445464" d="M388.3,160.5h2.3v1.1c0.5-0.7,1.2-1.3,2.3-1.3c1.7,0,2.7,1.1,2.7,3v5.2h-2.3V164c0-1.1-0.5-1.6-1.4-1.6
				c-0.9,0-1.4,0.6-1.4,1.6v4.4h-2.3V160.5z"/>
			<path fill="#445464" d="M397.2,164.5L397.2,164.5c0-2.3,1.6-4.2,3.9-4.2c2.7,0,3.9,2.1,3.9,4.3c0,0.2,0,0.4,0,0.6h-5.5
				c0.2,1,0.9,1.6,1.9,1.6c0.8,0,1.3-0.2,1.9-0.8l1.3,1.1c-0.7,0.9-1.8,1.5-3.3,1.5C398.9,168.7,397.2,167,397.2,164.5z
				 M402.8,163.9c-0.1-1-0.7-1.7-1.7-1.7c-0.9,0-1.5,0.7-1.7,1.7H402.8z"/>
		</g>
	</g>
</g>
<g>
	<g>
		<rect x="425.1" y="39.7" fill="#FFFFFF" width="139.8" height="139.8"/>
		<g>
			<path fill="#445464" d="M477.7,160.5h2.3v1.6c0.5-1.1,1.2-1.8,2.5-1.8v2.4h-0.1c-1.5,0-2.4,0.9-2.4,2.8v2.9h-2.3V160.5z"/>
			<path fill="#445464" d="M483.9,165.7v-5.2h2.3v4.4c0,1.1,0.5,1.6,1.4,1.6c0.9,0,1.4-0.6,1.4-1.6v-4.4h2.3v8h-2.3v-1.1
				c-0.5,0.7-1.2,1.3-2.3,1.3C484.9,168.6,483.9,167.5,483.9,165.7z"/>
			<path fill="#445464" d="M493.3,157.6h2.3v10.9h-2.3V157.6z"/>
			<path fill="#445464" d="M497.3,164.5L497.3,164.5c0-2.3,1.6-4.2,3.9-4.2c2.7,0,3.9,2.1,3.9,4.3c0,0.2,0,0.4,0,0.6h-5.5
				c0.2,1,0.9,1.6,1.9,1.6c0.8,0,1.3-0.2,1.9-0.8l1.3,1.1c-0.7,0.9-1.8,1.5-3.3,1.5C499.1,168.7,497.3,167,497.3,164.5z M503,163.9
				c-0.1-1-0.7-1.7-1.7-1.7c-0.9,0-1.5,0.7-1.7,1.7H503z"/>
			<path fill="#445464" d="M506.2,167.4l1-1.5c0.9,0.6,1.8,1,2.5,1c0.7,0,1-0.2,1-0.6v0c0-0.5-0.8-0.7-1.7-0.9
				c-1.1-0.3-2.4-0.8-2.4-2.4v0c0-1.6,1.3-2.5,2.9-2.5c1,0,2.1,0.3,3,0.9l-0.9,1.6c-0.8-0.5-1.6-0.7-2.2-0.7c-0.6,0-0.8,0.2-0.8,0.6
				v0c0,0.4,0.8,0.7,1.6,1c1.1,0.4,2.4,0.9,2.4,2.4v0c0,1.8-1.3,2.6-3,2.6C508.5,168.6,507.3,168.3,506.2,167.4z"/>
		</g>
	</g>
	<g>
		<g>
			<g>
				<path fill="#445464" d="M489.9,129.7c-0.9,0-1.7-0.3-2.3-1c-0.7-0.7-1-1.6-1-2.5l0.7-11.9c0.1-0.8,0.4-1.6,1-2.1l35.5-35.5
					c1.2-1.2,3.4-1.2,4.6,0L539.6,88c1.3,1.3,1.3,3.3,0,4.6l-35.5,35.5c-0.6,0.6-1.3,0.9-2.1,1l-11.9,0.7
					C490.1,129.7,490,129.7,489.9,129.7L489.9,129.7z M493.8,116l-0.4,7l7-0.4l32.3-32.3l-6.6-6.6L493.8,116L493.8,116z"/>
			</g>
			<g>
				<path fill="#445464" d="M531,97.1c-0.4,0-0.8-0.2-1.2-0.5l-10.1-10.1c-0.6-0.6-0.6-1.7,0-2.3c0.6-0.6,1.7-0.6,2.3,0l10.1,10.1
					c0.6,0.6,0.6,1.7,0,2.3C531.8,96.9,531.4,97.1,531,97.1L531,97.1z"/>
			</g>
			<path fill="#445464" d="M491.8,118.1c-0.2,0-0.5,0-0.7,0c-0.2,0-0.4,0.1-0.6,0.1l-0.5,8.2l7.9-0.5c0.1-0.3,0.1-0.6,0.2-0.9
				C498.4,121.1,495.7,118.1,491.8,118.1L491.8,118.1z"/>
		</g>
		<g>
			<g>
				<path fill="#445464" d="M508.9,142.3h-45.5c-4.1,0-7.4-3.3-7.4-7.4V73.7c0-1.8,1.5-3.3,3.3-3.3c1.8,0,3.3,1.5,3.3,3.3v61.1
					c0,0.5,0.4,0.9,0.9,0.9h45.5c0.5,0,0.9-0.4,0.9-0.9v-19.3c0-1.8,1.5-3.3,3.3-3.3c1.8,0,3.3,1.5,3.3,3.3v19.3
					C516.3,138.9,513,142.3,508.9,142.3L508.9,142.3z"/>
			</g>
			<g>
				<path fill="#445464" d="M513.1,95.2c-1.8,0-3.3-1.5-3.3-3.3v-8.7c0-0.5-0.4-0.9-0.9-0.9c-1.8,0-3.3-1.5-3.3-3.3s1.5-3.3,3.3-3.3
					c4.1,0,7.4,3.3,7.4,7.4v8.7C516.3,93.7,514.9,95.2,513.1,95.2L513.1,95.2z"/>
			</g>
			<g>
				<path fill="#445464" d="M508.3,82.3H466c-5.6,0-10.1-4.5-10.1-10.1c0-5.6,4.5-10.1,10.1-10.1h47.1c1.8,0,3.3,1.5,3.3,3.3
					s-1.5,3.3-3.3,3.3H466c-2,0-3.6,1.6-3.6,3.6c0,2,1.6,3.6,3.6,3.6h42.2c1.8,0,3.3,1.5,3.3,3.3S510.1,82.3,508.3,82.3L508.3,82.3z
					"/>
			</g>
		</g>
		<g>
			<path fill="#445464" d="M491,94.4h-20c-0.9,0-1.6-0.7-1.6-1.6c0-0.9,0.7-1.6,1.6-1.6h20c0.9,0,1.6,0.7,1.6,1.6
				C492.7,93.6,491.9,94.4,491,94.4L491,94.4z"/>
		</g>
		<g>
			<path fill="#445464" d="M491,103.3h-20c-0.9,0-1.6-0.7-1.6-1.6c0-0.9,0.7-1.6,1.6-1.6h20c0.9,0,1.6,0.7,1.6,1.6
				C492.7,102.6,491.9,103.3,491,103.3L491,103.3z"/>
		</g>
	</g>
</g>
<g>
	<g>
		<rect x="545.1" y="39.7" fill="#FFFFFF" width="139.8" height="139.8"/>
		<g>
			<path fill="#445464" d="M594.4,166.2L594.4,166.2c0-1.8,1.3-2.6,3.2-2.6c0.8,0,1.4,0.1,1.9,0.3v-0.1c0-0.9-0.6-1.5-1.7-1.5
				c-0.9,0-1.5,0.2-2.2,0.4l-0.6-1.7c0.9-0.4,1.7-0.6,3.1-0.6c1.2,0,2.1,0.3,2.7,0.9c0.6,0.6,0.9,1.5,0.9,2.5v4.6h-2.2v-0.9
				c-0.6,0.6-1.3,1-2.4,1C595.6,168.6,594.4,167.8,594.4,166.2z M599.6,165.7v-0.4c-0.4-0.2-0.9-0.3-1.4-0.3c-1,0-1.6,0.4-1.6,1.1v0
				c0,0.6,0.5,1,1.2,1C598.9,167.1,599.6,166.5,599.6,165.7z"/>
			<path fill="#445464" d="M603.8,157.6h2.3v10.9h-2.3V157.6z"/>
			<path fill="#445464" d="M607.8,164.5L607.8,164.5c0-2.3,1.6-4.2,3.9-4.2c2.7,0,3.9,2.1,3.9,4.3c0,0.2,0,0.4,0,0.6H610
				c0.2,1,0.9,1.6,1.9,1.6c0.8,0,1.3-0.2,1.9-0.8l1.3,1.1c-0.7,0.9-1.8,1.5-3.3,1.5C609.6,168.7,607.8,167,607.8,164.5z
				 M613.4,163.9c-0.1-1-0.7-1.7-1.7-1.7c-0.9,0-1.5,0.7-1.7,1.7H613.4z"/>
			<path fill="#445464" d="M617.3,160.5h2.3v1.6c0.5-1.1,1.2-1.8,2.5-1.8v2.4H622c-1.5,0-2.4,0.9-2.4,2.8v2.9h-2.3V160.5z"/>
			<path fill="#445464" d="M623.9,166.2v-3.8h-1v-1.9h1v-2h2.3v2h1.9v1.9h-1.9v3.4c0,0.5,0.2,0.8,0.7,0.8c0.4,0,0.8-0.1,1.1-0.3v1.8
				c-0.5,0.3-1,0.5-1.8,0.5C624.8,168.6,623.9,168.1,623.9,166.2z"/>
			<path fill="#445464" d="M629.1,167.4l1-1.5c0.9,0.6,1.8,1,2.5,1c0.7,0,1-0.2,1-0.6v0c0-0.5-0.8-0.7-1.7-0.9
				c-1.1-0.3-2.4-0.8-2.4-2.4v0c0-1.6,1.3-2.5,2.9-2.5c1,0,2.1,0.3,3,0.9l-0.9,1.6c-0.8-0.5-1.6-0.7-2.2-0.7c-0.6,0-0.8,0.2-0.8,0.6
				v0c0,0.4,0.8,0.7,1.6,1c1.1,0.4,2.4,0.9,2.4,2.4v0c0,1.8-1.3,2.6-3,2.6C631.4,168.6,630.1,168.3,629.1,167.4z"/>
		</g>
	</g>
</g>
<g>
	<path fill="#455565" d="M254,146c-23.5,0-42.6-19.1-42.6-42.6c0-23.5,19.1-42.6,42.6-42.6c23.5,0,42.6,19.1,42.6,42.6
		C296.7,126.9,277.5,146,254,146L254,146z M254,68c-19.5,0-35.4,15.9-35.4,35.4c0,19.5,15.9,35.4,35.4,35.4
		c19.5,0,35.4-15.9,35.4-35.4C289.4,83.9,273.6,68,254,68L254,68z"/>
	<g>
		<g>
			<g>
				<g>
					<path fill="#455565" d="M230.2,100.2l-2.4,0.6l-0.6-2.5l4-1.2h2.1v14.1h-3V100.2z"/>
					<path fill="#455565" d="M236.1,104.2L236.1,104.2c0-4.1,2.5-7.3,6.2-7.3c3.7,0,6.2,3.1,6.2,7.2v0c0,4.1-2.5,7.2-6.2,7.2
						S236.1,108.2,236.1,104.2z M245.4,104.2L245.4,104.2c0-2.6-1.2-4.5-3.1-4.5s-3,1.9-3,4.4v0c0,2.6,1.2,4.5,3.1,4.5
						S245.4,106.7,245.4,104.2z"/>
					<path fill="#455565" d="M250.7,104.2L250.7,104.2c0-4.1,2.5-7.3,6.2-7.3c3.7,0,6.2,3.1,6.2,7.2v0c0,4.1-2.5,7.2-6.2,7.2
						C253.2,111.4,250.7,108.2,250.7,104.2z M260,104.2L260,104.2c0-2.6-1.2-4.5-3.1-4.5c-1.8,0-3,1.9-3,4.4v0
						c0,2.6,1.2,4.5,3.1,4.5C258.8,108.6,260,106.7,260,104.2z"/>
					<path fill="#455565" d="M265.2,100.6L265.2,100.6c0-2,1.4-3.6,3.4-3.6c2,0,3.4,1.6,3.4,3.5v0c0,2-1.4,3.6-3.4,3.6
						C266.5,104.1,265.2,102.6,265.2,100.6z M276.8,97.1h2.4l-10.2,14h-2.4L276.8,97.1z M269.9,100.6L269.9,100.6
						c0-1-0.5-1.8-1.3-1.8c-0.8,0-1.3,0.8-1.3,1.7v0c0,0.9,0.5,1.8,1.3,1.8C269.4,102.3,269.9,101.5,269.9,100.6z M273.8,107.8
						L273.8,107.8c0-2,1.4-3.6,3.4-3.6c2,0,3.4,1.6,3.4,3.5v0c0,2-1.4,3.6-3.4,3.6C275.1,111.3,273.8,109.7,273.8,107.8z
						 M278.5,107.8L278.5,107.8c0-1-0.5-1.8-1.3-1.8c-0.8,0-1.3,0.8-1.3,1.7v0c0,0.9,0.5,1.8,1.3,1.8
						C278,109.5,278.5,108.7,278.5,107.8z"/>
				</g>
			</g>
		</g>
	</g>
</g>
<g>
	<g>
		<path fill="#445464" d="M406.6,141.3h-69.2c-1.8,0-3.2-1.4-3.2-3.2V68.9c0-1.8,1.4-3.2,3.2-3.2h69.2c1.8,0,3.2,1.4,3.2,3.2
			c0,1.8-1.4,3.2-3.2,3.2h-66v62.7h62.7v-18.2c0-1.8,1.4-3.2,3.2-3.2c1.8,0,3.2,1.4,3.2,3.2v21.4
			C409.8,139.8,408.4,141.3,406.6,141.3L406.6,141.3z"/>
	</g>
	<g>
		<path fill="#445464" d="M338.4,139.9c-0.5,0-1.1-0.1-1.6-0.4c-1.6-0.9-2.1-2.8-1.2-4.4l19.9-35.2c0.6-1,1.7-1.7,2.9-1.6
			c1.2,0,2.3,0.7,2.8,1.8l7.6,15.1L377,101c0.3-0.4,0.6-0.8,1-1.1l26.1-17c1.5-1,3.5-0.6,4.5,0.9c1,1.5,0.6,3.5-0.9,4.5l-25.4,16.6
			l-11,18.6c-0.6,1-1.8,1.7-2.9,1.6c-1.2,0-2.2-0.7-2.8-1.8l-7.5-15l-16.9,29.9C340.6,139.3,339.5,139.9,338.4,139.9L338.4,139.9z"
			/>
	</g>
	<g>
		<path fill="#445464" d="M406.5,108.9c-1.8,0-3.2-1.4-3.2-3.2V84.3h-21.3c-1.8,0-3.2-1.4-3.2-3.2c0-1.8,1.4-3.2,3.2-3.2h24.6
			c1.8,0,3.2,1.4,3.2,3.2v24.6C409.7,107.4,408.2,108.9,406.5,108.9L406.5,108.9z"/>
	</g>
</g>
<g>
	<g>
		<path fill="#445464" d="M612.6,137.6c-18.9,0-34.3-15.4-34.3-34.3c0-18.9,15.4-34.3,34.3-34.3c18.9,0,34.3,15.4,34.3,34.3
			C646.9,122.2,631.5,137.6,612.6,137.6L612.6,137.6z M612.6,75.4c-15.4,0-27.9,12.5-27.9,27.9s12.5,27.9,27.9,27.9
			c15.4,0,28-12.5,28-27.9S628,75.4,612.6,75.4L612.6,75.4z"/>
	</g>
	<g>
		<path fill="#445464" d="M612.6,106.5c-1.7,0-3.2-1.4-3.2-3.2v-21c0-1.7,1.4-3.2,3.2-3.2s3.2,1.4,3.2,3.2v21
			C615.7,105.1,614.3,106.5,612.6,106.5L612.6,106.5z"/>
	</g>
	<g>
		<g>
			<path fill="#445464" d="M576.5,86c-1.5,0-2.8-1.1-3.1-2.6c-0.9-5.1,0.8-10.4,4.4-14s8.9-5.3,14-4.4c1.7,0.3,2.9,1.9,2.6,3.7
				c-0.3,1.7-1.9,2.9-3.7,2.6c-3.1-0.6-6.2,0.4-8.5,2.7c-2.3,2.3-3.2,5.3-2.7,8.5c0.3,1.7-0.9,3.4-2.6,3.7
				C576.9,86,576.7,86,576.5,86L576.5,86z"/>
		</g>
		<g>
			<path fill="#445464" d="M648.6,86c-0.2,0-0.4,0-0.5,0c-1.7-0.3-2.9-1.9-2.6-3.7c0.5-3.1-0.4-6.2-2.7-8.5
				c-2.3-2.3-5.4-3.2-8.5-2.7c-1.7,0.3-3.4-0.9-3.7-2.6c-0.3-1.7,0.9-3.4,2.6-3.7c5.1-0.9,10.4,0.8,14.1,4.4c3.7,3.7,5.3,8.9,4.4,14
				C651.5,84.9,650.2,86,648.6,86L648.6,86z"/>
		</g>
	</g>
	<g>
		<path fill="#445464" d="M603.8,115.1c-0.8,0-1.6-0.3-2.2-0.9c-1.2-1.2-1.2-3.2,0-4.5l8.5-8.5c1.2-1.2,3.2-1.2,4.5,0
			c1.2,1.2,1.2,3.2,0,4.5l-8.5,8.5C605.4,114.8,604.6,115.1,603.8,115.1L603.8,115.1z"/>
	</g>
	<g>
		<g>
			<path fill="#445464" d="M586.2,140.6c-0.8,0-1.6-0.3-2.2-0.9c-1.2-1.2-1.2-3.2,0-4.5l8.5-8.5c1.2-1.2,3.2-1.2,4.5,0
				c1.2,1.2,1.2,3.2,0,4.5l-8.5,8.5C587.8,140.3,587,140.6,586.2,140.6L586.2,140.6z"/>
		</g>
		<g>
			<path fill="#445464" d="M639,140.6c-0.8,0-1.6-0.3-2.2-0.9l-8.5-8.5c-1.2-1.2-1.2-3.2,0-4.5c1.2-1.2,3.2-1.2,4.5,0l8.5,8.5
				c1.2,1.2,1.2,3.2,0,4.5C640.6,140.3,639.8,140.6,639,140.6L639,140.6z"/>
		</g>
	</g>
</g>
</svg>
