<?xml version="1.0" encoding="utf-8"?>
<!-- Generator: Adobe Illustrator 19.1.0, SVG Export Plug-In . SVG Version: 6.00 Build 0)  -->
<svg version="1.1" id="Layer_1" xmlns="http://www.w3.org/2000/svg" xmlns:xlink="http://www.w3.org/1999/xlink" x="0px" y="0px"
	 viewBox="0 0 921 751.5" enable-background="new 0 0 921 751.5" xml:space="preserve">
<polygon fill="#F08921" points="453.7,348.2 35.4,348.2 35.4,179.2 453.7,179.2 453.7,246.8 "/>
<rect x="180.6" y="187.2" fill="#FFFFFF" width="263.1" height="153.8"/>
<rect x="103.4" y="417.7" fill="#6CB2E2" width="427.5" height="134.3"/>
<rect x="218.8" y="423.7" fill="#FFFFFF" width="304.2" height="122.2"/>
<g>
	<g>
		<path fill="#FFFFFF" d="M197.1,499.8h-72.5c-1.8,0-3.3-1.5-3.3-3.3v-46.1c0-1.8,1.5-3.3,3.3-3.3h72.5c1.8,0,3.3,1.5,3.3,3.3v46.1
			C200.4,498.3,198.9,499.8,197.1,499.8L197.1,499.8z M128,493.2h65.9v-39.5H128V493.2L128,493.2z"/>
	</g>
	<g>
		<path fill="#FFFFFF" d="M190.5,491.5h-59.3c-0.9,0-1.6-0.7-1.6-1.6v-32.9c0-0.9,0.7-1.6,1.6-1.6h59.3c0.9,0,1.6,0.7,1.6,1.6v32.9
			C192.2,490.8,191.4,491.5,190.5,491.5L190.5,491.5z M132.9,488.2h56v-29.6h-56V488.2L132.9,488.2z"/>
	</g>
	<g>
		<path fill="#FFFFFF" d="M207.3,509.4h-91.7c-1.8,0-3.3-1.5-3.3-3.3c0-1.8,1.5-3.3,3.3-3.3h91.7c1.8,0,3.3,1.5,3.3,3.3
			C210.6,507.9,209.1,509.4,207.3,509.4L207.3,509.4z"/>
	</g>
</g>
<g>
	<g>
		<path fill="#FFFFFF" d="M118.1,532.4h2.2l1.2,4.6l1.4-4.7h1.9l1.5,4.7l1.3-4.7h2.2l-2.4,7.7h-2l-1.5-4.7l-1.5,4.7h-1.9
			L118.1,532.4z"/>
		<path fill="#FFFFFF" d="M130.4,536.3L130.4,536.3c0-2.2,1.8-4,4.2-4c2.4,0,4.1,1.8,4.1,4v0c0,2.2-1.8,4-4.2,4
			C132.1,540.2,130.4,538.5,130.4,536.3z M136.5,536.3L136.5,536.3c0-1.2-0.8-2.1-2-2.1c-1.2,0-2,1-2,2.1v0c0,1.1,0.8,2.1,2,2.1
			C135.8,538.3,136.5,537.4,136.5,536.3z"/>
		<path fill="#FFFFFF" d="M140.2,532.4h2.2v1.5c0.4-1.1,1.2-1.7,2.4-1.7v2.3h-0.1c-1.4,0-2.3,0.9-2.3,2.7v2.8h-2.2V532.4z"/>
		<path fill="#FFFFFF" d="M146.2,529.6h2.2v5.6l2.5-2.8h2.6l-2.9,3l3,4.6h-2.5l-2-3.1l-0.8,0.8v2.3h-2.2V529.6z"/>
		<path fill="#FFFFFF" d="M154.1,539l0.9-1.4c0.8,0.6,1.7,0.9,2.4,0.9c0.6,0,0.9-0.2,0.9-0.6v0c0-0.5-0.7-0.6-1.6-0.9
			c-1.1-0.3-2.3-0.8-2.3-2.3v0c0-1.6,1.3-2.4,2.8-2.4c1,0,2,0.3,2.9,0.9l-0.8,1.5c-0.8-0.4-1.5-0.7-2.1-0.7c-0.5,0-0.8,0.2-0.8,0.5
			v0c0,0.4,0.7,0.6,1.6,0.9c1.1,0.4,2.3,0.9,2.3,2.3v0c0,1.7-1.3,2.5-2.9,2.5C156.3,540.2,155.1,539.8,154.1,539z"/>
		<path fill="#FFFFFF" d="M162.1,537.9v-3.6h-0.9v-1.9h0.9v-2h2.2v2h1.8v1.9h-1.8v3.3c0,0.5,0.2,0.7,0.7,0.7c0.4,0,0.8-0.1,1.1-0.3
			v1.7c-0.5,0.3-1,0.4-1.7,0.4C163,540.2,162.1,539.6,162.1,537.9z"/>
		<path fill="#FFFFFF" d="M167.2,537.8L167.2,537.8c0-1.7,1.3-2.5,3.1-2.5c0.8,0,1.3,0.1,1.9,0.3v-0.1c0-0.9-0.6-1.4-1.6-1.4
			c-0.8,0-1.4,0.2-2.1,0.4l-0.5-1.7c0.8-0.4,1.7-0.6,3-0.6c1.2,0,2,0.3,2.6,0.9c0.6,0.6,0.8,1.4,0.8,2.4v4.4h-2.1v-0.8
			c-0.5,0.6-1.3,1-2.3,1C168.4,540.2,167.2,539.4,167.2,537.8z M172.2,537.3V537c-0.4-0.2-0.9-0.3-1.4-0.3c-0.9,0-1.5,0.4-1.5,1.1v0
			c0,0.6,0.5,0.9,1.2,0.9C171.5,538.7,172.2,538.1,172.2,537.3z"/>
		<path fill="#FFFFFF" d="M176.4,537.9v-3.6h-0.9v-1.9h0.9v-2h2.2v2h1.8v1.9h-1.8v3.3c0,0.5,0.2,0.7,0.7,0.7c0.4,0,0.8-0.1,1.1-0.3
			v1.7c-0.5,0.3-1,0.4-1.7,0.4C177.3,540.2,176.4,539.6,176.4,537.9z"/>
		<path fill="#FFFFFF" d="M182,529.6h2.3v1.9H182V529.6z M182.1,532.4h2.2v7.7h-2.2V532.4z"/>
		<path fill="#FFFFFF" d="M185.9,536.3L185.9,536.3c0-2.2,1.8-4,4.2-4c2.4,0,4.1,1.8,4.1,4v0c0,2.2-1.8,4-4.2,4
			C187.7,540.2,185.9,538.5,185.9,536.3z M192.1,536.3L192.1,536.3c0-1.2-0.8-2.1-2-2.1c-1.2,0-2,1-2,2.1v0c0,1.1,0.8,2.1,2,2.1
			C191.3,538.3,192.1,537.4,192.1,536.3z"/>
		<path fill="#FFFFFF" d="M195.8,532.4h2.2v1.1c0.5-0.6,1.1-1.2,2.2-1.2c1.6,0,2.6,1.1,2.6,2.8v5h-2.2v-4.3c0-1-0.5-1.6-1.3-1.6
			s-1.4,0.5-1.4,1.6v4.3h-2.2V532.4z"/>
	</g>
</g>
<g>
	<g>
		<rect x="226.5" y="431.8" fill="#FFFFFF" width="106" height="106"/>
		<g>
			<path fill="#445464" d="M248.6,526.4L248.6,526.4c0-1.7,1.3-3.2,3.2-3.2c1.1,0,1.8,0.4,2.4,1l-1,1.1c-0.4-0.4-0.8-0.7-1.4-0.7
				c-0.9,0-1.5,0.8-1.5,1.6v0c0,0.9,0.6,1.7,1.5,1.7c0.6,0,1-0.2,1.4-0.6l1,1c-0.6,0.6-1.3,1.1-2.5,1.1
				C249.9,529.6,248.6,528.2,248.6,526.4z"/>
			<path fill="#445464" d="M254.8,526.4L254.8,526.4c0-1.8,1.4-3.2,3.3-3.2c1.9,0,3.3,1.4,3.3,3.1v0c0,1.7-1.4,3.1-3.3,3.1
				C256.2,529.6,254.8,528.2,254.8,526.4z M259.7,526.4L259.7,526.4c0-0.9-0.6-1.7-1.6-1.7c-1,0-1.6,0.8-1.6,1.6v0
				c0,0.9,0.6,1.7,1.6,1.7C259.1,528.1,259.7,527.3,259.7,526.4z"/>
			<path fill="#445464" d="M262.3,526.4L262.3,526.4c0-1.8,1.4-3.2,3.3-3.2c1.9,0,3.3,1.4,3.3,3.1v0c0,1.7-1.4,3.1-3.3,3.1
				C263.7,529.6,262.3,528.2,262.3,526.4z M267.2,526.4L267.2,526.4c0-0.9-0.6-1.7-1.6-1.7c-1,0-1.6,0.8-1.6,1.6v0
				c0,0.9,0.6,1.7,1.6,1.7C266.6,528.1,267.2,527.3,267.2,526.4z"/>
			<path fill="#445464" d="M270.1,521.2h1.7v4.4l2-2.2h2.1l-2.3,2.4l2.4,3.7h-2l-1.6-2.5l-0.6,0.6v1.8h-1.7V521.2z"/>
			<path fill="#445464" d="M278.5,528.6v0.8h-1.7v-8.2h1.7v3.1c0.4-0.6,1-1,1.9-1c1.4,0,2.8,1.1,2.8,3.1v0c0,2-1.3,3.1-2.8,3.1
				C279.4,529.5,278.9,529.1,278.5,528.6z M281.4,526.4L281.4,526.4c0-1-0.7-1.7-1.5-1.7s-1.5,0.7-1.5,1.7v0c0,1,0.7,1.7,1.5,1.7
				S281.4,527.4,281.4,526.4z"/>
			<path fill="#445464" d="M284.1,526.4L284.1,526.4c0-1.8,1.4-3.2,3.3-3.2c1.9,0,3.3,1.4,3.3,3.1v0c0,1.7-1.4,3.1-3.3,3.1
				C285.5,529.6,284.1,528.2,284.1,526.4z M288.9,526.4L288.9,526.4c0-0.9-0.6-1.7-1.6-1.7c-1,0-1.6,0.8-1.6,1.6v0
				c0,0.9,0.6,1.7,1.6,1.7C288.3,528.1,288.9,527.3,288.9,526.4z"/>
			<path fill="#445464" d="M291.6,526.4L291.6,526.4c0-1.8,1.4-3.2,3.3-3.2c1.9,0,3.3,1.4,3.3,3.1v0c0,1.7-1.4,3.1-3.3,3.1
				C293,529.6,291.6,528.2,291.6,526.4z M296.4,526.4L296.4,526.4c0-0.9-0.6-1.7-1.6-1.7c-1,0-1.6,0.8-1.6,1.6v0
				c0,0.9,0.6,1.7,1.6,1.7C295.8,528.1,296.4,527.3,296.4,526.4z"/>
			<path fill="#445464" d="M299.3,521.2h1.7v4.4l2-2.2h2.1l-2.3,2.4l2.4,3.7h-2l-1.6-2.5l-0.6,0.6v1.8h-1.7V521.2z"/>
			<path fill="#445464" d="M305.5,528.6l0.7-1.1c0.7,0.5,1.3,0.7,1.9,0.7c0.5,0,0.7-0.2,0.7-0.5v0c0-0.4-0.6-0.5-1.3-0.7
				c-0.8-0.2-1.8-0.6-1.8-1.8v0c0-1.2,1-1.9,2.2-1.9c0.8,0,1.6,0.3,2.3,0.7l-0.7,1.2c-0.6-0.3-1.2-0.6-1.6-0.6
				c-0.4,0-0.6,0.2-0.6,0.4v0c0,0.3,0.6,0.5,1.2,0.7c0.8,0.3,1.8,0.7,1.8,1.8v0c0,1.3-1,2-2.3,2
				C307.3,529.5,306.3,529.3,305.5,528.6z"/>
		</g>
	</g>
	<g>
		<g>
			<path fill="#445464" d="M291.7,475h-19.7c-0.7,0-1.3-0.6-1.3-1.3v-11.1c0-0.7,0.6-1.3,1.3-1.3h19.7c0.7,0,1.3,0.6,1.3,1.3v11.1
				C293,474.4,292.4,475,291.7,475L291.7,475z M273.3,472.4h17.1v-8.5h-17.1V472.4L273.3,472.4z"/>
		</g>
		<g>
			<g>
				<path fill="#445464" d="M302.5,510.1h-44c-1.4,0-2.6-1.1-2.6-2.6v-55.3c0-1.4,1.1-2.6,2.6-2.6h44c1.4,0,2.6,1.1,2.6,2.6v55.3
					C305,509,303.9,510.1,302.5,510.1L302.5,510.1z M261.1,505h38.9v-50.2h-38.9V505L261.1,505z"/>
			</g>
			<g>
				<path fill="#445464" d="M263,465.2h-9c-1.4,0-2.6-1.1-2.6-2.6s1.1-2.6,2.6-2.6h9c1.4,0,2.6,1.1,2.6,2.6S264.4,465.2,263,465.2
					L263,465.2z"/>
			</g>
			<g>
				<path fill="#445464" d="M263,476.6h-9c-1.4,0-2.6-1.1-2.6-2.6c0-1.4,1.1-2.6,2.6-2.6h9c1.4,0,2.6,1.1,2.6,2.6
					C265.5,475.5,264.4,476.6,263,476.6L263,476.6z"/>
			</g>
			<g>
				<path fill="#445464" d="M263,488h-9c-1.4,0-2.6-1.1-2.6-2.6s1.1-2.6,2.6-2.6h9c1.4,0,2.6,1.1,2.6,2.6S264.4,488,263,488L263,488
					z"/>
			</g>
			<g>
				<path fill="#445464" d="M263,499.5h-9c-1.4,0-2.6-1.1-2.6-2.6c0-1.4,1.1-2.6,2.6-2.6h9c1.4,0,2.6,1.1,2.6,2.6
					C265.5,498.3,264.4,499.5,263,499.5L263,499.5z"/>
			</g>
		</g>
	</g>
</g>
<rect x="263.3" y="607.2" fill="#6CB2E2" width="217" height="122.2"/>
<g>
	<g>
		<rect x="271" y="615.3" fill="#FFFFFF" width="106" height="106"/>
		<g>
			<path fill="#445464" d="M303.2,705.1h1.7v3.5l3.2-3.5h2.1l-3.2,3.3l3.4,4.5h-2.1l-2.4-3.4l-0.9,0.9v2.4h-1.7V705.1z"/>
			<path fill="#445464" d="M311.3,704.7h1.8v1.5h-1.8V704.7z M311.3,706.9h1.7v6h-1.7V706.9z"/>
			<path fill="#445464" d="M314.9,711.3v-2.9h-0.7v-1.5h0.7v-1.5h1.7v1.5h1.4v1.5h-1.4v2.6c0,0.4,0.2,0.6,0.6,0.6
				c0.3,0,0.6-0.1,0.8-0.2v1.4c-0.4,0.2-0.8,0.3-1.4,0.3C315.6,713.1,314.9,712.7,314.9,711.3z"/>
			<path fill="#445464" d="M318.8,710L318.8,710c0-1.7,1.3-3.2,3.2-3.2c1.1,0,1.8,0.4,2.4,1l-1,1.1c-0.4-0.4-0.8-0.7-1.4-0.7
				c-0.9,0-1.5,0.8-1.5,1.6v0c0,0.9,0.6,1.7,1.5,1.7c0.6,0,1-0.2,1.4-0.6l1,1c-0.6,0.6-1.3,1.1-2.5,1.1
				C320.2,713.1,318.8,711.7,318.8,710z"/>
			<path fill="#445464" d="M325.6,704.7h1.7v3c0.4-0.5,0.9-1,1.8-1c1.3,0,2.1,0.9,2.1,2.2v3.9h-1.7v-3.4c0-0.8-0.4-1.2-1-1.2
				c-0.7,0-1.1,0.4-1.1,1.2v3.4h-1.7V704.7z"/>
			<path fill="#445464" d="M332.3,710L332.3,710c0-1.7,1.2-3.2,3-3.2c2,0,2.9,1.6,2.9,3.3c0,0.1,0,0.3,0,0.5H334
				c0.2,0.8,0.7,1.2,1.5,1.2c0.6,0,1-0.2,1.5-0.6l1,0.9c-0.6,0.7-1.4,1.1-2.5,1.1C333.6,713.1,332.3,711.8,332.3,710z M336.6,709.5
				c-0.1-0.8-0.6-1.3-1.3-1.3c-0.7,0-1.2,0.5-1.3,1.3H336.6z"/>
			<path fill="#445464" d="M339.5,706.9h1.7v0.9c0.4-0.5,0.9-1,1.8-1c1.3,0,2.1,0.9,2.1,2.2v3.9h-1.7v-3.4c0-0.8-0.4-1.2-1-1.2
				c-0.7,0-1.1,0.4-1.1,1.2v3.4h-1.7V706.9z"/>
		</g>
	</g>
	<g>
		<path fill="#445464" d="M348.4,630.9h-49.5c-4.1,0-7.5,3.4-7.5,7.5v47.8c0,4.1,3.4,7.5,7.5,7.5h49.5c4.1,0,7.5-3.4,7.5-7.5v-47.8
			C355.9,634.3,352.6,630.9,348.4,630.9z M319.8,670.9c0,5.7-4.6,10.4-10.2,10.4c-5.3,0-9.6-4.2-10.1-9.5h-0.1l0.1-19.7h0
			c0.1-5.7,4.6-10.2,10.2-10.2c5.5,0,10,4.6,10.1,10.3h0l-0.1,17.7c0,0,0,0,0,0C319.8,670.2,319.8,670.6,319.8,670.9z M346.3,672.8
			v15h-14.2v-0.1c-0.8,0-1.6-0.1-2.4-0.3c-0.9-0.2-1.7-0.6-2.4-1.1c-2.7-1.7-4.6-4.7-4.6-8.1c0-0.2,0-0.4,0-0.6h0v-15H337v0
			c5.2,0.1,9.3,4.3,9.3,9.5C346.3,672.4,346.3,672.6,346.3,672.8L346.3,672.8z M347.7,651L347.7,651c-0.2,5.3-4.4,9.6-9.6,9.6
			c-0.2,0-0.4,0-0.6,0v0l-15-0.1l0.1-14.3v-0.3h0c0.1-5.3,4.4-9.6,9.6-9.6c0.2,0,0.4,0,0.6,0v0l15,0.1L347.7,651z"/>
		<g>
			<path fill="#445464" d="M315.3,651.7c0,0.1,0,0.2,0,0.3c-0.2,2.7-2.7,4.9-5.7,4.9c-3,0-5.5-2.2-5.6-4.9c0-0.1,0-0.2,0-0.4
				c0-2.9,2.6-5.2,5.7-5.2C312.7,646.5,315.3,648.8,315.3,651.7z"/>
		</g>
	</g>
</g>
<rect x="366.3" y="615.3" fill="#FFFFFF" width="106" height="106"/>
<g>
	<path fill="#445464" d="M403.1,705.1h3.1c2.5,0,4.2,1.7,4.2,3.9v0c0,2.2-1.7,3.9-4.2,3.9h-3.1V705.1z M406.2,711.4
		c1.4,0,2.4-1,2.4-2.4v0c0-1.4-1-2.4-2.4-2.4h-1.3v4.8H406.2z"/>
	<path fill="#445464" d="M411.4,710L411.4,710c0-1.8,1.4-3.2,3.3-3.2c1.9,0,3.3,1.4,3.3,3.1v0c0,1.7-1.4,3.1-3.3,3.1
		C412.8,713.1,411.4,711.7,411.4,710z M416.3,710L416.3,710c0-0.9-0.6-1.7-1.6-1.7c-1,0-1.6,0.8-1.6,1.6v0c0,0.9,0.6,1.7,1.6,1.7
		C415.7,711.6,416.3,710.9,416.3,710z"/>
	<path fill="#445464" d="M418.9,710L418.9,710c0-1.7,1.3-3.2,3.2-3.2c1.1,0,1.8,0.4,2.4,1l-1,1.1c-0.4-0.4-0.8-0.7-1.4-0.7
		c-0.9,0-1.5,0.8-1.5,1.6v0c0,0.9,0.6,1.7,1.5,1.7c0.6,0,1-0.2,1.4-0.6l1,1c-0.6,0.6-1.3,1.1-2.5,1.1
		C420.2,713.1,418.9,711.7,418.9,710z"/>
	<path fill="#445464" d="M425.6,704.7h1.7v4.4l2-2.2h2.1l-2.3,2.4l2.4,3.7h-2l-1.6-2.5l-0.6,0.6v1.8h-1.7V704.7z"/>
	<path fill="#445464" d="M431.7,710L431.7,710c0-1.7,1.2-3.2,3-3.2c2,0,2.9,1.6,2.9,3.3c0,0.1,0,0.3,0,0.5h-4.2
		c0.2,0.8,0.7,1.2,1.5,1.2c0.6,0,1-0.2,1.5-0.6l1,0.9c-0.6,0.7-1.4,1.1-2.5,1.1C433.1,713.1,431.7,711.8,431.7,710z M436,709.5
		c-0.1-0.8-0.6-1.3-1.3-1.3c-0.7,0-1.2,0.5-1.3,1.3H436z"/>
	<path fill="#445464" d="M438.9,706.9h1.7v1.2c0.3-0.8,0.9-1.4,1.9-1.3v1.8h-0.1c-1.1,0-1.8,0.7-1.8,2.1v2.2h-1.7V706.9z"/>
</g>
<polygon fill="#6CB2E2" fill-opacity="0.5" points="523.2,559.9 466,599.3 466,599.7 276.9,599.7 276.9,599.3 219.7,559.9 "/>
<polygon fill="#6CB2E2" fill-opacity="0.5" points="261.1,407.7 305.1,358.2 305.1,357.7 450.6,357.7 450.6,358.2 494.6,407.7 "/>
<g>
	<g>
		<g>
			<path fill="#FFFFFF" d="M43.4,327.9L43.4,327.9c0-3,2.2-5.5,5.5-5.5c2,0,3.2,0.7,4.1,1.6l-1.5,1.7c-0.8-0.7-1.6-1.2-2.7-1.2
				c-1.8,0-3,1.5-3,3.3v0c0,1.8,1.2,3.3,3,3.3c1.2,0,1.9-0.5,2.8-1.2l1.5,1.5c-1.1,1.2-2.3,1.9-4.3,1.9
				C45.7,333.3,43.4,330.9,43.4,327.9z"/>
			<path fill="#FFFFFF" d="M54.7,322.2H57v4c0.5-0.7,1.2-1.3,2.4-1.3c1.7,0,2.7,1.1,2.7,3v5.2h-2.3v-4.5c0-1.1-0.5-1.6-1.4-1.6
				c-0.9,0-1.4,0.6-1.4,1.6v4.5h-2.3V322.2z"/>
			<path fill="#FFFFFF" d="M63.7,329.2L63.7,329.2c0-2.3,1.6-4.2,4-4.2c2.7,0,3.9,2.1,3.9,4.4c0,0.2,0,0.4,0,0.6h-5.6
				c0.2,1,0.9,1.6,2,1.6c0.8,0,1.3-0.2,2-0.8l1.3,1.2c-0.8,0.9-1.8,1.5-3.3,1.5C65.5,333.3,63.7,331.6,63.7,329.2z M69.4,328.5
				c-0.1-1-0.7-1.7-1.7-1.7c-0.9,0-1.6,0.7-1.7,1.7H69.4z"/>
			<path fill="#FFFFFF" d="M73.7,327.1h-0.9v-1.9h0.9v-0.5c0-0.9,0.2-1.5,0.6-2c0.4-0.4,1-0.6,1.8-0.6c0.7,0,1.2,0.1,1.6,0.2v1.9
				c-0.3-0.1-0.6-0.2-1-0.2c-0.5,0-0.8,0.3-0.8,0.9v0.3h1.8v1.9h-1.8v6.1h-2.3V327.1z"/>
			<path fill="#FFFFFF" d="M83.3,327.9L83.3,327.9c0-3,2.2-5.5,5.5-5.5c2,0,3.2,0.7,4.1,1.6l-1.5,1.7c-0.8-0.7-1.6-1.2-2.7-1.2
				c-1.8,0-3,1.5-3,3.3v0c0,1.8,1.2,3.3,3,3.3c1.2,0,1.9-0.5,2.8-1.2l1.5,1.5c-1.1,1.2-2.3,1.9-4.3,1.9
				C85.6,333.3,83.3,330.9,83.3,327.9z"/>
			<path fill="#FFFFFF" d="M94,329.2L94,329.2c0-2.3,1.9-4.2,4.4-4.2c2.5,0,4.3,1.8,4.3,4.2v0c0,2.3-1.9,4.2-4.4,4.2
				C95.9,333.3,94,331.5,94,329.2z M100.5,329.2L100.5,329.2c0-1.2-0.9-2.2-2.1-2.2c-1.3,0-2.1,1-2.1,2.2v0c0,1.2,0.9,2.2,2.1,2.2
				C99.7,331.4,100.5,330.4,100.5,329.2z"/>
			<path fill="#FFFFFF" d="M104.4,325.1h2.3v1.1c0.5-0.7,1.2-1.3,2.4-1.3c1,0,1.8,0.5,2.3,1.3c0.7-0.8,1.5-1.3,2.6-1.3
				c1.7,0,2.7,1,2.7,3v5.2h-2.3v-4.5c0-1.1-0.5-1.6-1.3-1.6c-0.9,0-1.4,0.6-1.4,1.6v4.5h-2.3v-4.5c0-1.1-0.5-1.6-1.3-1.6
				c-0.9,0-1.4,0.6-1.4,1.6v4.5h-2.3V325.1z"/>
			<path fill="#FFFFFF" d="M118.6,325.1h2.3v1.2c0.6-0.8,1.3-1.3,2.5-1.3c1.9,0,3.7,1.5,3.7,4.2v0c0,2.7-1.8,4.2-3.7,4.2
				c-1.2,0-2-0.6-2.5-1.2v3.4h-2.3V325.1z M124.8,329.1L124.8,329.1c0-1.4-0.9-2.2-2-2.2c-1.1,0-1.9,0.9-1.9,2.2v0
				c0,1.3,0.9,2.2,1.9,2.2C123.9,331.4,124.8,330.5,124.8,329.1z"/>
			<path fill="#FFFFFF" d="M128.9,322.2h2.3v10.9h-2.3V322.2z"/>
			<path fill="#FFFFFF" d="M133.3,322.2h2.4v2h-2.4V322.2z M133.4,325.1h2.3v8h-2.3V325.1z"/>
			<path fill="#FFFFFF" d="M137.3,330.8L137.3,330.8c0-1.8,1.3-2.6,3.2-2.6c0.8,0,1.4,0.1,2,0.3v-0.1c0-0.9-0.6-1.5-1.7-1.5
				c-0.9,0-1.5,0.2-2.2,0.4l-0.6-1.7c0.9-0.4,1.8-0.6,3.1-0.6c1.2,0,2.1,0.3,2.7,0.9c0.6,0.6,0.9,1.5,0.9,2.6v4.7h-2.2v-0.9
				c-0.6,0.6-1.3,1-2.4,1C138.6,333.3,137.3,332.4,137.3,330.8z M142.6,330.3v-0.4c-0.4-0.2-0.9-0.3-1.5-0.3c-1,0-1.6,0.4-1.6,1.1v0
				c0,0.6,0.5,1,1.2,1C141.8,331.7,142.6,331.1,142.6,330.3z"/>
			<path fill="#FFFFFF" d="M146.7,325.1h2.3v1.1c0.5-0.7,1.2-1.3,2.4-1.3c1.7,0,2.7,1.1,2.7,3v5.2h-2.3v-4.5c0-1.1-0.5-1.6-1.4-1.6
				c-0.9,0-1.4,0.6-1.4,1.6v4.5h-2.3V325.1z"/>
			<path fill="#FFFFFF" d="M155.6,329.2L155.6,329.2c0-2.3,1.8-4.2,4.2-4.2c1.5,0,2.5,0.5,3.2,1.3l-1.4,1.5c-0.5-0.5-1-0.9-1.8-0.9
				c-1.1,0-1.9,1-1.9,2.2v0c0,1.2,0.8,2.2,2,2.2c0.8,0,1.3-0.3,1.8-0.9l1.3,1.3c-0.8,0.9-1.7,1.5-3.3,1.5
				C157.4,333.3,155.6,331.5,155.6,329.2z"/>
			<path fill="#FFFFFF" d="M164,329.2L164,329.2c0-2.3,1.6-4.2,4-4.2c2.7,0,3.9,2.1,3.9,4.4c0,0.2,0,0.4,0,0.6h-5.6
				c0.2,1,0.9,1.6,2,1.6c0.8,0,1.3-0.2,2-0.8l1.3,1.2c-0.8,0.9-1.8,1.5-3.3,1.5C165.8,333.3,164,331.6,164,329.2z M169.7,328.5
				c-0.1-1-0.7-1.7-1.7-1.7c-0.9,0-1.6,0.7-1.7,1.7H169.7z"/>
		</g>
	</g>
</g>
<g>
	<g>
		<rect x="189.9" y="195.9" fill="#FFFFFF" width="133.4" height="133.4"/>
		<g>
			<path fill="#445464" d="M233.8,308.9h2.3l2.1,6.7l2.2-6.8h1.9l2.2,6.8l2.1-6.7h2.3l-3.4,10h-1.9l-2.2-6.5l-2.2,6.5h-1.9
				L233.8,308.9z"/>
			<path fill="#445464" d="M249,315L249,315c0-2.2,1.5-4,3.8-4c2.5,0,3.7,2,3.7,4.1c0,0.2,0,0.4,0,0.6h-5.3c0.2,1,0.9,1.5,1.9,1.5
				c0.7,0,1.2-0.2,1.8-0.8l1.2,1.1c-0.7,0.9-1.7,1.4-3.1,1.4C250.7,319,249,317.4,249,315z M254.4,314.4c-0.1-1-0.7-1.6-1.6-1.6
				c-0.9,0-1.5,0.6-1.6,1.6H254.4z"/>
			<path fill="#445464" d="M260.2,317.8v1h-2.2v-10.4h2.2v3.8c0.5-0.7,1.2-1.2,2.4-1.2c1.8,0,3.5,1.4,3.5,3.9v0
				c0,2.5-1.7,3.9-3.5,3.9C261.4,318.9,260.7,318.4,260.2,317.8z M263.9,315L263.9,315c0-1.3-0.9-2.1-1.9-2.1s-1.8,0.8-1.8,2.1v0
				c0,1.3,0.8,2.1,1.8,2.1S263.9,316.3,263.9,315z"/>
			<path fill="#445464" d="M267.6,316.1v-4.9h2.2v4.2c0,1,0.5,1.5,1.3,1.5s1.3-0.5,1.3-1.5v-4.2h2.2v7.6h-2.2v-1.1
				c-0.5,0.6-1.1,1.2-2.2,1.2C268.5,318.9,267.6,317.8,267.6,316.1z"/>
			<path fill="#445464" d="M276.5,308.4h2.3v1.9h-2.3V308.4z M276.6,311.2h2.2v7.6h-2.2V311.2z"/>
		</g>
	</g>
	<g>
		<g>
			<g>
				<path fill="#445464" d="M289.6,293.1h-67.5c-1.7,0-3.1-1.4-3.1-3.1v-67.5c0-1.7,1.4-3.1,3.1-3.1h67.5c1.7,0,3.1,1.4,3.1,3.1V290
					C292.7,291.7,291.3,293.1,289.6,293.1L289.6,293.1z M225.3,286.9h61.3v-61.3h-61.3V286.9L225.3,286.9z"/>
			</g>
			<g>
				<path fill="#445464" d="M288.5,242.1h-65.2c-0.9,0-1.5-0.7-1.5-1.5s0.7-1.5,1.5-1.5h65.2c0.9,0,1.5,0.7,1.5,1.5
					S289.4,242.1,288.5,242.1L288.5,242.1z"/>
			</g>
			<path fill="#445464" d="M233.2,228.5c-2.2,0-3.9,1.7-3.9,3.9c0,2.2,1.7,3.9,3.9,3.9c2.2,0,3.9-1.7,3.9-3.9
				C237.1,230.3,235.3,228.5,233.2,228.5L233.2,228.5z"/>
			<path fill="#445464" d="M243.7,228.5c-2.2,0-3.9,1.7-3.9,3.9c0,2.2,1.7,3.9,3.9,3.9c2.2,0,3.9-1.7,3.9-3.9
				C247.6,230.3,245.9,228.5,243.7,228.5L243.7,228.5z"/>
			<path fill="#445464" d="M254.3,228.5c-2.2,0-3.9,1.7-3.9,3.9c0,2.2,1.7,3.9,3.9,3.9c2.2,0,3.9-1.7,3.9-3.9
				C258.2,230.3,256.5,228.5,254.3,228.5L254.3,228.5z"/>
		</g>
		<g>
			<g>
				<path fill="#445464" d="M255.9,254.6h-21.2c-0.9,0-1.5-0.7-1.5-1.5c0-0.9,0.7-1.5,1.5-1.5h21.2c0.9,0,1.5,0.7,1.5,1.5
					C257.4,253.9,256.8,254.6,255.9,254.6L255.9,254.6z"/>
			</g>
			<g>
				<path fill="#445464" d="M255.9,264.4h-21.2c-0.9,0-1.5-0.7-1.5-1.5c0-0.9,0.7-1.5,1.5-1.5h21.2c0.9,0,1.5,0.7,1.5,1.5
					C257.4,263.7,256.8,264.4,255.9,264.4L255.9,264.4z"/>
			</g>
			<g>
				<path fill="#445464" d="M255.9,274.2h-21.2c-0.9,0-1.5-0.7-1.5-1.5c0-0.9,0.7-1.5,1.5-1.5h21.2c0.9,0,1.5,0.7,1.5,1.5
					C257.4,273.5,256.8,274.2,255.9,274.2L255.9,274.2z"/>
			</g>
			<g>
				<path fill="#445464" d="M277.1,274.2h-13.4c-0.9,0-1.5-0.7-1.5-1.5V253c0-0.9,0.7-1.5,1.5-1.5h13.4c0.9,0,1.5,0.7,1.5,1.5v19.6
					C278.6,273.5,277.9,274.2,277.1,274.2L277.1,274.2z M265.2,271.1h10.3v-16.5h-10.3V271.1L265.2,271.1z"/>
			</g>
		</g>
	</g>
</g>
<g>
	<g>
		<path fill="#FFFFFF" d="M108.1,268.1c-9.7,0-17.6-7.9-17.6-17.6c0-9.7,7.9-17.6,17.6-17.6c8,0,14.8,5.4,16.9,12.7h6.8
			c-2.3-11-12-19.3-23.7-19.3c-13.3,0-24.2,10.9-24.2,24.2c0,13.3,10.9,24.2,24.2,24.2c11.7,0,21.4-8.3,23.7-19.3H125
			C122.9,262.7,116.2,268.1,108.1,268.1"/>
		<path fill="#FFFFFF" d="M96.3,262.3c3,3,7.2,4.9,11.9,4.9v-7c-2.7,0-5.1-1.1-6.9-2.9L96.3,262.3z"/>
		<path fill="#FFFFFF" d="M91.4,250.5c0,2.4,0.5,4.7,1.4,6.8l6.4-2.8c-0.5-1.2-0.8-2.5-0.8-3.9c0-5.4,4.4-9.8,9.8-9.8v-7
			C98.9,233.7,91.4,241.2,91.4,250.5"/>
		<path fill="#FFFFFF" d="M114.2,234.8l-2.5,6.5c2.1,0.8,3.8,2.3,4.9,4.2h7.6C122.7,240.7,119,236.7,114.2,234.8"/>
		<path fill="#FFFFFF" d="M111.7,259.6l2.5,6.5c4.8-1.9,8.5-5.8,10-10.8h-7.6C115.5,257.3,113.8,258.8,111.7,259.6"/>
		<path fill="#FFFFFF" d="M77.1,259.9c-0.1-0.4-0.2-0.7-0.3-1.1c0,0,0,0,0-0.1c-0.1-0.3-0.2-0.7-0.3-1c0-0.1,0-0.1,0-0.2
			c-0.1-0.3-0.1-0.6-0.2-0.9c0-0.1,0-0.3-0.1-0.4c0-0.2-0.1-0.5-0.1-0.7c0-0.2-0.1-0.4-0.1-0.6c-0.2-1.4-0.3-2.9-0.3-4.3h-6.6
			c0,1.6,0.1,3.2,0.3,4.7h0c0,0,0,0.1,0,0.1c0.1,0.4,0.1,0.8,0.2,1.3c0,0.1,0,0.2,0.1,0.3c0.1,0.3,0.1,0.7,0.2,1
			c0,0.2,0.1,0.4,0.1,0.5c0.1,0.3,0.1,0.5,0.2,0.8c0.1,0.2,0.1,0.5,0.2,0.7c0.1,0.2,0.1,0.4,0.2,0.6c0.1,0.3,0.2,0.6,0.2,0.8
			c0,0.1,0.1,0.2,0.1,0.3l0,0c0.5,1.5,1,3,1.6,4.4l6.1-2.7C77.9,262.3,77.5,261.1,77.1,259.9z"/>
		<path fill="#FFFFFF" d="M108.1,282.9c-8.9,0-17.1-3.6-22.9-9.5l-4.7,4.7c7.1,7.1,16.8,11.4,27.6,11.4c19.9,0,36.4-14.9,38.8-34.2
			h-6.7C137.9,270.9,124.4,282.9,108.1,282.9"/>
		<path fill="#FFFFFF" d="M108.1,218c7.3,0,14,2.4,19.4,6.5l4-5.3c-6.5-4.9-14.6-7.8-23.4-7.8c-16.6,0-30.7,10.3-36.4,24.9l6.2,2.4
			C82.6,226.6,94.4,218,108.1,218"/>
		<path fill="#FFFFFF" d="M140.2,245.6h6.7c-0.7-5.7-2.7-11.1-5.6-15.8l-5.6,3.5C138,237,139.5,241.1,140.2,245.6"/>
		<path fill="#FFFFFF" d="M132.7,245.6h6.7c-1.8-11.3-9.5-20.6-19.8-24.6l-2.4,6.2C125.1,230.2,131,237.2,132.7,245.6"/>
		<path fill="#FFFFFF" d="M108.1,225.5L108.1,225.5l0-6.6h0c-13.4,0-24.9,8.4-29.5,20.2l6.2,2.4C88.5,232.1,97.6,225.5,108.1,225.5"
			/>
		<path fill="#FFFFFF" d="M83.1,250.5L83.1,250.5l-6.6,0v0c0,13.3,8.2,24.7,19.9,29.4l2.5-6.1C89.7,270,83.1,261,83.1,250.5"/>
		<path fill="#FFFFFF" d="M108.1,275.5v6.6c15.8,0,28.9-11.6,31.2-26.7h-6.7C130.4,266.8,120.3,275.5,108.1,275.5"/>
	</g>
	<rect x="54.7" y="198.2" fill="none" stroke="#FFFFFF" stroke-width="4" stroke-miterlimit="10" width="105.2" height="104.7"/>
</g>
<g>
	<g>
		<rect x="321.8" y="431.8" fill="#FFFFFF" width="106" height="106"/>
		<g>
			<path fill="#445464" d="M361.8,523.4h1.7v1.2c0.3-0.8,0.9-1.4,1.9-1.3v1.8h-0.1c-1.1,0-1.8,0.7-1.8,2.1v2.2h-1.7V523.4z"/>
			<path fill="#445464" d="M366.4,527.3v-3.9h1.7v3.4c0,0.8,0.4,1.2,1,1.2c0.7,0,1.1-0.4,1.1-1.2v-3.4h1.7v6h-1.7v-0.9
				c-0.4,0.5-0.9,1-1.8,1C367.2,529.5,366.4,528.7,366.4,527.3z"/>
			<path fill="#445464" d="M373.6,521.2h1.7v8.2h-1.7V521.2z"/>
			<path fill="#445464" d="M376.6,526.4L376.6,526.4c0-1.7,1.2-3.2,3-3.2c2,0,2.9,1.6,2.9,3.3c0,0.1,0,0.3,0,0.5h-4.2
				c0.2,0.8,0.7,1.2,1.5,1.2c0.6,0,1-0.2,1.5-0.6l1,0.9c-0.6,0.7-1.4,1.1-2.5,1.1C377.9,529.6,376.6,528.3,376.6,526.4z
				 M380.9,525.9c-0.1-0.8-0.6-1.3-1.3-1.3c-0.7,0-1.2,0.5-1.3,1.3H380.9z"/>
			<path fill="#445464" d="M383.3,528.6l0.7-1.1c0.7,0.5,1.3,0.7,1.9,0.7c0.5,0,0.7-0.2,0.7-0.5v0c0-0.4-0.6-0.5-1.3-0.7
				c-0.8-0.2-1.8-0.6-1.8-1.8v0c0-1.2,1-1.9,2.2-1.9c0.8,0,1.6,0.3,2.3,0.7l-0.7,1.2c-0.6-0.3-1.2-0.6-1.6-0.6
				c-0.4,0-0.6,0.2-0.6,0.4v0c0,0.3,0.6,0.5,1.2,0.7c0.8,0.3,1.8,0.7,1.8,1.8v0c0,1.3-1,2-2.3,2
				C385.1,529.5,384.1,529.3,383.3,528.6z"/>
		</g>
	</g>
	<g>
		<g>
			<g>
				<path fill="#455565" d="M378.1,498.3c-0.6,0-1.1-0.2-1.5-0.6c-0.4-0.4-0.7-1-0.6-1.6l0.5-7.8c0-0.5,0.3-1,0.6-1.4l23.2-23.2
					c0.8-0.8,2.2-0.8,3,0l7.3,7.3c0.8,0.8,0.8,2.2,0,3l-23.2,23.2c-0.4,0.4-0.9,0.6-1.4,0.6l-7.8,0.5
					C378.2,498.3,378.2,498.3,378.1,498.3L378.1,498.3z M380.7,489.4l-0.3,4.6l4.6-0.3l21.1-21.1l-4.3-4.3L380.7,489.4L380.7,489.4z
					"/>
			</g>
			<g>
				<path fill="#455565" d="M405,477c-0.3,0-0.5-0.1-0.8-0.3l-6.6-6.6c-0.4-0.4-0.4-1.1,0-1.5c0.4-0.4,1.1-0.4,1.5,0l6.6,6.6
					c0.4,0.4,0.4,1.1,0,1.5C405.5,476.9,405.3,477,405,477L405,477z"/>
			</g>
			<path fill="#455565" d="M379.4,490.8c-0.2,0-0.3,0-0.5,0c-0.2,0-0.3,0.1-0.4,0.1l-0.3,5.4l5.2-0.3c0-0.2,0.1-0.4,0.1-0.6
				C383.7,492.7,381.9,490.8,379.4,490.8L379.4,490.8z"/>
		</g>
		<g>
			<g>
				<path fill="#455565" d="M390.5,506.5h-29.8c-2.7,0-4.9-2.2-4.9-4.9v-39.9c0-1.2,1-2.1,2.1-2.1c1.2,0,2.1,1,2.1,2.1v39.9
					c0,0.3,0.3,0.6,0.6,0.6h29.8c0.3,0,0.6-0.3,0.6-0.6v-12.6c0-1.2,1-2.1,2.1-2.1c1.2,0,2.1,1,2.1,2.1v12.6
					C395.4,504.4,393.2,506.5,390.5,506.5L390.5,506.5z"/>
			</g>
			<g>
				<path fill="#455565" d="M393.3,475.8c-1.2,0-2.1-1-2.1-2.1V468c0-0.3-0.3-0.6-0.6-0.6c-1.2,0-2.1-1-2.1-2.1c0-1.2,1-2.1,2.1-2.1
					c2.7,0,4.9,2.2,4.9,4.9v5.7C395.4,474.8,394.4,475.8,393.3,475.8L393.3,475.8z"/>
			</g>
			<g>
				<path fill="#455565" d="M390.1,467.4h-27.6c-3.6,0-6.6-3-6.6-6.6c0-3.6,3-6.6,6.6-6.6h30.8c1.2,0,2.1,1,2.1,2.1
					c0,1.2-1,2.1-2.1,2.1h-30.8c-1.3,0-2.3,1-2.3,2.3c0,1.3,1,2.3,2.3,2.3h27.6c1.2,0,2.1,1,2.1,2.1
					C392.3,466.4,391.3,467.4,390.1,467.4L390.1,467.4z"/>
			</g>
		</g>
		<g>
			<path fill="#455565" d="M378.9,475.2h-13.1c-0.6,0-1.1-0.5-1.1-1.1c0-0.6,0.5-1.1,1.1-1.1h13.1c0.6,0,1.1,0.5,1.1,1.1
				C379.9,474.7,379.5,475.2,378.9,475.2L378.9,475.2z"/>
		</g>
		<g>
			<path fill="#455565" d="M378.9,481.1h-13.1c-0.6,0-1.1-0.5-1.1-1.1s0.5-1.1,1.1-1.1h13.1c0.6,0,1.1,0.5,1.1,1.1
				S379.5,481.1,378.9,481.1L378.9,481.1z"/>
		</g>
	</g>
</g>
<g>
	<rect x="424.3" y="658.3" fill="#445464" width="0.5" height="5.6"/>
	<rect x="425.3" y="658.3" fill="#445464" width="0.5" height="5.6"/>
	<rect x="426.3" y="658.3" fill="#445464" width="0.5" height="5.6"/>
	<rect x="427.3" y="658.3" fill="#445464" width="0.5" height="5.6"/>
	<rect x="428.3" y="658.3" fill="#445464" width="0.5" height="5.6"/>
	<rect x="429.3" y="658.3" fill="#445464" width="0.5" height="5.6"/>
	<path fill="#445464" d="M416.6,658.3v5.6h0.5v-5.6H416.6z M417.6,658.3v5.6h0.5v-5.6H417.6z M418.6,658.3v5.6h0.5v-5.6H418.6z
		 M419.6,658.3v5.6h0.5v-5.6H419.6z M420.6,658.3v5.6h0.5v-5.6H420.6z M421.6,658.3v5.6h0.5v-5.6H421.6z M421.6,658.3v5.6h0.5v-5.6
		H421.6z M420.6,658.3v5.6h0.5v-5.6H420.6z M419.6,658.3v5.6h0.5v-5.6H419.6z M418.6,658.3v5.6h0.5v-5.6H418.6z M417.6,658.3v5.6
		h0.5v-5.6H417.6z M416.6,658.3v5.6h0.5v-5.6H416.6z M401.2,658.3v5.6h0.5v-5.6H401.2z M402.2,658.3v5.6h0.5v-5.6H402.2z
		 M403.2,658.3v5.6h0.5v-5.6H403.2z M404.2,658.3v5.6h0.5v-5.6H404.2z M405.2,658.3v5.6h0.5v-5.6H405.2z M406.2,658.3v5.6h0.5v-5.6
		H406.2z M408.9,658.3v5.6h0.5v-5.6H408.9z M409.9,658.3v5.6h0.5v-5.6H409.9z M410.9,658.3v5.6h0.5v-5.6H410.9z M411.9,658.3v5.6
		h0.5v-5.6H411.9z M412.9,658.3v5.6h0.5v-5.6H412.9z M413.9,658.3v5.6h0.5v-5.6H413.9z M416.6,658.3v5.6h0.5v-5.6H416.6z
		 M417.6,658.3v5.6h0.5v-5.6H417.6z M418.6,658.3v5.6h0.5v-5.6H418.6z M419.6,658.3v5.6h0.5v-5.6H419.6z M420.6,658.3v5.6h0.5v-5.6
		H420.6z M421.6,658.3v5.6h0.5v-5.6H421.6z M406.2,658.3v5.6h0.5v-5.6H406.2z M405.2,658.3v5.6h0.5v-5.6H405.2z M404.2,658.3v5.6
		h0.5v-5.6H404.2z M403.2,658.3v5.6h0.5v-5.6H403.2z M402.2,658.3v5.6h0.5v-5.6H402.2z M401.2,658.3v5.6h0.5v-5.6H401.2z
		 M413.9,658.3v5.6h0.5v-5.6H413.9z M412.9,658.3v5.6h0.5v-5.6H412.9z M411.9,658.3v5.6h0.5v-5.6H411.9z M410.9,658.3v5.6h0.5v-5.6
		H410.9z M409.9,658.3v5.6h0.5v-5.6H409.9z M408.9,658.3v5.6h0.5v-5.6H408.9z M421.6,658.3v5.6h0.5v-5.6H421.6z M420.6,658.3v5.6
		h0.5v-5.6H420.6z M419.6,658.3v5.6h0.5v-5.6H419.6z M418.6,658.3v5.6h0.5v-5.6H418.6z M417.6,658.3v5.6h0.5v-5.6H417.6z
		 M416.6,658.3v5.6h0.5v-5.6H416.6z M393.5,658.3v5.6h0.5v-5.6H393.5z M394.5,658.3v5.6h0.5v-5.6H394.5z M395.5,658.3v5.6h0.5v-5.6
		H395.5z M396.5,658.3v5.6h0.5v-5.6H396.5z M397.5,658.3v5.6h0.5v-5.6H397.5z M398.5,658.3v5.6h0.5v-5.6H398.5z M401.2,650.6v5.6
		h0.5v-5.6H401.2z M401.2,658.3v5.6h0.5v-5.6H401.2z M402.2,650.6v5.6h0.5v-5.6H402.2z M402.2,658.3v5.6h0.5v-5.6H402.2z
		 M403.2,650.6v5.6h0.5v-5.6H403.2z M403.2,658.3v5.6h0.5v-5.6H403.2z M404.2,650.6v5.6h0.5v-5.6H404.2z M404.2,658.3v5.6h0.5v-5.6
		H404.2z M405.2,650.6v5.6h0.5v-5.6H405.2z M405.2,658.3v5.6h0.5v-5.6H405.2z M406.2,650.6v5.6h0.5v-5.6H406.2z M406.2,658.3v5.6
		h0.5v-5.6H406.2z M408.9,658.3v5.6h0.5v-5.6H408.9z M409.9,658.3v5.6h0.5v-5.6H409.9z M410.9,658.3v5.6h0.5v-5.6H410.9z
		 M411.9,658.3v5.6h0.5v-5.6H411.9z M412.9,658.3v5.6h0.5v-5.6H412.9z M413.9,658.3v5.6h0.5v-5.6H413.9z M416.6,658.3v5.6h0.5v-5.6
		H416.6z M417.6,658.3v5.6h0.5v-5.6H417.6z M418.6,658.3v5.6h0.5v-5.6H418.6z M419.6,658.3v5.6h0.5v-5.6H419.6z M420.6,658.3v5.6
		h0.5v-5.6H420.6z M421.6,658.3v5.6h0.5v-5.6H421.6z M398.5,658.3v5.6h0.5v-5.6H398.5z M397.5,658.3v5.6h0.5v-5.6H397.5z
		 M396.5,658.3v5.6h0.5v-5.6H396.5z M395.5,658.3v5.6h0.5v-5.6H395.5z M394.5,658.3v5.6h0.5v-5.6H394.5z M393.5,658.3v5.6h0.5v-5.6
		H393.5z M406.2,658.3v5.6h0.5v-5.6H406.2z M405.2,658.3v5.6h0.5v-5.6H405.2z M404.2,658.3v5.6h0.5v-5.6H404.2z M403.2,658.3v5.6
		h0.5v-5.6H403.2z M402.2,658.3v5.6h0.5v-5.6H402.2z M401.2,658.3v5.6h0.5v-5.6H401.2z M406.2,650.6v5.6h0.5v-5.6H406.2z
		 M405.2,650.6v5.6h0.5v-5.6H405.2z M404.2,650.6v5.6h0.5v-5.6H404.2z M403.2,650.6v5.6h0.5v-5.6H403.2z M402.2,650.6v5.6h0.5v-5.6
		H402.2z M401.2,650.6v5.6h0.5v-5.6H401.2z M413.9,658.3v5.6h0.5v-5.6H413.9z M412.9,658.3v5.6h0.5v-5.6H412.9z M411.9,658.3v5.6
		h0.5v-5.6H411.9z M410.9,658.3v5.6h0.5v-5.6H410.9z M409.9,658.3v5.6h0.5v-5.6H409.9z M408.9,658.3v5.6h0.5v-5.6H408.9z
		 M421.6,658.3v5.6h0.5v-5.6H421.6z M420.6,658.3v5.6h0.5v-5.6H420.6z M419.6,658.3v5.6h0.5v-5.6H419.6z M418.6,658.3v5.6h0.5v-5.6
		H418.6z M417.6,658.3v5.6h0.5v-5.6H417.6z M416.6,658.3v5.6h0.5v-5.6H416.6z M393.5,658.3v5.6h0.5v-5.6H393.5z M394.5,658.3v5.6
		h0.5v-5.6H394.5z M395.5,658.3v5.6h0.5v-5.6H395.5z M396.5,658.3v5.6h0.5v-5.6H396.5z M397.5,658.3v5.6h0.5v-5.6H397.5z
		 M398.5,658.3v5.6h0.5v-5.6H398.5z M401.2,650.6v5.6h0.5v-5.6H401.2z M401.2,658.3v5.6h0.5v-5.6H401.2z M402.2,650.6v5.6h0.5v-5.6
		H402.2z M402.2,658.3v5.6h0.5v-5.6H402.2z M403.2,650.6v5.6h0.5v-5.6H403.2z M403.2,658.3v5.6h0.5v-5.6H403.2z M404.2,650.6v5.6
		h0.5v-5.6H404.2z M404.2,658.3v5.6h0.5v-5.6H404.2z M405.2,650.6v5.6h0.5v-5.6H405.2z M405.2,658.3v5.6h0.5v-5.6H405.2z
		 M406.2,650.6v5.6h0.5v-5.6H406.2z M406.2,658.3v5.6h0.5v-5.6H406.2z M408.9,650.6v5.6h0.5v-5.6H408.9z M408.9,658.3v5.6h0.5v-5.6
		H408.9z M409.9,650.6v5.6h0.5v-5.6H409.9z M409.9,658.3v5.6h0.5v-5.6H409.9z M410.9,650.6v5.6h0.5v-5.6H410.9z M410.9,658.3v5.6
		h0.5v-5.6H410.9z M411.9,650.6v5.6h0.5v-5.6H411.9z M411.9,658.3v5.6h0.5v-5.6H411.9z M412.9,650.6v5.6h0.5v-5.6H412.9z
		 M412.9,658.3v5.6h0.5v-5.6H412.9z M413.9,650.6v5.6h0.5v-5.6H413.9z M413.9,658.3v5.6h0.5v-5.6H413.9z M416.6,650.6v5.6h0.5v-5.6
		H416.6z M416.6,658.3v5.6h0.5v-5.6H416.6z M417.6,650.6v5.6h0.5v-5.6H417.6z M417.6,658.3v5.6h0.5v-5.6H417.6z M418.6,650.6v5.6
		h0.5v-5.6H418.6z M418.6,658.3v5.6h0.5v-5.6H418.6z M419.6,650.6v5.6h0.5v-5.6H419.6z M419.6,658.3v5.6h0.5v-5.6H419.6z
		 M420.6,650.6v5.6h0.5v-5.6H420.6z M420.6,658.3v5.6h0.5v-5.6H420.6z M421.6,650.6v5.6h0.5v-5.6H421.6z M421.6,658.3v5.6h0.5v-5.6
		H421.6z M398.5,658.3v5.6h0.5v-5.6H398.5z M397.5,658.3v5.6h0.5v-5.6H397.5z M396.5,658.3v5.6h0.5v-5.6H396.5z M395.5,658.3v5.6
		h0.5v-5.6H395.5z M394.5,658.3v5.6h0.5v-5.6H394.5z M393.5,658.3v5.6h0.5v-5.6H393.5z M406.2,658.3v5.6h0.5v-5.6H406.2z
		 M405.2,658.3v5.6h0.5v-5.6H405.2z M404.2,658.3v5.6h0.5v-5.6H404.2z M403.2,658.3v5.6h0.5v-5.6H403.2z M402.2,658.3v5.6h0.5v-5.6
		H402.2z M401.2,658.3v5.6h0.5v-5.6H401.2z M406.2,650.6v5.6h0.5v-5.6H406.2z M405.2,650.6v5.6h0.5v-5.6H405.2z M404.2,650.6v5.6
		h0.5v-5.6H404.2z M403.2,650.6v5.6h0.5v-5.6H403.2z M402.2,650.6v5.6h0.5v-5.6H402.2z M401.2,650.6v5.6h0.5v-5.6H401.2z
		 M413.9,658.3v5.6h0.5v-5.6H413.9z M412.9,658.3v5.6h0.5v-5.6H412.9z M411.9,658.3v5.6h0.5v-5.6H411.9z M410.9,658.3v5.6h0.5v-5.6
		H410.9z M409.9,658.3v5.6h0.5v-5.6H409.9z M408.9,658.3v5.6h0.5v-5.6H408.9z M413.9,650.6v5.6h0.5v-5.6H413.9z M412.9,650.6v5.6
		h0.5v-5.6H412.9z M411.9,650.6v5.6h0.5v-5.6H411.9z M410.9,650.6v5.6h0.5v-5.6H410.9z M409.9,650.6v5.6h0.5v-5.6H409.9z
		 M408.9,650.6v5.6h0.5v-5.6H408.9z M421.6,658.3v5.6h0.5v-5.6H421.6z M420.6,658.3v5.6h0.5v-5.6H420.6z M419.6,658.3v5.6h0.5v-5.6
		H419.6z M418.6,658.3v5.6h0.5v-5.6H418.6z M417.6,658.3v5.6h0.5v-5.6H417.6z M416.6,658.3v5.6h0.5v-5.6H416.6z M421.6,650.6v5.6
		h0.5v-5.6H421.6z M420.6,650.6v5.6h0.5v-5.6H420.6z M419.6,650.6v5.6h0.5v-5.6H419.6z M418.6,650.6v5.6h0.5v-5.6H418.6z
		 M417.6,650.6v5.6h0.5v-5.6H417.6z M416.6,650.6v5.6h0.5v-5.6H416.6z M393.5,658.3v5.6h0.5v-5.6H393.5z M394.5,658.3v5.6h0.5v-5.6
		H394.5z M395.5,658.3v5.6h0.5v-5.6H395.5z M396.5,658.3v5.6h0.5v-5.6H396.5z M397.5,658.3v5.6h0.5v-5.6H397.5z M398.5,658.3v5.6
		h0.5v-5.6H398.5z M401.2,650.6v5.6h0.5v-5.6H401.2z M401.2,658.3v5.6h0.5v-5.6H401.2z M402.2,650.6v5.6h0.5v-5.6H402.2z
		 M402.2,658.3v5.6h0.5v-5.6H402.2z M403.2,650.6v5.6h0.5v-5.6H403.2z M403.2,658.3v5.6h0.5v-5.6H403.2z M404.2,650.6v5.6h0.5v-5.6
		H404.2z M404.2,658.3v5.6h0.5v-5.6H404.2z M405.2,650.6v5.6h0.5v-5.6H405.2z M405.2,658.3v5.6h0.5v-5.6H405.2z M406.2,650.6v5.6
		h0.5v-5.6H406.2z M406.2,658.3v5.6h0.5v-5.6H406.2z M408.9,650.6v5.6h0.5v-5.6H408.9z M408.9,658.3v5.6h0.5v-5.6H408.9z
		 M409.9,650.6v5.6h0.5v-5.6H409.9z M409.9,658.3v5.6h0.5v-5.6H409.9z M410.9,650.6v5.6h0.5v-5.6H410.9z M410.9,658.3v5.6h0.5v-5.6
		H410.9z M411.9,650.6v5.6h0.5v-5.6H411.9z M411.9,658.3v5.6h0.5v-5.6H411.9z M412.9,650.6v5.6h0.5v-5.6H412.9z M412.9,658.3v5.6
		h0.5v-5.6H412.9z M413.9,650.6v5.6h0.5v-5.6H413.9z M413.9,658.3v5.6h0.5v-5.6H413.9z M416.6,650.6v5.6h0.5v-5.6H416.6z
		 M416.6,658.3v5.6h0.5v-5.6H416.6z M417.6,650.6v5.6h0.5v-5.6H417.6z M417.6,658.3v5.6h0.5v-5.6H417.6z M418.6,650.6v5.6h0.5v-5.6
		H418.6z M418.6,658.3v5.6h0.5v-5.6H418.6z M419.6,650.6v5.6h0.5v-5.6H419.6z M419.6,658.3v5.6h0.5v-5.6H419.6z M420.6,650.6v5.6
		h0.5v-5.6H420.6z M420.6,658.3v5.6h0.5v-5.6H420.6z M421.6,650.6v5.6h0.5v-5.6H421.6z M421.6,658.3v5.6h0.5v-5.6H421.6z
		 M398.5,658.3v5.6h0.5v-5.6H398.5z M397.5,663.8h0.5v-5.6h-0.5V663.8z M396.5,663.8h0.5v-5.6h-0.5V663.8z M395.5,663.8h0.5v-5.6
		h-0.5V663.8z M394.5,663.8h0.5v-5.6h-0.5V663.8z M393.5,663.8h0.5v-5.6h-0.5V663.8z M406.2,658.3v5.6h0.5v-5.6H406.2z M405.2,663.8
		h0.5v-5.6h-0.5V663.8z M404.2,663.8h0.5v-5.6h-0.5V663.8z M403.2,663.8h0.5v-5.6h-0.5V663.8z M402.2,663.8h0.5v-5.6h-0.5V663.8z
		 M401.2,663.8h0.5v-5.6h-0.5V663.8z M406.2,650.6v5.6h0.5v-5.6H406.2z M405.2,656.1h0.5v-5.6h-0.5V656.1z M404.2,656.1h0.5v-5.6
		h-0.5V656.1z M403.2,656.1h0.5v-5.6h-0.5V656.1z M402.2,656.1h0.5v-5.6h-0.5V656.1z M401.2,656.1h0.5v-5.6h-0.5V656.1z
		 M413.9,658.3v5.6h0.5v-5.6H413.9z M412.9,663.8h0.5v-5.6h-0.5V663.8z M411.9,663.8h0.5v-5.6h-0.5V663.8z M410.9,663.8h0.5v-5.6
		h-0.5V663.8z M409.9,663.8h0.5v-5.6h-0.5V663.8z M408.9,663.8h0.5v-5.6h-0.5V663.8z M413.9,650.6v5.6h0.5v-5.6H413.9z M412.9,656.1
		h0.5v-5.6h-0.5V656.1z M411.9,656.1h0.5v-5.6h-0.5V656.1z M410.9,656.1h0.5v-5.6h-0.5V656.1z M409.9,656.1h0.5v-5.6h-0.5V656.1z
		 M408.9,656.1h0.5v-5.6h-0.5V656.1z M421.6,658.3v5.6h0.5v-5.6H421.6z M420.6,663.8h0.5v-5.6h-0.5V663.8z M419.6,663.8h0.5v-5.6
		h-0.5V663.8z M418.6,663.8h0.5v-5.6h-0.5V663.8z M417.6,663.8h0.5v-5.6h-0.5V663.8z M416.6,663.8h0.5v-5.6h-0.5V663.8z
		 M421.6,650.6v5.6h0.5v-5.6H421.6z M420.6,656.1h0.5v-5.6h-0.5V656.1z M419.6,656.1h0.5v-5.6h-0.5V656.1z M418.6,656.1h0.5v-5.6
		h-0.5V656.1z M417.6,656.1h0.5v-5.6h-0.5V656.1z M416.6,656.1h0.5v-5.6h-0.5V656.1z M459.1,658.3c-2.6-1.5-6-1.7-8.9-0.8
		c-0.4-3.1-2.4-5.8-4.8-7.8l-1-0.8l-0.8,0.9c-1.6,1.9-2.1,5-1.9,7.4c0.2,1.8,0.7,3.6,1.8,5c-0.8,0.5-1.8,0.9-2.6,1.2
		c-1.7,0.6-3.5,0.9-5.3,0.9h-3.9v-7.9H424v-14.1h-1.3v6.7H416v-6.7h-1.3v6.4h-15.4v7.7h-7.7v7.9h-6.6l-0.1,1.2
		c-0.4,3.9,0.2,7.8,1.8,11.3l0.7,1.4l0.1,0.1c0.3,0.4,0.5,0.9,0.8,1.3h0l1.7,0.2c2,0.1,3.9,0.2,5.6,0.1c0,0,0,0,0,0
		c3.4-0.1,6.1-0.5,8.2-1.2c0.3-0.1,0.6,0.1,0.8,0.4c0.1,0.3-0.1,0.6-0.4,0.8c-0.3,0.1-0.6,0.2-0.9,0.3c0,0,0,0,0,0
		c-0.1,0-0.2,0.1-0.3,0.1c0,0,0,0,0,0c0,0,0,0,0,0c0,0-0.1,0-0.1,0c0,0-0.1,0-0.1,0c0,0,0,0,0,0c0,0,0,0,0,0c0,0,0,0,0,0
		c0,0-0.1,0-0.1,0c0,0-0.1,0-0.1,0c0,0-0.1,0-0.1,0c0,0-0.1,0-0.1,0c0,0-0.1,0-0.1,0c0,0-0.1,0-0.1,0c0,0,0,0,0,0
		c-0.1,0-0.2,0-0.3,0.1c-1.3,0.3-2.7,0.5-4.2,0.6c0,0,0,0,0,0h0c0,0,0,0,0,0c0,0,0,0,0,0c-0.1,0-0.1,0-0.2,0c0,0,0,0,0,0
		c-0.5,0-1.1,0-1.6,0.1c-0.4,0-0.8,0-1.2,0c-1.1,0-2.1,0-3.3-0.1l-1.7-0.1c4.9,6.1,12.3,8.7,20.3,8.7c17.6,0,32.1-7.9,38.7-24.4
		c4.5,0.2,9-1.1,11.2-5.3l0.6-1.1L459.1,658.3z M406.9,678.8c-1,0-1.8-0.8-1.8-1.8s0.8-1.8,1.8-1.8c1,0,1.8,0.8,1.8,1.8
		S407.9,678.8,406.9,678.8z M423.7,657.7h6.7v6.7h-6.7V657.7z M416,650h6.7v6.7H416V650z M416,657.7h6.7v6.7H416V657.7z M408.3,650
		h6.7v6.7h-6.7V650z M408.3,657.7h6.7v6.7h-6.7V657.7z M400.6,650h6.7v6.7h-6.7V650z M400.6,657.7h6.7v6.7h-6.7V657.7z M393,657.7
		h6.7v6.7H393V657.7z M421.6,663.8h0.5v-5.6h-0.5V663.8z M421.6,656.1h0.5v-5.6h-0.5V656.1z M420.6,663.8h0.5v-5.6h-0.5V663.8z
		 M420.6,656.1h0.5v-5.6h-0.5V656.1z M419.6,663.8h0.5v-5.6h-0.5V663.8z M419.6,656.1h0.5v-5.6h-0.5V656.1z M418.6,663.8h0.5v-5.6
		h-0.5V663.8z M418.6,656.1h0.5v-5.6h-0.5V656.1z M417.6,663.8h0.5v-5.6h-0.5V663.8z M417.6,656.1h0.5v-5.6h-0.5V656.1z
		 M416.6,663.8h0.5v-5.6h-0.5V663.8z M416.6,656.1h0.5v-5.6h-0.5V656.1z M413.9,663.8h0.5v-5.6h-0.5V663.8z M413.9,656.1h0.5v-5.6
		h-0.5V656.1z M412.9,663.8h0.5v-5.6h-0.5V663.8z M412.9,656.1h0.5v-5.6h-0.5V656.1z M411.9,663.8h0.5v-5.6h-0.5V663.8z
		 M411.9,656.1h0.5v-5.6h-0.5V656.1z M410.9,663.8h0.5v-5.6h-0.5V663.8z M410.9,656.1h0.5v-5.6h-0.5V656.1z M409.9,663.8h0.5v-5.6
		h-0.5V663.8z M409.9,656.1h0.5v-5.6h-0.5V656.1z M408.9,663.8h0.5v-5.6h-0.5V663.8z M408.9,656.1h0.5v-5.6h-0.5V656.1z
		 M406.2,663.8h0.5v-5.6h-0.5V663.8z M406.2,656.1h0.5v-5.6h-0.5V656.1z M405.2,663.8h0.5v-5.6h-0.5V663.8z M405.2,656.1h0.5v-5.6
		h-0.5V656.1z M404.2,663.8h0.5v-5.6h-0.5V663.8z M404.2,656.1h0.5v-5.6h-0.5V656.1z M403.2,663.8h0.5v-5.6h-0.5V663.8z
		 M403.2,656.1h0.5v-5.6h-0.5V656.1z M402.2,663.8h0.5v-5.6h-0.5V663.8z M402.2,656.1h0.5v-5.6h-0.5V656.1z M401.2,663.8h0.5v-5.6
		h-0.5V663.8z M401.2,656.1h0.5v-5.6h-0.5V656.1z M398.5,663.8h0.5v-5.6h-0.5V663.8z M397.5,663.8h0.5v-5.6h-0.5V663.8z
		 M396.5,663.8h0.5v-5.6h-0.5V663.8z M395.5,663.8h0.5v-5.6h-0.5V663.8z M394.5,663.8h0.5v-5.6h-0.5V663.8z M393.5,663.8h0.5v-5.6
		h-0.5V663.8z M416.6,650.6v5.6h0.5v-5.6H416.6z M417.6,650.6v5.6h0.5v-5.6H417.6z M418.6,650.6v5.6h0.5v-5.6H418.6z M419.6,650.6
		v5.6h0.5v-5.6H419.6z M420.6,650.6v5.6h0.5v-5.6H420.6z M421.6,650.6v5.6h0.5v-5.6H421.6z M416.6,658.3v5.6h0.5v-5.6H416.6z
		 M417.6,658.3v5.6h0.5v-5.6H417.6z M418.6,658.3v5.6h0.5v-5.6H418.6z M419.6,658.3v5.6h0.5v-5.6H419.6z M420.6,658.3v5.6h0.5v-5.6
		H420.6z M421.6,658.3v5.6h0.5v-5.6H421.6z M408.9,650.6v5.6h0.5v-5.6H408.9z M409.9,650.6v5.6h0.5v-5.6H409.9z M410.9,650.6v5.6
		h0.5v-5.6H410.9z M411.9,650.6v5.6h0.5v-5.6H411.9z M412.9,650.6v5.6h0.5v-5.6H412.9z M413.9,650.6v5.6h0.5v-5.6H413.9z
		 M408.9,658.3v5.6h0.5v-5.6H408.9z M409.9,658.3v5.6h0.5v-5.6H409.9z M410.9,658.3v5.6h0.5v-5.6H410.9z M411.9,658.3v5.6h0.5v-5.6
		H411.9z M412.9,658.3v5.6h0.5v-5.6H412.9z M413.9,658.3v5.6h0.5v-5.6H413.9z M401.2,650.6v5.6h0.5v-5.6H401.2z M402.2,650.6v5.6
		h0.5v-5.6H402.2z M403.2,650.6v5.6h0.5v-5.6H403.2z M404.2,650.6v5.6h0.5v-5.6H404.2z M405.2,650.6v5.6h0.5v-5.6H405.2z
		 M406.2,650.6v5.6h0.5v-5.6H406.2z M401.2,658.3v5.6h0.5v-5.6H401.2z M402.2,658.3v5.6h0.5v-5.6H402.2z M403.2,658.3v5.6h0.5v-5.6
		H403.2z M404.2,658.3v5.6h0.5v-5.6H404.2z M405.2,658.3v5.6h0.5v-5.6H405.2z M406.2,658.3v5.6h0.5v-5.6H406.2z M393.5,658.3v5.6
		h0.5v-5.6H393.5z M394.5,658.3v5.6h0.5v-5.6H394.5z M395.5,658.3v5.6h0.5v-5.6H395.5z M396.5,658.3v5.6h0.5v-5.6H396.5z
		 M397.5,658.3v5.6h0.5v-5.6H397.5z M398.5,658.3v5.6h0.5v-5.6H398.5z M421.6,658.3v5.6h0.5v-5.6H421.6z M421.6,650.6v5.6h0.5v-5.6
		H421.6z M421.6,642.9v5.6h0.5v-5.6H421.6z M420.6,658.3v5.6h0.5v-5.6H420.6z M420.6,650.6v5.6h0.5v-5.6H420.6z M420.6,642.9v5.6
		h0.5v-5.6H420.6z M419.6,658.3v5.6h0.5v-5.6H419.6z M419.6,650.6v5.6h0.5v-5.6H419.6z M419.6,642.9v5.6h0.5v-5.6H419.6z
		 M418.6,658.3v5.6h0.5v-5.6H418.6z M418.6,650.6v5.6h0.5v-5.6H418.6z M418.6,642.9v5.6h0.5v-5.6H418.6z M417.6,658.3v5.6h0.5v-5.6
		H417.6z M417.6,650.6v5.6h0.5v-5.6H417.6z M417.6,642.9v5.6h0.5v-5.6H417.6z M416.6,658.3v5.6h0.5v-5.6H416.6z M416.6,650.6v5.6
		h0.5v-5.6H416.6z M416.6,642.9v5.6h0.5v-5.6H416.6z M413.9,658.3v5.6h0.5v-5.6H413.9z M413.9,650.6v5.6h0.5v-5.6H413.9z
		 M412.9,658.3v5.6h0.5v-5.6H412.9z M412.9,650.6v5.6h0.5v-5.6H412.9z M411.9,658.3v5.6h0.5v-5.6H411.9z M411.9,650.6v5.6h0.5v-5.6
		H411.9z M410.9,658.3v5.6h0.5v-5.6H410.9z M410.9,650.6v5.6h0.5v-5.6H410.9z M409.9,658.3v5.6h0.5v-5.6H409.9z M409.9,650.6v5.6
		h0.5v-5.6H409.9z M408.9,658.3v5.6h0.5v-5.6H408.9z M408.9,650.6v5.6h0.5v-5.6H408.9z M406.2,658.3v5.6h0.5v-5.6H406.2z
		 M406.2,650.6v5.6h0.5v-5.6H406.2z M405.2,658.3v5.6h0.5v-5.6H405.2z M405.2,650.6v5.6h0.5v-5.6H405.2z M404.2,658.3v5.6h0.5v-5.6
		H404.2z M404.2,650.6v5.6h0.5v-5.6H404.2z M403.2,658.3v5.6h0.5v-5.6H403.2z M403.2,650.6v5.6h0.5v-5.6H403.2z M402.2,658.3v5.6
		h0.5v-5.6H402.2z M402.2,650.6v5.6h0.5v-5.6H402.2z M401.2,658.3v5.6h0.5v-5.6H401.2z M401.2,650.6v5.6h0.5v-5.6H401.2z
		 M398.5,658.3v5.6h0.5v-5.6H398.5z M397.5,658.3v5.6h0.5v-5.6H397.5z M396.5,658.3v5.6h0.5v-5.6H396.5z M395.5,658.3v5.6h0.5v-5.6
		H395.5z M394.5,658.3v5.6h0.5v-5.6H394.5z M393.5,658.3v5.6h0.5v-5.6H393.5z M416.6,658.3v5.6h0.5v-5.6H416.6z M417.6,658.3v5.6
		h0.5v-5.6H417.6z M418.6,658.3v5.6h0.5v-5.6H418.6z M419.6,658.3v5.6h0.5v-5.6H419.6z M420.6,658.3v5.6h0.5v-5.6H420.6z
		 M421.6,658.3v5.6h0.5v-5.6H421.6z M408.9,650.6v5.6h0.5v-5.6H408.9z M409.9,650.6v5.6h0.5v-5.6H409.9z M410.9,650.6v5.6h0.5v-5.6
		H410.9z M411.9,650.6v5.6h0.5v-5.6H411.9z M412.9,650.6v5.6h0.5v-5.6H412.9z M413.9,650.6v5.6h0.5v-5.6H413.9z M408.9,658.3v5.6
		h0.5v-5.6H408.9z M409.9,658.3v5.6h0.5v-5.6H409.9z M410.9,658.3v5.6h0.5v-5.6H410.9z M411.9,658.3v5.6h0.5v-5.6H411.9z
		 M412.9,658.3v5.6h0.5v-5.6H412.9z M413.9,658.3v5.6h0.5v-5.6H413.9z M401.2,650.6v5.6h0.5v-5.6H401.2z M402.2,650.6v5.6h0.5v-5.6
		H402.2z M403.2,650.6v5.6h0.5v-5.6H403.2z M404.2,650.6v5.6h0.5v-5.6H404.2z M405.2,650.6v5.6h0.5v-5.6H405.2z M406.2,650.6v5.6
		h0.5v-5.6H406.2z M401.2,658.3v5.6h0.5v-5.6H401.2z M402.2,658.3v5.6h0.5v-5.6H402.2z M403.2,658.3v5.6h0.5v-5.6H403.2z
		 M404.2,658.3v5.6h0.5v-5.6H404.2z M405.2,658.3v5.6h0.5v-5.6H405.2z M406.2,658.3v5.6h0.5v-5.6H406.2z M393.5,658.3v5.6h0.5v-5.6
		H393.5z M394.5,658.3v5.6h0.5v-5.6H394.5z M395.5,658.3v5.6h0.5v-5.6H395.5z M396.5,658.3v5.6h0.5v-5.6H396.5z M397.5,658.3v5.6
		h0.5v-5.6H397.5z M398.5,658.3v5.6h0.5v-5.6H398.5z M421.6,658.3v5.6h0.5v-5.6H421.6z M420.6,658.3v5.6h0.5v-5.6H420.6z
		 M419.6,658.3v5.6h0.5v-5.6H419.6z M418.6,658.3v5.6h0.5v-5.6H418.6z M417.6,658.3v5.6h0.5v-5.6H417.6z M416.6,658.3v5.6h0.5v-5.6
		H416.6z M413.9,658.3v5.6h0.5v-5.6H413.9z M413.9,650.6v5.6h0.5v-5.6H413.9z M412.9,658.3v5.6h0.5v-5.6H412.9z M412.9,650.6v5.6
		h0.5v-5.6H412.9z M411.9,658.3v5.6h0.5v-5.6H411.9z M411.9,650.6v5.6h0.5v-5.6H411.9z M410.9,658.3v5.6h0.5v-5.6H410.9z
		 M410.9,650.6v5.6h0.5v-5.6H410.9z M409.9,658.3v5.6h0.5v-5.6H409.9z M409.9,650.6v5.6h0.5v-5.6H409.9z M408.9,658.3v5.6h0.5v-5.6
		H408.9z M408.9,650.6v5.6h0.5v-5.6H408.9z M406.2,658.3v5.6h0.5v-5.6H406.2z M406.2,650.6v5.6h0.5v-5.6H406.2z M405.2,658.3v5.6
		h0.5v-5.6H405.2z M405.2,650.6v5.6h0.5v-5.6H405.2z M404.2,658.3v5.6h0.5v-5.6H404.2z M404.2,650.6v5.6h0.5v-5.6H404.2z
		 M403.2,658.3v5.6h0.5v-5.6H403.2z M403.2,650.6v5.6h0.5v-5.6H403.2z M402.2,658.3v5.6h0.5v-5.6H402.2z M402.2,650.6v5.6h0.5v-5.6
		H402.2z M401.2,658.3v5.6h0.5v-5.6H401.2z M401.2,650.6v5.6h0.5v-5.6H401.2z M398.5,658.3v5.6h0.5v-5.6H398.5z M397.5,658.3v5.6
		h0.5v-5.6H397.5z M396.5,658.3v5.6h0.5v-5.6H396.5z M395.5,658.3v5.6h0.5v-5.6H395.5z M394.5,658.3v5.6h0.5v-5.6H394.5z
		 M393.5,658.3v5.6h0.5v-5.6H393.5z M416.6,658.3v5.6h0.5v-5.6H416.6z M417.6,658.3v5.6h0.5v-5.6H417.6z M418.6,658.3v5.6h0.5v-5.6
		H418.6z M419.6,658.3v5.6h0.5v-5.6H419.6z M420.6,658.3v5.6h0.5v-5.6H420.6z M421.6,658.3v5.6h0.5v-5.6H421.6z M408.9,658.3v5.6
		h0.5v-5.6H408.9z M409.9,658.3v5.6h0.5v-5.6H409.9z M410.9,658.3v5.6h0.5v-5.6H410.9z M411.9,658.3v5.6h0.5v-5.6H411.9z
		 M412.9,658.3v5.6h0.5v-5.6H412.9z M413.9,658.3v5.6h0.5v-5.6H413.9z M401.2,658.3v5.6h0.5v-5.6H401.2z M402.2,658.3v5.6h0.5v-5.6
		H402.2z M403.2,658.3v5.6h0.5v-5.6H403.2z M404.2,658.3v5.6h0.5v-5.6H404.2z M405.2,658.3v5.6h0.5v-5.6H405.2z M406.2,658.3v5.6
		h0.5v-5.6H406.2z M393.5,658.3v5.6h0.5v-5.6H393.5z M394.5,658.3v5.6h0.5v-5.6H394.5z M395.5,658.3v5.6h0.5v-5.6H395.5z
		 M396.5,658.3v5.6h0.5v-5.6H396.5z M397.5,658.3v5.6h0.5v-5.6H397.5z M398.5,658.3v5.6h0.5v-5.6H398.5z M421.6,658.3v5.6h0.5v-5.6
		H421.6z M420.6,658.3v5.6h0.5v-5.6H420.6z M419.6,658.3v5.6h0.5v-5.6H419.6z M418.6,658.3v5.6h0.5v-5.6H418.6z M417.6,658.3v5.6
		h0.5v-5.6H417.6z M416.6,658.3v5.6h0.5v-5.6H416.6z M413.9,658.3v5.6h0.5v-5.6H413.9z M412.9,658.3v5.6h0.5v-5.6H412.9z
		 M411.9,658.3v5.6h0.5v-5.6H411.9z M410.9,658.3v5.6h0.5v-5.6H410.9z M409.9,658.3v5.6h0.5v-5.6H409.9z M408.9,658.3v5.6h0.5v-5.6
		H408.9z M406.2,658.3v5.6h0.5v-5.6H406.2z M405.2,658.3v5.6h0.5v-5.6H405.2z M404.2,658.3v5.6h0.5v-5.6H404.2z M403.2,658.3v5.6
		h0.5v-5.6H403.2z M402.2,658.3v5.6h0.5v-5.6H402.2z M401.2,658.3v5.6h0.5v-5.6H401.2z M398.5,658.3v5.6h0.5v-5.6H398.5z
		 M397.5,658.3v5.6h0.5v-5.6H397.5z M396.5,658.3v5.6h0.5v-5.6H396.5z M395.5,658.3v5.6h0.5v-5.6H395.5z M394.5,658.3v5.6h0.5v-5.6
		H394.5z M393.5,658.3v5.6h0.5v-5.6H393.5z M416.6,658.3v5.6h0.5v-5.6H416.6z M417.6,658.3v5.6h0.5v-5.6H417.6z M418.6,658.3v5.6
		h0.5v-5.6H418.6z M419.6,658.3v5.6h0.5v-5.6H419.6z M420.6,658.3v5.6h0.5v-5.6H420.6z M421.6,658.3v5.6h0.5v-5.6H421.6z
		 M408.9,658.3v5.6h0.5v-5.6H408.9z M409.9,658.3v5.6h0.5v-5.6H409.9z M410.9,658.3v5.6h0.5v-5.6H410.9z M411.9,658.3v5.6h0.5v-5.6
		H411.9z M412.9,658.3v5.6h0.5v-5.6H412.9z M413.9,658.3v5.6h0.5v-5.6H413.9z M421.6,658.3v5.6h0.5v-5.6H421.6z M420.6,658.3v5.6
		h0.5v-5.6H420.6z M419.6,658.3v5.6h0.5v-5.6H419.6z M418.6,658.3v5.6h0.5v-5.6H418.6z M417.6,658.3v5.6h0.5v-5.6H417.6z
		 M416.6,658.3v5.6h0.5v-5.6H416.6z M413.9,658.3v5.6h0.5v-5.6H413.9z M412.9,658.3v5.6h0.5v-5.6H412.9z M411.9,658.3v5.6h0.5v-5.6
		H411.9z M410.9,658.3v5.6h0.5v-5.6H410.9z M409.9,658.3v5.6h0.5v-5.6H409.9z M408.9,658.3v5.6h0.5v-5.6H408.9z"/>
	<g>
		<rect x="421.6" y="650.6" fill="#445464" width="0.5" height="5.6"/>
		<rect x="416.6" y="658.3" fill="#445464" width="0.5" height="5.6"/>
		<rect x="419.6" y="650.6" fill="#445464" width="0.5" height="5.6"/>
		<rect x="420.6" y="650.6" fill="#445464" width="0.5" height="5.6"/>
		<rect x="417.6" y="658.3" fill="#445464" width="0.5" height="5.6"/>
		<rect x="420.6" y="658.3" fill="#445464" width="0.5" height="5.6"/>
		<rect x="408.9" y="650.6" fill="#445464" width="0.5" height="5.6"/>
		<rect x="421.6" y="658.3" fill="#445464" width="0.5" height="5.6"/>
		<rect x="419.6" y="658.3" fill="#445464" width="0.5" height="5.6"/>
		<rect x="418.6" y="658.3" fill="#445464" width="0.5" height="5.6"/>
		<rect x="417.6" y="650.6" fill="#445464" width="0.5" height="5.6"/>
		<rect x="428.3" y="658.3" fill="#445464" width="0.5" height="5.6"/>
		<rect x="429.3" y="658.3" fill="#445464" width="0.5" height="5.6"/>
		<rect x="427.3" y="658.3" fill="#445464" width="0.5" height="5.6"/>
		<rect x="424.3" y="658.3" fill="#445464" width="0.5" height="5.6"/>
		<rect x="416.6" y="642.9" fill="#445464" width="0.5" height="5.6"/>
		<rect x="426.3" y="658.3" fill="#445464" width="0.5" height="5.6"/>
		<rect x="425.3" y="658.3" fill="#445464" width="0.5" height="5.6"/>
		<rect x="417.6" y="642.9" fill="#445464" width="0.5" height="5.6"/>
		<rect x="416.6" y="650.6" fill="#445464" width="0.5" height="5.6"/>
		<rect x="409.9" y="650.6" fill="#445464" width="0.5" height="5.6"/>
		<rect x="418.6" y="650.6" fill="#445464" width="0.5" height="5.6"/>
		<rect x="421.6" y="642.9" fill="#445464" width="0.5" height="5.6"/>
		<rect x="420.6" y="642.9" fill="#445464" width="0.5" height="5.6"/>
		<rect x="418.6" y="642.9" fill="#445464" width="0.5" height="5.6"/>
		<rect x="419.6" y="642.9" fill="#445464" width="0.5" height="5.6"/>
		<rect x="413.9" y="650.6" fill="#445464" width="0.5" height="5.6"/>
		<rect x="405.2" y="658.3" fill="#445464" width="0.5" height="5.6"/>
		<rect x="404.2" y="658.3" fill="#445464" width="0.5" height="5.6"/>
		<rect x="406.2" y="650.6" fill="#445464" width="0.5" height="5.6"/>
		<rect x="401.2" y="658.3" fill="#445464" width="0.5" height="5.6"/>
		<rect x="403.2" y="658.3" fill="#445464" width="0.5" height="5.6"/>
		<rect x="393.5" y="658.3" fill="#445464" width="0.5" height="5.6"/>
		<rect x="402.2" y="658.3" fill="#445464" width="0.5" height="5.6"/>
		<rect x="406.2" y="658.3" fill="#445464" width="0.5" height="5.6"/>
		<rect x="397.5" y="658.3" fill="#445464" width="0.5" height="5.6"/>
		<rect x="398.5" y="658.3" fill="#445464" width="0.5" height="5.6"/>
		<path fill="#445464" d="M459.1,658.3c-2.6-1.5-6-1.7-8.9-0.8c-0.4-3.1-2.4-5.8-4.8-7.8l-1-0.8l-0.8,0.9c-1.6,1.9-2.1,5-1.9,7.4
			c0.2,1.8,0.7,3.6,1.8,5c-0.8,0.5-1.8,0.9-2.6,1.2c-1.7,0.6-3.5,0.9-5.3,0.9h-3.9v-7.9H424V641h-9.2v7.7h-15.4v7.7h-7.7v7.9h-6.6
			l-0.1,1.2c-0.4,3.9,0.2,7.8,1.8,11.3l0.7,1.4l0.1,0.1c0.3,0.4,0.5,0.9,0.8,1.3h0l1.7,0.2c-0.4-0.6-0.8-1.1-1.2-1.7l-0.6-1
			c-0.1-0.1-0.1-0.2-0.2-0.4c-0.2-0.3-0.3-0.6-0.4-1c0-0.1-0.1-0.2-0.1-0.2c-0.1-0.2-0.2-0.4-0.3-0.7c0-0.1-0.1-0.2-0.1-0.4
			c0,0,0,0,0-0.1c0-0.1-0.1-0.2-0.1-0.4c0-0.1-0.1-0.2-0.1-0.4c0,0,0-0.1,0-0.1c-0.1-0.4-0.2-0.7-0.3-1.1c0-0.1-0.1-0.2-0.1-0.4
			c0-0.1,0-0.2,0-0.3c0-0.1,0-0.2-0.1-0.3c0-0.1,0-0.3-0.1-0.4c0-0.1,0-0.3-0.1-0.4c-0.2-1.6-0.3-3.4-0.1-5.1h49.3
			c4,0,8-1.5,9.9-3.2c-3.4-2.7-3-9.2-0.9-11.7c1.9,1.5,4.9,4.6,4.3,8.6c0,0,0.1,0,0.2-0.1c0.1,0,0.1,0,0.2-0.1h0
			c2.4-1.1,6.2-1.5,9.3,0.2c-2,3.9-6.3,5-10.9,4.6c-1,2.7-2.2,5.1-3.6,7.3c-0.2,0.4-0.5,0.7-0.7,1.1c0,0,0,0,0,0
			c-0.1,0.2-0.2,0.4-0.4,0.5c-0.1,0.2-0.2,0.3-0.4,0.5c0,0,0,0-0.1,0.1c-0.1,0.2-0.2,0.3-0.4,0.5c-0.1,0.2-0.3,0.3-0.4,0.5
			c-0.3,0.3-0.5,0.7-0.8,1c-0.1,0.1-0.2,0.3-0.3,0.4c0,0-0.1,0.1-0.1,0.1c-0.1,0.1-0.2,0.3-0.3,0.4c0,0-0.1,0.1-0.1,0.1
			c-0.1,0.1-0.3,0.3-0.4,0.4c-0.1,0.1-0.3,0.3-0.4,0.4c0,0-0.1,0.1-0.1,0.1c-0.1,0.1-0.2,0.2-0.4,0.4c-0.1,0.1-0.3,0.3-0.5,0.4
			c-0.3,0.3-0.6,0.5-0.9,0.8c0,0,0,0-0.1,0.1c-0.1,0.1-0.2,0.2-0.3,0.3c-0.1,0.1-0.1,0.1-0.2,0.2c-0.1,0.1-0.3,0.2-0.4,0.3
			c0,0,0,0,0,0c-0.1,0.1-0.3,0.2-0.4,0.3c-0.1,0.1-0.1,0.1-0.2,0.2c-0.1,0.1-0.2,0.2-0.3,0.2c-0.5,0.4-1,0.7-1.5,1.1
			c-0.2,0.1-0.3,0.2-0.5,0.3c0,0,0,0-0.1,0c-0.2,0.1-0.3,0.2-0.5,0.3c-0.2,0.1-0.3,0.2-0.5,0.3c-0.5,0.3-1.1,0.6-1.7,0.9
			c-0.2,0.1-0.3,0.2-0.5,0.3c0,0,0,0-0.1,0c-0.1,0.1-0.3,0.1-0.4,0.2c-0.1,0-0.1,0.1-0.2,0.1c-0.1,0.1-0.3,0.1-0.4,0.2
			c0,0-0.1,0-0.1,0.1c-0.2,0.1-0.3,0.2-0.5,0.2c-0.2,0.1-0.4,0.2-0.6,0.3c-0.4,0.2-0.8,0.3-1.1,0.5c-0.2,0.1-0.4,0.2-0.6,0.2
			c-0.2,0.1-0.3,0.1-0.5,0.2c0,0-0.1,0-0.1,0c-0.2,0.1-0.4,0.1-0.5,0.2c0,0,0,0,0,0c-0.2,0.1-0.3,0.1-0.5,0.2c-0.1,0-0.1,0-0.2,0.1
			c-0.2,0.1-0.3,0.1-0.5,0.2c-0.5,0.1-0.9,0.3-1.4,0.4c-0.2,0.1-0.4,0.1-0.6,0.2c-0.2,0-0.4,0.1-0.5,0.1c-0.2,0-0.3,0.1-0.5,0.1
			c-0.2,0-0.3,0.1-0.5,0.1c-0.2,0-0.4,0.1-0.6,0.1c-0.6,0.1-1.1,0.2-1.7,0.3c-0.2,0-0.4,0.1-0.5,0.1c-0.1,0-0.2,0-0.2,0
			c-0.1,0-0.3,0-0.4,0.1c-0.1,0-0.2,0-0.3,0c-0.2,0-0.4,0-0.6,0.1c0,0-0.1,0-0.1,0c-0.2,0-0.5,0.1-0.7,0.1c-0.2,0-0.4,0-0.6,0.1
			c-0.3,0-0.6,0.1-0.9,0.1c-0.2,0-0.4,0-0.7,0c-0.2,0-0.3,0-0.5,0c-0.2,0-0.3,0-0.5,0c0,0,0,0-0.1,0c-0.2,0-0.4,0-0.6,0
			c-0.1,0-0.2,0-0.3,0c-0.1,0-0.3,0-0.4,0c0,0-0.1,0-0.1,0c-0.1,0-0.1,0-0.2,0h-0.1c0,0-0.1,0-0.1,0c-0.2,0-0.4,0-0.6,0
			c-0.9,0-1.7,0-2.5-0.1c-0.1,0-0.2,0-0.3,0c0,0-0.1,0-0.1,0c0,0,0,0,0,0c-0.5,0-1-0.1-1.5-0.2c-0.2,0-0.4-0.1-0.6-0.1
			c-0.3-0.1-0.7-0.1-1-0.2c-0.2,0-0.4-0.1-0.6-0.1c-0.4-0.1-0.9-0.2-1.3-0.3c-0.2-0.1-0.4-0.1-0.6-0.2c-0.2-0.1-0.4-0.1-0.6-0.2
			c-0.2-0.1-0.4-0.1-0.6-0.2c0,0,0,0,0,0c-0.1,0-0.2-0.1-0.3-0.1c-0.2-0.1-0.4-0.2-0.6-0.3c-0.1,0-0.2-0.1-0.3-0.1
			c-2.9-1.3-5.4-3-7.4-5.3l0,0l-1.7-0.1c4.9,6.1,12.3,8.7,20.3,8.7c17.6,0,32.1-7.9,38.7-24.4c4.5,0.2,9-1.1,11.2-5.3l0.6-1.1
			L459.1,658.3z M399.6,664.4H393v-6.7h6.7V664.4z M407.3,664.4h-6.7v-6.7h6.7V664.4z M407.3,656.7h-6.7V650h6.7V656.7z M415,664.4
			h-6.7v-6.7h6.7V664.4z M415,656.7h-6.7V650h6.7V656.7z M422.7,664.4H416v-6.7h6.7V664.4z M422.7,656.7H416V650h6.7V656.7z
			 M422.7,649H416v-6.7h6.7V649z M430.4,664.4h-6.7v-6.7h6.7V664.4z"/>
		<rect x="394.5" y="658.3" fill="#445464" width="0.5" height="5.6"/>
		<rect x="396.5" y="658.3" fill="#445464" width="0.5" height="5.6"/>
		<rect x="395.5" y="658.3" fill="#445464" width="0.5" height="5.6"/>
		<rect x="408.9" y="658.3" fill="#445464" width="0.5" height="5.6"/>
		<rect x="409.9" y="658.3" fill="#445464" width="0.5" height="5.6"/>
		<rect x="410.9" y="658.3" fill="#445464" width="0.5" height="5.6"/>
		<rect x="410.9" y="650.6" fill="#445464" width="0.5" height="5.6"/>
		<rect x="412.9" y="650.6" fill="#445464" width="0.5" height="5.6"/>
		<rect x="411.9" y="650.6" fill="#445464" width="0.5" height="5.6"/>
		<rect x="411.9" y="658.3" fill="#445464" width="0.5" height="5.6"/>
		<rect x="413.9" y="658.3" fill="#445464" width="0.5" height="5.6"/>
		<rect x="403.2" y="650.6" fill="#445464" width="0.5" height="5.6"/>
		<rect x="412.9" y="658.3" fill="#445464" width="0.5" height="5.6"/>
		<rect x="402.2" y="650.6" fill="#445464" width="0.5" height="5.6"/>
		<rect x="405.2" y="650.6" fill="#445464" width="0.5" height="5.6"/>
		<rect x="401.2" y="650.6" fill="#445464" width="0.5" height="5.6"/>
		<rect x="404.2" y="650.6" fill="#445464" width="0.5" height="5.6"/>
	</g>
	<polyline fill="#445464" points="388.3,679.6 388.3,679.6 390,679.8 	"/>
	<polyline fill="#445464" points="389.4,681 389.4,681 391.1,681.1 	"/>
</g>
<g>
	<g>
		<rect x="310.3" y="195.9" fill="#FFFFFF" width="133.4" height="133.4"/>
		<g>
			<path fill="#445464" d="M350.7,311.2h2.2v1.1c0.5-0.7,1.2-1.2,2.4-1.2c1.8,0,3.5,1.4,3.5,3.9v0c0,2.5-1.7,3.9-3.5,3.9
				c-1.1,0-1.9-0.5-2.4-1.1v3.3h-2.2V311.2z M356.6,315L356.6,315c0-1.3-0.9-2.1-1.9-2.1s-1.8,0.8-1.8,2.1v0c0,1.3,0.8,2.1,1.8,2.1
				S356.6,316.3,356.6,315z"/>
			<path fill="#445464" d="M360.3,311.2h2.2v1.5c0.4-1.1,1.1-1.7,2.4-1.7v2.3h-0.1c-1.4,0-2.3,0.9-2.3,2.7v2.8h-2.2V311.2z"/>
			<path fill="#445464" d="M365.7,315L365.7,315c0-2.2,1.8-4,4.1-4c2.4,0,4.1,1.7,4.1,3.9v0c0,2.2-1.8,4-4.1,4
				C367.4,319,365.7,317.2,365.7,315z M371.8,315L371.8,315c0-1.1-0.8-2.1-2-2.1c-1.2,0-2,1-2,2.1v0c0,1.1,0.8,2.1,2,2.1
				C371,317.1,371.8,316.1,371.8,315z"/>
			<path fill="#445464" d="M375.8,313h-0.9v-1.8h0.9v-0.5c0-0.8,0.2-1.4,0.6-1.8c0.4-0.4,1-0.6,1.7-0.6c0.7,0,1.1,0.1,1.5,0.2v1.8
				c-0.3-0.1-0.6-0.2-1-0.2c-0.5,0-0.8,0.3-0.8,0.8v0.3h1.7v1.8H378v5.8h-2.2V313z"/>
			<path fill="#445464" d="M380.9,308.4h2.3v1.9h-2.3V308.4z M381,311.2h2.2v7.6H381V311.2z"/>
			<path fill="#445464" d="M385.3,308.4h2.2v10.4h-2.2V308.4z"/>
			<path fill="#445464" d="M389.1,315L389.1,315c0-2.2,1.5-4,3.8-4c2.5,0,3.7,2,3.7,4.1c0,0.2,0,0.4,0,0.6h-5.3
				c0.2,1,0.9,1.5,1.9,1.5c0.7,0,1.2-0.2,1.8-0.8l1.2,1.1c-0.7,0.9-1.7,1.4-3.1,1.4C390.8,319,389.1,317.4,389.1,315z M394.4,314.4
				c-0.1-1-0.7-1.6-1.6-1.6c-0.9,0-1.5,0.6-1.6,1.6H394.4z"/>
			<path fill="#445464" d="M397.5,317.8l0.9-1.4c0.8,0.6,1.7,0.9,2.4,0.9c0.6,0,0.9-0.2,0.9-0.6v0c0-0.5-0.7-0.6-1.6-0.9
				c-1.1-0.3-2.3-0.8-2.3-2.3v0c0-1.5,1.2-2.4,2.8-2.4c1,0,2,0.3,2.8,0.9l-0.8,1.5c-0.8-0.4-1.5-0.7-2.1-0.7c-0.5,0-0.8,0.2-0.8,0.5
				v0c0,0.4,0.7,0.6,1.5,0.9c1.1,0.4,2.3,0.9,2.3,2.3v0c0,1.7-1.3,2.5-2.9,2.5C399.7,318.9,398.5,318.6,397.5,317.8z"/>
		</g>
	</g>
	<g>
		<path fill="#455565" d="M376.6,298.6c-23.5,0-42.6-19.1-42.6-42.6c0-23.5,19.1-42.6,42.6-42.6c23.5,0,42.6,19.1,42.6,42.6
			C419.2,279.5,400.1,298.6,376.6,298.6L376.6,298.6z M376.6,220.6c-19.5,0-35.4,15.9-35.4,35.4c0,19.5,15.9,35.4,35.4,35.4
			c19.5,0,35.4-15.9,35.4-35.4C412,236.5,396.1,220.6,376.6,220.6L376.6,220.6z"/>
		<g>
			<g>
				<g>
					<path fill="#455565" d="M377.6,272.2c-0.5,0-1-0.2-1.4-0.6c-0.4-0.4-0.6-0.9-0.6-1.5l0.4-7c0-0.5,0.2-0.9,0.6-1.2l20.8-20.8
						c0.7-0.7,2-0.7,2.7,0l6.6,6.6c0.7,0.7,0.7,2,0,2.7L386,271.2c-0.3,0.3-0.8,0.5-1.2,0.6l-7,0.4
						C377.7,272.2,377.7,272.2,377.6,272.2L377.6,272.2z M379.9,264.1l-0.2,4.1l4.1-0.2l18.9-18.9l-3.9-3.9L379.9,264.1L379.9,264.1
						z"/>
				</g>
				<g>
					<path fill="#455565" d="M401.7,253.1c-0.2,0-0.5-0.1-0.7-0.3l-5.9-5.9c-0.4-0.4-0.4-1,0-1.4c0.4-0.4,1-0.4,1.4,0l5.9,5.9
						c0.4,0.4,0.4,1,0,1.4C402.2,253,401.9,253.1,401.7,253.1L401.7,253.1z"/>
				</g>
				<path fill="#455565" d="M378.7,265.4c-0.1,0-0.3,0-0.4,0c-0.1,0-0.2,0.1-0.4,0.1l-0.3,4.8l4.6-0.3c0-0.2,0.1-0.4,0.1-0.5
					C382.6,267.1,381,265.4,378.7,265.4L378.7,265.4z"/>
			</g>
			<g>
				<g>
					<path fill="#455565" d="M388.8,279.5h-26.7c-2.4,0-4.4-2-4.4-4.4v-35.8c0-1.1,0.9-1.9,1.9-1.9c1.1,0,1.9,0.9,1.9,1.9v35.8
						c0,0.3,0.2,0.5,0.5,0.5h26.7c0.3,0,0.5-0.2,0.5-0.5v-11.3c0-1.1,0.9-1.9,1.9-1.9c1.1,0,1.9,0.9,1.9,1.9v11.3
						C393.1,277.6,391.2,279.5,388.8,279.5L388.8,279.5z"/>
				</g>
				<g>
					<path fill="#455565" d="M391.2,251.9c-1.1,0-1.9-0.9-1.9-1.9V245c0-0.3-0.2-0.5-0.5-0.5c-1.1,0-1.9-0.9-1.9-1.9
						s0.9-1.9,1.9-1.9c2.4,0,4.4,2,4.4,4.4v5.1C393.1,251.1,392.3,251.9,391.2,251.9L391.2,251.9z"/>
				</g>
				<g>
					<path fill="#455565" d="M388.4,244.4h-24.7c-3.3,0-5.9-2.7-5.9-5.9c0-3.3,2.7-5.9,5.9-5.9h27.5c1.1,0,1.9,0.9,1.9,1.9
						s-0.9,1.9-1.9,1.9h-27.5c-1.1,0-2.1,0.9-2.1,2.1c0,1.1,0.9,2.1,2.1,2.1h24.7c1.1,0,1.9,0.9,1.9,1.9S389.4,244.4,388.4,244.4
						L388.4,244.4z"/>
				</g>
			</g>
			<g>
				<path fill="#455565" d="M378.3,251.5h-11.7c-0.5,0-1-0.4-1-1c0-0.5,0.4-1,1-1h11.7c0.5,0,1,0.4,1,1
					C379.2,251,378.8,251.5,378.3,251.5L378.3,251.5z"/>
			</g>
			<g>
				<path fill="#455565" d="M378.3,256.7h-11.7c-0.5,0-1-0.4-1-1c0-0.5,0.4-1,1-1h11.7c0.5,0,1,0.4,1,1
					C379.2,256.3,378.8,256.7,378.3,256.7L378.3,256.7z"/>
			</g>
		</g>
	</g>
</g>
<g>
	<g>
		<rect x="417.4" y="432" fill="#FFFFFF" width="105.6" height="105.6"/>
		<g>
			<path fill="#445464" d="M444.3,521h1.8v1.5h-1.8V521z M444.3,523.2h1.7v6h-1.7V523.2z"/>
			<path fill="#445464" d="M447.6,523.2h1.7v0.9c0.4-0.5,0.9-1,1.8-1c1.3,0,2,0.9,2,2.2v3.9h-1.7v-3.4c0-0.8-0.4-1.2-1-1.2
				c-0.7,0-1.1,0.4-1.1,1.2v3.4h-1.7V523.2z"/>
			<path fill="#445464" d="M454.1,528.4l0.7-1.1c0.7,0.5,1.3,0.7,1.9,0.7c0.5,0,0.7-0.2,0.7-0.4v0c0-0.4-0.6-0.5-1.2-0.7
				c-0.8-0.2-1.8-0.6-1.8-1.8v0c0-1.2,1-1.9,2.2-1.9c0.8,0,1.6,0.3,2.2,0.7l-0.7,1.2c-0.6-0.3-1.2-0.6-1.6-0.6
				c-0.4,0-0.6,0.2-0.6,0.4v0c0,0.3,0.6,0.5,1.2,0.7c0.8,0.3,1.8,0.7,1.8,1.8v0c0,1.3-1,1.9-2.3,1.9
				C455.9,529.4,454.9,529.1,454.1,528.4z"/>
			<path fill="#445464" d="M460.2,523.2h1.7v0.9c0.4-0.6,1-1,1.9-1c1.4,0,2.7,1.1,2.7,3.1v0c0,2-1.3,3.1-2.7,3.1
				c-0.9,0-1.5-0.4-1.9-0.9v2.6h-1.7V523.2z M464.9,526.2L464.9,526.2c0-1-0.7-1.7-1.5-1.7s-1.5,0.7-1.5,1.7v0c0,1,0.7,1.7,1.5,1.7
				S464.9,527.3,464.9,526.2z"/>
			<path fill="#445464" d="M467.5,526.3L467.5,526.3c0-1.7,1.2-3.2,3-3.2c2,0,2.9,1.6,2.9,3.3c0,0.1,0,0.3,0,0.4h-4.2
				c0.2,0.8,0.7,1.2,1.5,1.2c0.6,0,1-0.2,1.5-0.6l1,0.9c-0.6,0.7-1.4,1.1-2.5,1.1C468.9,529.4,467.5,528.1,467.5,526.3z
				 M471.8,525.8c-0.1-0.8-0.6-1.3-1.3-1.3c-0.7,0-1.2,0.5-1.3,1.3H471.8z"/>
			<path fill="#445464" d="M474.4,526.3L474.4,526.3c0-1.7,1.3-3.2,3.2-3.2c1.1,0,1.8,0.4,2.4,1l-1,1.1c-0.4-0.4-0.8-0.7-1.4-0.7
				c-0.9,0-1.5,0.8-1.5,1.6v0c0,0.9,0.6,1.7,1.5,1.7c0.6,0,1-0.2,1.4-0.6l1,1c-0.6,0.6-1.3,1.1-2.5,1.1
				C475.7,529.4,474.4,528,474.4,526.3z"/>
			<path fill="#445464" d="M484.2,526.3L484.2,526.3c0-1.7,1.3-3.2,3.2-3.2c1.1,0,1.8,0.4,2.4,1l-1,1.1c-0.4-0.4-0.8-0.7-1.4-0.7
				c-0.9,0-1.5,0.8-1.5,1.6v0c0,0.9,0.6,1.7,1.5,1.7c0.6,0,1-0.2,1.4-0.6l1,1c-0.6,0.6-1.3,1.1-2.5,1.1
				C485.5,529.4,484.2,528,484.2,526.3z"/>
			<path fill="#445464" d="M491,521h1.7v8.2H491V521z"/>
			<path fill="#445464" d="M494.3,521h1.8v1.5h-1.8V521z M494.4,523.2h1.7v6h-1.7V523.2z"/>
		</g>
	</g>
	<g>
		<g>
			<g>
				<path fill="#445464" d="M497.1,508.5h-53.2c-1.3,0-2.4-1.1-2.4-2.4v-53.2c0-1.3,1.1-2.4,2.4-2.4h53.2c1.3,0,2.4,1.1,2.4,2.4
					v53.2C499.5,507.4,498.4,508.5,497.1,508.5L497.1,508.5z M446.3,503.6h48.3v-48.3h-48.3V503.6L446.3,503.6z"/>
			</g>
			<g>
				<path fill="#445464" d="M496.2,468.3h-51.4c-0.7,0-1.2-0.5-1.2-1.2s0.5-1.2,1.2-1.2h51.4c0.7,0,1.2,0.5,1.2,1.2
					S496.9,468.3,496.2,468.3L496.2,468.3z"/>
			</g>
			<path fill="#445464" d="M452.6,457.6c-1.7,0-3.1,1.4-3.1,3.1c0,1.7,1.4,3.1,3.1,3.1c1.7,0,3.1-1.4,3.1-3.1
				C455.6,459,454.3,457.6,452.6,457.6L452.6,457.6z"/>
			<path fill="#445464" d="M460.9,457.6c-1.7,0-3.1,1.4-3.1,3.1c0,1.7,1.4,3.1,3.1,3.1c1.7,0,3.1-1.4,3.1-3.1
				C464,459,462.6,457.6,460.9,457.6L460.9,457.6z"/>
			<path fill="#445464" d="M469.2,457.6c-1.7,0-3.1,1.4-3.1,3.1c0,1.7,1.4,3.1,3.1,3.1c1.7,0,3.1-1.4,3.1-3.1
				C472.3,459,470.9,457.6,469.2,457.6L469.2,457.6z"/>
		</g>
		<g>
			<g>
				<g>
					<path fill="#445464" d="M485.1,496h-15.6c-1.3,0-2.4-1.1-2.4-2.4c0-1.3,1.1-2.4,2.4-2.4h15.6c1.3,0,2.4,1.1,2.4,2.4
						C487.6,494.9,486.5,496,485.1,496L485.1,496z"/>
				</g>
			</g>
			<g>
				<g>
					<path fill="#445464" d="M455.8,496c-0.6,0-1.2-0.2-1.7-0.7c-1-1-1-2.5,0-3.5l7.1-7.1l-7.1-7.1c-1-1-1-2.5,0-3.5
						c1-1,2.5-1,3.5,0l8.9,8.9c1,1,1,2.5,0,3.5l-8.9,8.9C457.1,495.8,456.5,496,455.8,496L455.8,496z"/>
				</g>
			</g>
		</g>
	</g>
</g>
<g>
	<rect x="764" y="194" fill="#455565" width="133.4" height="133.4"/>
	<g>
		<g>
			<g>
				<g>
					<path fill="#FFFFFF" d="M806.5,308.6h2.4v1.2c0.6-0.7,1.3-1.4,2.5-1.4c1.8,0,2.9,1.2,2.9,3.2v5.6H812v-4.8
						c0-1.2-0.5-1.7-1.5-1.7c-0.9,0-1.5,0.6-1.5,1.7v4.8h-2.4V308.6z"/>
					<path fill="#FFFFFF" d="M816.1,313L816.1,313c0-2.5,2-4.5,4.7-4.5c2.7,0,4.6,2,4.6,4.4v0c0,2.5-2,4.5-4.7,4.5
						C818.1,317.4,816.1,315.4,816.1,313z M823,313L823,313c0-1.3-0.9-2.4-2.3-2.4c-1.4,0-2.2,1.1-2.2,2.3v0c0,1.3,0.9,2.4,2.3,2.4
						C822.1,315.3,823,314.2,823,313z"/>
					<path fill="#FFFFFF" d="M826.7,312.9L826.7,312.9c0-2.9,1.9-4.5,3.9-4.5c1.3,0,2.1,0.6,2.7,1.3v-4.2h2.4v11.7h-2.4V316
						c-0.6,0.8-1.4,1.4-2.7,1.4C828.6,317.4,826.7,315.8,826.7,312.9z M833.3,312.9L833.3,312.9c0-1.5-0.9-2.4-2.1-2.4
						s-2.1,0.9-2.1,2.4v0c0,1.4,1,2.4,2.1,2.4S833.3,314.4,833.3,312.9z"/>
					<path fill="#FFFFFF" d="M837.5,313L837.5,313c0-2.5,1.7-4.5,4.2-4.5c2.9,0,4.2,2.2,4.2,4.7c0,0.2,0,0.4,0,0.6h-6
						c0.2,1.1,1,1.7,2.1,1.7c0.8,0,1.4-0.3,2.1-0.9l1.4,1.2c-0.8,1-2,1.6-3.5,1.6C839.4,317.4,837.5,315.6,837.5,313z M843.6,312.2
						c-0.1-1.1-0.8-1.8-1.8-1.8c-1,0-1.7,0.7-1.9,1.8H843.6z"/>
				</g>
			</g>
		</g>
		<g>
			<g>
				<path fill="#FFFFFF" d="M864.5,293.2h-68c-1.7,0-3.1-1.4-3.1-3.1v-66.8c0-1.7,1.4-3.1,3.1-3.1h68c1.7,0,3.1,1.4,3.1,3.1v66.8
					C867.7,291.8,866.3,293.2,864.5,293.2L864.5,293.2z M799.7,287h61.7v-60.5h-61.7V287L799.7,287z"/>
			</g>
			<g>
				<g>
					<g>
						<path fill="#FFFFFF" d="M831.6,269.7c-0.4,0-0.8-0.2-1.1-0.5c-0.3-0.3-0.5-0.7-0.4-1.2l0.3-5.6c0-0.4,0.2-0.7,0.4-1l16.7-16.7
							c0.6-0.6,1.6-0.6,2.2,0l5.3,5.3c0.6,0.6,0.6,1.6,0,2.2l-16.7,16.7c-0.3,0.3-0.6,0.4-1,0.4L831.6,269.7
							C831.7,269.7,831.6,269.7,831.6,269.7L831.6,269.7z M833.4,263.2l-0.2,3.3l3.3-0.2l15.2-15.2l-3.1-3.1L833.4,263.2
							L833.4,263.2z"/>
					</g>
					<g>
						<path fill="#FFFFFF" d="M851,254.3c-0.2,0-0.4-0.1-0.5-0.2l-4.7-4.7c-0.3-0.3-0.3-0.8,0-1.1c0.3-0.3,0.8-0.3,1.1,0l4.7,4.7
							c0.3,0.3,0.3,0.8,0,1.1C851.4,254.3,851.2,254.3,851,254.3L851,254.3z"/>
					</g>
					<path fill="#FFFFFF" d="M832.5,264.2c-0.1,0-0.2,0-0.3,0c-0.1,0-0.2,0-0.3,0.1l-0.2,3.9l3.7-0.2c0-0.1,0.1-0.3,0.1-0.4
						C835.6,265.7,834.3,264.2,832.5,264.2L832.5,264.2z"/>
				</g>
				<g>
					<g>
						<path fill="#FFFFFF" d="M840.6,275.6h-21.5c-1.9,0-3.5-1.6-3.5-3.5v-28.8c0-0.9,0.7-1.5,1.5-1.5c0.9,0,1.5,0.7,1.5,1.5v28.8
							c0,0.2,0.2,0.4,0.4,0.4h21.5c0.2,0,0.4-0.2,0.4-0.4V263c0-0.9,0.7-1.5,1.5-1.5c0.9,0,1.5,0.7,1.5,1.5v9.1
							C844.1,274.1,842.5,275.6,840.6,275.6L840.6,275.6z"/>
					</g>
					<g>
						<path fill="#FFFFFF" d="M842.5,253.4c-0.9,0-1.5-0.7-1.5-1.5v-4.1c0-0.2-0.2-0.4-0.4-0.4c-0.9,0-1.5-0.7-1.5-1.5
							s0.7-1.5,1.5-1.5c1.9,0,3.5,1.6,3.5,3.5v4.1C844.1,252.7,843.4,253.4,842.5,253.4L842.5,253.4z"/>
					</g>
					<g>
						<path fill="#FFFFFF" d="M840.3,247.4h-19.9c-2.6,0-4.8-2.1-4.8-4.8c0-2.6,2.1-4.8,4.8-4.8h22.2c0.9,0,1.5,0.7,1.5,1.5
							s-0.7,1.5-1.5,1.5h-22.2c-0.9,0-1.7,0.8-1.7,1.7c0,0.9,0.8,1.7,1.7,1.7h19.9c0.9,0,1.5,0.7,1.5,1.5S841.1,247.4,840.3,247.4
							L840.3,247.4z"/>
					</g>
				</g>
				<g>
					<path fill="#FFFFFF" d="M832.1,253h-9.4c-0.4,0-0.8-0.3-0.8-0.8c0-0.4,0.3-0.8,0.8-0.8h9.4c0.4,0,0.8,0.3,0.8,0.8
						C832.9,252.7,832.6,253,832.1,253L832.1,253z"/>
				</g>
				<g>
					<path fill="#FFFFFF" d="M832.1,257.3h-9.4c-0.4,0-0.8-0.3-0.8-0.8c0-0.4,0.3-0.8,0.8-0.8h9.4c0.4,0,0.8,0.3,0.8,0.8
						C832.9,256.9,832.6,257.3,832.1,257.3L832.1,257.3z"/>
				</g>
			</g>
		</g>
	</g>
</g>
<g>
	<rect x="764" y="364" fill="#455565" width="133.4" height="133.4"/>
	<g>
		<g>
			<g>
				<g>
					<path fill="#FFFFFF" d="M806.5,478.6h2.4v1.2c0.6-0.7,1.3-1.4,2.5-1.4c1.8,0,2.9,1.2,2.9,3.2v5.6H812v-4.8
						c0-1.2-0.5-1.7-1.5-1.7c-0.9,0-1.5,0.6-1.5,1.7v4.8h-2.4V478.6z"/>
					<path fill="#FFFFFF" d="M816.1,483L816.1,483c0-2.5,2-4.5,4.7-4.5c2.7,0,4.6,2,4.6,4.4v0c0,2.5-2,4.5-4.7,4.5
						C818.1,487.4,816.1,485.4,816.1,483z M823,483L823,483c0-1.3-0.9-2.4-2.3-2.4c-1.4,0-2.2,1.1-2.2,2.3v0c0,1.3,0.9,2.4,2.3,2.4
						C822.1,485.3,823,484.2,823,483z"/>
					<path fill="#FFFFFF" d="M826.7,482.9L826.7,482.9c0-2.9,1.9-4.5,3.9-4.5c1.3,0,2.1,0.6,2.7,1.3v-4.2h2.4v11.7h-2.4V486
						c-0.6,0.8-1.4,1.4-2.7,1.4C828.6,487.4,826.7,485.8,826.7,482.9z M833.3,482.9L833.3,482.9c0-1.5-0.9-2.4-2.1-2.4
						s-2.1,0.9-2.1,2.4v0c0,1.4,1,2.4,2.1,2.4S833.3,484.4,833.3,482.9z"/>
					<path fill="#FFFFFF" d="M837.5,483L837.5,483c0-2.5,1.7-4.5,4.2-4.5c2.9,0,4.2,2.2,4.2,4.7c0,0.2,0,0.4,0,0.6h-6
						c0.2,1.1,1,1.7,2.1,1.7c0.8,0,1.4-0.3,2.1-0.9l1.4,1.2c-0.8,1-2,1.6-3.5,1.6C839.4,487.4,837.5,485.6,837.5,483z M843.6,482.2
						c-0.1-1.1-0.8-1.8-1.8-1.8c-1,0-1.7,0.7-1.9,1.8H843.6z"/>
				</g>
			</g>
		</g>
		<g>
			<g>
				<path fill="#FFFFFF" d="M864.5,463.2h-68c-1.7,0-3.1-1.4-3.1-3.1v-66.8c0-1.7,1.4-3.1,3.1-3.1h68c1.7,0,3.1,1.4,3.1,3.1v66.8
					C867.7,461.8,866.3,463.2,864.5,463.2L864.5,463.2z M799.7,457h61.7v-60.5h-61.7V457L799.7,457z"/>
			</g>
			<g>
				<g>
					<g>
						<path fill="#FFFFFF" d="M831.6,439.7c-0.4,0-0.8-0.2-1.1-0.5c-0.3-0.3-0.5-0.7-0.4-1.2l0.3-5.6c0-0.4,0.2-0.7,0.4-1l16.7-16.7
							c0.6-0.6,1.6-0.6,2.2,0l5.3,5.3c0.6,0.6,0.6,1.6,0,2.2l-16.7,16.7c-0.3,0.3-0.6,0.4-1,0.4L831.6,439.7
							C831.7,439.7,831.6,439.7,831.6,439.7L831.6,439.7z M833.4,433.2l-0.2,3.3l3.3-0.2l15.2-15.2l-3.1-3.1L833.4,433.2
							L833.4,433.2z"/>
					</g>
					<g>
						<path fill="#FFFFFF" d="M851,424.3c-0.2,0-0.4-0.1-0.5-0.2l-4.7-4.7c-0.3-0.3-0.3-0.8,0-1.1c0.3-0.3,0.8-0.3,1.1,0l4.7,4.7
							c0.3,0.3,0.3,0.8,0,1.1C851.4,424.3,851.2,424.3,851,424.3L851,424.3z"/>
					</g>
					<path fill="#FFFFFF" d="M832.5,434.2c-0.1,0-0.2,0-0.3,0c-0.1,0-0.2,0-0.3,0.1l-0.2,3.9l3.7-0.2c0-0.1,0.1-0.3,0.1-0.4
						C835.6,435.7,834.3,434.2,832.5,434.2L832.5,434.2z"/>
				</g>
				<g>
					<g>
						<path fill="#FFFFFF" d="M840.6,445.6h-21.5c-1.9,0-3.5-1.6-3.5-3.5v-28.8c0-0.9,0.7-1.5,1.5-1.5c0.9,0,1.5,0.7,1.5,1.5v28.8
							c0,0.2,0.2,0.4,0.4,0.4h21.5c0.2,0,0.4-0.2,0.4-0.4V433c0-0.9,0.7-1.5,1.5-1.5c0.9,0,1.5,0.7,1.5,1.5v9.1
							C844.1,444.1,842.5,445.6,840.6,445.6L840.6,445.6z"/>
					</g>
					<g>
						<path fill="#FFFFFF" d="M842.5,423.4c-0.9,0-1.5-0.7-1.5-1.5v-4.1c0-0.2-0.2-0.4-0.4-0.4c-0.9,0-1.5-0.7-1.5-1.5
							c0-0.9,0.7-1.5,1.5-1.5c1.9,0,3.5,1.6,3.5,3.5v4.1C844.1,422.7,843.4,423.4,842.5,423.4L842.5,423.4z"/>
					</g>
					<g>
						<path fill="#FFFFFF" d="M840.3,417.4h-19.9c-2.6,0-4.8-2.1-4.8-4.8c0-2.6,2.1-4.8,4.8-4.8h22.2c0.9,0,1.5,0.7,1.5,1.5
							c0,0.9-0.7,1.5-1.5,1.5h-22.2c-0.9,0-1.7,0.8-1.7,1.7c0,0.9,0.8,1.7,1.7,1.7h19.9c0.9,0,1.5,0.7,1.5,1.5
							C841.8,416.7,841.1,417.4,840.3,417.4L840.3,417.4z"/>
					</g>
				</g>
				<g>
					<path fill="#FFFFFF" d="M832.1,423h-9.4c-0.4,0-0.8-0.3-0.8-0.8c0-0.4,0.3-0.8,0.8-0.8h9.4c0.4,0,0.8,0.3,0.8,0.8
						C832.9,422.7,832.6,423,832.1,423L832.1,423z"/>
				</g>
				<g>
					<path fill="#FFFFFF" d="M832.1,427.3h-9.4c-0.4,0-0.8-0.3-0.8-0.8c0-0.4,0.3-0.8,0.8-0.8h9.4c0.4,0,0.8,0.3,0.8,0.8
						C832.9,426.9,832.6,427.3,832.1,427.3L832.1,427.3z"/>
				</g>
			</g>
		</g>
	</g>
</g>
<g>
	<rect x="764" y="24" fill="#455565" width="133.4" height="133.4"/>
	<g>
		<g>
			<g>
				<g>
					<path fill="#FFFFFF" d="M806.5,138.6h2.4v1.2c0.6-0.7,1.3-1.4,2.5-1.4c1.8,0,2.9,1.2,2.9,3.2v5.6H812v-4.8
						c0-1.2-0.5-1.7-1.5-1.7c-0.9,0-1.5,0.6-1.5,1.7v4.8h-2.4V138.6z"/>
					<path fill="#FFFFFF" d="M816.1,143L816.1,143c0-2.5,2-4.5,4.7-4.5c2.7,0,4.6,2,4.6,4.4v0c0,2.5-2,4.5-4.7,4.5
						C818.1,147.4,816.1,145.4,816.1,143z M823,143L823,143c0-1.3-0.9-2.4-2.3-2.4c-1.4,0-2.2,1.1-2.2,2.3v0c0,1.3,0.9,2.4,2.3,2.4
						C822.1,145.3,823,144.2,823,143z"/>
					<path fill="#FFFFFF" d="M826.7,142.9L826.7,142.9c0-2.9,1.9-4.5,3.9-4.5c1.3,0,2.1,0.6,2.7,1.3v-4.2h2.4v11.7h-2.4V146
						c-0.6,0.8-1.4,1.4-2.7,1.4C828.6,147.4,826.7,145.8,826.7,142.9z M833.3,142.9L833.3,142.9c0-1.5-0.9-2.4-2.1-2.4
						s-2.1,0.9-2.1,2.4v0c0,1.4,1,2.4,2.1,2.4S833.3,144.4,833.3,142.9z"/>
					<path fill="#FFFFFF" d="M837.5,143L837.5,143c0-2.5,1.7-4.5,4.2-4.5c2.9,0,4.2,2.2,4.2,4.7c0,0.2,0,0.4,0,0.6h-6
						c0.2,1.1,1,1.7,2.1,1.7c0.8,0,1.4-0.3,2.1-0.9l1.4,1.2c-0.8,1-2,1.6-3.5,1.6C839.4,147.4,837.5,145.6,837.5,143z M843.6,142.2
						c-0.1-1.1-0.8-1.8-1.8-1.8c-1,0-1.7,0.7-1.9,1.8H843.6z"/>
				</g>
			</g>
		</g>
		<g>
			<g>
				<path fill="#FFFFFF" d="M864.5,123.2h-68c-1.7,0-3.1-1.4-3.1-3.1V53.3c0-1.7,1.4-3.1,3.1-3.1h68c1.7,0,3.1,1.4,3.1,3.1v66.8
					C867.7,121.8,866.3,123.2,864.5,123.2L864.5,123.2z M799.7,117h61.7V56.5h-61.7V117L799.7,117z"/>
			</g>
			<g>
				<g>
					<g>
						<path fill="#FFFFFF" d="M831.6,99.7c-0.4,0-0.8-0.2-1.1-0.5c-0.3-0.3-0.5-0.7-0.4-1.2l0.3-5.6c0-0.4,0.2-0.7,0.4-1l16.7-16.7
							c0.6-0.6,1.6-0.6,2.2,0L855,80c0.6,0.6,0.6,1.6,0,2.2l-16.7,16.7c-0.3,0.3-0.6,0.4-1,0.4L831.6,99.7
							C831.7,99.7,831.6,99.7,831.6,99.7L831.6,99.7z M833.4,93.2l-0.2,3.3l3.3-0.2l15.2-15.2l-3.1-3.1L833.4,93.2L833.4,93.2z"/>
					</g>
					<g>
						<path fill="#FFFFFF" d="M851,84.3c-0.2,0-0.4-0.1-0.5-0.2l-4.7-4.7c-0.3-0.3-0.3-0.8,0-1.1c0.3-0.3,0.8-0.3,1.1,0l4.7,4.7
							c0.3,0.3,0.3,0.8,0,1.1C851.4,84.3,851.2,84.3,851,84.3L851,84.3z"/>
					</g>
					<path fill="#FFFFFF" d="M832.5,94.2c-0.1,0-0.2,0-0.3,0c-0.1,0-0.2,0-0.3,0.1l-0.2,3.9l3.7-0.2c0-0.1,0.1-0.3,0.1-0.4
						C835.6,95.7,834.3,94.2,832.5,94.2L832.5,94.2z"/>
				</g>
				<g>
					<g>
						<path fill="#FFFFFF" d="M840.6,105.6h-21.5c-1.9,0-3.5-1.6-3.5-3.5V73.3c0-0.9,0.7-1.5,1.5-1.5c0.9,0,1.5,0.7,1.5,1.5v28.8
							c0,0.2,0.2,0.4,0.4,0.4h21.5c0.2,0,0.4-0.2,0.4-0.4V93c0-0.9,0.7-1.5,1.5-1.5c0.9,0,1.5,0.7,1.5,1.5v9.1
							C844.1,104.1,842.5,105.6,840.6,105.6L840.6,105.6z"/>
					</g>
					<g>
						<path fill="#FFFFFF" d="M842.5,83.4c-0.9,0-1.5-0.7-1.5-1.5v-4.1c0-0.2-0.2-0.4-0.4-0.4c-0.9,0-1.5-0.7-1.5-1.5
							c0-0.9,0.7-1.5,1.5-1.5c1.9,0,3.5,1.6,3.5,3.5v4.1C844.1,82.7,843.4,83.4,842.5,83.4L842.5,83.4z"/>
					</g>
					<g>
						<path fill="#FFFFFF" d="M840.3,77.4h-19.9c-2.6,0-4.8-2.1-4.8-4.8c0-2.6,2.1-4.8,4.8-4.8h22.2c0.9,0,1.5,0.7,1.5,1.5
							c0,0.9-0.7,1.5-1.5,1.5h-22.2c-0.9,0-1.7,0.8-1.7,1.7c0,0.9,0.8,1.7,1.7,1.7h19.9c0.9,0,1.5,0.7,1.5,1.5
							S841.1,77.4,840.3,77.4L840.3,77.4z"/>
					</g>
				</g>
				<g>
					<path fill="#FFFFFF" d="M832.1,83h-9.4c-0.4,0-0.8-0.3-0.8-0.8c0-0.4,0.3-0.8,0.8-0.8h9.4c0.4,0,0.8,0.3,0.8,0.8
						C832.9,82.7,832.6,83,832.1,83L832.1,83z"/>
				</g>
				<g>
					<path fill="#FFFFFF" d="M832.1,87.3h-9.4c-0.4,0-0.8-0.3-0.8-0.8c0-0.4,0.3-0.8,0.8-0.8h9.4c0.4,0,0.8,0.3,0.8,0.8
						C832.9,86.9,832.6,87.3,832.1,87.3L832.1,87.3z"/>
				</g>
			</g>
		</g>
	</g>
</g>
<g>
	<g>
		<line fill="none" stroke="#80888D" stroke-width="4" stroke-miterlimit="10" x1="461" y1="261" x2="739" y2="261"/>
		<g>
			<polygon fill="#80888D" points="737,268.7 750.8,260.7 737,252.8 			"/>
		</g>
	</g>
</g>
<g>
	<g>
		<polyline fill="none" stroke="#80888D" stroke-width="4" stroke-miterlimit="10" points="740,430 709,430 709,91 740,91 		"/>
		<g>
			<polygon fill="#80888D" points="737,422.3 750.8,430.2 737,438.2 			"/>
		</g>
		<g>
			<polygon fill="#80888D" points="737,99.2 750.8,91.2 737,83.3 			"/>
		</g>
	</g>
</g>
<polyline fill="none" stroke="#7F888D" stroke-width="4" stroke-miterlimit="10" points="621,274.7 621,496 537,496 "/>
<g>
	<rect x="558" y="246.5" fill="#FFFFFF" width="121" height="28.5"/>
	<g>
		<g>
			<g>
				<path fill="#455565" d="M564.8,264.5l1.5-1.7c1,0.8,2.1,1.4,3.3,1.4c1,0,1.6-0.4,1.6-1.1v0c0-0.6-0.4-0.9-2.3-1.4
					c-2.3-0.6-3.7-1.2-3.7-3.4v0c0-2,1.6-3.4,3.9-3.4c1.6,0,3,0.5,4.2,1.4l-1.3,1.9c-1-0.7-2-1.1-2.9-1.1s-1.4,0.4-1.4,1v0
					c0,0.7,0.5,1,2.4,1.5c2.3,0.6,3.6,1.4,3.6,3.4v0c0,2.2-1.7,3.5-4.1,3.5C567.9,266.3,566.1,265.7,564.8,264.5z"/>
				<path fill="#455565" d="M574.9,264.5l1.5-1.7c1,0.8,2.1,1.4,3.3,1.4c1,0,1.6-0.4,1.6-1.1v0c0-0.6-0.4-0.9-2.3-1.4
					c-2.3-0.6-3.7-1.2-3.7-3.4v0c0-2,1.6-3.4,3.9-3.4c1.6,0,3,0.5,4.2,1.4l-1.3,1.9c-1-0.7-2-1.1-2.9-1.1s-1.4,0.4-1.4,1v0
					c0,0.7,0.5,1,2.4,1.5c2.3,0.6,3.6,1.4,3.6,3.4v0c0,2.2-1.7,3.5-4.1,3.5C577.9,266.3,576.2,265.7,574.9,264.5z"/>
				<path fill="#455565" d="M585.9,254.9h2.5v4.4h4.5v-4.4h2.5v11.2h-2.5v-4.5h-4.5v4.5h-2.5V254.9z"/>
				<path fill="#455565" d="M608.1,253.4h2.1l-7.1,14.8h-2.1L608.1,253.4z"/>
				<path fill="#455565" d="M615.3,254.9h2.6l2.3,7.6l2.5-7.6h2.1l2.5,7.6l2.3-7.6h2.6l-3.8,11.3h-2.1l-2.5-7.3l-2.5,7.3h-2.1
					L615.3,254.9z"/>
				<path fill="#455565" d="M633.6,254.5h2.6v2.2h-2.6V254.5z M633.7,257.6h2.4v8.6h-2.4V257.6z"/>
				<path fill="#455565" d="M638.4,257.6h2.4v1.2c0.6-0.7,1.3-1.4,2.5-1.4c1.8,0,2.9,1.2,2.9,3.2v5.6h-2.4v-4.8
					c0-1.2-0.5-1.7-1.5-1.7c-0.9,0-1.5,0.6-1.5,1.7v4.8h-2.4V257.6z"/>
				<path fill="#455565" d="M648.6,254.9h5.1c1.4,0,2.5,0.4,3.3,1.1c0.6,0.6,1,1.5,1,2.6v0c0,1.8-1,2.9-2.4,3.5l2.7,4h-2.9l-2.4-3.6
					h0h-1.9v3.6h-2.5V254.9z M653.6,260.4c1.2,0,1.9-0.6,1.9-1.6v0c0-1.1-0.7-1.6-1.9-1.6h-2.4v3.2H653.6z"/>
				<path fill="#455565" d="M660.2,254.9h2.7l2.9,4.7l2.9-4.7h2.7v11.2H669v-7.3l-3.2,4.8h-0.1l-3.1-4.7v7.3h-2.4V254.9z"/>
			</g>
		</g>
	</g>
</g>
</svg>
