<?xml version="1.0" encoding="utf-8"?>
<!-- Generator: Adobe Illustrator 19.1.0, SVG Export Plug-In . SVG Version: 6.00 Build 0)  -->
<svg version="1.1" id="Layer_1" xmlns="http://www.w3.org/2000/svg" xmlns:xlink="http://www.w3.org/1999/xlink" x="0px" y="0px"
	 viewBox="-329 157.9 299.5 247.1" style="enable-background:new -329 157.9 299.5 247.1;" xml:space="preserve">
<style type="text/css">
	.st0{fill:#445464;}
	.st1{fill:#445464;stroke:#D1D3D4;stroke-miterlimit:10;}
	.st2{fill:#FFFFFF;}
	.st3{fill:#6CB2E2;}
	.st4{fill:#59B8B3;}
	.st5{fill:none;}
</style>
<rect x="-285.1" y="253.7" class="st0" width="204.2" height="13.4"/>
<ellipse class="st1" cx="-81" cy="260.4" rx="3.2" ry="6.7"/>
<g>
	<g>
		<path class="st2" d="M-281,256.1h3.4c2,0,3.2,1.2,3.2,2.9l0,0c0,1.9-1.5,3-3.4,3h-1.4v2.5h-1.8V256.1z M-277.7,260.3
			c0.9,0,1.5-0.6,1.5-1.3l0,0c0-0.8-0.6-1.3-1.5-1.3h-1.4v2.6C-279.1,260.3-277.7,260.3-277.7,260.3z"/>
		<path class="st2" d="M-273.2,258.1h1.8v1.3c0.4-0.9,1-1.5,2.1-1.4v1.9h-0.1c-1.2,0-2,0.7-2,2.3v2.4h-1.8V258.1z"/>
		<path class="st2" d="M-268.6,261.3L-268.6,261.3c0-1.9,1.5-3.4,3.5-3.4s3.5,1.5,3.5,3.3l0,0c0,1.8-1.5,3.3-3.5,3.3
			C-267.2,264.6-268.6,263.1-268.6,261.3z M-263.5,261.3L-263.5,261.3c0-1-0.7-1.8-1.7-1.8s-1.7,0.8-1.7,1.8l0,0
			c0,0.9,0.7,1.8,1.7,1.8C-264.1,263.1-263.5,262.2-263.5,261.3z"/>
		<path class="st2" d="M-261.3,266.4v-1.5c0.1,0,0.3,0,0.4,0c0.4,0,0.6-0.2,0.6-0.7V258h1.8v6.3c0,1.4-0.7,2.1-2.1,2.1
			C-260.9,266.4-261.1,266.4-261.3,266.4z M-260.3,255.7h1.9v1.6h-1.9V255.7z"/>
		<path class="st2" d="M-257,261.3L-257,261.3c0-1.9,1.3-3.4,3.2-3.4c2.1,0,3.1,1.7,3.1,3.5c0,0.1,0,0.3,0,0.5h-4.5
			c0.2,0.8,0.8,1.3,1.6,1.3c0.6,0,1.1-0.2,1.6-0.7l1,0.9c-0.6,0.7-1.5,1.2-2.6,1.2C-255.6,264.6-257,263.3-257,261.3z M-252.5,260.8
			c-0.1-0.8-0.6-1.4-1.4-1.4c-0.8,0-1.2,0.5-1.4,1.4H-252.5z"/>
		<path class="st2" d="M-249.7,261.3L-249.7,261.3c0-1.9,1.4-3.4,3.4-3.4c1.2,0,2,0.4,2.6,1.1l-1.1,1.2c-0.4-0.4-0.8-0.7-1.5-0.7
			c-0.9,0-1.6,0.8-1.6,1.8l0,0c0,1,0.6,1.8,1.6,1.8c0.6,0,1-0.3,1.5-0.7l1.1,1.1c-0.6,0.7-1.3,1.2-2.6,1.2
			C-248.3,264.6-249.7,263.1-249.7,261.3z"/>
		<path class="st2" d="M-242.2,262.7v-3h-0.8v-1.6h0.8v-1.6h1.8v1.6h1.5v1.6h-1.5v2.7c0,0.4,0.2,0.6,0.6,0.6c0.3,0,0.6-0.1,0.9-0.2
			v1.5c-0.4,0.2-0.8,0.4-1.4,0.4C-241.5,264.6-242.2,264.1-242.2,262.7z"/>
		<path class="st2" d="M-234.1,260.3L-234.1,260.3c0-2.4,1.8-4.4,4.4-4.4c1.6,0,2.5,0.5,3.3,1.3l-1.2,1.4c-0.6-0.6-1.3-0.9-2.1-0.9
			c-1.4,0-2.4,1.2-2.4,2.6l0,0c0,1.4,1,2.6,2.4,2.6c1,0,1.5-0.4,2.2-1l1.2,1.2c-0.9,0.9-1.8,1.5-3.4,1.5
			C-232.3,264.6-234.1,262.7-234.1,260.3z"/>
	</g>
</g>
<g>
	<g>
		<path class="st3" d="M-165.2,252.5l-10.4-8.9c-0.4-0.3-0.9-0.3-1.3,0l-10.5,8.9c-0.2,0.2-0.3,0.5-0.3,0.8v13.2
			c0,1.3,1.1,2.4,2.4,2.4h18.2c1.3,0,2.4-1.1,2.4-2.4v-13.2C-164.8,253-165,252.7-165.2,252.5z M-166.8,266.5c0,0.2-0.2,0.4-0.4,0.4
			h-18.2c-0.2,0-0.4-0.2-0.4-0.4v-12.8h18.9L-166.8,266.5L-166.8,266.5z"/>
	</g>
	<g>
		<g>
			<path class="st2" d="M-177.2,255.7h1.8l3.9,9.2h-2.1l-0.8-2h-3.8l-0.8,2h-2L-177.2,255.7z M-175.1,261l-1.2-3l-1.2,3H-175.1z"/>
		</g>
	</g>
</g>
<rect x="-285.1" y="213.7" class="st0" width="204.2" height="13.4"/>
<ellipse class="st1" cx="-81" cy="220.4" rx="3.2" ry="6.7"/>
<g>
	<g>
		<path class="st2" d="M-281,216.1h3.4c2,0,3.2,1.2,3.2,2.9l0,0c0,1.9-1.5,3-3.4,3h-1.4v2.5h-1.8V216.1z M-277.7,220.3
			c0.9,0,1.5-0.6,1.5-1.3l0,0c0-0.8-0.6-1.3-1.5-1.3h-1.4v2.6H-277.7z"/>
		<path class="st2" d="M-273.2,218.1h1.8v1.3c0.4-0.9,1-1.5,2.1-1.4v1.9h-0.1c-1.2,0-2,0.7-2,2.3v2.4h-1.8V218.1z"/>
		<path class="st2" d="M-268.6,221.3L-268.6,221.3c0-1.9,1.5-3.4,3.5-3.4s3.5,1.5,3.5,3.3l0,0c0,1.8-1.5,3.3-3.5,3.3
			C-267.2,224.6-268.6,223.1-268.6,221.3z M-263.5,221.3L-263.5,221.3c0-1-0.7-1.8-1.7-1.8s-1.7,0.8-1.7,1.8l0,0
			c0,0.9,0.7,1.8,1.7,1.8C-264.1,223.1-263.5,222.2-263.5,221.3z"/>
		<path class="st2" d="M-261.3,226.4v-1.5c0.1,0,0.3,0,0.4,0c0.4,0,0.6-0.2,0.6-0.7V218h1.8v6.3c0,1.4-0.7,2.1-2.1,2.1
			C-260.9,226.4-261.1,226.4-261.3,226.4z M-260.3,215.7h1.9v1.6h-1.9V215.7z"/>
		<path class="st2" d="M-257,221.3L-257,221.3c0-1.9,1.3-3.4,3.2-3.4c2.1,0,3.1,1.7,3.1,3.5c0,0.1,0,0.3,0,0.5h-4.5
			c0.2,0.8,0.8,1.3,1.6,1.3c0.6,0,1.1-0.2,1.6-0.7l1,0.9c-0.6,0.7-1.5,1.2-2.6,1.2C-255.6,224.6-257,223.3-257,221.3z M-252.5,220.8
			c-0.1-0.8-0.6-1.4-1.4-1.4c-0.8,0-1.2,0.5-1.4,1.4H-252.5z"/>
		<path class="st2" d="M-249.7,221.3L-249.7,221.3c0-1.9,1.4-3.4,3.4-3.4c1.2,0,2,0.4,2.6,1.1l-1.1,1.2c-0.4-0.4-0.8-0.7-1.5-0.7
			c-0.9,0-1.6,0.8-1.6,1.8l0,0c0,1,0.6,1.8,1.6,1.8c0.6,0,1-0.3,1.5-0.7l1.1,1.1c-0.6,0.7-1.3,1.2-2.6,1.2
			C-248.3,224.6-249.7,223.1-249.7,221.3z"/>
		<path class="st2" d="M-242.2,222.7v-3h-0.8v-1.6h0.8v-1.6h1.8v1.6h1.5v1.6h-1.5v2.7c0,0.4,0.2,0.6,0.6,0.6c0.3,0,0.6-0.1,0.9-0.2
			v1.5c-0.4,0.2-0.8,0.4-1.4,0.4C-241.5,224.6-242.2,224.1-242.2,222.7z"/>
		<path class="st2" d="M-233.8,216.1h3.9c1,0,1.7,0.3,2.2,0.7c0.4,0.4,0.6,0.9,0.6,1.4l0,0c0,0.9-0.5,1.5-1.1,1.8
			c1,0.4,1.6,0.9,1.6,2.1l0,0c0,1.5-1.2,2.3-3.1,2.3h-4L-233.8,216.1L-233.8,216.1z M-230.3,219.5c0.8,0,1.3-0.3,1.3-0.9l0,0
			c0-0.6-0.4-0.9-1.2-0.9h-1.8v1.8C-232,219.5-230.3,219.5-230.3,219.5z M-229.8,222.9c0.8,0,1.3-0.3,1.3-0.9l0,0
			c0-0.6-0.4-0.9-1.4-0.9h-2.1v1.8H-229.8z"/>
	</g>
</g>
<g>
	<g>
		<path class="st3" d="M-165.2,212.5l-10.4-8.9c-0.4-0.3-0.9-0.3-1.3,0l-10.5,8.9c-0.2,0.2-0.3,0.5-0.3,0.8v13.2
			c0,1.3,1.1,2.4,2.4,2.4h18.2c1.3,0,2.4-1.1,2.4-2.4v-13.2C-164.8,213-165,212.7-165.2,212.5z M-166.8,226.5c0,0.2-0.2,0.4-0.4,0.4
			h-18.2c-0.2,0-0.4-0.2-0.4-0.4v-12.8h18.9L-166.8,226.5L-166.8,226.5z"/>
	</g>
	<g>
		<g>
			<path class="st2" d="M-177.2,215.7h1.8l3.9,9.2h-2.1l-0.8-2h-3.8l-0.8,2h-2L-177.2,215.7z M-175.1,221l-1.2-3l-1.2,3H-175.1z"/>
		</g>
	</g>
</g>
<rect x="-285.1" y="173.7" class="st0" width="204.2" height="13.4"/>
<ellipse class="st1" cx="-81" cy="180.4" rx="3.2" ry="6.7"/>
<g>
	<g>
		<path class="st2" d="M-281,176.1h3.4c2,0,3.2,1.2,3.2,2.9l0,0c0,1.9-1.5,3-3.4,3h-1.4v2.5h-1.8V176.1z M-277.7,180.3
			c0.9,0,1.5-0.6,1.5-1.3l0,0c0-0.8-0.6-1.3-1.5-1.3h-1.4v2.6C-279.1,180.3-277.7,180.3-277.7,180.3z"/>
		<path class="st2" d="M-273.2,178.1h1.8v1.3c0.4-0.9,1-1.5,2.1-1.4v1.9h-0.1c-1.2,0-2,0.7-2,2.3v2.4h-1.8V178.1z"/>
		<path class="st2" d="M-268.6,181.3L-268.6,181.3c0-1.9,1.5-3.4,3.5-3.4s3.5,1.5,3.5,3.3l0,0c0,1.8-1.5,3.3-3.5,3.3
			C-267.2,184.6-268.6,183.1-268.6,181.3z M-263.5,181.3L-263.5,181.3c0-1-0.7-1.8-1.7-1.8s-1.7,0.8-1.7,1.8l0,0
			c0,0.9,0.7,1.8,1.7,1.8C-264.1,183.1-263.5,182.2-263.5,181.3z"/>
		<path class="st2" d="M-261.3,186.4v-1.5c0.1,0,0.3,0,0.4,0c0.4,0,0.6-0.2,0.6-0.7V178h1.8v6.3c0,1.4-0.7,2.1-2.1,2.1
			C-260.9,186.4-261.1,186.4-261.3,186.4z M-260.3,175.7h1.9v1.6h-1.9V175.7z"/>
		<path class="st2" d="M-257,181.3L-257,181.3c0-1.9,1.3-3.4,3.2-3.4c2.1,0,3.1,1.7,3.1,3.5c0,0.1,0,0.3,0,0.5h-4.5
			c0.2,0.8,0.8,1.3,1.6,1.3c0.6,0,1.1-0.2,1.6-0.7l1,0.9c-0.6,0.7-1.5,1.2-2.6,1.2C-255.6,184.6-257,183.3-257,181.3z M-252.5,180.8
			c-0.1-0.8-0.6-1.4-1.4-1.4c-0.8,0-1.2,0.5-1.4,1.4H-252.5z"/>
		<path class="st2" d="M-249.7,181.3L-249.7,181.3c0-1.9,1.4-3.4,3.4-3.4c1.2,0,2,0.4,2.6,1.1l-1.1,1.2c-0.4-0.4-0.8-0.7-1.5-0.7
			c-0.9,0-1.6,0.8-1.6,1.8l0,0c0,1,0.6,1.8,1.6,1.8c0.6,0,1-0.3,1.5-0.7l1.1,1.1c-0.6,0.7-1.3,1.2-2.6,1.2
			C-248.3,184.6-249.7,183.1-249.7,181.3z"/>
		<path class="st2" d="M-242.2,182.7v-3h-0.8v-1.6h0.8v-1.6h1.8v1.6h1.5v1.6h-1.5v2.7c0,0.4,0.2,0.6,0.6,0.6c0.3,0,0.6-0.1,0.9-0.2
			v1.5c-0.4,0.2-0.8,0.4-1.4,0.4C-241.5,184.6-242.2,184.1-242.2,182.7z"/>
		<path class="st2" d="M-230.9,176h1.7l3.6,8.5h-1.9l-0.8-1.9h-3.5l-0.8,1.9h-1.9L-230.9,176z M-228.9,181l-1.1-2.8l-1.1,2.7h2.2
			V181z"/>
	</g>
</g>
<g>
	<g>
		<g>
			<path class="st2" d="M-179.9,175.9h4.2c1,0,1.9,0.3,2.4,0.8c0.4,0.4,0.6,0.9,0.6,1.5l0,0c0,1-0.5,1.6-1.2,2
				c1.1,0.4,1.7,1,1.7,2.2l0,0c0,1.7-1.4,2.5-3.4,2.5h-4.3V175.9z M-176.1,179.6c0.9,0,1.4-0.3,1.4-1l0,0c0-0.6-0.5-0.9-1.3-0.9h-2
				v1.9H-176.1z M-175.6,183.3c0.9,0,1.4-0.3,1.4-1l0,0c0-0.6-0.5-1-1.5-1h-2.3v2H-175.6z"/>
		</g>
	</g>
	<g>
		<path class="st4" d="M-187.4,188.3l10.4,8.9c0.4,0.3,0.9,0.3,1.3,0l10.5-8.9c0.2-0.2,0.3-0.5,0.3-0.8v-13.2c0-1.3-1.1-2.4-2.4-2.4
			h-18.2c-1.3,0-2.4,1.1-2.4,2.4v13.2C-187.7,187.9-187.6,188.1-187.4,188.3z M-185.7,174.3c0-0.2,0.2-0.4,0.4-0.4h18.2
			c0.2,0,0.4,0.2,0.4,0.4v12.8h-18.9L-185.7,174.3L-185.7,174.3z"/>
	</g>
</g>
<g>
	<g>
		<g>
			<path class="st2" d="M-154.4,180.5L-154.4,180.5c0-2.6,2-4.7,4.7-4.7c1.7,0,2.7,0.6,3.6,1.4l-1.3,1.5c-0.7-0.6-1.4-1-2.3-1
				c-1.5,0-2.6,1.3-2.6,2.8l0,0c0,1.6,1.1,2.9,2.6,2.9c1,0,1.7-0.4,2.4-1.1l1.3,1.3c-0.9,1-2,1.6-3.7,1.6
				C-152.4,185.2-154.4,183.1-154.4,180.5z"/>
		</g>
	</g>
	<g>
		<path class="st4" d="M-161.4,188.3l10.4,8.9c0.4,0.3,0.9,0.3,1.3,0l10.5-8.9c0.2-0.2,0.3-0.5,0.3-0.8v-13.2c0-1.3-1.1-2.4-2.4-2.4
			h-18.2c-1.3,0-2.4,1.1-2.4,2.4v13.2C-161.7,187.9-161.6,188.1-161.4,188.3z M-159.7,174.3c0-0.2,0.2-0.4,0.4-0.4h18.2
			c0.2,0,0.4,0.2,0.4,0.4v12.8h-18.9L-159.7,174.3L-159.7,174.3z"/>
	</g>
</g>
<rect x="-285.1" y="333.7" class="st0" width="204.2" height="13.4"/>
<ellipse class="st1" cx="-81" cy="340.4" rx="3.2" ry="6.7"/>
<g>
	<g>
		<path class="st2" d="M-281,336.1h3.4c2,0,3.2,1.2,3.2,2.9l0,0c0,1.9-1.5,3-3.4,3h-1.4v2.5h-1.8V336.1z M-277.7,340.3
			c0.9,0,1.5-0.6,1.5-1.3l0,0c0-0.8-0.6-1.3-1.5-1.3h-1.4v2.6H-277.7z"/>
		<path class="st2" d="M-273.2,338.1h1.8v1.3c0.4-0.9,1-1.5,2.1-1.4v1.9h-0.1c-1.2,0-2,0.7-2,2.3v2.4h-1.8V338.1z"/>
		<path class="st2" d="M-268.6,341.3L-268.6,341.3c0-1.9,1.5-3.4,3.5-3.4s3.5,1.5,3.5,3.3l0,0c0,1.8-1.5,3.3-3.5,3.3
			C-267.2,344.6-268.6,343.1-268.6,341.3z M-263.5,341.3L-263.5,341.3c0-1-0.7-1.8-1.7-1.8s-1.7,0.8-1.7,1.8l0,0
			c0,0.9,0.7,1.8,1.7,1.8C-264.1,343.1-263.5,342.2-263.5,341.3z"/>
		<path class="st2" d="M-261.3,346.4v-1.5c0.1,0,0.3,0,0.4,0c0.4,0,0.6-0.2,0.6-0.7V338h1.8v6.3c0,1.4-0.7,2.1-2.1,2.1
			C-260.9,346.4-261.1,346.4-261.3,346.4z M-260.3,335.7h1.9v1.6h-1.9V335.7z"/>
		<path class="st2" d="M-257,341.3L-257,341.3c0-1.9,1.3-3.4,3.2-3.4c2.1,0,3.1,1.7,3.1,3.5c0,0.1,0,0.3,0,0.5h-4.5
			c0.2,0.8,0.8,1.3,1.6,1.3c0.6,0,1.1-0.2,1.6-0.7l1,0.9c-0.6,0.7-1.5,1.2-2.6,1.2C-255.6,344.6-257,343.3-257,341.3z M-252.5,340.8
			c-0.1-0.8-0.6-1.4-1.4-1.4c-0.8,0-1.2,0.5-1.4,1.4H-252.5z"/>
		<path class="st2" d="M-249.7,341.3L-249.7,341.3c0-1.9,1.4-3.4,3.4-3.4c1.2,0,2,0.4,2.6,1.1l-1.1,1.2c-0.4-0.4-0.8-0.7-1.5-0.7
			c-0.9,0-1.6,0.8-1.6,1.8l0,0c0,1,0.6,1.8,1.6,1.8c0.6,0,1-0.3,1.5-0.7l1.1,1.1c-0.6,0.7-1.3,1.2-2.6,1.2
			C-248.3,344.6-249.7,343.1-249.7,341.3z"/>
		<path class="st2" d="M-242.2,342.7v-3h-0.8v-1.6h0.8v-1.6h1.8v1.6h1.5v1.6h-1.5v2.7c0,0.4,0.2,0.6,0.6,0.6c0.3,0,0.6-0.1,0.9-0.2
			v1.5c-0.4,0.2-0.8,0.4-1.4,0.4C-241.5,344.6-242.2,344.1-242.2,342.7z"/>
		<path class="st2" d="M-231.5,340.2l-2.8-4.1h2.2l1.8,2.7l1.8-2.7h2.1l-2.8,4.1l2.9,4.3h-2.2l-1.9-2.9l-1.9,2.9h-2.1L-231.5,340.2z
			"/>
	</g>
</g>
<g>
	<g>
		<g>
			<path class="st2" d="M-177.3,341.4l-3.5-5.5h2.3l2.2,3.7l2.2-3.7h2.3l-3.5,5.5v3.6h-2V341.4z"/>
		</g>
	</g>
	<g>
		<path class="st4" d="M-187.4,348.3l10.4,8.9c0.4,0.3,0.9,0.3,1.3,0l10.5-8.9c0.2-0.2,0.3-0.5,0.3-0.8v-13.2c0-1.3-1.1-2.4-2.4-2.4
			h-18.2c-1.3,0-2.4,1.1-2.4,2.4v13.2C-187.7,347.9-187.6,348.1-187.4,348.3z M-185.7,334.3c0-0.2,0.2-0.4,0.4-0.4h18.2
			c0.2,0,0.4,0.2,0.4,0.4v12.8h-18.9L-185.7,334.3L-185.7,334.3z"/>
	</g>
</g>
<rect x="-285.1" y="373.7" class="st0" width="204.2" height="13.4"/>
<ellipse class="st1" cx="-81" cy="380.4" rx="3.2" ry="6.7"/>
<g>
	<g>
		<path class="st2" d="M-281,376.1h3.4c2,0,3.2,1.2,3.2,2.9l0,0c0,1.9-1.5,3-3.4,3h-1.4v2.5h-1.8V376.1z M-277.7,380.3
			c0.9,0,1.5-0.6,1.5-1.3l0,0c0-0.8-0.6-1.3-1.5-1.3h-1.4v2.6H-277.7z"/>
		<path class="st2" d="M-273.2,378.1h1.8v1.3c0.4-0.9,1-1.5,2.1-1.4v1.9h-0.1c-1.2,0-2,0.7-2,2.3v2.4h-1.8V378.1z"/>
		<path class="st2" d="M-268.6,381.3L-268.6,381.3c0-1.9,1.5-3.4,3.5-3.4s3.5,1.5,3.5,3.3l0,0c0,1.8-1.5,3.3-3.5,3.3
			C-267.2,384.6-268.6,383.1-268.6,381.3z M-263.5,381.3L-263.5,381.3c0-1-0.7-1.8-1.7-1.8s-1.7,0.8-1.7,1.8l0,0
			c0,0.9,0.7,1.8,1.7,1.8C-264.1,383.1-263.5,382.2-263.5,381.3z"/>
		<path class="st2" d="M-261.3,386.4v-1.5c0.1,0,0.3,0,0.4,0c0.4,0,0.6-0.2,0.6-0.7V378h1.8v6.3c0,1.4-0.7,2.1-2.1,2.1
			C-260.9,386.4-261.1,386.4-261.3,386.4z M-260.3,375.7h1.9v1.6h-1.9V375.7z"/>
		<path class="st2" d="M-257,381.3L-257,381.3c0-1.9,1.3-3.4,3.2-3.4c2.1,0,3.1,1.7,3.1,3.5c0,0.1,0,0.3,0,0.5h-4.5
			c0.2,0.8,0.8,1.3,1.6,1.3c0.6,0,1.1-0.2,1.6-0.7l1,0.9c-0.6,0.7-1.5,1.2-2.6,1.2C-255.6,384.6-257,383.3-257,381.3z M-252.5,380.8
			c-0.1-0.8-0.6-1.4-1.4-1.4c-0.8,0-1.2,0.5-1.4,1.4H-252.5z"/>
		<path class="st2" d="M-249.7,381.3L-249.7,381.3c0-1.9,1.4-3.4,3.4-3.4c1.2,0,2,0.4,2.6,1.1l-1.1,1.2c-0.4-0.4-0.8-0.7-1.5-0.7
			c-0.9,0-1.6,0.8-1.6,1.8l0,0c0,1,0.6,1.8,1.6,1.8c0.6,0,1-0.3,1.5-0.7l1.1,1.1c-0.6,0.7-1.3,1.2-2.6,1.2
			C-248.3,384.6-249.7,383.1-249.7,381.3z"/>
		<path class="st2" d="M-242.2,382.7v-3h-0.8v-1.6h0.8v-1.6h1.8v1.6h1.5v1.6h-1.5v2.7c0,0.4,0.2,0.6,0.6,0.6c0.3,0,0.6-0.1,0.9-0.2
			v1.5c-0.4,0.2-0.8,0.4-1.4,0.4C-241.5,384.6-242.2,384.1-242.2,382.7z"/>
		<path class="st2" d="M-231.4,381.2l-3.2-5.1h2.2l2,3.4l2-3.4h2.1l-3.2,5v3.3h-1.8L-231.4,381.2L-231.4,381.2z"/>
	</g>
</g>
<g>
	<g>
		<path class="st3" d="M-165.2,372.5l-10.4-8.9c-0.4-0.3-0.9-0.3-1.3,0l-10.5,8.9c-0.2,0.2-0.3,0.5-0.3,0.8v13.2
			c0,1.3,1.1,2.4,2.4,2.4h18.2c1.3,0,2.4-1.1,2.4-2.4v-13.2C-164.8,373-165,372.7-165.2,372.5z M-166.8,386.5c0,0.2-0.2,0.4-0.4,0.4
			h-18.2c-0.2,0-0.4-0.2-0.4-0.4v-12.8h18.9L-166.8,386.5L-166.8,386.5z"/>
	</g>
	<g>
		<g>
			<path class="st2" d="M-177.5,380.2l-3-4.5h2.3l1.9,3l1.9-3h2.3l-3,4.4l3.2,4.7h-2.3l-2-3.1l-2.1,3.1h-2.3L-177.5,380.2z"/>
		</g>
	</g>
</g>
<rect x="-329" y="157.9" class="st5" width="299.5" height="247.1"/>
</svg>
