<?xml version="1.0" encoding="utf-8"?>
<!-- Generator: Adobe Illustrator 19.1.0, SVG Export Plug-In . SVG Version: 6.00 Build 0)  -->
<svg version="1.1" id="Layer_1" xmlns="http://www.w3.org/2000/svg" xmlns:xlink="http://www.w3.org/1999/xlink" x="0px" y="0px"
	 viewBox="0 0 328.1 247.1" enable-background="new 0 0 328.1 247.1" xml:space="preserve">
<g>
	<rect x="42.3" y="15.8" fill="#445464" width="234.3" height="13.4"/>
	<rect x="42.3" y="55.8" fill="#445464" width="234.3" height="13.4"/>
	<rect x="42.3" y="95.8" fill="#445464" width="234.3" height="13.4"/>
	<rect x="42.3" y="175.8" fill="#445464" width="234.3" height="13.4"/>
	<ellipse fill="#445464" stroke="#D1D3D4" stroke-miterlimit="10" cx="276.7" cy="102.5" rx="3.2" ry="6.7"/>
	<g>
		<g>
			<path fill="#FFFFFF" d="M46.7,98.2h3.4c2,0,3.2,1.2,3.2,2.9v0c0,1.9-1.5,3-3.4,3h-1.4v2.5h-1.8V98.2z M50,102.4
				c0.9,0,1.5-0.6,1.5-1.3v0c0-0.8-0.6-1.3-1.5-1.3h-1.4v2.6H50z"/>
			<path fill="#FFFFFF" d="M54.5,100.2h1.8v1.3c0.4-0.9,1-1.5,2.1-1.4v1.9h-0.1c-1.2,0-2,0.7-2,2.3v2.4h-1.8V100.2z"/>
			<path fill="#FFFFFF" d="M59,103.4L59,103.4c0-1.9,1.5-3.4,3.5-3.4c2,0,3.5,1.5,3.5,3.3v0c0,1.8-1.5,3.3-3.5,3.3
				C60.5,106.7,59,105.2,59,103.4z M64.2,103.4L64.2,103.4c0-1-0.7-1.8-1.7-1.8c-1,0-1.7,0.8-1.7,1.8v0c0,0.9,0.7,1.8,1.7,1.8
				C63.5,105.2,64.2,104.3,64.2,103.4z"/>
			<path fill="#FFFFFF" d="M66.3,108.5V107c0.1,0,0.3,0,0.4,0c0.4,0,0.6-0.2,0.6-0.7v-6.2h1.8v6.3c0,1.4-0.7,2.1-2.1,2.1
				C66.8,108.5,66.6,108.5,66.3,108.5z M67.3,97.8h1.9v1.6h-1.9V97.8z"/>
			<path fill="#FFFFFF" d="M70.6,103.4L70.6,103.4c0-1.9,1.3-3.4,3.2-3.4c2.1,0,3.1,1.7,3.1,3.5c0,0.1,0,0.3,0,0.5h-4.5
				c0.2,0.8,0.8,1.3,1.6,1.3c0.6,0,1.1-0.2,1.6-0.7l1,0.9c-0.6,0.7-1.5,1.2-2.6,1.2C72,106.7,70.6,105.4,70.6,103.4z M75.1,102.9
				c-0.1-0.8-0.6-1.4-1.4-1.4c-0.8,0-1.2,0.5-1.4,1.4H75.1z"/>
			<path fill="#FFFFFF" d="M78,103.4L78,103.4c0-1.9,1.4-3.4,3.4-3.4c1.2,0,2,0.4,2.6,1.1l-1.1,1.2c-0.4-0.4-0.8-0.7-1.5-0.7
				c-0.9,0-1.6,0.8-1.6,1.8v0c0,1,0.6,1.8,1.6,1.8c0.6,0,1-0.3,1.5-0.7l1.1,1.1c-0.6,0.7-1.3,1.2-2.6,1.2
				C79.4,106.7,78,105.2,78,103.4z"/>
			<path fill="#FFFFFF" d="M85.4,104.8v-3h-0.8v-1.6h0.8v-1.6h1.8v1.6h1.5v1.6h-1.5v2.7c0,0.4,0.2,0.6,0.6,0.6
				c0.3,0,0.6-0.1,0.9-0.2v1.5c-0.4,0.2-0.8,0.4-1.4,0.4C86.2,106.7,85.4,106.2,85.4,104.8z"/>
			<path fill="#FFFFFF" d="M93.5,102.4L93.5,102.4c0-2.4,1.8-4.4,4.4-4.4c1.6,0,2.5,0.5,3.3,1.3l-1.2,1.4c-0.6-0.6-1.3-0.9-2.1-0.9
				c-1.4,0-2.4,1.2-2.4,2.6v0c0,1.4,1,2.6,2.4,2.6c1,0,1.5-0.4,2.2-1l1.2,1.2c-0.9,0.9-1.8,1.5-3.4,1.5
				C95.4,106.7,93.5,104.8,93.5,102.4z"/>
		</g>
	</g>
	<g>
		<g>
			<path fill="#006838" d="M307.8,66.2c-0.3,0-0.5-0.1-0.7-0.3l-2.4-2.5c-0.3-0.4-0.3-0.9,0-1.3c0.4-0.3,0.9-0.3,1.3,0l1.7,1.7
				l4.6-5.6c0.3-0.4,0.9-0.4,1.3-0.1c0.4,0.3,0.4,0.9,0.1,1.3l-5.2,6.4C308.3,66,308.1,66.2,307.8,66.2
				C307.8,66.2,307.8,66.2,307.8,66.2L307.8,66.2z"/>
		</g>
		<g>
			<path fill="#006838" d="M319.2,73.4h-20c-0.5,0-0.9-0.4-0.9-0.9v-20c0-0.5,0.4-0.9,0.9-0.9h20c0.5,0,0.9,0.4,0.9,0.9v20
				C320.1,73,319.7,73.4,319.2,73.4L319.2,73.4z M300.1,71.6h18.2V53.4h-18.2V71.6L300.1,71.6z"/>
		</g>
	</g>
	<ellipse fill="#445464" stroke="#D1D3D4" stroke-miterlimit="10" cx="276.7" cy="62.5" rx="3.2" ry="6.7"/>
	<g opacity="0.8">
		<line fill="#445464" x1="293.4" y1="62.7" x2="274" y2="62.7"/>
		<g>
			<line fill="none" stroke="#445464" stroke-miterlimit="10" x1="290.6" y1="62.7" x2="274" y2="62.7"/>
			<g>
				<polygon fill="#445464" points="290,60.8 293.4,62.7 290,64.7 				"/>
			</g>
		</g>
	</g>
	<g>
		<g>
			<path fill="#FFFFFF" d="M46.7,58.2h3.4c2,0,3.2,1.2,3.2,2.9v0c0,1.9-1.5,3-3.4,3h-1.4v2.5h-1.8V58.2z M50,62.4
				c0.9,0,1.5-0.6,1.5-1.3v0c0-0.8-0.6-1.3-1.5-1.3h-1.4v2.6H50z"/>
			<path fill="#FFFFFF" d="M54.5,60.2h1.8v1.3c0.4-0.9,1-1.5,2.1-1.4v1.9h-0.1c-1.2,0-2,0.7-2,2.3v2.4h-1.8V60.2z"/>
			<path fill="#FFFFFF" d="M59,63.4L59,63.4c0-1.9,1.5-3.4,3.5-3.4c2,0,3.5,1.5,3.5,3.3v0c0,1.8-1.5,3.3-3.5,3.3
				C60.5,66.7,59,65.2,59,63.4z M64.2,63.4L64.2,63.4c0-1-0.7-1.8-1.7-1.8c-1,0-1.7,0.8-1.7,1.8v0c0,0.9,0.7,1.8,1.7,1.8
				C63.5,65.2,64.2,64.3,64.2,63.4z"/>
			<path fill="#FFFFFF" d="M66.3,68.5V67c0.1,0,0.3,0,0.4,0c0.4,0,0.6-0.2,0.6-0.7v-6.2h1.8v6.3c0,1.4-0.7,2.1-2.1,2.1
				C66.8,68.5,66.6,68.5,66.3,68.5z M67.3,57.8h1.9v1.6h-1.9V57.8z"/>
			<path fill="#FFFFFF" d="M70.6,63.4L70.6,63.4c0-1.9,1.3-3.4,3.2-3.4c2.1,0,3.1,1.7,3.1,3.5c0,0.1,0,0.3,0,0.5h-4.5
				c0.2,0.8,0.8,1.3,1.6,1.3c0.6,0,1.1-0.2,1.6-0.7l1,0.9c-0.6,0.7-1.5,1.2-2.6,1.2C72,66.7,70.6,65.4,70.6,63.4z M75.1,62.9
				c-0.1-0.8-0.6-1.4-1.4-1.4c-0.8,0-1.2,0.5-1.4,1.4H75.1z"/>
			<path fill="#FFFFFF" d="M78,63.4L78,63.4c0-1.9,1.4-3.4,3.4-3.4c1.2,0,2,0.4,2.6,1.1l-1.1,1.2c-0.4-0.4-0.8-0.7-1.5-0.7
				c-0.9,0-1.6,0.8-1.6,1.8v0c0,1,0.6,1.8,1.6,1.8c0.6,0,1-0.3,1.5-0.7l1.1,1.1c-0.6,0.7-1.3,1.2-2.6,1.2C79.4,66.7,78,65.2,78,63.4
				z"/>
			<path fill="#FFFFFF" d="M85.4,64.8v-3h-0.8v-1.6h0.8v-1.6h1.8v1.6h1.5v1.6h-1.5v2.7c0,0.4,0.2,0.6,0.6,0.6c0.3,0,0.6-0.1,0.9-0.2
				v1.5c-0.4,0.2-0.8,0.4-1.4,0.4C86.2,66.7,85.4,66.2,85.4,64.8z"/>
			<path fill="#FFFFFF" d="M93.9,58.2h3.9c1,0,1.7,0.3,2.2,0.7c0.4,0.4,0.6,0.9,0.6,1.4v0c0,0.9-0.5,1.5-1.1,1.8
				c1,0.4,1.6,0.9,1.6,2.1v0c0,1.5-1.2,2.3-3.1,2.3h-4V58.2z M97.4,61.6c0.8,0,1.3-0.3,1.3-0.9v0c0-0.6-0.4-0.9-1.2-0.9h-1.8v1.8
				H97.4z M97.9,65c0.8,0,1.3-0.3,1.3-0.9v0c0-0.6-0.4-0.9-1.4-0.9h-2.1V65H97.9z"/>
		</g>
	</g>
	<ellipse fill="#445464" stroke="#D1D3D4" stroke-miterlimit="10" cx="276.7" cy="22.5" rx="3.2" ry="6.7"/>
	<g>
		<g>
			<path fill="#FFFFFF" d="M46.7,18.2h3.4c2,0,3.2,1.2,3.2,2.9v0c0,1.9-1.5,3-3.4,3h-1.4v2.5h-1.8V18.2z M50,22.4
				c0.9,0,1.5-0.6,1.5-1.3v0c0-0.8-0.6-1.3-1.5-1.3h-1.4v2.6H50z"/>
			<path fill="#FFFFFF" d="M54.5,20.2h1.8v1.3c0.4-0.9,1-1.5,2.1-1.4v1.9h-0.1c-1.2,0-2,0.7-2,2.3v2.4h-1.8V20.2z"/>
			<path fill="#FFFFFF" d="M59,23.4L59,23.4c0-1.9,1.5-3.4,3.5-3.4c2,0,3.5,1.5,3.5,3.3v0c0,1.8-1.5,3.3-3.5,3.3
				C60.5,26.7,59,25.2,59,23.4z M64.2,23.4L64.2,23.4c0-1-0.7-1.8-1.7-1.8c-1,0-1.7,0.8-1.7,1.8v0c0,0.9,0.7,1.8,1.7,1.8
				C63.5,25.2,64.2,24.3,64.2,23.4z"/>
			<path fill="#FFFFFF" d="M66.3,28.5V27c0.1,0,0.3,0,0.4,0c0.4,0,0.6-0.2,0.6-0.7v-6.2h1.8v6.3c0,1.4-0.7,2.1-2.1,2.1
				C66.8,28.5,66.6,28.5,66.3,28.5z M67.3,17.8h1.9v1.6h-1.9V17.8z"/>
			<path fill="#FFFFFF" d="M70.6,23.4L70.6,23.4c0-1.9,1.3-3.4,3.2-3.4c2.1,0,3.1,1.7,3.1,3.5c0,0.1,0,0.3,0,0.5h-4.5
				c0.2,0.8,0.8,1.3,1.6,1.3c0.6,0,1.1-0.2,1.6-0.7l1,0.9c-0.6,0.7-1.5,1.2-2.6,1.2C72,26.7,70.6,25.4,70.6,23.4z M75.1,22.9
				c-0.1-0.8-0.6-1.4-1.4-1.4c-0.8,0-1.2,0.5-1.4,1.4H75.1z"/>
			<path fill="#FFFFFF" d="M78,23.4L78,23.4c0-1.9,1.4-3.4,3.4-3.4c1.2,0,2,0.4,2.6,1.1l-1.1,1.2c-0.4-0.4-0.8-0.7-1.5-0.7
				c-0.9,0-1.6,0.8-1.6,1.8v0c0,1,0.6,1.8,1.6,1.8c0.6,0,1-0.3,1.5-0.7l1.1,1.1c-0.6,0.7-1.3,1.2-2.6,1.2C79.4,26.7,78,25.2,78,23.4
				z"/>
			<path fill="#FFFFFF" d="M85.4,24.8v-3h-0.8v-1.6h0.8v-1.6h1.8v1.6h1.5v1.6h-1.5v2.7c0,0.4,0.2,0.6,0.6,0.6c0.3,0,0.6-0.1,0.9-0.2
				v1.5c-0.4,0.2-0.8,0.4-1.4,0.4C86.2,26.7,85.4,26.2,85.4,24.8z"/>
			<path fill="#FFFFFF" d="M96.8,18.1h1.7l3.6,8.5h-1.9l-0.8-1.9h-3.5l-0.8,1.9h-1.9L96.8,18.1z M98.7,23.1l-1.1-2.7l-1.1,2.7H98.7z
				"/>
		</g>
	</g>
	<g>
		<g>
			<path fill="#F26522" d="M29.7,24.8c-0.2,0-0.5-0.1-0.7-0.3l-3-2.7c-0.4-0.4-0.4-1-0.1-1.4c0.4-0.4,1-0.4,1.4-0.1l2.4,2.1l2.4-2.1
				c0.4-0.4,1-0.3,1.4,0.1c0.4,0.4,0.3,1-0.1,1.4l-3,2.7C30.2,24.7,30,24.8,29.7,24.8L29.7,24.8z"/>
		</g>
		<g>
			<path fill="#F26522" d="M29.9,23.4c-0.6,0-1-0.4-1-1c0-4.8-3.9-8.7-8.7-8.7c-3,0-5.7,1.5-7.3,4c-0.3,0.5-0.9,0.6-1.4,0.3
				c-0.5-0.3-0.6-0.9-0.3-1.4c2-3.1,5.3-4.9,9-4.9c5.9,0,10.7,4.8,10.7,10.7C30.9,23,30.4,23.4,29.9,23.4L29.9,23.4z"/>
		</g>
		<g>
			<path fill="#F26522" d="M20.3,33.3c-5.9,0-10.7-4.8-10.7-10.7c0-0.6,0.4-1,1-1s1,0.4,1,1c0,4.8,3.9,8.7,8.7,8.7
				c3,0,5.7-1.5,7.3-4c0.3-0.5,0.9-0.6,1.4-0.3c0.5,0.3,0.6,0.9,0.3,1.4C27.3,31.4,23.9,33.3,20.3,33.3L20.3,33.3z"/>
		</g>
		<g>
			<path fill="#F26522" d="M13.7,25c-0.2,0-0.5-0.1-0.7-0.3l-2.4-2.1l-2.4,2.1c-0.4,0.4-1,0.3-1.4-0.1c-0.4-0.4-0.3-1,0.1-1.4l3-2.7
				c0.4-0.3,1-0.3,1.3,0l3,2.7c0.4,0.4,0.4,1,0.1,1.4C14.3,24.9,14,25,13.7,25L13.7,25z"/>
		</g>
	</g>
	<ellipse fill="#445464" stroke="#D1D3D4" stroke-miterlimit="10" cx="276.7" cy="182.5" rx="3.2" ry="6.7"/>
	<g opacity="0.8">
		<line fill="#445464" x1="293.4" y1="182.7" x2="274" y2="182.7"/>
		<g>
			<line fill="none" stroke="#445464" stroke-miterlimit="10" x1="290.6" y1="182.7" x2="274" y2="182.7"/>
			<g>
				<polygon fill="#445464" points="290,180.8 293.4,182.7 290,184.7 				"/>
			</g>
		</g>
	</g>
	<g>
		<g>
			<path fill="#FFFFFF" d="M46.7,178.2h3.4c2,0,3.2,1.2,3.2,2.9v0c0,1.9-1.5,3-3.4,3h-1.4v2.5h-1.8V178.2z M50,182.4
				c0.9,0,1.5-0.6,1.5-1.3v0c0-0.8-0.6-1.3-1.5-1.3h-1.4v2.6H50z"/>
			<path fill="#FFFFFF" d="M54.5,180.2h1.8v1.3c0.4-0.9,1-1.5,2.1-1.4v1.9h-0.1c-1.2,0-2,0.7-2,2.3v2.4h-1.8V180.2z"/>
			<path fill="#FFFFFF" d="M59,183.4L59,183.4c0-1.9,1.5-3.4,3.5-3.4c2,0,3.5,1.5,3.5,3.3v0c0,1.8-1.5,3.3-3.5,3.3
				C60.5,186.7,59,185.2,59,183.4z M64.2,183.4L64.2,183.4c0-1-0.7-1.8-1.7-1.8c-1,0-1.7,0.8-1.7,1.8v0c0,0.9,0.7,1.8,1.7,1.8
				C63.5,185.2,64.2,184.3,64.2,183.4z"/>
			<path fill="#FFFFFF" d="M66.3,188.5V187c0.1,0,0.3,0,0.4,0c0.4,0,0.6-0.2,0.6-0.7v-6.2h1.8v6.3c0,1.4-0.7,2.1-2.1,2.1
				C66.8,188.5,66.6,188.5,66.3,188.5z M67.3,177.8h1.9v1.6h-1.9V177.8z"/>
			<path fill="#FFFFFF" d="M70.6,183.4L70.6,183.4c0-1.9,1.3-3.4,3.2-3.4c2.1,0,3.1,1.7,3.1,3.5c0,0.1,0,0.3,0,0.5h-4.5
				c0.2,0.8,0.8,1.3,1.6,1.3c0.6,0,1.1-0.2,1.6-0.7l1,0.9c-0.6,0.7-1.5,1.2-2.6,1.2C72,186.7,70.6,185.4,70.6,183.4z M75.1,182.9
				c-0.1-0.8-0.6-1.4-1.4-1.4c-0.8,0-1.2,0.5-1.4,1.4H75.1z"/>
			<path fill="#FFFFFF" d="M78,183.4L78,183.4c0-1.9,1.4-3.4,3.4-3.4c1.2,0,2,0.4,2.6,1.1l-1.1,1.2c-0.4-0.4-0.8-0.7-1.5-0.7
				c-0.9,0-1.6,0.8-1.6,1.8v0c0,1,0.6,1.8,1.6,1.8c0.6,0,1-0.3,1.5-0.7l1.1,1.1c-0.6,0.7-1.3,1.2-2.6,1.2
				C79.4,186.7,78,185.2,78,183.4z"/>
			<path fill="#FFFFFF" d="M85.4,184.8v-3h-0.8v-1.6h0.8v-1.6h1.8v1.6h1.5v1.6h-1.5v2.7c0,0.4,0.2,0.6,0.6,0.6
				c0.3,0,0.6-0.1,0.9-0.2v1.5c-0.4,0.2-0.8,0.4-1.4,0.4C86.2,186.7,85.4,186.2,85.4,184.8z"/>
			<path fill="#FFFFFF" d="M96.2,182.3l-2.8-4.1h2.2l1.8,2.7l1.8-2.7h2.1l-2.8,4.1l2.9,4.3h-2.2l-1.9-2.9l-1.9,2.9h-2.1L96.2,182.3z
				"/>
		</g>
	</g>
	<g>
		<g>
			<path fill="#F08921" d="M309.2,193c-0.1,0-0.3,0-0.4-0.1l-9.6-4.8c-0.3-0.2-0.5-0.5-0.5-0.9v-9.5c0-0.4,0.2-0.8,0.5-0.9l9.6-4.8
				c0.2-0.1,0.5-0.1,0.8,0l9.6,4.8c0.3,0.2,0.5,0.5,0.5,0.9v9.5c0,0.4-0.2,0.8-0.5,0.9l-9.6,4.8C309.5,193,309.3,193,309.2,193
				L309.2,193z M300.6,186.6l8.6,4.3l8.6-4.3v-8.2l-8.6-4.3l-8.6,4.3V186.6L300.6,186.6z"/>
		</g>
		<g>
			<path fill="#F08921" d="M309.2,183.8c-0.1,0-0.3,0-0.4-0.1l-9.6-4.8c-0.5-0.2-0.7-0.8-0.5-1.4c0.2-0.5,0.8-0.7,1.2-0.5l9.2,4.6
				l9.2-4.6c0.5-0.2,1,0,1.2,0.5c0.2,0.5,0,1.1-0.5,1.4l-9.6,4.8C309.5,183.8,309.3,183.8,309.2,183.8L309.2,183.8z"/>
		</g>
		<g>
			<path fill="#F08921" d="M314.4,181c-0.1,0-0.1,0-0.2,0l-9.6-4.8c-0.2-0.1-0.3-0.4-0.2-0.7c0.1-0.3,0.4-0.4,0.6-0.3l9.6,4.8
				c0.2,0.1,0.3,0.4,0.2,0.7C314.7,180.9,314.5,181,314.4,181L314.4,181z"/>
		</g>
		<g>
			<path fill="#F08921" d="M309.2,192.7c-0.5,0-0.9-0.5-0.9-1v-7.9c0-0.6,0.4-1,0.9-1c0.5,0,0.9,0.5,0.9,1v7.9
				C310.1,192.2,309.7,192.7,309.2,192.7L309.2,192.7z"/>
		</g>
	</g>
	<rect x="42.3" y="215.8" fill="#445464" width="234.3" height="13.4"/>
	<ellipse fill="#445464" stroke="#D1D3D4" stroke-miterlimit="10" cx="276.7" cy="222.5" rx="3.2" ry="6.7"/>
	<g>
		<g>
			<path fill="#FFFFFF" d="M46.7,218.2h3.4c2,0,3.2,1.2,3.2,2.9v0c0,1.9-1.5,3-3.4,3h-1.4v2.5h-1.8V218.2z M50,222.4
				c0.9,0,1.5-0.6,1.5-1.3v0c0-0.8-0.6-1.3-1.5-1.3h-1.4v2.6H50z"/>
			<path fill="#FFFFFF" d="M54.5,220.2h1.8v1.3c0.4-0.9,1-1.5,2.1-1.4v1.9h-0.1c-1.2,0-2,0.7-2,2.3v2.4h-1.8V220.2z"/>
			<path fill="#FFFFFF" d="M59,223.4L59,223.4c0-1.9,1.5-3.4,3.5-3.4c2,0,3.5,1.5,3.5,3.3v0c0,1.8-1.5,3.3-3.5,3.3
				C60.5,226.7,59,225.2,59,223.4z M64.2,223.4L64.2,223.4c0-1-0.7-1.8-1.7-1.8c-1,0-1.7,0.8-1.7,1.8v0c0,0.9,0.7,1.8,1.7,1.8
				C63.5,225.2,64.2,224.3,64.2,223.4z"/>
			<path fill="#FFFFFF" d="M66.3,228.5V227c0.1,0,0.3,0,0.4,0c0.4,0,0.6-0.2,0.6-0.7v-6.2h1.8v6.3c0,1.4-0.7,2.1-2.1,2.1
				C66.8,228.5,66.6,228.5,66.3,228.5z M67.3,217.8h1.9v1.6h-1.9V217.8z"/>
			<path fill="#FFFFFF" d="M70.6,223.4L70.6,223.4c0-1.9,1.3-3.4,3.2-3.4c2.1,0,3.1,1.7,3.1,3.5c0,0.1,0,0.3,0,0.5h-4.5
				c0.2,0.8,0.8,1.3,1.6,1.3c0.6,0,1.1-0.2,1.6-0.7l1,0.9c-0.6,0.7-1.5,1.2-2.6,1.2C72,226.7,70.6,225.4,70.6,223.4z M75.1,222.9
				c-0.1-0.8-0.6-1.4-1.4-1.4c-0.8,0-1.2,0.5-1.4,1.4H75.1z"/>
			<path fill="#FFFFFF" d="M78,223.4L78,223.4c0-1.9,1.4-3.4,3.4-3.4c1.2,0,2,0.4,2.6,1.1l-1.1,1.2c-0.4-0.4-0.8-0.7-1.5-0.7
				c-0.9,0-1.6,0.8-1.6,1.8v0c0,1,0.6,1.8,1.6,1.8c0.6,0,1-0.3,1.5-0.7l1.1,1.1c-0.6,0.7-1.3,1.2-2.6,1.2
				C79.4,226.7,78,225.2,78,223.4z"/>
			<path fill="#FFFFFF" d="M85.4,224.8v-3h-0.8v-1.6h0.8v-1.6h1.8v1.6h1.5v1.6h-1.5v2.7c0,0.4,0.2,0.6,0.6,0.6
				c0.3,0,0.6-0.1,0.9-0.2v1.5c-0.4,0.2-0.8,0.4-1.4,0.4C86.2,226.7,85.4,226.2,85.4,224.8z"/>
			<path fill="#FFFFFF" d="M96.3,223.3l-3.2-5.1h2.2l2,3.4l2-3.4h2.1l-3.2,5v3.3h-1.8V223.3z"/>
		</g>
	</g>
	<rect fill="none" width="328.1" height="247.1"/>
	<g>
		<g>
			<g>
				<path fill="#FFFFFF" d="M151.8,18h4.2c1,0,1.9,0.3,2.4,0.8c0.4,0.4,0.6,0.9,0.6,1.5v0c0,1-0.5,1.6-1.2,2c1.1,0.4,1.7,1,1.7,2.2
					v0c0,1.7-1.4,2.5-3.4,2.5h-4.3V18z M155.6,21.7c0.9,0,1.4-0.3,1.4-1v0c0-0.6-0.5-0.9-1.3-0.9h-2v1.9H155.6z M156.1,25.4
					c0.9,0,1.4-0.3,1.4-1v0c0-0.6-0.5-1-1.5-1h-2.3v2H156.1z"/>
			</g>
		</g>
		<g>
			<path fill="#59B8B3" d="M144.3,30.4l10.4,8.9c0.4,0.3,0.9,0.3,1.3,0l10.5-8.9c0.2-0.2,0.3-0.5,0.3-0.8V16.4
				c0-1.3-1.1-2.4-2.4-2.4h-18.2c-1.3,0-2.4,1.1-2.4,2.4v13.2C143.9,30,144.1,30.2,144.3,30.4z M145.9,16.4c0-0.2,0.2-0.4,0.4-0.4
				h18.2c0.2,0,0.4,0.2,0.4,0.4v12.8h-18.9V16.4z"/>
		</g>
	</g>
	<g>
		<g>
			<g>
				<path fill="#FFFFFF" d="M176.3,22.6L176.3,22.6c0-2.6,2-4.7,4.7-4.7c1.7,0,2.7,0.6,3.6,1.4l-1.3,1.5c-0.7-0.6-1.4-1-2.3-1
					c-1.5,0-2.6,1.3-2.6,2.8v0c0,1.6,1.1,2.9,2.6,2.9c1,0,1.7-0.4,2.4-1.1l1.3,1.3c-0.9,1-2,1.6-3.7,1.6
					C178.2,27.3,176.3,25.2,176.3,22.6z"/>
			</g>
		</g>
		<g>
			<path fill="#59B8B3" d="M169.3,30.4l10.4,8.9c0.4,0.3,0.9,0.3,1.3,0l10.5-8.9c0.2-0.2,0.3-0.5,0.3-0.8V16.4
				c0-1.3-1.1-2.4-2.4-2.4h-18.2c-1.3,0-2.4,1.1-2.4,2.4v13.2C168.9,30,169.1,30.2,169.3,30.4z M170.9,16.4c0-0.2,0.2-0.4,0.4-0.4
				h18.2c0.2,0,0.4,0.2,0.4,0.4v12.8h-18.9V16.4z"/>
		</g>
	</g>
	<g>
		<g>
			<path fill="#6CB2E2" d="M141.5,54.6l-10.4-8.9c-0.4-0.3-0.9-0.3-1.3,0l-10.5,8.9c-0.2,0.2-0.3,0.5-0.3,0.8v13.2
				c0,1.3,1.1,2.4,2.4,2.4h18.2c1.3,0,2.4-1.1,2.4-2.4V55.4C141.8,55.1,141.7,54.8,141.5,54.6z M139.8,68.6c0,0.2-0.2,0.4-0.4,0.4
				h-18.2c-0.2,0-0.4-0.2-0.4-0.4V55.8h18.9V68.6z"/>
		</g>
		<g>
			<g>
				<path fill="#FFFFFF" d="M129.4,57.8h1.8l3.9,9.2h-2.1l-0.8-2h-3.8l-0.8,2h-2L129.4,57.8z M131.5,63.1l-1.2-3l-1.2,3H131.5z"/>
			</g>
		</g>
	</g>
	<g>
		<g>
			<path fill="#6CB2E2" d="M141.5,94.6l-10.4-8.9c-0.4-0.3-0.9-0.3-1.3,0l-10.5,8.9c-0.2,0.2-0.3,0.5-0.3,0.8v13.2
				c0,1.3,1.1,2.4,2.4,2.4h18.2c1.3,0,2.4-1.1,2.4-2.4V95.4C141.8,95.1,141.7,94.8,141.5,94.6z M139.8,108.6c0,0.2-0.2,0.4-0.4,0.4
				h-18.2c-0.2,0-0.4-0.2-0.4-0.4V95.8h18.9V108.6z"/>
		</g>
		<g>
			<g>
				<path fill="#FFFFFF" d="M129.4,97.8h1.8l3.9,9.2h-2.1l-0.8-2h-3.8l-0.8,2h-2L129.4,97.8z M131.5,103.1l-1.2-3l-1.2,3H131.5z"/>
			</g>
		</g>
	</g>
	<g>
		<g>
			<g>
				<path fill="#FFFFFF" d="M254.4,183.5l-3.5-5.5h2.3l2.2,3.7l2.2-3.7h2.3l-3.5,5.5v3.6h-2V183.5z"/>
			</g>
		</g>
		<g>
			<path fill="#59B8B3" d="M244.3,190.4l10.4,8.9c0.4,0.3,0.9,0.3,1.3,0l10.5-8.9c0.2-0.2,0.3-0.5,0.3-0.8v-13.2
				c0-1.3-1.1-2.4-2.4-2.4h-18.2c-1.3,0-2.4,1.1-2.4,2.4v13.2C243.9,190,244.1,190.2,244.3,190.4z M245.9,176.4
				c0-0.2,0.2-0.4,0.4-0.4h18.2c0.2,0,0.4,0.2,0.4,0.4v12.8h-18.9V176.4z"/>
		</g>
	</g>
	<g>
		<g>
			<path fill="#6CB2E2" d="M241.5,214.6l-10.4-8.9c-0.4-0.3-0.9-0.3-1.3,0l-10.5,8.9c-0.2,0.2-0.3,0.5-0.3,0.8v13.2
				c0,1.3,1.1,2.4,2.4,2.4h18.2c1.3,0,2.4-1.1,2.4-2.4v-13.2C241.8,215.1,241.7,214.8,241.5,214.6z M239.8,228.6
				c0,0.2-0.2,0.4-0.4,0.4h-18.2c-0.2,0-0.4-0.2-0.4-0.4v-12.8h18.9V228.6z"/>
		</g>
		<g>
			<g>
				<path fill="#FFFFFF" d="M229.2,222.3l-3-4.5h2.3l1.9,3l1.9-3h2.3l-3,4.4l3.2,4.7h-2.3l-2-3.1l-2.1,3.1H226L229.2,222.3z"/>
			</g>
		</g>
	</g>
</g>
</svg>
