<?xml version="1.0" encoding="utf-8"?>
<!-- Generator: Adobe Illustrator 19.1.0, SVG Export Plug-In . SVG Version: 6.00 Build 0)  -->
<svg version="1.1" id="Layer_1" xmlns="http://www.w3.org/2000/svg" xmlns:xlink="http://www.w3.org/1999/xlink" x="0px" y="0px"
	 viewBox="0 0 328.1 247.1" enable-background="new 0 0 328.1 247.1" xml:space="preserve">
<g>
	<rect x="42.3" y="15.8" fill="#445464" width="234.3" height="13.4"/>
	<rect x="42.3" y="55.8" fill="#445464" width="234.3" height="13.4"/>
	<rect x="42.3" y="95.8" fill="#445464" width="234.3" height="13.4"/>
	<rect x="42.3" y="135.8" fill="#445464" width="234.3" height="13.4"/>
	<ellipse fill="#445464" stroke="#D1D3D4" stroke-miterlimit="10" cx="276.7" cy="102.5" rx="3.2" ry="6.7"/>
	<g opacity="0.8">
		<line fill="#445464" x1="293.4" y1="102.7" x2="274" y2="102.7"/>
		<g>
			<line fill="none" stroke="#445464" stroke-miterlimit="10" x1="290.6" y1="102.7" x2="274" y2="102.7"/>
			<g>
				<polygon fill="#445464" points="290,100.8 293.4,102.7 290,104.7 				"/>
			</g>
		</g>
	</g>
	<g>
		<g>
			<path fill="#FFFFFF" d="M46.7,98.2h3.4c2,0,3.2,1.2,3.2,2.9v0c0,1.9-1.5,3-3.4,3h-1.4v2.5h-1.8V98.2z M50,102.4
				c0.9,0,1.5-0.6,1.5-1.3v0c0-0.8-0.6-1.3-1.5-1.3h-1.4v2.6H50z"/>
			<path fill="#FFFFFF" d="M54.5,100.2h1.8v1.3c0.4-0.9,1-1.5,2.1-1.4v1.9h-0.1c-1.2,0-2,0.7-2,2.3v2.4h-1.8V100.2z"/>
			<path fill="#FFFFFF" d="M59,103.4L59,103.4c0-1.9,1.5-3.4,3.5-3.4c2,0,3.5,1.5,3.5,3.3v0c0,1.8-1.5,3.3-3.5,3.3
				C60.5,106.7,59,105.2,59,103.4z M64.2,103.4L64.2,103.4c0-1-0.7-1.8-1.7-1.8c-1,0-1.7,0.8-1.7,1.8v0c0,0.9,0.7,1.8,1.7,1.8
				C63.5,105.2,64.2,104.3,64.2,103.4z"/>
			<path fill="#FFFFFF" d="M66.3,108.5V107c0.1,0,0.3,0,0.4,0c0.4,0,0.6-0.2,0.6-0.7v-6.2h1.8v6.3c0,1.4-0.7,2.1-2.1,2.1
				C66.8,108.5,66.6,108.5,66.3,108.5z M67.3,97.8h1.9v1.6h-1.9V97.8z"/>
			<path fill="#FFFFFF" d="M70.6,103.4L70.6,103.4c0-1.9,1.3-3.4,3.2-3.4c2.1,0,3.1,1.7,3.1,3.5c0,0.1,0,0.3,0,0.5h-4.5
				c0.2,0.8,0.8,1.3,1.6,1.3c0.6,0,1.1-0.2,1.6-0.7l1,0.9c-0.6,0.7-1.5,1.2-2.6,1.2C72,106.7,70.6,105.4,70.6,103.4z M75.1,102.9
				c-0.1-0.8-0.6-1.4-1.4-1.4c-0.8,0-1.2,0.5-1.4,1.4H75.1z"/>
			<path fill="#FFFFFF" d="M78,103.4L78,103.4c0-1.9,1.4-3.4,3.4-3.4c1.2,0,2,0.4,2.6,1.1l-1.1,1.2c-0.4-0.4-0.8-0.7-1.5-0.7
				c-0.9,0-1.6,0.8-1.6,1.8v0c0,1,0.6,1.8,1.6,1.8c0.6,0,1-0.3,1.5-0.7l1.1,1.1c-0.6,0.7-1.3,1.2-2.6,1.2
				C79.4,106.7,78,105.2,78,103.4z"/>
			<path fill="#FFFFFF" d="M85.4,104.8v-3h-0.8v-1.6h0.8v-1.6h1.8v1.6h1.5v1.6h-1.5v2.7c0,0.4,0.2,0.6,0.6,0.6
				c0.3,0,0.6-0.1,0.9-0.2v1.5c-0.4,0.2-0.8,0.4-1.4,0.4C86.2,106.7,85.4,106.2,85.4,104.8z"/>
			<path fill="#FFFFFF" d="M93.5,102.4L93.5,102.4c0-2.4,1.8-4.4,4.4-4.4c1.6,0,2.5,0.5,3.3,1.3l-1.2,1.4c-0.6-0.6-1.3-0.9-2.1-0.9
				c-1.4,0-2.4,1.2-2.4,2.6v0c0,1.4,1,2.6,2.4,2.6c1,0,1.5-0.4,2.2-1l1.2,1.2c-0.9,0.9-1.8,1.5-3.4,1.5
				C95.4,106.7,93.5,104.8,93.5,102.4z"/>
		</g>
	</g>
	<g>
		<g>
			<path fill="#404447" d="M309.2,113c-0.1,0-0.3,0-0.4-0.1l-9.6-4.8c-0.3-0.2-0.5-0.5-0.5-0.9v-9.5c0-0.4,0.2-0.8,0.5-0.9l9.6-4.8
				c0.2-0.1,0.5-0.1,0.8,0l9.6,4.8c0.3,0.2,0.5,0.5,0.5,0.9v9.5c0,0.4-0.2,0.8-0.5,0.9l-9.6,4.8C309.5,113,309.3,113,309.2,113
				L309.2,113z M300.6,106.6l8.6,4.3l8.6-4.3v-8.2l-8.6-4.3l-8.6,4.3V106.6L300.6,106.6z"/>
		</g>
		<g>
			<path fill="#404447" d="M309.2,103.8c-0.1,0-0.3,0-0.4-0.1l-9.6-4.8c-0.5-0.2-0.7-0.8-0.5-1.4c0.2-0.5,0.8-0.7,1.2-0.5l9.2,4.6
				l9.2-4.6c0.5-0.2,1,0,1.2,0.5c0.2,0.5,0,1.1-0.5,1.4l-9.6,4.8C309.5,103.8,309.3,103.8,309.2,103.8L309.2,103.8z"/>
		</g>
		<g>
			<path fill="#404447" d="M314.4,101c-0.1,0-0.1,0-0.2,0l-9.6-4.8c-0.2-0.1-0.3-0.4-0.2-0.7c0.1-0.3,0.4-0.4,0.6-0.3l9.6,4.8
				c0.2,0.1,0.3,0.4,0.2,0.7C314.7,100.9,314.5,101,314.4,101L314.4,101z"/>
		</g>
		<g>
			<path fill="#404447" d="M309.2,112.7c-0.5,0-0.9-0.5-0.9-1v-7.9c0-0.6,0.4-1,0.9-1c0.5,0,0.9,0.5,0.9,1v7.9
				C310.1,112.2,309.7,112.7,309.2,112.7L309.2,112.7z"/>
		</g>
	</g>
	<ellipse fill="#445464" stroke="#D1D3D4" stroke-miterlimit="10" cx="276.7" cy="62.5" rx="3.2" ry="6.7"/>
	<g opacity="0.8">
		<line fill="#445464" x1="293.4" y1="62.7" x2="274" y2="62.7"/>
		<g>
			<line fill="none" stroke="#445464" stroke-miterlimit="10" x1="290.6" y1="62.7" x2="274" y2="62.7"/>
			<g>
				<polygon fill="#445464" points="290,60.8 293.4,62.7 290,64.7 				"/>
			</g>
		</g>
	</g>
	<g>
		<g>
			<path fill="#FFFFFF" d="M46.7,58.2h3.4c2,0,3.2,1.2,3.2,2.9v0c0,1.9-1.5,3-3.4,3h-1.4v2.5h-1.8V58.2z M50,62.4
				c0.9,0,1.5-0.6,1.5-1.3v0c0-0.8-0.6-1.3-1.5-1.3h-1.4v2.6H50z"/>
			<path fill="#FFFFFF" d="M54.5,60.2h1.8v1.3c0.4-0.9,1-1.5,2.1-1.4v1.9h-0.1c-1.2,0-2,0.7-2,2.3v2.4h-1.8V60.2z"/>
			<path fill="#FFFFFF" d="M59,63.4L59,63.4c0-1.9,1.5-3.4,3.5-3.4c2,0,3.5,1.5,3.5,3.3v0c0,1.8-1.5,3.3-3.5,3.3
				C60.5,66.7,59,65.2,59,63.4z M64.2,63.4L64.2,63.4c0-1-0.7-1.8-1.7-1.8c-1,0-1.7,0.8-1.7,1.8v0c0,0.9,0.7,1.8,1.7,1.8
				C63.5,65.2,64.2,64.3,64.2,63.4z"/>
			<path fill="#FFFFFF" d="M66.3,68.5V67c0.1,0,0.3,0,0.4,0c0.4,0,0.6-0.2,0.6-0.7v-6.2h1.8v6.3c0,1.4-0.7,2.1-2.1,2.1
				C66.8,68.5,66.6,68.5,66.3,68.5z M67.3,57.8h1.9v1.6h-1.9V57.8z"/>
			<path fill="#FFFFFF" d="M70.6,63.4L70.6,63.4c0-1.9,1.3-3.4,3.2-3.4c2.1,0,3.1,1.7,3.1,3.5c0,0.1,0,0.3,0,0.5h-4.5
				c0.2,0.8,0.8,1.3,1.6,1.3c0.6,0,1.1-0.2,1.6-0.7l1,0.9c-0.6,0.7-1.5,1.2-2.6,1.2C72,66.7,70.6,65.4,70.6,63.4z M75.1,62.9
				c-0.1-0.8-0.6-1.4-1.4-1.4c-0.8,0-1.2,0.5-1.4,1.4H75.1z"/>
			<path fill="#FFFFFF" d="M78,63.4L78,63.4c0-1.9,1.4-3.4,3.4-3.4c1.2,0,2,0.4,2.6,1.1l-1.1,1.2c-0.4-0.4-0.8-0.7-1.5-0.7
				c-0.9,0-1.6,0.8-1.6,1.8v0c0,1,0.6,1.8,1.6,1.8c0.6,0,1-0.3,1.5-0.7l1.1,1.1c-0.6,0.7-1.3,1.2-2.6,1.2C79.4,66.7,78,65.2,78,63.4
				z"/>
			<path fill="#FFFFFF" d="M85.4,64.8v-3h-0.8v-1.6h0.8v-1.6h1.8v1.6h1.5v1.6h-1.5v2.7c0,0.4,0.2,0.6,0.6,0.6c0.3,0,0.6-0.1,0.9-0.2
				v1.5c-0.4,0.2-0.8,0.4-1.4,0.4C86.2,66.7,85.4,66.2,85.4,64.8z"/>
			<path fill="#FFFFFF" d="M93.9,58.2h3.9c1,0,1.7,0.3,2.2,0.7c0.4,0.4,0.6,0.9,0.6,1.4v0c0,0.9-0.5,1.5-1.1,1.8
				c1,0.4,1.6,0.9,1.6,2.1v0c0,1.5-1.2,2.3-3.1,2.3h-4V58.2z M97.4,61.6c0.8,0,1.3-0.3,1.3-0.9v0c0-0.6-0.4-0.9-1.2-0.9h-1.8v1.8
				H97.4z M97.9,65c0.8,0,1.3-0.3,1.3-0.9v0c0-0.6-0.4-0.9-1.4-0.9h-2.1V65H97.9z"/>
		</g>
	</g>
	<g>
		<g>
			<path fill="#404447" d="M309.2,73c-0.1,0-0.3,0-0.4-0.1l-9.6-4.8c-0.3-0.2-0.5-0.5-0.5-0.9v-9.5c0-0.4,0.2-0.8,0.5-0.9l9.6-4.8
				c0.2-0.1,0.5-0.1,0.8,0l9.6,4.8c0.3,0.2,0.5,0.5,0.5,0.9v9.5c0,0.4-0.2,0.8-0.5,0.9l-9.6,4.8C309.5,73,309.3,73,309.2,73
				L309.2,73z M300.6,66.6l8.6,4.3l8.6-4.3v-8.2l-8.6-4.3l-8.6,4.3V66.6L300.6,66.6z"/>
		</g>
		<g>
			<path fill="#404447" d="M309.2,63.8c-0.1,0-0.3,0-0.4-0.1l-9.6-4.8c-0.5-0.2-0.7-0.8-0.5-1.4c0.2-0.5,0.8-0.7,1.2-0.5l9.2,4.6
				l9.2-4.6c0.5-0.2,1,0,1.2,0.5c0.2,0.5,0,1.1-0.5,1.4l-9.6,4.8C309.5,63.8,309.3,63.8,309.2,63.8L309.2,63.8z"/>
		</g>
		<g>
			<path fill="#404447" d="M314.4,61c-0.1,0-0.1,0-0.2,0l-9.6-4.8c-0.2-0.1-0.3-0.4-0.2-0.7c0.1-0.3,0.4-0.4,0.6-0.3l9.6,4.8
				c0.2,0.1,0.3,0.4,0.2,0.7C314.7,60.9,314.5,61,314.4,61L314.4,61z"/>
		</g>
		<g>
			<path fill="#404447" d="M309.2,72.7c-0.5,0-0.9-0.5-0.9-1v-7.9c0-0.6,0.4-1,0.9-1c0.5,0,0.9,0.5,0.9,1v7.9
				C310.1,72.2,309.7,72.7,309.2,72.7L309.2,72.7z"/>
		</g>
	</g>
	<ellipse fill="#445464" stroke="#D1D3D4" stroke-miterlimit="10" cx="276.7" cy="22.5" rx="3.2" ry="6.7"/>
	<g opacity="0.8">
		<line fill="#445464" x1="293.4" y1="22.7" x2="274" y2="22.7"/>
		<g>
			<line fill="none" stroke="#445464" stroke-miterlimit="10" x1="290.6" y1="22.7" x2="274" y2="22.7"/>
			<g>
				<polygon fill="#445464" points="290,20.8 293.4,22.7 290,24.7 				"/>
			</g>
		</g>
	</g>
	<g>
		<g>
			<path fill="#FFFFFF" d="M46.7,18.2h3.4c2,0,3.2,1.2,3.2,2.9v0c0,1.9-1.5,3-3.4,3h-1.4v2.5h-1.8V18.2z M50,22.4
				c0.9,0,1.5-0.6,1.5-1.3v0c0-0.8-0.6-1.3-1.5-1.3h-1.4v2.6H50z"/>
			<path fill="#FFFFFF" d="M54.5,20.2h1.8v1.3c0.4-0.9,1-1.5,2.1-1.4v1.9h-0.1c-1.2,0-2,0.7-2,2.3v2.4h-1.8V20.2z"/>
			<path fill="#FFFFFF" d="M59,23.4L59,23.4c0-1.9,1.5-3.4,3.5-3.4c2,0,3.5,1.5,3.5,3.3v0c0,1.8-1.5,3.3-3.5,3.3
				C60.5,26.7,59,25.2,59,23.4z M64.2,23.4L64.2,23.4c0-1-0.7-1.8-1.7-1.8c-1,0-1.7,0.8-1.7,1.8v0c0,0.9,0.7,1.8,1.7,1.8
				C63.5,25.2,64.2,24.3,64.2,23.4z"/>
			<path fill="#FFFFFF" d="M66.3,28.5V27c0.1,0,0.3,0,0.4,0c0.4,0,0.6-0.2,0.6-0.7v-6.2h1.8v6.3c0,1.4-0.7,2.1-2.1,2.1
				C66.8,28.5,66.6,28.5,66.3,28.5z M67.3,17.8h1.9v1.6h-1.9V17.8z"/>
			<path fill="#FFFFFF" d="M70.6,23.4L70.6,23.4c0-1.9,1.3-3.4,3.2-3.4c2.1,0,3.1,1.7,3.1,3.5c0,0.1,0,0.3,0,0.5h-4.5
				c0.2,0.8,0.8,1.3,1.6,1.3c0.6,0,1.1-0.2,1.6-0.7l1,0.9c-0.6,0.7-1.5,1.2-2.6,1.2C72,26.7,70.6,25.4,70.6,23.4z M75.1,22.9
				c-0.1-0.8-0.6-1.4-1.4-1.4c-0.8,0-1.2,0.5-1.4,1.4H75.1z"/>
			<path fill="#FFFFFF" d="M78,23.4L78,23.4c0-1.9,1.4-3.4,3.4-3.4c1.2,0,2,0.4,2.6,1.1l-1.1,1.2c-0.4-0.4-0.8-0.7-1.5-0.7
				c-0.9,0-1.6,0.8-1.6,1.8v0c0,1,0.6,1.8,1.6,1.8c0.6,0,1-0.3,1.5-0.7l1.1,1.1c-0.6,0.7-1.3,1.2-2.6,1.2C79.4,26.7,78,25.2,78,23.4
				z"/>
			<path fill="#FFFFFF" d="M85.4,24.8v-3h-0.8v-1.6h0.8v-1.6h1.8v1.6h1.5v1.6h-1.5v2.7c0,0.4,0.2,0.6,0.6,0.6c0.3,0,0.6-0.1,0.9-0.2
				v1.5c-0.4,0.2-0.8,0.4-1.4,0.4C86.2,26.7,85.4,26.2,85.4,24.8z"/>
			<path fill="#FFFFFF" d="M96.8,18.1h1.7l3.6,8.5h-1.9l-0.8-1.9h-3.5l-0.8,1.9h-1.9L96.8,18.1z M98.7,23.1l-1.1-2.7l-1.1,2.7H98.7z
				"/>
		</g>
	</g>
	<g>
		<g>
			<path fill="#404447" d="M309.2,33c-0.1,0-0.3,0-0.4-0.1l-9.6-4.8c-0.3-0.2-0.5-0.5-0.5-0.9v-9.5c0-0.4,0.2-0.8,0.5-0.9l9.6-4.8
				c0.2-0.1,0.5-0.1,0.8,0l9.6,4.8c0.3,0.2,0.5,0.5,0.5,0.9v9.5c0,0.4-0.2,0.8-0.5,0.9l-9.6,4.8C309.5,33,309.3,33,309.2,33
				L309.2,33z M300.6,26.6l8.6,4.3l8.6-4.3v-8.2l-8.6-4.3l-8.6,4.3V26.6L300.6,26.6z"/>
		</g>
		<g>
			<path fill="#404447" d="M309.2,23.8c-0.1,0-0.3,0-0.4-0.1l-9.6-4.8c-0.5-0.2-0.7-0.8-0.5-1.4c0.2-0.5,0.8-0.7,1.2-0.5l9.2,4.6
				l9.2-4.6c0.5-0.2,1,0,1.2,0.5c0.2,0.5,0,1.1-0.5,1.4l-9.6,4.8C309.5,23.8,309.3,23.8,309.2,23.8L309.2,23.8z"/>
		</g>
		<g>
			<path fill="#404447" d="M314.4,21c-0.1,0-0.1,0-0.2,0l-9.6-4.8c-0.2-0.1-0.3-0.4-0.2-0.7c0.1-0.3,0.4-0.4,0.6-0.3l9.6,4.8
				c0.2,0.1,0.3,0.4,0.2,0.7C314.7,20.9,314.5,21,314.4,21L314.4,21z"/>
		</g>
		<g>
			<path fill="#404447" d="M309.2,32.7c-0.5,0-0.9-0.5-0.9-1v-7.9c0-0.6,0.4-1,0.9-1c0.5,0,0.9,0.5,0.9,1v7.9
				C310.1,32.2,309.7,32.7,309.2,32.7L309.2,32.7z"/>
		</g>
	</g>
	<ellipse fill="#445464" stroke="#D1D3D4" stroke-miterlimit="10" cx="276.7" cy="142.5" rx="3.2" ry="6.7"/>
	<g opacity="0.8">
		<line fill="#445464" x1="293.4" y1="142.7" x2="274" y2="142.7"/>
		<g>
			<line fill="none" stroke="#445464" stroke-miterlimit="10" x1="290.6" y1="142.7" x2="274" y2="142.7"/>
			<g>
				<polygon fill="#445464" points="290,140.8 293.4,142.7 290,144.7 				"/>
			</g>
		</g>
	</g>
	<g>
		<g>
			<path fill="#FFFFFF" d="M46.7,138.2h3.4c2,0,3.2,1.2,3.2,2.9v0c0,1.9-1.5,3-3.4,3h-1.4v2.5h-1.8V138.2z M50,142.4
				c0.9,0,1.5-0.6,1.5-1.3v0c0-0.8-0.6-1.3-1.5-1.3h-1.4v2.6H50z"/>
			<path fill="#FFFFFF" d="M54.5,140.2h1.8v1.3c0.4-0.9,1-1.5,2.1-1.4v1.9h-0.1c-1.2,0-2,0.7-2,2.3v2.4h-1.8V140.2z"/>
			<path fill="#FFFFFF" d="M59,143.4L59,143.4c0-1.9,1.5-3.4,3.5-3.4c2,0,3.5,1.5,3.5,3.3v0c0,1.8-1.5,3.3-3.5,3.3
				C60.5,146.7,59,145.2,59,143.4z M64.2,143.4L64.2,143.4c0-1-0.7-1.8-1.7-1.8c-1,0-1.7,0.8-1.7,1.8v0c0,0.9,0.7,1.8,1.7,1.8
				C63.5,145.2,64.2,144.3,64.2,143.4z"/>
			<path fill="#FFFFFF" d="M66.3,148.5V147c0.1,0,0.3,0,0.4,0c0.4,0,0.6-0.2,0.6-0.7v-6.2h1.8v6.3c0,1.4-0.7,2.1-2.1,2.1
				C66.8,148.5,66.6,148.5,66.3,148.5z M67.3,137.8h1.9v1.6h-1.9V137.8z"/>
			<path fill="#FFFFFF" d="M70.6,143.4L70.6,143.4c0-1.9,1.3-3.4,3.2-3.4c2.1,0,3.1,1.7,3.1,3.5c0,0.1,0,0.3,0,0.5h-4.5
				c0.2,0.8,0.8,1.3,1.6,1.3c0.6,0,1.1-0.2,1.6-0.7l1,0.9c-0.6,0.7-1.5,1.2-2.6,1.2C72,146.7,70.6,145.4,70.6,143.4z M75.1,142.9
				c-0.1-0.8-0.6-1.4-1.4-1.4c-0.8,0-1.2,0.5-1.4,1.4H75.1z"/>
			<path fill="#FFFFFF" d="M78,143.4L78,143.4c0-1.9,1.4-3.4,3.4-3.4c1.2,0,2,0.4,2.6,1.1l-1.1,1.2c-0.4-0.4-0.8-0.7-1.5-0.7
				c-0.9,0-1.6,0.8-1.6,1.8v0c0,1,0.6,1.8,1.6,1.8c0.6,0,1-0.3,1.5-0.7l1.1,1.1c-0.6,0.7-1.3,1.2-2.6,1.2
				C79.4,146.7,78,145.2,78,143.4z"/>
			<path fill="#FFFFFF" d="M85.4,144.8v-3h-0.8v-1.6h0.8v-1.6h1.8v1.6h1.5v1.6h-1.5v2.7c0,0.4,0.2,0.6,0.6,0.6
				c0.3,0,0.6-0.1,0.9-0.2v1.5c-0.4,0.2-0.8,0.4-1.4,0.4C86.2,146.7,85.4,146.2,85.4,144.8z"/>
			<path fill="#FFFFFF" d="M93.9,138.2h3.3c2.6,0,4.5,1.8,4.5,4.2v0c0,2.4-1.8,4.2-4.5,4.2h-3.3V138.2z M97.2,144.9
				c1.5,0,2.5-1,2.5-2.5v0c0-1.5-1-2.5-2.5-2.5h-1.4v5.1H97.2z"/>
		</g>
	</g>
	<g>
		<g>
			<path fill="#404447" d="M309.2,153c-0.1,0-0.3,0-0.4-0.1l-9.6-4.8c-0.3-0.2-0.5-0.5-0.5-0.9v-9.5c0-0.4,0.2-0.8,0.5-0.9l9.6-4.8
				c0.2-0.1,0.5-0.1,0.8,0l9.6,4.8c0.3,0.2,0.5,0.5,0.5,0.9v9.5c0,0.4-0.2,0.8-0.5,0.9l-9.6,4.8C309.5,153,309.3,153,309.2,153
				L309.2,153z M300.6,146.6l8.6,4.3l8.6-4.3v-8.2l-8.6-4.3l-8.6,4.3V146.6L300.6,146.6z"/>
		</g>
		<g>
			<path fill="#404447" d="M309.2,143.8c-0.1,0-0.3,0-0.4-0.1l-9.6-4.8c-0.5-0.2-0.7-0.8-0.5-1.4c0.2-0.5,0.8-0.7,1.2-0.5l9.2,4.6
				l9.2-4.6c0.5-0.2,1,0,1.2,0.5c0.2,0.5,0,1.1-0.5,1.4l-9.6,4.8C309.5,143.8,309.3,143.8,309.2,143.8L309.2,143.8z"/>
		</g>
		<g>
			<path fill="#404447" d="M314.4,141c-0.1,0-0.1,0-0.2,0l-9.6-4.8c-0.2-0.1-0.3-0.4-0.2-0.7c0.1-0.3,0.4-0.4,0.6-0.3l9.6,4.8
				c0.2,0.1,0.3,0.4,0.2,0.7C314.7,140.9,314.5,141,314.4,141L314.4,141z"/>
		</g>
		<g>
			<path fill="#404447" d="M309.2,152.7c-0.5,0-0.9-0.5-0.9-1v-7.9c0-0.6,0.4-1,0.9-1c0.5,0,0.9,0.5,0.9,1v7.9
				C310.1,152.2,309.7,152.7,309.2,152.7L309.2,152.7z"/>
		</g>
	</g>
	<rect fill="none" width="328.1" height="247.1"/>
	<g>
		<g>
			<g>
				<path fill="#FFFFFF" d="M151.8,18h4.2c1,0,1.9,0.3,2.4,0.8c0.4,0.4,0.6,0.9,0.6,1.5v0c0,1-0.5,1.6-1.2,2c1.1,0.4,1.7,1,1.7,2.2
					v0c0,1.7-1.4,2.5-3.4,2.5h-4.3V18z M155.6,21.7c0.9,0,1.4-0.3,1.4-1v0c0-0.6-0.5-0.9-1.3-0.9h-2v1.9H155.6z M156.1,25.4
					c0.9,0,1.4-0.3,1.4-1v0c0-0.6-0.5-1-1.5-1h-2.3v2H156.1z"/>
			</g>
		</g>
		<g>
			<path fill="#59B8B3" d="M144.3,30.4l10.4,8.9c0.4,0.3,0.9,0.3,1.3,0l10.5-8.9c0.2-0.2,0.3-0.5,0.3-0.8V16.4
				c0-1.3-1.1-2.4-2.4-2.4h-18.2c-1.3,0-2.4,1.1-2.4,2.4v13.2C143.9,30,144.1,30.2,144.3,30.4z M145.9,16.4c0-0.2,0.2-0.4,0.4-0.4
				h18.2c0.2,0,0.4,0.2,0.4,0.4v12.8h-18.9V16.4z"/>
		</g>
	</g>
	<g>
		<g>
			<g>
				<path fill="#FFFFFF" d="M176.3,22.6L176.3,22.6c0-2.6,2-4.7,4.7-4.7c1.7,0,2.7,0.6,3.6,1.4l-1.3,1.5c-0.7-0.6-1.4-1-2.3-1
					c-1.5,0-2.6,1.3-2.6,2.8v0c0,1.6,1.1,2.9,2.6,2.9c1,0,1.7-0.4,2.4-1.1l1.3,1.3c-0.9,1-2,1.6-3.7,1.6
					C178.2,27.3,176.3,25.2,176.3,22.6z"/>
			</g>
		</g>
		<g>
			<path fill="#59B8B3" d="M169.3,30.4l10.4,8.9c0.4,0.3,0.9,0.3,1.3,0l10.5-8.9c0.2-0.2,0.3-0.5,0.3-0.8V16.4
				c0-1.3-1.1-2.4-2.4-2.4h-18.2c-1.3,0-2.4,1.1-2.4,2.4v13.2C168.9,30,169.1,30.2,169.3,30.4z M170.9,16.4c0-0.2,0.2-0.4,0.4-0.4
				h18.2c0.2,0,0.4,0.2,0.4,0.4v12.8h-18.9V16.4z"/>
		</g>
	</g>
	<g>
		<g>
			<g>
				<path fill="#FFFFFF" d="M201.4,58h3.5c2.9,0,4.8,2,4.8,4.5v0c0,2.6-2,4.6-4.8,4.6h-3.5V58z M204.9,65.3c1.6,0,2.7-1.1,2.7-2.7v0
					c0-1.6-1.1-2.7-2.7-2.7h-1.5v5.5H204.9z"/>
			</g>
		</g>
		<g>
			<path fill="#59B8B3" d="M194.3,70.4l10.4,8.9c0.4,0.3,0.9,0.3,1.3,0l10.5-8.9c0.2-0.2,0.3-0.5,0.3-0.8V56.4
				c0-1.3-1.1-2.4-2.4-2.4h-18.2c-1.3,0-2.4,1.1-2.4,2.4v13.2C193.9,70,194.1,70.2,194.3,70.4z M195.9,56.4c0-0.2,0.2-0.4,0.4-0.4
				h18.2c0.2,0,0.4,0.2,0.4,0.4v12.8h-18.9V56.4z"/>
		</g>
	</g>
	<g>
		<g>
			<path fill="#6CB2E2" d="M141.5,54.6l-10.4-8.9c-0.4-0.3-0.9-0.3-1.3,0l-10.5,8.9c-0.2,0.2-0.3,0.5-0.3,0.8v13.2
				c0,1.3,1.1,2.4,2.4,2.4h18.2c1.3,0,2.4-1.1,2.4-2.4V55.4C141.8,55.1,141.7,54.8,141.5,54.6z M139.8,68.6c0,0.2-0.2,0.4-0.4,0.4
				h-18.2c-0.2,0-0.4-0.2-0.4-0.4V55.8h18.9V68.6z"/>
		</g>
		<g>
			<g>
				<path fill="#FFFFFF" d="M129.4,57.8h1.8l3.9,9.2h-2.1l-0.8-2h-3.8l-0.8,2h-2L129.4,57.8z M131.5,63.1l-1.2-3l-1.2,3H131.5z"/>
			</g>
		</g>
	</g>
	<g>
		<g>
			<path fill="#6CB2E2" d="M141.5,94.6l-10.4-8.9c-0.4-0.3-0.9-0.3-1.3,0l-10.5,8.9c-0.2,0.2-0.3,0.5-0.3,0.8v13.2
				c0,1.3,1.1,2.4,2.4,2.4h18.2c1.3,0,2.4-1.1,2.4-2.4V95.4C141.8,95.1,141.7,94.8,141.5,94.6z M139.8,108.6c0,0.2-0.2,0.4-0.4,0.4
				h-18.2c-0.2,0-0.4-0.2-0.4-0.4V95.8h18.9V108.6z"/>
		</g>
		<g>
			<g>
				<path fill="#FFFFFF" d="M129.4,97.8h1.8l3.9,9.2h-2.1l-0.8-2h-3.8l-0.8,2h-2L129.4,97.8z M131.5,103.1l-1.2-3l-1.2,3H131.5z"/>
			</g>
		</g>
	</g>
	<g>
		<g>
			<path fill="#6CB2E2" d="M166.5,134.6l-10.4-8.9c-0.4-0.3-0.9-0.3-1.3,0l-10.5,8.9c-0.2,0.2-0.3,0.5-0.3,0.8v13.2
				c0,1.3,1.1,2.4,2.4,2.4h18.2c1.3,0,2.4-1.1,2.4-2.4v-13.2C166.8,135.1,166.7,134.8,166.5,134.6z M164.8,148.6
				c0,0.2-0.2,0.4-0.4,0.4h-18.2c-0.2,0-0.4-0.2-0.4-0.4v-12.8h18.9V148.6z"/>
		</g>
		<g>
			<g>
				<path fill="#FFFFFF" d="M151.8,137.9h4.2c1,0,1.9,0.3,2.4,0.8c0.4,0.4,0.6,0.9,0.6,1.5v0c0,1-0.5,1.6-1.2,2
					c1.1,0.4,1.7,1,1.7,2.2v0c0,1.7-1.4,2.5-3.4,2.5h-4.3V137.9z M155.6,141.5c0.9,0,1.4-0.3,1.4-1v0c0-0.6-0.5-0.9-1.3-0.9h-2v1.9
					H155.6z M156.1,145.2c0.9,0,1.4-0.3,1.4-1v0c0-0.6-0.5-1-1.5-1h-2.3v2H156.1z"/>
			</g>
		</g>
	</g>
</g>
</svg>
