<?xml version="1.0" encoding="utf-8"?>
<!-- Generator: Adobe Illustrator 19.1.0, SVG Export Plug-In . SVG Version: 6.00 Build 0)  -->
<svg version="1.1" id="Layer_1" xmlns="http://www.w3.org/2000/svg" xmlns:xlink="http://www.w3.org/1999/xlink" x="0px" y="0px"
	 viewBox="0 0 299.5 247.1" enable-background="new 0 0 299.5 247.1" xml:space="preserve">
<g>
	<rect x="43.9" y="95.8" fill="#445464" width="204.2" height="13.4"/>
	<ellipse fill="#445464" stroke="#D1D3D4" stroke-miterlimit="10" cx="248" cy="102.5" rx="3.2" ry="6.7"/>
	<g>
		<g>
			<path fill="#FFFFFF" d="M48,98.2h3.4c2,0,3.2,1.2,3.2,2.9v0c0,1.9-1.5,3-3.4,3h-1.4v2.5H48V98.2z M51.3,102.4
				c0.9,0,1.5-0.6,1.5-1.3v0c0-0.8-0.6-1.3-1.5-1.3h-1.4v2.6H51.3z"/>
			<path fill="#FFFFFF" d="M55.8,100.2h1.8v1.3c0.4-0.9,1-1.5,2.1-1.4v1.9h-0.1c-1.2,0-2,0.7-2,2.3v2.4h-1.8V100.2z"/>
			<path fill="#FFFFFF" d="M60.4,103.4L60.4,103.4c0-1.9,1.5-3.4,3.5-3.4c2,0,3.5,1.5,3.5,3.3v0c0,1.8-1.5,3.3-3.5,3.3
				C61.8,106.7,60.4,105.2,60.4,103.4z M65.5,103.4L65.5,103.4c0-1-0.7-1.8-1.7-1.8c-1,0-1.7,0.8-1.7,1.8v0c0,0.9,0.7,1.8,1.7,1.8
				C64.9,105.2,65.5,104.3,65.5,103.4z"/>
			<path fill="#FFFFFF" d="M67.7,108.5V107c0.1,0,0.3,0,0.4,0c0.4,0,0.6-0.2,0.6-0.7v-6.2h1.8v6.3c0,1.4-0.7,2.1-2.1,2.1
				C68.1,108.5,67.9,108.5,67.7,108.5z M68.7,97.8h1.9v1.6h-1.9V97.8z"/>
			<path fill="#FFFFFF" d="M72,103.4L72,103.4c0-1.9,1.3-3.4,3.2-3.4c2.1,0,3.1,1.7,3.1,3.5c0,0.1,0,0.3,0,0.5h-4.5
				c0.2,0.8,0.8,1.3,1.6,1.3c0.6,0,1.1-0.2,1.6-0.7l1,0.9c-0.6,0.7-1.5,1.2-2.6,1.2C73.4,106.7,72,105.4,72,103.4z M76.5,102.9
				c-0.1-0.8-0.6-1.4-1.4-1.4c-0.8,0-1.2,0.5-1.4,1.4H76.5z"/>
			<path fill="#FFFFFF" d="M79.3,103.4L79.3,103.4c0-1.9,1.4-3.4,3.4-3.4c1.2,0,2,0.4,2.6,1.1l-1.1,1.2c-0.4-0.4-0.8-0.7-1.5-0.7
				c-0.9,0-1.6,0.8-1.6,1.8v0c0,1,0.6,1.8,1.6,1.8c0.6,0,1-0.3,1.5-0.7l1.1,1.1c-0.6,0.7-1.3,1.2-2.6,1.2
				C80.7,106.7,79.3,105.2,79.3,103.4z"/>
			<path fill="#FFFFFF" d="M86.8,104.8v-3H86v-1.6h0.8v-1.6h1.8v1.6h1.5v1.6h-1.5v2.7c0,0.4,0.2,0.6,0.6,0.6c0.3,0,0.6-0.1,0.9-0.2
				v1.5c-0.4,0.2-0.8,0.4-1.4,0.4C87.5,106.7,86.8,106.2,86.8,104.8z"/>
			<path fill="#FFFFFF" d="M94.9,102.4L94.9,102.4c0-2.4,1.8-4.4,4.4-4.4c1.6,0,2.5,0.5,3.3,1.3l-1.2,1.4c-0.6-0.6-1.3-0.9-2.1-0.9
				c-1.4,0-2.4,1.2-2.4,2.6v0c0,1.4,1,2.6,2.4,2.6c1,0,1.5-0.4,2.2-1l1.2,1.2c-0.9,0.9-1.8,1.5-3.4,1.5
				C96.7,106.7,94.9,104.8,94.9,102.4z"/>
		</g>
	</g>
	<g>
		<g>
			<path fill="#6CB2E2" d="M163.8,94.6l-10.4-8.9c-0.4-0.3-0.9-0.3-1.3,0l-10.5,8.9c-0.2,0.2-0.3,0.5-0.3,0.8v13.2
				c0,1.3,1.1,2.4,2.4,2.4h18.2c1.3,0,2.4-1.1,2.4-2.4V95.4C164.2,95.1,164,94.8,163.8,94.6z M162.2,108.6c0,0.2-0.2,0.4-0.4,0.4
				h-18.2c-0.2,0-0.4-0.2-0.4-0.4V95.8h18.9V108.6z"/>
		</g>
		<g>
			<g>
				<path fill="#FFFFFF" d="M151.8,97.8h1.8l3.9,9.2h-2.1l-0.8-2h-3.8l-0.8,2h-2L151.8,97.8z M153.9,103.1l-1.2-3l-1.2,3H153.9z"/>
			</g>
		</g>
	</g>
	<g>
		<g>
			<g>
				<path fill="#FFFFFF" d="M175.5,98h6.9v1.8h-4.9v1.8h4.3v1.8h-4.3v1.9h4.9v1.8h-6.9V98z"/>
			</g>
		</g>
		<g>
			<path fill="#59B8B3" d="M167.6,110.4l10.4,8.9c0.4,0.3,0.9,0.3,1.3,0l10.5-8.9c0.2-0.2,0.3-0.5,0.3-0.8V96.4
				c0-1.3-1.1-2.4-2.4-2.4h-18.2c-1.3,0-2.4,1.1-2.4,2.4v13.2C167.3,110,167.4,110.2,167.6,110.4z M169.3,96.4
				c0-0.2,0.2-0.4,0.4-0.4h18.2c0.2,0,0.4,0.2,0.4,0.4v12.8h-18.9V96.4z"/>
		</g>
	</g>
	<g>
		<g>
			<g>
				<path fill="#ED1C24" d="M278,66c-0.2,0-0.5-0.1-0.6-0.3c-0.4-0.4-0.4-0.9,0-1.3l5.1-5.1c0.4-0.4,0.9-0.4,1.3,0
					c0.4,0.4,0.4,0.9,0,1.3l-5.1,5.1C278.5,65.9,278.2,66,278,66L278,66z"/>
			</g>
			<g>
				<path fill="#ED1C24" d="M283.1,66c-0.2,0-0.5-0.1-0.6-0.3l-5.1-5.1c-0.4-0.4-0.4-0.9,0-1.3c0.4-0.4,0.9-0.4,1.3,0l5.1,5.1
					c0.4,0.4,0.4,0.9,0,1.3C283.6,65.9,283.3,66,283.1,66L283.1,66z"/>
			</g>
		</g>
		<g>
			<path fill="#ED1C24" d="M290.6,73.4h-20c-0.5,0-0.9-0.4-0.9-0.9v-20c0-0.5,0.4-0.9,0.9-0.9h20c0.5,0,0.9,0.4,0.9,0.9v20
				C291.5,73,291.1,73.4,290.6,73.4L290.6,73.4z M271.5,71.6h18.2V53.4h-18.2V71.6L271.5,71.6z"/>
		</g>
	</g>
	<rect x="43.9" y="55.8" fill="#445464" width="204.2" height="13.4"/>
	<ellipse fill="#445464" stroke="#D1D3D4" stroke-miterlimit="10" cx="248" cy="62.5" rx="3.2" ry="6.7"/>
	<g opacity="0.8">
		<line fill="#445464" x1="264.8" y1="62.7" x2="245.4" y2="62.7"/>
		<g>
			<line fill="none" stroke="#445464" stroke-miterlimit="10" x1="261.9" y1="62.7" x2="245.4" y2="62.7"/>
			<g>
				<polygon fill="#445464" points="261.3,60.8 264.8,62.7 261.3,64.7 				"/>
			</g>
		</g>
	</g>
	<g>
		<g>
			<path fill="#FFFFFF" d="M48,58.2h3.4c2,0,3.2,1.2,3.2,2.9v0c0,1.9-1.5,3-3.4,3h-1.4v2.5H48V58.2z M51.3,62.4
				c0.9,0,1.5-0.6,1.5-1.3v0c0-0.8-0.6-1.3-1.5-1.3h-1.4v2.6H51.3z"/>
			<path fill="#FFFFFF" d="M55.8,60.2h1.8v1.3c0.4-0.9,1-1.5,2.1-1.4v1.9h-0.1c-1.2,0-2,0.7-2,2.3v2.4h-1.8V60.2z"/>
			<path fill="#FFFFFF" d="M60.4,63.4L60.4,63.4c0-1.9,1.5-3.4,3.5-3.4c2,0,3.5,1.5,3.5,3.3v0c0,1.8-1.5,3.3-3.5,3.3
				C61.8,66.7,60.4,65.2,60.4,63.4z M65.5,63.4L65.5,63.4c0-1-0.7-1.8-1.7-1.8c-1,0-1.7,0.8-1.7,1.8v0c0,0.9,0.7,1.8,1.7,1.8
				C64.9,65.2,65.5,64.3,65.5,63.4z"/>
			<path fill="#FFFFFF" d="M67.7,68.5V67c0.1,0,0.3,0,0.4,0c0.4,0,0.6-0.2,0.6-0.7v-6.2h1.8v6.3c0,1.4-0.7,2.1-2.1,2.1
				C68.1,68.5,67.9,68.5,67.7,68.5z M68.7,57.8h1.9v1.6h-1.9V57.8z"/>
			<path fill="#FFFFFF" d="M72,63.4L72,63.4c0-1.9,1.3-3.4,3.2-3.4c2.1,0,3.1,1.7,3.1,3.5c0,0.1,0,0.3,0,0.5h-4.5
				c0.2,0.8,0.8,1.3,1.6,1.3c0.6,0,1.1-0.2,1.6-0.7l1,0.9c-0.6,0.7-1.5,1.2-2.6,1.2C73.4,66.7,72,65.4,72,63.4z M76.5,62.9
				c-0.1-0.8-0.6-1.4-1.4-1.4c-0.8,0-1.2,0.5-1.4,1.4H76.5z"/>
			<path fill="#FFFFFF" d="M79.3,63.4L79.3,63.4c0-1.9,1.4-3.4,3.4-3.4c1.2,0,2,0.4,2.6,1.1l-1.1,1.2c-0.4-0.4-0.8-0.7-1.5-0.7
				c-0.9,0-1.6,0.8-1.6,1.8v0c0,1,0.6,1.8,1.6,1.8c0.6,0,1-0.3,1.5-0.7l1.1,1.1c-0.6,0.7-1.3,1.2-2.6,1.2
				C80.7,66.7,79.3,65.2,79.3,63.4z"/>
			<path fill="#FFFFFF" d="M86.8,64.8v-3H86v-1.6h0.8v-1.6h1.8v1.6h1.5v1.6h-1.5v2.7c0,0.4,0.2,0.6,0.6,0.6c0.3,0,0.6-0.1,0.9-0.2
				v1.5c-0.4,0.2-0.8,0.4-1.4,0.4C87.5,66.7,86.8,66.2,86.8,64.8z"/>
			<path fill="#FFFFFF" d="M95.2,58.2h3.9c1,0,1.7,0.3,2.2,0.7c0.4,0.4,0.6,0.9,0.6,1.4v0c0,0.9-0.5,1.5-1.1,1.8
				c1,0.4,1.6,0.9,1.6,2.1v0c0,1.5-1.2,2.3-3.1,2.3h-4V58.2z M98.7,61.6c0.8,0,1.3-0.3,1.3-0.9v0c0-0.6-0.4-0.9-1.2-0.9H97v1.8H98.7
				z M99.2,65c0.8,0,1.3-0.3,1.3-0.9v0c0-0.6-0.4-0.9-1.4-0.9H97V65H99.2z"/>
		</g>
	</g>
	<g>
		<g>
			<path fill="#6CB2E2" d="M163.8,54.6l-10.4-8.9c-0.4-0.3-0.9-0.3-1.3,0l-10.5,8.9c-0.2,0.2-0.3,0.5-0.3,0.8v13.2
				c0,1.3,1.1,2.4,2.4,2.4h18.2c1.3,0,2.4-1.1,2.4-2.4V55.4C164.2,55.1,164,54.8,163.8,54.6z M162.2,68.6c0,0.2-0.2,0.4-0.4,0.4
				h-18.2c-0.2,0-0.4-0.2-0.4-0.4V55.8h18.9V68.6z"/>
		</g>
		<g>
			<g>
				<path fill="#FFFFFF" d="M151.8,57.8h1.8l3.9,9.2h-2.1l-0.8-2h-3.8l-0.8,2h-2L151.8,57.8z M153.9,63.1l-1.2-3l-1.2,3H153.9z"/>
			</g>
		</g>
	</g>
	<g>
		<g>
			<g>
				<path fill="#FFFFFF" d="M174.7,58h3.5c2.9,0,4.8,2,4.8,4.5v0c0,2.6-2,4.6-4.8,4.6h-3.5V58z M178.3,65.3c1.6,0,2.7-1.1,2.7-2.7v0
					c0-1.6-1.1-2.7-2.7-2.7h-1.5v5.5H178.3z"/>
			</g>
		</g>
		<g>
			<path fill="#59B8B3" d="M167.6,70.4l10.4,8.9c0.4,0.3,0.9,0.3,1.3,0l10.5-8.9c0.2-0.2,0.3-0.5,0.3-0.8V56.4
				c0-1.3-1.1-2.4-2.4-2.4h-18.2c-1.3,0-2.4,1.1-2.4,2.4v13.2C167.3,70,167.4,70.2,167.6,70.4z M169.3,56.4c0-0.2,0.2-0.4,0.4-0.4
				h18.2c0.2,0,0.4,0.2,0.4,0.4v12.8h-18.9V56.4z"/>
		</g>
	</g>
	<rect x="43.9" y="15.8" fill="#445464" width="204.2" height="13.4"/>
	<ellipse fill="#445464" stroke="#D1D3D4" stroke-miterlimit="10" cx="248" cy="22.5" rx="3.2" ry="6.7"/>
	<g>
		<g>
			<path fill="#FFFFFF" d="M48,18.2h3.4c2,0,3.2,1.2,3.2,2.9v0c0,1.9-1.5,3-3.4,3h-1.4v2.5H48V18.2z M51.3,22.4
				c0.9,0,1.5-0.6,1.5-1.3v0c0-0.8-0.6-1.3-1.5-1.3h-1.4v2.6H51.3z"/>
			<path fill="#FFFFFF" d="M55.8,20.2h1.8v1.3c0.4-0.9,1-1.5,2.1-1.4v1.9h-0.1c-1.2,0-2,0.7-2,2.3v2.4h-1.8V20.2z"/>
			<path fill="#FFFFFF" d="M60.4,23.4L60.4,23.4c0-1.9,1.5-3.4,3.5-3.4c2,0,3.5,1.5,3.5,3.3v0c0,1.8-1.5,3.3-3.5,3.3
				C61.8,26.7,60.4,25.2,60.4,23.4z M65.5,23.4L65.5,23.4c0-1-0.7-1.8-1.7-1.8c-1,0-1.7,0.8-1.7,1.8v0c0,0.9,0.7,1.8,1.7,1.8
				C64.9,25.2,65.5,24.3,65.5,23.4z"/>
			<path fill="#FFFFFF" d="M67.7,28.5V27c0.1,0,0.3,0,0.4,0c0.4,0,0.6-0.2,0.6-0.7v-6.2h1.8v6.3c0,1.4-0.7,2.1-2.1,2.1
				C68.1,28.5,67.9,28.5,67.7,28.5z M68.7,17.8h1.9v1.6h-1.9V17.8z"/>
			<path fill="#FFFFFF" d="M72,23.4L72,23.4c0-1.9,1.3-3.4,3.2-3.4c2.1,0,3.1,1.7,3.1,3.5c0,0.1,0,0.3,0,0.5h-4.5
				c0.2,0.8,0.8,1.3,1.6,1.3c0.6,0,1.1-0.2,1.6-0.7l1,0.9c-0.6,0.7-1.5,1.2-2.6,1.2C73.4,26.7,72,25.4,72,23.4z M76.5,22.9
				c-0.1-0.8-0.6-1.4-1.4-1.4c-0.8,0-1.2,0.5-1.4,1.4H76.5z"/>
			<path fill="#FFFFFF" d="M79.3,23.4L79.3,23.4c0-1.9,1.4-3.4,3.4-3.4c1.2,0,2,0.4,2.6,1.1l-1.1,1.2c-0.4-0.4-0.8-0.7-1.5-0.7
				c-0.9,0-1.6,0.8-1.6,1.8v0c0,1,0.6,1.8,1.6,1.8c0.6,0,1-0.3,1.5-0.7l1.1,1.1c-0.6,0.7-1.3,1.2-2.6,1.2
				C80.7,26.7,79.3,25.2,79.3,23.4z"/>
			<path fill="#FFFFFF" d="M86.8,24.8v-3H86v-1.6h0.8v-1.6h1.8v1.6h1.5v1.6h-1.5v2.7c0,0.4,0.2,0.6,0.6,0.6c0.3,0,0.6-0.1,0.9-0.2
				v1.5c-0.4,0.2-0.8,0.4-1.4,0.4C87.5,26.7,86.8,26.2,86.8,24.8z"/>
			<path fill="#FFFFFF" d="M98.1,18.1h1.7l3.6,8.5h-1.9l-0.8-1.9h-3.5l-0.8,1.9h-1.9L98.1,18.1z M100.1,23.1L99,20.3l-1.1,2.7H100.1
				z"/>
		</g>
	</g>
	<g>
		<g>
			<g>
				<path fill="#FFFFFF" d="M149.1,18h4.2c1,0,1.9,0.3,2.4,0.8c0.4,0.4,0.6,0.9,0.6,1.5v0c0,1-0.5,1.6-1.2,2c1.1,0.4,1.7,1,1.7,2.2
					v0c0,1.7-1.4,2.5-3.4,2.5h-4.3V18z M152.9,21.7c0.9,0,1.4-0.3,1.4-1v0c0-0.6-0.5-0.9-1.3-0.9h-2v1.9H152.9z M153.4,25.4
					c0.9,0,1.4-0.3,1.4-1v0c0-0.6-0.5-1-1.5-1h-2.3v2H153.4z"/>
			</g>
		</g>
		<g>
			<path fill="#59B8B3" d="M141.6,30.4l10.4,8.9c0.4,0.3,0.9,0.3,1.3,0l10.5-8.9c0.2-0.2,0.3-0.5,0.3-0.8V16.4
				c0-1.3-1.1-2.4-2.4-2.4h-18.2c-1.3,0-2.4,1.1-2.4,2.4v13.2C141.3,30,141.4,30.2,141.6,30.4z M143.3,16.4c0-0.2,0.2-0.4,0.4-0.4
				h18.2c0.2,0,0.4,0.2,0.4,0.4v12.8h-18.9V16.4z"/>
		</g>
	</g>
	<g>
		<g>
			<g>
				<path fill="#FFFFFF" d="M174.6,22.6L174.6,22.6c0-2.6,2-4.7,4.7-4.7c1.7,0,2.7,0.6,3.6,1.4l-1.3,1.5c-0.7-0.6-1.4-1-2.3-1
					c-1.5,0-2.6,1.3-2.6,2.8v0c0,1.6,1.1,2.9,2.6,2.9c1,0,1.7-0.4,2.4-1.1l1.3,1.3c-0.9,1-2,1.6-3.7,1.6
					C176.6,27.3,174.6,25.2,174.6,22.6z"/>
			</g>
		</g>
		<g>
			<path fill="#59B8B3" d="M167.6,30.4l10.4,8.9c0.4,0.3,0.9,0.3,1.3,0l10.5-8.9c0.2-0.2,0.3-0.5,0.3-0.8V16.4
				c0-1.3-1.1-2.4-2.4-2.4h-18.2c-1.3,0-2.4,1.1-2.4,2.4v13.2C167.3,30,167.4,30.2,167.6,30.4z M169.3,16.4c0-0.2,0.2-0.4,0.4-0.4
				h18.2c0.2,0,0.4,0.2,0.4,0.4v12.8h-18.9V16.4z"/>
		</g>
	</g>
	<g>
		<g>
			<path fill="#F26522" d="M31.1,24.8c-0.2,0-0.5-0.1-0.7-0.3l-3-2.7c-0.4-0.4-0.4-1-0.1-1.4c0.4-0.4,1-0.4,1.4-0.1l2.4,2.1l2.4-2.1
				c0.4-0.4,1-0.3,1.4,0.1c0.4,0.4,0.3,1-0.1,1.4l-3,2.7C31.6,24.7,31.3,24.8,31.1,24.8L31.1,24.8z"/>
		</g>
		<g>
			<path fill="#F26522" d="M31.2,23.4c-0.6,0-1-0.4-1-1c0-4.8-3.9-8.7-8.7-8.7c-3,0-5.7,1.5-7.3,4c-0.3,0.5-0.9,0.6-1.4,0.3
				c-0.5-0.3-0.6-0.9-0.3-1.4c2-3.1,5.3-4.9,9-4.9c5.9,0,10.7,4.8,10.7,10.7C32.2,23,31.8,23.4,31.2,23.4L31.2,23.4z"/>
		</g>
		<g>
			<path fill="#F26522" d="M21.6,33.3c-5.9,0-10.7-4.8-10.7-10.7c0-0.6,0.4-1,1-1c0.6,0,1,0.4,1,1c0,4.8,3.9,8.7,8.7,8.7
				c3,0,5.7-1.5,7.3-4c0.3-0.5,0.9-0.6,1.4-0.3c0.5,0.3,0.6,0.9,0.3,1.4C28.7,31.4,25.3,33.3,21.6,33.3L21.6,33.3z"/>
		</g>
		<g>
			<path fill="#F26522" d="M15.1,25c-0.2,0-0.5-0.1-0.7-0.3L12,22.6l-2.4,2.1c-0.4,0.4-1,0.3-1.4-0.1c-0.4-0.4-0.3-1,0.1-1.4l3-2.7
				c0.4-0.3,1-0.3,1.3,0l3,2.7c0.4,0.4,0.4,1,0.1,1.4C15.6,24.9,15.3,25,15.1,25L15.1,25z"/>
		</g>
	</g>
	<rect x="43.9" y="135.8" fill="#445464" width="204.2" height="13.4"/>
	<ellipse fill="#445464" stroke="#D1D3D4" stroke-miterlimit="10" cx="248" cy="142.5" rx="3.2" ry="6.7"/>
	<g>
		<g>
			<path fill="#FFFFFF" d="M48,138.2h3.4c2,0,3.2,1.2,3.2,2.9v0c0,1.9-1.5,3-3.4,3h-1.4v2.5H48V138.2z M51.3,142.4
				c0.9,0,1.5-0.6,1.5-1.3v0c0-0.8-0.6-1.3-1.5-1.3h-1.4v2.6H51.3z"/>
			<path fill="#FFFFFF" d="M55.8,140.2h1.8v1.3c0.4-0.9,1-1.5,2.1-1.4v1.9h-0.1c-1.2,0-2,0.7-2,2.3v2.4h-1.8V140.2z"/>
			<path fill="#FFFFFF" d="M60.4,143.4L60.4,143.4c0-1.9,1.5-3.4,3.5-3.4c2,0,3.5,1.5,3.5,3.3v0c0,1.8-1.5,3.3-3.5,3.3
				C61.8,146.7,60.4,145.2,60.4,143.4z M65.5,143.4L65.5,143.4c0-1-0.7-1.8-1.7-1.8c-1,0-1.7,0.8-1.7,1.8v0c0,0.9,0.7,1.8,1.7,1.8
				C64.9,145.2,65.5,144.3,65.5,143.4z"/>
			<path fill="#FFFFFF" d="M67.7,148.5V147c0.1,0,0.3,0,0.4,0c0.4,0,0.6-0.2,0.6-0.7v-6.2h1.8v6.3c0,1.4-0.7,2.1-2.1,2.1
				C68.1,148.5,67.9,148.5,67.7,148.5z M68.7,137.8h1.9v1.6h-1.9V137.8z"/>
			<path fill="#FFFFFF" d="M72,143.4L72,143.4c0-1.9,1.3-3.4,3.2-3.4c2.1,0,3.1,1.7,3.1,3.5c0,0.1,0,0.3,0,0.5h-4.5
				c0.2,0.8,0.8,1.3,1.6,1.3c0.6,0,1.1-0.2,1.6-0.7l1,0.9c-0.6,0.7-1.5,1.2-2.6,1.2C73.4,146.7,72,145.4,72,143.4z M76.5,142.9
				c-0.1-0.8-0.6-1.4-1.4-1.4c-0.8,0-1.2,0.5-1.4,1.4H76.5z"/>
			<path fill="#FFFFFF" d="M79.3,143.4L79.3,143.4c0-1.9,1.4-3.4,3.4-3.4c1.2,0,2,0.4,2.6,1.1l-1.1,1.2c-0.4-0.4-0.8-0.7-1.5-0.7
				c-0.9,0-1.6,0.8-1.6,1.8v0c0,1,0.6,1.8,1.6,1.8c0.6,0,1-0.3,1.5-0.7l1.1,1.1c-0.6,0.7-1.3,1.2-2.6,1.2
				C80.7,146.7,79.3,145.2,79.3,143.4z"/>
			<path fill="#FFFFFF" d="M86.8,144.8v-3H86v-1.6h0.8v-1.6h1.8v1.6h1.5v1.6h-1.5v2.7c0,0.4,0.2,0.6,0.6,0.6c0.3,0,0.6-0.1,0.9-0.2
				v1.5c-0.4,0.2-0.8,0.4-1.4,0.4C87.5,146.7,86.8,146.2,86.8,144.8z"/>
			<path fill="#FFFFFF" d="M95.2,138.2h3.3c2.6,0,4.5,1.8,4.5,4.2v0c0,2.4-1.8,4.2-4.5,4.2h-3.3V138.2z M98.5,144.9
				c1.5,0,2.5-1,2.5-2.5v0c0-1.5-1-2.5-2.5-2.5h-1.4v5.1H98.5z"/>
		</g>
	</g>
	<g>
		<g>
			<path fill="#6CB2E2" d="M163.8,134.6l-10.4-8.9c-0.4-0.3-0.9-0.3-1.3,0l-10.5,8.9c-0.2,0.2-0.3,0.5-0.3,0.8v13.2
				c0,1.3,1.1,2.4,2.4,2.4h18.2c1.3,0,2.4-1.1,2.4-2.4v-13.2C164.2,135.1,164,134.8,163.8,134.6z M162.2,148.6
				c0,0.2-0.2,0.4-0.4,0.4h-18.2c-0.2,0-0.4-0.2-0.4-0.4v-12.8h18.9V148.6z"/>
		</g>
		<g>
			<g>
				<path fill="#FFFFFF" d="M149.1,137.9h4.2c1,0,1.9,0.3,2.4,0.8c0.4,0.4,0.6,0.9,0.6,1.5v0c0,1-0.5,1.6-1.2,2
					c1.1,0.4,1.7,1,1.7,2.2v0c0,1.7-1.4,2.5-3.4,2.5h-4.3V137.9z M152.9,141.5c0.9,0,1.4-0.3,1.4-1v0c0-0.6-0.5-0.9-1.3-0.9h-2v1.9
					H152.9z M153.4,145.2c0.9,0,1.4-0.3,1.4-1v0c0-0.6-0.5-1-1.5-1h-2.3v2H153.4z"/>
			</g>
		</g>
	</g>
	<rect x="43.9" y="175.8" fill="#445464" width="204.2" height="13.4"/>
	<ellipse fill="#445464" stroke="#D1D3D4" stroke-miterlimit="10" cx="248" cy="182.5" rx="3.2" ry="6.7"/>
	<g opacity="0.8">
		<line fill="#445464" x1="264.8" y1="182.7" x2="245.4" y2="182.7"/>
		<g>
			<line fill="none" stroke="#445464" stroke-miterlimit="10" x1="261.9" y1="182.7" x2="245.4" y2="182.7"/>
			<g>
				<polygon fill="#445464" points="261.3,180.8 264.8,182.7 261.3,184.7 				"/>
			</g>
		</g>
	</g>
	<g>
		<g>
			<path fill="#FFFFFF" d="M48,178.2h3.4c2,0,3.2,1.2,3.2,2.9v0c0,1.9-1.5,3-3.4,3h-1.4v2.5H48V178.2z M51.3,182.4
				c0.9,0,1.5-0.6,1.5-1.3v0c0-0.8-0.6-1.3-1.5-1.3h-1.4v2.6H51.3z"/>
			<path fill="#FFFFFF" d="M55.8,180.2h1.8v1.3c0.4-0.9,1-1.5,2.1-1.4v1.9h-0.1c-1.2,0-2,0.7-2,2.3v2.4h-1.8V180.2z"/>
			<path fill="#FFFFFF" d="M60.4,183.4L60.4,183.4c0-1.9,1.5-3.4,3.5-3.4c2,0,3.5,1.5,3.5,3.3v0c0,1.8-1.5,3.3-3.5,3.3
				C61.8,186.7,60.4,185.2,60.4,183.4z M65.5,183.4L65.5,183.4c0-1-0.7-1.8-1.7-1.8c-1,0-1.7,0.8-1.7,1.8v0c0,0.9,0.7,1.8,1.7,1.8
				C64.9,185.2,65.5,184.3,65.5,183.4z"/>
			<path fill="#FFFFFF" d="M67.7,188.5V187c0.1,0,0.3,0,0.4,0c0.4,0,0.6-0.2,0.6-0.7v-6.2h1.8v6.3c0,1.4-0.7,2.1-2.1,2.1
				C68.1,188.5,67.9,188.5,67.7,188.5z M68.7,177.8h1.9v1.6h-1.9V177.8z"/>
			<path fill="#FFFFFF" d="M72,183.4L72,183.4c0-1.9,1.3-3.4,3.2-3.4c2.1,0,3.1,1.7,3.1,3.5c0,0.1,0,0.3,0,0.5h-4.5
				c0.2,0.8,0.8,1.3,1.6,1.3c0.6,0,1.1-0.2,1.6-0.7l1,0.9c-0.6,0.7-1.5,1.2-2.6,1.2C73.4,186.7,72,185.4,72,183.4z M76.5,182.9
				c-0.1-0.8-0.6-1.4-1.4-1.4c-0.8,0-1.2,0.5-1.4,1.4H76.5z"/>
			<path fill="#FFFFFF" d="M79.3,183.4L79.3,183.4c0-1.9,1.4-3.4,3.4-3.4c1.2,0,2,0.4,2.6,1.1l-1.1,1.2c-0.4-0.4-0.8-0.7-1.5-0.7
				c-0.9,0-1.6,0.8-1.6,1.8v0c0,1,0.6,1.8,1.6,1.8c0.6,0,1-0.3,1.5-0.7l1.1,1.1c-0.6,0.7-1.3,1.2-2.6,1.2
				C80.7,186.7,79.3,185.2,79.3,183.4z"/>
			<path fill="#FFFFFF" d="M86.8,184.8v-3H86v-1.6h0.8v-1.6h1.8v1.6h1.5v1.6h-1.5v2.7c0,0.4,0.2,0.6,0.6,0.6c0.3,0,0.6-0.1,0.9-0.2
				v1.5c-0.4,0.2-0.8,0.4-1.4,0.4C87.5,186.7,86.8,186.2,86.8,184.8z"/>
			<path fill="#FFFFFF" d="M95.2,178.2h6.3v1.6h-4.5v1.7h4v1.6h-4v1.8h4.6v1.6h-6.4V178.2z"/>
		</g>
	</g>
	<g>
		<g>
			<path fill="#F08921" d="M280.6,193c-0.1,0-0.3,0-0.4-0.1l-9.6-4.8c-0.3-0.2-0.5-0.5-0.5-0.9v-9.5c0-0.4,0.2-0.8,0.5-0.9l9.6-4.8
				c0.2-0.1,0.5-0.1,0.8,0l9.6,4.8c0.3,0.2,0.5,0.5,0.5,0.9v9.5c0,0.4-0.2,0.8-0.5,0.9l-9.6,4.8C280.8,193,280.7,193,280.6,193
				L280.6,193z M271.9,186.6l8.6,4.3l8.6-4.3v-8.2l-8.6-4.3l-8.6,4.3V186.6L271.9,186.6z"/>
		</g>
		<g>
			<path fill="#F08921" d="M280.6,183.8c-0.1,0-0.3,0-0.4-0.1l-9.6-4.8c-0.5-0.2-0.7-0.8-0.5-1.4c0.2-0.5,0.8-0.7,1.2-0.5l9.2,4.6
				l9.2-4.6c0.5-0.2,1,0,1.2,0.5c0.2,0.5,0,1.1-0.5,1.4l-9.6,4.8C280.8,183.8,280.7,183.8,280.6,183.8L280.6,183.8z"/>
		</g>
		<g>
			<path fill="#F08921" d="M285.7,181c-0.1,0-0.1,0-0.2,0l-9.6-4.8c-0.2-0.1-0.3-0.4-0.2-0.7c0.1-0.3,0.4-0.4,0.6-0.3l9.6,4.8
				c0.2,0.1,0.3,0.4,0.2,0.7C286.1,180.9,285.9,181,285.7,181L285.7,181z"/>
		</g>
		<g>
			<path fill="#F08921" d="M280.6,192.7c-0.5,0-0.9-0.5-0.9-1v-7.9c0-0.6,0.4-1,0.9-1c0.5,0,0.9,0.5,0.9,1v7.9
				C281.5,192.2,281.1,192.7,280.6,192.7L280.6,192.7z"/>
		</g>
	</g>
	<g>
		<g>
			<path fill="#6CB2E2" d="M163.8,174.6l-10.4-8.9c-0.4-0.3-0.9-0.3-1.3,0l-10.5,8.9c-0.2,0.2-0.3,0.5-0.3,0.8v13.2
				c0,1.3,1.1,2.4,2.4,2.4h18.2c1.3,0,2.4-1.1,2.4-2.4v-13.2C164.2,175.1,164,174.8,163.8,174.6z M162.2,188.6
				c0,0.2-0.2,0.4-0.4,0.4h-18.2c-0.2,0-0.4-0.2-0.4-0.4v-12.8h18.9V188.6z"/>
		</g>
		<g>
			<g>
				<path fill="#FFFFFF" d="M148.6,182.4L148.6,182.4c0-2.6,1.9-4.7,4.7-4.7c1.7,0,2.7,0.6,3.6,1.4l-1.3,1.5c-0.7-0.6-1.4-1-2.3-1
					c-1.5,0-2.6,1.3-2.6,2.8v0c0,1.6,1.1,2.9,2.6,2.9c1,0,1.7-0.4,2.4-1.1l1.3,1.3c-0.9,1-2,1.6-3.7,1.6
					C150.6,187.1,148.6,185,148.6,182.4z"/>
			</g>
		</g>
	</g>
	<rect fill="none" width="299.5" height="247.1"/>
</g>
</svg>
