<?xml version="1.0" encoding="utf-8"?>
<!-- Generator: Adobe Illustrator 19.1.0, SVG Export Plug-In . SVG Version: 6.00 Build 0)  -->
<svg version="1.1" id="Layer_1" xmlns="http://www.w3.org/2000/svg" xmlns:xlink="http://www.w3.org/1999/xlink" x="0px" y="0px"
	 viewBox="0 0 169.2 169.2" enable-background="new 0 0 169.2 169.2" xml:space="preserve">
<g>
	<rect fill="#FFFFFF" width="169.2" height="169.2"/>
	<g>
		<path fill="#404447" d="M20.1,151.1L20.1,151.1c0-2.8,2.1-5.1,5.1-5.1c1.8,0,3,0.6,3.9,1.6l-1.7,1.8c-0.6-0.6-1.2-1.1-2.2-1.1
			c-1.4,0-2.3,1.2-2.3,2.6v0c0,1.5,1,2.7,2.4,2.7c0.9,0,1.5-0.4,2.2-1l1.6,1.6c-0.9,1-2,1.8-3.9,1.8
			C22.2,156.1,20.1,153.9,20.1,151.1z"/>
		<path fill="#404447" d="M30.1,151.1L30.1,151.1c0-2.8,2.2-5.1,5.2-5.1c3,0,5.2,2.2,5.2,5v0c0,2.8-2.2,5-5.2,5
			C32.3,156.1,30.1,153.9,30.1,151.1z M37.8,151.1L37.8,151.1c0-1.5-1-2.7-2.5-2.7c-1.6,0-2.5,1.2-2.5,2.6v0c0,1.4,1,2.7,2.5,2.7
			C36.9,153.8,37.8,152.5,37.8,151.1z"/>
		<path fill="#404447" d="M42.5,146.2h2.7v1.4c0.6-0.8,1.5-1.5,2.8-1.5c1.3,0,2.2,0.6,2.7,1.5c0.8-1,1.9-1.5,3.2-1.5
			c2,0,3.3,1.2,3.3,3.5v6.3h-2.7v-5.4c0-1.3-0.6-2-1.6-2s-1.7,0.7-1.7,2v5.4h-2.7v-5.4c0-1.3-0.6-2-1.6-2s-1.7,0.7-1.7,2v5.4h-2.7
			V146.2z"/>
		<path fill="#404447" d="M59.6,146.2h2.7v1.4c0.6-0.8,1.5-1.5,2.8-1.5c1.3,0,2.2,0.6,2.7,1.5c0.8-1,1.9-1.5,3.2-1.5
			c2,0,3.3,1.2,3.3,3.5v6.3h-2.7v-5.4c0-1.3-0.6-2-1.6-2s-1.7,0.7-1.7,2v5.4h-2.7v-5.4c0-1.3-0.6-2-1.6-2s-1.7,0.7-1.7,2v5.4h-2.7
			V146.2z"/>
		<path fill="#404447" d="M76.1,153.1L76.1,153.1c0-2.1,1.6-3.1,3.9-3.1c1,0,1.7,0.2,2.4,0.4v-0.2c0-1.1-0.7-1.8-2.1-1.8
			c-1,0-1.8,0.2-2.7,0.5l-0.7-2.1c1.1-0.5,2.1-0.8,3.7-0.8c1.5,0,2.6,0.4,3.3,1.1c0.7,0.7,1,1.8,1,3.1v5.6h-2.6v-1
			c-0.7,0.7-1.6,1.2-2.9,1.2C77.6,156.1,76.1,155,76.1,153.1z M82.4,152.5V152c-0.5-0.2-1.1-0.4-1.7-0.4c-1.2,0-1.9,0.5-1.9,1.3v0
			c0,0.7,0.6,1.2,1.5,1.2C81.5,154.2,82.4,153.5,82.4,152.5z"/>
		<path fill="#404447" d="M87.3,146.2h2.7v1.4c0.6-0.8,1.4-1.5,2.8-1.5c2.1,0,3.3,1.4,3.3,3.6v6.2h-2.7v-5.4c0-1.3-0.6-2-1.7-2
			c-1,0-1.7,0.7-1.7,2v5.4h-2.7V146.2z"/>
		<path fill="#404447" d="M98.1,151.1L98.1,151.1c0-3.3,2.1-5,4.4-5c1.5,0,2.4,0.7,3,1.4v-4.8h2.7v13.1h-2.7v-1.4
			c-0.7,0.9-1.6,1.6-3,1.6C100.3,156.1,98.1,154.3,98.1,151.1z M105.6,151.1L105.6,151.1c0-1.6-1.1-2.7-2.3-2.7s-2.4,1-2.4,2.7v0
			c0,1.6,1.1,2.7,2.4,2.7S105.6,152.7,105.6,151.1z"/>
		<path fill="#404447" d="M110.4,149h5.5v2.6h-5.5V149z"/>
		<path fill="#404447" d="M118.2,142.8h2.7v13.1h-2.7V142.8z"/>
		<path fill="#404447" d="M123.5,142.8h2.9v2.4h-2.9V142.8z M123.6,146.2h2.7v9.7h-2.7V146.2z"/>
		<path fill="#404447" d="M128.9,146.2h2.7v1.4c0.6-0.8,1.4-1.5,2.8-1.5c2.1,0,3.3,1.4,3.3,3.6v6.2H135v-5.4c0-1.3-0.6-2-1.7-2
			c-1,0-1.7,0.7-1.7,2v5.4h-2.7V146.2z"/>
		<path fill="#404447" d="M139.7,151.1L139.7,151.1c0-2.8,2-5.1,4.8-5.1c3.2,0,4.7,2.5,4.7,5.2c0,0.2,0,0.5,0,0.7h-6.7
			c0.3,1.2,1.1,1.9,2.4,1.9c0.9,0,1.6-0.3,2.3-1l1.6,1.4c-0.9,1.1-2.2,1.8-3.9,1.8C141.8,156.1,139.7,154.1,139.7,151.1z
			 M146.5,150.3c-0.2-1.2-0.9-2.1-2-2.1c-1.1,0-1.9,0.8-2.1,2.1H146.5z"/>
	</g>
</g>
<g>
	<g>
		<g>
			<path fill="#404447" d="M127.7,122.6H42.5c-2.2,0-3.9-1.8-3.9-3.9V33.5c0-2.2,1.8-3.9,3.9-3.9h85.2c2.2,0,3.9,1.8,3.9,3.9v85.2
				C131.6,120.9,129.9,122.6,127.7,122.6L127.7,122.6z M46.4,114.8h77.4V37.4H46.4V114.8L46.4,114.8z"/>
		</g>
		<g>
			<path fill="#404447" d="M126.3,58.2H43.9c-1.1,0-2-0.9-2-2c0-1.1,0.9-2,2-2h82.4c1.1,0,2,0.9,2,2
				C128.3,57.4,127.4,58.2,126.3,58.2L126.3,58.2z"/>
		</g>
		<path fill="#404447" d="M56.3,41c-2.7,0-4.9,2.2-4.9,4.9c0,2.7,2.2,4.9,4.9,4.9s4.9-2.2,4.9-4.9C61.3,43.3,59.1,41,56.3,41
			L56.3,41z"/>
		<path fill="#404447" d="M69.7,41c-2.7,0-4.9,2.2-4.9,4.9c0,2.7,2.2,4.9,4.9,4.9s4.9-2.2,4.9-4.9C74.6,43.3,72.4,41,69.7,41
			L69.7,41z"/>
		<path fill="#404447" d="M83.1,41c-2.7,0-4.9,2.2-4.9,4.9c0,2.7,2.2,4.9,4.9,4.9c2.7,0,4.9-2.2,4.9-4.9C88,43.3,85.8,41,83.1,41
			L83.1,41z"/>
	</g>
	<g>
		<g>
			<g>
				<path fill="#404447" d="M108.6,102.7h-25c-2.2,0-3.9-1.8-3.9-3.9c0-2.2,1.8-3.9,3.9-3.9h25c2.2,0,3.9,1.8,3.9,3.9
					C112.5,100.9,110.7,102.7,108.6,102.7L108.6,102.7z"/>
			</g>
		</g>
		<g>
			<g>
				<path fill="#404447" d="M61.6,102.7c-1,0-2-0.4-2.8-1.1c-1.5-1.5-1.5-4,0-5.5l11.4-11.4L58.8,73.1c-1.5-1.5-1.5-4,0-5.5
					c1.5-1.5,4-1.5,5.5,0l14.2,14.2c1.5,1.5,1.5,4,0,5.5l-14.2,14.2C63.6,102.3,62.6,102.7,61.6,102.7L61.6,102.7z"/>
			</g>
		</g>
	</g>
</g>
</svg>
