<?xml version="1.0" encoding="utf-8"?>
<!-- Generator: Adobe Illustrator 19.1.0, SVG Export Plug-In . SVG Version: 6.00 Build 0)  -->
<svg version="1.1" id="Layer_1" xmlns="http://www.w3.org/2000/svg" xmlns:xlink="http://www.w3.org/1999/xlink" x="0px" y="0px"
	 viewBox="0 0 169.2 169.2" enable-background="new 0 0 169.2 169.2" xml:space="preserve">
<g>
	<rect fill="#FFFFFF" width="169.2" height="169.2"/>
	<g>
		<path fill="#404447" d="M63.7,146.2h2.7v1.9c0.6-1.3,1.5-2.2,3.1-2.1v2.9h-0.1c-1.8,0-2.9,1.1-2.9,3.4v3.6h-2.7V146.2z"/>
		<path fill="#404447" d="M71.2,152.5v-6.2h2.7v5.4c0,1.3,0.6,2,1.7,2c1,0,1.7-0.7,1.7-2v-5.4H80v9.7h-2.7v-1.4
			c-0.6,0.8-1.4,1.5-2.8,1.5C72.4,156.1,71.2,154.7,71.2,152.5z"/>
		<path fill="#404447" d="M82.6,142.8h2.7v13.1h-2.7V142.8z"/>
		<path fill="#404447" d="M87.4,151.1L87.4,151.1c0-2.8,2-5.1,4.8-5.1c3.2,0,4.7,2.5,4.7,5.2c0,0.2,0,0.5,0,0.7h-6.7
			c0.3,1.2,1.1,1.9,2.4,1.9c0.9,0,1.6-0.3,2.3-1l1.6,1.4c-0.9,1.1-2.2,1.8-3.9,1.8C89.6,156.1,87.4,154.1,87.4,151.1z M94.2,150.3
			c-0.2-1.2-0.9-2.1-2-2.1c-1.1,0-1.9,0.8-2.1,2.1H94.2z"/>
		<path fill="#404447" d="M98.2,154.6l1.2-1.8c1,0.8,2.1,1.2,3,1.2c0.8,0,1.2-0.3,1.2-0.7v0c0-0.6-0.9-0.8-2-1.1
			c-1.3-0.4-2.9-1-2.9-2.9v0c0-2,1.6-3.1,3.5-3.1c1.2,0,2.6,0.4,3.6,1.1l-1,1.9c-1-0.6-1.9-0.9-2.6-0.9c-0.7,0-1,0.3-1,0.7v0
			c0,0.5,0.9,0.8,2,1.2c1.4,0.5,2.9,1.1,2.9,2.9v0c0,2.1-1.6,3.1-3.7,3.1C101,156.1,99.4,155.6,98.2,154.6z"/>
	</g>
</g>
<g>
	<g>
		<g>
			<path fill="#404447" d="M86,109.8c-1,0-2-0.4-2.7-1.1c-0.8-0.8-1.2-1.9-1.1-3L83,91.6c0.1-0.9,0.5-1.8,1.1-2.5l42-42
				c1.4-1.4,4-1.4,5.5,0l13.3,13.3c1.5,1.5,1.5,4,0,5.5l-42,42c-0.7,0.7-1.6,1.1-2.5,1.1l-14.1,0.8C86.2,109.8,86.1,109.8,86,109.8
				L86,109.8z M90.6,93.5l-0.5,8.3l8.3-0.5l38.2-38.2l-7.8-7.8L90.6,93.5L90.6,93.5z"/>
		</g>
		<g>
			<path fill="#404447" d="M134.6,71.1c-0.5,0-1-0.2-1.4-0.6l-11.9-11.9c-0.8-0.8-0.8-2,0-2.7c0.8-0.8,2-0.8,2.7,0L136,67.8
				c0.8,0.8,0.8,2,0,2.7C135.6,71,135.1,71.1,134.6,71.1L134.6,71.1z"/>
		</g>
		<path fill="#404447" d="M88.2,96c-0.3,0-0.5,0-0.8,0c-0.3,0-0.5,0.1-0.7,0.2l-0.6,9.7l9.4-0.6c0.1-0.4,0.2-0.7,0.2-1.1
			C96.1,99.6,92.8,96,88.2,96L88.2,96z"/>
	</g>
	<g>
		<g>
			<path fill="#404447" d="M108.5,124.6H54.6c-4.9,0-8.8-4-8.8-8.8V43.5c0-2.1,1.7-3.9,3.9-3.9c2.1,0,3.9,1.7,3.9,3.9v72.3
				c0,0.6,0.5,1.1,1.1,1.1h53.9c0.6,0,1.1-0.5,1.1-1.1V93c0-2.1,1.7-3.9,3.9-3.9c2.1,0,3.9,1.7,3.9,3.9v22.8
				C117.3,120.7,113.3,124.6,108.5,124.6L108.5,124.6z"/>
		</g>
		<g>
			<path fill="#404447" d="M113.4,68.9c-2.1,0-3.9-1.7-3.9-3.9V54.7c0-0.6-0.5-1.1-1.1-1.1c-2.1,0-3.9-1.7-3.9-3.9s1.7-3.9,3.9-3.9
				c4.9,0,8.8,4,8.8,8.8V65C117.3,67.1,115.6,68.9,113.4,68.9L113.4,68.9z"/>
		</g>
		<g>
			<path fill="#404447" d="M107.7,53.7h-50c-6.6,0-11.9-5.4-11.9-11.9c0-6.6,5.4-11.9,11.9-11.9h55.7c2.1,0,3.9,1.7,3.9,3.9
				s-1.7,3.9-3.9,3.9H57.7c-2.3,0-4.2,1.9-4.2,4.2c0,2.3,1.9,4.2,4.2,4.2h50c2.1,0,3.9,1.7,3.9,3.9
				C111.6,51.9,109.9,53.7,107.7,53.7L107.7,53.7z"/>
		</g>
	</g>
	<g>
		<path fill="#404447" d="M87.3,67.9H63.6c-1.1,0-1.9-0.9-1.9-1.9c0-1.1,0.9-1.9,1.9-1.9h23.7c1.1,0,1.9,0.9,1.9,1.9
			C89.3,67,88.4,67.9,87.3,67.9L87.3,67.9z"/>
	</g>
	<g>
		<path fill="#404447" d="M87.3,78.5H63.6c-1.1,0-1.9-0.9-1.9-1.9c0-1.1,0.9-1.9,1.9-1.9h23.7c1.1,0,1.9,0.9,1.9,1.9
			C89.3,77.7,88.4,78.5,87.3,78.5L87.3,78.5z"/>
	</g>
</g>
</svg>
