<?xml version="1.0" encoding="utf-8"?>
<!-- Generator: Adobe Illustrator 19.1.0, SVG Export Plug-In . SVG Version: 6.00 Build 0)  -->
<svg version="1.1" id="Layer_1" xmlns="http://www.w3.org/2000/svg" xmlns:xlink="http://www.w3.org/1999/xlink" x="0px" y="0px"
	 viewBox="0 0 169.2 169.2" enable-background="new 0 0 169.2 169.2" xml:space="preserve">
<g>
	<rect fill="#FFFFFF" width="169.2" height="169.2"/>
	<g>
		<path fill="#404447" d="M51.3,146.2H54v1.4c0.7-0.9,1.6-1.6,3-1.6c2.2,0,4.4,1.8,4.4,5v0c0,3.2-2.1,5-4.4,5c-1.5,0-2.4-0.7-3-1.4
			v4.1h-2.7V146.2z M58.7,151.1L58.7,151.1c0-1.6-1.1-2.7-2.4-2.7c-1.3,0-2.3,1.1-2.3,2.7v0c0,1.6,1.1,2.7,2.3,2.7
			C57.6,153.8,58.7,152.7,58.7,151.1z"/>
		<path fill="#404447" d="M63.4,146.2h2.7v1.9c0.6-1.3,1.5-2.2,3.1-2.1v2.9h-0.1c-1.8,0-2.9,1.1-2.9,3.4v3.6h-2.7V146.2z"/>
		<path fill="#404447" d="M70.2,151.1L70.2,151.1c0-2.8,2.2-5.1,5.2-5.1c3,0,5.2,2.2,5.2,5v0c0,2.8-2.2,5-5.2,5
			C72.4,156.1,70.2,153.9,70.2,151.1z M77.9,151.1L77.9,151.1c0-1.5-1-2.7-2.5-2.7c-1.6,0-2.5,1.2-2.5,2.6v0c0,1.4,1,2.7,2.5,2.7
			C77,153.8,77.9,152.5,77.9,151.1z"/>
		<path fill="#404447" d="M83.1,148.6h-1.1v-2.3h1.1v-0.6c0-1.1,0.3-1.8,0.8-2.3s1.2-0.8,2.2-0.8c0.9,0,1.4,0.1,1.9,0.3v2.3
			c-0.4-0.1-0.8-0.2-1.2-0.2c-0.6,0-1,0.3-1,1v0.4H88v2.2h-2.2v7.3h-2.7V148.6z"/>
		<path fill="#404447" d="M89.5,142.8h2.9v2.4h-2.9V142.8z M89.6,146.2h2.7v9.7h-2.7V146.2z"/>
		<path fill="#404447" d="M95,142.8h2.7v13.1H95V142.8z"/>
		<path fill="#404447" d="M99.9,151.1L99.9,151.1c0-2.8,2-5.1,4.8-5.1c3.2,0,4.7,2.5,4.7,5.2c0,0.2,0,0.5,0,0.7h-6.7
			c0.3,1.2,1.1,1.9,2.4,1.9c0.9,0,1.6-0.3,2.3-1l1.6,1.4c-0.9,1.1-2.2,1.8-3.9,1.8C102,156.1,99.9,154.1,99.9,151.1z M106.7,150.3
			c-0.2-1.2-0.9-2.1-2-2.1c-1.1,0-1.9,0.8-2.1,2.1H106.7z"/>
		<path fill="#404447" d="M110.6,154.6l1.2-1.8c1,0.8,2.1,1.2,3,1.2c0.8,0,1.2-0.3,1.2-0.7v0c0-0.6-0.9-0.8-2-1.1
			c-1.4-0.4-2.9-1-2.9-2.9v0c0-2,1.6-3.1,3.5-3.1c1.2,0,2.6,0.4,3.6,1.1l-1,1.9c-1-0.6-1.9-0.9-2.6-0.9c-0.7,0-1,0.3-1,0.7v0
			c0,0.5,0.9,0.8,2,1.2c1.3,0.5,2.9,1.1,2.9,2.9v0c0,2.1-1.6,3.1-3.7,3.1C113.4,156.1,111.9,155.6,110.6,154.6z"/>
	</g>
</g>
<g>
	<path fill="#404447" d="M82.3,129.7c-28.5,0-51.7-23.2-51.7-51.7c0-28.5,23.2-51.7,51.7-51.7c28.5,0,51.7,23.2,51.7,51.7
		C134,106.5,110.8,129.7,82.3,129.7L82.3,129.7z M82.3,35.1c-23.7,0-43,19.3-43,42.9c0,23.7,19.3,43,43,43c23.7,0,43-19.3,43-43
		C125.2,54.3,106,35.1,82.3,35.1L82.3,35.1z"/>
	<g>
		<g>
			<g>
				<path fill="#404447" d="M83.5,97.7c-0.6,0-1.2-0.2-1.6-0.7c-0.5-0.5-0.7-1.1-0.7-1.8l0.5-8.5c0-0.6,0.3-1.1,0.7-1.5L107.6,60
					c0.9-0.9,2.4-0.9,3.3,0l8,8c0.9,0.9,0.9,2.4,0,3.3L93.6,96.5c-0.4,0.4-0.9,0.6-1.5,0.7l-8.5,0.5C83.6,97.7,83.6,97.7,83.5,97.7
					L83.5,97.7z M86.3,87.9l-0.3,5l5-0.3l22.9-23l-4.7-4.7L86.3,87.9L86.3,87.9z"/>
			</g>
			<g>
				<path fill="#404447" d="M112.7,74.5c-0.3,0-0.6-0.1-0.8-0.3l-7.2-7.2c-0.5-0.5-0.5-1.2,0-1.6c0.5-0.5,1.2-0.5,1.6,0l7.2,7.2
					c0.5,0.5,0.5,1.2,0,1.6C113.3,74.4,113,74.5,112.7,74.5L112.7,74.5z"/>
			</g>
			<path fill="#404447" d="M84.9,89.4c-0.2,0-0.3,0-0.5,0c-0.2,0-0.3,0.1-0.4,0.1l-0.3,5.9l5.6-0.3c0-0.2,0.1-0.4,0.1-0.7
				C89.6,91.5,87.6,89.4,84.9,89.4L84.9,89.4z"/>
		</g>
		<g>
			<g>
				<path fill="#404447" d="M97,106.6H64.7c-2.9,0-5.3-2.4-5.3-5.3V57.9c0-1.3,1-2.3,2.3-2.3c1.3,0,2.3,1,2.3,2.3v43.4
					c0,0.4,0.3,0.6,0.6,0.6H97c0.4,0,0.6-0.3,0.6-0.6V87.6c0-1.3,1-2.3,2.3-2.3c1.3,0,2.3,1,2.3,2.3v13.7
					C102.3,104.2,99.9,106.6,97,106.6L97,106.6z"/>
			</g>
			<g>
				<path fill="#404447" d="M100,73.1c-1.3,0-2.3-1-2.3-2.3v-6.2c0-0.4-0.3-0.6-0.6-0.6c-1.3,0-2.3-1-2.3-2.3s1-2.3,2.3-2.3
					c2.9,0,5.3,2.4,5.3,5.3v6.2C102.3,72.1,101.3,73.1,100,73.1L100,73.1z"/>
			</g>
			<g>
				<path fill="#404447" d="M96.6,64h-30c-4,0-7.2-3.2-7.2-7.2c0-4,3.2-7.2,7.2-7.2H100c1.3,0,2.3,1,2.3,2.3s-1,2.3-2.3,2.3H66.6
					c-1.4,0-2.5,1.1-2.5,2.5c0,1.4,1.1,2.5,2.5,2.5h30c1.3,0,2.3,1,2.3,2.3S97.9,64,96.6,64L96.6,64z"/>
			</g>
		</g>
		<g>
			<path fill="#404447" d="M84.3,72.5H70.1c-0.6,0-1.2-0.5-1.2-1.2c0-0.6,0.5-1.2,1.2-1.2h14.2c0.6,0,1.2,0.5,1.2,1.2
				C85.5,72,85,72.5,84.3,72.5L84.3,72.5z"/>
		</g>
		<g>
			<path fill="#404447" d="M84.3,78.9H70.1c-0.6,0-1.2-0.5-1.2-1.2c0-0.6,0.5-1.2,1.2-1.2h14.2c0.6,0,1.2,0.5,1.2,1.2
				C85.5,78.4,85,78.9,84.3,78.9L84.3,78.9z"/>
		</g>
	</g>
</g>
</svg>
