<?xml version="1.0" encoding="utf-8"?>
<!-- Generator: Adobe Illustrator 19.1.0, SVG Export Plug-In . SVG Version: 6.00 Build 0)  -->
<svg version="1.1" id="Layer_1" xmlns="http://www.w3.org/2000/svg" xmlns:xlink="http://www.w3.org/1999/xlink" x="0px" y="0px"
	 viewBox="0 0 169.2 169.2" enable-background="new 0 0 169.2 169.2" xml:space="preserve">
<g>
	<rect x="0" y="0" fill="#FFFFFF" width="169.2" height="169.2"/>
	<g>
		<path fill="#404447" d="M55.8,146.2h2.7v1.4c0.7-0.9,1.6-1.6,3-1.6c2.3,0,4.4,1.8,4.4,5v0c0,3.2-2.1,5-4.4,5c-1.5,0-2.4-0.7-3-1.4
			v4.1h-2.7V146.2z M63.2,151.1L63.2,151.1c0-1.6-1.1-2.7-2.4-2.7s-2.3,1.1-2.3,2.7v0c0,1.6,1.1,2.7,2.3,2.7S63.2,152.7,63.2,151.1z
			"/>
		<path fill="#404447" d="M67.9,146.2h2.7v1.9c0.6-1.3,1.5-2.2,3.1-2.1v2.9h-0.1c-1.8,0-2.9,1.1-2.9,3.4v3.6h-2.7V146.2z"/>
		<path fill="#404447" d="M74.7,151.1L74.7,151.1c0-2.8,2.2-5.1,5.2-5.1c3,0,5.2,2.2,5.2,5v0c0,2.8-2.2,5-5.2,5
			C76.9,156.1,74.7,153.9,74.7,151.1z M82.5,151.1L82.5,151.1c0-1.5-1-2.7-2.5-2.7c-1.6,0-2.5,1.2-2.5,2.6v0c0,1.4,1,2.7,2.5,2.7
			C81.5,153.8,82.5,152.5,82.5,151.1z"/>
		<path fill="#404447" d="M87.6,148.6h-1.1v-2.3h1.1v-0.6c0-1.1,0.3-1.8,0.8-2.3c0.5-0.5,1.2-0.8,2.2-0.8c0.9,0,1.4,0.1,1.9,0.3v2.3
			c-0.4-0.1-0.8-0.2-1.2-0.2c-0.6,0-1,0.3-1,1v0.4h2.2v2.2h-2.2v7.3h-2.7V148.6z"/>
		<path fill="#404447" d="M94.1,142.8h2.9v2.4h-2.9V142.8z M94.1,146.2h2.7v9.7h-2.7V146.2z"/>
		<path fill="#404447" d="M99.6,142.8h2.7v13.1h-2.7V142.8z"/>
		<path fill="#404447" d="M104.4,151.1L104.4,151.1c0-2.8,2-5.1,4.8-5.1c3.2,0,4.7,2.5,4.7,5.2c0,0.2,0,0.5,0,0.7h-6.7
			c0.3,1.2,1.1,1.9,2.4,1.9c0.9,0,1.6-0.3,2.3-1l1.6,1.4c-0.9,1.1-2.2,1.8-3.9,1.8C106.6,156.1,104.4,154.1,104.4,151.1z
			 M111.2,150.3c-0.2-1.2-0.9-2.1-2-2.1c-1.1,0-1.9,0.8-2.1,2.1H111.2z"/>
	</g>
</g>
<g>
	<path fill="#404447" d="M82.6,128.7c-28.2,0-51.1-22.9-51.1-51.1c0-28.2,22.9-51.1,51.1-51.1c28.2,0,51.1,22.9,51.1,51.1
		C133.6,105.8,110.7,128.7,82.6,128.7L82.6,128.7z M82.6,35.3c-23.4,0-42.4,19-42.4,42.4c0,23.4,19,42.4,42.4,42.4
		c23.4,0,42.4-19,42.4-42.4C125,54.3,106,35.3,82.6,35.3L82.6,35.3z"/>
	<g>
		<g>
			<g>
				<path fill="#404447" d="M93.6,73.3H75.3c-0.7,0-1.2-0.5-1.2-1.2V61.8c0-0.7,0.5-1.2,1.2-1.2h18.3c0.7,0,1.2,0.5,1.2,1.2v10.3
					C94.8,72.8,94.2,73.3,93.6,73.3L93.6,73.3z M76.5,70.9h15.9V63H76.5V70.9L76.5,70.9z"/>
			</g>
			<g>
				<g>
					<path fill="#404447" d="M103.6,105.9H62.7c-1.3,0-2.4-1.1-2.4-2.4V52.2c0-1.3,1.1-2.4,2.4-2.4h40.8c1.3,0,2.4,1.1,2.4,2.4v51.3
						C106,104.9,104.9,105.9,103.6,105.9L103.6,105.9z M65.1,101.2h36.1V54.6H65.1V101.2L65.1,101.2z"/>
				</g>
				<g>
					<path fill="#404447" d="M66.9,64.2h-8.3c-1.3,0-2.4-1.1-2.4-2.4s1.1-2.4,2.4-2.4h8.3c1.3,0,2.4,1.1,2.4,2.4
						S68.2,64.2,66.9,64.2L66.9,64.2z"/>
				</g>
				<g>
					<path fill="#404447" d="M66.9,74.8h-8.3c-1.3,0-2.4-1.1-2.4-2.4c0-1.3,1.1-2.4,2.4-2.4h8.3c1.3,0,2.4,1.1,2.4,2.4
						C69.3,73.8,68.2,74.8,66.9,74.8L66.9,74.8z"/>
				</g>
				<g>
					<path fill="#404447" d="M66.9,85.4h-8.3c-1.3,0-2.4-1.1-2.4-2.4s1.1-2.4,2.4-2.4h8.3c1.3,0,2.4,1.1,2.4,2.4
						S68.2,85.4,66.9,85.4L66.9,85.4z"/>
				</g>
				<g>
					<path fill="#404447" d="M66.9,96.1h-8.3c-1.3,0-2.4-1.1-2.4-2.4c0-1.3,1.1-2.4,2.4-2.4h8.3c1.3,0,2.4,1.1,2.4,2.4
						C69.3,95,68.2,96.1,66.9,96.1L66.9,96.1z"/>
				</g>
			</g>
		</g>
		<g>
			<g>
				<g>
					<path fill="#404447" d="M89.9,96.8c-0.1,0-0.3-0.1-0.4-0.2c-0.1-0.1-0.2-0.3-0.2-0.4l0.1-2.1c0-0.1,0.1-0.3,0.2-0.4l6.2-6.2
						c0.2-0.2,0.6-0.2,0.8,0l1.9,1.9c0.2,0.2,0.2,0.6,0,0.8l-6.2,6.2c-0.1,0.1-0.2,0.2-0.4,0.2L89.9,96.8
						C89.9,96.8,89.9,96.8,89.9,96.8L89.9,96.8z M90.6,94.4l-0.1,1.2l1.2-0.1l5.6-5.6l-1.1-1.1L90.6,94.4L90.6,94.4z"/>
				</g>
				<g>
					<path fill="#404447" d="M97,91.1c-0.1,0-0.1,0-0.2-0.1l-1.7-1.7c-0.1-0.1-0.1-0.3,0-0.4c0.1-0.1,0.3-0.1,0.4,0l1.7,1.7
						c0.1,0.1,0.1,0.3,0,0.4C97.2,91.1,97.1,91.1,97,91.1L97,91.1z"/>
				</g>
				<path fill="#404447" d="M90.2,94.8c0,0-0.1,0-0.1,0c0,0-0.1,0-0.1,0l-0.1,1.4l1.4-0.1c0-0.1,0-0.1,0-0.2
					C91.4,95.3,90.9,94.8,90.2,94.8L90.2,94.8z"/>
			</g>
			<g>
				<g>
					<path fill="#404447" d="M93.2,99h-7.9c-0.7,0-1.3-0.6-1.3-1.3V87c0-0.3,0.3-0.6,0.6-0.6c0.3,0,0.6,0.3,0.6,0.6v10.6
						c0,0.1,0.1,0.2,0.2,0.2h7.9c0.1,0,0.2-0.1,0.2-0.2v-3.3c0-0.3,0.3-0.6,0.6-0.6c0.3,0,0.6,0.3,0.6,0.6v3.3
						C94.5,98.4,93.9,99,93.2,99L93.2,99z"/>
				</g>
				<g>
					<path fill="#404447" d="M93.9,90.8c-0.3,0-0.6-0.3-0.6-0.6v-1.5c0-0.1-0.1-0.2-0.2-0.2c-0.3,0-0.6-0.3-0.6-0.6
						c0-0.3,0.3-0.6,0.6-0.6c0.7,0,1.3,0.6,1.3,1.3v1.5C94.5,90.5,94.2,90.8,93.9,90.8L93.9,90.8z"/>
				</g>
				<g>
					<path fill="#404447" d="M93.1,88.5h-7.3c-1,0-1.8-0.8-1.8-1.8c0-1,0.8-1.8,1.8-1.8h8.2c0.3,0,0.6,0.3,0.6,0.6
						c0,0.3-0.3,0.6-0.6,0.6h-8.2c-0.3,0-0.6,0.3-0.6,0.6c0,0.3,0.3,0.6,0.6,0.6h7.3c0.3,0,0.6,0.3,0.6,0.6
						C93.7,88.3,93.4,88.5,93.1,88.5L93.1,88.5z"/>
				</g>
			</g>
			<g>
				<path fill="#404447" d="M90.1,90.6h-3.5c-0.2,0-0.3-0.1-0.3-0.3c0-0.2,0.1-0.3,0.3-0.3h3.5c0.2,0,0.3,0.1,0.3,0.3
					C90.4,90.5,90.3,90.6,90.1,90.6L90.1,90.6z"/>
			</g>
			<g>
				<path fill="#404447" d="M90.1,92.2h-3.5c-0.2,0-0.3-0.1-0.3-0.3c0-0.2,0.1-0.3,0.3-0.3h3.5c0.2,0,0.3,0.1,0.3,0.3
					C90.4,92.1,90.3,92.2,90.1,92.2L90.1,92.2z"/>
			</g>
		</g>
	</g>
</g>
</svg>
