<?xml version="1.0" encoding="utf-8"?>
<!-- Generator: Adobe Illustrator 18.1.1, SVG Export Plug-In . SVG Version: 6.00 Build 0)  -->
<svg version="1.1" id="Layer_1" xmlns="http://www.w3.org/2000/svg" xmlns:xlink="http://www.w3.org/1999/xlink" x="0px" y="0px"
	 viewBox="0 0 549.2 549.2" enable-background="new 0 0 549.2 549.2" xml:space="preserve">
<g>
	<g>
		<rect x="380" y="0" fill="#6CB2E2" width="169.2" height="169.2"/>
		<g>
			<path fill="#FFFFFF" d="M423.6,151.1L423.6,151.1c0-3.3,2.1-5,4.4-5c1.5,0,2.4,0.7,3,1.4v-4.8h2.7v13.1H431v-1.4
				c-0.7,0.9-1.6,1.6-3,1.6C425.7,156.1,423.6,154.3,423.6,151.1z M431,151.1L431,151.1c0-1.6-1.1-2.7-2.3-2.7s-2.4,1-2.4,2.7v0
				c0,1.6,1.1,2.7,2.4,2.7S431,152.7,431,151.1z"/>
			<path fill="#FFFFFF" d="M436.2,142.8h2.9v2.4h-2.9V142.8z M436.3,146.2h2.7v9.7h-2.7V146.2z"/>
			<path fill="#FFFFFF" d="M441.6,146.2h2.7v1.9c0.6-1.3,1.5-2.2,3.1-2.1v2.9h-0.1c-1.8,0-2.9,1.1-2.9,3.4v3.6h-2.7V146.2z"/>
			<path fill="#FFFFFF" d="M448.4,151.1L448.4,151.1c0-2.8,2-5.1,4.8-5.1c3.2,0,4.7,2.5,4.7,5.2c0,0.2,0,0.5,0,0.7h-6.7
				c0.3,1.2,1.1,1.9,2.4,1.9c0.9,0,1.6-0.3,2.3-1l1.6,1.4c-0.9,1.1-2.2,1.8-3.9,1.8C450.5,156.1,448.4,154.1,448.4,151.1z
				 M455.2,150.3c-0.2-1.2-0.9-2.1-2-2.1c-1.1,0-1.9,0.8-2.1,2.1H455.2z"/>
			<path fill="#FFFFFF" d="M459.4,151.1L459.4,151.1c0-2.8,2.1-5.1,5.1-5.1c1.8,0,3,0.6,3.9,1.6l-1.7,1.8c-0.6-0.6-1.2-1.1-2.2-1.1
				c-1.4,0-2.3,1.2-2.3,2.6v0c0,1.5,1,2.7,2.4,2.7c0.9,0,1.5-0.4,2.2-1l1.6,1.6c-0.9,1-2,1.8-3.9,1.8
				C461.6,156.1,459.4,153.9,459.4,151.1z"/>
			<path fill="#FFFFFF" d="M470.6,153.2v-4.6h-1.2v-2.3h1.2v-2.5h2.7v2.5h2.3v2.3h-2.3v4.1c0,0.6,0.3,0.9,0.9,0.9
				c0.5,0,1-0.1,1.4-0.3v2.2c-0.6,0.3-1.2,0.6-2.2,0.6C471.8,156.1,470.6,155.4,470.6,153.2z"/>
			<path fill="#FFFFFF" d="M476.9,151.1L476.9,151.1c0-2.8,2.2-5.1,5.2-5.1c3,0,5.2,2.2,5.2,5v0c0,2.8-2.2,5-5.2,5
				C479.1,156.1,476.9,153.9,476.9,151.1z M484.7,151.1L484.7,151.1c0-1.5-1-2.7-2.5-2.7c-1.6,0-2.5,1.2-2.5,2.6v0
				c0,1.4,1,2.7,2.5,2.7C483.7,153.8,484.7,152.5,484.7,151.1z"/>
			<path fill="#FFFFFF" d="M489.3,146.2h2.7v1.9c0.6-1.3,1.5-2.2,3.1-2.1v2.9H495c-1.8,0-2.9,1.1-2.9,3.4v3.6h-2.7V146.2z"/>
			<path fill="#FFFFFF" d="M496.7,158.2l0.9-2c0.4,0.2,0.8,0.4,1.2,0.4c0.5,0,0.7-0.1,1-0.6l-3.8-9.7h2.9l2.2,6.6l2.1-6.6h2.8
				l-3.7,9.9c-0.7,2-1.5,2.7-3.2,2.7C498.2,158.8,497.4,158.6,496.7,158.2z"/>
		</g>
	</g>
	<g>
		<g>
			<path fill="#FFFFFF" d="M502.3,113.1H425c-1.2,0-2.3-0.6-3-1.5c-0.7-1-0.9-2.2-0.5-3.4l15.8-49.6c0.5-1.6,1.9-2.6,3.6-2.6h77.3
				c1.2,0,2.3,0.6,3,1.5c0.7,1,0.9,2.2,0.6,3.4l-15.8,49.6C505.4,112,503.9,113.1,502.3,113.1L502.3,113.1z M430.1,105.5h69.4
				l13.4-42.1h-69.4L430.1,105.5L430.1,105.5z"/>
		</g>
		<g>
			<path fill="#FFFFFF" d="M422.2,113.1c-2.1,0-3.8-1.7-3.8-3.8v-68c0-4.1,3.4-7.5,7.5-7.5h26.3c4.1,0,7.5,3.4,7.5,7.5v2.7h39.6
				c2.1,0,3.8,1.7,3.8,3.8c0,2.1-1.7,3.8-3.8,3.8H456c-2.1,0-3.8-1.7-3.8-3.8v-6.5h-26.3v68C425.9,111.4,424.3,113.1,422.2,113.1
				L422.2,113.1z"/>
		</g>
	</g>
</g>
<g>
	<g>
		<rect x="0" y="190" fill="#6CB2E2" width="169.2" height="169.2"/>
		<g>
			<path fill="#FFFFFF" d="M49.8,341.1L49.8,341.1c0-2.8,2-5.1,4.8-5.1c3.2,0,4.7,2.5,4.7,5.2c0,0.2,0,0.5,0,0.7h-6.7
				c0.3,1.2,1.1,1.9,2.4,1.9c0.9,0,1.6-0.3,2.3-1l1.6,1.4c-0.9,1.1-2.2,1.8-3.9,1.8C51.9,346.1,49.8,344.1,49.8,341.1z M56.6,340.3
				c-0.2-1.2-0.9-2.1-2-2.1c-1.1,0-1.9,0.8-2.1,2.1H56.6z"/>
			<path fill="#FFFFFF" d="M63.3,341l-3.3-4.8H63l1.8,2.8l1.8-2.8h2.9l-3.3,4.7l3.4,5h-2.9l-1.9-3l-1.9,3H60L63.3,341z"/>
			<path fill="#FFFFFF" d="M70.2,341.1L70.2,341.1c0-2.8,2-5.1,4.8-5.1c3.2,0,4.7,2.5,4.7,5.2c0,0.2,0,0.5,0,0.7h-6.7
				c0.3,1.2,1.1,1.9,2.4,1.9c0.9,0,1.6-0.3,2.3-1l1.6,1.4c-0.9,1.1-2.2,1.8-3.9,1.8C72.3,346.1,70.2,344.1,70.2,341.1z M77,340.3
				c-0.2-1.2-0.9-2.1-2-2.1c-1.1,0-1.9,0.8-2.1,2.1H77z"/>
			<path fill="#FFFFFF" d="M81.2,341.1L81.2,341.1c0-2.8,2.1-5.1,5.1-5.1c1.8,0,3,0.6,3.9,1.6l-1.7,1.8c-0.6-0.6-1.2-1.1-2.2-1.1
				c-1.4,0-2.3,1.2-2.3,2.6v0c0,1.5,1,2.7,2.4,2.7c0.9,0,1.5-0.4,2.2-1l1.6,1.6c-0.9,1-2,1.8-3.9,1.8
				C83.3,346.1,81.2,343.9,81.2,341.1z"/>
			<path fill="#FFFFFF" d="M91.9,342.5v-6.2h2.7v5.4c0,1.3,0.6,2,1.7,2c1,0,1.7-0.7,1.7-2v-5.4h2.7v9.7H98v-1.4
				c-0.6,0.8-1.4,1.5-2.8,1.5C93.1,346.1,91.9,344.7,91.9,342.5z"/>
			<path fill="#FFFFFF" d="M103.6,343.2v-4.6h-1.2v-2.3h1.2v-2.5h2.7v2.5h2.3v2.3h-2.3v4.1c0,0.6,0.3,0.9,0.9,0.9
				c0.5,0,1-0.1,1.4-0.3v2.2c-0.6,0.3-1.2,0.6-2.2,0.6C104.8,346.1,103.6,345.4,103.6,343.2z"/>
			<path fill="#FFFFFF" d="M109.9,341.1L109.9,341.1c0-2.8,2-5.1,4.8-5.1c3.2,0,4.7,2.5,4.7,5.2c0,0.2,0,0.5,0,0.7h-6.7
				c0.3,1.2,1.1,1.9,2.4,1.9c0.9,0,1.6-0.3,2.3-1l1.6,1.4c-0.9,1.1-2.2,1.8-3.9,1.8C112.1,346.1,109.9,344.1,109.9,341.1z
				 M116.7,340.3c-0.2-1.2-0.9-2.1-2-2.1c-1.1,0-1.9,0.8-2.1,2.1H116.7z"/>
		</g>
	</g>
	<g>
		<g>
			<g>
				<path fill="#FFFFFF" d="M126.8,315.1H41.6c-2.2,0-3.9-1.8-3.9-3.9v-85.2c0-2.2,1.8-3.9,3.9-3.9h85.2c2.2,0,3.9,1.8,3.9,3.9v85.2
					C130.8,313.3,129,315.1,126.8,315.1L126.8,315.1z M45.5,307.3h77.4v-77.4H45.5V307.3L45.5,307.3z"/>
			</g>
			<g>
				<path fill="#FFFFFF" d="M125.4,250.7H43c-1.1,0-2-0.9-2-2s0.9-2,2-2h82.4c1.1,0,2,0.9,2,2S126.5,250.7,125.4,250.7L125.4,250.7z
					"/>
			</g>
			<path fill="#FFFFFF" d="M55.5,233.5c-2.7,0-4.9,2.2-4.9,4.9c0,2.7,2.2,4.9,4.9,4.9s4.9-2.2,4.9-4.9
				C60.4,235.7,58.2,233.5,55.5,233.5L55.5,233.5z"/>
			<path fill="#FFFFFF" d="M68.8,233.5c-2.7,0-4.9,2.2-4.9,4.9c0,2.7,2.2,4.9,4.9,4.9s4.9-2.2,4.9-4.9
				C73.8,235.7,71.6,233.5,68.8,233.5L68.8,233.5z"/>
			<path fill="#FFFFFF" d="M82.2,233.5c-2.7,0-4.9,2.2-4.9,4.9c0,2.7,2.2,4.9,4.9,4.9c2.7,0,4.9-2.2,4.9-4.9
				C87.1,235.7,84.9,233.5,82.2,233.5L82.2,233.5z"/>
		</g>
		<g>
			<g>
				<g>
					<path fill="#FFFFFF" d="M107.7,295.1h-25c-2.2,0-3.9-1.8-3.9-3.9c0-2.2,1.8-3.9,3.9-3.9h25c2.2,0,3.9,1.8,3.9,3.9
						C111.6,293.4,109.9,295.1,107.7,295.1L107.7,295.1z"/>
				</g>
			</g>
			<g>
				<g>
					<path fill="#FFFFFF" d="M60.7,295.1c-1,0-2-0.4-2.8-1.1c-1.5-1.5-1.5-4,0-5.5L69.4,277L58,265.6c-1.5-1.5-1.5-4,0-5.5
						c1.5-1.5,4-1.5,5.5,0l14.2,14.2c1.5,1.5,1.5,4,0,5.5L63.5,294C62.7,294.7,61.7,295.1,60.7,295.1L60.7,295.1z"/>
				</g>
			</g>
		</g>
	</g>
</g>
<g>
	<g>
		<rect x="190" y="190" fill="#6CB2E2" width="169.2" height="169.2"/>
		<g>
			<path fill="#FFFFFF" d="M261.9,338.6h-1.1v-2.3h1.1v-0.6c0-1.1,0.3-1.8,0.8-2.3c0.5-0.5,1.2-0.8,2.2-0.8c0.9,0,1.4,0.1,1.9,0.3
				v2.3c-0.4-0.1-0.8-0.2-1.2-0.2c-0.6,0-1,0.3-1,1v0.4h2.2v2.2h-2.2v7.3h-2.7V338.6z"/>
			<path fill="#FFFFFF" d="M268.4,332.8h2.9v2.4h-2.9V332.8z M268.5,336.2h2.7v9.7h-2.7V336.2z"/>
			<path fill="#FFFFFF" d="M273.9,332.8h2.7v13.1h-2.7V332.8z"/>
			<path fill="#FFFFFF" d="M278.7,341.1L278.7,341.1c0-2.8,2-5.1,4.8-5.1c3.2,0,4.7,2.5,4.7,5.2c0,0.2,0,0.5,0,0.7h-6.7
				c0.3,1.2,1.1,1.9,2.4,1.9c0.9,0,1.6-0.3,2.3-1l1.6,1.4c-0.9,1.1-2.2,1.8-3.9,1.8C280.9,346.1,278.7,344.1,278.7,341.1z
				 M285.5,340.3c-0.2-1.2-0.9-2.1-2-2.1c-1.1,0-1.9,0.8-2.1,2.1H285.5z"/>
		</g>
	</g>
	<g>
		<g>
			<g>
				<path fill="#FFFFFF" d="M231,317.9c-0.8,0-1.6-0.2-2.3-0.7c-1.1-0.7-1.7-2-1.7-3.3v-79.3c0-1.7,1-3.2,2.6-3.7l44.8-16.9
					c1.2-0.5,2.6-0.3,3.7,0.5c1.1,0.7,1.7,2,1.7,3.3V297c0,1.7-1,3.2-2.6,3.7l-44.8,16.9C231.9,317.8,231.5,317.9,231,317.9
					L231,317.9z M235,237.4v70.7l36.8-13.9v-70.7L235,237.4L235,237.4z"/>
			</g>
			<g>
				<path fill="#FFFFFF" d="M240.2,253.9c-0.8,0-1.6-0.5-1.9-1.3c-0.4-1,0.1-2.2,1.2-2.6l26.7-10.1c1-0.4,2.2,0.1,2.6,1.2
					c0.4,1-0.1,2.2-1.2,2.6l-26.7,10.1C240.7,253.9,240.5,253.9,240.2,253.9L240.2,253.9z"/>
			</g>
			<g>
				<path fill="#FFFFFF" d="M240.2,279.6c-0.8,0-1.6-0.5-1.9-1.3c-0.4-1,0.1-2.2,1.2-2.6l26.7-10.1c1.1-0.4,2.2,0.1,2.6,1.2
					c0.4,1-0.1,2.2-1.2,2.6l-26.7,10.1C240.7,279.6,240.5,279.6,240.2,279.6L240.2,279.6z"/>
			</g>
			<g>
				<path fill="#FFFFFF" d="M240.2,292.5c-0.8,0-1.6-0.5-1.9-1.3c-0.4-1,0.1-2.2,1.2-2.6l26.7-10.1c1-0.4,2.2,0.1,2.6,1.2
					c0.4,1-0.1,2.2-1.2,2.6l-26.7,10.1C240.7,292.5,240.5,292.5,240.2,292.5L240.2,292.5z"/>
			</g>
			<g>
				<path fill="#FFFFFF" d="M240.2,266.8c-0.8,0-1.6-0.5-1.9-1.3c-0.4-1,0.1-2.2,1.2-2.6l26.7-10.1c1.1-0.4,2.2,0.1,2.6,1.2
					c0.4,1-0.1,2.2-1.2,2.6l-26.7,10.1C240.7,266.7,240.5,266.8,240.2,266.8L240.2,266.8z"/>
			</g>
		</g>
		<g>
			<g>
				<path fill="#FFFFFF" d="M304.1,309.7c-1.1,0-2-0.9-2-2v-23.2c0-0.7,0.3-1.3,0.9-1.6c0.5-0.4,1.2-0.5,1.8-0.2l16.4,6.2
					c1,0.4,1.6,1.5,1.2,2.6c-0.4,1-1.5,1.5-2.6,1.2l-13.7-5.2v20.3C306.1,308.8,305.2,309.7,304.1,309.7L304.1,309.7z"/>
			</g>
			<g>
				<path fill="#FFFFFF" d="M304.1,311.7c-0.5,0-1-0.1-1.4-0.3l-28.3-10.7c-1.6-0.6-2.6-2.1-2.6-3.7v-79.3c0-1.3,0.6-2.5,1.7-3.3
					c1.1-0.7,2.5-0.9,3.7-0.5l44.7,16.9c1.6,0.6,2.6,2.1,2.6,3.7l0,56.1c0,1-0.4,2-1.1,2.8l-16.4,17
					C306.2,311.3,305.1,311.7,304.1,311.7L304.1,311.7z M279.8,294.3L303,303l13.5-13.9l0-51.7l-36.8-13.9V294.3L279.8,294.3z"/>
			</g>
			<g>
				<path fill="#FFFFFF" d="M312.2,254.3c-0.2,0-0.5,0-0.7-0.1L284.7,244c-1-0.4-1.6-1.5-1.2-2.6c0.4-1,1.5-1.6,2.6-1.2l26.7,10.1
					c1,0.4,1.6,1.5,1.2,2.6C313.7,253.8,313,254.3,312.2,254.3L312.2,254.3z"/>
			</g>
			<g>
				<path fill="#FFFFFF" d="M312.2,280c-0.2,0-0.5,0-0.7-0.1l-26.7-10.1c-1-0.4-1.6-1.5-1.2-2.6c0.4-1,1.5-1.6,2.6-1.2l26.7,10.1
					c1,0.4,1.6,1.5,1.2,2.6C313.7,279.5,313,280,312.2,280L312.2,280z"/>
			</g>
			<g>
				<path fill="#FFFFFF" d="M312.2,267.1c-0.2,0-0.5,0-0.7-0.1l-26.7-10.1c-1-0.4-1.6-1.5-1.2-2.6c0.4-1,1.5-1.6,2.6-1.2l26.7,10.1
					c1,0.4,1.6,1.5,1.2,2.6C313.7,266.6,313,267.1,312.2,267.1L312.2,267.1z"/>
			</g>
		</g>
	</g>
</g>
<g>
	<g>
		<rect x="380" y="190" fill="#6CB2E2" width="169.2" height="169.2"/>
		<g>
			<path fill="#FFFFFF" d="M427.1,336.2h2.7v1.4c0.7-0.9,1.6-1.6,3-1.6c2.3,0,4.4,1.8,4.4,5v0c0,3.2-2.1,5-4.4,5
				c-1.5,0-2.4-0.7-3-1.4v4.1h-2.7V336.2z M434.5,341.1L434.5,341.1c0-1.6-1.1-2.7-2.4-2.7c-1.3,0-2.3,1.1-2.3,2.7v0
				c0,1.6,1.1,2.7,2.3,2.7C433.5,343.8,434.5,342.7,434.5,341.1z"/>
			<path fill="#FFFFFF" d="M438.7,343.1L438.7,343.1c0-2.1,1.6-3.1,3.9-3.1c1,0,1.7,0.2,2.4,0.4v-0.2c0-1.1-0.7-1.8-2.1-1.8
				c-1,0-1.8,0.2-2.7,0.5l-0.7-2.1c1.1-0.5,2.1-0.8,3.7-0.8c1.5,0,2.6,0.4,3.3,1.1c0.7,0.7,1,1.8,1,3.1v5.6h-2.6v-1
				c-0.7,0.7-1.6,1.2-2.9,1.2C440.2,346.1,438.7,345,438.7,343.1z M445,342.5V342c-0.5-0.2-1.1-0.4-1.7-0.4c-1.2,0-1.9,0.5-1.9,1.3
				v0c0,0.7,0.6,1.2,1.5,1.2C444.1,344.2,445,343.5,445,342.5z"/>
			<path fill="#FFFFFF" d="M449.5,341.1L449.5,341.1c0-2.8,2.1-5.1,5.1-5.1c1.8,0,3,0.6,3.9,1.6l-1.7,1.8c-0.6-0.6-1.2-1.1-2.2-1.1
				c-1.4,0-2.3,1.2-2.3,2.6v0c0,1.5,1,2.7,2.4,2.7c0.9,0,1.5-0.4,2.2-1l1.6,1.6c-0.9,1-2,1.8-3.9,1.8
				C451.6,346.1,449.5,343.9,449.5,341.1z"/>
			<path fill="#FFFFFF" d="M460.2,332.8h2.7v7l3.2-3.5h3.3l-3.7,3.8l3.8,5.9h-3.1l-2.5-3.9l-1,1v2.9h-2.7V332.8z"/>
			<path fill="#FFFFFF" d="M470.1,343.1L470.1,343.1c0-2.1,1.6-3.1,3.9-3.1c1,0,1.7,0.2,2.4,0.4v-0.2c0-1.1-0.7-1.8-2.1-1.8
				c-1,0-1.8,0.2-2.7,0.5l-0.7-2.1c1.1-0.5,2.1-0.8,3.7-0.8c1.5,0,2.6,0.4,3.3,1.1c0.7,0.7,1,1.8,1,3.1v5.6h-2.6v-1
				c-0.7,0.7-1.6,1.2-2.9,1.2C471.6,346.1,470.1,345,470.1,343.1z M476.4,342.5V342c-0.5-0.2-1.1-0.4-1.7-0.4
				c-1.2,0-1.9,0.5-1.9,1.3v0c0,0.7,0.6,1.2,1.5,1.2C475.5,344.2,476.4,343.5,476.4,342.5z"/>
			<path fill="#FFFFFF" d="M481.4,347.8l0.9-2.1c1,0.6,2,0.9,3.3,0.9c1.9,0,2.8-0.9,2.8-2.6v-0.5c-0.8,1-1.7,1.6-3.2,1.6
				c-2.3,0-4.3-1.6-4.3-4.5v0c0-2.9,2.1-4.5,4.3-4.5c1.5,0,2.4,0.6,3.1,1.4v-1.3h2.7v7.5c0,1.7-0.4,3-1.2,3.8
				c-0.9,0.9-2.3,1.3-4.2,1.3C484.1,348.8,482.6,348.5,481.4,347.8z M488.4,340.6L488.4,340.6c0-1.4-1-2.3-2.4-2.3
				c-1.3,0-2.3,0.9-2.3,2.2v0c0,1.3,1,2.2,2.3,2.2C487.3,342.8,488.4,341.9,488.4,340.6z"/>
			<path fill="#FFFFFF" d="M493,341.1L493,341.1c0-2.8,2-5.1,4.8-5.1c3.2,0,4.7,2.5,4.7,5.2c0,0.2,0,0.5,0,0.7h-6.7
				c0.3,1.2,1.1,1.9,2.4,1.9c0.9,0,1.6-0.3,2.3-1l1.6,1.4c-0.9,1.1-2.2,1.8-3.9,1.8C495.2,346.1,493,344.1,493,341.1z M499.8,340.3
				c-0.2-1.2-0.9-2.1-2-2.1c-1.1,0-1.9,0.8-2.1,2.1H499.8z"/>
		</g>
	</g>
	<g>
		<g>
			<path fill="#FFFFFF" d="M424.7,252.7c-1,0-1.9-0.3-2.7-1l-12.6-10.8c-1.1-0.9-1.6-2.4-1.4-3.8c0.2-1.4,1.2-2.6,2.5-3.1l35.7-14.3
				c1.4-0.6,3.1-0.3,4.2,0.7l12.6,10.8c1.1,0.9,1.6,2.4,1.4,3.8c-0.2,1.4-1.2,2.6-2.5,3.1l-35.7,14.3
				C425.7,252.6,425.2,252.7,424.7,252.7L424.7,252.7z M419.9,239.1l5.5,4.8l27.1-10.8l-5.5-4.8L419.9,239.1L419.9,239.1z"/>
		</g>
		<g>
			<path fill="#FFFFFF" d="M459.7,311.8c-0.9,0-1.7-0.3-2.4-0.8c-1.1-0.8-1.7-2-1.7-3.3v-40.3c0-2.3,1.8-4.1,4.1-4.1
				s4.1,1.8,4.1,4.1v34.7l34.6-11v-18.4c0-2.3,1.8-4.1,4.1-4.1c2.3,0,4.1,1.8,4.1,4.1v21.4c0,1.8-1.2,3.4-2.9,3.9L461,311.6
				C460.6,311.8,460.1,311.8,459.7,311.8L459.7,311.8z"/>
		</g>
		<g>
			<path fill="#FFFFFF" d="M483.1,281.1c-1,0-1.9-0.3-2.7-1l-12.5-10.8c-1.1-0.9-1.6-2.4-1.4-3.8c0.2-1.4,1.2-2.6,2.5-3.1l35.7-14.3
				c1.4-0.6,3.1-0.3,4.2,0.7l12.6,10.8c1.1,0.9,1.6,2.4,1.4,3.8c-0.2,1.4-1.2,2.6-2.5,3.1l-35.7,14.3
				C484.1,281,483.6,281.1,483.1,281.1L483.1,281.1z M478.3,267.5l5.5,4.8l27.1-10.9l-5.5-4.8L478.3,267.5L478.3,267.5z"/>
		</g>
		<g>
			<path fill="#FFFFFF" d="M502.6,251.9c-0.5,0-1-0.1-1.5-0.3l-35.8-14.3c-1.3-0.5-2.2-1.7-2.5-3c-0.3-1.4,0.2-2.8,1.2-3.7l12.3-12
				c1.2-1.1,2.9-1.5,4.4-0.9l35.8,14.3c1.3,0.5,2.2,1.7,2.5,3c0.3,1.4-0.2,2.8-1.2,3.7l-12.3,11.9
				C504.7,251.5,503.7,251.9,502.6,251.9L502.6,251.9z M474.2,232l27.4,11l5.8-5.7l-27.4-11L474.2,232L474.2,232z"/>
		</g>
		<g>
			<path fill="#FFFFFF" d="M459,311.8c-0.5,0-1-0.1-1.6-0.3L424.4,298c-1.5-0.6-2.6-2.1-2.6-3.8v-19.8c0-2.3,1.8-4.1,4.1-4.1
				c2.3,0,4.1,1.8,4.1,4.1v17.1l30.5,12.5c2.1,0.9,3.1,3.3,2.3,5.4C462.2,310.9,460.6,311.8,459,311.8L459,311.8z"/>
		</g>
		<g>
			<path fill="#FFFFFF" d="M447.4,283.5c-0.5,0-1-0.1-1.5-0.3l-35.8-14.3c-1.3-0.5-2.2-1.7-2.5-3c-0.3-1.4,0.2-2.8,1.2-3.7
				l12.3-11.9c1.2-1.1,2.9-1.5,4.4-0.9l35.8,14.3c1.3,0.5,2.2,1.7,2.5,3c0.3,1.4-0.2,2.8-1.2,3.7l-12.3,12
				C449.5,283.1,448.5,283.5,447.4,283.5L447.4,283.5z M419,263.6l27.4,11l5.8-5.7l-27.5-11L419,263.6L419,263.6z"/>
		</g>
	</g>
</g>
<g>
	<g>
		<rect x="190" y="0" fill="#6CB2E2" width="169.2" height="169.2"/>
		<g>
			<path fill="#FFFFFF" d="M209.9,151.1L209.9,151.1c0-2.8,2.1-5.1,5.1-5.1c1.8,0,3,0.6,3.9,1.6l-1.7,1.8c-0.6-0.6-1.2-1.1-2.2-1.1
				c-1.4,0-2.3,1.2-2.3,2.6v0c0,1.5,1,2.7,2.4,2.7c0.9,0,1.5-0.4,2.2-1l1.6,1.6c-0.9,1-2,1.8-3.9,1.8
				C212.1,156.1,209.9,153.9,209.9,151.1z"/>
			<path fill="#FFFFFF" d="M220,151.1L220,151.1c0-2.8,2.2-5.1,5.2-5.1c3,0,5.2,2.2,5.2,5v0c0,2.8-2.2,5-5.2,5
				C222.2,156.1,220,153.9,220,151.1z M227.7,151.1L227.7,151.1c0-1.5-1-2.7-2.5-2.7c-1.6,0-2.5,1.2-2.5,2.6v0c0,1.4,1,2.7,2.5,2.7
				C226.8,153.8,227.7,152.5,227.7,151.1z"/>
			<path fill="#FFFFFF" d="M231.9,151.1L231.9,151.1c0-2.8,2.2-5.1,5.2-5.1c3,0,5.2,2.2,5.2,5v0c0,2.8-2.2,5-5.2,5
				C234.1,156.1,231.9,153.9,231.9,151.1z M239.6,151.1L239.6,151.1c0-1.5-1-2.7-2.5-2.7c-1.6,0-2.5,1.2-2.5,2.6v0
				c0,1.4,1,2.7,2.5,2.7C238.7,153.8,239.6,152.5,239.6,151.1z"/>
			<path fill="#FFFFFF" d="M244.3,142.8h2.7v7l3.2-3.5h3.3l-3.7,3.8l3.8,5.9h-3.1L248,152l-1,1v2.9h-2.7V142.8z"/>
			<path fill="#FFFFFF" d="M257.7,154.6v1.3H255v-13.1h2.7v4.9c0.7-0.9,1.6-1.6,3-1.6c2.3,0,4.4,1.8,4.4,5v0c0,3.2-2.1,5-4.4,5
				C259.3,156.1,258.4,155.4,257.7,154.6z M262.4,151.1L262.4,151.1c0-1.6-1.1-2.7-2.4-2.7c-1.3,0-2.3,1.1-2.3,2.7v0
				c0,1.6,1.1,2.7,2.3,2.7C261.3,153.8,262.4,152.7,262.4,151.1z"/>
			<path fill="#FFFFFF" d="M266.7,151.1L266.7,151.1c0-2.8,2.2-5.1,5.2-5.1c3,0,5.2,2.2,5.2,5v0c0,2.8-2.2,5-5.2,5
				C268.9,156.1,266.7,153.9,266.7,151.1z M274.4,151.1L274.4,151.1c0-1.5-1-2.7-2.5-2.7c-1.6,0-2.5,1.2-2.5,2.6v0
				c0,1.4,1,2.7,2.5,2.7C273.5,153.8,274.4,152.5,274.4,151.1z"/>
			<path fill="#FFFFFF" d="M278.6,151.1L278.6,151.1c0-2.8,2.2-5.1,5.2-5.1c3,0,5.2,2.2,5.2,5v0c0,2.8-2.2,5-5.2,5
				C280.8,156.1,278.6,153.9,278.6,151.1z M286.4,151.1L286.4,151.1c0-1.5-1-2.7-2.5-2.7c-1.6,0-2.5,1.2-2.5,2.6v0
				c0,1.4,1,2.7,2.5,2.7C285.4,153.8,286.4,152.5,286.4,151.1z"/>
			<path fill="#FFFFFF" d="M291,142.8h2.7v7l3.2-3.5h3.3l-3.7,3.8l3.8,5.9h-3.1l-2.5-3.9l-1,1v2.9H291V142.8z"/>
			<path fill="#FFFFFF" d="M300.4,156.7h10.9v2.1h-10.9V156.7z"/>
			<path fill="#FFFFFF" d="M313,148.6h-1.1v-2.3h1.1v-0.6c0-1.1,0.3-1.8,0.8-2.3c0.5-0.5,1.2-0.8,2.2-0.8c0.9,0,1.4,0.1,1.9,0.3v2.3
				c-0.4-0.1-0.8-0.2-1.2-0.2c-0.6,0-1,0.3-1,1v0.4h2.2v2.2h-2.2v7.3H313V148.6z"/>
			<path fill="#FFFFFF" d="M319.4,142.8h2.9v2.4h-2.9V142.8z M319.5,146.2h2.7v9.7h-2.7V146.2z"/>
			<path fill="#FFFFFF" d="M324.9,142.8h2.7v13.1h-2.7V142.8z"/>
			<path fill="#FFFFFF" d="M329.8,151.1L329.8,151.1c0-2.8,2-5.1,4.8-5.1c3.2,0,4.7,2.5,4.7,5.2c0,0.2,0,0.5,0,0.7h-6.7
				c0.3,1.2,1.1,1.9,2.4,1.9c0.9,0,1.6-0.3,2.3-1l1.6,1.4c-0.9,1.1-2.2,1.8-3.9,1.8C331.9,156.1,329.8,154.1,329.8,151.1z
				 M336.6,150.3c-0.2-1.2-0.9-2.1-2-2.1c-1.1,0-1.9,0.8-2.1,2.1H336.6z"/>
		</g>
	</g>
	<g>
		<g>
			<g>
				<path fill="#FFFFFF" d="M296.1,64.7h-31.4c-1.1,0-2-0.9-2-2V44.9c0-1.1,0.9-2,2-2h31.4c1.1,0,2,0.9,2,2v17.7
					C298.1,63.8,297.2,64.7,296.1,64.7L296.1,64.7z M266.8,60.6H294V46.9h-27.3V60.6L266.8,60.6z"/>
			</g>
			<g>
				<g>
					<path fill="#FFFFFF" d="M313.3,120.8h-70.2c-2.3,0-4.1-1.8-4.1-4.1V28.4c0-2.3,1.8-4.1,4.1-4.1h70.2c2.3,0,4.1,1.8,4.1,4.1
						v88.3C317.4,119,315.6,120.8,313.3,120.8L313.3,120.8z M247.2,112.6h62V32.5h-62V112.6L247.2,112.6z"/>
				</g>
				<g>
					<path fill="#FFFFFF" d="M250.2,49h-14.3c-2.3,0-4.1-1.8-4.1-4.1c0-2.3,1.8-4.1,4.1-4.1h14.3c2.3,0,4.1,1.8,4.1,4.1
						C254.3,47.2,252.5,49,250.2,49L250.2,49z"/>
				</g>
				<g>
					<path fill="#FFFFFF" d="M250.2,67.3h-14.3c-2.3,0-4.1-1.8-4.1-4.1c0-2.3,1.8-4.1,4.1-4.1h14.3c2.3,0,4.1,1.8,4.1,4.1
						C254.3,65.5,252.5,67.3,250.2,67.3L250.2,67.3z"/>
				</g>
				<g>
					<path fill="#FFFFFF" d="M250.2,85.6h-14.3c-2.3,0-4.1-1.8-4.1-4.1c0-2.3,1.8-4.1,4.1-4.1h14.3c2.3,0,4.1,1.8,4.1,4.1
						C254.3,83.7,252.5,85.6,250.2,85.6L250.2,85.6z"/>
				</g>
				<g>
					<path fill="#FFFFFF" d="M250.2,103.8h-14.3c-2.3,0-4.1-1.8-4.1-4.1c0-2.3,1.8-4.1,4.1-4.1h14.3c2.3,0,4.1,1.8,4.1,4.1
						C254.3,102,252.5,103.8,250.2,103.8L250.2,103.8z"/>
				</g>
			</g>
		</g>
		<g>
			<g>
				<g>
					<path fill="#FFFFFF" d="M278.6,108c-0.2,0-0.4-0.1-0.6-0.2c-0.3-0.2-0.5-0.5-0.5-0.9V85.7c0-0.4,0.3-0.8,0.7-1l12-4.5
						c0.3-0.1,0.7-0.1,1,0.1c0.3,0.2,0.5,0.5,0.5,0.9v21.3c0,0.4-0.3,0.8-0.7,1l-12,4.5C278.8,108,278.7,108,278.6,108L278.6,108z
						 M279.7,86.4v19l9.9-3.7v-19L279.7,86.4L279.7,86.4z"/>
				</g>
				<g>
					<path fill="#FFFFFF" d="M281.1,90.9c-0.2,0-0.4-0.1-0.5-0.3c-0.1-0.3,0-0.6,0.3-0.7l7.2-2.7c0.3-0.1,0.6,0,0.7,0.3
						c0.1,0.3,0,0.6-0.3,0.7l-7.2,2.7C281.2,90.9,281.1,90.9,281.1,90.9L281.1,90.9z"/>
				</g>
				<g>
					<path fill="#FFFFFF" d="M281.1,97.8c-0.2,0-0.4-0.1-0.5-0.3c-0.1-0.3,0-0.6,0.3-0.7L288,94c0.3-0.1,0.6,0,0.7,0.3
						c0.1,0.3,0,0.6-0.3,0.7l-7.2,2.7C281.2,97.8,281.1,97.8,281.1,97.8L281.1,97.8z"/>
				</g>
				<g>
					<path fill="#FFFFFF" d="M281.1,101.2c-0.2,0-0.4-0.1-0.5-0.3c-0.1-0.3,0-0.6,0.3-0.7l7.2-2.7c0.3-0.1,0.6,0,0.7,0.3
						c0.1,0.3,0,0.6-0.3,0.7l-7.2,2.7C281.2,101.2,281.1,101.2,281.1,101.2L281.1,101.2z"/>
				</g>
				<g>
					<path fill="#FFFFFF" d="M281.1,94.3c-0.2,0-0.4-0.1-0.5-0.3c-0.1-0.3,0-0.6,0.3-0.7l7.2-2.7c0.3-0.1,0.6,0,0.7,0.3
						c0.1,0.3,0,0.6-0.3,0.7l-7.2,2.7C281.2,94.3,281.1,94.3,281.1,94.3L281.1,94.3z"/>
				</g>
			</g>
			<g>
				<g>
					<path fill="#FFFFFF" d="M298.2,105.8c-0.3,0-0.5-0.2-0.5-0.5v-6.2c0-0.2,0.1-0.3,0.2-0.4c0.1-0.1,0.3-0.1,0.5-0.1l4.4,1.7
						c0.3,0.1,0.4,0.4,0.3,0.7c-0.1,0.3-0.4,0.4-0.7,0.3l-3.7-1.4v5.4C298.7,105.6,298.5,105.8,298.2,105.8L298.2,105.8z"/>
				</g>
				<g>
					<path fill="#FFFFFF" d="M298.2,106.4c-0.1,0-0.3,0-0.4-0.1l-7.6-2.9c-0.4-0.2-0.7-0.6-0.7-1V81.2c0-0.4,0.2-0.7,0.5-0.9
						c0.3-0.2,0.7-0.2,1-0.1l12,4.5c0.4,0.2,0.7,0.6,0.7,1l0,15c0,0.3-0.1,0.5-0.3,0.7L299,106C298.8,106.2,298.5,106.4,298.2,106.4
						L298.2,106.4z M291.7,101.7l6.2,2.4l3.6-3.7l0-13.9l-9.9-3.7V101.7L291.7,101.7z"/>
				</g>
				<g>
					<path fill="#FFFFFF" d="M300.4,91c-0.1,0-0.1,0-0.2,0l-7.2-2.7c-0.3-0.1-0.4-0.4-0.3-0.7c0.1-0.3,0.4-0.4,0.7-0.3l7.2,2.7
						c0.3,0.1,0.4,0.4,0.3,0.7C300.8,90.8,300.6,91,300.4,91L300.4,91z"/>
				</g>
				<g>
					<path fill="#FFFFFF" d="M300.4,97.9c-0.1,0-0.1,0-0.2,0l-7.2-2.7c-0.3-0.1-0.4-0.4-0.3-0.7c0.1-0.3,0.4-0.4,0.7-0.3l7.2,2.7
						c0.3,0.1,0.4,0.4,0.3,0.7C300.8,97.7,300.6,97.9,300.4,97.9L300.4,97.9z"/>
				</g>
				<g>
					<path fill="#FFFFFF" d="M300.4,94.4c-0.1,0-0.1,0-0.2,0l-7.2-2.7c-0.3-0.1-0.4-0.4-0.3-0.7c0.1-0.3,0.4-0.4,0.7-0.3l7.2,2.7
						c0.3,0.1,0.4,0.4,0.3,0.7C300.8,94.3,300.6,94.4,300.4,94.4L300.4,94.4z"/>
				</g>
			</g>
		</g>
	</g>
</g>
<g>
	<g>
		<rect x="380" y="380" fill="#6CB2E2" width="169.2" height="169.2"/>
		<g>
			<path fill="#FFFFFF" d="M425.4,533.2v-4.6h-1.2v-2.3h1.2v-2.5h2.7v2.5h2.3v2.3h-2.3v4.1c0,0.6,0.3,0.9,0.9,0.9
				c0.5,0,1-0.1,1.4-0.3v2.2c-0.6,0.3-1.2,0.6-2.2,0.6C426.6,536.1,425.4,535.4,425.4,533.2z"/>
			<path fill="#FFFFFF" d="M431.7,531.1L431.7,531.1c0-2.8,2-5.1,4.8-5.1c3.2,0,4.7,2.5,4.7,5.2c0,0.2,0,0.5,0,0.7h-6.7
				c0.3,1.2,1.1,1.9,2.4,1.9c0.9,0,1.6-0.3,2.3-1l1.6,1.4c-0.9,1.1-2.2,1.8-3.9,1.8C433.9,536.1,431.7,534.1,431.7,531.1z
				 M438.5,530.3c-0.2-1.2-0.9-2.1-2-2.1c-1.1,0-1.9,0.8-2.1,2.1H438.5z"/>
			<path fill="#FFFFFF" d="M443.2,526.2h2.7v1.4c0.6-0.8,1.5-1.5,2.8-1.5c1.3,0,2.2,0.6,2.7,1.5c0.8-1,1.9-1.5,3.2-1.5
				c2,0,3.3,1.2,3.3,3.5v6.3h-2.7v-5.4c0-1.3-0.6-2-1.6-2c-1,0-1.7,0.7-1.7,2v5.4h-2.7v-5.4c0-1.3-0.6-2-1.6-2s-1.7,0.7-1.7,2v5.4
				h-2.7V526.2z"/>
			<path fill="#FFFFFF" d="M460.3,526.2h2.7v1.4c0.7-0.9,1.6-1.6,3-1.6c2.2,0,4.4,1.8,4.4,5v0c0,3.2-2.1,5-4.4,5
				c-1.5,0-2.4-0.7-3-1.4v4.1h-2.7V526.2z M467.7,531.1L467.7,531.1c0-1.6-1.1-2.7-2.4-2.7c-1.3,0-2.3,1.1-2.3,2.7v0
				c0,1.6,1.1,2.7,2.3,2.7C466.6,533.8,467.7,532.7,467.7,531.1z"/>
			<path fill="#FFFFFF" d="M472.6,522.8h2.7v13.1h-2.7V522.8z"/>
			<path fill="#FFFFFF" d="M477.3,533.1L477.3,533.1c0-2.1,1.6-3.1,3.9-3.1c1,0,1.7,0.2,2.4,0.4v-0.2c0-1.1-0.7-1.8-2.1-1.8
				c-1,0-1.8,0.2-2.7,0.5l-0.7-2.1c1.1-0.5,2.1-0.8,3.7-0.8c1.5,0,2.6,0.4,3.3,1.1c0.7,0.7,1,1.8,1,3.1v5.6h-2.6v-1
				c-0.7,0.7-1.6,1.2-2.9,1.2C478.8,536.1,477.3,535,477.3,533.1z M483.6,532.5V532c-0.5-0.2-1.1-0.4-1.7-0.4
				c-1.2,0-1.9,0.5-1.9,1.3v0c0,0.7,0.6,1.2,1.5,1.2C482.7,534.2,483.6,533.5,483.6,532.5z"/>
			<path fill="#FFFFFF" d="M488.9,533.2v-4.6h-1.2v-2.3h1.2v-2.5h2.7v2.5h2.3v2.3h-2.3v4.1c0,0.6,0.3,0.9,0.9,0.9
				c0.5,0,1-0.1,1.4-0.3v2.2c-0.6,0.3-1.2,0.6-2.2,0.6C490.1,536.1,488.9,535.4,488.9,533.2z"/>
			<path fill="#FFFFFF" d="M495.2,531.1L495.2,531.1c0-2.8,2-5.1,4.8-5.1c3.2,0,4.7,2.5,4.7,5.2c0,0.2,0,0.5,0,0.7h-6.7
				c0.3,1.2,1.1,1.9,2.4,1.9c0.9,0,1.6-0.3,2.3-1l1.6,1.4c-0.9,1.1-2.2,1.8-3.9,1.8C497.3,536.1,495.2,534.1,495.2,531.1z
				 M502,530.3c-0.2-1.2-0.9-2.1-2-2.1c-1.1,0-1.9,0.8-2.1,2.1H502z"/>
		</g>
	</g>
	<g>
		<g>
			<g>
				<g>
					<path fill="#FFFFFF" d="M464.4,490.4c-0.2,0-0.4-0.1-0.6-0.2c-0.3-0.2-0.5-0.5-0.5-0.9v-21.6c0-0.5,0.3-0.9,0.7-1l12.2-4.6
						c0.3-0.1,0.7-0.1,1,0.1c0.3,0.2,0.5,0.5,0.5,0.9v21.6c0,0.5-0.3,0.9-0.7,1l-12.2,4.6C464.7,490.4,464.5,490.4,464.4,490.4
						L464.4,490.4z M465.5,468.5v19.3l10-3.8v-19.3L465.5,468.5L465.5,468.5z"/>
				</g>
			</g>
			<g>
				<g>
					<path fill="#FFFFFF" d="M488.9,490.4c-0.1,0-0.3,0-0.4-0.1l-12.2-4.6c-0.4-0.2-0.7-0.6-0.7-1v-21.6c0-0.4,0.2-0.7,0.5-0.9
						c0.3-0.2,0.7-0.2,1-0.1l12.2,4.6c0.4,0.2,0.7,0.6,0.7,1v21.6c0,0.4-0.2,0.7-0.5,0.9C489.4,490.4,489.2,490.4,488.9,490.4
						L488.9,490.4z M477.8,484l10,3.8v-19.3l-10-3.8V484L477.8,484z"/>
				</g>
			</g>
		</g>
		<g>
			<g>
				<path fill="#FFFFFF" d="M483.1,447.7h-31.4c-1.1,0-2-0.9-2-2v-17.7c0-1.1,0.9-2,2-2h31.4c1.1,0,2,0.9,2,2v17.7
					C485.1,446.8,484.2,447.7,483.1,447.7L483.1,447.7z M453.8,443.6H481v-13.6h-27.3V443.6L453.8,443.6z"/>
			</g>
			<g>
				<g>
					<path fill="#FFFFFF" d="M500.3,503.8h-70.2c-2.3,0-4.1-1.8-4.1-4.1v-88.3c0-2.3,1.8-4.1,4.1-4.1h70.2c2.3,0,4.1,1.8,4.1,4.1
						v88.3C504.4,502,502.6,503.8,500.3,503.8L500.3,503.8z M434.2,495.6h62v-80.1h-62V495.6L434.2,495.6z"/>
				</g>
				<g>
					<path fill="#FFFFFF" d="M437.2,432h-14.3c-2.3,0-4.1-1.8-4.1-4.1s1.8-4.1,4.1-4.1h14.3c2.3,0,4.1,1.8,4.1,4.1
						S439.5,432,437.2,432L437.2,432z"/>
				</g>
				<g>
					<path fill="#FFFFFF" d="M437.2,450.3h-14.3c-2.3,0-4.1-1.8-4.1-4.1c0-2.3,1.8-4.1,4.1-4.1h14.3c2.3,0,4.1,1.8,4.1,4.1
						C441.3,448.5,439.5,450.3,437.2,450.3L437.2,450.3z"/>
				</g>
				<g>
					<path fill="#FFFFFF" d="M437.2,468.6h-14.3c-2.3,0-4.1-1.8-4.1-4.1c0-2.3,1.8-4.1,4.1-4.1h14.3c2.3,0,4.1,1.8,4.1,4.1
						C441.3,466.7,439.5,468.6,437.2,468.6L437.2,468.6z"/>
				</g>
				<g>
					<path fill="#FFFFFF" d="M437.2,486.8h-14.3c-2.3,0-4.1-1.8-4.1-4.1c0-2.3,1.8-4.1,4.1-4.1h14.3c2.3,0,4.1,1.8,4.1,4.1
						C441.3,485,439.5,486.8,437.2,486.8L437.2,486.8z"/>
				</g>
			</g>
		</g>
	</g>
</g>
<g>
	<g>
		<rect x="0" y="0" fill="#6CB2E2" width="169.2" height="169.2"/>
		<g>
			<path fill="#FFFFFF" d="M67,154.6v1.3h-2.7v-13.1H67v4.9c0.7-0.9,1.6-1.6,3-1.6c2.3,0,4.4,1.8,4.4,5v0c0,3.2-2.1,5-4.4,5
				C68.6,156.1,67.7,155.4,67,154.6z M71.7,151.1L71.7,151.1c0-1.6-1.1-2.7-2.4-2.7c-1.3,0-2.3,1.1-2.3,2.7v0c0,1.6,1.1,2.7,2.3,2.7
				C70.6,153.8,71.7,152.7,71.7,151.1z"/>
			<path fill="#FFFFFF" d="M75.9,153.1L75.9,153.1c0-2.1,1.6-3.1,3.9-3.1c1,0,1.7,0.2,2.4,0.4v-0.2c0-1.1-0.7-1.8-2.1-1.8
				c-1,0-1.8,0.2-2.7,0.5l-0.7-2.1c1.1-0.5,2.1-0.8,3.7-0.8c1.5,0,2.6,0.4,3.3,1.1c0.7,0.7,1,1.8,1,3.1v5.6h-2.6v-1
				c-0.7,0.7-1.6,1.2-2.9,1.2C77.4,156.1,75.9,155,75.9,153.1z M82.2,152.5V152c-0.5-0.2-1.1-0.4-1.7-0.4c-1.2,0-1.9,0.5-1.9,1.3v0
				c0,0.7,0.6,1.2,1.5,1.2C81.3,154.2,82.2,153.5,82.2,152.5z"/>
			<path fill="#FFFFFF" d="M86.4,154.6l1.2-1.8c1,0.8,2.1,1.2,3,1.2c0.8,0,1.2-0.3,1.2-0.7v0c0-0.6-0.9-0.8-2-1.1
				c-1.4-0.4-2.9-1-2.9-2.9v0c0-2,1.6-3.1,3.5-3.1c1.2,0,2.6,0.4,3.6,1.1l-1,1.9c-1-0.6-1.9-0.9-2.6-0.9c-0.7,0-1,0.3-1,0.7v0
				c0,0.5,0.9,0.8,2,1.2c1.4,0.5,2.9,1.1,2.9,2.9v0c0,2.1-1.6,3.1-3.7,3.1C89.2,156.1,87.6,155.6,86.4,154.6z"/>
			<path fill="#FFFFFF" d="M96.2,142.8h2.7v4.9c0.6-0.8,1.4-1.5,2.8-1.5c2.1,0,3.3,1.4,3.3,3.6v6.2h-2.7v-5.4c0-1.3-0.6-2-1.7-2
				c-1,0-1.7,0.7-1.7,2v5.4h-2.7V142.8z"/>
		</g>
	</g>
	<g>
		<g>
			<path fill="#FFFFFF" d="M127,124.3H40.2c-2.2,0-4-1.8-4-4V33.5c0-2.2,1.8-4,4-4H127c2.2,0,4,1.8,4,4v86.8
				C131,122.5,129.2,124.3,127,124.3L127,124.3z M44.2,116.3h78.8V37.5H44.2V116.3L44.2,116.3z"/>
		</g>
		<g>
			<g>
				<g>
					<path fill="#FFFFFF" d="M103.8,99H62.2c-1.1,0-1.9-0.9-1.9-1.9V55.5c0-1.1,0.9-1.9,1.9-1.9h41.6c1.1,0,1.9,0.9,1.9,1.9v41.6
						C105.7,98.2,104.8,99,103.8,99L103.8,99z M64.1,95.2h37.8V57.5H64.1V95.2L64.1,95.2z"/>
				</g>
				<g>
					<path fill="#FFFFFF" d="M103.1,67.6H62.8c-0.5,0-1-0.4-1-1c0-0.5,0.4-1,1-1h40.2c0.5,0,1,0.4,1,1
						C104,67.2,103.6,67.6,103.1,67.6L103.1,67.6z"/>
				</g>
				<path fill="#FFFFFF" d="M68.9,59.2c-1.3,0-2.4,1.1-2.4,2.4c0,1.3,1.1,2.4,2.4,2.4c1.3,0,2.4-1.1,2.4-2.4
					C71.3,60.3,70.3,59.2,68.9,59.2L68.9,59.2z"/>
				<path fill="#FFFFFF" d="M75.5,59.2c-1.3,0-2.4,1.1-2.4,2.4c0,1.3,1.1,2.4,2.4,2.4s2.4-1.1,2.4-2.4
					C77.9,60.3,76.8,59.2,75.5,59.2L75.5,59.2z"/>
				<path fill="#FFFFFF" d="M82,59.2c-1.3,0-2.4,1.1-2.4,2.4c0,1.3,1.1,2.4,2.4,2.4c1.3,0,2.4-1.1,2.4-2.4
					C84.4,60.3,83.3,59.2,82,59.2L82,59.2z"/>
			</g>
			<g>
				<g>
					<g>
						<path fill="#FFFFFF" d="M94.4,89.3H82.2c-1.1,0-1.9-0.9-1.9-1.9c0-1.1,0.9-1.9,1.9-1.9h12.2c1.1,0,1.9,0.9,1.9,1.9
							C96.3,88.5,95.5,89.3,94.4,89.3L94.4,89.3z"/>
					</g>
				</g>
				<g>
					<g>
						<path fill="#FFFFFF" d="M71.5,89.3c-0.5,0-1-0.2-1.4-0.6c-0.7-0.7-0.7-2,0-2.7l5.6-5.6l-5.6-5.6c-0.7-0.7-0.7-2,0-2.7
							c0.7-0.7,2-0.7,2.7,0l6.9,6.9c0.7,0.7,0.7,2,0,2.7l-6.9,6.9C72.5,89.1,72,89.3,71.5,89.3L71.5,89.3z"/>
					</g>
				</g>
			</g>
		</g>
	</g>
</g>
<g>
	<g>
		<rect x="0" y="380" fill="#6CB2E2" width="169.2" height="169.2"/>
		<g>
			<path fill="#FFFFFF" d="M33.3,526.2H36v1.9c0.6-1.3,1.5-2.2,3.1-2.1v2.9h-0.1c-1.8,0-2.9,1.1-2.9,3.4v3.6h-2.7V526.2z"/>
			<path fill="#FFFFFF" d="M40,531.1L40,531.1c0-2.8,2-5.1,4.8-5.1c3.2,0,4.7,2.5,4.7,5.2c0,0.2,0,0.5,0,0.7h-6.7
				c0.3,1.2,1.1,1.9,2.4,1.9c0.9,0,1.6-0.3,2.3-1l1.6,1.4c-0.9,1.1-2.2,1.8-3.9,1.8C42.2,536.1,40,534.1,40,531.1z M46.9,530.3
				c-0.2-1.2-0.9-2.1-2-2.1c-1.1,0-1.9,0.8-2.1,2.1H46.9z"/>
			<path fill="#FFFFFF" d="M51.6,526.2h2.7v1.4c0.6-0.8,1.5-1.5,2.8-1.5c1.3,0,2.2,0.6,2.7,1.5c0.8-1,1.9-1.5,3.2-1.5
				c2,0,3.3,1.2,3.3,3.5v6.3h-2.7v-5.4c0-1.3-0.6-2-1.6-2c-1,0-1.7,0.7-1.7,2v5.4h-2.7v-5.4c0-1.3-0.6-2-1.6-2s-1.7,0.7-1.7,2v5.4
				h-2.7V526.2z"/>
			<path fill="#FFFFFF" d="M68.2,531.1L68.2,531.1c0-2.8,2.2-5.1,5.2-5.1c3,0,5.2,2.2,5.2,5v0c0,2.8-2.2,5-5.2,5
				C70.4,536.1,68.2,533.9,68.2,531.1z M75.9,531.1L75.9,531.1c0-1.5-1-2.7-2.5-2.7c-1.6,0-2.5,1.2-2.5,2.6v0c0,1.4,1,2.7,2.5,2.7
				C75,533.8,75.9,532.5,75.9,531.1z"/>
			<path fill="#FFFFFF" d="M81.1,533.2v-4.6h-1.2v-2.3h1.2v-2.5h2.7v2.5h2.3v2.3h-2.3v4.1c0,0.6,0.3,0.9,0.9,0.9
				c0.5,0,1-0.1,1.4-0.3v2.2c-0.6,0.3-1.2,0.6-2.2,0.6C82.2,536.1,81.1,535.4,81.1,533.2z"/>
			<path fill="#FFFFFF" d="M87.3,531.1L87.3,531.1c0-2.8,2-5.1,4.8-5.1c3.2,0,4.7,2.5,4.7,5.2c0,0.2,0,0.5,0,0.7h-6.7
				c0.3,1.2,1.1,1.9,2.4,1.9c0.9,0,1.6-0.3,2.3-1l1.6,1.4c-0.9,1.1-2.2,1.8-3.9,1.8C89.5,536.1,87.3,534.1,87.3,531.1z M94.1,530.3
				c-0.2-1.2-0.9-2.1-2-2.1c-1.1,0-1.9,0.8-2.1,2.1H94.1z"/>
			<path fill="#FFFFFF" d="M97.6,536.7h10.9v2.1H97.6V536.7z"/>
			<path fill="#FFFFFF" d="M110.1,528.6H109v-2.3h1.1v-0.6c0-1.1,0.3-1.8,0.8-2.3c0.5-0.5,1.2-0.8,2.2-0.8c0.9,0,1.4,0.1,1.9,0.3
				v2.3c-0.4-0.1-0.8-0.2-1.2-0.2c-0.6,0-1,0.3-1,1v0.4h2.2v2.2h-2.2v7.3h-2.7V528.6z"/>
			<path fill="#FFFFFF" d="M116.6,522.8h2.9v2.4h-2.9V522.8z M116.6,526.2h2.7v9.7h-2.7V526.2z"/>
			<path fill="#FFFFFF" d="M122.1,522.8h2.7v13.1h-2.7V522.8z"/>
			<path fill="#FFFFFF" d="M126.9,531.1L126.9,531.1c0-2.8,2-5.1,4.8-5.1c3.2,0,4.7,2.5,4.7,5.2c0,0.2,0,0.5,0,0.7h-6.7
				c0.3,1.2,1.1,1.9,2.4,1.9c0.9,0,1.6-0.3,2.3-1l1.6,1.4c-0.9,1.1-2.2,1.8-3.9,1.8C129.1,536.1,126.9,534.1,126.9,531.1z
				 M133.7,530.3c-0.2-1.2-0.9-2.1-2-2.1c-1.1,0-1.9,0.8-2.1,2.1H133.7z"/>
		</g>
	</g>
	<g>
		<g>
			<g>
				<path fill="#FFFFFF" d="M85.3,498.5H25.1c-0.9,0-1.8-0.4-2.4-1.2c-0.5-0.8-0.7-1.7-0.4-2.6l12.3-38.6c0.4-1.2,1.5-2,2.8-2h60.2
					c0.9,0,1.8,0.4,2.4,1.2c0.5,0.8,0.7,1.7,0.4,2.6l-12.3,38.6C87.7,497.7,86.6,498.5,85.3,498.5L85.3,498.5z M29.1,492.6h54
					l10.4-32.8h-54L29.1,492.6L29.1,492.6z"/>
			</g>
			<g>
				<path fill="#FFFFFF" d="M22.9,498.5c-1.6,0-2.9-1.3-2.9-2.9v-52.9c0-3.2,2.6-5.9,5.9-5.9h20.5c3.2,0,5.9,2.6,5.9,5.9v2.1h3.3
					c1.6,0,2.9,1.3,2.9,2.9c0,1.6-1.3,2.9-2.9,2.9h-6.3c-1.6,0-2.9-1.3-2.9-2.9v-5H25.9v52.9C25.9,497.2,24.5,498.5,22.9,498.5
					L22.9,498.5z"/>
			</g>
			<g>
				<path fill="#FFFFFF" d="M63.5,485.4c-0.8,0-1.5-0.3-2.1-0.9l-8.9-8.9c-1.1-1.1-1.1-3,0-4.1c1.1-1.1,3-1.1,4.1,0l6.8,6.8l6.8-6.8
					c1.1-1.1,3-1.1,4.1,0c1.1,1.1,1.1,3,0,4.1l-8.9,8.9C65.1,485.1,64.3,485.4,63.5,485.4L63.5,485.4z"/>
			</g>
			<g>
				<path fill="#FFFFFF" d="M63.5,483.7c-1.5,0-2.8-1.1-2.9-2.6c-0.1-1.3-0.2-2.6-0.2-3.9c0-21.3,17.5-38.6,39.1-38.6
					c1.6,0,2.9,1.3,2.9,2.9c0,1.6-1.3,2.9-2.9,2.9c-18.3,0-33.2,14.7-33.2,32.8c0,1.1,0.1,2.3,0.2,3.4c0.2,1.6-1,3-2.6,3.2
					C63.7,483.7,63.6,483.7,63.5,483.7L63.5,483.7z"/>
			</g>
		</g>
		<g>
			<g>
				<g>
					<path fill="#FFFFFF" d="M107.7,445.6c-0.4,0-0.7-0.1-1-0.3c-0.5-0.3-0.8-0.8-0.8-1.4v-33.4c0-0.7,0.5-1.3,1.2-1.6l20-7.1
						c0.5-0.2,1.2-0.1,1.6,0.2c0.5,0.3,0.8,0.8,0.8,1.4v33.4c0,0.7-0.5,1.3-1.2,1.6l-20,7.1C108.1,445.6,107.9,445.6,107.7,445.6
						L107.7,445.6z M109.5,411.7v29.8l16.4-5.8v-29.8L109.5,411.7L109.5,411.7z"/>
				</g>
				<g>
					<path fill="#FFFFFF" d="M111.8,418.7c-0.4,0-0.7-0.2-0.8-0.5c-0.2-0.4,0.1-0.9,0.5-1.1l11.9-4.2c0.5-0.2,1,0.1,1.1,0.5
						c0.2,0.4-0.1,0.9-0.5,1.1l-11.9,4.2C112.1,418.6,111.9,418.7,111.8,418.7L111.8,418.7z"/>
				</g>
				<g>
					<path fill="#FFFFFF" d="M111.8,429.5c-0.4,0-0.7-0.2-0.8-0.5c-0.2-0.4,0.1-0.9,0.5-1.1l11.9-4.2c0.5-0.2,1,0.1,1.1,0.5
						c0.2,0.4-0.1,0.9-0.5,1.1l-11.9,4.2C112.1,429.5,111.9,429.5,111.8,429.5L111.8,429.5z"/>
				</g>
				<g>
					<path fill="#FFFFFF" d="M111.8,434.9c-0.4,0-0.7-0.2-0.8-0.5c-0.2-0.4,0.1-0.9,0.5-1.1l11.9-4.2c0.5-0.2,1,0.1,1.1,0.5
						c0.2,0.4-0.1,0.9-0.5,1.1l-11.9,4.2C112.1,434.9,111.9,434.9,111.8,434.9L111.8,434.9z"/>
				</g>
				<g>
					<path fill="#FFFFFF" d="M111.8,424.1c-0.4,0-0.7-0.2-0.8-0.5c-0.2-0.4,0.1-0.9,0.5-1.1l11.9-4.2c0.5-0.2,1,0.1,1.1,0.5
						c0.2,0.4-0.1,0.9-0.5,1.1l-11.9,4.2C112.1,424.1,111.9,424.1,111.8,424.1L111.8,424.1z"/>
				</g>
			</g>
			<g>
				<g>
					<path fill="#FFFFFF" d="M140.3,442.2c-0.5,0-0.9-0.4-0.9-0.8v-9.8c0-0.3,0.1-0.5,0.4-0.7c0.2-0.2,0.5-0.2,0.8-0.1l7.3,2.6
						c0.5,0.2,0.7,0.6,0.5,1.1c-0.2,0.4-0.7,0.7-1.1,0.5l-6.1-2.2v8.5C141.2,441.8,140.8,442.2,140.3,442.2L140.3,442.2z"/>
				</g>
				<g>
					<path fill="#FFFFFF" d="M140.3,443c-0.2,0-0.4,0-0.6-0.1l-12.6-4.5c-0.7-0.2-1.2-0.9-1.2-1.6v-33.4c0-0.6,0.3-1.1,0.8-1.4
						c0.5-0.3,1.1-0.4,1.6-0.2l19.9,7.1c0.7,0.2,1.2,0.9,1.2,1.6l0,23.6c0,0.4-0.2,0.9-0.5,1.2l-7.3,7.1
						C141.2,442.8,140.8,443,140.3,443L140.3,443z M129.5,435.6l10.4,3.7l6-5.9l0-21.8l-16.4-5.8V435.6L129.5,435.6z"/>
				</g>
				<g>
					<path fill="#FFFFFF" d="M143.9,418.8c-0.1,0-0.2,0-0.3-0.1l-11.9-4.2c-0.5-0.2-0.7-0.6-0.5-1.1c0.2-0.4,0.7-0.7,1.1-0.5
						l11.9,4.2c0.5,0.2,0.7,0.6,0.5,1.1C144.6,418.6,144.3,418.8,143.9,418.8L143.9,418.8z"/>
				</g>
				<g>
					<path fill="#FFFFFF" d="M143.9,429.6c-0.1,0-0.2,0-0.3-0.1l-11.9-4.2c-0.5-0.2-0.7-0.6-0.5-1.1c0.2-0.4,0.7-0.7,1.1-0.5
						l11.9,4.2c0.5,0.2,0.7,0.6,0.5,1.1C144.6,429.4,144.3,429.6,143.9,429.6L143.9,429.6z"/>
				</g>
				<g>
					<path fill="#FFFFFF" d="M143.9,424.2c-0.1,0-0.2,0-0.3-0.1l-11.9-4.2c-0.5-0.2-0.7-0.6-0.5-1.1c0.2-0.4,0.7-0.7,1.1-0.5
						l11.9,4.2c0.5,0.2,0.7,0.6,0.5,1.1C144.6,424,144.3,424.2,143.9,424.2L143.9,424.2z"/>
				</g>
			</g>
		</g>
	</g>
</g>
<g>
	<g>
		<rect x="190" y="380" fill="#6CB2E2" width="169.2" height="169.2"/>
		<g>
			<path fill="#FFFFFF" d="M242.6,534.6l1.2-1.8c1,0.8,2.1,1.2,3,1.2c0.8,0,1.2-0.3,1.2-0.7v0c0-0.6-0.9-0.8-2-1.1
				c-1.4-0.4-2.9-1-2.9-2.9v0c0-2,1.6-3.1,3.5-3.1c1.2,0,2.6,0.4,3.6,1.1l-1,1.9c-1-0.6-1.9-0.9-2.6-0.9c-0.7,0-1,0.3-1,0.7v0
				c0,0.5,0.9,0.8,2,1.2c1.4,0.5,2.9,1.1,2.9,2.9v0c0,2.1-1.6,3.1-3.7,3.1C245.4,536.1,243.9,535.6,242.6,534.6z"/>
			<path fill="#FFFFFF" d="M252,531.1L252,531.1c0-2.8,2-5.1,4.8-5.1c3.2,0,4.7,2.5,4.7,5.2c0,0.2,0,0.5,0,0.7h-6.7
				c0.3,1.2,1.1,1.9,2.4,1.9c0.9,0,1.6-0.3,2.3-1l1.6,1.4c-0.9,1.1-2.2,1.8-3.9,1.8C254.1,536.1,252,534.1,252,531.1z M258.8,530.3
				c-0.2-1.2-0.9-2.1-2-2.1c-1.1,0-1.9,0.8-2.1,2.1H258.8z"/>
			<path fill="#FFFFFF" d="M263.5,526.2h2.7v1.9c0.6-1.3,1.5-2.2,3.1-2.1v2.9h-0.1c-1.8,0-2.9,1.1-2.9,3.4v3.6h-2.7V526.2z"/>
			<path fill="#FFFFFF" d="M270.1,526.2h2.9l2.2,6.5l2.2-6.5h2.8l-3.8,9.7h-2.5L270.1,526.2z"/>
			<path fill="#FFFFFF" d="M281.9,522.8h2.9v2.4h-2.9V522.8z M281.9,526.2h2.7v9.7h-2.7V526.2z"/>
			<path fill="#FFFFFF" d="M286.8,531.1L286.8,531.1c0-2.8,2.1-5.1,5.1-5.1c1.8,0,3,0.6,3.9,1.6l-1.7,1.8c-0.6-0.6-1.2-1.1-2.2-1.1
				c-1.4,0-2.3,1.2-2.3,2.6v0c0,1.5,1,2.7,2.4,2.7c0.9,0,1.5-0.4,2.2-1l1.6,1.6c-0.9,1-2,1.8-3.9,1.8
				C288.9,536.1,286.8,533.9,286.8,531.1z"/>
			<path fill="#FFFFFF" d="M296.8,531.1L296.8,531.1c0-2.8,2-5.1,4.8-5.1c3.2,0,4.7,2.5,4.7,5.2c0,0.2,0,0.5,0,0.7h-6.7
				c0.3,1.2,1.1,1.9,2.4,1.9c0.9,0,1.6-0.3,2.3-1l1.6,1.4c-0.9,1.1-2.2,1.8-3.9,1.8C298.9,536.1,296.8,534.1,296.8,531.1z
				 M303.6,530.3c-0.2-1.2-0.9-2.1-2-2.1c-1.1,0-1.9,0.8-2.1,2.1H303.6z"/>
		</g>
	</g>
	<g>
		<g>
			<g>
				<path fill="#FFFFFF" d="M276,479.2c-12,0-21.8-9.8-21.8-21.8c0-12,9.8-21.8,21.8-21.8c12,0,21.8,9.8,21.8,21.8
					C297.8,469.4,288,479.2,276,479.2L276,479.2z M276,442.8c-8,0-14.6,6.5-14.6,14.6c0,8,6.5,14.6,14.6,14.6
					c8,0,14.6-6.5,14.6-14.6C290.5,449.3,284,442.8,276,442.8L276,442.8z"/>
			</g>
			<g>
				<g>
					<path fill="#FFFFFF" d="M262.3,447.3c-0.9,0-1.9-0.4-2.6-1.1l-5.1-5.1c-1.4-1.4-1.4-3.7,0-5.1c1.4-1.4,3.7-1.4,5.1,0l5.1,5.1
						c1.4,1.4,1.4,3.7,0,5.1C264.1,446.9,263.2,447.3,262.3,447.3L262.3,447.3z"/>
				</g>
				<g>
					<path fill="#FFFFFF" d="M294.8,479.8c-0.9,0-1.9-0.4-2.6-1.1l-6-6c-1.4-1.4-1.4-3.7,0-5.1c1.4-1.4,3.7-1.4,5.1,0l6,6
						c1.4,1.4,1.4,3.7,0,5.1C296.6,479.4,295.7,479.8,294.8,479.8L294.8,479.8z"/>
				</g>
			</g>
			<g>
				<g>
					<path fill="#FFFFFF" d="M289.7,447.3c-0.9,0-1.9-0.4-2.6-1.1c-1.4-1.4-1.4-3.7,0-5.1l5.1-5.1c1.4-1.4,3.7-1.4,5.1,0
						c1.4,1.4,1.4,3.7,0,5.1l-5.1,5.1C291.6,446.9,290.6,447.3,289.7,447.3L289.7,447.3z"/>
				</g>
				<g>
					<path fill="#FFFFFF" d="M257.2,479.8c-0.9,0-1.9-0.4-2.6-1.1c-1.4-1.4-1.4-3.7,0-5.1l6-6c1.4-1.4,3.7-1.4,5.1,0
						c1.4,1.4,1.4,3.7,0,5.1l-6,6C259,479.4,258.1,479.8,257.2,479.8L257.2,479.8z"/>
				</g>
			</g>
			<g>
				<g>
					<path fill="#FFFFFF" d="M276,441.6c-2,0-3.6-1.6-3.6-3.6v-7.2c0-2,1.6-3.6,3.6-3.6c2,0,3.6,1.6,3.6,3.6v7.2
						C279.6,440,278,441.6,276,441.6L276,441.6z"/>
				</g>
				<g>
					<path fill="#FFFFFF" d="M276,487.5L276,487.5c-2,0-3.6-1.6-3.6-3.6l0-8.5c0-2,1.6-3.6,3.6-3.6l0,0c2,0,3.6,1.6,3.6,3.6l0,8.5
						C279.6,485.9,278,487.5,276,487.5L276,487.5z"/>
				</g>
			</g>
			<g>
				<g>
					<path fill="#FFFFFF" d="M302.6,461h-7.2c-2,0-3.6-1.6-3.6-3.6c0-2,1.6-3.6,3.6-3.6h7.2c2,0,3.6,1.6,3.6,3.6
						C306.2,459.4,304.6,461,302.6,461L302.6,461z"/>
				</g>
				<g>
					<path fill="#FFFFFF" d="M257.9,461h-8.5c-2,0-3.6-1.6-3.6-3.6c0-2,1.6-3.6,3.6-3.6h8.5c2,0,3.6,1.6,3.6,3.6
						C261.5,459.4,259.9,461,257.9,461L257.9,461z"/>
				</g>
			</g>
		</g>
		<g>
			<path fill="#FFFFFF" d="M319,505.2h-86.8c-2.2,0-4-1.8-4-4v-86.8c0-2.2,1.8-4,4-4H319c2.2,0,4,1.8,4,4v86.8
				C323,503.5,321.2,505.2,319,505.2L319,505.2z M236.2,497.3H315v-78.8h-78.8V497.3L236.2,497.3z"/>
		</g>
	</g>
</g>
</svg>
