<?xml version="1.0" encoding="utf-8"?>
<!-- Generator: Adobe Illustrator 19.1.0, SVG Export Plug-In . SVG Version: 6.00 Build 0)  -->
<svg version="1.1" id="Layer_1" xmlns="http://www.w3.org/2000/svg" xmlns:xlink="http://www.w3.org/1999/xlink" x="0px" y="0px"
	 viewBox="0 0 594 146.5" enable-background="new 0 0 594 146.5" xml:space="preserve">
<polygon fill="#455565" fill-opacity="0.5" points="285.7,141.1 225.5,115.6 225,115.6 225,31.2 225.5,31.2 285.7,5.7 "/>
<rect x="13.2" y="18.6" fill="#E6E7E8" enable-background="new    " width="242.8" height="109.7"/>
<rect x="285.7" y="5.8" fill="#E6E7E8" enable-background="new    " width="301.5" height="135.2"/>
<line fill="none" stroke="#FFFFFF" stroke-width="4" stroke-miterlimit="10" stroke-opacity="0.5" x1="378.5" y1="122.5" x2="309.5" y2="122.5"/>
<rect x="309.4" y="31.1" transform="matrix(1 -2.653798e-03 2.653798e-03 1 -9.900988e-02 0.977)" opacity="0.75" fill="#6CB2E2" width="117.3" height="13.4"/>
<rect x="309.5" y="56.1" transform="matrix(1 -2.653798e-03 2.653798e-03 1 -0.1654 0.9773)" opacity="0.75" fill="#6CB2E2" width="117.3" height="13.4"/>
<rect x="309.6" y="81.1" transform="matrix(1 -2.653798e-03 2.653798e-03 1 -0.2317 0.9776)" opacity="0.75" fill="#6CB2E2" width="117.3" height="13.4"/>
<ellipse fill="#404447" stroke="#D1D3D4" stroke-miterlimit="10" cx="427" cy="87.8" rx="3.2" ry="6.7"/>
<g>
	<g>
		<path fill="#FFFFFF" d="M314.9,83.5h3.4c2,0,3.2,1.2,3.2,2.9v0c0,1.9-1.5,3-3.4,3h-1.4v2.5h-1.8V83.5z M318.3,87.7
			c0.9,0,1.5-0.6,1.5-1.3v0c0-0.8-0.6-1.3-1.5-1.3h-1.4v2.6H318.3z"/>
		<path fill="#FFFFFF" d="M322.8,85.4h1.8v1.3c0.4-0.9,1-1.5,2.1-1.4v1.9h-0.1c-1.2,0-2,0.7-2,2.3v2.4h-1.8V85.4z"/>
		<path fill="#FFFFFF" d="M327.3,88.7L327.3,88.7c0-1.9,1.5-3.4,3.5-3.4c2,0,3.5,1.5,3.5,3.3v0c0,1.8-1.5,3.3-3.5,3.3
			C328.8,92,327.3,90.5,327.3,88.7z M332.5,88.7L332.5,88.7c0-1-0.7-1.8-1.7-1.8c-1,0-1.7,0.8-1.7,1.8v0c0,0.9,0.7,1.8,1.7,1.8
			C331.8,90.4,332.5,89.6,332.5,88.7z"/>
		<path fill="#FFFFFF" d="M334.6,93.7v-1.4c0.1,0,0.3,0,0.4,0c0.4,0,0.6-0.2,0.6-0.7v-6.2h1.8v6.3c0,1.4-0.7,2.1-2.1,2.1
			C335.1,93.8,334.9,93.8,334.6,93.7z M335.6,83.1h1.9v1.6h-1.9V83.1z"/>
		<path fill="#FFFFFF" d="M338.9,88.7L338.9,88.7c0-1.9,1.3-3.4,3.2-3.4c2.1,0,3.1,1.7,3.1,3.5c0,0.1,0,0.3,0,0.5h-4.5
			c0.2,0.8,0.8,1.3,1.6,1.3c0.6,0,1.1-0.2,1.6-0.7l1,0.9c-0.6,0.7-1.5,1.2-2.6,1.2C340.3,92,338.9,90.6,338.9,88.7z M343.4,88.1
			c-0.1-0.8-0.6-1.4-1.4-1.4c-0.8,0-1.2,0.5-1.4,1.4H343.4z"/>
		<path fill="#FFFFFF" d="M346.2,88.7L346.2,88.7c0-1.9,1.4-3.4,3.4-3.4c1.2,0,2,0.4,2.6,1.1l-1.1,1.2c-0.4-0.4-0.8-0.7-1.5-0.7
			c-0.9,0-1.6,0.8-1.6,1.8v0c0,1,0.6,1.8,1.6,1.8c0.6,0,1-0.3,1.5-0.7l1.1,1.1c-0.6,0.7-1.3,1.2-2.6,1.2
			C347.7,92,346.2,90.5,346.2,88.7z"/>
		<path fill="#FFFFFF" d="M353.7,90v-3h-0.8v-1.6h0.8v-1.6h1.8v1.6h1.5V87h-1.5v2.7c0,0.4,0.2,0.6,0.6,0.6c0.3,0,0.6-0.1,0.9-0.2
			v1.5c-0.4,0.2-0.8,0.4-1.4,0.4C354.5,92,353.7,91.5,353.7,90z"/>
		<path fill="#FFFFFF" d="M361.8,87.7L361.8,87.7c0-2.4,1.8-4.4,4.4-4.4c1.6,0,2.5,0.5,3.3,1.3l-1.2,1.4c-0.6-0.6-1.3-0.9-2.1-0.9
			c-1.4,0-2.4,1.2-2.4,2.6v0c0,1.4,1,2.6,2.4,2.6c1,0,1.5-0.4,2.2-1l1.2,1.2c-0.9,0.9-1.8,1.5-3.4,1.5
			C363.6,92,361.8,90.1,361.8,87.7z"/>
	</g>
</g>
<ellipse fill="#404447" stroke="#D1D3D4" stroke-miterlimit="10" cx="427" cy="62.8" rx="3.2" ry="6.7"/>
<g>
	<g>
		<path fill="#FFFFFF" d="M314.9,58.5h3.4c2,0,3.2,1.2,3.2,2.9v0c0,1.9-1.5,3-3.4,3h-1.4v2.5h-1.8V58.5z M318.3,62.7
			c0.9,0,1.5-0.6,1.5-1.3v0c0-0.8-0.6-1.3-1.5-1.3h-1.4v2.6H318.3z"/>
		<path fill="#FFFFFF" d="M322.8,60.4h1.8v1.3c0.4-0.9,1-1.5,2.1-1.4v1.9h-0.1c-1.2,0-2,0.7-2,2.3v2.4h-1.8V60.4z"/>
		<path fill="#FFFFFF" d="M327.3,63.7L327.3,63.7c0-1.9,1.5-3.4,3.5-3.4c2,0,3.5,1.5,3.5,3.3v0c0,1.8-1.5,3.3-3.5,3.3
			C328.8,67,327.3,65.5,327.3,63.7z M332.5,63.7L332.5,63.7c0-1-0.7-1.8-1.7-1.8c-1,0-1.7,0.8-1.7,1.8v0c0,0.9,0.7,1.8,1.7,1.8
			C331.8,65.4,332.5,64.6,332.5,63.7z"/>
		<path fill="#FFFFFF" d="M334.6,68.7v-1.4c0.1,0,0.3,0,0.4,0c0.4,0,0.6-0.2,0.6-0.7v-6.2h1.8v6.3c0,1.4-0.7,2.1-2.1,2.1
			C335.1,68.8,334.9,68.8,334.6,68.7z M335.6,58.1h1.9v1.6h-1.9V58.1z"/>
		<path fill="#FFFFFF" d="M338.9,63.7L338.9,63.7c0-1.9,1.3-3.4,3.2-3.4c2.1,0,3.1,1.7,3.1,3.5c0,0.1,0,0.3,0,0.5h-4.5
			c0.2,0.8,0.8,1.3,1.6,1.3c0.6,0,1.1-0.2,1.6-0.7l1,0.9c-0.6,0.7-1.5,1.2-2.6,1.2C340.3,67,338.9,65.6,338.9,63.7z M343.4,63.1
			c-0.1-0.8-0.6-1.4-1.4-1.4c-0.8,0-1.2,0.5-1.4,1.4H343.4z"/>
		<path fill="#FFFFFF" d="M346.2,63.7L346.2,63.7c0-1.9,1.4-3.4,3.4-3.4c1.2,0,2,0.4,2.6,1.1l-1.1,1.2c-0.4-0.4-0.8-0.7-1.5-0.7
			c-0.9,0-1.6,0.8-1.6,1.8v0c0,1,0.6,1.8,1.6,1.8c0.6,0,1-0.3,1.5-0.7l1.1,1.1c-0.6,0.7-1.3,1.2-2.6,1.2
			C347.7,67,346.2,65.5,346.2,63.7z"/>
		<path fill="#FFFFFF" d="M353.7,65v-3h-0.8v-1.6h0.8v-1.6h1.8v1.6h1.5V62h-1.5v2.7c0,0.4,0.2,0.6,0.6,0.6c0.3,0,0.6-0.1,0.9-0.2
			v1.5c-0.4,0.2-0.8,0.4-1.4,0.4C354.5,67,353.7,66.5,353.7,65z"/>
		<path fill="#FFFFFF" d="M362.2,58.5h3.9c1,0,1.7,0.3,2.2,0.7c0.4,0.4,0.6,0.9,0.6,1.4v0c0,0.9-0.5,1.5-1.1,1.8
			c1,0.4,1.6,0.9,1.6,2.1v0c0,1.5-1.2,2.3-3.1,2.3h-4V58.5z M365.7,61.9c0.8,0,1.3-0.3,1.3-0.9v0c0-0.6-0.4-0.9-1.2-0.9H364v1.8
			H365.7z M366.2,65.2c0.8,0,1.3-0.3,1.3-0.9v0c0-0.6-0.4-0.9-1.4-0.9H364v1.8H366.2z"/>
	</g>
</g>
<g>
	<g>
		<path fill="#FFFFFF" d="M314.9,33.5h3.4c2,0,3.2,1.2,3.2,2.9v0c0,1.9-1.5,3-3.4,3h-1.4v2.5h-1.8V33.5z M318.3,37.7
			c0.9,0,1.5-0.6,1.5-1.3v0c0-0.8-0.6-1.3-1.5-1.3h-1.4v2.6H318.3z"/>
		<path fill="#FFFFFF" d="M322.8,35.4h1.8v1.3c0.4-0.9,1-1.5,2.1-1.4v1.9h-0.1c-1.2,0-2,0.7-2,2.3v2.4h-1.8V35.4z"/>
		<path fill="#FFFFFF" d="M327.3,38.7L327.3,38.7c0-1.9,1.5-3.4,3.5-3.4c2,0,3.5,1.5,3.5,3.3v0c0,1.8-1.5,3.3-3.5,3.3
			C328.8,42,327.3,40.5,327.3,38.7z M332.5,38.7L332.5,38.7c0-1-0.7-1.8-1.7-1.8c-1,0-1.7,0.8-1.7,1.8v0c0,0.9,0.7,1.8,1.7,1.8
			C331.8,40.4,332.5,39.6,332.5,38.7z"/>
		<path fill="#FFFFFF" d="M334.6,43.7v-1.4c0.1,0,0.3,0,0.4,0c0.4,0,0.6-0.2,0.6-0.7v-6.2h1.8v6.3c0,1.4-0.7,2.1-2.1,2.1
			C335.1,43.8,334.9,43.8,334.6,43.7z M335.6,33.1h1.9v1.6h-1.9V33.1z"/>
		<path fill="#FFFFFF" d="M338.9,38.7L338.9,38.7c0-1.9,1.3-3.4,3.2-3.4c2.1,0,3.1,1.7,3.1,3.5c0,0.1,0,0.3,0,0.5h-4.5
			c0.2,0.8,0.8,1.3,1.6,1.3c0.6,0,1.1-0.2,1.6-0.7l1,0.9c-0.6,0.7-1.5,1.2-2.6,1.2C340.3,42,338.9,40.6,338.9,38.7z M343.4,38.1
			c-0.1-0.8-0.6-1.4-1.4-1.4c-0.8,0-1.2,0.5-1.4,1.4H343.4z"/>
		<path fill="#FFFFFF" d="M346.2,38.7L346.2,38.7c0-1.9,1.4-3.4,3.4-3.4c1.2,0,2,0.4,2.6,1.1l-1.1,1.2c-0.4-0.4-0.8-0.7-1.5-0.7
			c-0.9,0-1.6,0.8-1.6,1.8v0c0,1,0.6,1.8,1.6,1.8c0.6,0,1-0.3,1.5-0.7l1.1,1.1c-0.6,0.7-1.3,1.2-2.6,1.2
			C347.7,42,346.2,40.5,346.2,38.7z"/>
		<path fill="#FFFFFF" d="M353.7,40v-3h-0.8v-1.6h0.8v-1.6h1.8v1.6h1.5V37h-1.5v2.7c0,0.4,0.2,0.6,0.6,0.6c0.3,0,0.6-0.1,0.9-0.2
			v1.5c-0.4,0.2-0.8,0.4-1.4,0.4C354.5,42,353.7,41.5,353.7,40z"/>
		<path fill="#FFFFFF" d="M365.1,33.4h1.7l3.6,8.5h-1.9l-0.8-1.9h-3.5l-0.8,1.9h-1.9L365.1,33.4z M367,38.3l-1.1-2.7l-1.1,2.7H367z"
			/>
	</g>
</g>
<rect x="459.6" y="25" fill="#6CB2E2" width="28.8" height="76"/>
<g>
	<g>
		<g>
			<path fill="#FFFFFF" d="M472.2,71.6c-0.5,0-0.8-0.4-0.8-0.8v-5.1h-5.1c-0.5,0-0.8-0.4-0.8-0.8c0-0.5,0.4-0.8,0.8-0.8h6
				c0.5,0,0.8,0.4,0.8,0.8v6C473,71.2,472.7,71.6,472.2,71.6L472.2,71.6z"/>
		</g>
		<g>
			<path fill="#FFFFFF" d="M464.8,73.1c-0.2,0-0.4-0.1-0.6-0.2c-0.3-0.3-0.3-0.9,0-1.2l7.4-7.4c0.3-0.3,0.9-0.3,1.2,0
				c0.3,0.3,0.3,0.9,0,1.2l-7.4,7.4C465.2,73,465,73.1,464.8,73.1L464.8,73.1z"/>
		</g>
	</g>
	<g>
		<g>
			<path fill="#FFFFFF" d="M475.8,71.6c-0.5,0-0.8-0.4-0.8-0.8v-6c0-0.5,0.4-0.8,0.8-0.8h6c0.5,0,0.8,0.4,0.8,0.8
				c0,0.5-0.4,0.8-0.8,0.8h-5.1v5.1C476.6,71.2,476.2,71.6,475.8,71.6L475.8,71.6z"/>
		</g>
		<g>
			<path fill="#FFFFFF" d="M483.2,73.1c-0.2,0-0.4-0.1-0.6-0.2l-7.4-7.4c-0.3-0.3-0.3-0.9,0-1.2c0.3-0.3,0.9-0.3,1.2,0l7.4,7.4
				c0.3,0.3,0.3,0.9,0,1.2C483.6,73,483.4,73.1,483.2,73.1L483.2,73.1z"/>
		</g>
	</g>
	<g>
		<g>
			<path fill="#FFFFFF" d="M481.7,62.1h-6c-0.5,0-0.8-0.4-0.8-0.8v-6c0-0.5,0.4-0.8,0.8-0.8c0.5,0,0.8,0.4,0.8,0.8v5.1h5.1
				c0.5,0,0.8,0.4,0.8,0.8C482.6,61.7,482.2,62.1,481.7,62.1L481.7,62.1z"/>
		</g>
		<g>
			<path fill="#FFFFFF" d="M475.8,62.1c-0.2,0-0.4-0.1-0.6-0.2c-0.3-0.3-0.3-0.9,0-1.2l7.4-7.4c0.3-0.3,0.9-0.3,1.2,0
				c0.3,0.3,0.3,0.9,0,1.2l-7.4,7.4C476.2,62,476,62.1,475.8,62.1L475.8,62.1z"/>
		</g>
	</g>
	<g>
		<g>
			<path fill="#FFFFFF" d="M472.2,62.1h-6c-0.5,0-0.8-0.4-0.8-0.8c0-0.5,0.4-0.8,0.8-0.8h5.1v-5.1c0-0.5,0.4-0.8,0.8-0.8
				c0.5,0,0.8,0.4,0.8,0.8v6C473,61.7,472.7,62.1,472.2,62.1L472.2,62.1z"/>
		</g>
		<g>
			<path fill="#FFFFFF" d="M472.2,62.1c-0.2,0-0.4-0.1-0.6-0.2l-7.4-7.4c-0.3-0.3-0.3-0.9,0-1.2c0.3-0.3,0.9-0.3,1.2,0l7.4,7.4
				c0.3,0.3,0.3,0.9,0,1.2C472.6,62,472.4,62.1,472.2,62.1L472.2,62.1z"/>
		</g>
	</g>
</g>
<line opacity="0.8" fill="#445464" stroke="#FCB716" stroke-width="10" stroke-miterlimit="10" x1="493.3" y1="36" x2="493.3" y2="90"/>
<rect x="498.3" y="25" fill="#6CB2E2" width="28.8" height="76"/>
<g>
	<g>
		<path fill="#FFFFFF" d="M506.6,68.7c-0.2,0-0.4-0.1-0.6-0.2l-2.3-2.2c-0.4-0.3-0.4-0.9,0-1.3c0.3-0.4,0.9-0.4,1.3,0l2.3,2.2
			c0.4,0.3,0.4,0.9,0,1.3C507.1,68.6,506.9,68.7,506.6,68.7L506.6,68.7z"/>
	</g>
	<g>
		<path fill="#FFFFFF" d="M510.4,68.4c-0.2,0-0.5-0.1-0.6-0.3c-0.3-0.3-0.3-0.9,0-1.3l8.3-8.3c0.1-0.1,0.3-0.2,0.5-0.3l3.5-0.4
			c0.5-0.1,0.9,0.3,1,0.8c0.1,0.5-0.3,0.9-0.8,1l-3.2,0.3l-8.1,8.1C510.9,68.3,510.6,68.4,510.4,68.4L510.4,68.4z"/>
	</g>
	<g>
		<path fill="#FFFFFF" d="M508.5,66.2c-0.2,0-0.5-0.1-0.6-0.3l-5.2-5.2c-0.2-0.2-0.3-0.4-0.3-0.6c0-0.2,0.1-0.5,0.3-0.6l5.2-5.2
			c0.3-0.3,0.9-0.3,1.3,0l5.2,5.2c0.3,0.3,0.3,0.9,0,1.3l-5.2,5.2C508.9,66.1,508.7,66.2,508.5,66.2L508.5,66.2z M504.5,60.1l4,4
			l4-4l-4-4L504.5,60.1L504.5,60.1z"/>
	</g>
	<g>
		<polygon fill="#FFFFFF" points="509.7,60.1 508.5,58.8 510.5,56.8 511.7,58.1 509.7,60.1 		"/>
	</g>
	<g>
		<path fill="#FFFFFF" d="M508.6,72.1c-0.8,0-1.5-0.3-2-0.8c-0.5-0.5-0.8-1.2-0.8-2s0.3-1.5,0.8-2c1.1-1.1,2.9-1.1,4,0
			c0.5,0.5,0.8,1.2,0.8,2s-0.3,1.5-0.8,2C510,71.8,509.3,72.1,508.6,72.1L508.6,72.1z M508.6,68.3c-0.3,0-0.5,0.1-0.7,0.3
			c-0.2,0.2-0.3,0.5-0.3,0.7c0,0.3,0.1,0.5,0.3,0.7c0.4,0.4,1.1,0.4,1.5,0c0.4-0.4,0.4-1.1,0-1.5C509.1,68.4,508.8,68.3,508.6,68.3
			L508.6,68.3z"/>
	</g>
</g>
<ellipse fill="#404447" stroke="#D1D3D4" stroke-miterlimit="10" cx="427" cy="37.8" rx="3.2" ry="6.7"/>
<g>
	
		<line opacity="0.8" fill="#445464" stroke="#FCB716" stroke-width="4" stroke-miterlimit="10" x1="459.5" y1="88" x2="425.3" y2="88"/>
	
		<line opacity="0.8" fill="#445464" stroke="#FCB716" stroke-width="4" stroke-miterlimit="10" x1="459.5" y1="63" x2="425.3" y2="63"/>
	
		<line opacity="0.8" fill="#6CB2E2" stroke="#FCB716" stroke-width="4" stroke-miterlimit="10" x1="459.5" y1="38" x2="425.3" y2="38"/>
</g>
<line opacity="0.8" fill="none" stroke="#FCB716" stroke-width="10" stroke-miterlimit="10" x1="532.3" y1="36" x2="532.3" y2="90"/>
<rect x="537.3" y="25" fill="#6CB2E2" width="28.8" height="76"/>
<g>
	<g>
		<path fill="#FFFFFF" d="M551.7,73.6c-0.1,0-0.3,0-0.4-0.1l-9.6-4.8c-0.3-0.2-0.5-0.5-0.5-0.9v-9.5c0-0.4,0.2-0.8,0.5-0.9l9.6-4.8
			c0.2-0.1,0.5-0.1,0.8,0l9.6,4.8c0.3,0.2,0.5,0.5,0.5,0.9v9.5c0,0.4-0.2,0.8-0.5,0.9l-9.6,4.8C552,73.5,551.9,73.6,551.7,73.6
			L551.7,73.6z M543.1,67.1l8.6,4.3l8.6-4.3v-8.2l-8.6-4.3l-8.6,4.3V67.1L543.1,67.1z"/>
	</g>
	<g>
		<path fill="#FFFFFF" d="M551.7,64.3c-0.1,0-0.3,0-0.4-0.1l-9.6-4.8c-0.5-0.2-0.7-0.8-0.5-1.4c0.2-0.5,0.8-0.7,1.2-0.5l9.2,4.6
			l9.2-4.6c0.5-0.2,1,0,1.2,0.5c0.2,0.5,0,1.1-0.5,1.4l-9.6,4.8C552,64.3,551.9,64.3,551.7,64.3L551.7,64.3z"/>
	</g>
	<g>
		<path fill="#FFFFFF" d="M556.9,61.5c-0.1,0-0.1,0-0.2,0l-9.6-4.8c-0.2-0.1-0.3-0.4-0.2-0.7c0.1-0.3,0.4-0.4,0.6-0.3l9.6,4.8
			c0.2,0.1,0.3,0.4,0.2,0.7C557.2,61.4,557.1,61.5,556.9,61.5L556.9,61.5z"/>
	</g>
	<g>
		<path fill="#FFFFFF" d="M551.7,73.2c-0.5,0-0.9-0.5-0.9-1v-7.9c0-0.6,0.4-1,0.9-1c0.5,0,0.9,0.5,0.9,1v7.9
			C552.7,72.7,552.2,73.2,551.7,73.2L551.7,73.2z"/>
	</g>
</g>
<g>
	<g>
		<path fill="#404447" d="M387.2,118.2h3.3c2.6,0,4.5,1.8,4.5,4.2v0c0,2.4-1.8,4.2-4.5,4.2h-3.3V118.2z M390.5,124.9
			c1.5,0,2.5-1,2.5-2.5v0c0-1.5-1-2.5-2.5-2.5H389v5.1H390.5z"/>
		<path fill="#404447" d="M396.1,123.4L396.1,123.4c0-1.9,1.3-3.4,3.2-3.4c2.1,0,3.1,1.7,3.1,3.5c0,0.1,0,0.3,0,0.5h-4.5
			c0.2,0.8,0.8,1.3,1.6,1.3c0.6,0,1.1-0.2,1.6-0.7l1,0.9c-0.6,0.7-1.5,1.2-2.6,1.2C397.5,126.7,396.1,125.4,396.1,123.4z
			 M400.6,122.9c-0.1-0.8-0.6-1.4-1.4-1.4c-0.8,0-1.2,0.5-1.4,1.4H400.6z"/>
		<path fill="#404447" d="M403.8,117.8h1.8v8.8h-1.8V117.8z"/>
		<path fill="#404447" d="M407.4,117.8h1.9v1.6h-1.9V117.8z M407.4,120.2h1.8v6.4h-1.8V120.2z"/>
		<path fill="#404447" d="M410.4,120.2h1.9l1.4,4.3l1.5-4.3h1.9l-2.5,6.5h-1.7L410.4,120.2z"/>
		<path fill="#404447" d="M417.5,123.4L417.5,123.4c0-1.9,1.3-3.4,3.2-3.4c2.1,0,3.1,1.7,3.1,3.5c0,0.1,0,0.3,0,0.5h-4.5
			c0.2,0.8,0.8,1.3,1.6,1.3c0.6,0,1.1-0.2,1.6-0.7l1,0.9c-0.6,0.7-1.5,1.2-2.6,1.2C418.9,126.7,417.5,125.4,417.5,123.4z M422,122.9
			c-0.1-0.8-0.6-1.4-1.4-1.4c-0.8,0-1.2,0.5-1.4,1.4H422z"/>
		<path fill="#404447" d="M425.2,120.2h1.8v1.3c0.4-0.9,1-1.5,2.1-1.4v1.9H429c-1.2,0-2,0.7-2,2.3v2.4h-1.8V120.2z"/>
		<path fill="#404447" d="M430.1,128.1l0.6-1.3c0.2,0.1,0.5,0.3,0.8,0.3c0.3,0,0.5-0.1,0.6-0.4l-2.5-6.5h1.9l1.5,4.4l1.4-4.4h1.9
			l-2.5,6.6c-0.5,1.3-1,1.8-2.1,1.8C431.1,128.6,430.6,128.4,430.1,128.1z"/>
		<path fill="#404447" d="M441.2,118.2h3.4c2,0,3.2,1.2,3.2,2.9v0c0,1.9-1.5,3-3.4,3H443v2.5h-1.8V118.2z M444.5,122.4
			c0.9,0,1.5-0.6,1.5-1.3v0c0-0.8-0.6-1.3-1.5-1.3H443v2.6H444.5z"/>
		<path fill="#404447" d="M449.1,117.8h1.9v1.6h-1.9V117.8z M449.1,120.2h1.8v6.4h-1.8V120.2z"/>
		<path fill="#404447" d="M452.6,120.2h1.8v0.9c0.4-0.6,1.1-1,2-1c1.5,0,2.9,1.2,2.9,3.3v0c0,2.1-1.4,3.3-2.9,3.3c-1,0-1.6-0.4-2-1
			v2.8h-1.8V120.2z M457.6,123.4L457.6,123.4c0-1.1-0.7-1.8-1.6-1.8s-1.6,0.7-1.6,1.8v0c0,1.1,0.7,1.8,1.6,1.8
			S457.6,124.5,457.6,123.4z"/>
		<path fill="#404447" d="M460.4,123.4L460.4,123.4c0-1.9,1.3-3.4,3.2-3.4c2.1,0,3.1,1.7,3.1,3.5c0,0.1,0,0.3,0,0.5h-4.5
			c0.2,0.8,0.8,1.3,1.6,1.3c0.6,0,1.1-0.2,1.6-0.7l1,0.9c-0.6,0.7-1.5,1.2-2.6,1.2C461.9,126.7,460.4,125.4,460.4,123.4z M465,122.9
			c-0.1-0.8-0.6-1.4-1.4-1.4c-0.8,0-1.2,0.5-1.4,1.4H465z"/>
		<path fill="#404447" d="M468.2,117.8h1.8v8.8h-1.8V117.8z"/>
		<path fill="#404447" d="M471.8,117.8h1.9v1.6h-1.9V117.8z M471.8,120.2h1.8v6.4h-1.8V120.2z"/>
		<path fill="#404447" d="M475.3,120.2h1.8v0.9c0.4-0.5,1-1,1.9-1c1.4,0,2.2,0.9,2.2,2.4v4.2h-1.8V123c0-0.9-0.4-1.3-1.1-1.3
			s-1.1,0.4-1.1,1.3v3.6h-1.8V120.2z"/>
		<path fill="#404447" d="M482.5,123.4L482.5,123.4c0-1.9,1.3-3.4,3.2-3.4c2.1,0,3.1,1.7,3.1,3.5c0,0.1,0,0.3,0,0.5h-4.5
			c0.2,0.8,0.8,1.3,1.6,1.3c0.6,0,1.1-0.2,1.6-0.7l1,0.9c-0.6,0.7-1.5,1.2-2.6,1.2C483.9,126.7,482.5,125.4,482.5,123.4z M487,122.9
			c-0.1-0.8-0.6-1.4-1.4-1.4c-0.8,0-1.2,0.5-1.4,1.4H487z"/>
	</g>
</g>
<line fill="none" stroke="#FFFFFF" stroke-width="4" stroke-miterlimit="10" stroke-opacity="0.5" x1="566.1" y1="122.5" x2="498.1" y2="122.5"/>
<line fill="none" stroke="#FFFFFF" stroke-width="4" stroke-miterlimit="10" stroke-opacity="0.5" x1="80.5" y1="110.2" x2="34" y2="110.2"/>
<g>
	<g>
		<path fill="#404447" d="M88.6,113l1.1-1.3c0.8,0.6,1.5,1,2.5,1c0.8,0,1.2-0.3,1.2-0.8v0c0-0.5-0.3-0.7-1.7-1.1
			c-1.7-0.4-2.8-0.9-2.8-2.6v0c0-1.5,1.2-2.5,2.9-2.5c1.2,0,2.3,0.4,3.1,1.1l-1,1.4c-0.7-0.5-1.5-0.8-2.2-0.8
			c-0.7,0-1.1,0.3-1.1,0.7v0c0,0.6,0.4,0.7,1.8,1.1c1.7,0.4,2.7,1.1,2.7,2.5v0c0,1.7-1.3,2.6-3.1,2.6
			C90.9,114.4,89.6,113.9,88.6,113z"/>
		<path fill="#404447" d="M96.4,111.1L96.4,111.1c0-1.9,1.5-3.4,3.5-3.4c2,0,3.5,1.5,3.5,3.3v0c0,1.8-1.5,3.3-3.5,3.3
			C97.9,114.4,96.4,112.9,96.4,111.1z M101.5,111.1L101.5,111.1c0-1-0.7-1.8-1.7-1.8c-1,0-1.7,0.8-1.7,1.8v0c0,0.9,0.7,1.8,1.7,1.8
			C100.9,112.8,101.5,112,101.5,111.1z"/>
		<path fill="#404447" d="M104.6,112v-4.2h1.8v3.6c0,0.9,0.4,1.3,1.1,1.3c0.7,0,1.1-0.4,1.1-1.3v-3.6h1.8v6.4h-1.8v-0.9
			c-0.4,0.5-1,1-1.9,1C105.4,114.4,104.6,113.5,104.6,112z"/>
		<path fill="#404447" d="M112.1,107.8h1.8v1.3c0.4-0.9,1-1.5,2.1-1.4v1.9h-0.1c-1.2,0-2,0.7-2,2.3v2.4h-1.8V107.8z"/>
		<path fill="#404447" d="M116.7,111.1L116.7,111.1c0-1.9,1.4-3.4,3.4-3.4c1.2,0,2,0.4,2.6,1.1l-1.1,1.2c-0.4-0.4-0.8-0.7-1.5-0.7
			c-0.9,0-1.6,0.8-1.6,1.8v0c0,1,0.6,1.8,1.6,1.8c0.6,0,1-0.3,1.5-0.7l1.1,1.1c-0.6,0.7-1.3,1.2-2.6,1.2
			C118.1,114.4,116.7,112.9,116.7,111.1z"/>
		<path fill="#404447" d="M123.3,111.1L123.3,111.1c0-1.9,1.3-3.4,3.2-3.4c2.1,0,3.1,1.7,3.1,3.5c0,0.1,0,0.3,0,0.5h-4.5
			c0.2,0.8,0.8,1.3,1.6,1.3c0.6,0,1.1-0.2,1.6-0.7l1,0.9c-0.6,0.7-1.5,1.2-2.6,1.2C124.8,114.4,123.3,113.1,123.3,111.1z
			 M127.9,110.5c-0.1-0.8-0.6-1.4-1.4-1.4c-0.8,0-1.2,0.5-1.4,1.4H127.9z"/>
		<path fill="#404447" d="M134.4,110.1L134.4,110.1c0-2.4,1.8-4.4,4.4-4.4c1.6,0,2.5,0.5,3.3,1.3l-1.2,1.4c-0.6-0.6-1.3-0.9-2.1-0.9
			c-1.4,0-2.4,1.2-2.4,2.6v0c0,1.4,1,2.6,2.4,2.6c1,0,1.5-0.4,2.2-1l1.2,1.2c-0.9,0.9-1.8,1.5-3.4,1.5
			C136.3,114.4,134.4,112.5,134.4,110.1z"/>
		<path fill="#404447" d="M143,111.1L143,111.1c0-1.9,1.5-3.4,3.5-3.4c2,0,3.5,1.5,3.5,3.3v0c0,1.8-1.5,3.3-3.5,3.3
			C144.5,114.4,143,112.9,143,111.1z M148.2,111.1L148.2,111.1c0-1-0.7-1.8-1.7-1.8c-1,0-1.7,0.8-1.7,1.8v0c0,0.9,0.7,1.8,1.7,1.8
			C147.6,112.8,148.2,112,148.2,111.1z"/>
		<path fill="#404447" d="M151.3,107.8h1.8v0.9c0.4-0.5,1-1,1.9-1c1.4,0,2.2,0.9,2.2,2.4v4.2h-1.8v-3.6c0-0.9-0.4-1.3-1.1-1.3
			s-1.1,0.4-1.1,1.3v3.6h-1.8V107.8z"/>
		<path fill="#404447" d="M159.1,112.4v-3h-0.8v-1.6h0.8v-1.6h1.8v1.6h1.5v1.6h-1.5v2.7c0,0.4,0.2,0.6,0.6,0.6
			c0.3,0,0.6-0.1,0.9-0.2v1.5c-0.4,0.2-0.8,0.4-1.4,0.4C159.8,114.4,159.1,113.9,159.1,112.4z"/>
		<path fill="#404447" d="M163.8,107.8h1.8v1.3c0.4-0.9,1-1.5,2.1-1.4v1.9h-0.1c-1.2,0-2,0.7-2,2.3v2.4h-1.8V107.8z"/>
		<path fill="#404447" d="M168.3,111.1L168.3,111.1c0-1.9,1.5-3.4,3.5-3.4c2,0,3.5,1.5,3.5,3.3v0c0,1.8-1.5,3.3-3.5,3.3
			C169.8,114.4,168.3,112.9,168.3,111.1z M173.4,111.1L173.4,111.1c0-1-0.7-1.8-1.7-1.8c-1,0-1.7,0.8-1.7,1.8v0
			c0,0.9,0.7,1.8,1.7,1.8C172.8,112.8,173.4,112,173.4,111.1z"/>
		<path fill="#404447" d="M176.6,105.5h1.8v8.8h-1.8V105.5z"/>
	</g>
</g>
<line fill="none" stroke="#FFFFFF" stroke-width="4" stroke-miterlimit="10" stroke-opacity="0.5" x1="231" y1="110.2" x2="187.1" y2="110.2"/>
<line opacity="0.8" fill="#445464" stroke="#FCB716" stroke-width="4" stroke-miterlimit="10" x1="309.5" y1="88" x2="275.3" y2="88"/>
<line opacity="0.8" fill="#445464" stroke="#FCB716" stroke-width="4" stroke-miterlimit="10" x1="309.5" y1="63" x2="275.3" y2="63"/>
<line opacity="0.8" fill="#6CB2E2" stroke="#FCB716" stroke-width="4" stroke-miterlimit="10" x1="309.5" y1="38" x2="275.3" y2="38"/>
<line opacity="0.8" fill="#445464" stroke="#FCB716" stroke-width="4" stroke-miterlimit="10" x1="273.3" y1="36" x2="273.3" y2="90"/>
<line opacity="0.8" fill="#445464" stroke="#FCB716" stroke-width="4" stroke-miterlimit="10" x1="271.3" y1="63" x2="84.5" y2="63"/>
<g>
	<g>
		<rect x="33.6" y="34.2" fill="#404447" width="57.6" height="57.6"/>
		<g>
			<path fill="#FFFFFF" d="M47.9,83h2c0.5,0,0.9,0.1,1.1,0.4c0.2,0.2,0.3,0.4,0.3,0.7v0c0,0.5-0.3,0.8-0.6,0.9
				c0.5,0.2,0.8,0.5,0.8,1.1v0c0,0.8-0.6,1.2-1.6,1.2h-2V83z M49.7,84.7c0.4,0,0.7-0.1,0.7-0.5v0c0-0.3-0.2-0.4-0.6-0.4h-0.9v0.9
				H49.7z M50,86.5c0.4,0,0.7-0.1,0.7-0.5v0c0-0.3-0.2-0.5-0.7-0.5h-1.1v0.9H50z"/>
			<path fill="#FFFFFF" d="M52.3,82.8h1v0.8h-1V82.8z M52.3,84h0.9v3.3h-0.9V84z"/>
			<path fill="#FFFFFF" d="M54.3,86.4v-1.6h-0.4V84h0.4v-0.8h0.9V84H56v0.8h-0.8v1.4c0,0.2,0.1,0.3,0.3,0.3c0.2,0,0.3,0,0.5-0.1v0.7
				c-0.2,0.1-0.4,0.2-0.7,0.2C54.6,87.3,54.3,87.1,54.3,86.4z"/>
			<path fill="#FFFFFF" d="M57.6,86.9v0.4h-0.9v-4.5h0.9v1.7c0.2-0.3,0.5-0.5,1-0.5c0.8,0,1.5,0.6,1.5,1.7v0c0,1.1-0.7,1.7-1.5,1.7
				C58.1,87.3,57.8,87.1,57.6,86.9z M59.2,85.7L59.2,85.7c0-0.6-0.4-0.9-0.8-0.9c-0.4,0-0.8,0.4-0.8,0.9v0c0,0.5,0.4,0.9,0.8,0.9
				C58.8,86.6,59.2,86.2,59.2,85.7z"/>
			<path fill="#FFFFFF" d="M60.8,86.1V84h0.9v1.8c0,0.4,0.2,0.7,0.6,0.7c0.4,0,0.6-0.2,0.6-0.7V84h0.9v3.3h-0.9v-0.5
				c-0.2,0.3-0.5,0.5-1,0.5C61.2,87.3,60.8,86.9,60.8,86.1z"/>
			<path fill="#FFFFFF" d="M64.4,85.7L64.4,85.7c0-0.9,0.7-1.7,1.7-1.7c0.6,0,1,0.2,1.3,0.6l-0.6,0.6c-0.2-0.2-0.4-0.4-0.7-0.4
				c-0.5,0-0.8,0.4-0.8,0.9v0c0,0.5,0.3,0.9,0.8,0.9c0.3,0,0.5-0.1,0.8-0.3l0.5,0.6c-0.3,0.3-0.7,0.6-1.3,0.6
				C65.2,87.4,64.4,86.6,64.4,85.7z"/>
			<path fill="#FFFFFF" d="M68.1,82.8H69v2.4l1.1-1.2h1.1L70,85.3l1.3,2h-1.1l-0.9-1.3L69,86.3v1h-0.9V82.8z"/>
			<path fill="#FFFFFF" d="M71.4,85.7L71.4,85.7c0-0.9,0.7-1.7,1.6-1.7c1.1,0,1.6,0.9,1.6,1.8c0,0.1,0,0.2,0,0.2h-2.3
				c0.1,0.4,0.4,0.6,0.8,0.6c0.3,0,0.5-0.1,0.8-0.3l0.5,0.5c-0.3,0.4-0.7,0.6-1.3,0.6C72.1,87.4,71.4,86.7,71.4,85.7z M73.7,85.4
				c-0.1-0.4-0.3-0.7-0.7-0.7c-0.4,0-0.6,0.3-0.7,0.7H73.7z"/>
			<path fill="#FFFFFF" d="M75.5,86.4v-1.6h-0.4V84h0.4v-0.8h0.9V84h0.8v0.8h-0.8v1.4c0,0.2,0.1,0.3,0.3,0.3c0.2,0,0.3,0,0.5-0.1
				v0.7c-0.2,0.1-0.4,0.2-0.7,0.2C75.9,87.3,75.5,87.1,75.5,86.4z"/>
		</g>
	</g>
	<g>
		<path fill="#FFFFFF" d="M62.4,44.4L62.4,44.4L62.4,44.4c-7.4,0-13.5,2-13.5,4.5c0,0.7,1.6,10,2.3,13.8c0.3,1.7,4.6,4.1,11.3,4.1v0
			v0c6.7,0,11-2.5,11.3-4.1C74.3,59,76,49.6,76,48.9C75.9,46.4,69.9,44.4,62.4,44.4z M62.4,63.8c-2.4,0-4.3-1.9-4.3-4.3
			c0-2.4,1.9-4.3,4.3-4.3c2.4,0,4.3,1.9,4.3,4.3C66.7,61.9,64.8,63.8,62.4,63.8z M62.4,50.3c-4.8,0-8.7-0.8-8.7-1.9
			c0-1,3.9-1.8,8.7-1.8s8.7,0.8,8.7,1.9C71.1,49.5,67.2,50.3,62.4,50.3z"/>
		<path fill="#FFFFFF" d="M72.1,66.4c-0.2,0-0.4,0.2-0.4,0.2s-3.3,2.6-9.3,2.6s-9.3-2.6-9.3-2.6s-0.2-0.2-0.4-0.2
			c-0.2,0-0.5,0.2-0.5,0.5c0,0,0,0.1,0,0.1c0.5,2.8,0.9,4.7,1,5c0.4,2,4.4,3.6,9.2,3.6l0,0l0,0l0,0l0,0c4.8,0,8.8-1.5,9.2-3.6
			c0.1-0.3,0.4-2.3,1-5c0,0,0-0.1,0-0.1C72.6,66.6,72.4,66.4,72.1,66.4z"/>
		<circle fill="#FFFFFF" cx="62.4" cy="59.5" r="2.1"/>
	</g>
</g>
<g>
	<g>
		<rect x="103.7" y="34.3" fill="#404447" width="57.5" height="57.5"/>
		<g>
			<path fill="#FFFFFF" d="M121.9,85.1L121.9,85.1c0-1.2,0.9-2.2,2.2-2.2c0.8,0,1.2,0.2,1.7,0.6l-0.6,0.7c-0.3-0.3-0.6-0.4-1.1-0.4
				c-0.7,0-1.2,0.6-1.2,1.3v0c0,0.8,0.5,1.4,1.3,1.4c0.3,0,0.6-0.1,0.9-0.3v-0.6h-0.9v-0.8h1.9v1.9c-0.4,0.4-1,0.7-1.8,0.7
				C122.8,87.3,121.9,86.4,121.9,85.1z"/>
			<path fill="#FFFFFF" d="M126.8,82.8h1v0.8h-1V82.8z M126.8,84h0.9v3.3h-0.9V84z"/>
			<path fill="#FFFFFF" d="M128.8,86.3v-1.6h-0.4V84h0.4v-0.8h0.9V84h0.8v0.8h-0.8v1.4c0,0.2,0.1,0.3,0.3,0.3c0.2,0,0.3,0,0.5-0.1
				v0.7c-0.2,0.1-0.4,0.2-0.7,0.2C129.1,87.3,128.8,87.1,128.8,86.3z"/>
			<path fill="#FFFFFF" d="M131.2,83h0.9v1.7h1.7V83h0.9v4.3h-0.9v-1.7h-1.7v1.7h-0.9V83z"/>
			<path fill="#FFFFFF" d="M135.8,86.1V84h0.9v1.8c0,0.4,0.2,0.7,0.6,0.7c0.4,0,0.6-0.2,0.6-0.7V84h0.9v3.3h-0.9v-0.5
				c-0.2,0.3-0.5,0.5-1,0.5C136.2,87.3,135.8,86.9,135.8,86.1z"/>
			<path fill="#FFFFFF" d="M140.5,86.8v0.4h-0.9v-4.5h0.9v1.7c0.2-0.3,0.5-0.5,1-0.5c0.8,0,1.5,0.6,1.5,1.7v0c0,1.1-0.7,1.7-1.5,1.7
				C141.1,87.3,140.8,87.1,140.5,86.8z M142.1,85.6L142.1,85.6c0-0.6-0.4-0.9-0.8-0.9c-0.4,0-0.8,0.4-0.8,0.9v0
				c0,0.5,0.4,0.9,0.8,0.9C141.8,86.5,142.1,86.2,142.1,85.6z"/>
		</g>
	</g>
	<g>
		<path fill="#FFFFFF" d="M132.4,45.1c-8.4,0-15.3,6.9-15.3,15.3c0,6.8,4.4,12.5,10.5,14.5c0.8,0.1,1-0.3,1-0.7c0-0.4,0-1.3,0-2.6
			c-4.3,0.9-5.2-2.1-5.2-2.1c-0.7-1.8-1.7-2.2-1.7-2.2c-1.4-0.9,0.1-0.9,0.1-0.9c1.5,0.1,2.3,1.6,2.3,1.6c1.4,2.3,3.6,1.7,4.5,1.3
			c0.1-1,0.5-1.7,1-2c-3.4-0.4-7-1.7-7-7.6c0-1.7,0.6-3,1.6-4.1c-0.2-0.4-0.7-1.9,0.2-4c0,0,1.3-0.4,4.2,1.6
			c1.2-0.3,2.5-0.5,3.8-0.5c1.3,0,2.6,0.2,3.8,0.5c2.9-2,4.2-1.6,4.2-1.6c0.8,2.1,0.3,3.7,0.2,4c1,1.1,1.6,2.4,1.6,4.1
			c0,5.9-3.6,7.2-7,7.5c0.5,0.5,1,1.4,1,2.8c0,2,0,3.7,0,4.2c0,0.4,0.3,0.9,1.1,0.7c6.1-2,10.5-7.8,10.5-14.5
			C147.7,51.9,140.9,45.1,132.4,45.1z"/>
	</g>
</g>
<g>
	<g>
		<rect x="173.7" y="34.3" fill="#404447" width="57.4" height="57.4"/>
		<g>
			<path fill="#FFFFFF" d="M198.6,87.8l0.3-0.7c0.3,0.2,0.7,0.3,1.1,0.3c0.6,0,0.9-0.3,0.9-0.9v-0.2c-0.3,0.3-0.6,0.5-1.1,0.5
				c-0.8,0-1.5-0.6-1.5-1.5v0c0-1,0.7-1.5,1.5-1.5c0.5,0,0.8,0.2,1.1,0.5v-0.4h0.9v2.5c0,0.6-0.1,1-0.4,1.3
				c-0.3,0.3-0.8,0.4-1.4,0.4C199.5,88.1,199,88,198.6,87.8z M201,85.3L201,85.3c0-0.5-0.3-0.8-0.8-0.8c-0.5,0-0.8,0.3-0.8,0.8v0
				c0,0.5,0.3,0.8,0.8,0.8C200.6,86.1,201,85.8,201,85.3z"/>
			<path fill="#FFFFFF" d="M202.7,82.7h1v0.8h-1V82.7z M202.8,83.9h0.9v3.3h-0.9V83.9z"/>
			<path fill="#FFFFFF" d="M204.7,86.2v-1.6h-0.4v-0.8h0.4V83h0.9v0.8h0.8v0.8h-0.8v1.4c0,0.2,0.1,0.3,0.3,0.3c0.2,0,0.3,0,0.5-0.1
				V87c-0.2,0.1-0.4,0.2-0.7,0.2C205.1,87.2,204.7,87,204.7,86.2z"/>
		</g>
	</g>
	<g>
		<path fill="#FFFFFF" d="M219.3,58.1l-15.5-15.5c-0.9-0.9-2.3-0.9-3.2,0l-3.2,3.2l4.1,4.1c1-0.3,2-0.1,2.8,0.7
			c0.8,0.8,1,1.9,0.6,2.8l3.9,3.9c1-0.3,2.1-0.1,2.8,0.6c1.1,1.1,1.1,2.8,0,3.9c-1.1,1.1-2.8,1.1-3.9,0c-0.8-0.8-1-2-0.6-3l-3.7-3.7
			v9.7c0.3,0.1,0.5,0.3,0.7,0.5c1.1,1.1,1.1,2.8,0,3.9c-1.1,1.1-2.8,1.1-3.9,0c-1.1-1.1-1.1-2.8,0-3.9c0.3-0.3,0.6-0.5,0.9-0.6V55
			c-0.3-0.1-0.6-0.3-0.9-0.6c-0.8-0.8-1-2-0.6-3l-4-4L185.1,58c-0.9,0.9-0.9,2.3,0,3.2l15.5,15.5c0.9,0.9,2.3,0.9,3.2,0l15.5-15.5
			C220.2,60.5,220.2,59,219.3,58.1z"/>
	</g>
</g>
</svg>
