<?xml version="1.0" encoding="utf-8"?>
<!-- Generator: Adobe Illustrator 19.1.0, SVG Export Plug-In . SVG Version: 6.00 Build 0)  -->
<svg version="1.1" id="Layer_1" xmlns="http://www.w3.org/2000/svg" xmlns:xlink="http://www.w3.org/1999/xlink" x="0px" y="0px"
	 viewBox="0 0 506.5 146.5" enable-background="new 0 0 506.5 146.5" xml:space="preserve">
<polygon fill="#455565" fill-opacity="0.5" points="198.2,141.1 138,115.6 137.5,115.6 137.5,31.2 138,31.2 198.2,5.7 "/>
<rect x="7.2" y="18.6" fill="#E6E7E8" enable-background="new    " width="161.3" height="109.7"/>
<rect x="198.2" y="5.8" fill="#E6E7E8" enable-background="new    " width="301.5" height="135.2"/>
<line fill="none" stroke="#FFFFFF" stroke-width="4" stroke-miterlimit="10" stroke-opacity="0.5" x1="291" y1="122.5" x2="222" y2="122.5"/>
<rect x="221.9" y="31.1" transform="matrix(1 -2.653798e-03 2.653798e-03 1 -9.931799e-02 0.7447)" opacity="0.75" fill="#6CB2E2" width="117.3" height="13.4"/>
<rect x="222" y="56.1" transform="matrix(1 -2.653798e-03 2.653798e-03 1 -0.1657 0.745)" opacity="0.75" fill="#6CB2E2" width="117.3" height="13.4"/>
<rect x="222.1" y="81.1" transform="matrix(1 -2.653798e-03 2.653798e-03 1 -0.232 0.7453)" opacity="0.75" fill="#6CB2E2" width="117.3" height="13.4"/>
<ellipse fill="#404447" stroke="#D1D3D4" stroke-miterlimit="10" cx="339.5" cy="87.8" rx="3.2" ry="6.7"/>
<g>
	<g>
		<path fill="#FFFFFF" d="M227.4,83.5h3.4c2,0,3.2,1.2,3.2,2.9v0c0,1.9-1.5,3-3.4,3h-1.4v2.5h-1.8V83.5z M230.8,87.7
			c0.9,0,1.5-0.6,1.5-1.3v0c0-0.8-0.6-1.3-1.5-1.3h-1.4v2.6H230.8z"/>
		<path fill="#FFFFFF" d="M235.3,85.4h1.8v1.3c0.4-0.9,1-1.5,2.1-1.4v1.9H239c-1.2,0-2,0.7-2,2.3v2.4h-1.8V85.4z"/>
		<path fill="#FFFFFF" d="M239.8,88.7L239.8,88.7c0-1.9,1.5-3.4,3.5-3.4c2,0,3.5,1.5,3.5,3.3v0c0,1.8-1.5,3.3-3.5,3.3
			C241.3,92,239.8,90.5,239.8,88.7z M245,88.7L245,88.7c0-1-0.7-1.8-1.7-1.8c-1,0-1.7,0.8-1.7,1.8v0c0,0.9,0.7,1.8,1.7,1.8
			C244.3,90.4,245,89.6,245,88.7z"/>
		<path fill="#FFFFFF" d="M247.1,93.7v-1.4c0.1,0,0.3,0,0.4,0c0.4,0,0.6-0.2,0.6-0.7v-6.2h1.8v6.3c0,1.4-0.7,2.1-2.1,2.1
			C247.6,93.8,247.4,93.8,247.1,93.7z M248.1,83.1h1.9v1.6h-1.9V83.1z"/>
		<path fill="#FFFFFF" d="M251.4,88.7L251.4,88.7c0-1.9,1.3-3.4,3.2-3.4c2.1,0,3.1,1.7,3.1,3.5c0,0.1,0,0.3,0,0.5h-4.5
			c0.2,0.8,0.8,1.3,1.6,1.3c0.6,0,1.1-0.2,1.6-0.7l1,0.9c-0.6,0.7-1.5,1.2-2.6,1.2C252.8,92,251.4,90.6,251.4,88.7z M255.9,88.1
			c-0.1-0.8-0.6-1.4-1.4-1.4c-0.8,0-1.2,0.5-1.4,1.4H255.9z"/>
		<path fill="#FFFFFF" d="M258.7,88.7L258.7,88.7c0-1.9,1.4-3.4,3.4-3.4c1.2,0,2,0.4,2.6,1.1l-1.1,1.2c-0.4-0.4-0.8-0.7-1.5-0.7
			c-0.9,0-1.6,0.8-1.6,1.8v0c0,1,0.6,1.8,1.6,1.8c0.6,0,1-0.3,1.5-0.7l1.1,1.1c-0.6,0.7-1.3,1.2-2.6,1.2
			C260.2,92,258.7,90.5,258.7,88.7z"/>
		<path fill="#FFFFFF" d="M266.2,90v-3h-0.8v-1.6h0.8v-1.6h1.8v1.6h1.5V87H268v2.7c0,0.4,0.2,0.6,0.6,0.6c0.3,0,0.6-0.1,0.9-0.2v1.5
			c-0.4,0.2-0.8,0.4-1.4,0.4C267,92,266.2,91.5,266.2,90z"/>
		<path fill="#FFFFFF" d="M274.3,87.7L274.3,87.7c0-2.4,1.8-4.4,4.4-4.4c1.6,0,2.5,0.5,3.3,1.3l-1.2,1.4c-0.6-0.6-1.3-0.9-2.1-0.9
			c-1.4,0-2.4,1.2-2.4,2.6v0c0,1.4,1,2.6,2.4,2.6c1,0,1.5-0.4,2.2-1l1.2,1.2c-0.9,0.9-1.8,1.5-3.4,1.5
			C276.1,92,274.3,90.1,274.3,87.7z"/>
	</g>
</g>
<ellipse fill="#404447" stroke="#D1D3D4" stroke-miterlimit="10" cx="339.5" cy="62.8" rx="3.2" ry="6.7"/>
<g>
	<g>
		<path fill="#FFFFFF" d="M227.4,58.5h3.4c2,0,3.2,1.2,3.2,2.9v0c0,1.9-1.5,3-3.4,3h-1.4v2.5h-1.8V58.5z M230.8,62.7
			c0.9,0,1.5-0.6,1.5-1.3v0c0-0.8-0.6-1.3-1.5-1.3h-1.4v2.6H230.8z"/>
		<path fill="#FFFFFF" d="M235.3,60.4h1.8v1.3c0.4-0.9,1-1.5,2.1-1.4v1.9H239c-1.2,0-2,0.7-2,2.3v2.4h-1.8V60.4z"/>
		<path fill="#FFFFFF" d="M239.8,63.7L239.8,63.7c0-1.9,1.5-3.4,3.5-3.4c2,0,3.5,1.5,3.5,3.3v0c0,1.8-1.5,3.3-3.5,3.3
			C241.3,67,239.8,65.5,239.8,63.7z M245,63.7L245,63.7c0-1-0.7-1.8-1.7-1.8c-1,0-1.7,0.8-1.7,1.8v0c0,0.9,0.7,1.8,1.7,1.8
			C244.3,65.4,245,64.6,245,63.7z"/>
		<path fill="#FFFFFF" d="M247.1,68.7v-1.4c0.1,0,0.3,0,0.4,0c0.4,0,0.6-0.2,0.6-0.7v-6.2h1.8v6.3c0,1.4-0.7,2.1-2.1,2.1
			C247.6,68.8,247.4,68.8,247.1,68.7z M248.1,58.1h1.9v1.6h-1.9V58.1z"/>
		<path fill="#FFFFFF" d="M251.4,63.7L251.4,63.7c0-1.9,1.3-3.4,3.2-3.4c2.1,0,3.1,1.7,3.1,3.5c0,0.1,0,0.3,0,0.5h-4.5
			c0.2,0.8,0.8,1.3,1.6,1.3c0.6,0,1.1-0.2,1.6-0.7l1,0.9c-0.6,0.7-1.5,1.2-2.6,1.2C252.8,67,251.4,65.6,251.4,63.7z M255.9,63.1
			c-0.1-0.8-0.6-1.4-1.4-1.4c-0.8,0-1.2,0.5-1.4,1.4H255.9z"/>
		<path fill="#FFFFFF" d="M258.7,63.7L258.7,63.7c0-1.9,1.4-3.4,3.4-3.4c1.2,0,2,0.4,2.6,1.1l-1.1,1.2c-0.4-0.4-0.8-0.7-1.5-0.7
			c-0.9,0-1.6,0.8-1.6,1.8v0c0,1,0.6,1.8,1.6,1.8c0.6,0,1-0.3,1.5-0.7l1.1,1.1c-0.6,0.7-1.3,1.2-2.6,1.2
			C260.2,67,258.7,65.5,258.7,63.7z"/>
		<path fill="#FFFFFF" d="M266.2,65v-3h-0.8v-1.6h0.8v-1.6h1.8v1.6h1.5V62H268v2.7c0,0.4,0.2,0.6,0.6,0.6c0.3,0,0.6-0.1,0.9-0.2v1.5
			c-0.4,0.2-0.8,0.4-1.4,0.4C267,67,266.2,66.5,266.2,65z"/>
		<path fill="#FFFFFF" d="M274.7,58.5h3.9c1,0,1.7,0.3,2.2,0.7c0.4,0.4,0.6,0.9,0.6,1.4v0c0,0.9-0.5,1.5-1.1,1.8
			c1,0.4,1.6,0.9,1.6,2.1v0c0,1.5-1.2,2.3-3.1,2.3h-4V58.5z M278.2,61.9c0.8,0,1.3-0.3,1.3-0.9v0c0-0.6-0.4-0.9-1.2-0.9h-1.8v1.8
			H278.2z M278.7,65.2c0.8,0,1.3-0.3,1.3-0.9v0c0-0.6-0.4-0.9-1.4-0.9h-2.1v1.8H278.7z"/>
	</g>
</g>
<g>
	<g>
		<path fill="#FFFFFF" d="M227.4,33.5h3.4c2,0,3.2,1.2,3.2,2.9v0c0,1.9-1.5,3-3.4,3h-1.4v2.5h-1.8V33.5z M230.8,37.7
			c0.9,0,1.5-0.6,1.5-1.3v0c0-0.8-0.6-1.3-1.5-1.3h-1.4v2.6H230.8z"/>
		<path fill="#FFFFFF" d="M235.3,35.4h1.8v1.3c0.4-0.9,1-1.5,2.1-1.4v1.9H239c-1.2,0-2,0.7-2,2.3v2.4h-1.8V35.4z"/>
		<path fill="#FFFFFF" d="M239.8,38.7L239.8,38.7c0-1.9,1.5-3.4,3.5-3.4c2,0,3.5,1.5,3.5,3.3v0c0,1.8-1.5,3.3-3.5,3.3
			C241.3,42,239.8,40.5,239.8,38.7z M245,38.7L245,38.7c0-1-0.7-1.8-1.7-1.8c-1,0-1.7,0.8-1.7,1.8v0c0,0.9,0.7,1.8,1.7,1.8
			C244.3,40.4,245,39.6,245,38.7z"/>
		<path fill="#FFFFFF" d="M247.1,43.7v-1.4c0.1,0,0.3,0,0.4,0c0.4,0,0.6-0.2,0.6-0.7v-6.2h1.8v6.3c0,1.4-0.7,2.1-2.1,2.1
			C247.6,43.8,247.4,43.8,247.1,43.7z M248.1,33.1h1.9v1.6h-1.9V33.1z"/>
		<path fill="#FFFFFF" d="M251.4,38.7L251.4,38.7c0-1.9,1.3-3.4,3.2-3.4c2.1,0,3.1,1.7,3.1,3.5c0,0.1,0,0.3,0,0.5h-4.5
			c0.2,0.8,0.8,1.3,1.6,1.3c0.6,0,1.1-0.2,1.6-0.7l1,0.9c-0.6,0.7-1.5,1.2-2.6,1.2C252.8,42,251.4,40.6,251.4,38.7z M255.9,38.1
			c-0.1-0.8-0.6-1.4-1.4-1.4c-0.8,0-1.2,0.5-1.4,1.4H255.9z"/>
		<path fill="#FFFFFF" d="M258.7,38.7L258.7,38.7c0-1.9,1.4-3.4,3.4-3.4c1.2,0,2,0.4,2.6,1.1l-1.1,1.2c-0.4-0.4-0.8-0.7-1.5-0.7
			c-0.9,0-1.6,0.8-1.6,1.8v0c0,1,0.6,1.8,1.6,1.8c0.6,0,1-0.3,1.5-0.7l1.1,1.1c-0.6,0.7-1.3,1.2-2.6,1.2
			C260.2,42,258.7,40.5,258.7,38.7z"/>
		<path fill="#FFFFFF" d="M266.2,40v-3h-0.8v-1.6h0.8v-1.6h1.8v1.6h1.5V37H268v2.7c0,0.4,0.2,0.6,0.6,0.6c0.3,0,0.6-0.1,0.9-0.2v1.5
			c-0.4,0.2-0.8,0.4-1.4,0.4C267,42,266.2,41.5,266.2,40z"/>
		<path fill="#FFFFFF" d="M277.6,33.4h1.7l3.6,8.5h-1.9l-0.8-1.9h-3.5l-0.8,1.9H274L277.6,33.4z M279.5,38.3l-1.1-2.7l-1.1,2.7
			H279.5z"/>
	</g>
</g>
<rect x="372.1" y="25" fill="#6CB2E2" width="28.8" height="76"/>
<g>
	<g>
		<g>
			<path fill="#FFFFFF" d="M384.7,71.6c-0.5,0-0.8-0.4-0.8-0.8v-5.1h-5.1c-0.5,0-0.8-0.4-0.8-0.8c0-0.5,0.4-0.8,0.8-0.8h6
				c0.5,0,0.8,0.4,0.8,0.8v6C385.5,71.2,385.2,71.6,384.7,71.6L384.7,71.6z"/>
		</g>
		<g>
			<path fill="#FFFFFF" d="M377.3,73.1c-0.2,0-0.4-0.1-0.6-0.2c-0.3-0.3-0.3-0.9,0-1.2l7.4-7.4c0.3-0.3,0.9-0.3,1.2,0
				c0.3,0.3,0.3,0.9,0,1.2l-7.4,7.4C377.7,73,377.5,73.1,377.3,73.1L377.3,73.1z"/>
		</g>
	</g>
	<g>
		<g>
			<path fill="#FFFFFF" d="M388.3,71.6c-0.5,0-0.8-0.4-0.8-0.8v-6c0-0.5,0.4-0.8,0.8-0.8h6c0.5,0,0.8,0.4,0.8,0.8
				c0,0.5-0.4,0.8-0.8,0.8h-5.1v5.1C389.1,71.2,388.7,71.6,388.3,71.6L388.3,71.6z"/>
		</g>
		<g>
			<path fill="#FFFFFF" d="M395.7,73.1c-0.2,0-0.4-0.1-0.6-0.2l-7.4-7.4c-0.3-0.3-0.3-0.9,0-1.2c0.3-0.3,0.9-0.3,1.2,0l7.4,7.4
				c0.3,0.3,0.3,0.9,0,1.2C396.1,73,395.9,73.1,395.7,73.1L395.7,73.1z"/>
		</g>
	</g>
	<g>
		<g>
			<path fill="#FFFFFF" d="M394.2,62.1h-6c-0.5,0-0.8-0.4-0.8-0.8v-6c0-0.5,0.4-0.8,0.8-0.8c0.5,0,0.8,0.4,0.8,0.8v5.1h5.1
				c0.5,0,0.8,0.4,0.8,0.8C395.1,61.7,394.7,62.1,394.2,62.1L394.2,62.1z"/>
		</g>
		<g>
			<path fill="#FFFFFF" d="M388.3,62.1c-0.2,0-0.4-0.1-0.6-0.2c-0.3-0.3-0.3-0.9,0-1.2l7.4-7.4c0.3-0.3,0.9-0.3,1.2,0
				c0.3,0.3,0.3,0.9,0,1.2l-7.4,7.4C388.7,62,388.5,62.1,388.3,62.1L388.3,62.1z"/>
		</g>
	</g>
	<g>
		<g>
			<path fill="#FFFFFF" d="M384.7,62.1h-6c-0.5,0-0.8-0.4-0.8-0.8c0-0.5,0.4-0.8,0.8-0.8h5.1v-5.1c0-0.5,0.4-0.8,0.8-0.8
				c0.5,0,0.8,0.4,0.8,0.8v6C385.5,61.7,385.2,62.1,384.7,62.1L384.7,62.1z"/>
		</g>
		<g>
			<path fill="#FFFFFF" d="M384.7,62.1c-0.2,0-0.4-0.1-0.6-0.2l-7.4-7.4c-0.3-0.3-0.3-0.9,0-1.2c0.3-0.3,0.9-0.3,1.2,0l7.4,7.4
				c0.3,0.3,0.3,0.9,0,1.2C385.1,62,384.9,62.1,384.7,62.1L384.7,62.1z"/>
		</g>
	</g>
</g>
<line opacity="0.8" fill="#445464" stroke="#FCB716" stroke-width="10" stroke-miterlimit="10" x1="405.8" y1="36" x2="405.8" y2="90"/>
<rect x="410.8" y="25" fill="#6CB2E2" width="28.8" height="76"/>
<g>
	<g>
		<path fill="#FFFFFF" d="M419.1,68.7c-0.2,0-0.4-0.1-0.6-0.2l-2.3-2.2c-0.4-0.3-0.4-0.9,0-1.3c0.3-0.4,0.9-0.4,1.3,0l2.3,2.2
			c0.4,0.3,0.4,0.9,0,1.3C419.6,68.6,419.4,68.7,419.1,68.7L419.1,68.7z"/>
	</g>
	<g>
		<path fill="#FFFFFF" d="M422.9,68.4c-0.2,0-0.5-0.1-0.6-0.3c-0.3-0.3-0.3-0.9,0-1.3l8.3-8.3c0.1-0.1,0.3-0.2,0.5-0.3l3.5-0.4
			c0.5-0.1,0.9,0.3,1,0.8c0.1,0.5-0.3,0.9-0.8,1l-3.2,0.3l-8.1,8.1C423.4,68.3,423.1,68.4,422.9,68.4L422.9,68.4z"/>
	</g>
	<g>
		<path fill="#FFFFFF" d="M421,66.2c-0.2,0-0.5-0.1-0.6-0.3l-5.2-5.2c-0.2-0.2-0.3-0.4-0.3-0.6c0-0.2,0.1-0.5,0.3-0.6l5.2-5.2
			c0.3-0.3,0.9-0.3,1.3,0l5.2,5.2c0.3,0.3,0.3,0.9,0,1.3l-5.2,5.2C421.4,66.1,421.2,66.2,421,66.2L421,66.2z M417,60.1l4,4l4-4l-4-4
			L417,60.1L417,60.1z"/>
	</g>
	<g>
		<polygon fill="#FFFFFF" points="422.2,60.1 421,58.8 423,56.8 424.2,58.1 422.2,60.1 		"/>
	</g>
	<g>
		<path fill="#FFFFFF" d="M421.1,72.1c-0.8,0-1.5-0.3-2-0.8c-0.5-0.5-0.8-1.2-0.8-2s0.3-1.5,0.8-2c1.1-1.1,2.9-1.1,4,0
			c0.5,0.5,0.8,1.2,0.8,2s-0.3,1.5-0.8,2C422.5,71.8,421.8,72.1,421.1,72.1L421.1,72.1z M421.1,68.3c-0.3,0-0.5,0.1-0.7,0.3
			c-0.2,0.2-0.3,0.5-0.3,0.7c0,0.3,0.1,0.5,0.3,0.7c0.4,0.4,1.1,0.4,1.5,0c0.4-0.4,0.4-1.1,0-1.5C421.6,68.4,421.3,68.3,421.1,68.3
			L421.1,68.3z"/>
	</g>
</g>
<ellipse fill="#404447" stroke="#D1D3D4" stroke-miterlimit="10" cx="339.5" cy="37.8" rx="3.2" ry="6.7"/>
<g>
	
		<line opacity="0.8" fill="#445464" stroke="#FCB716" stroke-width="4" stroke-miterlimit="10" x1="372" y1="88" x2="337.8" y2="88"/>
	
		<line opacity="0.8" fill="#445464" stroke="#FCB716" stroke-width="4" stroke-miterlimit="10" x1="372" y1="63" x2="337.8" y2="63"/>
	
		<line opacity="0.8" fill="#6CB2E2" stroke="#FCB716" stroke-width="4" stroke-miterlimit="10" x1="372" y1="38" x2="337.8" y2="38"/>
</g>
<line opacity="0.8" fill="none" stroke="#FCB716" stroke-width="10" stroke-miterlimit="10" x1="444.8" y1="36" x2="444.8" y2="90"/>
<rect x="449.8" y="25" fill="#6CB2E2" width="28.8" height="76"/>
<g>
	<g>
		<path fill="#FFFFFF" d="M464.2,73.6c-0.1,0-0.3,0-0.4-0.1l-9.6-4.8c-0.3-0.2-0.5-0.5-0.5-0.9v-9.5c0-0.4,0.2-0.8,0.5-0.9l9.6-4.8
			c0.2-0.1,0.5-0.1,0.8,0l9.6,4.8c0.3,0.2,0.5,0.5,0.5,0.9v9.5c0,0.4-0.2,0.8-0.5,0.9l-9.6,4.8C464.5,73.5,464.4,73.6,464.2,73.6
			L464.2,73.6z M455.6,67.1l8.6,4.3l8.6-4.3v-8.2l-8.6-4.3l-8.6,4.3V67.1L455.6,67.1z"/>
	</g>
	<g>
		<path fill="#FFFFFF" d="M464.2,64.3c-0.1,0-0.3,0-0.4-0.1l-9.6-4.8c-0.5-0.2-0.7-0.8-0.5-1.4c0.2-0.5,0.8-0.7,1.2-0.5l9.2,4.6
			l9.2-4.6c0.5-0.2,1,0,1.2,0.5c0.2,0.5,0,1.1-0.5,1.4l-9.6,4.8C464.5,64.3,464.4,64.3,464.2,64.3L464.2,64.3z"/>
	</g>
	<g>
		<path fill="#FFFFFF" d="M469.4,61.5c-0.1,0-0.1,0-0.2,0l-9.6-4.8c-0.2-0.1-0.3-0.4-0.2-0.7c0.1-0.3,0.4-0.4,0.6-0.3l9.6,4.8
			c0.2,0.1,0.3,0.4,0.2,0.7C469.7,61.4,469.6,61.5,469.4,61.5L469.4,61.5z"/>
	</g>
	<g>
		<path fill="#FFFFFF" d="M464.2,73.2c-0.5,0-0.9-0.5-0.9-1v-7.9c0-0.6,0.4-1,0.9-1c0.5,0,0.9,0.5,0.9,1v7.9
			C465.2,72.7,464.7,73.2,464.2,73.2L464.2,73.2z"/>
	</g>
</g>
<g>
	<g>
		<path fill="#404447" d="M299.7,118.2h3.3c2.6,0,4.5,1.8,4.5,4.2v0c0,2.4-1.8,4.2-4.5,4.2h-3.3V118.2z M303,124.9
			c1.5,0,2.5-1,2.5-2.5v0c0-1.5-1-2.5-2.5-2.5h-1.4v5.1H303z"/>
		<path fill="#404447" d="M308.6,123.4L308.6,123.4c0-1.9,1.3-3.4,3.2-3.4c2.1,0,3.1,1.7,3.1,3.5c0,0.1,0,0.3,0,0.5h-4.5
			c0.2,0.8,0.8,1.3,1.6,1.3c0.6,0,1.1-0.2,1.6-0.7l1,0.9c-0.6,0.7-1.5,1.2-2.6,1.2C310,126.7,308.6,125.4,308.6,123.4z M313.1,122.9
			c-0.1-0.8-0.6-1.4-1.4-1.4c-0.8,0-1.2,0.5-1.4,1.4H313.1z"/>
		<path fill="#404447" d="M316.3,117.8h1.8v8.8h-1.8V117.8z"/>
		<path fill="#404447" d="M319.9,117.8h1.9v1.6h-1.9V117.8z M319.9,120.2h1.8v6.4h-1.8V120.2z"/>
		<path fill="#404447" d="M322.9,120.2h1.9l1.4,4.3l1.5-4.3h1.9l-2.5,6.5h-1.7L322.9,120.2z"/>
		<path fill="#404447" d="M330,123.4L330,123.4c0-1.9,1.3-3.4,3.2-3.4c2.1,0,3.1,1.7,3.1,3.5c0,0.1,0,0.3,0,0.5h-4.5
			c0.2,0.8,0.8,1.3,1.6,1.3c0.6,0,1.1-0.2,1.6-0.7l1,0.9c-0.6,0.7-1.5,1.2-2.6,1.2C331.4,126.7,330,125.4,330,123.4z M334.5,122.9
			c-0.1-0.8-0.6-1.4-1.4-1.4c-0.8,0-1.2,0.5-1.4,1.4H334.5z"/>
		<path fill="#404447" d="M337.7,120.2h1.8v1.3c0.4-0.9,1-1.5,2.1-1.4v1.9h-0.1c-1.2,0-2,0.7-2,2.3v2.4h-1.8V120.2z"/>
		<path fill="#404447" d="M342.6,128.1l0.6-1.3c0.2,0.1,0.5,0.3,0.8,0.3c0.3,0,0.5-0.1,0.6-0.4l-2.5-6.5h1.9l1.5,4.4l1.4-4.4h1.9
			l-2.5,6.6c-0.5,1.3-1,1.8-2.1,1.8C343.6,128.6,343.1,128.4,342.6,128.1z"/>
		<path fill="#404447" d="M353.7,118.2h3.4c2,0,3.2,1.2,3.2,2.9v0c0,1.9-1.5,3-3.4,3h-1.4v2.5h-1.8V118.2z M357,122.4
			c0.9,0,1.5-0.6,1.5-1.3v0c0-0.8-0.6-1.3-1.5-1.3h-1.4v2.6H357z"/>
		<path fill="#404447" d="M361.6,117.8h1.9v1.6h-1.9V117.8z M361.6,120.2h1.8v6.4h-1.8V120.2z"/>
		<path fill="#404447" d="M365.1,120.2h1.8v0.9c0.4-0.6,1.1-1,2-1c1.5,0,2.9,1.2,2.9,3.3v0c0,2.1-1.4,3.3-2.9,3.3c-1,0-1.6-0.4-2-1
			v2.8h-1.8V120.2z M370.1,123.4L370.1,123.4c0-1.1-0.7-1.8-1.6-1.8s-1.6,0.7-1.6,1.8v0c0,1.1,0.7,1.8,1.6,1.8
			S370.1,124.5,370.1,123.4z"/>
		<path fill="#404447" d="M372.9,123.4L372.9,123.4c0-1.9,1.3-3.4,3.2-3.4c2.1,0,3.1,1.7,3.1,3.5c0,0.1,0,0.3,0,0.5h-4.5
			c0.2,0.8,0.8,1.3,1.6,1.3c0.6,0,1.1-0.2,1.6-0.7l1,0.9c-0.6,0.7-1.5,1.2-2.6,1.2C374.4,126.7,372.9,125.4,372.9,123.4z
			 M377.5,122.9c-0.1-0.8-0.6-1.4-1.4-1.4c-0.8,0-1.2,0.5-1.4,1.4H377.5z"/>
		<path fill="#404447" d="M380.7,117.8h1.8v8.8h-1.8V117.8z"/>
		<path fill="#404447" d="M384.3,117.8h1.9v1.6h-1.9V117.8z M384.3,120.2h1.8v6.4h-1.8V120.2z"/>
		<path fill="#404447" d="M387.8,120.2h1.8v0.9c0.4-0.5,1-1,1.9-1c1.4,0,2.2,0.9,2.2,2.4v4.2h-1.8V123c0-0.9-0.4-1.3-1.1-1.3
			c-0.7,0-1.1,0.4-1.1,1.3v3.6h-1.8V120.2z"/>
		<path fill="#404447" d="M395,123.4L395,123.4c0-1.9,1.3-3.4,3.2-3.4c2.1,0,3.1,1.7,3.1,3.5c0,0.1,0,0.3,0,0.5h-4.5
			c0.2,0.8,0.8,1.3,1.6,1.3c0.6,0,1.1-0.2,1.6-0.7l1,0.9c-0.6,0.7-1.5,1.2-2.6,1.2C396.4,126.7,395,125.4,395,123.4z M399.5,122.9
			c-0.1-0.8-0.6-1.4-1.4-1.4c-0.8,0-1.2,0.5-1.4,1.4H399.5z"/>
	</g>
</g>
<line fill="none" stroke="#FFFFFF" stroke-width="4" stroke-miterlimit="10" stroke-opacity="0.5" x1="478.6" y1="122.5" x2="410.6" y2="122.5"/>
<line fill="none" stroke="#FFFFFF" stroke-width="4" stroke-miterlimit="10" stroke-opacity="0.5" x1="36" y1="110.2" x2="19.2" y2="110.2"/>
<g>
	<g>
		<path fill="#404447" d="M44.1,113l1.1-1.3c0.8,0.6,1.5,1,2.5,1c0.8,0,1.2-0.3,1.2-0.8v0c0-0.5-0.3-0.7-1.7-1.1
			c-1.7-0.4-2.8-0.9-2.8-2.6v0c0-1.5,1.2-2.5,2.9-2.5c1.2,0,2.3,0.4,3.1,1.1l-1,1.4c-0.7-0.5-1.5-0.8-2.2-0.8
			c-0.7,0-1.1,0.3-1.1,0.7v0c0,0.6,0.4,0.7,1.8,1.1c1.7,0.4,2.7,1.1,2.7,2.5v0c0,1.7-1.3,2.6-3.1,2.6
			C46.4,114.4,45.1,113.9,44.1,113z"/>
		<path fill="#404447" d="M51.9,111.1L51.9,111.1c0-1.9,1.5-3.4,3.5-3.4c2,0,3.5,1.5,3.5,3.3v0c0,1.8-1.5,3.3-3.5,3.3
			C53.3,114.4,51.9,112.9,51.9,111.1z M57,111.1L57,111.1c0-1-0.7-1.8-1.7-1.8c-1,0-1.7,0.8-1.7,1.8v0c0,0.9,0.7,1.8,1.7,1.8
			C56.4,112.8,57,112,57,111.1z"/>
		<path fill="#404447" d="M60.1,112v-4.2h1.8v3.6c0,0.9,0.4,1.3,1.1,1.3c0.7,0,1.1-0.4,1.1-1.3v-3.6H66v6.4h-1.8v-0.9
			c-0.4,0.5-1,1-1.9,1C60.9,114.4,60.1,113.5,60.1,112z"/>
		<path fill="#404447" d="M67.6,107.8h1.8v1.3c0.4-0.9,1-1.5,2.1-1.4v1.9h-0.1c-1.2,0-2,0.7-2,2.3v2.4h-1.8V107.8z"/>
		<path fill="#404447" d="M72.1,111.1L72.1,111.1c0-1.9,1.4-3.4,3.4-3.4c1.2,0,2,0.4,2.6,1.1L77,110c-0.4-0.4-0.8-0.7-1.5-0.7
			c-0.9,0-1.6,0.8-1.6,1.8v0c0,1,0.6,1.8,1.6,1.8c0.6,0,1-0.3,1.5-0.7l1.1,1.1c-0.6,0.7-1.3,1.2-2.6,1.2
			C73.6,114.4,72.1,112.9,72.1,111.1z"/>
		<path fill="#404447" d="M78.8,111.1L78.8,111.1c0-1.9,1.3-3.4,3.2-3.4c2.1,0,3.1,1.7,3.1,3.5c0,0.1,0,0.3,0,0.5h-4.5
			c0.2,0.8,0.8,1.3,1.6,1.3c0.6,0,1.1-0.2,1.6-0.7l1,0.9c-0.6,0.7-1.5,1.2-2.6,1.2C80.2,114.4,78.8,113.1,78.8,111.1z M83.4,110.5
			c-0.1-0.8-0.6-1.4-1.4-1.4c-0.8,0-1.2,0.5-1.4,1.4H83.4z"/>
		<path fill="#404447" d="M89.9,110.1L89.9,110.1c0-2.4,1.8-4.4,4.4-4.4c1.6,0,2.5,0.5,3.3,1.3l-1.2,1.4c-0.6-0.6-1.3-0.9-2.1-0.9
			c-1.4,0-2.4,1.2-2.4,2.6v0c0,1.4,1,2.6,2.4,2.6c1,0,1.5-0.4,2.2-1l1.2,1.2c-0.9,0.9-1.8,1.5-3.4,1.5
			C91.7,114.4,89.9,112.5,89.9,110.1z"/>
		<path fill="#404447" d="M98.5,111.1L98.5,111.1c0-1.9,1.5-3.4,3.5-3.4c2,0,3.5,1.5,3.5,3.3v0c0,1.8-1.5,3.3-3.5,3.3
			C100,114.4,98.5,112.9,98.5,111.1z M103.7,111.1L103.7,111.1c0-1-0.7-1.8-1.7-1.8c-1,0-1.7,0.8-1.7,1.8v0c0,0.9,0.7,1.8,1.7,1.8
			C103,112.8,103.7,112,103.7,111.1z"/>
		<path fill="#404447" d="M106.8,107.8h1.8v0.9c0.4-0.5,1-1,1.9-1c1.4,0,2.2,0.9,2.2,2.4v4.2h-1.8v-3.6c0-0.9-0.4-1.3-1.1-1.3
			c-0.7,0-1.1,0.4-1.1,1.3v3.6h-1.8V107.8z"/>
		<path fill="#404447" d="M114.6,112.4v-3h-0.8v-1.6h0.8v-1.6h1.8v1.6h1.5v1.6h-1.5v2.7c0,0.4,0.2,0.6,0.6,0.6
			c0.3,0,0.6-0.1,0.9-0.2v1.5c-0.4,0.2-0.8,0.4-1.4,0.4C115.3,114.4,114.6,113.9,114.6,112.4z"/>
		<path fill="#404447" d="M119.2,107.8h1.8v1.3c0.4-0.9,1-1.5,2.1-1.4v1.9H123c-1.2,0-2,0.7-2,2.3v2.4h-1.8V107.8z"/>
		<path fill="#404447" d="M123.8,111.1L123.8,111.1c0-1.9,1.5-3.4,3.5-3.4c2,0,3.5,1.5,3.5,3.3v0c0,1.8-1.5,3.3-3.5,3.3
			C125.2,114.4,123.8,112.9,123.8,111.1z M128.9,111.1L128.9,111.1c0-1-0.7-1.8-1.7-1.8c-1,0-1.7,0.8-1.7,1.8v0
			c0,0.9,0.7,1.8,1.7,1.8C128.3,112.8,128.9,112,128.9,111.1z"/>
		<path fill="#404447" d="M132.1,105.5h1.8v8.8h-1.8V105.5z"/>
	</g>
</g>
<line fill="none" stroke="#FFFFFF" stroke-width="4" stroke-miterlimit="10" stroke-opacity="0.5" x1="156.7" y1="110.2" x2="142.6" y2="110.2"/>
<line opacity="0.8" fill="#445464" stroke="#FCB716" stroke-width="4" stroke-miterlimit="10" x1="222" y1="88" x2="187.8" y2="88"/>
<line opacity="0.8" fill="#445464" stroke="#FCB716" stroke-width="4" stroke-miterlimit="10" x1="222" y1="63" x2="187.8" y2="63"/>
<line opacity="0.8" fill="#6CB2E2" stroke="#FCB716" stroke-width="4" stroke-miterlimit="10" x1="222" y1="38" x2="187.8" y2="38"/>
<line opacity="0.8" fill="#445464" stroke="#FCB716" stroke-width="4" stroke-miterlimit="10" x1="185.8" y1="36" x2="185.8" y2="90"/>
<line opacity="0.8" fill="#445464" stroke="#FCB716" stroke-width="4" stroke-miterlimit="10" x1="183.8" y1="63" x2="23.7" y2="63"/>
<g>
	<g>
		<rect x="23.1" y="34.2" fill="#59B8B3" width="57.6" height="57.6"/>
		<g>
			<path fill="#FFFFFF" d="M37.4,83h2c0.5,0,0.9,0.1,1.1,0.4c0.2,0.2,0.3,0.4,0.3,0.7v0c0,0.5-0.3,0.8-0.6,0.9
				c0.5,0.2,0.8,0.5,0.8,1.1v0c0,0.8-0.6,1.2-1.6,1.2h-2V83z M39.2,84.7c0.4,0,0.7-0.1,0.7-0.5v0c0-0.3-0.2-0.4-0.6-0.4h-0.9v0.9
				H39.2z M39.5,86.5c0.4,0,0.7-0.1,0.7-0.5v0c0-0.3-0.2-0.5-0.7-0.5h-1.1v0.9H39.5z"/>
			<path fill="#FFFFFF" d="M41.8,82.8h1v0.8h-1V82.8z M41.8,84h0.9v3.3h-0.9V84z"/>
			<path fill="#FFFFFF" d="M43.8,86.4v-1.6h-0.4V84h0.4v-0.8h0.9V84h0.8v0.8h-0.8v1.4c0,0.2,0.1,0.3,0.3,0.3c0.2,0,0.3,0,0.5-0.1
				v0.7c-0.2,0.1-0.4,0.2-0.7,0.2C44.1,87.3,43.8,87.1,43.8,86.4z"/>
			<path fill="#FFFFFF" d="M47.1,86.9v0.4h-0.9v-4.5h0.9v1.7c0.2-0.3,0.5-0.5,1-0.5c0.8,0,1.5,0.6,1.5,1.7v0c0,1.1-0.7,1.7-1.5,1.7
				C47.6,87.3,47.3,87.1,47.1,86.9z M48.7,85.7L48.7,85.7c0-0.6-0.4-0.9-0.8-0.9c-0.4,0-0.8,0.4-0.8,0.9v0c0,0.5,0.4,0.9,0.8,0.9
				C48.3,86.6,48.7,86.2,48.7,85.7z"/>
			<path fill="#FFFFFF" d="M50.3,86.1V84h0.9v1.8c0,0.4,0.2,0.7,0.6,0.7c0.4,0,0.6-0.2,0.6-0.7V84h0.9v3.3h-0.9v-0.5
				c-0.2,0.3-0.5,0.5-1,0.5C50.7,87.3,50.3,86.9,50.3,86.1z"/>
			<path fill="#FFFFFF" d="M53.9,85.7L53.9,85.7c0-0.9,0.7-1.7,1.7-1.7c0.6,0,1,0.2,1.3,0.6l-0.6,0.6c-0.2-0.2-0.4-0.4-0.7-0.4
				c-0.5,0-0.8,0.4-0.8,0.9v0c0,0.5,0.3,0.9,0.8,0.9c0.3,0,0.5-0.1,0.8-0.3l0.5,0.6c-0.3,0.3-0.7,0.6-1.3,0.6
				C54.7,87.4,53.9,86.6,53.9,85.7z"/>
			<path fill="#FFFFFF" d="M57.6,82.8h0.9v2.4l1.1-1.2h1.1l-1.2,1.3l1.3,2h-1.1l-0.9-1.3l-0.3,0.3v1h-0.9V82.8z"/>
			<path fill="#FFFFFF" d="M60.9,85.7L60.9,85.7c0-0.9,0.7-1.7,1.6-1.7c1.1,0,1.6,0.9,1.6,1.8c0,0.1,0,0.2,0,0.2h-2.3
				c0.1,0.4,0.4,0.6,0.8,0.6c0.3,0,0.5-0.1,0.8-0.3l0.5,0.5c-0.3,0.4-0.7,0.6-1.3,0.6C61.6,87.4,60.9,86.7,60.9,85.7z M63.2,85.4
				c-0.1-0.4-0.3-0.7-0.7-0.7c-0.4,0-0.6,0.3-0.7,0.7H63.2z"/>
			<path fill="#FFFFFF" d="M65,86.4v-1.6h-0.4V84H65v-0.8h0.9V84h0.8v0.8h-0.8v1.4c0,0.2,0.1,0.3,0.3,0.3c0.2,0,0.3,0,0.5-0.1v0.7
				c-0.2,0.1-0.4,0.2-0.7,0.2C65.4,87.3,65,87.1,65,86.4z"/>
		</g>
	</g>
	<g>
		<path fill="#FFFFFF" d="M51.9,44.4L51.9,44.4L51.9,44.4c-7.4,0-13.5,2-13.5,4.5c0,0.7,1.6,10,2.3,13.8c0.3,1.7,4.6,4.1,11.3,4.1v0
			v0c6.7,0,11-2.5,11.3-4.1c0.6-3.7,2.3-13.1,2.3-13.8C65.4,46.4,59.4,44.4,51.9,44.4z M51.9,63.8c-2.4,0-4.3-1.9-4.3-4.3
			c0-2.4,1.9-4.3,4.3-4.3c2.4,0,4.3,1.9,4.3,4.3C56.2,61.9,54.3,63.8,51.9,63.8z M51.9,50.3c-4.8,0-8.7-0.8-8.7-1.9
			c0-1,3.9-1.8,8.7-1.8s8.7,0.8,8.7,1.9C60.6,49.5,56.7,50.3,51.9,50.3z"/>
		<path fill="#FFFFFF" d="M61.6,66.4c-0.2,0-0.4,0.2-0.4,0.2s-3.3,2.6-9.3,2.6s-9.3-2.6-9.3-2.6s-0.2-0.2-0.4-0.2
			c-0.2,0-0.5,0.2-0.5,0.5c0,0,0,0.1,0,0.1c0.5,2.8,0.9,4.7,1,5c0.4,2,4.4,3.6,9.2,3.6l0,0l0,0l0,0l0,0c4.8,0,8.8-1.5,9.2-3.6
			c0.1-0.3,0.4-2.3,1-5c0,0,0-0.1,0-0.1C62.1,66.6,61.9,66.4,61.6,66.4z"/>
		<circle fill="#FFFFFF" cx="51.9" cy="59.5" r="2.1"/>
	</g>
</g>
<g>
	<g>
		<rect x="96.2" y="34.3" fill="#445464" width="57.5" height="57.5"/>
		<g>
			<path fill="#FFFFFF" d="M114.4,85.1L114.4,85.1c0-1.2,0.9-2.2,2.2-2.2c0.8,0,1.2,0.2,1.7,0.6l-0.6,0.7c-0.3-0.3-0.6-0.4-1.1-0.4
				c-0.7,0-1.2,0.6-1.2,1.3v0c0,0.8,0.5,1.4,1.3,1.4c0.3,0,0.6-0.1,0.9-0.3v-0.6h-0.9v-0.8h1.9v1.9c-0.4,0.4-1,0.7-1.8,0.7
				C115.3,87.3,114.4,86.4,114.4,85.1z"/>
			<path fill="#FFFFFF" d="M119.3,82.8h1v0.8h-1V82.8z M119.3,84h0.9v3.3h-0.9V84z"/>
			<path fill="#FFFFFF" d="M121.3,86.3v-1.6h-0.4V84h0.4v-0.8h0.9V84h0.8v0.8h-0.8v1.4c0,0.2,0.1,0.3,0.3,0.3c0.2,0,0.3,0,0.5-0.1
				v0.7c-0.2,0.1-0.4,0.2-0.7,0.2C121.6,87.3,121.3,87.1,121.3,86.3z"/>
			<path fill="#FFFFFF" d="M123.7,83h0.9v1.7h1.7V83h0.9v4.3h-0.9v-1.7h-1.7v1.7h-0.9V83z"/>
			<path fill="#FFFFFF" d="M128.3,86.1V84h0.9v1.8c0,0.4,0.2,0.7,0.6,0.7c0.4,0,0.6-0.2,0.6-0.7V84h0.9v3.3h-0.9v-0.5
				c-0.2,0.3-0.5,0.5-1,0.5C128.7,87.3,128.3,86.9,128.3,86.1z"/>
			<path fill="#FFFFFF" d="M133,86.8v0.4h-0.9v-4.5h0.9v1.7c0.2-0.3,0.5-0.5,1-0.5c0.8,0,1.5,0.6,1.5,1.7v0c0,1.1-0.7,1.7-1.5,1.7
				C133.6,87.3,133.3,87.1,133,86.8z M134.6,85.6L134.6,85.6c0-0.6-0.4-0.9-0.8-0.9c-0.4,0-0.8,0.4-0.8,0.9v0c0,0.5,0.4,0.9,0.8,0.9
				C134.3,86.5,134.6,86.2,134.6,85.6z"/>
		</g>
	</g>
	<g>
		<path fill="#FFFFFF" d="M124.9,45.1c-8.4,0-15.3,6.9-15.3,15.3c0,6.8,4.4,12.5,10.5,14.5c0.8,0.1,1-0.3,1-0.7c0-0.4,0-1.3,0-2.6
			c-4.3,0.9-5.2-2.1-5.2-2.1c-0.7-1.8-1.7-2.2-1.7-2.2c-1.4-0.9,0.1-0.9,0.1-0.9c1.5,0.1,2.3,1.6,2.3,1.6c1.4,2.3,3.6,1.7,4.5,1.3
			c0.1-1,0.5-1.7,1-2c-3.4-0.4-7-1.7-7-7.6c0-1.7,0.6-3,1.6-4.1c-0.2-0.4-0.7-1.9,0.2-4c0,0,1.3-0.4,4.2,1.6
			c1.2-0.3,2.5-0.5,3.8-0.5c1.3,0,2.6,0.2,3.8,0.5c2.9-2,4.2-1.6,4.2-1.6c0.8,2.1,0.3,3.7,0.2,4c1,1.1,1.6,2.4,1.6,4.1
			c0,5.9-3.6,7.2-7,7.5c0.5,0.5,1,1.4,1,2.8c0,2,0,3.7,0,4.2c0,0.4,0.3,0.9,1.1,0.7c6.1-2,10.5-7.8,10.5-14.5
			C140.2,51.9,133.4,45.1,124.9,45.1z"/>
	</g>
</g>
</svg>
