<?xml version="1.0" encoding="utf-8"?>
<!-- Generator: Adobe Illustrator 18.1.1, SVG Export Plug-In . SVG Version: 6.00 Build 0)  -->
<svg version="1.1" id="Layer_1" xmlns="http://www.w3.org/2000/svg" xmlns:xlink="http://www.w3.org/1999/xlink" x="0px" y="0px"
	 viewBox="0 0 1172.7 602.6" enable-background="new 0 0 1172.7 602.6" xml:space="preserve">
<rect x="192.4" y="64.1" fill="#7D6C5D" width="916.2" height="538.5"/>
<g>
	<rect x="853.8" y="128.1" fill="#D1D3D4" width="190" height="369.2"/>
	<g>
		<g>
			<rect x="864.2" y="137.8" fill="#414548" width="169.2" height="169.2"/>
			<g>
				<path fill="#FFFFFF" d="M899.3,284.1h2.8l1.5,5.9l1.8-5.9h2.4l1.8,5.9l1.6-5.9h2.7l-3,9.7h-2.5l-1.9-5.9l-1.9,5.9h-2.4
					L899.3,284.1z"/>
				<path fill="#FFFFFF" d="M914.6,289L914.6,289c0-2.8,2-5.1,4.8-5.1c3.2,0,4.7,2.5,4.7,5.2c0,0.2,0,0.5,0,0.7h-6.7
					c0.3,1.2,1.1,1.9,2.4,1.9c0.9,0,1.6-0.3,2.3-1l1.6,1.4c-0.9,1.1-2.2,1.8-3.9,1.8C916.8,293.9,914.6,291.9,914.6,289z
					 M921.5,288.1c-0.2-1.2-0.9-2.1-2-2.1c-1.1,0-1.9,0.8-2.1,2.1H921.5z"/>
				<path fill="#FFFFFF" d="M928.9,292.5v1.3h-2.7v-13.1h2.7v4.9c0.7-0.9,1.6-1.6,3-1.6c2.3,0,4.4,1.8,4.4,5v0c0,3.2-2.1,5-4.4,5
					C930.4,293.9,929.5,293.2,928.9,292.5z M933.5,288.9L933.5,288.9c0-1.6-1.1-2.7-2.4-2.7c-1.3,0-2.3,1.1-2.3,2.7v0
					c0,1.6,1.1,2.7,2.3,2.7C932.5,291.6,933.5,290.5,933.5,288.9z"/>
				<path fill="#FFFFFF" d="M942.9,292.5l1.2-1.8c1,0.8,2.1,1.2,3,1.2c0.8,0,1.2-0.3,1.2-0.7v0c0-0.6-0.9-0.8-2-1.1
					c-1.4-0.4-2.9-1-2.9-2.9v0c0-2,1.6-3.1,3.5-3.1c1.2,0,2.6,0.4,3.6,1.1l-1,1.9c-1-0.6-1.9-0.9-2.6-0.9c-0.7,0-1,0.3-1,0.7v0
					c0,0.5,0.9,0.8,2,1.2c1.4,0.5,2.9,1.1,2.9,2.9v0c0,2.1-1.6,3.1-3.7,3.1C945.7,293.9,944.2,293.5,942.9,292.5z"/>
				<path fill="#FFFFFF" d="M952.3,289L952.3,289c0-2.8,2-5.1,4.8-5.1c3.2,0,4.7,2.5,4.7,5.2c0,0.2,0,0.5,0,0.7H955
					c0.3,1.2,1.1,1.9,2.4,1.9c0.9,0,1.6-0.3,2.3-1l1.6,1.4c-0.9,1.1-2.2,1.8-3.9,1.8C954.4,293.9,952.3,291.9,952.3,289z
					 M959.1,288.1c-0.2-1.2-0.9-2.1-2-2.1c-1.1,0-1.9,0.8-2.1,2.1H959.1z"/>
				<path fill="#FFFFFF" d="M963.8,284.1h2.7v1.9c0.6-1.3,1.5-2.2,3.1-2.1v2.9h-0.1c-1.8,0-2.9,1.1-2.9,3.4v3.6h-2.7V284.1z"/>
				<path fill="#FFFFFF" d="M970.4,284.1h2.9l2.2,6.5l2.2-6.5h2.8l-3.8,9.7h-2.5L970.4,284.1z"/>
				<path fill="#FFFFFF" d="M981.1,289L981.1,289c0-2.8,2-5.1,4.8-5.1c3.2,0,4.7,2.5,4.7,5.2c0,0.2,0,0.5,0,0.7h-6.7
					c0.3,1.2,1.1,1.9,2.4,1.9c0.9,0,1.6-0.3,2.3-1l1.6,1.4c-0.9,1.1-2.2,1.8-3.9,1.8C983.2,293.9,981.1,291.9,981.1,289z
					 M987.9,288.1c-0.2-1.2-0.9-2.1-2-2.1c-1.1,0-1.9,0.8-2.1,2.1H987.9z"/>
				<path fill="#FFFFFF" d="M992.6,284.1h2.7v1.9c0.6-1.3,1.5-2.2,3.1-2.1v2.9h-0.1c-1.8,0-2.9,1.1-2.9,3.4v3.6h-2.7V284.1z"/>
			</g>
		</g>
		<g>
			<g>
				<g>
					<path fill="#FFFFFF" d="M992.4,260.6h-86.3c-2.2,0-4-1.8-4-4v-84.7c0-2.2,1.8-4,4-4h86.3c2.2,0,4,1.8,4,4v84.7
						C996.4,258.8,994.6,260.6,992.4,260.6L992.4,260.6z M910.1,252.6h78.3v-76.8h-78.3V252.6L910.1,252.6z"/>
				</g>
				<g>
					<path fill="#FFFFFF" d="M979.5,232.8H919c-1.1,0-2-0.9-2-2v-46.2c0-1.1,0.9-2,2-2h60.5c1.1,0,2,0.9,2,2v46.2
						C981.5,232,980.6,232.8,979.5,232.8L979.5,232.8z M921,228.9h56.6v-42.2H921V228.9L921,228.9z"/>
				</g>
			</g>
			<g>
				<g>
					<path fill="#FFFFFF" d="M929.2,244.7c0-0.9,0.7-1.7,1.7-1.7h8.3c0.9,0,1.7,0.7,1.7,1.7c0,0.9-0.7,1.7-1.7,1.7h-8.3
						C929.9,246.4,929.2,245.6,929.2,244.7L929.2,244.7z"/>
				</g>
				<g>
					<path fill="#FFFFFF" d="M943.4,244.7c0-0.9,0.7-1.7,1.7-1.7h8.3c0.9,0,1.7,0.7,1.7,1.7c0,0.9-0.7,1.7-1.7,1.7h-8.3
						C944.2,246.4,943.4,245.6,943.4,244.7L943.4,244.7z"/>
				</g>
				<g>
					<path fill="#FFFFFF" d="M957.7,244.7c0-0.9,0.7-1.7,1.7-1.7h8.3c0.9,0,1.7,0.7,1.7,1.7c0,0.9-0.7,1.7-1.7,1.7h-8.3
						C958.5,246.4,957.7,245.6,957.7,244.7L957.7,244.7z"/>
				</g>
			</g>
		</g>
	</g>
	<g>
		<g>
			<rect x="864.2" y="317.8" fill="#414548" width="169.2" height="169.2"/>
			<g>
				<path fill="#FFFFFF" d="M914.9,472.5l1.2-1.8c1,0.8,2.1,1.2,3,1.2c0.8,0,1.2-0.3,1.2-0.7v0c0-0.6-0.9-0.8-2-1.1
					c-1.4-0.4-2.9-1-2.9-2.9v0c0-2,1.6-3.1,3.5-3.1c1.2,0,2.6,0.4,3.6,1.1l-1,1.9c-1-0.6-1.9-0.9-2.6-0.9c-0.7,0-1,0.3-1,0.7v0
					c0,0.5,0.9,0.8,2,1.2c1.4,0.5,2.9,1.1,2.9,2.9v0c0,2.1-1.6,3.1-3.7,3.1C917.7,473.9,916.1,473.5,914.9,472.5z"/>
				<path fill="#FFFFFF" d="M924.9,471v-4.6h-1.2v-2.3h1.2v-2.5h2.7v2.5h2.3v2.3h-2.3v4.1c0,0.6,0.3,0.9,0.9,0.9
					c0.5,0,1-0.1,1.4-0.3v2.2c-0.6,0.3-1.2,0.6-2.2,0.6C926.1,473.9,924.9,473.2,924.9,471z"/>
				<path fill="#FFFFFF" d="M931.2,469L931.2,469c0-2.8,2.2-5.1,5.2-5.1c3,0,5.2,2.2,5.2,5v0c0,2.8-2.2,5-5.2,5
					C933.4,473.9,931.2,471.7,931.2,469z M939,469L939,469c0-1.5-1-2.7-2.5-2.7c-1.6,0-2.5,1.2-2.5,2.6v0c0,1.4,1,2.7,2.5,2.7
					C938,471.6,939,470.4,939,469z"/>
				<path fill="#FFFFFF" d="M943.6,464.1h2.7v1.9c0.6-1.3,1.5-2.2,3.1-2.1v2.9h-0.1c-1.8,0-2.9,1.1-2.9,3.4v3.6h-2.7V464.1z"/>
				<path fill="#FFFFFF" d="M950.1,471L950.1,471c0-2.1,1.6-3.1,3.9-3.1c1,0,1.7,0.2,2.4,0.4v-0.2c0-1.1-0.7-1.8-2.1-1.8
					c-1,0-1.8,0.2-2.7,0.5l-0.7-2.1c1.1-0.5,2.1-0.8,3.7-0.8c1.5,0,2.6,0.4,3.3,1.1c0.7,0.7,1,1.8,1,3.1v5.6h-2.6v-1
					c-0.7,0.7-1.6,1.2-2.9,1.2C951.6,473.9,950.1,472.9,950.1,471z M956.4,470.3v-0.5c-0.5-0.2-1.1-0.4-1.7-0.4
					c-1.2,0-1.9,0.5-1.9,1.3v0c0,0.7,0.6,1.2,1.5,1.2C955.6,472,956.4,471.3,956.4,470.3z"/>
				<path fill="#FFFFFF" d="M961.4,475.6l0.9-2.1c1,0.6,2,0.9,3.3,0.9c1.9,0,2.8-0.9,2.8-2.6v-0.5c-0.8,1-1.7,1.6-3.2,1.6
					c-2.2,0-4.3-1.6-4.3-4.5v0c0-2.9,2.1-4.5,4.3-4.5c1.5,0,2.4,0.6,3.1,1.4v-1.3h2.7v7.5c0,1.7-0.4,3-1.2,3.8
					c-0.9,0.9-2.3,1.3-4.2,1.3C964.1,476.6,962.6,476.3,961.4,475.6z M968.4,468.4L968.4,468.4c0-1.4-1-2.3-2.4-2.3
					c-1.3,0-2.3,0.9-2.3,2.2v0c0,1.3,1,2.2,2.3,2.2C967.3,470.7,968.4,469.8,968.4,468.4z"/>
				<path fill="#FFFFFF" d="M973,469L973,469c0-2.8,2-5.1,4.8-5.1c3.2,0,4.7,2.5,4.7,5.2c0,0.2,0,0.5,0,0.7h-6.7
					c0.3,1.2,1.1,1.9,2.4,1.9c0.9,0,1.6-0.3,2.3-1l1.6,1.4c-0.9,1.1-2.2,1.8-3.9,1.8C975.2,473.9,973,471.9,973,469z M979.9,468.1
					c-0.2-1.2-0.9-2.1-2-2.1c-1.1,0-1.9,0.8-2.1,2.1H979.9z"/>
			</g>
		</g>
		<g>
			<path fill="#FFFFFF" d="M949,417.5c11.6,0,21.5-3.1,24.9-7.4v-6.8c-0.1-0.2-0.3-0.3-0.4-0.5c-3.4,4.4-13.3,7.5-25,7.5
				c-11.2,0-20.7-2.9-24.5-6.9c0,0-0.1,0.1-0.1,0.1v6.5C927.2,414.3,937.2,417.5,949,417.5z"/>
			<path fill="#FFFFFF" d="M929.8,399.2c4.8,2.1,11.6,3.4,19.1,3.4s14.3-1.3,19.1-3.4c2.2-1,4-2.1,5.2-3.3c0.2-0.2,0.4-0.5,0.6-0.7
				v-6.8c-0.1-0.2-0.3-0.3-0.4-0.5c-1.2,1.5-3.2,2.9-5.9,4.1c-4.8,2.1-11.6,3.4-19.1,3.4c-7.5,0-14.3-1.3-19.1-3.4
				c-2.3-1-4.2-2.2-5.4-3.5c0,0-0.1,0.1-0.1,0.1v6.5c0.1,0.1,0.2,0.2,0.3,0.3C925.4,396.8,927.3,398.1,929.8,399.2z"/>
			<path fill="#FFFFFF" d="M930,384.3c4.5,2.2,11.3,3.5,18.8,3.5c7.6,0,14.3-1.4,18.9-3.6c2.3-1.1,4-2.4,5-3.9
				c0.6-0.9,0.9-1.8,0.9-2.8c0-5.6-11.1-10.2-24.8-10.2c-13.7,0-24.8,4.6-24.8,10.2c0,0.8,0.2,1.6,0.6,2.3
				C925.6,381.6,927.5,383,930,384.3z"/>
			<path fill="#FFFFFF" d="M991.8,346.4h-85.3c-2.2,0-3.9,1.7-3.9,3.9v85.3c0,2.2,1.8,3.9,3.9,3.9h85.3c2.2,0,3.9-1.8,3.9-3.9v-85.3
				C995.7,348.2,994,346.4,991.8,346.4z M987.9,431.8h-77.5v-77.5h77.5V431.8z"/>
		</g>
	</g>
</g>
<g>
	<path fill="#FFFFFF" d="M1035.1,94h2.7v2.2c0.6-1.5,1.5-2.5,3.1-2.4v3.2h-0.1c-1.8,0-2.9,1.2-2.9,3.9v4h-2.7V94z"/>
	<path fill="#FFFFFF" d="M1041.8,99.6L1041.8,99.6c0-3.2,2.2-5.7,5.2-5.7c3,0,5.2,2.5,5.2,5.7v0c0,3.1-2.2,5.7-5.2,5.7
		C1044.1,105.2,1041.8,102.7,1041.8,99.6z M1049.6,99.6L1049.6,99.6c0-1.7-1-3.1-2.5-3.1c-1.6,0-2.5,1.4-2.5,3v0c0,1.6,1,3,2.5,3
		C1048.7,102.5,1049.6,101.2,1049.6,99.6z"/>
	<path fill="#FFFFFF" d="M1054.4,90.1h2.7V105h-2.7V90.1z"/>
	<path fill="#FFFFFF" d="M1059.2,99.6L1059.2,99.6c0-3.2,2-5.7,4.8-5.7c3.2,0,4.7,2.8,4.7,5.9c0,0.2,0,0.5,0,0.8h-6.7
		c0.3,1.4,1.1,2.1,2.4,2.1c0.9,0,1.6-0.3,2.3-1.1l1.6,1.6c-0.9,1.3-2.2,2-3.9,2C1061.4,105.2,1059.2,102.9,1059.2,99.6z M1066,98.6
		c-0.2-1.4-0.9-2.3-2-2.3c-1.1,0-1.9,0.9-2.1,2.3H1066z"/>
	<path fill="#FFFFFF" d="M1070,103.5l1.2-2c1,0.9,2.1,1.3,3,1.3c0.8,0,1.2-0.3,1.2-0.8v0c0-0.7-0.9-0.9-2-1.3
		c-1.4-0.4-2.9-1.2-2.9-3.3v0c0-2.2,1.6-3.5,3.5-3.5c1.2,0,2.6,0.5,3.6,1.3l-1,2.1c-1-0.6-1.9-1-2.6-1c-0.7,0-1,0.3-1,0.8v0
		c0,0.6,0.9,0.9,2,1.3c1.4,0.5,2.9,1.2,2.9,3.2v0c0,2.4-1.6,3.5-3.7,3.5C1072.8,105.2,1071.3,104.7,1070,103.5z"/>
</g>
</svg>
