<?xml version="1.0" encoding="utf-8"?>
<!-- Generator: Adobe Illustrator 18.1.1, SVG Export Plug-In . SVG Version: 6.00 Build 0)  -->
<svg version="1.1" id="Layer_1" xmlns="http://www.w3.org/2000/svg" xmlns:xlink="http://www.w3.org/1999/xlink" x="0px" y="0px"
	 viewBox="0 0 1172.7 602.6" enable-background="new 0 0 1172.7 602.6" xml:space="preserve">
<rect x="128.2" y="128.2" fill="#465464" width="916.2" height="474.4"/>
<g>
	<path fill="#FFFFFF" d="M915,163.2L915,163.2c0-2.8,2.1-5.1,5.1-5.1c1.8,0,3,0.6,3.9,1.6l-1.7,1.8c-0.6-0.6-1.2-1.1-2.2-1.1
		c-1.4,0-2.3,1.2-2.3,2.6v0c0,1.5,1,2.7,2.4,2.7c0.9,0,1.5-0.4,2.2-1l1.6,1.6c-0.9,1-2,1.8-3.9,1.8C917.1,168.2,915,166,915,163.2z"
		/>
	<path fill="#FFFFFF" d="M925,163.2L925,163.2c0-2.8,2.2-5.1,5.2-5.1c3,0,5.2,2.2,5.2,5v0c0,2.8-2.2,5-5.2,5
		C927.2,168.2,925,166,925,163.2z M932.7,163.2L932.7,163.2c0-1.5-1-2.7-2.5-2.7c-1.6,0-2.5,1.2-2.5,2.6v0c0,1.4,1,2.7,2.5,2.7
		C931.8,165.8,932.7,164.6,932.7,163.2z"/>
	<path fill="#FFFFFF" d="M936.9,163.2L936.9,163.2c0-2.8,2.2-5.1,5.2-5.1c3,0,5.2,2.2,5.2,5v0c0,2.8-2.2,5-5.2,5
		C939.2,168.2,936.9,166,936.9,163.2z M944.7,163.2L944.7,163.2c0-1.5-1-2.7-2.5-2.7c-1.6,0-2.5,1.2-2.5,2.6v0c0,1.4,1,2.7,2.5,2.7
		C943.8,165.8,944.7,164.6,944.7,163.2z"/>
	<path fill="#FFFFFF" d="M949.4,154.8h2.7v7l3.2-3.5h3.3l-3.7,3.8l3.8,5.9h-3.1l-2.5-3.9l-1,1v2.9h-2.7V154.8z"/>
	<path fill="#FFFFFF" d="M962.8,166.7v1.3H960v-13.1h2.7v4.9c0.7-0.9,1.6-1.6,3-1.6c2.3,0,4.4,1.8,4.4,5v0c0,3.2-2.1,5-4.4,5
		C964.3,168.2,963.4,167.5,962.8,166.7z M967.4,163.2L967.4,163.2c0-1.6-1.1-2.7-2.4-2.7s-2.3,1.1-2.3,2.7v0c0,1.6,1.1,2.7,2.3,2.7
		S967.4,164.8,967.4,163.2z"/>
	<path fill="#FFFFFF" d="M971.7,163.2L971.7,163.2c0-2.8,2.2-5.1,5.2-5.1c3,0,5.2,2.2,5.2,5v0c0,2.8-2.2,5-5.2,5
		C973.9,168.2,971.7,166,971.7,163.2z M979.4,163.2L979.4,163.2c0-1.5-1-2.7-2.5-2.7c-1.6,0-2.5,1.2-2.5,2.6v0c0,1.4,1,2.7,2.5,2.7
		C978.5,165.8,979.4,164.6,979.4,163.2z"/>
	<path fill="#FFFFFF" d="M983.7,163.2L983.7,163.2c0-2.8,2.2-5.1,5.2-5.1c3,0,5.2,2.2,5.2,5v0c0,2.8-2.2,5-5.2,5
		C985.9,168.2,983.7,166,983.7,163.2z M991.4,163.2L991.4,163.2c0-1.5-1-2.7-2.5-2.7c-1.6,0-2.5,1.2-2.5,2.6v0c0,1.4,1,2.7,2.5,2.7
		C990.5,165.8,991.4,164.6,991.4,163.2z"/>
	<path fill="#FFFFFF" d="M996.1,154.8h2.7v7l3.2-3.5h3.3l-3.7,3.8l3.8,5.9h-3.1l-2.5-3.9l-1,1v2.9h-2.7V154.8z"/>
	<path fill="#FFFFFF" d="M1006,166.7l1.2-1.8c1,0.8,2.1,1.2,3,1.2c0.8,0,1.2-0.3,1.2-0.7v0c0-0.6-0.9-0.8-2-1.1
		c-1.4-0.4-2.9-1-2.9-2.9v0c0-2,1.6-3.1,3.5-3.1c1.2,0,2.6,0.4,3.6,1.1l-1,1.9c-1-0.6-1.9-0.9-2.6-0.9c-0.7,0-1,0.3-1,0.7v0
		c0,0.5,0.9,0.8,2,1.2c1.3,0.5,2.9,1.1,2.9,2.9v0c0,2.1-1.6,3.1-3.7,3.1C1008.8,168.2,1007.3,167.7,1006,166.7z"/>
</g>
<rect x="64.1" y="191.9" fill="#8DC9EE" width="916.2" height="410.7"/>
<g>
	<path fill="#FFFFFF" d="M885.5,222.3h2.7v1.9c0.6-1.3,1.5-2.2,3.1-2.1v2.9h-0.1c-1.8,0-2.9,1.1-2.9,3.4v3.6h-2.7V222.3z"/>
	<path fill="#FFFFFF" d="M892.3,227.2L892.3,227.2c0-2.8,2-5.1,4.8-5.1c3.2,0,4.7,2.5,4.7,5.2c0,0.2,0,0.5,0,0.7h-6.7
		c0.3,1.2,1.1,1.9,2.4,1.9c0.9,0,1.6-0.3,2.3-1l1.6,1.4c-0.9,1.1-2.2,1.8-3.9,1.8C894.5,232.2,892.3,230.2,892.3,227.2z
		 M899.1,226.4c-0.2-1.2-0.9-2.1-2-2.1c-1.1,0-1.9,0.8-2.1,2.1H899.1z"/>
	<path fill="#FFFFFF" d="M903.4,227.2L903.4,227.2c0-2.8,2.1-5.1,5.1-5.1c1.8,0,3,0.6,3.9,1.6l-1.7,1.8c-0.6-0.6-1.2-1.1-2.2-1.1
		c-1.4,0-2.3,1.2-2.3,2.6v0c0,1.5,1,2.7,2.4,2.7c0.9,0,1.5-0.4,2.2-1l1.6,1.6c-0.9,1-2,1.8-3.9,1.8
		C905.5,232.2,903.4,230,903.4,227.2z"/>
	<path fill="#FFFFFF" d="M914.2,218.8h2.9v2.4h-2.9V218.8z M914.2,222.3h2.7v9.7h-2.7V222.3z"/>
	<path fill="#FFFFFF" d="M919.5,222.3h2.7v1.4c0.7-0.9,1.6-1.6,3-1.6c2.3,0,4.4,1.8,4.4,5v0c0,3.2-2.1,5-4.4,5c-1.5,0-2.4-0.7-3-1.4
		v4.1h-2.7V222.3z M926.9,227.2L926.9,227.2c0-1.6-1.1-2.7-2.4-2.7c-1.3,0-2.3,1.1-2.3,2.7v0c0,1.6,1.1,2.7,2.3,2.7
		C925.9,229.8,926.9,228.8,926.9,227.2z"/>
	<path fill="#FFFFFF" d="M931.2,227.2L931.2,227.2c0-2.8,2-5.1,4.8-5.1c3.2,0,4.7,2.5,4.7,5.2c0,0.2,0,0.5,0,0.7H934
		c0.3,1.2,1.1,1.9,2.4,1.9c0.9,0,1.6-0.3,2.3-1l1.6,1.4c-0.9,1.1-2.2,1.8-3.9,1.8C933.4,232.2,931.2,230.2,931.2,227.2z M938,226.4
		c-0.2-1.2-0.9-2.1-2-2.1c-1.1,0-1.9,0.8-2.1,2.1H938z"/>
	<path fill="#FFFFFF" d="M942,230.7l1.2-1.8c1,0.8,2.1,1.2,3,1.2c0.8,0,1.2-0.3,1.2-0.7v0c0-0.6-0.9-0.8-2-1.1
		c-1.4-0.4-2.9-1-2.9-2.9v0c0-2,1.6-3.1,3.5-3.1c1.2,0,2.6,0.4,3.6,1.1l-1,1.9c-1-0.6-1.9-0.9-2.6-0.9c-0.7,0-1,0.3-1,0.7v0
		c0,0.5,0.9,0.8,2,1.2c1.3,0.5,2.9,1.1,2.9,2.9v0c0,2.1-1.6,3.1-3.7,3.1C944.8,232.2,943.3,231.7,942,230.7z"/>
</g>
<rect x="0" y="255.5" fill="#6CB2E2" width="916.2" height="346.7"/>
<g>
	<path fill="#FFFFFF" d="M799.9,285.3h2.7v1.9c0.6-1.3,1.5-2.2,3.1-2.1v2.9h-0.1c-1.8,0-2.9,1.1-2.9,3.4v3.6h-2.7V285.3z"/>
	<path fill="#FFFFFF" d="M806.7,290.2L806.7,290.2c0-2.8,2-5.1,4.8-5.1c3.2,0,4.7,2.5,4.7,5.2c0,0.2,0,0.5,0,0.7h-6.7
		c0.3,1.2,1.1,1.9,2.4,1.9c0.9,0,1.6-0.3,2.3-1l1.6,1.4c-0.9,1.1-2.2,1.8-3.9,1.8C808.9,295.2,806.7,293.2,806.7,290.2z
		 M813.5,289.4c-0.2-1.2-0.9-2.1-2-2.1c-1.1,0-1.9,0.8-2.1,2.1H813.5z"/>
	<path fill="#FFFFFF" d="M817.5,293.7l1.2-1.8c1,0.8,2.1,1.2,3,1.2c0.8,0,1.2-0.3,1.2-0.7v0c0-0.6-0.9-0.8-2-1.1
		c-1.4-0.4-2.9-1-2.9-2.9v0c0-2,1.6-3.1,3.5-3.1c1.2,0,2.6,0.4,3.6,1.1l-1,1.9c-1-0.6-1.9-0.9-2.6-0.9c-0.7,0-1,0.3-1,0.7v0
		c0,0.5,0.9,0.8,2,1.2c1.4,0.5,2.9,1.1,2.9,2.9v0c0,2.1-1.6,3.1-3.7,3.1C820.3,295.2,818.8,294.7,817.5,293.7z"/>
	<path fill="#FFFFFF" d="M826.8,290.2L826.8,290.2c0-2.8,2.2-5.1,5.2-5.1c3,0,5.2,2.2,5.2,5v0c0,2.8-2.2,5-5.2,5
		C829,295.2,826.8,293,826.8,290.2z M834.5,290.2L834.5,290.2c0-1.5-1-2.7-2.5-2.7c-1.6,0-2.5,1.2-2.5,2.6v0c0,1.4,1,2.7,2.5,2.7
		C833.6,292.8,834.5,291.6,834.5,290.2z"/>
	<path fill="#FFFFFF" d="M839.1,291.6v-6.2h2.7v5.4c0,1.3,0.6,2,1.7,2c1,0,1.7-0.7,1.7-2v-5.4h2.7v9.7h-2.7v-1.4
		c-0.6,0.8-1.4,1.5-2.8,1.5C840.4,295.2,839.1,293.8,839.1,291.6z"/>
	<path fill="#FFFFFF" d="M850.4,285.3h2.7v1.9c0.6-1.3,1.5-2.2,3.1-2.1v2.9h-0.1c-1.8,0-2.9,1.1-2.9,3.4v3.6h-2.7V285.3z"/>
	<path fill="#FFFFFF" d="M857.2,290.2L857.2,290.2c0-2.8,2.1-5.1,5.1-5.1c1.8,0,3,0.6,3.9,1.6l-1.7,1.8c-0.6-0.6-1.2-1.1-2.2-1.1
		c-1.4,0-2.3,1.2-2.3,2.6v0c0,1.5,1,2.7,2.4,2.7c0.9,0,1.5-0.4,2.2-1l1.6,1.6c-0.9,1-2,1.8-3.9,1.8
		C859.3,295.2,857.2,293,857.2,290.2z"/>
	<path fill="#FFFFFF" d="M867.2,290.2L867.2,290.2c0-2.8,2-5.1,4.8-5.1c3.2,0,4.7,2.5,4.7,5.2c0,0.2,0,0.5,0,0.7H870
		c0.3,1.2,1.1,1.9,2.4,1.9c0.9,0,1.6-0.3,2.3-1l1.6,1.4c-0.9,1.1-2.2,1.8-3.9,1.8C869.4,295.2,867.2,293.2,867.2,290.2z M874,289.4
		c-0.2-1.2-0.9-2.1-2-2.1c-1.1,0-1.9,0.8-2.1,2.1H874z"/>
	<path fill="#FFFFFF" d="M878,293.7l1.2-1.8c1,0.8,2.1,1.2,3,1.2c0.8,0,1.2-0.3,1.2-0.7v0c0-0.6-0.9-0.8-2-1.1
		c-1.4-0.4-2.9-1-2.9-2.9v0c0-2,1.6-3.1,3.5-3.1c1.2,0,2.6,0.4,3.6,1.1l-1,1.9c-1-0.6-1.9-0.9-2.6-0.9c-0.7,0-1,0.3-1,0.7v0
		c0,0.5,0.9,0.8,2,1.2c1.4,0.5,2.9,1.1,2.9,2.9v0c0,2.1-1.6,3.1-3.7,3.1C880.8,295.2,879.3,294.7,878,293.7z"/>
</g>
</svg>
