<?xml version="1.0" encoding="utf-8"?>
<!-- Generator: Adobe Illustrator 18.1.1, SVG Export Plug-In . SVG Version: 6.00 Build 0)  -->
<svg version="1.1" id="Layer_1" xmlns="http://www.w3.org/2000/svg" xmlns:xlink="http://www.w3.org/1999/xlink" x="0px" y="0px"
	 viewBox="0 0 1172.7 602.6" enable-background="new 0 0 1172.7 602.6" xml:space="preserve">
<rect x="256.5" y="0" fill="#645243" width="916.2" height="602.6"/>
<rect x="192.4" y="64.1" fill="#7D6C5D" width="916.2" height="538.5"/>
<g>
	<g>
		<g>
			<rect x="658.8" y="128.1" fill="#D1D3D4" width="190" height="369.2"/>
			<g>
				<g>
					<rect x="669.2" y="137.8" fill="#414548" width="169.2" height="169.2"/>
					<g>
						<path fill="#FFFFFF" d="M704.3,284.1h2.8l1.5,5.9l1.8-5.9h2.4l1.8,5.9l1.6-5.9h2.7l-3,9.7h-2.5l-1.9-5.9l-1.9,5.9h-2.4
							L704.3,284.1z"/>
						<path fill="#FFFFFF" d="M719.6,289L719.6,289c0-2.8,2-5.1,4.8-5.1c3.2,0,4.7,2.5,4.7,5.2c0,0.2,0,0.5,0,0.7h-6.7
							c0.3,1.2,1.1,1.9,2.4,1.9c0.9,0,1.6-0.3,2.3-1l1.6,1.4c-0.9,1.1-2.2,1.8-3.9,1.8C721.8,293.9,719.6,291.9,719.6,289z
							 M726.5,288.1c-0.2-1.2-0.9-2.1-2-2.1c-1.1,0-1.9,0.8-2.1,2.1H726.5z"/>
						<path fill="#FFFFFF" d="M733.9,292.5v1.3h-2.7v-13.1h2.7v4.9c0.7-0.9,1.6-1.6,3-1.6c2.3,0,4.4,1.8,4.4,5v0c0,3.2-2.1,5-4.4,5
							C735.4,293.9,734.5,293.2,733.9,292.5z M738.5,288.9L738.5,288.9c0-1.6-1.1-2.7-2.4-2.7c-1.3,0-2.3,1.1-2.3,2.7v0
							c0,1.6,1.1,2.7,2.3,2.7C737.5,291.6,738.5,290.5,738.5,288.9z"/>
						<path fill="#FFFFFF" d="M747.9,292.5l1.2-1.8c1,0.8,2.1,1.2,3,1.2c0.8,0,1.2-0.3,1.2-0.7v0c0-0.6-0.9-0.8-2-1.1
							c-1.4-0.4-2.9-1-2.9-2.9v0c0-2,1.6-3.1,3.5-3.1c1.2,0,2.6,0.4,3.6,1.1l-1,1.9c-1-0.6-1.9-0.9-2.6-0.9c-0.7,0-1,0.3-1,0.7v0
							c0,0.5,0.9,0.8,2,1.2c1.4,0.5,2.9,1.1,2.9,2.9v0c0,2.1-1.6,3.1-3.7,3.1C750.7,293.9,749.2,293.5,747.9,292.5z"/>
						<path fill="#FFFFFF" d="M757.3,289L757.3,289c0-2.8,2-5.1,4.8-5.1c3.2,0,4.7,2.5,4.7,5.2c0,0.2,0,0.5,0,0.7H760
							c0.3,1.2,1.1,1.9,2.4,1.9c0.9,0,1.6-0.3,2.3-1l1.6,1.4c-0.9,1.1-2.2,1.8-3.9,1.8C759.4,293.9,757.3,291.9,757.3,289z
							 M764.1,288.1c-0.2-1.2-0.9-2.1-2-2.1c-1.1,0-1.9,0.8-2.1,2.1H764.1z"/>
						<path fill="#FFFFFF" d="M768.8,284.1h2.7v1.9c0.6-1.3,1.5-2.2,3.1-2.1v2.9h-0.1c-1.8,0-2.9,1.1-2.9,3.4v3.6h-2.7V284.1z"/>
						<path fill="#FFFFFF" d="M775.4,284.1h2.9l2.2,6.5l2.2-6.5h2.8l-3.8,9.7h-2.5L775.4,284.1z"/>
						<path fill="#FFFFFF" d="M786.1,289L786.1,289c0-2.8,2-5.1,4.8-5.1c3.2,0,4.7,2.5,4.7,5.2c0,0.2,0,0.5,0,0.7h-6.7
							c0.3,1.2,1.1,1.9,2.4,1.9c0.9,0,1.6-0.3,2.3-1l1.6,1.4c-0.9,1.1-2.2,1.8-3.9,1.8C788.2,293.9,786.1,291.9,786.1,289z
							 M792.9,288.1c-0.2-1.2-0.9-2.1-2-2.1c-1.1,0-1.9,0.8-2.1,2.1H792.9z"/>
						<path fill="#FFFFFF" d="M797.6,284.1h2.7v1.9c0.6-1.3,1.5-2.2,3.1-2.1v2.9h-0.1c-1.8,0-2.9,1.1-2.9,3.4v3.6h-2.7V284.1z"/>
					</g>
				</g>
				<g>
					<g>
						<g>
							<path fill="#FFFFFF" d="M797.4,260.6h-86.3c-2.2,0-4-1.8-4-4v-84.7c0-2.2,1.8-4,4-4h86.3c2.2,0,4,1.8,4,4v84.7
								C801.4,258.8,799.6,260.6,797.4,260.6L797.4,260.6z M715.1,252.6h78.3v-76.8h-78.3V252.6L715.1,252.6z"/>
						</g>
						<g>
							<path fill="#FFFFFF" d="M784.5,232.8H724c-1.1,0-2-0.9-2-2v-46.2c0-1.1,0.9-2,2-2h60.5c1.1,0,2,0.9,2,2v46.2
								C786.5,232,785.6,232.8,784.5,232.8L784.5,232.8z M726,228.9h56.6v-42.2H726V228.9L726,228.9z"/>
						</g>
					</g>
					<g>
						<g>
							<path fill="#FFFFFF" d="M734.2,244.7c0-0.9,0.7-1.7,1.7-1.7h8.3c0.9,0,1.7,0.7,1.7,1.7c0,0.9-0.7,1.7-1.7,1.7h-8.3
								C734.9,246.4,734.2,245.6,734.2,244.7L734.2,244.7z"/>
						</g>
						<g>
							<path fill="#FFFFFF" d="M748.4,244.7c0-0.9,0.7-1.7,1.7-1.7h8.3c0.9,0,1.7,0.7,1.7,1.7c0,0.9-0.7,1.7-1.7,1.7h-8.3
								C749.2,246.4,748.4,245.6,748.4,244.7L748.4,244.7z"/>
						</g>
						<g>
							<path fill="#FFFFFF" d="M762.7,244.7c0-0.9,0.7-1.7,1.7-1.7h8.3c0.9,0,1.7,0.7,1.7,1.7c0,0.9-0.7,1.7-1.7,1.7h-8.3
								C763.5,246.4,762.7,245.6,762.7,244.7L762.7,244.7z"/>
						</g>
					</g>
				</g>
			</g>
			<g>
				<g>
					<rect x="669.2" y="317.8" fill="#414548" width="169.2" height="169.2"/>
					<g>
						<path fill="#FFFFFF" d="M719.9,472.5l1.2-1.8c1,0.8,2.1,1.2,3,1.2c0.8,0,1.2-0.3,1.2-0.7v0c0-0.6-0.9-0.8-2-1.1
							c-1.4-0.4-2.9-1-2.9-2.9v0c0-2,1.6-3.1,3.5-3.1c1.2,0,2.6,0.4,3.6,1.1l-1,1.9c-1-0.6-1.9-0.9-2.6-0.9c-0.7,0-1,0.3-1,0.7v0
							c0,0.5,0.9,0.8,2,1.2c1.4,0.5,2.9,1.1,2.9,2.9v0c0,2.1-1.6,3.1-3.7,3.1C722.7,473.9,721.1,473.5,719.9,472.5z"/>
						<path fill="#FFFFFF" d="M729.9,471v-4.6h-1.2v-2.3h1.2v-2.5h2.7v2.5h2.3v2.3h-2.3v4.1c0,0.6,0.3,0.9,0.9,0.9
							c0.5,0,1-0.1,1.4-0.3v2.2c-0.6,0.3-1.2,0.6-2.2,0.6C731.1,473.9,729.9,473.2,729.9,471z"/>
						<path fill="#FFFFFF" d="M736.2,469L736.2,469c0-2.8,2.2-5.1,5.2-5.1c3,0,5.2,2.2,5.2,5v0c0,2.8-2.2,5-5.2,5
							C738.4,473.9,736.2,471.7,736.2,469z M744,469L744,469c0-1.5-1-2.7-2.5-2.7c-1.6,0-2.5,1.2-2.5,2.6v0c0,1.4,1,2.7,2.5,2.7
							C743,471.6,744,470.4,744,469z"/>
						<path fill="#FFFFFF" d="M748.6,464.1h2.7v1.9c0.6-1.3,1.5-2.2,3.1-2.1v2.9h-0.1c-1.8,0-2.9,1.1-2.9,3.4v3.6h-2.7V464.1z"/>
						<path fill="#FFFFFF" d="M755.1,471L755.1,471c0-2.1,1.6-3.1,3.9-3.1c1,0,1.7,0.2,2.4,0.4v-0.2c0-1.1-0.7-1.8-2.1-1.8
							c-1,0-1.8,0.2-2.7,0.5l-0.7-2.1c1.1-0.5,2.1-0.8,3.7-0.8c1.5,0,2.6,0.4,3.3,1.1c0.7,0.7,1,1.8,1,3.1v5.6h-2.6v-1
							c-0.7,0.7-1.6,1.2-2.9,1.2C756.6,473.9,755.1,472.9,755.1,471z M761.4,470.3v-0.5c-0.5-0.2-1.1-0.4-1.7-0.4
							c-1.2,0-1.9,0.5-1.9,1.3v0c0,0.7,0.6,1.2,1.5,1.2C760.6,472,761.4,471.3,761.4,470.3z"/>
						<path fill="#FFFFFF" d="M766.4,475.6l0.9-2.1c1,0.6,2,0.9,3.3,0.9c1.9,0,2.8-0.9,2.8-2.6v-0.5c-0.8,1-1.7,1.6-3.2,1.6
							c-2.3,0-4.3-1.6-4.3-4.5v0c0-2.9,2.1-4.5,4.3-4.5c1.5,0,2.4,0.6,3.1,1.4v-1.3h2.7v7.5c0,1.7-0.4,3-1.2,3.8
							c-0.9,0.9-2.3,1.3-4.2,1.3C769.1,476.6,767.6,476.3,766.4,475.6z M773.4,468.4L773.4,468.4c0-1.4-1-2.3-2.4-2.3
							s-2.3,0.9-2.3,2.2v0c0,1.3,1,2.2,2.3,2.2S773.4,469.8,773.4,468.4z"/>
						<path fill="#FFFFFF" d="M778,469L778,469c0-2.8,2-5.1,4.8-5.1c3.2,0,4.7,2.5,4.7,5.2c0,0.2,0,0.5,0,0.7h-6.7
							c0.3,1.2,1.1,1.9,2.4,1.9c0.9,0,1.6-0.3,2.3-1l1.6,1.4c-0.9,1.1-2.2,1.8-3.9,1.8C780.2,473.9,778,471.9,778,469z M784.9,468.1
							c-0.2-1.2-0.9-2.1-2-2.1c-1.1,0-1.9,0.8-2.1,2.1H784.9z"/>
					</g>
				</g>
				<g>
					<path fill="#FFFFFF" d="M754,417.5c11.6,0,21.5-3.1,24.9-7.4v-6.8c-0.1-0.2-0.3-0.3-0.4-0.5c-3.4,4.4-13.3,7.5-25,7.5
						c-11.2,0-20.7-2.9-24.5-6.9c0,0-0.1,0.1-0.1,0.1v6.5C732.2,414.3,742.2,417.5,754,417.5z"/>
					<path fill="#FFFFFF" d="M734.8,399.2c4.8,2.1,11.6,3.4,19.1,3.4s14.3-1.3,19.1-3.4c2.2-1,4-2.1,5.2-3.3
						c0.2-0.2,0.4-0.5,0.6-0.7v-6.8c-0.1-0.2-0.3-0.3-0.4-0.5c-1.2,1.5-3.2,2.9-5.9,4.1c-4.8,2.1-11.6,3.4-19.1,3.4
						c-7.5,0-14.3-1.3-19.1-3.4c-2.3-1-4.2-2.2-5.4-3.5c0,0-0.1,0.1-0.1,0.1v6.5c0.1,0.1,0.2,0.2,0.3,0.3
						C730.4,396.8,732.3,398.1,734.8,399.2z"/>
					<path fill="#FFFFFF" d="M735,384.3c4.5,2.2,11.3,3.5,18.8,3.5c7.6,0,14.3-1.4,18.9-3.6c2.3-1.1,4-2.4,5-3.9
						c0.6-0.9,0.9-1.8,0.9-2.8c0-5.6-11.1-10.2-24.8-10.2c-13.7,0-24.8,4.6-24.8,10.2c0,0.8,0.2,1.6,0.6,2.3
						C730.6,381.6,732.5,383,735,384.3z"/>
					<path fill="#FFFFFF" d="M796.8,346.4h-85.3c-2.2,0-3.9,1.7-3.9,3.9v85.3c0,2.2,1.8,3.9,3.9,3.9h85.3c2.2,0,3.9-1.8,3.9-3.9
						v-85.3C800.7,348.2,799,346.4,796.8,346.4z M792.9,431.8h-77.5v-77.5h77.5V431.8z"/>
				</g>
			</g>
		</g>
		<g>
			<rect x="658.5" y="497" fill="#645243" width="190.2" height="41.9"/>
			<g>
				<path fill="#FFFFFF" d="M720.1,522.8l1.2-1.8c1,0.8,2.1,1.2,3,1.2c0.8,0,1.2-0.3,1.2-0.7v0c0-0.6-0.9-0.8-2-1.1
					c-1.4-0.4-2.9-1-2.9-2.9v0c0-2,1.6-3.1,3.5-3.1c1.2,0,2.6,0.4,3.6,1.1l-1,1.9c-1-0.6-1.9-0.9-2.6-0.9c-0.7,0-1,0.3-1,0.7v0
					c0,0.5,0.9,0.8,2,1.2c1.4,0.5,2.9,1.1,2.9,2.9v0c0,2.1-1.6,3.1-3.7,3.1C722.9,524.2,721.4,523.8,720.1,522.8z"/>
				<path fill="#FFFFFF" d="M730.2,521.3v-4.6H729v-2.3h1.2v-2.5h2.7v2.5h2.3v2.3h-2.3v4.1c0,0.6,0.3,0.9,0.9,0.9
					c0.5,0,1-0.1,1.4-0.3v2.2c-0.6,0.3-1.2,0.6-2.2,0.6C731.3,524.2,730.2,523.5,730.2,521.3z"/>
				<path fill="#FFFFFF" d="M736.6,521.3L736.6,521.3c0-2.1,1.6-3.1,3.9-3.1c1,0,1.7,0.2,2.4,0.4v-0.2c0-1.1-0.7-1.8-2.1-1.8
					c-1,0-1.8,0.2-2.7,0.5l-0.7-2.1c1.1-0.5,2.1-0.8,3.7-0.8c1.5,0,2.6,0.4,3.3,1.1c0.7,0.7,1,1.8,1,3.1v5.6h-2.6v-1
					c-0.7,0.7-1.6,1.2-2.9,1.2C738.1,524.2,736.6,523.2,736.6,521.3z M742.9,520.6v-0.5c-0.5-0.2-1.1-0.4-1.7-0.4
					c-1.2,0-1.9,0.5-1.9,1.3v0c0,0.7,0.6,1.2,1.5,1.2C742,522.3,742.9,521.6,742.9,520.6z"/>
				<path fill="#FFFFFF" d="M747.9,525.9l0.9-2.1c1,0.6,2,0.9,3.3,0.9c1.9,0,2.8-0.9,2.8-2.6v-0.5c-0.8,1-1.7,1.6-3.2,1.6
					c-2.3,0-4.3-1.6-4.3-4.5v0c0-2.9,2.1-4.5,4.3-4.5c1.5,0,2.4,0.6,3.1,1.4v-1.3h2.7v7.5c0,1.7-0.4,3-1.2,3.8
					c-0.9,0.9-2.3,1.3-4.2,1.3C750.6,527,749.1,526.6,747.9,525.9z M754.8,518.7L754.8,518.7c0-1.4-1-2.3-2.4-2.3s-2.3,0.9-2.3,2.2
					v0c0,1.3,1,2.2,2.3,2.2S754.8,520.1,754.8,518.7z"/>
				<path fill="#FFFFFF" d="M760,510.9h2.9v2.4H760V510.9z M760.1,514.4h2.7v9.7h-2.7V514.4z"/>
				<path fill="#FFFFFF" d="M765.4,514.4h2.7v1.4c0.6-0.8,1.4-1.5,2.8-1.5c2.1,0,3.3,1.4,3.3,3.6v6.2h-2.7v-5.4c0-1.3-0.6-2-1.7-2
					c-1,0-1.7,0.7-1.7,2v5.4h-2.7V514.4z"/>
				<path fill="#FFFFFF" d="M776.7,525.9l0.9-2.1c1,0.6,2,0.9,3.3,0.9c1.9,0,2.8-0.9,2.8-2.6v-0.5c-0.8,1-1.7,1.6-3.2,1.6
					c-2.3,0-4.3-1.6-4.3-4.5v0c0-2.9,2.1-4.5,4.3-4.5c1.5,0,2.4,0.6,3.1,1.4v-1.3h2.7v7.5c0,1.7-0.4,3-1.2,3.8
					c-0.9,0.9-2.3,1.3-4.2,1.3C779.4,527,777.9,526.6,776.7,525.9z M783.6,518.7L783.6,518.7c0-1.4-1-2.3-2.4-2.3
					c-1.3,0-2.3,0.9-2.3,2.2v0c0,1.3,1,2.2,2.3,2.2C782.6,521,783.6,520.1,783.6,518.7z"/>
			</g>
		</g>
	</g>
	<g>
		<g>
			<g>
				<rect x="853.8" y="128.1" fill="#D1D3D4" width="190" height="369.2"/>
				<g>
					<g>
						<rect x="864.2" y="137.8" fill="#414548" width="169.2" height="169.2"/>
						<g>
							<path fill="#FFFFFF" d="M899.3,284.1h2.8l1.5,5.9l1.8-5.9h2.4l1.8,5.9l1.6-5.9h2.7l-3,9.7h-2.5l-1.9-5.9l-1.9,5.9h-2.4
								L899.3,284.1z"/>
							<path fill="#FFFFFF" d="M914.6,289L914.6,289c0-2.8,2-5.1,4.8-5.1c3.2,0,4.7,2.5,4.7,5.2c0,0.2,0,0.5,0,0.7h-6.7
								c0.3,1.2,1.1,1.9,2.4,1.9c0.9,0,1.6-0.3,2.3-1l1.6,1.4c-0.9,1.1-2.2,1.8-3.9,1.8C916.8,293.9,914.6,291.9,914.6,289z
								 M921.5,288.1c-0.2-1.2-0.9-2.1-2-2.1c-1.1,0-1.9,0.8-2.1,2.1H921.5z"/>
							<path fill="#FFFFFF" d="M928.9,292.5v1.3h-2.7v-13.1h2.7v4.9c0.7-0.9,1.6-1.6,3-1.6c2.3,0,4.4,1.8,4.4,5v0c0,3.2-2.1,5-4.4,5
								C930.4,293.9,929.5,293.2,928.9,292.5z M933.5,288.9L933.5,288.9c0-1.6-1.1-2.7-2.4-2.7c-1.3,0-2.3,1.1-2.3,2.7v0
								c0,1.6,1.1,2.7,2.3,2.7C932.5,291.6,933.5,290.5,933.5,288.9z"/>
							<path fill="#FFFFFF" d="M942.9,292.5l1.2-1.8c1,0.8,2.1,1.2,3,1.2c0.8,0,1.2-0.3,1.2-0.7v0c0-0.6-0.9-0.8-2-1.1
								c-1.4-0.4-2.9-1-2.9-2.9v0c0-2,1.6-3.1,3.5-3.1c1.2,0,2.6,0.4,3.6,1.1l-1,1.9c-1-0.6-1.9-0.9-2.6-0.9c-0.7,0-1,0.3-1,0.7v0
								c0,0.5,0.9,0.8,2,1.2c1.4,0.5,2.9,1.1,2.9,2.9v0c0,2.1-1.6,3.1-3.7,3.1C945.7,293.9,944.2,293.5,942.9,292.5z"/>
							<path fill="#FFFFFF" d="M952.3,289L952.3,289c0-2.8,2-5.1,4.8-5.1c3.2,0,4.7,2.5,4.7,5.2c0,0.2,0,0.5,0,0.7H955
								c0.3,1.2,1.1,1.9,2.4,1.9c0.9,0,1.6-0.3,2.3-1l1.6,1.4c-0.9,1.1-2.2,1.8-3.9,1.8C954.4,293.9,952.3,291.9,952.3,289z
								 M959.1,288.1c-0.2-1.2-0.9-2.1-2-2.1c-1.1,0-1.9,0.8-2.1,2.1H959.1z"/>
							<path fill="#FFFFFF" d="M963.8,284.1h2.7v1.9c0.6-1.3,1.5-2.2,3.1-2.1v2.9h-0.1c-1.8,0-2.9,1.1-2.9,3.4v3.6h-2.7V284.1z"/>
							<path fill="#FFFFFF" d="M970.4,284.1h2.9l2.2,6.5l2.2-6.5h2.8l-3.8,9.7h-2.5L970.4,284.1z"/>
							<path fill="#FFFFFF" d="M981.1,289L981.1,289c0-2.8,2-5.1,4.8-5.1c3.2,0,4.7,2.5,4.7,5.2c0,0.2,0,0.5,0,0.7h-6.7
								c0.3,1.2,1.1,1.9,2.4,1.9c0.9,0,1.6-0.3,2.3-1l1.6,1.4c-0.9,1.1-2.2,1.8-3.9,1.8C983.2,293.9,981.1,291.9,981.1,289z
								 M987.9,288.1c-0.2-1.2-0.9-2.1-2-2.1c-1.1,0-1.9,0.8-2.1,2.1H987.9z"/>
							<path fill="#FFFFFF" d="M992.6,284.1h2.7v1.9c0.6-1.3,1.5-2.2,3.1-2.1v2.9h-0.1c-1.8,0-2.9,1.1-2.9,3.4v3.6h-2.7V284.1z"/>
						</g>
					</g>
					<g>
						<g>
							<g>
								<path fill="#FFFFFF" d="M992.4,260.6h-86.3c-2.2,0-4-1.8-4-4v-84.7c0-2.2,1.8-4,4-4h86.3c2.2,0,4,1.8,4,4v84.7
									C996.4,258.8,994.6,260.6,992.4,260.6L992.4,260.6z M910.1,252.6h78.3v-76.8h-78.3V252.6L910.1,252.6z"/>
							</g>
							<g>
								<path fill="#FFFFFF" d="M979.5,232.8H919c-1.1,0-2-0.9-2-2v-46.2c0-1.1,0.9-2,2-2h60.5c1.1,0,2,0.9,2,2v46.2
									C981.5,232,980.6,232.8,979.5,232.8L979.5,232.8z M921,228.9h56.6v-42.2H921V228.9L921,228.9z"/>
							</g>
						</g>
						<g>
							<g>
								<path fill="#FFFFFF" d="M929.2,244.7c0-0.9,0.7-1.7,1.7-1.7h8.3c0.9,0,1.7,0.7,1.7,1.7c0,0.9-0.7,1.7-1.7,1.7h-8.3
									C929.9,246.4,929.2,245.6,929.2,244.7L929.2,244.7z"/>
							</g>
							<g>
								<path fill="#FFFFFF" d="M943.4,244.7c0-0.9,0.7-1.7,1.7-1.7h8.3c0.9,0,1.7,0.7,1.7,1.7c0,0.9-0.7,1.7-1.7,1.7h-8.3
									C944.2,246.4,943.4,245.6,943.4,244.7L943.4,244.7z"/>
							</g>
							<g>
								<path fill="#FFFFFF" d="M957.7,244.7c0-0.9,0.7-1.7,1.7-1.7h8.3c0.9,0,1.7,0.7,1.7,1.7c0,0.9-0.7,1.7-1.7,1.7h-8.3
									C958.5,246.4,957.7,245.6,957.7,244.7L957.7,244.7z"/>
							</g>
						</g>
					</g>
				</g>
				<g>
					<g>
						<rect x="864.2" y="317.8" fill="#414548" width="169.2" height="169.2"/>
						<g>
							<path fill="#FFFFFF" d="M914.9,472.5l1.2-1.8c1,0.8,2.1,1.2,3,1.2c0.8,0,1.2-0.3,1.2-0.7v0c0-0.6-0.9-0.8-2-1.1
								c-1.4-0.4-2.9-1-2.9-2.9v0c0-2,1.6-3.1,3.5-3.1c1.2,0,2.6,0.4,3.6,1.1l-1,1.9c-1-0.6-1.9-0.9-2.6-0.9c-0.7,0-1,0.3-1,0.7v0
								c0,0.5,0.9,0.8,2,1.2c1.4,0.5,2.9,1.1,2.9,2.9v0c0,2.1-1.6,3.1-3.7,3.1C917.7,473.9,916.1,473.5,914.9,472.5z"/>
							<path fill="#FFFFFF" d="M924.9,471v-4.6h-1.2v-2.3h1.2v-2.5h2.7v2.5h2.3v2.3h-2.3v4.1c0,0.6,0.3,0.9,0.9,0.9
								c0.5,0,1-0.1,1.4-0.3v2.2c-0.6,0.3-1.2,0.6-2.2,0.6C926.1,473.9,924.9,473.2,924.9,471z"/>
							<path fill="#FFFFFF" d="M931.2,469L931.2,469c0-2.8,2.2-5.1,5.2-5.1c3,0,5.2,2.2,5.2,5v0c0,2.8-2.2,5-5.2,5
								C933.4,473.9,931.2,471.7,931.2,469z M939,469L939,469c0-1.5-1-2.7-2.5-2.7c-1.6,0-2.5,1.2-2.5,2.6v0c0,1.4,1,2.7,2.5,2.7
								C938,471.6,939,470.4,939,469z"/>
							<path fill="#FFFFFF" d="M943.6,464.1h2.7v1.9c0.6-1.3,1.5-2.2,3.1-2.1v2.9h-0.1c-1.8,0-2.9,1.1-2.9,3.4v3.6h-2.7V464.1z"/>
							<path fill="#FFFFFF" d="M950.1,471L950.1,471c0-2.1,1.6-3.1,3.9-3.1c1,0,1.7,0.2,2.4,0.4v-0.2c0-1.1-0.7-1.8-2.1-1.8
								c-1,0-1.8,0.2-2.7,0.5l-0.7-2.1c1.1-0.5,2.1-0.8,3.7-0.8c1.5,0,2.6,0.4,3.3,1.1c0.7,0.7,1,1.8,1,3.1v5.6h-2.6v-1
								c-0.7,0.7-1.6,1.2-2.9,1.2C951.6,473.9,950.1,472.9,950.1,471z M956.4,470.3v-0.5c-0.5-0.2-1.1-0.4-1.7-0.4
								c-1.2,0-1.9,0.5-1.9,1.3v0c0,0.7,0.6,1.2,1.5,1.2C955.6,472,956.4,471.3,956.4,470.3z"/>
							<path fill="#FFFFFF" d="M961.4,475.6l0.9-2.1c1,0.6,2,0.9,3.3,0.9c1.9,0,2.8-0.9,2.8-2.6v-0.5c-0.8,1-1.7,1.6-3.2,1.6
								c-2.2,0-4.3-1.6-4.3-4.5v0c0-2.9,2.1-4.5,4.3-4.5c1.5,0,2.4,0.6,3.1,1.4v-1.3h2.7v7.5c0,1.7-0.4,3-1.2,3.8
								c-0.9,0.9-2.3,1.3-4.2,1.3C964.1,476.6,962.6,476.3,961.4,475.6z M968.4,468.4L968.4,468.4c0-1.4-1-2.3-2.4-2.3
								c-1.3,0-2.3,0.9-2.3,2.2v0c0,1.3,1,2.2,2.3,2.2C967.3,470.7,968.4,469.8,968.4,468.4z"/>
							<path fill="#FFFFFF" d="M973,469L973,469c0-2.8,2-5.1,4.8-5.1c3.2,0,4.7,2.5,4.7,5.2c0,0.2,0,0.5,0,0.7h-6.7
								c0.3,1.2,1.1,1.9,2.4,1.9c0.9,0,1.6-0.3,2.3-1l1.6,1.4c-0.9,1.1-2.2,1.8-3.9,1.8C975.2,473.9,973,471.9,973,469z
								 M979.9,468.1c-0.2-1.2-0.9-2.1-2-2.1c-1.1,0-1.9,0.8-2.1,2.1H979.9z"/>
						</g>
					</g>
					<g>
						<path fill="#FFFFFF" d="M949,417.5c11.6,0,21.5-3.1,24.9-7.4v-6.8c-0.1-0.2-0.3-0.3-0.4-0.5c-3.4,4.4-13.3,7.5-25,7.5
							c-11.2,0-20.7-2.9-24.5-6.9c0,0-0.1,0.1-0.1,0.1v6.5C927.2,414.3,937.2,417.5,949,417.5z"/>
						<path fill="#FFFFFF" d="M929.8,399.2c4.8,2.1,11.6,3.4,19.1,3.4s14.3-1.3,19.1-3.4c2.2-1,4-2.1,5.2-3.3
							c0.2-0.2,0.4-0.5,0.6-0.7v-6.8c-0.1-0.2-0.3-0.3-0.4-0.5c-1.2,1.5-3.2,2.9-5.9,4.1c-4.8,2.1-11.6,3.4-19.1,3.4
							c-7.5,0-14.3-1.3-19.1-3.4c-2.3-1-4.2-2.2-5.4-3.5c0,0-0.1,0.1-0.1,0.1v6.5c0.1,0.1,0.2,0.2,0.3,0.3
							C925.4,396.8,927.3,398.1,929.8,399.2z"/>
						<path fill="#FFFFFF" d="M930,384.3c4.5,2.2,11.3,3.5,18.8,3.5c7.6,0,14.3-1.4,18.9-3.6c2.3-1.1,4-2.4,5-3.9
							c0.6-0.9,0.9-1.8,0.9-2.8c0-5.6-11.1-10.2-24.8-10.2c-13.7,0-24.8,4.6-24.8,10.2c0,0.8,0.2,1.6,0.6,2.3
							C925.6,381.6,927.5,383,930,384.3z"/>
						<path fill="#FFFFFF" d="M991.8,346.4h-85.3c-2.2,0-3.9,1.7-3.9,3.9v85.3c0,2.2,1.8,3.9,3.9,3.9h85.3c2.2,0,3.9-1.8,3.9-3.9
							v-85.3C995.7,348.2,994,346.4,991.8,346.4z M987.9,431.8h-77.5v-77.5h77.5V431.8z"/>
					</g>
				</g>
			</g>
			<rect x="853.5" y="497" fill="#645243" width="190.2" height="41.9"/>
		</g>
		<g>
			<path fill="#FFFFFF" d="M899.3,514.4h2.7v1.4c0.7-0.9,1.6-1.6,3-1.6c2.3,0,4.4,1.8,4.4,5v0c0,3.2-2.1,5-4.4,5
				c-1.5,0-2.4-0.7-3-1.4v4.1h-2.7V514.4z M906.7,519.2L906.7,519.2c0-1.6-1.1-2.7-2.4-2.7c-1.3,0-2.3,1.1-2.3,2.7v0
				c0,1.6,1.1,2.7,2.3,2.7C905.6,521.9,906.7,520.9,906.7,519.2z"/>
			<path fill="#FFFFFF" d="M911.4,514.4h2.7v1.9c0.6-1.3,1.5-2.2,3.1-2.1v2.9h-0.1c-1.8,0-2.9,1.1-2.9,3.4v3.6h-2.7V514.4z"/>
			<path fill="#FFFFFF" d="M918.2,519.3L918.2,519.3c0-2.8,2.2-5.1,5.2-5.1c3,0,5.2,2.2,5.2,5v0c0,2.8-2.2,5-5.2,5
				C920.4,524.3,918.2,522,918.2,519.3z M926,519.3L926,519.3c0-1.5-1-2.7-2.5-2.7c-1.6,0-2.5,1.2-2.5,2.6v0c0,1.4,1,2.7,2.5,2.7
				C925,521.9,926,520.7,926,519.3z"/>
			<path fill="#FFFFFF" d="M930.2,519.2L930.2,519.2c0-3.3,2.1-5,4.4-5c1.5,0,2.4,0.7,3,1.4v-4.8h2.7V524h-2.7v-1.4
				c-0.7,0.9-1.6,1.6-3,1.6C932.3,524.2,930.2,522.5,930.2,519.2z M937.6,519.2L937.6,519.2c0-1.6-1.1-2.7-2.3-2.7s-2.4,1-2.4,2.7v0
				c0,1.6,1.1,2.7,2.4,2.7S937.6,520.8,937.6,519.2z"/>
			<path fill="#FFFFFF" d="M942.7,520.6v-6.2h2.7v5.4c0,1.3,0.6,2,1.7,2c1,0,1.7-0.7,1.7-2v-5.4h2.7v9.7h-2.7v-1.4
				c-0.6,0.8-1.4,1.5-2.8,1.5C943.9,524.2,942.7,522.9,942.7,520.6z"/>
			<path fill="#FFFFFF" d="M953.5,519.3L953.5,519.3c0-2.8,2.1-5.1,5.1-5.1c1.8,0,3,0.6,3.9,1.6l-1.7,1.8c-0.6-0.6-1.2-1.1-2.2-1.1
				c-1.4,0-2.3,1.2-2.3,2.6v0c0,1.5,1,2.7,2.4,2.7c0.9,0,1.5-0.4,2.2-1l1.6,1.6c-0.9,1-2,1.8-3.9,1.8
				C955.7,524.3,953.5,522,953.5,519.3z"/>
			<path fill="#FFFFFF" d="M964.7,521.3v-4.6h-1.2v-2.3h1.2v-2.5h2.7v2.5h2.3v2.3h-2.3v4.1c0,0.6,0.3,0.9,0.9,0.9
				c0.5,0,1-0.1,1.4-0.3v2.2c-0.6,0.3-1.2,0.6-2.2,0.6C965.9,524.2,964.7,523.5,964.7,521.3z"/>
			<path fill="#FFFFFF" d="M971.8,510.9h2.9v2.4h-2.9V510.9z M971.9,514.4h2.7v9.7h-2.7V514.4z"/>
			<path fill="#FFFFFF" d="M976.7,519.3L976.7,519.3c0-2.8,2.2-5.1,5.2-5.1c3,0,5.2,2.2,5.2,5v0c0,2.8-2.2,5-5.2,5
				C978.9,524.3,976.7,522,976.7,519.3z M984.5,519.3L984.5,519.3c0-1.5-1-2.7-2.5-2.7c-1.6,0-2.5,1.2-2.5,2.6v0
				c0,1.4,1,2.7,2.5,2.7C983.5,521.9,984.5,520.7,984.5,519.3z"/>
			<path fill="#FFFFFF" d="M989.1,514.4h2.7v1.4c0.6-0.8,1.4-1.5,2.8-1.5c2.1,0,3.3,1.4,3.3,3.6v6.2h-2.7v-5.4c0-1.3-0.6-2-1.7-2
				c-1,0-1.7,0.7-1.7,2v5.4h-2.7V514.4z"/>
		</g>
	</g>
	<g>
		<rect x="463.8" y="307.8" fill="#D1D3D4" width="190" height="189.5"/>
		<g>
			<g>
				<rect x="473.9" y="317.8" fill="#414548" width="169.2" height="169.2"/>
				<g>
					<path fill="#FFFFFF" d="M488.4,464.1h2.9l2.2,6.5l2.2-6.5h2.8l-3.8,9.7h-2.5L488.4,464.1z"/>
					<path fill="#FFFFFF" d="M500.2,460.6h2.9v2.4h-2.9V460.6z M500.2,464.1h2.7v9.7h-2.7V464.1z"/>
					<path fill="#FFFFFF" d="M505.5,464.1h2.7v1.9c0.6-1.3,1.5-2.2,3.1-2.1v2.9h-0.1c-1.8,0-2.9,1.1-2.9,3.4v3.6h-2.7V464.1z"/>
					<path fill="#FFFFFF" d="M513.5,471v-4.6h-1.2v-2.3h1.2v-2.5h2.7v2.5h2.3v2.3h-2.3v4.1c0,0.6,0.3,0.9,0.9,0.9
						c0.5,0,1-0.1,1.4-0.3v2.2c-0.6,0.3-1.2,0.6-2.2,0.6C514.7,473.9,513.5,473.2,513.5,471z"/>
					<path fill="#FFFFFF" d="M520.5,470.3v-6.2h2.7v5.4c0,1.3,0.6,2,1.7,2s1.7-0.7,1.7-2v-5.4h2.7v9.7h-2.7v-1.4
						c-0.6,0.8-1.4,1.5-2.8,1.5C521.7,473.9,520.5,472.5,520.5,470.3z"/>
					<path fill="#FFFFFF" d="M531.2,471L531.2,471c0-2.1,1.6-3.1,3.9-3.1c1,0,1.7,0.2,2.4,0.4v-0.2c0-1.1-0.7-1.8-2.1-1.8
						c-1,0-1.8,0.2-2.7,0.5l-0.7-2.1c1.1-0.5,2.1-0.8,3.7-0.8c1.5,0,2.6,0.4,3.3,1.1c0.7,0.7,1,1.8,1,3.1v5.6h-2.6v-1
						c-0.7,0.7-1.6,1.2-2.9,1.2C532.7,473.9,531.2,472.9,531.2,471z M537.5,470.3v-0.5c-0.5-0.2-1.1-0.4-1.7-0.4
						c-1.2,0-1.9,0.5-1.9,1.3v0c0,0.7,0.6,1.2,1.5,1.2C536.6,472,537.5,471.3,537.5,470.3z"/>
					<path fill="#FFFFFF" d="M542.5,460.6h2.7v13.1h-2.7V460.6z"/>
					<path fill="#FFFFFF" d="M553.2,464.1h2.7v1.4c0.6-0.8,1.5-1.5,2.8-1.5c1.3,0,2.2,0.6,2.7,1.5c0.8-1,1.9-1.5,3.2-1.5
						c2,0,3.3,1.2,3.3,3.5v6.3h-2.7v-5.4c0-1.3-0.6-2-1.6-2c-1,0-1.7,0.7-1.7,2v5.4h-2.7v-5.4c0-1.3-0.6-2-1.6-2s-1.7,0.7-1.7,2v5.4
						h-2.7V464.1z"/>
					<path fill="#FFFFFF" d="M569.8,471L569.8,471c0-2.1,1.6-3.1,3.9-3.1c1,0,1.7,0.2,2.4,0.4v-0.2c0-1.1-0.7-1.8-2.1-1.8
						c-1,0-1.8,0.2-2.7,0.5l-0.7-2.1c1.1-0.5,2.1-0.8,3.7-0.8c1.5,0,2.6,0.4,3.3,1.1c0.7,0.7,1,1.8,1,3.1v5.6H576v-1
						c-0.7,0.7-1.6,1.2-2.9,1.2C571.3,473.9,569.8,472.9,569.8,471z M576.1,470.3v-0.5c-0.5-0.2-1.1-0.4-1.7-0.4
						c-1.2,0-1.9,0.5-1.9,1.3v0c0,0.7,0.6,1.2,1.5,1.2C575.2,472,576.1,471.3,576.1,470.3z"/>
					<path fill="#FFFFFF" d="M580.5,469L580.5,469c0-2.8,2.1-5.1,5.1-5.1c1.8,0,3,0.6,3.9,1.6l-1.7,1.8c-0.6-0.6-1.2-1.1-2.2-1.1
						c-1.4,0-2.3,1.2-2.3,2.6v0c0,1.5,1,2.7,2.4,2.7c0.9,0,1.5-0.4,2.2-1l1.6,1.6c-0.9,1-2,1.8-3.9,1.8
						C582.7,473.9,580.5,471.7,580.5,469z"/>
					<path fill="#FFFFFF" d="M591.3,460.6h2.7v4.9c0.6-0.8,1.4-1.5,2.8-1.5c2.1,0,3.3,1.4,3.3,3.6v6.2h-2.7v-5.4c0-1.3-0.6-2-1.7-2
						c-1,0-1.7,0.7-1.7,2v5.4h-2.7V460.6z"/>
					<path fill="#FFFFFF" d="M602.5,460.6h2.9v2.4h-2.9V460.6z M602.6,464.1h2.7v9.7h-2.7V464.1z"/>
					<path fill="#FFFFFF" d="M607.9,464.1h2.7v1.4c0.6-0.8,1.4-1.5,2.8-1.5c2.1,0,3.3,1.4,3.3,3.6v6.2H614v-5.4c0-1.3-0.6-2-1.7-2
						c-1,0-1.7,0.7-1.7,2v5.4h-2.7V464.1z"/>
					<path fill="#FFFFFF" d="M618.7,469L618.7,469c0-2.8,2-5.1,4.8-5.1c3.2,0,4.7,2.5,4.7,5.2c0,0.2,0,0.5,0,0.7h-6.7
						c0.3,1.2,1.1,1.9,2.4,1.9c0.9,0,1.6-0.3,2.3-1l1.6,1.4c-0.9,1.1-2.2,1.8-3.9,1.8C620.8,473.9,618.7,471.9,618.7,469z
						 M625.5,468.1c-0.2-1.2-0.9-2.1-2-2.1c-1.1,0-1.9,0.8-2.1,2.1H625.5z"/>
				</g>
			</g>
			<g>
				<g>
					<path fill="#FFFFFF" d="M599.8,443.5h-85.2c-2.3,0-4.2-1.9-4.2-4.2v-71c0-2.3,1.9-4.2,4.2-4.2h85.2c2.3,0,4.2,1.9,4.2,4.2v71
						C604.1,441.6,602.2,443.5,599.8,443.5L599.8,443.5z M518.9,435h76.7v-62.5h-76.7V435L518.9,435z"/>
				</g>
				<g>
					<path fill="#FFFFFF" d="M587.1,428.7h-59.8c-1.2,0-2.1-0.9-2.1-2.1V381c0-1.2,1-2.1,2.1-2.1h59.8c1.2,0,2.1,0.9,2.1,2.1v45.6
						C589.2,427.7,588.3,428.7,587.1,428.7L587.1,428.7z M529.4,424.4H585v-41.4h-55.6V424.4L529.4,424.4z"/>
				</g>
				<g>
					<path fill="#FFFFFF" d="M594.4,357.5H520c-1.2,0-2.1-0.9-2.1-2.1c0-1.2,1-2.1,2.1-2.1h74.4c1.2,0,2.1,0.9,2.1,2.1
						C596.5,356.5,595.6,357.5,594.4,357.5L594.4,357.5z"/>
				</g>
				<g>
					<path fill="#FFFFFF" d="M585.9,347.5h-57.4c-1.2,0-2.1-0.9-2.1-2.1c0-1.2,1-2.1,2.1-2.1h57.4c1.2,0,2.1,0.9,2.1,2.1
						C588.1,346.5,587.1,347.5,585.9,347.5L585.9,347.5z"/>
				</g>
			</g>
		</g>
		<g>
			<rect x="463.5" y="497" fill="#645243" width="190.2" height="41.9"/>
			<g>
				<path fill="#FFFFFF" d="M530.9,521.3v-4.6h-1.2v-2.3h1.2v-2.5h2.7v2.5h2.3v2.3h-2.3v4.1c0,0.6,0.3,0.9,0.9,0.9
					c0.5,0,1-0.1,1.4-0.3v2.2c-0.6,0.3-1.2,0.6-2.2,0.6C532,524.2,530.9,523.5,530.9,521.3z"/>
				<path fill="#FFFFFF" d="M537.1,519.3L537.1,519.3c0-2.8,2-5.1,4.8-5.1c3.2,0,4.7,2.5,4.7,5.2c0,0.2,0,0.5,0,0.7h-6.7
					c0.3,1.2,1.1,1.9,2.4,1.9c0.9,0,1.6-0.3,2.3-1l1.6,1.4c-0.9,1.1-2.2,1.8-3.9,1.8C539.3,524.3,537.1,522.2,537.1,519.3z
					 M544,518.5c-0.2-1.2-0.9-2.1-2-2.1c-1.1,0-1.9,0.8-2.1,2.1H544z"/>
				<path fill="#FFFFFF" d="M547.9,522.8l1.2-1.8c1,0.8,2.1,1.2,3,1.2c0.8,0,1.2-0.3,1.2-0.7v0c0-0.6-0.9-0.8-2-1.1
					c-1.4-0.4-2.9-1-2.9-2.9v0c0-2,1.6-3.1,3.5-3.1c1.2,0,2.6,0.4,3.6,1.1l-1,1.9c-1-0.6-1.9-0.9-2.6-0.9c-0.7,0-1,0.3-1,0.7v0
					c0,0.5,0.9,0.8,2,1.2c1.4,0.5,2.9,1.1,2.9,2.9v0c0,2.1-1.6,3.1-3.7,3.1C550.7,524.2,549.2,523.8,547.9,522.8z"/>
				<path fill="#FFFFFF" d="M558,521.3v-4.6h-1.2v-2.3h1.2v-2.5h2.7v2.5h2.3v2.3h-2.3v4.1c0,0.6,0.3,0.9,0.9,0.9
					c0.5,0,1-0.1,1.4-0.3v2.2c-0.6,0.3-1.2,0.6-2.2,0.6C559.1,524.2,558,523.5,558,521.3z"/>
				<path fill="#FFFFFF" d="M565,510.9h2.9v2.4H565V510.9z M565.1,514.4h2.7v9.7h-2.7V514.4z"/>
				<path fill="#FFFFFF" d="M570.4,514.4h2.7v1.4c0.6-0.8,1.4-1.5,2.8-1.5c2.1,0,3.3,1.4,3.3,3.6v6.2h-2.7v-5.4c0-1.3-0.6-2-1.7-2
					c-1,0-1.7,0.7-1.7,2v5.4h-2.7V514.4z"/>
				<path fill="#FFFFFF" d="M581.7,525.9l0.9-2.1c1,0.6,2,0.9,3.3,0.9c1.9,0,2.8-0.9,2.8-2.6v-0.5c-0.8,1-1.7,1.6-3.2,1.6
					c-2.3,0-4.3-1.6-4.3-4.5v0c0-2.9,2.1-4.5,4.3-4.5c1.5,0,2.4,0.6,3.1,1.4v-1.3h2.7v7.5c0,1.7-0.4,3-1.2,3.8
					c-0.9,0.9-2.3,1.3-4.2,1.3C584.4,527,582.9,526.6,581.7,525.9z M588.6,518.7L588.6,518.7c0-1.4-1-2.3-2.4-2.3s-2.3,0.9-2.3,2.2
					v0c0,1.3,1,2.2,2.3,2.2S588.6,520.1,588.6,518.7z"/>
			</g>
		</g>
	</g>
	<g>
		<rect x="268.8" y="307.8" fill="#D1D3D4" width="190" height="189.5"/>
		<g>
			<g>
				<rect x="278.6" y="317.6" fill="#404447" width="169.2" height="169.2"/>
				<g>
					<path fill="#FFFFFF" d="M301.6,460.3h2.7v13.1h-2.7V460.3z"/>
					<path fill="#FFFFFF" d="M306.4,468.7L306.4,468.7c0-2.8,2.2-5.1,5.2-5.1c3,0,5.2,2.2,5.2,5v0c0,2.8-2.2,5-5.2,5
						C308.6,473.7,306.4,471.5,306.4,468.7z M314.1,468.7L314.1,468.7c0-1.5-1-2.7-2.5-2.7c-1.6,0-2.5,1.2-2.5,2.6v0
						c0,1.4,1,2.7,2.5,2.7C313.2,471.3,314.1,470.1,314.1,468.7z"/>
					<path fill="#FFFFFF" d="M318.4,468.7L318.4,468.7c0-2.8,2.1-5.1,5.1-5.1c1.8,0,3,0.6,3.9,1.6l-1.7,1.8
						c-0.6-0.6-1.2-1.1-2.2-1.1c-1.4,0-2.3,1.2-2.3,2.6v0c0,1.5,1,2.7,2.4,2.7c0.9,0,1.5-0.4,2.2-1l1.6,1.6c-0.9,1-2,1.8-3.9,1.8
						C320.5,473.7,318.4,471.4,318.4,468.7z"/>
					<path fill="#FFFFFF" d="M328.5,470.7L328.5,470.7c0-2.1,1.6-3.1,3.9-3.1c1,0,1.7,0.2,2.4,0.4v-0.2c0-1.1-0.7-1.8-2.1-1.8
						c-1,0-1.8,0.2-2.7,0.5l-0.7-2.1c1.1-0.5,2.1-0.8,3.7-0.8c1.5,0,2.6,0.4,3.3,1.1c0.7,0.7,1,1.8,1,3.1v5.6h-2.6v-1
						c-0.7,0.7-1.6,1.2-2.9,1.2C330,473.6,328.5,472.6,328.5,470.7z M334.8,470.1v-0.5c-0.5-0.2-1.1-0.4-1.7-0.4
						c-1.2,0-1.9,0.5-1.9,1.3v0c0,0.7,0.6,1.2,1.5,1.2C333.9,471.8,334.8,471.1,334.8,470.1z"/>
					<path fill="#FFFFFF" d="M339.9,460.3h2.7v13.1h-2.7V460.3z"/>
					<path fill="#FFFFFF" d="M350.6,463.8h2.7v1.4c0.6-0.8,1.5-1.5,2.8-1.5c1.3,0,2.2,0.6,2.7,1.5c0.8-1,1.9-1.5,3.2-1.5
						c2,0,3.3,1.2,3.3,3.5v6.3h-2.7v-5.4c0-1.3-0.6-2-1.6-2s-1.7,0.7-1.7,2v5.4h-2.7v-5.4c0-1.3-0.6-2-1.6-2s-1.7,0.7-1.7,2v5.4
						h-2.7V463.8z"/>
					<path fill="#FFFFFF" d="M367.1,470.7L367.1,470.7c0-2.1,1.6-3.1,3.9-3.1c1,0,1.7,0.2,2.4,0.4v-0.2c0-1.1-0.7-1.8-2.1-1.8
						c-1,0-1.8,0.2-2.7,0.5l-0.7-2.1c1.1-0.5,2.1-0.8,3.7-0.8c1.5,0,2.6,0.4,3.3,1.1c0.7,0.7,1,1.8,1,3.1v5.6h-2.6v-1
						c-0.7,0.7-1.6,1.2-2.9,1.2C368.6,473.6,367.1,472.6,367.1,470.7z M373.4,470.1v-0.5c-0.5-0.2-1.1-0.4-1.7-0.4
						c-1.2,0-1.9,0.5-1.9,1.3v0c0,0.7,0.6,1.2,1.5,1.2C372.5,471.8,373.4,471.1,373.4,470.1z"/>
					<path fill="#FFFFFF" d="M377.9,468.7L377.9,468.7c0-2.8,2.1-5.1,5.1-5.1c1.8,0,3,0.6,3.9,1.6l-1.7,1.8
						c-0.6-0.6-1.2-1.1-2.2-1.1c-1.4,0-2.3,1.2-2.3,2.6v0c0,1.5,1,2.7,2.4,2.7c0.9,0,1.5-0.4,2.2-1l1.6,1.6c-0.9,1-2,1.8-3.9,1.8
						C380,473.7,377.9,471.4,377.9,468.7z"/>
					<path fill="#FFFFFF" d="M388.6,460.3h2.7v4.9c0.6-0.8,1.4-1.5,2.8-1.5c2.1,0,3.3,1.4,3.3,3.6v6.2h-2.7v-5.4c0-1.3-0.6-2-1.7-2
						c-1,0-1.7,0.7-1.7,2v5.4h-2.7V460.3z"/>
					<path fill="#FFFFFF" d="M399.9,460.3h2.9v2.4h-2.9V460.3z M400,463.8h2.7v9.7H400V463.8z"/>
					<path fill="#FFFFFF" d="M405.3,463.8h2.7v1.4c0.6-0.8,1.4-1.5,2.8-1.5c2.1,0,3.3,1.4,3.3,3.6v6.2h-2.7v-5.4c0-1.3-0.6-2-1.7-2
						c-1,0-1.7,0.7-1.7,2v5.4h-2.7V463.8z"/>
					<path fill="#FFFFFF" d="M416,468.7L416,468.7c0-2.8,2-5.1,4.8-5.1c3.2,0,4.7,2.5,4.7,5.2c0,0.2,0,0.5,0,0.7h-6.7
						c0.3,1.2,1.1,1.9,2.4,1.9c0.9,0,1.6-0.3,2.3-1l1.6,1.4c-0.9,1.1-2.2,1.8-3.9,1.8C418.2,473.7,416,471.6,416,468.7z
						 M422.8,467.9c-0.2-1.2-0.9-2.1-2-2.1c-1.1,0-1.9,0.8-2.1,2.1H422.8z"/>
				</g>
			</g>
			<g>
				<g>
					<path fill="#FFFFFF" d="M410,421.6h-94.4c-2.4,0-4.3-1.9-4.3-4.3v-60.1c0-2.4,1.9-4.3,4.3-4.3H410c2.4,0,4.3,1.9,4.3,4.3v60.1
						C414.3,419.7,412.4,421.6,410,421.6L410,421.6z M320,413h85.8v-51.5H320V413L320,413z"/>
				</g>
				<g>
					<path fill="#FFFFFF" d="M401.5,410.9h-77.2c-1.2,0-2.1-1-2.1-2.1v-42.9c0-1.2,1-2.1,2.1-2.1h77.2c1.2,0,2.1,1,2.1,2.1v42.9
						C403.6,409.9,402.6,410.9,401.5,410.9L401.5,410.9z M326.4,406.6h72.9V368h-72.9V406.6L326.4,406.6z"/>
				</g>
				<g>
					<path fill="#FFFFFF" d="M423.3,434.1H303.9c-2.4,0-4.3-1.9-4.3-4.3c0-2.4,1.9-4.3,4.3-4.3h119.4c2.4,0,4.3,1.9,4.3,4.3
						C427.6,432.2,425.6,434.1,423.3,434.1L423.3,434.1z"/>
				</g>
			</g>
		</g>
		<rect x="268.5" y="497" fill="#645243" width="190.2" height="41.9"/>
		<g>
			<path fill="#FFFFFF" d="M304.2,519.2L304.2,519.2c0-3.3,2.1-5,4.4-5c1.5,0,2.4,0.7,3,1.4v-4.8h2.7V524h-2.7v-1.4
				c-0.7,0.9-1.6,1.6-3,1.6C306.3,524.2,304.2,522.5,304.2,519.2z M311.6,519.2L311.6,519.2c0-1.6-1.1-2.7-2.3-2.7s-2.4,1-2.4,2.7v0
				c0,1.6,1.1,2.7,2.4,2.7S311.6,520.8,311.6,519.2z"/>
			<path fill="#FFFFFF" d="M316.3,519.3L316.3,519.3c0-2.8,2-5.1,4.8-5.1c3.2,0,4.7,2.5,4.7,5.2c0,0.2,0,0.5,0,0.7H319
				c0.3,1.2,1.1,1.9,2.4,1.9c0.9,0,1.6-0.3,2.3-1l1.6,1.4c-0.9,1.1-2.2,1.8-3.9,1.8C318.4,524.3,316.3,522.2,316.3,519.3z
				 M323.1,518.5c-0.2-1.2-0.9-2.1-2-2.1c-1.1,0-1.9,0.8-2.1,2.1H323.1z"/>
			<path fill="#FFFFFF" d="M326.5,514.4h2.9l2.2,6.5l2.2-6.5h2.8l-3.8,9.7h-2.5L326.5,514.4z"/>
			<path fill="#FFFFFF" d="M337.1,519.3L337.1,519.3c0-2.8,2-5.1,4.8-5.1c3.2,0,4.7,2.5,4.7,5.2c0,0.2,0,0.5,0,0.7h-6.7
				c0.3,1.2,1.1,1.9,2.4,1.9c0.9,0,1.6-0.3,2.3-1l1.6,1.4c-0.9,1.1-2.2,1.8-3.9,1.8C339.3,524.3,337.1,522.2,337.1,519.3z
				 M344,518.5c-0.2-1.2-0.9-2.1-2-2.1c-1.1,0-1.9,0.8-2.1,2.1H344z"/>
			<path fill="#FFFFFF" d="M348.8,510.9h2.7V524h-2.7V510.9z"/>
			<path fill="#FFFFFF" d="M353.6,519.3L353.6,519.3c0-2.8,2.2-5.1,5.2-5.1c3,0,5.2,2.2,5.2,5v0c0,2.8-2.2,5-5.2,5
				C355.8,524.3,353.6,522,353.6,519.3z M361.4,519.3L361.4,519.3c0-1.5-1-2.7-2.5-2.7c-1.6,0-2.5,1.2-2.5,2.6v0
				c0,1.4,1,2.7,2.5,2.7C360.4,521.9,361.4,520.7,361.4,519.3z"/>
			<path fill="#FFFFFF" d="M366,514.4h2.7v1.4c0.7-0.9,1.6-1.6,3-1.6c2.3,0,4.4,1.8,4.4,5v0c0,3.2-2.1,5-4.4,5c-1.5,0-2.4-0.7-3-1.4
				v4.1H366V514.4z M373.4,519.2L373.4,519.2c0-1.6-1.1-2.7-2.4-2.7c-1.3,0-2.3,1.1-2.3,2.7v0c0,1.6,1.1,2.7,2.3,2.7
				C372.4,521.9,373.4,520.9,373.4,519.2z"/>
			<path fill="#FFFFFF" d="M378.2,514.4h2.7v1.4c0.6-0.8,1.5-1.5,2.8-1.5c1.3,0,2.2,0.6,2.7,1.5c0.8-1,1.9-1.5,3.2-1.5
				c2,0,3.3,1.2,3.3,3.5v6.3h-2.7v-5.4c0-1.3-0.6-2-1.6-2c-1,0-1.7,0.7-1.7,2v5.4h-2.7v-5.4c0-1.3-0.6-2-1.6-2s-1.7,0.7-1.7,2v5.4
				h-2.7V514.4z"/>
			<path fill="#FFFFFF" d="M394.8,519.3L394.8,519.3c0-2.8,2-5.1,4.8-5.1c3.2,0,4.7,2.5,4.7,5.2c0,0.2,0,0.5,0,0.7h-6.7
				c0.3,1.2,1.1,1.9,2.4,1.9c0.9,0,1.6-0.3,2.3-1l1.6,1.4c-0.9,1.1-2.2,1.8-3.9,1.8C397,524.3,394.8,522.2,394.8,519.3z
				 M401.6,518.5c-0.2-1.2-0.9-2.1-2-2.1c-1.1,0-1.9,0.8-2.1,2.1H401.6z"/>
			<path fill="#FFFFFF" d="M406.3,514.4h2.7v1.4c0.6-0.8,1.4-1.5,2.8-1.5c2.1,0,3.3,1.4,3.3,3.6v6.2h-2.7v-5.4c0-1.3-0.6-2-1.7-2
				c-1,0-1.7,0.7-1.7,2v5.4h-2.7V514.4z"/>
			<path fill="#FFFFFF" d="M418,521.3v-4.6h-1.2v-2.3h1.2v-2.5h2.7v2.5h2.3v2.3h-2.3v4.1c0,0.6,0.3,0.9,0.9,0.9c0.5,0,1-0.1,1.4-0.3
				v2.2c-0.6,0.3-1.2,0.6-2.2,0.6C419.1,524.2,418,523.5,418,521.3z"/>
		</g>
	</g>
</g>
<g>
	<path fill="#FFFFFF" d="M1018.9,35.2L1018.9,35.2c0-2.8,2-5.1,4.8-5.1c3.2,0,4.7,2.5,4.7,5.2c0,0.2,0,0.5,0,0.7h-6.7
		c0.3,1.2,1.1,1.9,2.4,1.9c0.9,0,1.6-0.3,2.3-1l1.6,1.4c-0.9,1.1-2.2,1.8-3.9,1.8C1021,40.2,1018.9,38.2,1018.9,35.2z M1025.7,34.4
		c-0.2-1.2-0.9-2.1-2-2.1c-1.1,0-1.9,0.8-2.1,2.1H1025.7z"/>
	<path fill="#FFFFFF" d="M1030.4,30.3h2.7v1.4c0.6-0.8,1.4-1.5,2.8-1.5c2.1,0,3.3,1.4,3.3,3.6V40h-2.7v-5.4c0-1.3-0.6-2-1.7-2
		s-1.7,0.7-1.7,2V40h-2.7V30.3z"/>
	<path fill="#FFFFFF" d="M1040.4,30.3h2.9l2.2,6.5l2.2-6.5h2.8l-3.8,9.7h-2.5L1040.4,30.3z"/>
	<path fill="#FFFFFF" d="M1052.1,26.8h2.9v2.4h-2.9V26.8z M1052.2,30.3h2.7V40h-2.7V30.3z"/>
	<path fill="#FFFFFF" d="M1057.5,30.3h2.7v1.9c0.6-1.3,1.5-2.2,3.1-2.1V33h-0.1c-1.8,0-2.9,1.1-2.9,3.4V40h-2.7V30.3z"/>
	<path fill="#FFFFFF" d="M1064.3,35.2L1064.3,35.2c0-2.8,2.2-5.1,5.2-5.1c3,0,5.2,2.2,5.2,5v0c0,2.8-2.2,5-5.2,5
		C1066.5,40.2,1064.3,38,1064.3,35.2z M1072,35.2L1072,35.2c0-1.5-1-2.7-2.5-2.7c-1.6,0-2.5,1.2-2.5,2.6v0c0,1.4,1,2.7,2.5,2.7
		C1071.1,37.8,1072,36.6,1072,35.2z"/>
	<path fill="#FFFFFF" d="M1076.7,30.3h2.7v1.4c0.6-0.8,1.4-1.5,2.8-1.5c2.1,0,3.3,1.4,3.3,3.6V40h-2.7v-5.4c0-1.3-0.6-2-1.7-2
		c-1,0-1.7,0.7-1.7,2V40h-2.7V30.3z"/>
	<path fill="#FFFFFF" d="M1087.9,30.3h2.7v1.4c0.6-0.8,1.5-1.5,2.8-1.5c1.3,0,2.2,0.6,2.7,1.5c0.8-1,1.9-1.5,3.2-1.5
		c2,0,3.3,1.2,3.3,3.5V40h-2.7v-5.4c0-1.3-0.6-2-1.6-2s-1.7,0.7-1.7,2V40h-2.7v-5.4c0-1.3-0.6-2-1.6-2s-1.7,0.7-1.7,2V40h-2.7V30.3z
		"/>
	<path fill="#FFFFFF" d="M1104.5,35.2L1104.5,35.2c0-2.8,2-5.1,4.8-5.1c3.2,0,4.7,2.5,4.7,5.2c0,0.2,0,0.5,0,0.7h-6.7
		c0.3,1.2,1.1,1.9,2.4,1.9c0.9,0,1.6-0.3,2.3-1l1.6,1.4c-0.9,1.1-2.2,1.8-3.9,1.8C1106.7,40.2,1104.5,38.2,1104.5,35.2z
		 M1111.4,34.4c-0.2-1.2-0.9-2.1-2-2.1c-1.1,0-1.9,0.8-2.1,2.1H1111.4z"/>
	<path fill="#FFFFFF" d="M1116.1,30.3h2.7v1.4c0.6-0.8,1.4-1.5,2.8-1.5c2.1,0,3.3,1.4,3.3,3.6V40h-2.7v-5.4c0-1.3-0.6-2-1.7-2
		c-1,0-1.7,0.7-1.7,2V40h-2.7V30.3z"/>
	<path fill="#FFFFFF" d="M1127.7,37.2v-4.6h-1.2v-2.3h1.2v-2.5h2.7v2.5h2.3v2.3h-2.3v4.1c0,0.6,0.3,0.9,0.9,0.9c0.5,0,1-0.1,1.4-0.3
		v2.2c-0.6,0.3-1.2,0.6-2.2,0.6C1128.8,40.1,1127.7,39.5,1127.7,37.2z"/>
	<path fill="#FFFFFF" d="M1134,38.7l1.2-1.8c1,0.8,2.1,1.2,3,1.2c0.8,0,1.2-0.3,1.2-0.7v0c0-0.6-0.9-0.8-2-1.1
		c-1.4-0.4-2.9-1-2.9-2.9v0c0-2,1.6-3.1,3.5-3.1c1.2,0,2.6,0.4,3.6,1.1l-1,1.9c-1-0.6-1.9-0.9-2.6-0.9c-0.7,0-1,0.3-1,0.7v0
		c0,0.5,0.9,0.8,2,1.2c1.3,0.5,2.9,1.1,2.9,2.9v0c0,2.1-1.6,3.1-3.7,3.1C1136.8,40.2,1135.3,39.7,1134,38.7z"/>
</g>
<g>
	<path fill="#FFFFFF" d="M1035.1,94h2.7v2.2c0.6-1.5,1.5-2.5,3.1-2.4v3.2h-0.1c-1.8,0-2.9,1.2-2.9,3.9v4h-2.7V94z"/>
	<path fill="#FFFFFF" d="M1041.8,99.6L1041.8,99.6c0-3.2,2.2-5.7,5.2-5.7c3,0,5.2,2.5,5.2,5.7v0c0,3.1-2.2,5.7-5.2,5.7
		C1044.1,105.2,1041.8,102.7,1041.8,99.6z M1049.6,99.6L1049.6,99.6c0-1.7-1-3.1-2.5-3.1c-1.6,0-2.5,1.4-2.5,3v0c0,1.6,1,3,2.5,3
		C1048.7,102.5,1049.6,101.2,1049.6,99.6z"/>
	<path fill="#FFFFFF" d="M1054.4,90.1h2.7V105h-2.7V90.1z"/>
	<path fill="#FFFFFF" d="M1059.2,99.6L1059.2,99.6c0-3.2,2-5.7,4.8-5.7c3.2,0,4.7,2.8,4.7,5.9c0,0.2,0,0.5,0,0.8h-6.7
		c0.3,1.4,1.1,2.1,2.4,2.1c0.9,0,1.6-0.3,2.3-1.1l1.6,1.6c-0.9,1.3-2.2,2-3.9,2C1061.4,105.2,1059.2,102.9,1059.2,99.6z M1066,98.6
		c-0.2-1.4-0.9-2.3-2-2.3c-1.1,0-1.9,0.9-2.1,2.3H1066z"/>
	<path fill="#FFFFFF" d="M1070,103.5l1.2-2c1,0.9,2.1,1.3,3,1.3c0.8,0,1.2-0.3,1.2-0.8v0c0-0.7-0.9-0.9-2-1.3
		c-1.4-0.4-2.9-1.2-2.9-3.3v0c0-2.2,1.6-3.5,3.5-3.5c1.2,0,2.6,0.5,3.6,1.3l-1,2.1c-1-0.6-1.9-1-2.6-1c-0.7,0-1,0.3-1,0.8v0
		c0,0.6,0.9,0.9,2,1.3c1.4,0.5,2.9,1.2,2.9,3.2v0c0,2.4-1.6,3.5-3.7,3.5C1072.8,105.2,1071.3,104.7,1070,103.5z"/>
</g>
</svg>
