<?xml version="1.0" encoding="utf-8"?>
<!-- Generator: Adobe Illustrator 19.1.0, SVG Export Plug-In . SVG Version: 6.00 Build 0)  -->
<svg version="1.1" id="Layer_1" xmlns="http://www.w3.org/2000/svg" xmlns:xlink="http://www.w3.org/1999/xlink" x="0px" y="0px"
	 viewBox="0 0 860 292.7" enable-background="new 0 0 860 292.7" xml:space="preserve">
<rect fill="none" width="860" height="292.7"/>
<g>
	<rect x="53.1" y="28.6" fill="#FFFFFF" width="753.8" height="159.9"/>
	<g>
		<g>
			<rect x="183.1" y="38.6" fill="#FFFFFF" width="133.8" height="133.8"/>
			<g>
				<path fill="#E6E7E8" d="M213.4,154.2h2.2v1.1c0.5-0.7,1.3-1.2,2.4-1.2c1.8,0,3.5,1.4,3.5,3.9v0c0,2.5-1.7,3.9-3.5,3.9
					c-1.2,0-1.9-0.5-2.4-1.1v3.3h-2.2V154.2z M219.3,158.1L219.3,158.1c0-1.3-0.9-2.1-1.9-2.1s-1.9,0.8-1.9,2.1v0
					c0,1.3,0.8,2.1,1.9,2.1S219.3,159.3,219.3,158.1z"/>
				<path fill="#E6E7E8" d="M223,154.2h2.2v1.5c0.4-1.1,1.2-1.7,2.4-1.7v2.3h-0.1c-1.4,0-2.3,0.9-2.3,2.7v2.8H223V154.2z"/>
				<path fill="#E6E7E8" d="M228.4,158.1L228.4,158.1c0-2.2,1.8-4,4.1-4c2.4,0,4.1,1.8,4.1,3.9v0c0,2.2-1.8,4-4.1,4
					C230.1,162,228.4,160.3,228.4,158.1z M234.5,158.1L234.5,158.1c0-1.2-0.8-2.1-2-2.1c-1.2,0-2,1-2,2.1v0c0,1.1,0.8,2.1,2,2.1
					C233.8,160.2,234.5,159.2,234.5,158.1z"/>
				<path fill="#E6E7E8" d="M238.2,154.2h2.2v1.1c0.5-0.7,1.3-1.2,2.4-1.2c1.8,0,3.5,1.4,3.5,3.9v0c0,2.5-1.7,3.9-3.5,3.9
					c-1.2,0-1.9-0.5-2.4-1.1v3.3h-2.2V154.2z M244.1,158.1L244.1,158.1c0-1.3-0.9-2.1-1.9-2.1s-1.9,0.8-1.9,2.1v0
					c0,1.3,0.8,2.1,1.9,2.1S244.1,159.3,244.1,158.1z"/>
				<path fill="#E6E7E8" d="M247.4,158.1L247.4,158.1c0-2.2,1.6-4,3.8-4c2.5,0,3.7,2,3.7,4.1c0,0.2,0,0.4,0,0.6h-5.3
					c0.2,1,0.9,1.5,1.9,1.5c0.7,0,1.3-0.2,1.9-0.8l1.2,1.1c-0.7,0.9-1.7,1.4-3.1,1.4C249.1,162,247.4,160.4,247.4,158.1z
					 M252.8,157.4c-0.1-1-0.7-1.6-1.6-1.6c-0.9,0-1.5,0.6-1.7,1.6H252.8z"/>
				<path fill="#E6E7E8" d="M256.5,154.2h2.2v1.5c0.4-1.1,1.2-1.7,2.4-1.7v2.3H261c-1.4,0-2.3,0.9-2.3,2.7v2.8h-2.2V154.2z"/>
				<path fill="#E6E7E8" d="M262.8,159.7v-3.6h-0.9v-1.9h0.9v-2h2.2v2h1.8v1.9H265v3.3c0,0.5,0.2,0.7,0.7,0.7c0.4,0,0.8-0.1,1.1-0.3
					v1.7c-0.5,0.3-1,0.4-1.7,0.4C263.7,162,262.8,161.5,262.8,159.7z"/>
				<path fill="#E6E7E8" d="M268.4,151.5h2.3v1.9h-2.3V151.5z M268.5,154.2h2.2v7.6h-2.2V154.2z"/>
				<path fill="#E6E7E8" d="M272.3,158.1L272.3,158.1c0-2.2,1.6-4,3.8-4c2.5,0,3.7,2,3.7,4.1c0,0.2,0,0.4,0,0.6h-5.3
					c0.2,1,0.9,1.5,1.9,1.5c0.7,0,1.3-0.2,1.9-0.8l1.2,1.1c-0.7,0.9-1.7,1.4-3.1,1.4C274,162,272.3,160.4,272.3,158.1z M277.7,157.4
					c-0.1-1-0.7-1.6-1.6-1.6c-0.9,0-1.5,0.6-1.7,1.6H277.7z"/>
				<path fill="#E6E7E8" d="M280.8,160.8l0.9-1.4c0.8,0.6,1.7,0.9,2.4,0.9c0.6,0,0.9-0.2,0.9-0.6v0c0-0.5-0.7-0.6-1.6-0.9
					c-1.1-0.3-2.3-0.8-2.3-2.3v0c0-1.6,1.3-2.4,2.8-2.4c1,0,2,0.3,2.8,0.9l-0.8,1.5c-0.8-0.4-1.5-0.7-2.1-0.7
					c-0.5,0-0.8,0.2-0.8,0.5v0c0,0.4,0.7,0.6,1.6,0.9c1.1,0.4,2.3,0.9,2.3,2.3v0c0,1.7-1.3,2.5-2.9,2.5
					C283,162,281.8,161.6,280.8,160.8z"/>
			</g>
		</g>
		<g>
			<g>
				<g>
					<path fill="#E6E7E8" d="M248.6,90.4c-4.2,0-7.6-3.4-7.6-7.6c0-4.2,3.4-7.6,7.6-7.6c4.2,0,7.6,3.4,7.6,7.6
						C256.2,86.9,252.8,90.4,248.6,90.4L248.6,90.4z M248.6,77.6c-2.8,0-5.1,2.3-5.1,5.1c0,2.8,2.3,5.1,5.1,5.1
						c2.8,0,5.1-2.3,5.1-5.1C253.7,79.9,251.4,77.6,248.6,77.6L248.6,77.6z"/>
				</g>
				<g>
					<g>
						<path fill="#E6E7E8" d="M243.8,79.2c-0.3,0-0.6-0.1-0.9-0.4l-1.8-1.8c-0.5-0.5-0.5-1.3,0-1.8c0.5-0.5,1.3-0.5,1.8,0l1.8,1.8
							c0.5,0.5,0.5,1.3,0,1.8C244.5,79.1,244.1,79.2,243.8,79.2L243.8,79.2z"/>
					</g>
					<g>
						<path fill="#E6E7E8" d="M255.2,90.6c-0.3,0-0.6-0.1-0.9-0.4l-2.1-2.1c-0.5-0.5-0.5-1.3,0-1.8c0.5-0.5,1.3-0.5,1.8,0l2.1,2.1
							c0.5,0.5,0.5,1.3,0,1.8C255.8,90.4,255.5,90.6,255.2,90.6L255.2,90.6z"/>
					</g>
				</g>
				<g>
					<g>
						<path fill="#E6E7E8" d="M253.4,79.2c-0.3,0-0.6-0.1-0.9-0.4c-0.5-0.5-0.5-1.3,0-1.8l1.8-1.8c0.5-0.5,1.3-0.5,1.8,0
							c0.5,0.5,0.5,1.3,0,1.8l-1.8,1.8C254.1,79.1,253.7,79.2,253.4,79.2L253.4,79.2z"/>
					</g>
					<g>
						<path fill="#E6E7E8" d="M242,90.6c-0.3,0-0.6-0.1-0.9-0.4c-0.5-0.5-0.5-1.3,0-1.8l2.1-2.1c0.5-0.5,1.3-0.5,1.8,0
							c0.5,0.5,0.5,1.3,0,1.8l-2.1,2.1C242.7,90.4,242.4,90.6,242,90.6L242,90.6z"/>
					</g>
				</g>
				<g>
					<g>
						<path fill="#E6E7E8" d="M248.6,77.2c-0.7,0-1.3-0.6-1.3-1.3v-2.5c0-0.7,0.6-1.3,1.3-1.3c0.7,0,1.3,0.6,1.3,1.3v2.5
							C249.9,76.6,249.3,77.2,248.6,77.2L248.6,77.2z"/>
					</g>
					<g>
						<path fill="#E6E7E8" d="M248.6,93.3L248.6,93.3c-0.7,0-1.3-0.6-1.3-1.3l0-3c0-0.7,0.6-1.3,1.3-1.3l0,0c0.7,0,1.3,0.6,1.3,1.3
							l0,3C249.9,92.7,249.3,93.3,248.6,93.3L248.6,93.3z"/>
					</g>
				</g>
				<g>
					<g>
						<path fill="#E6E7E8" d="M257.9,84h-2.5c-0.7,0-1.3-0.6-1.3-1.3c0-0.7,0.6-1.3,1.3-1.3h2.5c0.7,0,1.3,0.6,1.3,1.3
							C259.2,83.4,258.6,84,257.9,84L257.9,84z"/>
					</g>
					<g>
						<path fill="#E6E7E8" d="M242.3,84h-3c-0.7,0-1.3-0.6-1.3-1.3c0-0.7,0.6-1.3,1.3-1.3h3c0.7,0,1.3,0.6,1.3,1.3
							C243.5,83.4,243,84,242.3,84L242.3,84z"/>
					</g>
				</g>
			</g>
		</g>
	</g>
	<g>
		<g>
			<rect x="303.1" y="38.6" fill="#FFFFFF" width="133.8" height="133.8"/>
			<g>
				<path fill="#E6E7E8" d="M344.4,159.7L344.4,159.7c0-1.7,1.3-2.5,3.1-2.5c0.8,0,1.3,0.1,1.9,0.3v-0.1c0-0.9-0.6-1.4-1.6-1.4
					c-0.8,0-1.4,0.2-2.1,0.4l-0.5-1.7c0.8-0.4,1.7-0.6,3-0.6c1.2,0,2,0.3,2.6,0.9c0.6,0.6,0.8,1.4,0.8,2.4v4.4h-2.1V161
					c-0.5,0.6-1.3,1-2.3,1C345.6,162,344.4,161.2,344.4,159.7z M349.4,159.2v-0.4c-0.4-0.2-0.9-0.3-1.4-0.3c-0.9,0-1.5,0.4-1.5,1.1
					v0c0,0.6,0.5,0.9,1.2,0.9C348.7,160.5,349.4,159.9,349.4,159.2z"/>
				<path fill="#E6E7E8" d="M352.9,158.1L352.9,158.1c0-2.2,1.7-4,4-4c1.4,0,2.3,0.5,3,1.3l-1.3,1.4c-0.5-0.5-1-0.8-1.7-0.8
					c-1.1,0-1.9,1-1.9,2.1v0c0,1.2,0.8,2.1,1.9,2.1c0.7,0,1.2-0.3,1.8-0.8l1.3,1.3c-0.7,0.8-1.6,1.4-3.1,1.4
					C354.6,162,352.9,160.3,352.9,158.1z"/>
				<path fill="#E6E7E8" d="M361.8,159.7v-3.6h-0.9v-1.9h0.9v-2h2.2v2h1.8v1.9h-1.8v3.3c0,0.5,0.2,0.7,0.7,0.7
					c0.4,0,0.8-0.1,1.1-0.3v1.7c-0.5,0.3-1,0.4-1.7,0.4C362.7,162,361.8,161.5,361.8,159.7z"/>
				<path fill="#E6E7E8" d="M367.4,151.5h2.3v1.9h-2.3V151.5z M367.4,154.2h2.2v7.6h-2.2V154.2z"/>
				<path fill="#E6E7E8" d="M371.3,158.1L371.3,158.1c0-2.2,1.8-4,4.1-4c2.4,0,4.1,1.8,4.1,3.9v0c0,2.2-1.8,4-4.1,4
					C373,162,371.3,160.3,371.3,158.1z M377.4,158.1L377.4,158.1c0-1.2-0.8-2.1-2-2.1c-1.2,0-2,1-2,2.1v0c0,1.1,0.8,2.1,2,2.1
					C376.6,160.2,377.4,159.2,377.4,158.1z"/>
				<path fill="#E6E7E8" d="M381.1,154.2h2.2v1.1c0.5-0.6,1.1-1.2,2.2-1.2c1.6,0,2.6,1.1,2.6,2.8v4.9h-2.2v-4.3c0-1-0.5-1.6-1.3-1.6
					s-1.4,0.5-1.4,1.6v4.3h-2.2V154.2z"/>
				<path fill="#E6E7E8" d="M389.3,160.8l0.9-1.4c0.8,0.6,1.7,0.9,2.4,0.9c0.6,0,0.9-0.2,0.9-0.6v0c0-0.5-0.7-0.6-1.6-0.9
					c-1.1-0.3-2.3-0.8-2.3-2.3v0c0-1.6,1.3-2.4,2.8-2.4c1,0,2,0.3,2.8,0.9l-0.8,1.5c-0.8-0.4-1.5-0.7-2.1-0.7
					c-0.5,0-0.8,0.2-0.8,0.5v0c0,0.4,0.7,0.6,1.6,0.9c1.1,0.4,2.3,0.9,2.3,2.3v0c0,1.7-1.3,2.5-2.9,2.5
					C391.5,162,390.4,161.6,389.3,160.8z"/>
			</g>
		</g>
		<g>
			<g>
				<g>
					<path fill="#E6E7E8" d="M368.9,107.4c-0.6,0-1.1-0.1-1.6-0.4l-38.9-21.8c-1.1-0.6-1.7-1.7-1.7-2.9s0.7-2.3,1.7-2.9L367,57.8
						c1-0.6,2.3-0.6,3.3,0l38.9,21.8c1.1,0.6,1.7,1.7,1.7,2.9c0,1.2-0.7,2.3-1.7,2.9L370.6,107C370.1,107.3,369.5,107.4,368.9,107.4
						L368.9,107.4z M336.9,82.3l32,17.9l31.7-17.8l-32-17.9L336.9,82.3L336.9,82.3z"/>
				</g>
			</g>
			<g>
				<g>
					<path fill="#E6E7E8" d="M368.6,90.4c-4.2,0-7.6-3.4-7.6-7.6c0-4.2,3.4-7.6,7.6-7.6c4.2,0,7.6,3.4,7.6,7.6
						C376.2,86.9,372.8,90.4,368.6,90.4L368.6,90.4z M368.6,77.6c-2.8,0-5.1,2.3-5.1,5.1c0,2.8,2.3,5.1,5.1,5.1
						c2.8,0,5.1-2.3,5.1-5.1C373.7,79.9,371.4,77.6,368.6,77.6L368.6,77.6z"/>
				</g>
				<g>
					<g>
						<path fill="#E6E7E8" d="M363.8,79.2c-0.3,0-0.6-0.1-0.9-0.4l-1.8-1.8c-0.5-0.5-0.5-1.3,0-1.8c0.5-0.5,1.3-0.5,1.8,0l1.8,1.8
							c0.5,0.5,0.5,1.3,0,1.8C364.5,79.1,364.1,79.2,363.8,79.2L363.8,79.2z"/>
					</g>
					<g>
						<path fill="#E6E7E8" d="M375.2,90.6c-0.3,0-0.6-0.1-0.9-0.4l-2.1-2.1c-0.5-0.5-0.5-1.3,0-1.8c0.5-0.5,1.3-0.5,1.8,0l2.1,2.1
							c0.5,0.5,0.5,1.3,0,1.8C375.8,90.4,375.5,90.6,375.2,90.6L375.2,90.6z"/>
					</g>
				</g>
				<g>
					<g>
						<path fill="#E6E7E8" d="M373.4,79.2c-0.3,0-0.6-0.1-0.9-0.4c-0.5-0.5-0.5-1.3,0-1.8l1.8-1.8c0.5-0.5,1.3-0.5,1.8,0
							c0.5,0.5,0.5,1.3,0,1.8l-1.8,1.8C374.1,79.1,373.7,79.2,373.4,79.2L373.4,79.2z"/>
					</g>
					<g>
						<path fill="#E6E7E8" d="M362,90.6c-0.3,0-0.6-0.1-0.9-0.4c-0.5-0.5-0.5-1.3,0-1.8l2.1-2.1c0.5-0.5,1.3-0.5,1.8,0
							c0.5,0.5,0.5,1.3,0,1.8l-2.1,2.1C362.7,90.4,362.4,90.6,362,90.6L362,90.6z"/>
					</g>
				</g>
				<g>
					<g>
						<path fill="#E6E7E8" d="M368.6,77.2c-0.7,0-1.3-0.6-1.3-1.3v-2.5c0-0.7,0.6-1.3,1.3-1.3c0.7,0,1.3,0.6,1.3,1.3v2.5
							C369.9,76.6,369.3,77.2,368.6,77.2L368.6,77.2z"/>
					</g>
					<g>
						<path fill="#E6E7E8" d="M368.6,93.3L368.6,93.3c-0.7,0-1.3-0.6-1.3-1.3l0-3c0-0.7,0.6-1.3,1.3-1.3l0,0c0.7,0,1.3,0.6,1.3,1.3
							l0,3C369.9,92.7,369.3,93.3,368.6,93.3L368.6,93.3z"/>
					</g>
				</g>
				<g>
					<g>
						<path fill="#E6E7E8" d="M377.9,84h-2.5c-0.7,0-1.3-0.6-1.3-1.3c0-0.7,0.6-1.3,1.3-1.3h2.5c0.7,0,1.3,0.6,1.3,1.3
							C379.2,83.4,378.6,84,377.9,84L377.9,84z"/>
					</g>
					<g>
						<path fill="#E6E7E8" d="M362.3,84h-3c-0.7,0-1.3-0.6-1.3-1.3c0-0.7,0.6-1.3,1.3-1.3h3c0.7,0,1.3,0.6,1.3,1.3
							C363.5,83.4,363,84,362.3,84L362.3,84z"/>
					</g>
				</g>
			</g>
		</g>
	</g>
	<g>
		<rect x="423.1" y="38.6" fill="#FFFFFF" width="133.8" height="133.8"/>
		<g>
			<path fill="#E6E7E8" d="M459.8,154.2h2.2v1.5c0.4-1.1,1.2-1.7,2.4-1.7v2.3h-0.1c-1.4,0-2.3,0.9-2.3,2.7v2.8h-2.2V154.2z"/>
			<path fill="#E6E7E8" d="M465.2,158.1L465.2,158.1c0-2.2,1.6-4,3.8-4c2.5,0,3.7,2,3.7,4.1c0,0.2,0,0.4,0,0.6h-5.3
				c0.2,1,0.9,1.5,1.9,1.5c0.7,0,1.3-0.2,1.9-0.8l1.2,1.1c-0.7,0.9-1.7,1.4-3.1,1.4C466.9,162,465.2,160.4,465.2,158.1z
				 M470.6,157.4c-0.1-1-0.7-1.6-1.6-1.6c-0.9,0-1.5,0.6-1.7,1.6H470.6z"/>
			<path fill="#E6E7E8" d="M473.7,160.8l0.9-1.4c0.8,0.6,1.7,0.9,2.4,0.9c0.6,0,0.9-0.2,0.9-0.6v0c0-0.5-0.7-0.6-1.6-0.9
				c-1.1-0.3-2.3-0.8-2.3-2.3v0c0-1.6,1.3-2.4,2.8-2.4c1,0,2,0.3,2.8,0.9l-0.8,1.5c-0.8-0.4-1.5-0.7-2.1-0.7c-0.5,0-0.8,0.2-0.8,0.5
				v0c0,0.4,0.7,0.6,1.6,0.9c1.1,0.4,2.3,0.9,2.3,2.3v0c0,1.7-1.3,2.5-2.9,2.5C475.9,162,474.7,161.6,473.7,160.8z"/>
			<path fill="#E6E7E8" d="M481.1,158.1L481.1,158.1c0-2.2,1.8-4,4.1-4c2.4,0,4.1,1.8,4.1,3.9v0c0,2.2-1.8,4-4.1,4
				C482.8,162,481.1,160.3,481.1,158.1z M487.2,158.1L487.2,158.1c0-1.2-0.8-2.1-2-2.1c-1.2,0-2,1-2,2.1v0c0,1.1,0.8,2.1,2,2.1
				C486.5,160.2,487.2,159.2,487.2,158.1z"/>
			<path fill="#E6E7E8" d="M490.8,159.2v-4.9h2.2v4.3c0,1,0.5,1.6,1.3,1.6s1.4-0.5,1.4-1.6v-4.3h2.2v7.6h-2.2v-1.1
				c-0.5,0.6-1.1,1.2-2.2,1.2C491.8,162,490.8,160.9,490.8,159.2z"/>
			<path fill="#E6E7E8" d="M499.8,154.2h2.2v1.5c0.4-1.1,1.2-1.7,2.4-1.7v2.3h-0.1c-1.4,0-2.3,0.9-2.3,2.7v2.8h-2.2V154.2z"/>
			<path fill="#E6E7E8" d="M505.1,158.1L505.1,158.1c0-2.2,1.7-4,4-4c1.4,0,2.3,0.5,3,1.3l-1.3,1.4c-0.5-0.5-1-0.8-1.7-0.8
				c-1.1,0-1.9,1-1.9,2.1v0c0,1.2,0.8,2.1,1.9,2.1c0.7,0,1.2-0.3,1.8-0.8l1.3,1.3c-0.7,0.8-1.6,1.4-3.1,1.4
				C506.8,162,505.1,160.3,505.1,158.1z"/>
			<path fill="#E6E7E8" d="M513,158.1L513,158.1c0-2.2,1.6-4,3.8-4c2.5,0,3.7,2,3.7,4.1c0,0.2,0,0.4,0,0.6h-5.3
				c0.2,1,0.9,1.5,1.9,1.5c0.7,0,1.3-0.2,1.9-0.8l1.2,1.1c-0.7,0.9-1.7,1.4-3.1,1.4C514.7,162,513,160.4,513,158.1z M518.4,157.4
				c-0.1-1-0.7-1.6-1.6-1.6c-0.9,0-1.5,0.6-1.7,1.6H518.4z"/>
		</g>
		<g>
			<g>
				<g>
					<path fill="#E6E7E8" d="M488.9,107.4c-0.6,0-1.1-0.1-1.6-0.4l-38.9-21.8c-1.1-0.6-1.7-1.7-1.7-2.9s0.7-2.3,1.7-2.9L487,57.8
						c1-0.6,2.3-0.6,3.3,0l38.9,21.8c1.1,0.6,1.7,1.7,1.7,2.9c0,1.2-0.7,2.3-1.7,2.9L490.6,107C490.1,107.3,489.5,107.4,488.9,107.4
						L488.9,107.4z M456.9,82.3l32,17.9l31.7-17.8l-32-17.9L456.9,82.3L456.9,82.3z"/>
				</g>
				<g>
					<path fill="#E6E7E8" d="M488.9,122.4c-0.6,0-1.1-0.1-1.6-0.4l-38.9-21.8c-1.6-0.9-2.2-2.9-1.3-4.5c0.9-1.6,2.9-2.2,4.5-1.3
						l37.2,20.8l36.9-20.7c1.6-0.9,3.6-0.3,4.5,1.3c0.9,1.6,0.3,3.6-1.3,4.5L490.6,122C490.1,122.3,489.5,122.4,488.9,122.4
						L488.9,122.4z"/>
				</g>
				<g>
					<path fill="#E6E7E8" d="M488.9,137.5c-0.6,0-1.1-0.1-1.6-0.4l-38.9-21.8c-1.6-0.9-2.2-2.9-1.3-4.5c0.9-1.6,2.9-2.2,4.5-1.3
						l37.2,20.8l36.9-20.7c1.6-0.9,3.6-0.3,4.5,1.3c0.9,1.6,0.3,3.6-1.3,4.5L490.6,137C490.1,137.3,489.5,137.5,488.9,137.5
						L488.9,137.5z"/>
				</g>
			</g>
			<g>
				<g>
					<path fill="#E6E7E8" d="M488.6,90.4c-4.2,0-7.6-3.4-7.6-7.6c0-4.2,3.4-7.6,7.6-7.6c4.2,0,7.6,3.4,7.6,7.6
						C496.2,86.9,492.8,90.4,488.6,90.4L488.6,90.4z M488.6,77.6c-2.8,0-5.1,2.3-5.1,5.1c0,2.8,2.3,5.1,5.1,5.1
						c2.8,0,5.1-2.3,5.1-5.1C493.7,79.9,491.4,77.6,488.6,77.6L488.6,77.6z"/>
				</g>
				<g>
					<g>
						<path fill="#E6E7E8" d="M483.8,79.2c-0.3,0-0.6-0.1-0.9-0.4l-1.8-1.8c-0.5-0.5-0.5-1.3,0-1.8c0.5-0.5,1.3-0.5,1.8,0l1.8,1.8
							c0.5,0.5,0.5,1.3,0,1.8C484.5,79.1,484.1,79.2,483.8,79.2L483.8,79.2z"/>
					</g>
					<g>
						<path fill="#E6E7E8" d="M495.2,90.6c-0.3,0-0.6-0.1-0.9-0.4l-2.1-2.1c-0.5-0.5-0.5-1.3,0-1.8c0.5-0.5,1.3-0.5,1.8,0l2.1,2.1
							c0.5,0.5,0.5,1.3,0,1.8C495.8,90.4,495.5,90.6,495.2,90.6L495.2,90.6z"/>
					</g>
				</g>
				<g>
					<g>
						<path fill="#E6E7E8" d="M493.4,79.2c-0.3,0-0.6-0.1-0.9-0.4c-0.5-0.5-0.5-1.3,0-1.8l1.8-1.8c0.5-0.5,1.3-0.5,1.8,0
							c0.5,0.5,0.5,1.3,0,1.8l-1.8,1.8C494.1,79.1,493.7,79.2,493.4,79.2L493.4,79.2z"/>
					</g>
					<g>
						<path fill="#E6E7E8" d="M482,90.6c-0.3,0-0.6-0.1-0.9-0.4c-0.5-0.5-0.5-1.3,0-1.8l2.1-2.1c0.5-0.5,1.3-0.5,1.8,0
							c0.5,0.5,0.5,1.3,0,1.8l-2.1,2.1C482.7,90.4,482.4,90.6,482,90.6L482,90.6z"/>
					</g>
				</g>
				<g>
					<g>
						<path fill="#E6E7E8" d="M488.6,77.2c-0.7,0-1.3-0.6-1.3-1.3v-2.5c0-0.7,0.6-1.3,1.3-1.3c0.7,0,1.3,0.6,1.3,1.3v2.5
							C489.9,76.6,489.3,77.2,488.6,77.2L488.6,77.2z"/>
					</g>
					<g>
						<path fill="#E6E7E8" d="M488.6,93.3L488.6,93.3c-0.7,0-1.3-0.6-1.3-1.3l0-3c0-0.7,0.6-1.3,1.3-1.3l0,0c0.7,0,1.3,0.6,1.3,1.3
							l0,3C489.9,92.7,489.3,93.3,488.6,93.3L488.6,93.3z"/>
					</g>
				</g>
				<g>
					<g>
						<path fill="#E6E7E8" d="M497.9,84h-2.5c-0.7,0-1.3-0.6-1.3-1.3c0-0.7,0.6-1.3,1.3-1.3h2.5c0.7,0,1.3,0.6,1.3,1.3
							C499.2,83.4,498.6,84,497.9,84L497.9,84z"/>
					</g>
					<g>
						<path fill="#E6E7E8" d="M482.3,84h-3c-0.7,0-1.3-0.6-1.3-1.3c0-0.7,0.6-1.3,1.3-1.3h3c0.7,0,1.3,0.6,1.3,1.3
							C483.5,83.4,483,84,482.3,84L482.3,84z"/>
					</g>
				</g>
			</g>
		</g>
	</g>
	<g>
		<g>
			<rect x="63.1" y="38.6" fill="#FFFFFF" width="133.8" height="133.8"/>
			<g>
				<path fill="#E6E7E8" d="M93.4,158.1L93.4,158.1c0-2.2,1.8-4,4.1-4c2.4,0,4.1,1.8,4.1,3.9v0c0,2.2-1.8,4-4.1,4
					C95.2,162,93.4,160.3,93.4,158.1z M99.5,158.1L99.5,158.1c0-1.2-0.8-2.1-2-2.1c-1.2,0-2,1-2,2.1v0c0,1.1,0.8,2.1,2,2.1
					C98.8,160.2,99.5,159.2,99.5,158.1z"/>
				<path fill="#E6E7E8" d="M105.4,160.9v1h-2.2v-10.4h2.2v3.9c0.5-0.7,1.3-1.2,2.4-1.2c1.8,0,3.5,1.4,3.5,3.9v0
					c0,2.5-1.7,3.9-3.5,3.9C106.6,162,105.9,161.5,105.4,160.9z M109.1,158.1L109.1,158.1c0-1.3-0.9-2.1-1.9-2.1s-1.9,0.8-1.9,2.1v0
					c0,1.3,0.8,2.1,1.9,2.1S109.1,159.3,109.1,158.1z"/>
				<path fill="#E6E7E8" d="M111.7,164.1v-1.7c0.2,0,0.3,0,0.5,0c0.5,0,0.8-0.2,0.8-0.9v-7.3h2.2v7.5c0,1.7-0.9,2.4-2.4,2.4
					C112.3,164.2,112,164.1,111.7,164.1z M112.9,151.5h2.3v1.9h-2.3V151.5z"/>
				<path fill="#E6E7E8" d="M116.8,158.1L116.8,158.1c0-2.2,1.6-4,3.8-4c2.5,0,3.7,2,3.7,4.1c0,0.2,0,0.4,0,0.6h-5.3
					c0.2,1,0.9,1.5,1.9,1.5c0.7,0,1.3-0.2,1.9-0.8l1.2,1.1c-0.7,0.9-1.7,1.4-3.1,1.4C118.5,162,116.8,160.4,116.8,158.1z
					 M122.2,157.4c-0.1-1-0.7-1.6-1.6-1.6c-0.9,0-1.5,0.6-1.7,1.6H122.2z"/>
				<path fill="#E6E7E8" d="M125.5,158.1L125.5,158.1c0-2.2,1.7-4,4-4c1.4,0,2.3,0.5,3,1.3l-1.3,1.4c-0.5-0.5-1-0.8-1.7-0.8
					c-1.1,0-1.9,1-1.9,2.1v0c0,1.2,0.8,2.1,1.9,2.1c0.7,0,1.2-0.3,1.8-0.8l1.3,1.3c-0.7,0.8-1.6,1.4-3.1,1.4
					C127.2,162,125.5,160.3,125.5,158.1z"/>
				<path fill="#E6E7E8" d="M134.3,159.7v-3.6h-0.9v-1.9h0.9v-2h2.2v2h1.8v1.9h-1.8v3.3c0,0.5,0.2,0.7,0.7,0.7
					c0.4,0,0.8-0.1,1.1-0.3v1.7c-0.5,0.3-1,0.4-1.7,0.4C135.2,162,134.3,161.5,134.3,159.7z"/>
				<path fill="#E6E7E8" d="M139.9,151.5h2.3v1.9h-2.3V151.5z M140,154.2h2.2v7.6H140V154.2z"/>
				<path fill="#E6E7E8" d="M143.5,154.2h2.3l1.7,5.1l1.7-5.1h2.2l-3,7.7h-2L143.5,154.2z"/>
				<path fill="#E6E7E8" d="M151.9,158.1L151.9,158.1c0-2.2,1.6-4,3.8-4c2.5,0,3.7,2,3.7,4.1c0,0.2,0,0.4,0,0.6h-5.3
					c0.2,1,0.9,1.5,1.9,1.5c0.7,0,1.3-0.2,1.9-0.8l1.2,1.1c-0.7,0.9-1.7,1.4-3.1,1.4C153.6,162,151.9,160.4,151.9,158.1z
					 M157.3,157.4c-0.1-1-0.7-1.6-1.6-1.6c-0.9,0-1.5,0.6-1.7,1.6H157.3z"/>
				<path fill="#E6E7E8" d="M160.4,160.8l0.9-1.4c0.8,0.6,1.7,0.9,2.4,0.9c0.6,0,0.9-0.2,0.9-0.6v0c0-0.5-0.7-0.6-1.6-0.9
					c-1.1-0.3-2.3-0.8-2.3-2.3v0c0-1.6,1.3-2.4,2.8-2.4c1,0,2,0.3,2.8,0.9l-0.8,1.5c-0.8-0.4-1.5-0.7-2.1-0.7
					c-0.5,0-0.8,0.2-0.8,0.5v0c0,0.4,0.7,0.6,1.6,0.9c1.1,0.4,2.3,0.9,2.3,2.3v0c0,1.7-1.3,2.5-2.9,2.5
					C162.6,162,161.4,161.6,160.4,160.8z"/>
			</g>
		</g>
		<g>
			<g>
				<path fill="#E6E7E8" d="M162.7,68.7H98.1c-1.7,0-3.1-1.4-3.1-3.1s1.4-3.1,3.1-3.1h64.6c1.7,0,3.1,1.4,3.1,3.1
					S164.4,68.7,162.7,68.7L162.7,68.7z"/>
			</g>
			<g>
				<path fill="#E6E7E8" d="M162.7,85.1H98.1c-1.7,0-3.1-1.4-3.1-3.1s1.4-3.1,3.1-3.1h64.6c1.7,0,3.1,1.4,3.1,3.1
					S164.4,85.1,162.7,85.1L162.7,85.1z"/>
			</g>
			<g>
				<path fill="#E6E7E8" d="M162.7,101.6H98.1c-1.7,0-3.1-1.4-3.1-3.1s1.4-3.1,3.1-3.1h64.6c1.7,0,3.1,1.4,3.1,3.1
					S164.4,101.6,162.7,101.6L162.7,101.6z"/>
			</g>
			<g>
				<path fill="#E6E7E8" d="M162.7,118H98.1c-1.7,0-3.1-1.4-3.1-3.1s1.4-3.1,3.1-3.1h64.6c1.7,0,3.1,1.4,3.1,3.1
					S164.4,118,162.7,118L162.7,118z"/>
			</g>
			<g>
				<path fill="#E6E7E8" d="M162.7,134.4H98.1c-1.7,0-3.1-1.4-3.1-3.1c0-1.7,1.4-3.1,3.1-3.1h64.6c1.7,0,3.1,1.4,3.1,3.1
					C165.8,133,164.4,134.4,162.7,134.4L162.7,134.4z"/>
			</g>
		</g>
	</g>
	<g>
		<rect x="543.1" y="38.6" fill="#FFFFFF" width="133.8" height="133.8"/>
		<g>
			<path fill="#E6E7E8" d="M588.1,153.4h2.1v1.5c0.4-1,1.1-1.7,2.4-1.7v2.2h-0.1c-1.4,0-2.3,0.9-2.3,2.7v2.8h-2.1V153.4z"/>
			<path fill="#E6E7E8" d="M593.4,157.3L593.4,157.3c0-2.2,1.5-4,3.7-4c2.5,0,3.7,2,3.7,4.1c0,0.2,0,0.4,0,0.6h-5.3
				c0.2,1,0.9,1.5,1.9,1.5c0.7,0,1.2-0.2,1.8-0.8l1.2,1.1c-0.7,0.9-1.7,1.4-3.1,1.4C595.1,161.2,593.4,159.6,593.4,157.3z
				 M598.7,156.6c-0.1-1-0.7-1.6-1.6-1.6c-0.9,0-1.5,0.6-1.6,1.6H598.7z"/>
			<path fill="#E6E7E8" d="M602.1,157.3L602.1,157.3c0-2.2,1.7-4,4-4c1.4,0,2.3,0.5,3,1.3l-1.3,1.4c-0.5-0.5-1-0.8-1.7-0.8
				c-1.1,0-1.8,0.9-1.8,2.1v0c0,1.2,0.7,2.1,1.9,2.1c0.7,0,1.2-0.3,1.7-0.8l1.3,1.3c-0.7,0.8-1.6,1.4-3.1,1.4
				C603.7,161.2,602.1,159.4,602.1,157.3z"/>
			<path fill="#E6E7E8" d="M610.5,150.7h2.3v1.9h-2.3V150.7z M610.6,153.4h2.1v7.6h-2.1V153.4z"/>
			<path fill="#E6E7E8" d="M614.8,153.4h2.1v1.1c0.5-0.7,1.2-1.2,2.4-1.2c1.8,0,3.4,1.4,3.4,3.9v0c0,2.5-1.7,3.9-3.4,3.9
				c-1.1,0-1.9-0.5-2.4-1.1v3.2h-2.1V153.4z M620.6,157.2L620.6,157.2c0-1.3-0.8-2.1-1.9-2.1s-1.8,0.8-1.8,2.1v0
				c0,1.3,0.8,2.1,1.8,2.1S620.6,158.5,620.6,157.2z"/>
			<path fill="#E6E7E8" d="M623.9,157.3L623.9,157.3c0-2.2,1.5-4,3.7-4c2.5,0,3.7,2,3.7,4.1c0,0.2,0,0.4,0,0.6h-5.3
				c0.2,1,0.9,1.5,1.9,1.5c0.7,0,1.2-0.2,1.8-0.8l1.2,1.1c-0.7,0.9-1.7,1.4-3.1,1.4C625.6,161.2,623.9,159.6,623.9,157.3z
				 M629.3,156.6c-0.1-1-0.7-1.6-1.6-1.6c-0.9,0-1.5,0.6-1.6,1.6H629.3z"/>
		</g>
		<path fill="#E6E7E8" d="M640,135.3V58.8c0-0.9-0.7-1.6-1.6-1.6h-57.5c-0.9,0-1.6,0.7-1.6,1.6v76.5c0,0.9,0.7,1.6,1.6,1.6h57.5
			C639.2,136.9,640,136.2,640,135.3z M616.9,65.8h8.1c0.9,0,1.6,0.7,1.6,1.6c0,0.9-0.7,1.6-1.6,1.6h-8.1c-0.9,0-1.6-0.7-1.6-1.6
			C615.3,66.5,616,65.8,616.9,65.8z M624.1,74.5c0,0.9-0.7,1.6-1.6,1.6h-28.9c-0.9,0-1.6-0.7-1.6-1.6c0-0.9,0.7-1.6,1.6-1.6h28.9
			C623.4,72.8,624.1,73.6,624.1,74.5z M603,65.8h8c0.9,0,1.6,0.7,1.6,1.6c0,0.9-0.7,1.6-1.6,1.6h-8c-0.9,0-1.6-0.7-1.6-1.6
			C601.4,66.5,602.1,65.8,603,65.8z M589.1,65.8h8.1c0.9,0,1.6,0.7,1.6,1.6c0,0.9-0.7,1.6-1.6,1.6h-8.1c-0.9,0-1.6-0.7-1.6-1.6
			C587.5,66.5,588.3,65.8,589.1,65.8z M616.8,89.6h-23.2c-0.9,0-1.6-0.7-1.6-1.6c0-0.9,0.7-1.6,1.6-1.6h23.2c0.9,0,1.6,0.7,1.6,1.6
			C618.5,88.9,617.7,89.6,616.8,89.6z M618.5,94.7c0,0.9-0.7,1.6-1.6,1.6h-23.2c-0.9,0-1.6-0.7-1.6-1.6c0-0.9,0.7-1.6,1.6-1.6h23.2
			C617.7,93,618.5,93.8,618.5,94.7z M597.2,110.2h-8.1c-0.9,0-1.6-0.7-1.6-1.6c0-0.9,0.7-1.6,1.6-1.6h8.1c0.9,0,1.6,0.7,1.6,1.6
			C598.8,109.5,598.1,110.2,597.2,110.2z M629.3,103.3h-35.7c-0.9,0-1.6-0.7-1.6-1.6c0-0.9,0.7-1.6,1.6-1.6h35.7
			c0.9,0,1.6,0.7,1.6,1.6C631,102.5,630.2,103.3,629.3,103.3z M629.3,83.1h-35.7c-0.9,0-1.6-0.7-1.6-1.6c0-0.9,0.7-1.6,1.6-1.6h35.7
			c0.9,0,1.6,0.7,1.6,1.6C631,82.3,630.2,83.1,629.3,83.1z"/>
	</g>
	<polygon fill="#6CB2E2" points="796.9,178.5 663.1,178.5 663.1,172.4 796.9,172.4 796.9,174.8 	"/>
	<g>
		<rect x="663.1" y="38.6" fill="#FFFFFF" width="133.8" height="133.8"/>
		<g>
			<g>
				<g>
					<path fill="#445464" d="M717.5,159.4v-3.6h-0.9v-1.8h0.9V152h2.2v1.9h1.8v1.8h-1.8v3.2c0,0.5,0.2,0.7,0.7,0.7
						c0.4,0,0.8-0.1,1.1-0.3v1.7c-0.5,0.3-1,0.4-1.7,0.4C718.4,161.6,717.5,161.1,717.5,159.4z"/>
					<path fill="#445464" d="M722.5,157.8L722.5,157.8c0-2.2,1.5-4,3.8-4c2.5,0,3.7,2,3.7,4.1c0,0.2,0,0.4,0,0.6h-5.3
						c0.2,1,0.9,1.5,1.9,1.5c0.7,0,1.2-0.2,1.8-0.8l1.2,1.1c-0.7,0.9-1.7,1.4-3.1,1.4C724.2,161.7,722.5,160.1,722.5,157.8z
						 M727.8,157.1c-0.1-1-0.7-1.6-1.6-1.6c-0.9,0-1.5,0.6-1.6,1.6H727.8z"/>
					<path fill="#445464" d="M731,160.5l0.9-1.4c0.8,0.6,1.7,0.9,2.4,0.9c0.6,0,0.9-0.2,0.9-0.6v0c0-0.5-0.7-0.6-1.6-0.9
						c-1.1-0.3-2.3-0.8-2.3-2.3v0c0-1.5,1.2-2.4,2.8-2.4c1,0,2,0.3,2.8,0.9l-0.8,1.5c-0.8-0.4-1.5-0.7-2.1-0.7
						c-0.5,0-0.8,0.2-0.8,0.5v0c0,0.4,0.7,0.6,1.5,0.9c1.1,0.4,2.3,0.9,2.3,2.3v0c0,1.7-1.3,2.5-2.9,2.5
						C733.1,161.7,732,161.3,731,160.5z"/>
					<path fill="#445464" d="M738.9,159.4v-3.6H738v-1.8h0.9V152h2.2v1.9h1.8v1.8H741v3.2c0,0.5,0.2,0.7,0.7,0.7
						c0.4,0,0.8-0.1,1.1-0.3v1.7c-0.5,0.3-1,0.4-1.7,0.4C739.8,161.6,738.9,161.1,738.9,159.4z"/>
				</g>
			</g>
			<g>
				<g>
					<path fill="#445464" d="M739.4,134.8c-0.9,0-1.6-0.7-1.6-1.6V114c0-0.9,0.7-1.6,1.6-1.6h19.2c0.9,0,1.6,0.7,1.6,1.6
						c0,0.9-0.7,1.6-1.6,1.6H741v17.6C741,134.1,740.3,134.8,739.4,134.8L739.4,134.8z"/>
				</g>
				<g>
					<path fill="#445464" d="M739.4,136.4h-33.1c-1.8,0-3.2-1.4-3.2-3.2V67.5c0-1.8,1.4-3.2,3.2-3.2h52.3c1.8,0,3.2,1.4,3.2,3.2V114
						c0,0.9-0.3,1.7-0.9,2.3l-19.2,19.2C741.1,136,740.3,136.4,739.4,136.4L739.4,136.4z M709.6,130h28.5l17.3-17.3v-42h-45.9V130
						L709.6,130z"/>
				</g>
				<g>
					<path fill="#445464" d="M697.4,128.8c-1.8,0-3.2-1.4-3.2-3.2V61.2c0-3.5,2.9-6.4,6.4-6.4h49.1c1.8,0,3.2,1.4,3.2,3.2
						c0,1.8-1.4,3.2-3.2,3.2h-49.1v64.4C700.6,127.4,699.2,128.8,697.4,128.8L697.4,128.8z"/>
				</g>
				<g>
					<g>
						<path fill="#445464" d="M730.8,96.3c-0.3,0-0.6-0.1-0.9-0.4l-3.1-3.2c-0.5-0.5-0.4-1.2,0-1.7c0.5-0.4,1.2-0.4,1.7,0l2.2,2.3
							l5.9-7.2c0.4-0.5,1.2-0.6,1.7-0.2c0.5,0.4,0.6,1.2,0.2,1.7l-6.8,8.3C731.5,96.1,731.2,96.3,730.8,96.3
							C730.8,96.3,730.8,96.3,730.8,96.3L730.8,96.3z"/>
					</g>
					<g>
						<path fill="#445464" d="M745.6,105.7h-25.9c-0.7,0-1.2-0.5-1.2-1.2V78.6c0-0.7,0.5-1.2,1.2-1.2h25.9c0.7,0,1.2,0.5,1.2,1.2
							v25.9C746.8,105.2,746.2,105.7,745.6,105.7L745.6,105.7z M720.9,103.3h23.5V79.8h-23.5V103.3L720.9,103.3z"/>
					</g>
				</g>
			</g>
		</g>
	</g>
</g>
<g>
	<path fill="#445464" d="M174.8,240.2H162v-8.5h34.8v8.5H184v33.5h-9.2V240.2z"/>
	<path fill="#445464" d="M195.1,257.8v-0.1c0-9.2,6.5-16.7,15.9-16.7c10.7,0,15.7,8.3,15.7,17.5c0,0.7-0.1,1.6-0.1,2.4h-22.4
		c0.9,4.1,3.8,6.3,7.9,6.3c3.1,0,5.3-1,7.8-3.3l5.2,4.6c-3,3.7-7.3,6-13.1,6C202.2,274.4,195.1,267.6,195.1,257.8z M217.8,255.1
		c-0.5-4.1-2.9-6.8-6.8-6.8c-3.8,0-6.2,2.7-7,6.8H217.8z"/>
	<path fill="#445464" d="M230.9,269.4l3.9-6c3.5,2.5,7.1,3.8,10.1,3.8c2.6,0,3.8-1,3.8-2.4v-0.1c0-2-3.1-2.6-6.7-3.7
		c-4.5-1.3-9.6-3.4-9.6-9.7v-0.1c0-6.5,5.3-10.2,11.8-10.2c4.1,0,8.5,1.4,12,3.7l-3.5,6.3c-3.2-1.9-6.4-3-8.7-3
		c-2.2,0-3.4,1-3.4,2.2v0.1c0,1.8,3.1,2.6,6.5,3.8c4.5,1.5,9.7,3.7,9.7,9.5v0.1c0,7.1-5.3,10.4-12.3,10.4
		C240.2,274.3,235.2,272.8,230.9,269.4z"/>
	<path fill="#445464" d="M264.4,264.6v-15.2h-3.8v-7.8h3.8v-8.2h9.1v8.2h7.6v7.8h-7.6v13.7c0,2.1,0.9,3.1,2.9,3.1
		c1.7,0,3.2-0.4,4.5-1.1v7.3c-1.9,1.1-4.1,1.9-7.2,1.9C268.2,274.2,264.4,272,264.4,264.6z"/>
	<path fill="#445464" d="M307.3,264.6v-15.2h-3.8v-7.8h3.8v-8.2h9.1v8.2h7.6v7.8h-7.6v13.7c0,2.1,0.9,3.1,2.9,3.1
		c1.7,0,3.2-0.4,4.5-1.1v7.3c-1.9,1.1-4.1,1.9-7.2,1.9C311.1,274.2,307.3,272,307.3,264.6z"/>
	<path fill="#445464" d="M330.7,229.9h9.1v16.2c2.1-2.7,4.8-5.2,9.4-5.2c6.9,0,10.9,4.6,10.9,11.9v20.8h-9.1v-17.9
		c0-4.3-2-6.5-5.5-6.5c-3.5,0-5.7,2.2-5.7,6.5v17.9h-9.1V229.9z"/>
	<path fill="#445464" d="M366.6,257.8v-0.1c0-9.2,6.5-16.7,15.9-16.7c10.7,0,15.7,8.3,15.7,17.5c0,0.7-0.1,1.6-0.1,2.4h-22.4
		c0.9,4.1,3.8,6.3,7.9,6.3c3.1,0,5.3-1,7.8-3.3l5.2,4.6c-3,3.7-7.3,6-13.1,6C373.7,274.4,366.6,267.6,366.6,257.8z M389.2,255.1
		c-0.5-4.1-2.9-6.8-6.8-6.8c-3.8,0-6.2,2.7-7,6.8H389.2z"/>
	<path fill="#445464" d="M423.9,231.7h19.2c5.3,0,9.5,1.5,12.2,4.3c2.3,2.3,3.6,5.6,3.6,9.6v0.1c0,6.8-3.7,11-9,13l10.3,15h-10.8
		l-9-13.4h-0.1h-7.1v13.4h-9.2V231.7z M442.5,252.1c4.5,0,7.1-2.4,7.1-5.9V246c0-4-2.8-6-7.3-6h-9.2v12.1H442.5z"/>
	<path fill="#445464" d="M464.1,257.8v-0.1c0-9.2,6.5-16.7,15.9-16.7c10.7,0,15.7,8.3,15.7,17.5c0,0.7-0.1,1.6-0.1,2.4h-22.4
		c0.9,4.1,3.8,6.3,7.9,6.3c3.1,0,5.3-1,7.8-3.3l5.2,4.6c-3,3.7-7.3,6-13.1,6C471.3,274.4,464.1,267.6,464.1,257.8z M486.8,255.1
		c-0.5-4.1-2.9-6.8-6.8-6.8c-3.8,0-6.2,2.7-7,6.8H486.8z"/>
	<path fill="#445464" d="M499.9,269.4l3.9-6c3.5,2.5,7.1,3.8,10.1,3.8c2.6,0,3.8-1,3.8-2.4v-0.1c0-2-3.1-2.6-6.7-3.7
		c-4.5-1.3-9.6-3.4-9.6-9.7v-0.1c0-6.5,5.3-10.2,11.8-10.2c4.1,0,8.5,1.4,12,3.7l-3.5,6.3c-3.2-1.9-6.4-3-8.7-3
		c-2.2,0-3.4,1-3.4,2.2v0.1c0,1.8,3.1,2.6,6.5,3.8c4.5,1.5,9.7,3.7,9.7,9.5v0.1c0,7.1-5.3,10.4-12.3,10.4
		C509.2,274.3,504.2,272.8,499.9,269.4z"/>
	<path fill="#445464" d="M531,257.8v-0.1c0-9.2,7.4-16.7,17.5-16.7c10,0,17.3,7.4,17.3,16.6v0.1c0,9.2-7.4,16.7-17.5,16.7
		C538.4,274.4,531,267,531,257.8z M556.8,257.8v-0.1c0-4.7-3.4-8.9-8.5-8.9c-5.2,0-8.3,4-8.3,8.8v0.1c0,4.7,3.4,8.9,8.5,8.9
		C553.7,266.6,556.8,262.5,556.8,257.8z"/>
	<path fill="#445464" d="M572.2,262.4v-20.8h9.1v17.9c0,4.3,2,6.5,5.5,6.5c3.5,0,5.7-2.2,5.7-6.5v-17.9h9.1v32.2h-9.1v-4.6
		c-2.1,2.7-4.8,5.2-9.4,5.2C576.2,274.3,572.2,269.7,572.2,262.4z"/>
	<path fill="#445464" d="M609.8,241.5h9.1v6.5c1.9-4.4,4.9-7.3,10.3-7.1v9.5h-0.5c-6.1,0-9.8,3.7-9.8,11.3v11.9h-9.1V241.5z"/>
	<path fill="#445464" d="M632.4,257.8v-0.1c0-9.2,7-16.7,16.9-16.7c6.1,0,9.8,2,12.8,5.4l-5.6,6c-2-2.2-4.1-3.5-7.3-3.5
		c-4.6,0-7.8,4-7.8,8.8v0.1c0,4.9,3.2,8.9,8.2,8.9c3.1,0,5.2-1.3,7.4-3.4l5.3,5.4c-3.1,3.4-6.7,5.9-13.1,5.9
		C639.5,274.4,632.4,267,632.4,257.8z"/>
	<path fill="#445464" d="M665.8,257.8v-0.1c0-9.2,6.5-16.7,15.9-16.7c10.7,0,15.7,8.3,15.7,17.5c0,0.7-0.1,1.6-0.1,2.4h-22.4
		c0.9,4.1,3.8,6.3,7.9,6.3c3.1,0,5.3-1,7.8-3.3l5.2,4.6c-3,3.7-7.3,6-13.1,6C672.9,274.4,665.8,267.6,665.8,257.8z M688.5,255.1
		c-0.5-4.1-2.9-6.8-6.8-6.8c-3.8,0-6.2,2.7-7,6.8H688.5z"/>
</g>
</svg>
