<?xml version="1.0" encoding="utf-8"?>
<!-- Generator: Adobe Illustrator 19.1.0, SVG Export Plug-In . SVG Version: 6.00 Build 0)  -->
<svg version="1.1" id="Layer_1" xmlns="http://www.w3.org/2000/svg" xmlns:xlink="http://www.w3.org/1999/xlink" x="0px" y="0px"
	 viewBox="0 0 798 637.5" enable-background="new 0 0 798 637.5" xml:space="preserve">
<rect x="124.4" y="11.8" fill="#6CB2E2" width="544.3" height="158.4"/>
<rect x="281.3" y="21.8" fill="#FFFFFF" width="377.4" height="138.4"/>
<g>
	<rect x="525.3" y="22.8" fill="#FFFFFF" width="133.4" height="133.4"/>
	<g>
		<path fill="#445464" d="M567.2,145.3l1.3-1.5c0.9,0.7,1.8,1.2,3,1.2c0.9,0,1.4-0.4,1.4-0.9v0c0-0.6-0.3-0.8-2-1.3
			c-2-0.5-3.3-1.1-3.3-3v0c0-1.8,1.4-3,3.5-3c1.4,0,2.7,0.5,3.7,1.3l-1.1,1.6c-0.9-0.6-1.7-1-2.6-1s-1.3,0.4-1.3,0.9v0
			c0,0.7,0.4,0.9,2.1,1.3c2,0.5,3.1,1.2,3.1,3v0c0,2-1.5,3.1-3.6,3.1C569.9,146.9,568.4,146.3,567.2,145.3z"/>
		<path fill="#445464" d="M577,144.6V141h-0.9v-1.8h0.9v-1.9h2.2v1.9h1.8v1.8h-1.8v3.2c0,0.5,0.2,0.7,0.7,0.7c0.4,0,0.8-0.1,1.1-0.3
			v1.7c-0.5,0.3-1,0.4-1.7,0.4C577.9,146.8,577,146.3,577,144.6z"/>
		<path fill="#445464" d="M582.5,139.1h2.2v1.5c0.4-1,1.1-1.7,2.4-1.7v2.3H587c-1.4,0-2.3,0.9-2.3,2.7v2.8h-2.2V139.1z"/>
		<path fill="#445464" d="M588.5,136.4h2.3v1.9h-2.3V136.4z M588.6,139.1h2.2v7.6h-2.2V139.1z"/>
		<path fill="#445464" d="M592.8,139.1h2.2v1.1c0.5-0.6,1.1-1.2,2.2-1.2c1.6,0,2.6,1.1,2.6,2.8v4.9h-2.2v-4.2c0-1-0.5-1.5-1.3-1.5
			c-0.8,0-1.3,0.5-1.3,1.5v4.2h-2.2V139.1z"/>
		<path fill="#445464" d="M601.6,148.2l0.7-1.6c0.8,0.4,1.6,0.7,2.6,0.7c1.5,0,2.2-0.7,2.2-2.1v-0.4c-0.6,0.8-1.3,1.2-2.5,1.2
			c-1.8,0-3.4-1.3-3.4-3.5v0c0-2.3,1.6-3.5,3.4-3.5c1.2,0,1.9,0.5,2.5,1.1v-1h2.2v5.9c0,1.4-0.3,2.4-1,3c-0.7,0.7-1.8,1-3.3,1
			C603.8,149,602.6,148.7,601.6,148.2z M607.1,142.5L607.1,142.5c0-1.1-0.8-1.8-1.9-1.8c-1,0-1.8,0.7-1.8,1.8v0c0,1,0.8,1.8,1.8,1.8
			C606.3,144.3,607.1,143.6,607.1,142.5z"/>
		<path fill="#445464" d="M610.6,145.7l0.9-1.4c0.8,0.6,1.7,0.9,2.4,0.9c0.6,0,0.9-0.2,0.9-0.6v0c0-0.5-0.7-0.6-1.6-0.9
			c-1.1-0.3-2.3-0.8-2.3-2.3v0c0-1.5,1.2-2.4,2.8-2.4c1,0,2,0.3,2.8,0.9l-0.8,1.5c-0.8-0.4-1.5-0.7-2.1-0.7c-0.5,0-0.8,0.2-0.8,0.5
			v0c0,0.4,0.7,0.6,1.5,0.9c1.1,0.4,2.3,0.9,2.3,2.3v0c0,1.7-1.3,2.5-2.9,2.5C612.8,146.9,611.6,146.5,610.6,145.7z"/>
	</g>
</g>
<g>
	<path fill="#445464" d="M610.3,110.5h-36.7c-6.6,0-12-5.4-12-12V61.6c0-6.6,5.4-12,12-12h36.7c6.6,0,12,5.4,12,12v36.9
		C622.3,105.1,616.9,110.5,610.3,110.5z"/>
	<g>
		<g>
			<g>
				<path fill="#FFFFFF" d="M592.7,91.1c-0.4,0-0.7-0.1-1-0.3l-12.4-9c-0.8-0.6-1-1.7-0.4-2.5c0.6-0.8,1.7-1,2.5-0.4l11.3,8.2
					l11.3-8.2c0.8-0.6,1.9-0.4,2.5,0.4c0.6,0.8,0.4,1.9-0.4,2.5l-12.4,9C593.4,91,593,91.1,592.7,91.1L592.7,91.1z"/>
			</g>
			<g>
				<path fill="#FFFFFF" d="M592.7,91.1c-1,0-1.8-0.8-1.8-1.8V61.9c0-1,0.8-1.8,1.8-1.8c1,0,1.8,0.8,1.8,1.8v27.4
					C594.4,90.3,593.6,91.1,592.7,91.1L592.7,91.1z"/>
			</g>
		</g>
		<g>
			<path fill="#FFFFFF" d="M608,100.4h-30.7c-1,0-1.8-0.8-1.8-1.8c0-1,0.8-1.8,1.8-1.8H608c1,0,1.8,0.8,1.8,1.8
				C609.8,99.6,609,100.4,608,100.4L608,100.4z"/>
		</g>
		<g>
			<path fill="#FFFFFF" d="M608,100.4c-1,0-1.8-0.8-1.8-1.8v-7.8c0-1,0.8-1.8,1.8-1.8c1,0,1.8,0.8,1.8,1.8v7.8
				C609.8,99.6,609,100.4,608,100.4L608,100.4z"/>
		</g>
		<g>
			<path fill="#FFFFFF" d="M577.3,100.4c-1,0-1.8-0.8-1.8-1.8v-7.8c0-1,0.8-1.8,1.8-1.8s1.8,0.8,1.8,1.8v7.8
				C579.1,99.6,578.3,100.4,577.3,100.4L577.3,100.4z"/>
		</g>
	</g>
</g>
<g>
	<polygon fill="#FFFFFF" points="418.7,156.4 350.9,156.4 285.3,156.4 285.3,23 418.7,23 	"/>
	<g>
		<path fill="#445464" d="M334.1,137.6h-2.8v-1.8h7.5v1.8h-2.8v7.3h-2V137.6z"/>
		<path fill="#445464" d="M338.4,141.4L338.4,141.4c0-2,1.6-3.7,3.8-3.7c2.2,0,3.8,1.6,3.8,3.6v0c0,2-1.6,3.6-3.8,3.6
			C340,145,338.4,143.4,338.4,141.4z M344,141.4L344,141.4c0-1.1-0.7-1.9-1.8-1.9c-1.1,0-1.8,0.9-1.8,1.9v0c0,1,0.7,1.9,1.8,1.9
			C343.4,143.3,344,142.4,344,141.4z"/>
		<path fill="#445464" d="M347.4,137.9h2v1c0.5-0.6,1.1-1.1,2.2-1.1c1.6,0,3.2,1.3,3.2,3.6v0c0,2.3-1.5,3.6-3.2,3.6
			c-1.1,0-1.7-0.5-2.2-1v3h-2V137.9z M352.8,141.4L352.8,141.4c0-1.2-0.8-2-1.7-2s-1.7,0.8-1.7,1.9v0c0,1.2,0.8,1.9,1.7,1.9
			S352.8,142.6,352.8,141.4z"/>
		<path fill="#445464" d="M356.2,135.4h2.1v1.8h-2.1V135.4z M356.3,137.9h2v7h-2V137.9z"/>
		<path fill="#445464" d="M359.8,141.4L359.8,141.4c0-2,1.5-3.7,3.7-3.7c1.3,0,2.1,0.4,2.8,1.2l-1.2,1.3c-0.4-0.5-0.9-0.8-1.6-0.8
			c-1,0-1.7,0.9-1.7,1.9v0c0,1.1,0.7,1.9,1.8,1.9c0.7,0,1.1-0.3,1.6-0.7l1.2,1.2c-0.7,0.7-1.5,1.3-2.8,1.3
			C361.3,145,359.8,143.4,359.8,141.4z"/>
		<path fill="#445464" d="M367,143.9l0.8-1.3c0.8,0.5,1.5,0.8,2.2,0.8c0.6,0,0.8-0.2,0.8-0.5v0c0-0.4-0.7-0.6-1.4-0.8
			c-1-0.3-2.1-0.7-2.1-2.1v0c0-1.4,1.1-2.2,2.5-2.2c0.9,0,1.8,0.3,2.6,0.8l-0.8,1.4c-0.7-0.4-1.4-0.6-1.9-0.6
			c-0.5,0-0.7,0.2-0.7,0.5v0c0,0.4,0.7,0.6,1.4,0.8c1,0.3,2.1,0.8,2.1,2.1v0c0,1.5-1.2,2.2-2.7,2.2C369,145,367.9,144.7,367,143.9z"
			/>
	</g>
</g>
<g>
	<rect x="407.3" y="22.8" fill="#FFFFFF" width="133.4" height="133.4"/>
	<g>
		<path fill="#445464" d="M451.4,136.6h2v9.1h-2V136.6z"/>
		<path fill="#445464" d="M455.4,138.7h2v1c0.5-0.6,1.1-1.1,2.1-1.1c0.9,0,1.6,0.4,2,1.1c0.6-0.7,1.3-1.1,2.3-1.1
			c1.5,0,2.4,0.9,2.4,2.6v4.5h-2v-3.9c0-0.9-0.4-1.4-1.2-1.4c-0.7,0-1.2,0.5-1.2,1.4v3.9h-2v-3.9c0-0.9-0.4-1.4-1.2-1.4
			c-0.7,0-1.2,0.5-1.2,1.4v3.9h-2V138.7z"/>
		<path fill="#445464" d="M467.4,143.7L467.4,143.7c0-1.5,1.2-2.2,2.8-2.2c0.7,0,1.2,0.1,1.7,0.3v-0.1c0-0.8-0.5-1.3-1.5-1.3
			c-0.8,0-1.3,0.1-1.9,0.4l-0.5-1.5c0.8-0.3,1.5-0.6,2.7-0.6c1.1,0,1.9,0.3,2.4,0.8c0.5,0.5,0.8,1.3,0.8,2.2v4h-1.9V145
			c-0.5,0.5-1.1,0.9-2.1,0.9C468.4,145.8,467.4,145.1,467.4,143.7z M471.9,143.3v-0.4c-0.3-0.2-0.8-0.3-1.3-0.3
			c-0.8,0-1.4,0.3-1.4,1v0c0,0.5,0.4,0.8,1.1,0.8C471.3,144.5,471.9,144,471.9,143.3z"/>
		<path fill="#445464" d="M475.5,147.1l0.7-1.5c0.7,0.4,1.4,0.6,2.4,0.6c1.4,0,2-0.7,2-1.9V144c-0.6,0.7-1.2,1.1-2.3,1.1
			c-1.6,0-3.1-1.2-3.1-3.2v0c0-2.1,1.5-3.2,3.1-3.2c1.1,0,1.7,0.5,2.2,1v-0.9h2v5.4c0,1.2-0.3,2.2-0.9,2.7c-0.6,0.7-1.7,0.9-3,0.9
			C477.5,147.8,476.4,147.6,475.5,147.1z M480.5,141.9L480.5,141.9c0-1-0.7-1.6-1.7-1.6s-1.7,0.7-1.7,1.6v0c0,1,0.7,1.6,1.7,1.6
			S480.5,142.8,480.5,141.9z"/>
		<path fill="#445464" d="M483.9,142.3L483.9,142.3c0-2,1.4-3.7,3.4-3.7c2.3,0,3.4,1.8,3.4,3.8c0,0.2,0,0.3,0,0.5h-4.8
			c0.2,0.9,0.8,1.4,1.7,1.4c0.7,0,1.1-0.2,1.7-0.7l1.1,1c-0.7,0.8-1.6,1.3-2.8,1.3C485.5,145.9,483.9,144.4,483.9,142.3z
			 M488.8,141.7c-0.1-0.9-0.6-1.5-1.5-1.5c-0.8,0-1.4,0.6-1.5,1.5H488.8z"/>
		<path fill="#445464" d="M491.7,144.8l0.8-1.3c0.8,0.5,1.5,0.8,2.2,0.8c0.6,0,0.8-0.2,0.8-0.5v0c0-0.4-0.7-0.6-1.4-0.8
			c-1-0.3-2.1-0.7-2.1-2.1v0c0-1.4,1.1-2.2,2.5-2.2c0.9,0,1.8,0.3,2.6,0.8l-0.8,1.4c-0.7-0.4-1.4-0.6-1.9-0.6
			c-0.5,0-0.7,0.2-0.7,0.5v0c0,0.4,0.7,0.6,1.4,0.8c1,0.3,2.1,0.8,2.1,2.1v0c0,1.5-1.2,2.2-2.7,2.2
			C493.7,145.8,492.6,145.5,491.7,144.8z"/>
	</g>
</g>
<rect x="15.9" y="470.4" fill="#7F888D" width="769.6" height="153.7"/>
<g>
	<g>
		<path fill="#FFFFFF" d="M58.2,592.2h4.9c4,0,6.7,2.7,6.7,6.3v0c0,3.5-2.7,6.3-6.7,6.3h-4.9V592.2z M63.1,602.3
			c2.3,0,3.8-1.5,3.8-3.8v0c0-2.2-1.5-3.8-3.8-3.8H61v7.6H63.1z"/>
		<path fill="#FFFFFF" d="M71.5,600L71.5,600c0-2.8,2-5.1,4.8-5.1c3.2,0,4.7,2.5,4.7,5.2c0,0.2,0,0.5,0,0.7h-6.7
			c0.3,1.2,1.1,1.9,2.4,1.9c0.9,0,1.6-0.3,2.3-1l1.6,1.4c-0.9,1.1-2.2,1.8-3.9,1.8C73.7,605,71.5,603,71.5,600z M78.3,599.2
			c-0.2-1.2-0.9-2.1-2-2.1c-1.1,0-1.9,0.8-2.1,2.1H78.3z"/>
		<path fill="#FFFFFF" d="M83.1,591.7h2.7v13.1h-2.7V591.7z"/>
		<path fill="#FFFFFF" d="M88.5,591.7h2.9v2.4h-2.9V591.7z M88.6,595.2h2.7v9.7h-2.7V595.2z"/>
		<path fill="#FFFFFF" d="M93,595.2h2.9l2.2,6.5l2.2-6.5h2.8l-3.8,9.7h-2.5L93,595.2z"/>
		<path fill="#FFFFFF" d="M103.7,600L103.7,600c0-2.8,2-5.1,4.8-5.1c3.2,0,4.7,2.5,4.7,5.2c0,0.2,0,0.5,0,0.7h-6.7
			c0.3,1.2,1.1,1.9,2.4,1.9c0.9,0,1.6-0.3,2.3-1l1.6,1.4c-0.9,1.1-2.2,1.8-3.9,1.8C105.8,605,103.7,603,103.7,600z M110.5,599.2
			c-0.2-1.2-0.9-2.1-2-2.1c-1.1,0-1.9,0.8-2.1,2.1H110.5z"/>
		<path fill="#FFFFFF" d="M115.2,595.2h2.7v1.9c0.6-1.3,1.5-2.2,3.1-2.1v2.9h-0.1c-1.8,0-2.9,1.1-2.9,3.4v3.6h-2.7V595.2z"/>
	</g>
</g>
<g>
	<g>
		<rect x="162.1" y="480.7" fill="#FFFFFF" width="133.4" height="133.4"/>
		<g>
			<path fill="#445464" d="M188.9,593.6h2.3l2.1,6.7l2.2-6.8h1.9l2.2,6.8l2.1-6.7h2.3l-3.4,10h-1.9l-2.2-6.5l-2.2,6.5h-1.9
				L188.9,593.6z"/>
			<path fill="#445464" d="M204.1,599.8L204.1,599.8c0-2.2,1.5-4,3.8-4c2.5,0,3.7,2,3.7,4.1c0,0.2,0,0.4,0,0.6h-5.3
				c0.2,1,0.9,1.5,1.9,1.5c0.7,0,1.2-0.2,1.8-0.8l1.2,1.1c-0.7,0.9-1.7,1.4-3.1,1.4C205.8,603.7,204.1,602.1,204.1,599.8z
				 M209.5,599.2c-0.1-1-0.7-1.6-1.6-1.6c-0.9,0-1.5,0.6-1.6,1.6H209.5z"/>
			<path fill="#445464" d="M215.3,602.6v1h-2.2v-10.4h2.2v3.8c0.5-0.7,1.2-1.2,2.4-1.2c1.8,0,3.5,1.4,3.5,3.9v0
				c0,2.5-1.7,3.9-3.5,3.9C216.5,603.7,215.8,603.2,215.3,602.6z M219,599.8L219,599.8c0-1.3-0.9-2.1-1.9-2.1s-1.8,0.8-1.8,2.1v0
				c0,1.3,0.8,2.1,1.8,2.1S219,601,219,599.8z"/>
			<path fill="#445464" d="M227.2,593.6h4.1c2.4,0,3.8,1.4,3.8,3.4v0c0,2.3-1.8,3.5-4,3.5h-1.7v3h-2.2V593.6z M231.1,598.6
				c1.1,0,1.7-0.7,1.7-1.5v0c0-1-0.7-1.5-1.8-1.5h-1.7v3H231.1z"/>
			<path fill="#445464" d="M235.9,601.4L235.9,601.4c0-1.7,1.3-2.5,3.1-2.5c0.8,0,1.3,0.1,1.9,0.3v-0.1c0-0.9-0.6-1.4-1.6-1.4
				c-0.8,0-1.4,0.2-2.1,0.4l-0.5-1.6c0.8-0.4,1.7-0.6,3-0.6c1.2,0,2,0.3,2.6,0.9c0.6,0.6,0.8,1.4,0.8,2.4v4.4h-2.1v-0.8
				c-0.5,0.6-1.2,1-2.3,1C237.1,603.7,235.9,602.9,235.9,601.4z M240.8,600.9v-0.4c-0.4-0.2-0.9-0.3-1.4-0.3c-0.9,0-1.5,0.4-1.5,1.1
				v0c0,0.6,0.5,0.9,1.2,0.9C240.1,602.2,240.8,601.7,240.8,600.9z"/>
			<path fill="#445464" d="M244.8,605.1l0.7-1.6c0.8,0.4,1.6,0.7,2.6,0.7c1.5,0,2.2-0.7,2.2-2.1v-0.4c-0.6,0.8-1.3,1.2-2.5,1.2
				c-1.8,0-3.4-1.3-3.4-3.5v0c0-2.3,1.6-3.5,3.4-3.5c1.2,0,1.9,0.5,2.5,1.1v-1h2.2v5.9c0,1.4-0.3,2.4-1,3c-0.7,0.7-1.8,1-3.3,1
				C246.9,605.9,245.7,605.6,244.8,605.1z M250.2,599.4L250.2,599.4c0-1.1-0.8-1.8-1.9-1.8c-1,0-1.8,0.7-1.8,1.8v0
				c0,1,0.8,1.8,1.8,1.8C249.4,601.1,250.2,600.4,250.2,599.4z"/>
			<path fill="#445464" d="M253.9,599.8L253.9,599.8c0-2.2,1.5-4,3.8-4c2.5,0,3.7,2,3.7,4.1c0,0.2,0,0.4,0,0.6h-5.3
				c0.2,1,0.9,1.5,1.9,1.5c0.7,0,1.2-0.2,1.8-0.8l1.2,1.1c-0.7,0.9-1.7,1.4-3.1,1.4C255.6,603.7,253.9,602.1,253.9,599.8z
				 M259.3,599.2c-0.1-1-0.7-1.6-1.6-1.6c-0.9,0-1.5,0.6-1.6,1.6H259.3z"/>
			<path fill="#445464" d="M262.4,602.5l0.9-1.4c0.8,0.6,1.7,0.9,2.4,0.9c0.6,0,0.9-0.2,0.9-0.6v0c0-0.5-0.7-0.6-1.6-0.9
				c-1.1-0.3-2.3-0.8-2.3-2.3v0c0-1.5,1.2-2.4,2.8-2.4c1,0,2,0.3,2.8,0.9l-0.8,1.5c-0.8-0.4-1.5-0.7-2.1-0.7c-0.5,0-0.8,0.2-0.8,0.5
				v0c0,0.4,0.7,0.6,1.5,0.9c1.1,0.4,2.3,0.9,2.3,2.3v0c0,1.7-1.3,2.5-2.9,2.5C264.6,603.7,263.4,603.3,262.4,602.5z"/>
		</g>
	</g>
	<g>
		<g>
			<path fill="#445464" d="M211.7,535.7h1.8v3.3h3.4v-3.3h1.8v8.4H217v-3.4h-3.4v3.4h-1.8V535.7z"/>
			<path fill="#445464" d="M222.8,537.4h-2.6v-1.7h7v1.7h-2.6v6.7h-1.8V537.4z"/>
			<path fill="#445464" d="M228.6,535.7h2l2.2,3.5l2.2-3.5h2v8.4h-1.8v-5.5l-2.4,3.6h0l-2.3-3.6v5.4h-1.8V535.7z"/>
			<path fill="#445464" d="M239,535.7h1.8v6.7h4.2v1.7h-6V535.7z"/>
		</g>
		<g>
			<path fill="#445464" d="M235.3,576.6c-0.9,0-1.6-0.7-1.6-1.6v-19.8c0-0.9,0.7-1.6,1.6-1.6H255c0.9,0,1.6,0.7,1.6,1.6
				c0,0.9-0.7,1.6-1.6,1.6h-18.1v18.1C236.9,575.8,236.2,576.6,235.3,576.6L235.3,576.6z"/>
		</g>
		<path fill="#445464" d="M235.3,578.2h-34c-1.8,0-3.3-1.5-3.3-3.3v-67.6c0-1.8,1.5-3.3,3.3-3.3H255c1.8,0,3.3,1.5,3.3,3.3v47.8
			c0,0.9-0.3,1.7-1,2.3l-19.8,19.8C237,577.9,236.2,578.2,235.3,578.2L235.3,578.2z M204.6,571.6h29.4l17.8-17.8v-43.2h-47.2V571.6
			L204.6,571.6z"/>
		<g>
			<path fill="#445464" d="M231.7,521.4h-19.3c-0.9,0-1.6-0.7-1.6-1.6c0-0.9,0.7-1.6,1.6-1.6h19.3c0.9,0,1.6,0.7,1.6,1.6
				C233.4,520.7,232.6,521.4,231.7,521.4L231.7,521.4z"/>
		</g>
		<g>
			<path fill="#445464" d="M244.5,529.4h-32.1c-0.9,0-1.6-0.7-1.6-1.6c0-0.9,0.7-1.6,1.6-1.6h32.1c0.9,0,1.6,0.7,1.6,1.6
				C246.1,528.7,245.4,529.4,244.5,529.4L244.5,529.4z"/>
		</g>
		<g>
			<path fill="#445464" d="M225.8,553.3h-13.4c-0.9,0-1.6-0.7-1.6-1.6c0-0.9,0.7-1.6,1.6-1.6h13.4c0.9,0,1.6,0.7,1.6,1.6
				C227.5,552.6,226.7,553.3,225.8,553.3L225.8,553.3z"/>
		</g>
		<g>
			<path fill="#445464" d="M225.8,561.3h-13.4c-0.9,0-1.6-0.7-1.6-1.6c0-0.9,0.7-1.6,1.6-1.6h13.4c0.9,0,1.6,0.7,1.6,1.6
				C227.5,560.6,226.7,561.3,225.8,561.3L225.8,561.3z"/>
		</g>
	</g>
</g>
<g>
	<g>
		<rect x="282.1" y="480.7" fill="#FFFFFF" width="133.4" height="133.4"/>
		<g>
			<path fill="#7F888D" d="M304.7,593.6h4.1c2.4,0,3.8,1.4,3.8,3.4v0c0,2.3-1.8,3.5-4,3.5h-1.7v3h-2.2V593.6z M308.6,598.6
				c1.1,0,1.7-0.7,1.7-1.5v0c0-1-0.7-1.5-1.8-1.5h-1.7v3H308.6z"/>
			<path fill="#7F888D" d="M314.1,593.6h3.9c3.1,0,5.3,2.1,5.3,4.9v0c0,2.8-2.2,5-5.3,5h-3.9V593.6z M318,601.6c1.8,0,3-1.2,3-3v0
				c0-1.8-1.2-3-3-3h-1.7v6H318z"/>
			<path fill="#7F888D" d="M325.2,593.6h7.6v2h-5.4v2.1h4.7v2h-4.7v3.8h-2.2V593.6z"/>
			<path fill="#7F888D" d="M338.4,599.5c0-2.7,1.3-4.7,3.9-6.1l1,1.4c-1.9,1.3-2.7,2.6-2.7,4.6s0.8,3.3,2.7,4.6l-1,1.4
				C339.8,604.1,338.4,602.2,338.4,599.5z"/>
			<path fill="#7F888D" d="M345.1,593.6h2.2v7.9h5v2h-7.1V593.6z"/>
			<path fill="#7F888D" d="M353.2,601.4L353.2,601.4c0-1.7,1.3-2.5,3.1-2.5c0.8,0,1.3,0.1,1.9,0.3v-0.1c0-0.9-0.6-1.4-1.6-1.4
				c-0.8,0-1.4,0.2-2.1,0.4l-0.5-1.6c0.8-0.4,1.7-0.6,3-0.6c1.2,0,2,0.3,2.6,0.9c0.6,0.6,0.8,1.4,0.8,2.4v4.4h-2.1v-0.8
				c-0.5,0.6-1.2,1-2.3,1C354.4,603.7,353.2,602.9,353.2,601.4z M358.2,600.9v-0.4c-0.4-0.2-0.9-0.3-1.4-0.3c-0.9,0-1.5,0.4-1.5,1.1
				v0c0,0.6,0.5,0.9,1.2,0.9C357.5,602.2,358.2,601.7,358.2,600.9z"/>
			<path fill="#7F888D" d="M364.6,595.6h-3v-2h8.2v2h-3v7.9h-2.2V595.6z"/>
			<path fill="#7F888D" d="M369.4,599.8L369.4,599.8c0-2.2,1.5-4,3.8-4c2.5,0,3.7,2,3.7,4.1c0,0.2,0,0.4,0,0.6h-5.3
				c0.2,1,0.9,1.5,1.9,1.5c0.7,0,1.2-0.2,1.8-0.8l1.2,1.1c-0.7,0.9-1.7,1.4-3.1,1.4C371.1,603.7,369.4,602.1,369.4,599.8z
				 M374.8,599.2c-0.1-1-0.7-1.6-1.6-1.6c-0.9,0-1.5,0.6-1.6,1.6H374.8z"/>
			<path fill="#7F888D" d="M381.4,598.5l-3.3-4.9h2.6l2.1,3.2l2.1-3.2h2.5l-3.3,4.9l3.5,5.1h-2.6l-2.2-3.4l-2.2,3.4h-2.5
				L381.4,598.5z"/>
			<path fill="#7F888D" d="M388.5,604.1c1.9-1.3,2.7-2.6,2.7-4.6s-0.8-3.3-2.7-4.6l1-1.4c2.6,1.4,3.9,3.3,3.9,6.1s-1.3,4.7-3.9,6.1
				L388.5,604.1z"/>
		</g>
	</g>
	<g>
		<g>
			<path fill="#7F888D" d="M331.7,535.7h3.4c2,0,3.2,1.2,3.2,2.9v0c0,1.9-1.5,3-3.4,3h-1.4v2.5h-1.8V535.7z M335,539.9
				c0.9,0,1.5-0.6,1.5-1.3v0c0-0.8-0.6-1.3-1.5-1.3h-1.4v2.6H335z"/>
			<path fill="#7F888D" d="M339.7,535.7h3.3c2.6,0,4.5,1.8,4.5,4.2v0c0,2.4-1.8,4.2-4.5,4.2h-3.3V535.7z M343,542.4
				c1.5,0,2.5-1,2.5-2.5v0c0-1.5-1-2.5-2.5-2.5h-1.4v5.1H343z"/>
			<path fill="#7F888D" d="M349.1,535.7h6.4v1.7H351v1.8h4v1.7h-4v3.3h-1.8V535.7z"/>
		</g>
		<g>
			<path fill="#7F888D" d="M355.3,576.6c-0.9,0-1.6-0.7-1.6-1.6v-19.8c0-0.9,0.7-1.6,1.6-1.6H375c0.9,0,1.6,0.7,1.6,1.6
				c0,0.9-0.7,1.6-1.6,1.6h-18.1v18.1C356.9,575.8,356.2,576.6,355.3,576.6L355.3,576.6z"/>
		</g>
		<path fill="#7F888D" d="M355.3,578.2h-34c-1.8,0-3.3-1.5-3.3-3.3v-67.6c0-1.8,1.5-3.3,3.3-3.3H375c1.8,0,3.3,1.5,3.3,3.3v47.8
			c0,0.9-0.3,1.7-1,2.3l-19.8,19.8C357,577.9,356.2,578.2,355.3,578.2L355.3,578.2z M324.6,571.6h29.4l17.8-17.8v-43.2h-47.2V571.6
			L324.6,571.6z"/>
		<g>
			<path fill="#7F888D" d="M351.7,521.4h-19.3c-0.9,0-1.6-0.7-1.6-1.6c0-0.9,0.7-1.6,1.6-1.6h19.3c0.9,0,1.6,0.7,1.6,1.6
				C353.4,520.7,352.6,521.4,351.7,521.4L351.7,521.4z"/>
		</g>
		<g>
			<path fill="#7F888D" d="M364.5,529.4h-32.1c-0.9,0-1.6-0.7-1.6-1.6c0-0.9,0.7-1.6,1.6-1.6h32.1c0.9,0,1.6,0.7,1.6,1.6
				C366.1,528.7,365.4,529.4,364.5,529.4L364.5,529.4z"/>
		</g>
		<g>
			<path fill="#7F888D" d="M345.8,553.3h-13.4c-0.9,0-1.6-0.7-1.6-1.6c0-0.9,0.7-1.6,1.6-1.6h13.4c0.9,0,1.6,0.7,1.6,1.6
				C347.5,552.6,346.7,553.3,345.8,553.3L345.8,553.3z"/>
		</g>
		<g>
			<path fill="#7F888D" d="M345.8,561.3h-13.4c-0.9,0-1.6-0.7-1.6-1.6c0-0.9,0.7-1.6,1.6-1.6h13.4c0.9,0,1.6,0.7,1.6,1.6
				C347.5,560.6,346.7,561.3,345.8,561.3L345.8,561.3z"/>
		</g>
	</g>
</g>
<g>
	<g>
		<rect x="402.1" y="480.7" fill="#FFFFFF" width="133.4" height="133.4"/>
		<g>
			<path fill="#445464" d="M414.3,596.6h2v1.4c0.4-1,1.1-1.6,2.2-1.5v2.1h-0.1c-1.3,0-2.1,0.8-2.1,2.5v2.6h-2V596.6z"/>
			<path fill="#445464" d="M419.2,600.1L419.2,600.1c0-2,1.4-3.7,3.4-3.7c2.3,0,3.4,1.8,3.4,3.8c0,0.2,0,0.3,0,0.5h-4.8
				c0.2,0.9,0.8,1.4,1.7,1.4c0.7,0,1.1-0.2,1.7-0.7l1.1,1c-0.7,0.8-1.6,1.3-2.8,1.3C420.7,603.7,419.2,602.2,419.2,600.1z
				 M424.1,599.5c-0.1-0.9-0.6-1.5-1.5-1.5c-0.8,0-1.4,0.6-1.5,1.5H424.1z"/>
			<path fill="#445464" d="M427,602.2l1.2-1.4c0.8,0.7,1.7,1.1,2.7,1.1c0.8,0,1.3-0.3,1.3-0.9v0c0-0.5-0.3-0.8-1.8-1.2
				c-1.8-0.5-3-1-3-2.8v0c0-1.7,1.3-2.7,3.2-2.7c1.3,0,2.5,0.4,3.4,1.2l-1,1.5c-0.8-0.6-1.6-0.9-2.4-0.9s-1.2,0.4-1.2,0.8v0
				c0,0.6,0.4,0.8,2,1.2c1.8,0.5,2.9,1.1,2.9,2.7v0c0,1.8-1.4,2.8-3.3,2.8C429.5,603.7,428.1,603.2,427,602.2z"/>
			<path fill="#445464" d="M436,601.6v-3.3h-0.8v-1.7h0.8v-1.8h2v1.8h1.6v1.7H438v3c0,0.5,0.2,0.7,0.6,0.7c0.4,0,0.7-0.1,1-0.2v1.6
				c-0.4,0.2-0.9,0.4-1.6,0.4C436.9,603.7,436,603.2,436,601.6z"/>
			<path fill="#445464" d="M441.1,596.6h2v1.4c0.4-1,1.1-1.6,2.2-1.5v2.1h-0.1c-1.3,0-2.1,0.8-2.1,2.5v2.6h-2V596.6z"/>
			<path fill="#445464" d="M446.5,601.1v-4.5h2v3.9c0,0.9,0.4,1.4,1.2,1.4s1.2-0.5,1.2-1.4v-3.9h2v7h-2v-1c-0.5,0.6-1,1.1-2,1.1
				C447.4,603.7,446.5,602.7,446.5,601.1z"/>
			<path fill="#445464" d="M454.3,600.1L454.3,600.1c0-2,1.5-3.7,3.7-3.7c1.3,0,2.1,0.4,2.8,1.2l-1.2,1.3c-0.4-0.5-0.9-0.8-1.6-0.8
				c-1,0-1.7,0.9-1.7,1.9v0c0,1.1,0.7,1.9,1.8,1.9c0.7,0,1.1-0.3,1.6-0.7l1.2,1.2c-0.7,0.7-1.5,1.3-2.8,1.3
				C455.8,603.7,454.3,602.1,454.3,600.1z"/>
			<path fill="#445464" d="M462.4,601.6v-3.3h-0.8v-1.7h0.8v-1.8h2v1.8h1.6v1.7h-1.6v3c0,0.5,0.2,0.7,0.6,0.7c0.4,0,0.7-0.1,1-0.2
				v1.6c-0.4,0.2-0.9,0.4-1.6,0.4C463.2,603.7,462.4,603.2,462.4,601.6z"/>
			<path fill="#445464" d="M467.4,601.1v-4.5h2v3.9c0,0.9,0.4,1.4,1.2,1.4s1.2-0.5,1.2-1.4v-3.9h2v7h-2v-1c-0.5,0.6-1,1.1-2,1.1
				C468.3,603.7,467.4,602.7,467.4,601.1z"/>
			<path fill="#445464" d="M475.6,596.6h2v1.4c0.4-1,1.1-1.6,2.2-1.5v2.1h-0.1c-1.3,0-2.1,0.8-2.1,2.5v2.6h-2V596.6z"/>
			<path fill="#445464" d="M480.5,600.1L480.5,600.1c0-2,1.4-3.7,3.4-3.7c2.3,0,3.4,1.8,3.4,3.8c0,0.2,0,0.3,0,0.5h-4.8
				c0.2,0.9,0.8,1.4,1.7,1.4c0.7,0,1.1-0.2,1.7-0.7l1.1,1c-0.7,0.8-1.6,1.3-2.8,1.3C482,603.7,480.5,602.2,480.5,600.1z
				 M485.4,599.5c-0.1-0.9-0.6-1.5-1.5-1.5c-0.8,0-1.4,0.6-1.5,1.5H485.4z"/>
			<path fill="#445464" d="M488.5,600.1L488.5,600.1c0-2.4,1.5-3.6,3.2-3.6c1.1,0,1.7,0.5,2.2,1v-3.4h2v9.5h-2v-1
				c-0.5,0.6-1.1,1.1-2.2,1.1C490,603.7,488.5,602.4,488.5,600.1z M493.8,600.1L493.8,600.1c0-1.2-0.8-2-1.7-2s-1.7,0.8-1.7,1.9v0
				c0,1.2,0.8,1.9,1.7,1.9S493.8,601.2,493.8,600.1z"/>
			<path fill="#445464" d="M499.9,596.3h-2.8v-1.8h7.5v1.8h-2.8v7.3h-2V596.3z"/>
			<path fill="#445464" d="M504.3,600.1L504.3,600.1c0-2,1.4-3.7,3.4-3.7c2.3,0,3.4,1.8,3.4,3.8c0,0.2,0,0.3,0,0.5h-4.8
				c0.2,0.9,0.8,1.4,1.7,1.4c0.7,0,1.1-0.2,1.7-0.7l1.1,1c-0.7,0.8-1.6,1.3-2.8,1.3C505.8,603.7,504.3,602.2,504.3,600.1z
				 M509.2,599.5c-0.1-0.9-0.6-1.5-1.5-1.5c-0.8,0-1.4,0.6-1.5,1.5H509.2z"/>
			<path fill="#445464" d="M514,600l-2.4-3.4h2.1l1.3,2l1.3-2h2.1l-2.4,3.4l2.5,3.6h-2.1l-1.4-2.2l-1.4,2.2h-2.1L514,600z"/>
			<path fill="#445464" d="M520.1,601.6v-3.3h-0.8v-1.7h0.8v-1.8h2v1.8h1.6v1.7h-1.6v3c0,0.5,0.2,0.7,0.6,0.7c0.4,0,0.7-0.1,1-0.2
				v1.6c-0.4,0.2-0.9,0.4-1.6,0.4C520.9,603.7,520.1,603.2,520.1,601.6z"/>
		</g>
	</g>
	<g>
		<g>
			<path fill="#445464" d="M451.7,535.7h3.8c1.1,0,1.9,0.3,2.4,0.9c0.5,0.5,0.7,1.1,0.7,1.9v0c0,1.4-0.7,2.2-1.8,2.6l2.1,3h-2.2
				l-1.8-2.7h0h-1.4v2.7h-1.8V535.7z M455.4,539.8c0.9,0,1.4-0.5,1.4-1.2v0c0-0.8-0.6-1.2-1.5-1.2h-1.8v2.4H455.4z"/>
			<path fill="#445464" d="M459.8,542.9l1.1-1.3c0.8,0.6,1.5,1,2.5,1c0.8,0,1.2-0.3,1.2-0.8v0c0-0.5-0.3-0.7-1.7-1.1
				c-1.7-0.4-2.8-0.9-2.8-2.6v0c0-1.5,1.2-2.5,2.9-2.5c1.2,0,2.3,0.4,3.1,1.1l-1,1.4c-0.7-0.5-1.5-0.8-2.2-0.8
				c-0.7,0-1.1,0.3-1.1,0.7v0c0,0.6,0.4,0.7,1.8,1.1c1.7,0.4,2.7,1.1,2.7,2.5v0c0,1.7-1.3,2.6-3.1,2.6
				C462.1,544.2,460.8,543.8,459.8,542.9z"/>
			<path fill="#445464" d="M469.9,537.4h-2.6v-1.7h7v1.7h-2.6v6.7h-1.8V537.4z"/>
		</g>
		<g>
			<path fill="#445464" d="M475.3,576.6c-0.9,0-1.6-0.7-1.6-1.6v-19.8c0-0.9,0.7-1.6,1.6-1.6H495c0.9,0,1.6,0.7,1.6,1.6
				c0,0.9-0.7,1.6-1.6,1.6h-18.1v18.1C476.9,575.8,476.2,576.6,475.3,576.6L475.3,576.6z"/>
		</g>
		<path fill="#445464" d="M475.3,578.2h-34c-1.8,0-3.3-1.5-3.3-3.3v-67.6c0-1.8,1.5-3.3,3.3-3.3H495c1.8,0,3.3,1.5,3.3,3.3v47.8
			c0,0.9-0.3,1.7-1,2.3l-19.8,19.8C477,577.9,476.2,578.2,475.3,578.2L475.3,578.2z M444.6,571.6h29.4l17.8-17.8v-43.2h-47.2V571.6
			L444.6,571.6z"/>
		<g>
			<path fill="#445464" d="M471.7,521.4h-19.3c-0.9,0-1.6-0.7-1.6-1.6c0-0.9,0.7-1.6,1.6-1.6h19.3c0.9,0,1.6,0.7,1.6,1.6
				C473.4,520.7,472.6,521.4,471.7,521.4L471.7,521.4z"/>
		</g>
		<g>
			<path fill="#445464" d="M484.5,529.4h-32.1c-0.9,0-1.6-0.7-1.6-1.6c0-0.9,0.7-1.6,1.6-1.6h32.1c0.9,0,1.6,0.7,1.6,1.6
				C486.1,528.7,485.4,529.4,484.5,529.4L484.5,529.4z"/>
		</g>
		<g>
			<path fill="#445464" d="M465.8,553.3h-13.4c-0.9,0-1.6-0.7-1.6-1.6c0-0.9,0.7-1.6,1.6-1.6h13.4c0.9,0,1.6,0.7,1.6,1.6
				C467.5,552.6,466.7,553.3,465.8,553.3L465.8,553.3z"/>
		</g>
		<g>
			<path fill="#445464" d="M465.8,561.3h-13.4c-0.9,0-1.6-0.7-1.6-1.6c0-0.9,0.7-1.6,1.6-1.6h13.4c0.9,0,1.6,0.7,1.6,1.6
				C467.5,560.6,466.7,561.3,465.8,561.3L465.8,561.3z"/>
		</g>
	</g>
</g>
<g>
	<g>
		<rect x="522.1" y="480.7" fill="#FFFFFF" width="133.4" height="133.4"/>
		<g>
			<path fill="#445464" d="M551.5,593.6h2.4l2.6,4.2l2.6-4.2h2.4v9.9h-2.2v-6.5l-2.8,4.2h-0.1l-2.8-4.2v6.4h-2.1V593.6z"/>
			<path fill="#445464" d="M563.2,601.4L563.2,601.4c0-1.7,1.3-2.5,3.1-2.5c0.8,0,1.3,0.1,1.9,0.3v-0.1c0-0.9-0.6-1.4-1.6-1.4
				c-0.8,0-1.4,0.2-2.1,0.4l-0.5-1.6c0.8-0.4,1.7-0.6,3-0.6c1.2,0,2,0.3,2.6,0.9c0.6,0.6,0.8,1.4,0.8,2.4v4.4h-2.1v-0.8
				c-0.5,0.6-1.2,1-2.3,1C564.4,603.7,563.2,602.9,563.2,601.4z M568.1,600.9v-0.4c-0.4-0.2-0.9-0.3-1.4-0.3c-0.9,0-1.5,0.4-1.5,1.1
				v0c0,0.6,0.5,0.9,1.2,0.9C567.5,602.2,568.1,601.7,568.1,600.9z"/>
			<path fill="#445464" d="M572,595.9h2.2v1.1c0.5-0.6,1.1-1.2,2.2-1.2c1.6,0,2.6,1.1,2.6,2.8v4.9h-2.2v-4.2c0-1-0.5-1.5-1.3-1.5
				s-1.3,0.5-1.3,1.5v4.2H572V595.9z"/>
			<path fill="#445464" d="M585.4,593.6h4.1c2.4,0,3.8,1.4,3.8,3.4v0c0,2.3-1.8,3.5-4,3.5h-1.7v3h-2.2V593.6z M589.3,598.6
				c1.1,0,1.7-0.7,1.7-1.5v0c0-1-0.7-1.5-1.8-1.5h-1.7v3H589.3z"/>
			<path fill="#445464" d="M594,601.4L594,601.4c0-1.7,1.3-2.5,3.1-2.5c0.8,0,1.3,0.1,1.9,0.3v-0.1c0-0.9-0.6-1.4-1.6-1.4
				c-0.8,0-1.4,0.2-2.1,0.4l-0.5-1.6c0.8-0.4,1.7-0.6,3-0.6c1.2,0,2,0.3,2.6,0.9c0.6,0.6,0.8,1.4,0.8,2.4v4.4h-2.1v-0.8
				c-0.5,0.6-1.2,1-2.3,1C595.2,603.7,594,602.9,594,601.4z M599,600.9v-0.4c-0.4-0.2-0.9-0.3-1.4-0.3c-0.9,0-1.5,0.4-1.5,1.1v0
				c0,0.6,0.5,0.9,1.2,0.9C598.3,602.2,599,601.7,599,600.9z"/>
			<path fill="#445464" d="M602.9,605.1l0.7-1.6c0.8,0.4,1.6,0.7,2.6,0.7c1.5,0,2.2-0.7,2.2-2.1v-0.4c-0.6,0.8-1.3,1.2-2.5,1.2
				c-1.8,0-3.4-1.3-3.4-3.5v0c0-2.3,1.6-3.5,3.4-3.5c1.2,0,1.9,0.5,2.5,1.1v-1h2.2v5.9c0,1.4-0.3,2.4-1,3c-0.7,0.7-1.8,1-3.3,1
				C605,605.9,603.9,605.6,602.9,605.1z M608.4,599.4L608.4,599.4c0-1.1-0.8-1.8-1.9-1.8c-1,0-1.8,0.7-1.8,1.8v0
				c0,1,0.8,1.8,1.8,1.8C607.6,601.1,608.4,600.4,608.4,599.4z"/>
			<path fill="#445464" d="M612.1,599.8L612.1,599.8c0-2.2,1.5-4,3.8-4c2.5,0,3.7,2,3.7,4.1c0,0.2,0,0.4,0,0.6h-5.3
				c0.2,1,0.9,1.5,1.9,1.5c0.7,0,1.2-0.2,1.8-0.8l1.2,1.1c-0.7,0.9-1.7,1.4-3.1,1.4C613.8,603.7,612.1,602.1,612.1,599.8z
				 M617.4,599.2c-0.1-1-0.7-1.6-1.6-1.6c-0.9,0-1.5,0.6-1.6,1.6H617.4z"/>
			<path fill="#445464" d="M620.5,602.5l0.9-1.4c0.8,0.6,1.7,0.9,2.4,0.9c0.6,0,0.9-0.2,0.9-0.6v0c0-0.5-0.7-0.6-1.6-0.9
				c-1.1-0.3-2.3-0.8-2.3-2.3v0c0-1.5,1.2-2.4,2.8-2.4c1,0,2,0.3,2.8,0.9l-0.8,1.5c-0.8-0.4-1.5-0.7-2.1-0.7c-0.5,0-0.8,0.2-0.8,0.5
				v0c0,0.4,0.7,0.6,1.5,0.9c1.1,0.4,2.3,0.9,2.3,2.3v0c0,1.7-1.3,2.5-2.9,2.5C622.7,603.7,621.6,603.3,620.5,602.5z"/>
		</g>
	</g>
	<g>
		<g>
			<path fill="#445464" d="M571.7,535.7h2l2.2,3.5l2.2-3.5h2v8.4h-1.8v-5.5l-2.4,3.6h0l-2.3-3.6v5.4h-1.8V535.7z"/>
			<path fill="#445464" d="M585,535.7h1.7l3.6,8.5h-1.9l-0.8-1.9h-3.5l-0.8,1.9h-1.9L585,535.7z M587,540.6l-1.1-2.7l-1.1,2.7H587z"
				/>
			<path fill="#445464" d="M591.6,535.7h1.7l3.9,5.2v-5.2h1.8v8.4h-1.6l-4.1-5.3v5.3h-1.8V535.7z"/>
		</g>
		<g>
			<path fill="#445464" d="M595.3,576.6c-0.9,0-1.6-0.7-1.6-1.6v-19.8c0-0.9,0.7-1.6,1.6-1.6H615c0.9,0,1.6,0.7,1.6,1.6
				c0,0.9-0.7,1.6-1.6,1.6h-18.1v18.1C596.9,575.8,596.2,576.6,595.3,576.6L595.3,576.6z"/>
		</g>
		<path fill="#445464" d="M595.3,578.2h-34c-1.8,0-3.3-1.5-3.3-3.3v-67.6c0-1.8,1.5-3.3,3.3-3.3H615c1.8,0,3.3,1.5,3.3,3.3v47.8
			c0,0.9-0.3,1.7-1,2.3l-19.8,19.8C597,577.9,596.2,578.2,595.3,578.2L595.3,578.2z M564.6,571.6h29.4l17.8-17.8v-43.2h-47.2V571.6
			L564.6,571.6z"/>
		<g>
			<path fill="#445464" d="M591.7,521.4h-19.3c-0.9,0-1.6-0.7-1.6-1.6c0-0.9,0.7-1.6,1.6-1.6h19.3c0.9,0,1.6,0.7,1.6,1.6
				C593.4,520.7,592.6,521.4,591.7,521.4L591.7,521.4z"/>
		</g>
		<g>
			<path fill="#445464" d="M604.5,529.4h-32.1c-0.9,0-1.6-0.7-1.6-1.6c0-0.9,0.7-1.6,1.6-1.6h32.1c0.9,0,1.6,0.7,1.6,1.6
				C606.1,528.7,605.4,529.4,604.5,529.4L604.5,529.4z"/>
		</g>
		<g>
			<path fill="#445464" d="M585.8,553.3h-13.4c-0.9,0-1.6-0.7-1.6-1.6c0-0.9,0.7-1.6,1.6-1.6h13.4c0.9,0,1.6,0.7,1.6,1.6
				C587.5,552.6,586.7,553.3,585.8,553.3L585.8,553.3z"/>
		</g>
		<g>
			<path fill="#445464" d="M585.8,561.3h-13.4c-0.9,0-1.6-0.7-1.6-1.6c0-0.9,0.7-1.6,1.6-1.6h13.4c0.9,0,1.6,0.7,1.6,1.6
				C587.5,560.6,586.7,561.3,585.8,561.3L585.8,561.3z"/>
		</g>
	</g>
</g>
<g>
	<g>
		<rect x="642.1" y="480.7" fill="#FFFFFF" width="133.4" height="133.4"/>
		<g>
			<path fill="#445464" d="M678.3,593.6h4.5c1.3,0,2.2,0.4,2.9,1c0.6,0.6,0.9,1.3,0.9,2.3v0c0,1.6-0.9,2.6-2.1,3.1l2.4,3.5h-2.6
				l-2.1-3.2h0h-1.7v3.2h-2.2V593.6z M682.7,598.4c1.1,0,1.7-0.6,1.7-1.4v0c0-0.9-0.7-1.4-1.7-1.4h-2.2v2.9H682.7z"/>
			<path fill="#445464" d="M687.8,599.8L687.8,599.8c0-2.2,1.5-4,3.8-4c2.5,0,3.7,2,3.7,4.1c0,0.2,0,0.4,0,0.6H690
				c0.2,1,0.9,1.5,1.9,1.5c0.7,0,1.2-0.2,1.8-0.8l1.2,1.1c-0.7,0.9-1.7,1.4-3.1,1.4C689.5,603.7,687.8,602.1,687.8,599.8z
				 M693.2,599.2c-0.1-1-0.7-1.6-1.6-1.6c-0.9,0-1.5,0.6-1.6,1.6H693.2z"/>
			<path fill="#445464" d="M695.9,595.9h2.3l1.7,5.1l1.7-5.1h2.2l-3,7.7h-2L695.9,595.9z"/>
			<path fill="#445464" d="M704.3,599.8L704.3,599.8c0-2.2,1.5-4,3.8-4c2.5,0,3.7,2,3.7,4.1c0,0.2,0,0.4,0,0.6h-5.3
				c0.2,1,0.9,1.5,1.9,1.5c0.7,0,1.2-0.2,1.8-0.8l1.2,1.1c-0.7,0.9-1.7,1.4-3.1,1.4C706,603.7,704.3,602.1,704.3,599.8z
				 M709.6,599.2c-0.1-1-0.7-1.6-1.6-1.6c-0.9,0-1.5,0.6-1.6,1.6H709.6z"/>
			<path fill="#445464" d="M712.9,601.4L712.9,601.4c0-1.7,1.3-2.5,3.1-2.5c0.8,0,1.3,0.1,1.9,0.3v-0.1c0-0.9-0.6-1.4-1.6-1.4
				c-0.8,0-1.4,0.2-2.1,0.4l-0.5-1.6c0.8-0.4,1.7-0.6,3-0.6c1.2,0,2,0.3,2.6,0.9c0.6,0.6,0.8,1.4,0.8,2.4v4.4h-2.1v-0.8
				c-0.5,0.6-1.2,1-2.3,1C714.1,603.7,712.9,602.9,712.9,601.4z M717.8,600.9v-0.4c-0.4-0.2-0.9-0.3-1.4-0.3c-0.9,0-1.5,0.4-1.5,1.1
				v0c0,0.6,0.5,0.9,1.2,0.9C717.2,602.2,717.8,601.7,717.8,600.9z"/>
			<path fill="#445464" d="M721.8,593.2h2.2v10.4h-2.2V593.2z"/>
			<path fill="#445464" d="M725.9,601.3h2.3v2.3h-2.3V601.3z"/>
			<path fill="#445464" d="M729,605.8v-1.7c0.2,0,0.3,0,0.5,0c0.5,0,0.8-0.2,0.8-0.9v-7.3h2.2v7.5c0,1.7-0.9,2.4-2.4,2.4
				C729.5,605.9,729.3,605.8,729,605.8z M730.1,593.2h2.3v1.9h-2.3V593.2z"/>
			<path fill="#445464" d="M733.8,602.5l0.9-1.4c0.8,0.6,1.7,0.9,2.4,0.9c0.6,0,0.9-0.2,0.9-0.6v0c0-0.5-0.7-0.6-1.6-0.9
				c-1.1-0.3-2.3-0.8-2.3-2.3v0c0-1.5,1.2-2.4,2.8-2.4c1,0,2,0.3,2.8,0.9l-0.8,1.5c-0.8-0.4-1.5-0.7-2.1-0.7c-0.5,0-0.8,0.2-0.8,0.5
				v0c0,0.4,0.7,0.6,1.5,0.9c1.1,0.4,2.3,0.9,2.3,2.3v0c0,1.7-1.3,2.5-2.9,2.5C736,603.7,734.8,603.3,733.8,602.5z"/>
		</g>
	</g>
	<g>
		<g>
			<path fill="#445464" d="M691.1,542.9l1.1-1.3c0.8,0.6,1.5,1,2.5,1c0.8,0,1.2-0.3,1.2-0.8v0c0-0.5-0.3-0.7-1.7-1.1
				c-1.7-0.4-2.8-0.9-2.8-2.6v0c0-1.5,1.2-2.5,2.9-2.5c1.2,0,2.3,0.4,3.1,1.1l-1,1.4c-0.7-0.5-1.5-0.8-2.2-0.8
				c-0.7,0-1.1,0.3-1.1,0.7v0c0,0.6,0.4,0.7,1.8,1.1c1.7,0.4,2.7,1.1,2.7,2.5v0c0,1.7-1.3,2.6-3.1,2.6
				C693.4,544.2,692.2,543.8,691.1,542.9z"/>
			<path fill="#445464" d="M699.4,535.7h1.8v6.7h4.2v1.7h-6V535.7z"/>
			<path fill="#445464" d="M706.9,535.7h1.8v8.4h-1.8V535.7z"/>
			<path fill="#445464" d="M710.9,535.7h3.3c2.6,0,4.5,1.8,4.5,4.2v0c0,2.4-1.8,4.2-4.5,4.2h-3.3V535.7z M714.1,542.4
				c1.5,0,2.5-1,2.5-2.5v0c0-1.5-1-2.5-2.5-2.5h-1.4v5.1H714.1z"/>
			<path fill="#445464" d="M720.2,535.7h6.3v1.6h-4.5v1.7h4v1.6h-4v1.8h4.6v1.6h-6.4V535.7z"/>
		</g>
		<g>
			<path fill="#445464" d="M715.3,576.6c-0.9,0-1.6-0.7-1.6-1.6v-19.8c0-0.9,0.7-1.6,1.6-1.6H735c0.9,0,1.6,0.7,1.6,1.6
				c0,0.9-0.7,1.6-1.6,1.6h-18.1v18.1C716.9,575.8,716.2,576.6,715.3,576.6L715.3,576.6z"/>
		</g>
		<path fill="#445464" d="M715.3,578.2h-34c-1.8,0-3.3-1.5-3.3-3.3v-67.6c0-1.8,1.5-3.3,3.3-3.3H735c1.8,0,3.3,1.5,3.3,3.3v47.8
			c0,0.9-0.3,1.7-1,2.3l-19.8,19.8C717,577.9,716.2,578.2,715.3,578.2L715.3,578.2z M684.6,571.6h29.4l17.8-17.8v-43.2h-47.2V571.6
			L684.6,571.6z"/>
		<g>
			<path fill="#445464" d="M711.7,521.4h-19.3c-0.9,0-1.6-0.7-1.6-1.6c0-0.9,0.7-1.6,1.6-1.6h19.3c0.9,0,1.6,0.7,1.6,1.6
				C713.4,520.7,712.6,521.4,711.7,521.4L711.7,521.4z"/>
		</g>
		<g>
			<path fill="#445464" d="M724.5,529.4h-32.1c-0.9,0-1.6-0.7-1.6-1.6c0-0.9,0.7-1.6,1.6-1.6h32.1c0.9,0,1.6,0.7,1.6,1.6
				C726.1,528.7,725.4,529.4,724.5,529.4L724.5,529.4z"/>
		</g>
		<g>
			<path fill="#445464" d="M705.8,553.3h-13.4c-0.9,0-1.6-0.7-1.6-1.6c0-0.9,0.7-1.6,1.6-1.6h13.4c0.9,0,1.6,0.7,1.6,1.6
				C707.5,552.6,706.7,553.3,705.8,553.3L705.8,553.3z"/>
		</g>
		<g>
			<path fill="#445464" d="M705.8,561.3h-13.4c-0.9,0-1.6-0.7-1.6-1.6c0-0.9,0.7-1.6,1.6-1.6h13.4c0.9,0,1.6,0.7,1.6,1.6
				C707.5,560.6,706.7,561.3,705.8,561.3L705.8,561.3z"/>
		</g>
	</g>
</g>
<g>
	<polyline fill="none" stroke="#80888D" stroke-width="4" stroke-miterlimit="10" points="226.8,498.8 226.8,456.9 468.5,456.9 
		468.5,422.8 	"/>
	<line fill="none" stroke="#80888D" stroke-width="4" stroke-miterlimit="10" x1="347.5" y1="498.8" x2="347.5" y2="456.9"/>
	<polyline fill="none" stroke="#80888D" stroke-width="4" stroke-miterlimit="10" points="707.5,498.8 707.5,456.9 588.4,456.9 
		468.5,456.9 468.5,498.8 	"/>
	<line fill="none" stroke="#80888D" stroke-width="4" stroke-miterlimit="10" x1="588.4" y1="498.8" x2="588.4" y2="456.9"/>
</g>
<g>
	<g>
		<g>
			<path fill="#7F888D" d="M707.5,500.3c-0.1,0-0.3,0-0.4-0.1c-0.6-0.5-5.9-5.1-5.9-8.5c0-3.5,2.8-6.3,6.3-6.3
				c3.5,0,6.3,2.8,6.3,6.3c0,3.3-5.3,8-5.9,8.5C707.7,500.3,707.6,500.3,707.5,500.3L707.5,500.3z M707.5,486.6
				c-2.8,0-5.1,2.3-5.1,5.1c0,2.2,3.4,5.6,5.1,7.2c1.7-1.5,5.1-5,5.1-7.2C712.5,488.9,710.3,486.6,707.5,486.6L707.5,486.6z"/>
		</g>
		<ellipse fill="#7F888D" cx="707.4" cy="491.6" rx="4.5" ry="4.5"/>
		<g>
			<path fill="#7F888D" d="M707.4,499c-0.1,0-0.2,0-0.3-0.1c-0.5-0.4-5-4.3-5-7.2c0-2.9,2.4-5.3,5.3-5.3s5.3,2.4,5.3,5.3
				c0,2.8-4.5,6.7-5,7.2C707.6,499,707.5,499,707.4,499L707.4,499z M707.4,487.4c-2.4,0-4.3,1.9-4.3,4.3c0,1.8,2.8,4.8,4.3,6.1
				c1.5-1.3,4.3-4.2,4.3-6.1C711.7,489.4,709.8,487.4,707.4,487.4L707.4,487.4z"/>
		</g>
		<circle fill="#7F888D" cx="707.4" cy="496.1" r="2.5"/>
	</g>
	<g>
		<g>
			<path fill="#FFFFFF" d="M707.5,489.3c1.5,0,2.7,1.2,2.7,2.7c0,1.5-1.2,2.7-2.7,2.7c-1.5,0-2.7-1.2-2.7-2.7
				C704.8,490.5,706,489.3,707.5,489.3L707.5,489.3z M707.5,493.8c1,0,1.8-0.8,1.8-1.8c0-1-0.8-1.8-1.8-1.8c-1,0-1.8,0.8-1.8,1.8
				C705.7,493,706.5,493.8,707.5,493.8L707.5,493.8z"/>
		</g>
		<g>
			<g>
				<path fill="#FFFFFF" d="M709.1,493.2c0.1,0,0.2,0,0.3,0.1l0.6,0.6c0.2,0.2,0.2,0.5,0,0.6s-0.5,0.2-0.6,0l-0.6-0.6
					c-0.2-0.2-0.2-0.5,0-0.6C708.9,493.2,709,493.2,709.1,493.2L709.1,493.2z"/>
			</g>
			<g>
				<path fill="#FFFFFF" d="M705.2,489.2c0.1,0,0.2,0,0.3,0.1l0.7,0.7c0.2,0.2,0.2,0.5,0,0.6c-0.2,0.2-0.5,0.2-0.6,0l-0.7-0.7
					c-0.2-0.2-0.2-0.5,0-0.6C704.9,489.3,705,489.2,705.2,489.2L705.2,489.2z"/>
			</g>
		</g>
		<g>
			<g>
				<path fill="#FFFFFF" d="M705.8,493.2c0.1,0,0.2,0,0.3,0.1c0.2,0.2,0.2,0.5,0,0.6l-0.6,0.6c-0.2,0.2-0.5,0.2-0.6,0
					c-0.2-0.2-0.2-0.5,0-0.6l0.6-0.6C705.6,493.2,705.7,493.2,705.8,493.2L705.8,493.2z"/>
			</g>
			<g>
				<path fill="#FFFFFF" d="M709.8,489.2c0.1,0,0.2,0,0.3,0.1c0.2,0.2,0.2,0.5,0,0.6l-0.7,0.7c-0.2,0.2-0.5,0.2-0.6,0
					c-0.2-0.2-0.2-0.5,0-0.6l0.7-0.7C709.5,489.3,709.6,489.2,709.8,489.2L709.8,489.2z"/>
			</g>
		</g>
		<g>
			<g>
				<path fill="#FFFFFF" d="M707.5,493.9c0.2,0,0.4,0.2,0.4,0.4v0.9c0,0.2-0.2,0.4-0.4,0.4c-0.2,0-0.4-0.2-0.4-0.4v-0.9
					C707,494.1,707.2,493.9,707.5,493.9L707.5,493.9z"/>
			</g>
			<g>
				<path fill="#FFFFFF" d="M707.5,488.3L707.5,488.3c0.2,0,0.4,0.2,0.4,0.4l0,1c0,0.2-0.2,0.4-0.4,0.4l0,0c-0.2,0-0.4-0.2-0.4-0.4
					l0-1C707,488.5,707.2,488.3,707.5,488.3L707.5,488.3z"/>
			</g>
		</g>
		<g>
			<g>
				<path fill="#FFFFFF" d="M704.2,491.5h0.9c0.2,0,0.4,0.2,0.4,0.4c0,0.2-0.2,0.4-0.4,0.4h-0.9c-0.2,0-0.4-0.2-0.4-0.4
					C703.8,491.7,704,491.5,704.2,491.5L704.2,491.5z"/>
			</g>
			<g>
				<path fill="#FFFFFF" d="M709.7,491.5h1c0.2,0,0.4,0.2,0.4,0.4c0,0.2-0.2,0.4-0.4,0.4h-1c-0.2,0-0.4-0.2-0.4-0.4
					C709.2,491.7,709.4,491.5,709.7,491.5L709.7,491.5z"/>
			</g>
		</g>
	</g>
</g>
<g>
	<g>
		<g>
			<path fill="#7F888D" d="M588.5,500.3c-0.1,0-0.3,0-0.4-0.1c-0.6-0.5-5.9-5.1-5.9-8.5c0-3.5,2.8-6.3,6.3-6.3
				c3.5,0,6.3,2.8,6.3,6.3c0,3.3-5.3,8-5.9,8.5C588.7,500.3,588.6,500.3,588.5,500.3L588.5,500.3z M588.5,486.6
				c-2.8,0-5.1,2.3-5.1,5.1c0,2.2,3.4,5.6,5.1,7.2c1.7-1.5,5.1-5,5.1-7.2C593.5,488.9,591.3,486.6,588.5,486.6L588.5,486.6z"/>
		</g>
		<ellipse fill="#7F888D" cx="588.4" cy="491.6" rx="4.5" ry="4.5"/>
		<g>
			<path fill="#7F888D" d="M588.4,499c-0.1,0-0.2,0-0.3-0.1c-0.5-0.4-5-4.3-5-7.2c0-2.9,2.4-5.3,5.3-5.3s5.3,2.4,5.3,5.3
				c0,2.8-4.5,6.7-5,7.2C588.6,499,588.5,499,588.4,499L588.4,499z M588.4,487.4c-2.4,0-4.3,1.9-4.3,4.3c0,1.8,2.8,4.8,4.3,6.1
				c1.5-1.3,4.3-4.2,4.3-6.1C592.7,489.4,590.8,487.4,588.4,487.4L588.4,487.4z"/>
		</g>
		<circle fill="#7F888D" cx="588.4" cy="496.1" r="2.5"/>
	</g>
	<g>
		<g>
			<path fill="#FFFFFF" d="M588.5,489.3c1.5,0,2.7,1.2,2.7,2.7c0,1.5-1.2,2.7-2.7,2.7c-1.5,0-2.7-1.2-2.7-2.7
				C585.8,490.5,587,489.3,588.5,489.3L588.5,489.3z M588.5,493.8c1,0,1.8-0.8,1.8-1.8c0-1-0.8-1.8-1.8-1.8c-1,0-1.8,0.8-1.8,1.8
				C586.7,493,587.5,493.8,588.5,493.8L588.5,493.8z"/>
		</g>
		<g>
			<g>
				<path fill="#FFFFFF" d="M590.1,493.2c0.1,0,0.2,0,0.3,0.1l0.6,0.6c0.2,0.2,0.2,0.5,0,0.6s-0.5,0.2-0.6,0l-0.6-0.6
					c-0.2-0.2-0.2-0.5,0-0.6C589.9,493.2,590,493.2,590.1,493.2L590.1,493.2z"/>
			</g>
			<g>
				<path fill="#FFFFFF" d="M586.2,489.2c0.1,0,0.2,0,0.3,0.1l0.7,0.7c0.2,0.2,0.2,0.5,0,0.6c-0.2,0.2-0.5,0.2-0.6,0l-0.7-0.7
					c-0.2-0.2-0.2-0.5,0-0.6C585.9,489.3,586,489.2,586.2,489.2L586.2,489.2z"/>
			</g>
		</g>
		<g>
			<g>
				<path fill="#FFFFFF" d="M586.8,493.2c0.1,0,0.2,0,0.3,0.1c0.2,0.2,0.2,0.5,0,0.6l-0.6,0.6c-0.2,0.2-0.5,0.2-0.6,0
					c-0.2-0.2-0.2-0.5,0-0.6l0.6-0.6C586.6,493.2,586.7,493.2,586.8,493.2L586.8,493.2z"/>
			</g>
			<g>
				<path fill="#FFFFFF" d="M590.8,489.2c0.1,0,0.2,0,0.3,0.1c0.2,0.2,0.2,0.5,0,0.6l-0.7,0.7c-0.2,0.2-0.5,0.2-0.6,0
					c-0.2-0.2-0.2-0.5,0-0.6l0.7-0.7C590.5,489.3,590.6,489.2,590.8,489.2L590.8,489.2z"/>
			</g>
		</g>
		<g>
			<g>
				<path fill="#FFFFFF" d="M588.5,493.9c0.2,0,0.4,0.2,0.4,0.4v0.9c0,0.2-0.2,0.4-0.4,0.4c-0.2,0-0.4-0.2-0.4-0.4v-0.9
					C588,494.1,588.2,493.9,588.5,493.9L588.5,493.9z"/>
			</g>
			<g>
				<path fill="#FFFFFF" d="M588.5,488.3L588.5,488.3c0.2,0,0.4,0.2,0.4,0.4l0,1c0,0.2-0.2,0.4-0.4,0.4l0,0c-0.2,0-0.4-0.2-0.4-0.4
					l0-1C588,488.5,588.2,488.3,588.5,488.3L588.5,488.3z"/>
			</g>
		</g>
		<g>
			<g>
				<path fill="#FFFFFF" d="M585.2,491.5h0.9c0.2,0,0.4,0.2,0.4,0.4c0,0.2-0.2,0.4-0.4,0.4h-0.9c-0.2,0-0.4-0.2-0.4-0.4
					C584.8,491.7,585,491.5,585.2,491.5L585.2,491.5z"/>
			</g>
			<g>
				<path fill="#FFFFFF" d="M590.7,491.5h1c0.2,0,0.4,0.2,0.4,0.4c0,0.2-0.2,0.4-0.4,0.4h-1c-0.2,0-0.4-0.2-0.4-0.4
					C590.2,491.7,590.4,491.5,590.7,491.5L590.7,491.5z"/>
			</g>
		</g>
	</g>
</g>
<g>
	<g>
		<g>
			<path fill="#7F888D" d="M468.5,500.3c-0.1,0-0.3,0-0.4-0.1c-0.6-0.5-5.9-5.1-5.9-8.5c0-3.5,2.8-6.3,6.3-6.3
				c3.5,0,6.3,2.8,6.3,6.3c0,3.3-5.3,8-5.9,8.5C468.7,500.3,468.6,500.3,468.5,500.3L468.5,500.3z M468.5,486.6
				c-2.8,0-5.1,2.3-5.1,5.1c0,2.2,3.4,5.6,5.1,7.2c1.7-1.5,5.1-5,5.1-7.2C473.5,488.9,471.3,486.6,468.5,486.6L468.5,486.6z"/>
		</g>
		<ellipse fill="#7F888D" cx="468.4" cy="491.6" rx="4.5" ry="4.5"/>
		<g>
			<path fill="#7F888D" d="M468.4,499c-0.1,0-0.2,0-0.3-0.1c-0.5-0.4-5-4.3-5-7.2c0-2.9,2.4-5.3,5.3-5.3c2.9,0,5.3,2.4,5.3,5.3
				c0,2.8-4.5,6.7-5,7.2C468.6,499,468.5,499,468.4,499L468.4,499z M468.4,487.4c-2.4,0-4.3,1.9-4.3,4.3c0,1.8,2.8,4.8,4.3,6.1
				c1.5-1.3,4.3-4.2,4.3-6.1C472.7,489.4,470.8,487.4,468.4,487.4L468.4,487.4z"/>
		</g>
		<circle fill="#7F888D" cx="468.4" cy="496.1" r="2.5"/>
	</g>
	<g>
		<g>
			<path fill="#FFFFFF" d="M468.5,489.3c1.5,0,2.7,1.2,2.7,2.7c0,1.5-1.2,2.7-2.7,2.7c-1.5,0-2.7-1.2-2.7-2.7
				C465.8,490.5,467,489.3,468.5,489.3L468.5,489.3z M468.5,493.8c1,0,1.8-0.8,1.8-1.8c0-1-0.8-1.8-1.8-1.8c-1,0-1.8,0.8-1.8,1.8
				C466.7,493,467.5,493.8,468.5,493.8L468.5,493.8z"/>
		</g>
		<g>
			<g>
				<path fill="#FFFFFF" d="M470.1,493.2c0.1,0,0.2,0,0.3,0.1l0.6,0.6c0.2,0.2,0.2,0.5,0,0.6s-0.5,0.2-0.6,0l-0.6-0.6
					c-0.2-0.2-0.2-0.5,0-0.6C469.9,493.2,470,493.2,470.1,493.2L470.1,493.2z"/>
			</g>
			<g>
				<path fill="#FFFFFF" d="M466.2,489.2c0.1,0,0.2,0,0.3,0.1l0.7,0.7c0.2,0.2,0.2,0.5,0,0.6c-0.2,0.2-0.5,0.2-0.6,0l-0.7-0.7
					c-0.2-0.2-0.2-0.5,0-0.6C465.9,489.3,466,489.2,466.2,489.2L466.2,489.2z"/>
			</g>
		</g>
		<g>
			<g>
				<path fill="#FFFFFF" d="M466.8,493.2c0.1,0,0.2,0,0.3,0.1c0.2,0.2,0.2,0.5,0,0.6l-0.6,0.6c-0.2,0.2-0.5,0.2-0.6,0
					c-0.2-0.2-0.2-0.5,0-0.6l0.6-0.6C466.6,493.2,466.7,493.2,466.8,493.2L466.8,493.2z"/>
			</g>
			<g>
				<path fill="#FFFFFF" d="M470.8,489.2c0.1,0,0.2,0,0.3,0.1c0.2,0.2,0.2,0.5,0,0.6l-0.7,0.7c-0.2,0.2-0.5,0.2-0.6,0
					c-0.2-0.2-0.2-0.5,0-0.6l0.7-0.7C470.5,489.3,470.6,489.2,470.8,489.2L470.8,489.2z"/>
			</g>
		</g>
		<g>
			<g>
				<path fill="#FFFFFF" d="M468.5,493.9c0.2,0,0.4,0.2,0.4,0.4v0.9c0,0.2-0.2,0.4-0.4,0.4c-0.2,0-0.4-0.2-0.4-0.4v-0.9
					C468,494.1,468.2,493.9,468.5,493.9L468.5,493.9z"/>
			</g>
			<g>
				<path fill="#FFFFFF" d="M468.5,488.3L468.5,488.3c0.2,0,0.4,0.2,0.4,0.4l0,1c0,0.2-0.2,0.4-0.4,0.4l0,0c-0.2,0-0.4-0.2-0.4-0.4
					l0-1C468,488.5,468.2,488.3,468.5,488.3L468.5,488.3z"/>
			</g>
		</g>
		<g>
			<g>
				<path fill="#FFFFFF" d="M465.2,491.5h0.9c0.2,0,0.4,0.2,0.4,0.4c0,0.2-0.2,0.4-0.4,0.4h-0.9c-0.2,0-0.4-0.2-0.4-0.4
					C464.8,491.7,465,491.5,465.2,491.5L465.2,491.5z"/>
			</g>
			<g>
				<path fill="#FFFFFF" d="M470.7,491.5h1c0.2,0,0.4,0.2,0.4,0.4c0,0.2-0.2,0.4-0.4,0.4h-1c-0.2,0-0.4-0.2-0.4-0.4
					C470.2,491.7,470.4,491.5,470.7,491.5L470.7,491.5z"/>
			</g>
		</g>
	</g>
</g>
<g>
	<g>
		<g>
			<path fill="#7F888D" d="M347.5,500.3c-0.1,0-0.3,0-0.4-0.1c-0.6-0.5-5.9-5.1-5.9-8.5c0-3.5,2.8-6.3,6.3-6.3
				c3.5,0,6.3,2.8,6.3,6.3c0,3.3-5.3,8-5.9,8.5C347.7,500.3,347.6,500.3,347.5,500.3L347.5,500.3z M347.5,486.6
				c-2.8,0-5.1,2.3-5.1,5.1c0,2.2,3.4,5.6,5.1,7.2c1.7-1.5,5.1-5,5.1-7.2C352.5,488.9,350.3,486.6,347.5,486.6L347.5,486.6z"/>
		</g>
		<ellipse fill="#7F888D" cx="347.4" cy="491.6" rx="4.5" ry="4.5"/>
		<g>
			<path fill="#7F888D" d="M347.4,499c-0.1,0-0.2,0-0.3-0.1c-0.5-0.4-5-4.3-5-7.2c0-2.9,2.4-5.3,5.3-5.3c2.9,0,5.3,2.4,5.3,5.3
				c0,2.8-4.5,6.7-5,7.2C347.6,499,347.5,499,347.4,499L347.4,499z M347.4,487.4c-2.4,0-4.3,1.9-4.3,4.3c0,1.8,2.8,4.8,4.3,6.1
				c1.5-1.3,4.3-4.2,4.3-6.1C351.7,489.4,349.8,487.4,347.4,487.4L347.4,487.4z"/>
		</g>
		<circle fill="#7F888D" cx="347.4" cy="496.1" r="2.5"/>
	</g>
	<g>
		<g>
			<path fill="#FFFFFF" d="M347.5,489.3c1.5,0,2.7,1.2,2.7,2.7c0,1.5-1.2,2.7-2.7,2.7c-1.5,0-2.7-1.2-2.7-2.7
				C344.8,490.5,346,489.3,347.5,489.3L347.5,489.3z M347.5,493.8c1,0,1.8-0.8,1.8-1.8c0-1-0.8-1.8-1.8-1.8c-1,0-1.8,0.8-1.8,1.8
				C345.7,493,346.5,493.8,347.5,493.8L347.5,493.8z"/>
		</g>
		<g>
			<g>
				<path fill="#FFFFFF" d="M349.1,493.2c0.1,0,0.2,0,0.3,0.1l0.6,0.6c0.2,0.2,0.2,0.5,0,0.6s-0.5,0.2-0.6,0l-0.6-0.6
					c-0.2-0.2-0.2-0.5,0-0.6C348.9,493.2,349,493.2,349.1,493.2L349.1,493.2z"/>
			</g>
			<g>
				<path fill="#FFFFFF" d="M345.2,489.2c0.1,0,0.2,0,0.3,0.1l0.7,0.7c0.2,0.2,0.2,0.5,0,0.6c-0.2,0.2-0.5,0.2-0.6,0l-0.7-0.7
					c-0.2-0.2-0.2-0.5,0-0.6C344.9,489.3,345,489.2,345.2,489.2L345.2,489.2z"/>
			</g>
		</g>
		<g>
			<g>
				<path fill="#FFFFFF" d="M345.8,493.2c0.1,0,0.2,0,0.3,0.1c0.2,0.2,0.2,0.5,0,0.6l-0.6,0.6c-0.2,0.2-0.5,0.2-0.6,0
					c-0.2-0.2-0.2-0.5,0-0.6l0.6-0.6C345.6,493.2,345.7,493.2,345.8,493.2L345.8,493.2z"/>
			</g>
			<g>
				<path fill="#FFFFFF" d="M349.8,489.2c0.1,0,0.2,0,0.3,0.1c0.2,0.2,0.2,0.5,0,0.6l-0.7,0.7c-0.2,0.2-0.5,0.2-0.6,0
					c-0.2-0.2-0.2-0.5,0-0.6l0.7-0.7C349.5,489.3,349.6,489.2,349.8,489.2L349.8,489.2z"/>
			</g>
		</g>
		<g>
			<g>
				<path fill="#FFFFFF" d="M347.5,493.9c0.2,0,0.4,0.2,0.4,0.4v0.9c0,0.2-0.2,0.4-0.4,0.4c-0.2,0-0.4-0.2-0.4-0.4v-0.9
					C347,494.1,347.2,493.9,347.5,493.9L347.5,493.9z"/>
			</g>
			<g>
				<path fill="#FFFFFF" d="M347.5,488.3L347.5,488.3c0.2,0,0.4,0.2,0.4,0.4l0,1c0,0.2-0.2,0.4-0.4,0.4l0,0c-0.2,0-0.4-0.2-0.4-0.4
					l0-1C347,488.5,347.2,488.3,347.5,488.3L347.5,488.3z"/>
			</g>
		</g>
		<g>
			<g>
				<path fill="#FFFFFF" d="M344.2,491.5h0.9c0.2,0,0.4,0.2,0.4,0.4c0,0.2-0.2,0.4-0.4,0.4h-0.9c-0.2,0-0.4-0.2-0.4-0.4
					C343.8,491.7,344,491.5,344.2,491.5L344.2,491.5z"/>
			</g>
			<g>
				<path fill="#FFFFFF" d="M349.7,491.5h1c0.2,0,0.4,0.2,0.4,0.4c0,0.2-0.2,0.4-0.4,0.4h-1c-0.2,0-0.4-0.2-0.4-0.4
					C349.2,491.7,349.4,491.5,349.7,491.5L349.7,491.5z"/>
			</g>
		</g>
	</g>
</g>
<g>
	<g>
		<g>
			<path fill="#7F888D" d="M226.5,500.3c-0.1,0-0.3,0-0.4-0.1c-0.6-0.5-5.9-5.1-5.9-8.5c0-3.5,2.8-6.3,6.3-6.3
				c3.5,0,6.3,2.8,6.3,6.3c0,3.3-5.3,8-5.9,8.5C226.7,500.3,226.6,500.3,226.5,500.3L226.5,500.3z M226.5,486.6
				c-2.8,0-5.1,2.3-5.1,5.1c0,2.2,3.4,5.6,5.1,7.2c1.7-1.5,5.1-5,5.1-7.2C231.5,488.9,229.3,486.6,226.5,486.6L226.5,486.6z"/>
		</g>
		<ellipse fill="#7F888D" cx="226.4" cy="491.6" rx="4.5" ry="4.5"/>
		<g>
			<path fill="#7F888D" d="M226.4,499c-0.1,0-0.2,0-0.3-0.1c-0.5-0.4-5-4.3-5-7.2c0-2.9,2.4-5.3,5.3-5.3c2.9,0,5.3,2.4,5.3,5.3
				c0,2.8-4.5,6.7-5,7.2C226.6,499,226.5,499,226.4,499L226.4,499z M226.4,487.4c-2.4,0-4.3,1.9-4.3,4.3c0,1.8,2.8,4.8,4.3,6.1
				c1.5-1.3,4.3-4.2,4.3-6.1C230.7,489.4,228.8,487.4,226.4,487.4L226.4,487.4z"/>
		</g>
		<circle fill="#7F888D" cx="226.4" cy="496.1" r="2.5"/>
	</g>
	<g>
		<g>
			<path fill="#FFFFFF" d="M226.5,489.3c1.5,0,2.7,1.2,2.7,2.7c0,1.5-1.2,2.7-2.7,2.7c-1.5,0-2.7-1.2-2.7-2.7
				C223.8,490.5,225,489.3,226.5,489.3L226.5,489.3z M226.5,493.8c1,0,1.8-0.8,1.8-1.8c0-1-0.8-1.8-1.8-1.8c-1,0-1.8,0.8-1.8,1.8
				C224.7,493,225.5,493.8,226.5,493.8L226.5,493.8z"/>
		</g>
		<g>
			<g>
				<path fill="#FFFFFF" d="M228.1,493.2c0.1,0,0.2,0,0.3,0.1l0.6,0.6c0.2,0.2,0.2,0.5,0,0.6s-0.5,0.2-0.6,0l-0.6-0.6
					c-0.2-0.2-0.2-0.5,0-0.6C227.9,493.2,228,493.2,228.1,493.2L228.1,493.2z"/>
			</g>
			<g>
				<path fill="#FFFFFF" d="M224.2,489.2c0.1,0,0.2,0,0.3,0.1l0.7,0.7c0.2,0.2,0.2,0.5,0,0.6c-0.2,0.2-0.5,0.2-0.6,0l-0.7-0.7
					c-0.2-0.2-0.2-0.5,0-0.6C223.9,489.3,224,489.2,224.2,489.2L224.2,489.2z"/>
			</g>
		</g>
		<g>
			<g>
				<path fill="#FFFFFF" d="M224.8,493.2c0.1,0,0.2,0,0.3,0.1c0.2,0.2,0.2,0.5,0,0.6l-0.6,0.6c-0.2,0.2-0.5,0.2-0.6,0
					c-0.2-0.2-0.2-0.5,0-0.6l0.6-0.6C224.6,493.2,224.7,493.2,224.8,493.2L224.8,493.2z"/>
			</g>
			<g>
				<path fill="#FFFFFF" d="M228.8,489.2c0.1,0,0.2,0,0.3,0.1c0.2,0.2,0.2,0.5,0,0.6l-0.7,0.7c-0.2,0.2-0.5,0.2-0.6,0
					c-0.2-0.2-0.2-0.5,0-0.6l0.7-0.7C228.5,489.3,228.6,489.2,228.8,489.2L228.8,489.2z"/>
			</g>
		</g>
		<g>
			<g>
				<path fill="#FFFFFF" d="M226.5,493.9c0.2,0,0.4,0.2,0.4,0.4v0.9c0,0.2-0.2,0.4-0.4,0.4c-0.2,0-0.4-0.2-0.4-0.4v-0.9
					C226,494.1,226.2,493.9,226.5,493.9L226.5,493.9z"/>
			</g>
			<g>
				<path fill="#FFFFFF" d="M226.5,488.3L226.5,488.3c0.2,0,0.4,0.2,0.4,0.4l0,1c0,0.2-0.2,0.4-0.4,0.4l0,0c-0.2,0-0.4-0.2-0.4-0.4
					l0-1C226,488.5,226.2,488.3,226.5,488.3L226.5,488.3z"/>
			</g>
		</g>
		<g>
			<g>
				<path fill="#FFFFFF" d="M223.2,491.5h0.9c0.2,0,0.4,0.2,0.4,0.4c0,0.2-0.2,0.4-0.4,0.4h-0.9c-0.2,0-0.4-0.2-0.4-0.4
					C222.8,491.7,223,491.5,223.2,491.5L223.2,491.5z"/>
			</g>
			<g>
				<path fill="#FFFFFF" d="M228.7,491.5h1c0.2,0,0.4,0.2,0.4,0.4c0,0.2-0.2,0.4-0.4,0.4h-1c-0.2,0-0.4-0.2-0.4-0.4
					C228.2,491.7,228.4,491.5,228.7,491.5L228.7,491.5z"/>
			</g>
		</g>
	</g>
</g>
<g>
	<path fill="#FFFFFF" d="M117.7,580.6H62.2c-6.6,0-12-5.4-12-12v-55.8c0-6.6,5.4-12,12-12h55.5c6.6,0,12,5.4,12,12v55.8
		C129.7,575.2,124.3,580.6,117.7,580.6z"/>
	<g>
		<g>
			<path fill="#7F888D" d="M83.2,539.2h2.1c1.7,0,2.9,1.2,2.9,2.7v0c0,1.5-1.2,2.7-2.9,2.7h-2.1V539.2z M85.3,543.6
				c1,0,1.6-0.7,1.6-1.6v0c0-1-0.7-1.6-1.6-1.6h-0.9v3.3H85.3z"/>
			<path fill="#7F888D" d="M89,542L89,542c0-1.6,1.2-2.8,2.9-2.8s2.9,1.3,2.9,2.8v0c0,1.5-1.2,2.8-2.9,2.8
				C90.2,544.8,89,543.5,89,542z M93.5,542L93.5,542c0-0.9-0.7-1.7-1.6-1.7c-1,0-1.6,0.8-1.6,1.7v0c0,0.9,0.7,1.7,1.6,1.7
				S93.5,542.9,93.5,542z"/>
			<path fill="#7F888D" d="M95.6,542L95.6,542c0-1.6,1.2-2.8,2.8-2.8c1,0,1.6,0.3,2.1,0.8l-0.8,0.9c-0.4-0.4-0.8-0.6-1.4-0.6
				c-0.9,0-1.6,0.8-1.6,1.7v0c0,0.9,0.6,1.7,1.6,1.7c0.6,0,1-0.2,1.4-0.6l0.8,0.8c-0.6,0.6-1.2,1-2.2,1
				C96.8,544.8,95.6,543.5,95.6,542z"/>
			<path fill="#7F888D" d="M101.2,543.9l0.7-0.8c0.5,0.4,1,0.7,1.6,0.7c0.5,0,0.8-0.2,0.8-0.5v0c0-0.3-0.2-0.5-1.1-0.7
				c-1.1-0.3-1.8-0.6-1.8-1.7v0c0-1,0.8-1.6,1.9-1.6c0.8,0,1.5,0.2,2,0.7l-0.6,0.9c-0.5-0.3-1-0.5-1.4-0.5c-0.5,0-0.7,0.2-0.7,0.5v0
				c0,0.4,0.2,0.5,1.2,0.7c1.1,0.3,1.7,0.7,1.7,1.6v0c0,1.1-0.8,1.7-2,1.7C102.7,544.7,101.9,544.5,101.2,543.9z"/>
		</g>
		<g>
			<path fill="#7F888D" d="M96.1,530H83.6c-0.6,0-1.1-0.5-1.1-1.1s0.5-1.1,1.1-1.1h12.5c0.6,0,1.1,0.5,1.1,1.1S96.7,530,96.1,530
				L96.1,530z"/>
		</g>
		<g>
			<path fill="#7F888D" d="M104.4,535.1H83.6c-0.6,0-1.1-0.5-1.1-1.1c0-0.6,0.5-1.1,1.1-1.1h20.8c0.6,0,1.1,0.5,1.1,1.1
				C105.4,534.7,104.9,535.1,104.4,535.1L104.4,535.1z"/>
		</g>
		<g>
			<path fill="#7F888D" d="M92.3,550.6h-8.7c-0.6,0-1.1-0.5-1.1-1.1c0-0.6,0.5-1.1,1.1-1.1h8.7c0.6,0,1.1,0.5,1.1,1.1
				C93.3,550.2,92.9,550.6,92.3,550.6L92.3,550.6z"/>
		</g>
		<g>
			<path fill="#7F888D" d="M92.3,555.8h-8.7c-0.6,0-1.1-0.5-1.1-1.1c0-0.6,0.5-1.1,1.1-1.1h8.7c0.6,0,1.1,0.5,1.1,1.1
				C93.3,555.3,92.9,555.8,92.3,555.8L92.3,555.8z"/>
		</g>
		<g>
			<path fill="#7F888D" d="M98.5,566.5c-0.6,0-1.1-0.5-1.1-1.1v-12.6c0-0.6,0.5-1.1,1.1-1.1h12.6c0.6,0,1.1,0.5,1.1,1.1
				c0,0.6-0.5,1.1-1.1,1.1H99.5v11.6C99.5,566,99.1,566.5,98.5,566.5L98.5,566.5z"/>
		</g>
		<g>
			<path fill="#7F888D" d="M98.5,567.5H76.7c-1.2,0-2.1-0.9-2.1-2.1v-43.3c0-1.2,0.9-2.1,2.1-2.1h34.4c1.2,0,2.1,0.9,2.1,2.1v30.6
				c0,0.6-0.2,1.1-0.6,1.5L100,566.9C99.6,567.3,99,567.5,98.5,567.5L98.5,567.5z M78.8,563.3h18.8l11.4-11.4v-27.6H78.8V563.3
				L78.8,563.3z"/>
		</g>
		<g>
			<path fill="#7F888D" d="M70.8,562.6c-1.2,0-2.1-0.9-2.1-2.1V518c0-2.3,1.9-4.2,4.2-4.2h32.3c1.2,0,2.1,0.9,2.1,2.1
				c0,1.2-0.9,2.1-2.1,2.1H72.9v42.4C72.9,561.6,71.9,562.6,70.8,562.6L70.8,562.6z"/>
		</g>
	</g>
</g>
<g>
	<g>
		<path fill="#445464" d="M501.2,110.5h-54.5c-1.4,0-2.5-1.4-2.5-3V52.7c0-1.7,1.1-3,2.5-3h54.5c1.4,0,2.5,1.4,2.5,3v54.8
			C503.8,109.2,502.6,110.5,501.2,110.5L501.2,110.5z M449.3,104.4h49.4V55.7h-49.4V104.4L449.3,104.4z"/>
	</g>
	<g>
		<path fill="#445464" d="M499.6,91c-0.6,0-1.2-0.2-1.6-0.6l-10.1-8.7l-12.6,8.4l-16-17.2L448.6,84c-1,1-2.6,1-3.6,0.1
			c-1-1-1-2.6-0.1-3.6l14.4-14.9l16.7,17.9l12.2-8.1l13,11.1c1.1,0.9,1.2,2.5,0.3,3.5C501,90.7,500.3,91,499.6,91L499.6,91z"/>
	</g>
	<g>
		<path fill="#445464" d="M477,74.6c-5,0-9-4-9-9c0-5,4-9,9-9c5,0,9,4,9,9C486,70.5,482,74.6,477,74.6L477,74.6z M477,61.6
			c-2.2,0-4,1.8-4,4s1.8,4,4,4c2.2,0,4-1.8,4-4S479.2,61.6,477,61.6L477,61.6z"/>
	</g>
	<g>
		<path fill="#445464" d="M453.4,98.8h1.6v1.5h-1.6V98.8z"/>
		<path fill="#445464" d="M455.8,99.7l0.6-1c0.6,0.4,1.1,0.6,1.6,0.6c0.4,0,0.6-0.2,0.6-0.4v0c0-0.3-0.5-0.4-1.1-0.6
			c-0.7-0.2-1.5-0.5-1.5-1.5v0c0-1,0.8-1.6,1.9-1.6c0.7,0,1.4,0.2,1.9,0.6l-0.6,1c-0.5-0.3-1-0.5-1.4-0.5c-0.4,0-0.5,0.2-0.5,0.4v0
			c0,0.3,0.5,0.4,1,0.6c0.7,0.2,1.6,0.6,1.6,1.5v0c0,1.1-0.9,1.7-2,1.7C457.3,100.4,456.5,100.2,455.8,99.7z"/>
		<path fill="#445464" d="M460.4,95.2h1.5l1.2,3.4l1.2-3.4h1.5l-2,5.2h-1.3L460.4,95.2z"/>
		<path fill="#445464" d="M466.4,101.4l0.5-1.1c0.5,0.3,1.1,0.5,1.7,0.5c1,0,1.5-0.5,1.5-1.4v-0.2c-0.4,0.5-0.9,0.8-1.7,0.8
			c-1.2,0-2.3-0.9-2.3-2.4v0c0-1.5,1.1-2.4,2.3-2.4c0.8,0,1.3,0.3,1.7,0.8v-0.7h1.5v4c0,0.9-0.2,1.6-0.7,2c-0.5,0.5-1.2,0.7-2.2,0.7
			C467.8,101.9,467,101.7,466.4,101.4z M470.1,97.5L470.1,97.5c0-0.7-0.5-1.2-1.3-1.2s-1.2,0.5-1.2,1.2v0c0,0.7,0.5,1.2,1.2,1.2
			S470.1,98.2,470.1,97.5z"/>
	</g>
</g>
<g>
	<g>
		<path fill="#445464" d="M335.5,79.5h1.9v1.9h-1.9V79.5z"/>
		<path fill="#445464" d="M338.9,75h1.8v1.3c0.4-0.9,1-1.5,2-1.4v1.9h-0.1c-1.2,0-1.9,0.7-1.9,2.2v2.4h-1.8V75z"/>
		<path fill="#445464" d="M343.4,80.5l0.8-1.2c0.7,0.5,1.4,0.8,2,0.8c0.5,0,0.8-0.2,0.8-0.5v0c0-0.4-0.6-0.5-1.3-0.7
			c-0.9-0.3-1.9-0.7-1.9-1.9v0c0-1.3,1-2,2.3-2c0.8,0,1.7,0.3,2.4,0.7l-0.7,1.2c-0.6-0.4-1.3-0.6-1.7-0.6c-0.4,0-0.7,0.2-0.7,0.4v0
			c0,0.4,0.6,0.5,1.3,0.8c0.9,0.3,1.9,0.7,1.9,1.9v0c0,1.4-1.1,2.1-2.4,2.1C345.3,81.5,344.3,81.2,343.4,80.5z"/>
		<path fill="#445464" d="M350.1,79.6v-3h-0.8V75h0.8v-1.6h1.8V75h1.5v1.5h-1.5v2.7c0,0.4,0.2,0.6,0.6,0.6c0.3,0,0.6-0.1,0.9-0.2
			v1.5c-0.4,0.2-0.8,0.4-1.4,0.4C350.8,81.5,350.1,81.1,350.1,79.6z"/>
	</g>
	<g>
		<path fill="#445464" d="M359.1,113.6c-0.9,0-1.6-0.7-1.6-1.6V92.3c0-0.9,0.7-1.6,1.6-1.6h19.6c0.9,0,1.6,0.7,1.6,1.6
			c0,0.9-0.7,1.6-1.6,1.6h-18v18C360.7,112.8,360,113.6,359.1,113.6L359.1,113.6z"/>
	</g>
	<path fill="#445464" d="M359.1,115.2h-33.7c-1.8,0-3.3-1.5-3.3-3.3v-67c0-1.8,1.5-3.3,3.3-3.3h53.3c1.8,0,3.3,1.5,3.3,3.3v47.4
		c0,0.9-0.3,1.7-1,2.3l-19.6,19.6C360.8,114.9,360,115.2,359.1,115.2L359.1,115.2z M328.6,108.7h29.1L375.4,91V48.2h-46.8V108.7
		L328.6,108.7z"/>
	<g>
		<path fill="#445464" d="M355.5,58.9h-19.2c-0.9,0-1.6-0.7-1.6-1.6c0-0.9,0.7-1.6,1.6-1.6h19.2c0.9,0,1.6,0.7,1.6,1.6
			C357.2,58.2,356.5,58.9,355.5,58.9L355.5,58.9z"/>
	</g>
	<g>
		<path fill="#445464" d="M368.2,66.8h-31.8c-0.9,0-1.6-0.7-1.6-1.6c0-0.9,0.7-1.6,1.6-1.6h31.8c0.9,0,1.6,0.7,1.6,1.6
			C369.8,66.1,369.1,66.8,368.2,66.8L368.2,66.8z"/>
	</g>
	<g>
		<path fill="#445464" d="M349.7,90.5h-13.3c-0.9,0-1.6-0.7-1.6-1.6c0-0.9,0.7-1.6,1.6-1.6h13.3c0.9,0,1.6,0.7,1.6,1.6
			C351.3,89.8,350.6,90.5,349.7,90.5L349.7,90.5z"/>
	</g>
	<g>
		<path fill="#445464" d="M349.7,98.5h-13.3c-0.9,0-1.6-0.7-1.6-1.6c0-0.9,0.7-1.6,1.6-1.6h13.3c0.9,0,1.6,0.7,1.6,1.6
			C351.3,97.7,350.6,98.5,349.7,98.5L349.7,98.5z"/>
	</g>
</g>
<g>
	<g>
		<path fill="#FFFFFF" d="M176.7,142.5h2.6l5.4,12.7h-2.9l-1.2-2.8h-5.3l-1.2,2.8h-2.8L176.7,142.5z M179.6,149.9l-1.7-4.1l-1.7,4.1
			H179.6z"/>
		<path fill="#FFFFFF" d="M186.1,151.8v-6.2h2.7v5.4c0,1.3,0.6,2,1.7,2c1,0,1.7-0.7,1.7-2v-5.4h2.7v9.7h-2.7v-1.4
			c-0.6,0.8-1.4,1.5-2.8,1.5C187.3,155.4,186.1,154,186.1,151.8z"/>
		<path fill="#FFFFFF" d="M197.8,152.5v-4.6h-1.2v-2.3h1.2v-2.5h2.7v2.5h2.3v2.3h-2.3v4.1c0,0.6,0.3,0.9,0.9,0.9
			c0.5,0,1-0.1,1.4-0.3v2.2c-0.6,0.3-1.2,0.6-2.2,0.6C198.9,155.4,197.8,154.7,197.8,152.5z"/>
		<path fill="#FFFFFF" d="M204.8,142.1h2.7v4.9c0.6-0.8,1.4-1.5,2.8-1.5c2.1,0,3.3,1.4,3.3,3.6v6.2h-2.7v-5.4c0-1.3-0.6-2-1.7-2
			c-1,0-1.7,0.7-1.7,2v5.4h-2.7V142.1z"/>
		<path fill="#FFFFFF" d="M215.6,150.4L215.6,150.4c0-2.8,2.2-5.1,5.2-5.1c3,0,5.2,2.2,5.2,5v0c0,2.8-2.2,5-5.2,5
			C217.8,155.4,215.6,153.2,215.6,150.4z M223.3,150.4L223.3,150.4c0-1.5-1-2.7-2.5-2.7c-1.6,0-2.5,1.2-2.5,2.6v0
			c0,1.4,1,2.7,2.5,2.7C222.4,153.1,223.3,151.9,223.3,150.4z"/>
		<path fill="#FFFFFF" d="M228,145.6h2.7v1.9c0.6-1.3,1.5-2.2,3.1-2.1v2.9h-0.1c-1.8,0-2.9,1.1-2.9,3.4v3.6H228V145.6z"/>
	</g>
</g>
<g>
	<g>
		<g>
			<path fill="#FFFFFF" d="M182,107.5c-0.9,0-1.8-0.4-2.4-1c-0.7-0.7-1-1.6-1-2.6l0.9-14.9c0-0.8,0.4-1.6,1-2.2l44.3-44.3
				c0.6-0.6,1.5-1,2.4-1l0,0c0.9,0,1.8,0.4,2.4,1l14,14c0.6,0.6,1,1.5,1,2.4c0,0.9-0.4,1.8-1,2.4l-44.3,44.3c-0.6,0.6-1.4,0.9-2.2,1
				l-14.9,0.9C182.1,107.5,182.1,107.5,182,107.5L182,107.5z M186.2,90.8l-0.6,9.8l9.8-0.6l41-41l-9.2-9.2L186.2,90.8L186.2,90.8z"
				/>
		</g>
		<g>
			<path fill="#FFFFFF" d="M233.3,67.1c-0.4,0-0.9-0.2-1.2-0.5l-12.6-12.6c-0.7-0.7-0.7-1.7,0-2.4s1.7-0.7,2.4,0l12.6,12.6
				c0.7,0.7,0.7,1.7,0,2.4C234.1,67,233.7,67.1,233.3,67.1L233.3,67.1z"/>
		</g>
		<path fill="#FFFFFF" d="M184.3,93.7c-0.3,0-0.6,0-0.9,0c-0.3,0-0.5,0.1-0.8,0.2l-0.6,10.3l9.9-0.6c0.1-0.4,0.2-0.8,0.2-1.1
			C192.6,97.5,189.2,93.7,184.3,93.7L184.3,93.7z"/>
	</g>
	<g>
		<path fill="#FFFFFF" d="M242.4,121.6h-73.8c-1.9,0-3.4-1.5-3.4-3.4V44.4c0-1.9,1.5-3.4,3.4-3.4h36.6c1.9,0,3.4,1.5,3.4,3.4
			c0,1.9-1.5,3.4-3.4,3.4H172v67h67V81.6c0-1.9,1.5-3.4,3.4-3.4c1.9,0,3.4,1.5,3.4,3.4v36.6C245.8,120.1,244.3,121.6,242.4,121.6
			L242.4,121.6z"/>
	</g>
</g>
<g>
	<g>
		<path fill="#7F888D" d="M418.2,84.1h-10.6c-0.9,0-1.7-0.7-1.7-1.7c0-0.9,0.7-1.7,1.7-1.7h10.6c0.9,0,1.7,0.7,1.7,1.7
			C419.9,83.3,419.1,84.1,418.2,84.1L418.2,84.1z"/>
	</g>
	<g>
		<path fill="#7F888D" d="M412.9,89.4c-0.9,0-1.7-0.7-1.7-1.7V77.1c0-0.9,0.7-1.7,1.7-1.7c0.9,0,1.7,0.7,1.7,1.7v10.6
			C414.5,88.6,413.8,89.4,412.9,89.4L412.9,89.4z"/>
	</g>
</g>
<g>
	<g>
		<path fill="#7F888D" d="M537.6,83.1H527c-0.9,0-1.7-0.7-1.7-1.7c0-0.9,0.7-1.7,1.7-1.7h10.6c0.9,0,1.7,0.7,1.7,1.7
			C539.3,82.4,538.5,83.1,537.6,83.1L537.6,83.1z"/>
	</g>
	<g>
		<path fill="#7F888D" d="M532.3,88.4c-0.9,0-1.7-0.7-1.7-1.7V76.1c0-0.9,0.7-1.7,1.7-1.7c0.9,0,1.7,0.7,1.7,1.7v10.6
			C534,87.7,533.2,88.4,532.3,88.4L532.3,88.4z"/>
	</g>
</g>
<g>
	<g>
		<path fill="#445464" d="M474.3,223.3h-29c-1.5,0-2.8-1.2-2.8-2.8c0-1.5,1.2-2.8,2.8-2.8h29c1.5,0,2.8,1.2,2.8,2.8
			C477,222.1,475.8,223.3,474.3,223.3L474.3,223.3z"/>
	</g>
	<g>
		<path fill="#445464" d="M483,211.8h-37.7c-1.5,0-2.8-1.2-2.8-2.8c0-1.5,1.2-2.8,2.8-2.8H483c1.5,0,2.8,1.2,2.8,2.8
			C485.8,210.6,484.5,211.8,483,211.8L483,211.8z"/>
	</g>
	<g>
		<path fill="#445464" d="M460.9,235.8h-15.6c-1.5,0-2.8-1.2-2.8-2.8c0-1.5,1.2-2.8,2.8-2.8h15.6c1.5,0,2.8,1.2,2.8,2.8
			C463.7,234.5,462.4,235.8,460.9,235.8L460.9,235.8z"/>
	</g>
	<g>
		<path fill="#445464" d="M460.9,248.2h-15.6c-1.5,0-2.8-1.2-2.8-2.8c0-1.5,1.2-2.8,2.8-2.8h15.6c1.5,0,2.8,1.2,2.8,2.8
			C463.7,247,462.4,248.2,460.9,248.2L460.9,248.2z"/>
	</g>
	<g>
		<path fill="#445464" d="M468.3,260.6h-23c-1.5,0-2.8-1.2-2.8-2.8c0-1.5,1.2-2.8,2.8-2.8h23c1.5,0,2.8,1.2,2.8,2.8
			C471,259.4,469.8,260.6,468.3,260.6L468.3,260.6z"/>
	</g>
	<g>
		<g>
			<path fill="#445464" d="M486.4,267.7c-0.4,0-0.9-0.1-1.2-0.4c-1.8-1.6-17.9-15.5-17.9-25.6c0-10.5,8.6-19.1,19.1-19.1
				c10.5,0,19.1,8.5,19.1,19.1c0,10.1-16,24-17.9,25.6C487.3,267.6,486.9,267.7,486.4,267.7L486.4,267.7z M486.4,226.4
				c-8.5,0-15.3,6.9-15.3,15.3c0,6.5,10.1,17,15.3,21.7c5.2-4.7,15.3-15.2,15.3-21.7C501.8,233.2,494.9,226.4,486.4,226.4
				L486.4,226.4z"/>
		</g>
		<ellipse fill="#445464" cx="486.2" cy="241.3" rx="13.7" ry="13.7"/>
		<g>
			<path fill="#445464" d="M486.2,263.8c-0.4,0-0.7-0.1-1-0.4c-1.5-1.3-15.1-13.1-15.1-21.6c0-8.9,7.2-16.1,16.1-16.1
				c8.9,0,16.1,7.2,16.1,16.1c0,8.5-13.6,20.3-15.1,21.6C487,263.7,486.6,263.8,486.2,263.8L486.2,263.8z M486.2,228.9
				c-7.2,0-13,5.8-13,13c0,5.5,8.6,14.4,13,18.3c4.4-4,13-12.8,13-18.3C499.2,234.7,493.4,228.9,486.2,228.9L486.2,228.9z"/>
		</g>
		<ellipse fill="#445464" cx="486.2" cy="255" rx="7.5" ry="7.5"/>
	</g>
	<g>
		<g>
			<path fill="#FFFFFF" d="M486.4,234.5c4.4,0,8.1,3.6,8.1,8.1c0,4.4-3.6,8.1-8.1,8.1c-4.5,0-8.1-3.6-8.1-8.1
				C478.4,238.1,482,234.5,486.4,234.5L486.4,234.5z M486.4,247.9c3,0,5.4-2.4,5.4-5.4c0-3-2.4-5.4-5.4-5.4c-3,0-5.4,2.4-5.4,5.4
				C481.1,245.5,483.5,247.9,486.4,247.9L486.4,247.9z"/>
		</g>
		<g>
			<g>
				<path fill="#FFFFFF" d="M491.5,246.3c0.3,0,0.7,0.1,0.9,0.4l1.9,1.9c0.5,0.5,0.5,1.4,0,1.9c-0.5,0.5-1.4,0.5-1.9,0l-1.9-1.9
					c-0.5-0.5-0.5-1.4,0-1.9C490.8,246.4,491.2,246.3,491.5,246.3L491.5,246.3z"/>
			</g>
			<g>
				<path fill="#FFFFFF" d="M479.5,234.2c0.3,0,0.7,0.1,0.9,0.4l2.2,2.2c0.5,0.5,0.5,1.4,0,1.9c-0.5,0.5-1.4,0.5-1.9,0l-2.2-2.2
					c-0.5-0.5-0.5-1.4,0-1.9C478.8,234.4,479.2,234.2,479.5,234.2L479.5,234.2z"/>
			</g>
		</g>
		<g>
			<g>
				<path fill="#FFFFFF" d="M481.4,246.3c0.3,0,0.7,0.1,0.9,0.4c0.5,0.5,0.5,1.4,0,1.9l-1.9,1.9c-0.5,0.5-1.4,0.5-1.9,0
					c-0.5-0.5-0.5-1.4,0-1.9l1.9-1.9C480.7,246.4,481,246.3,481.4,246.3L481.4,246.3z"/>
			</g>
			<g>
				<path fill="#FFFFFF" d="M493.4,234.2c0.3,0,0.7,0.1,0.9,0.4c0.5,0.5,0.5,1.4,0,1.9l-2.2,2.2c-0.5,0.5-1.4,0.5-1.9,0
					c-0.5-0.5-0.5-1.4,0-1.9l2.2-2.2C492.7,234.4,493.1,234.2,493.4,234.2L493.4,234.2z"/>
			</g>
		</g>
		<g>
			<g>
				<path fill="#FFFFFF" d="M486.4,248.4c0.7,0,1.3,0.6,1.3,1.3v2.7c0,0.7-0.6,1.3-1.3,1.3c-0.7,0-1.3-0.6-1.3-1.3v-2.7
					C485.1,249,485.7,248.4,486.4,248.4L486.4,248.4z"/>
			</g>
			<g>
				<path fill="#FFFFFF" d="M486.4,231.4L486.4,231.4c0.7,0,1.3,0.6,1.3,1.3l0,3.1c0,0.7-0.6,1.3-1.3,1.3l0,0
					c-0.7,0-1.3-0.6-1.3-1.3l0-3.1C485.1,232,485.7,231.4,486.4,231.4L486.4,231.4z"/>
			</g>
		</g>
		<g>
			<g>
				<path fill="#FFFFFF" d="M476.6,241.2h2.7c0.7,0,1.3,0.6,1.3,1.3c0,0.7-0.6,1.3-1.3,1.3h-2.7c-0.7,0-1.3-0.6-1.3-1.3
					C475.3,241.8,475.9,241.2,476.6,241.2L476.6,241.2z"/>
			</g>
			<g>
				<path fill="#FFFFFF" d="M493.1,241.2h3.1c0.7,0,1.3,0.6,1.3,1.3c0,0.7-0.6,1.3-1.3,1.3h-3.1c-0.7,0-1.3-0.6-1.3-1.3
					C491.8,241.8,492.4,241.2,493.1,241.2L493.1,241.2z"/>
			</g>
		</g>
	</g>
</g>
<g>
	<g>
		<path fill="#445464" d="M440.9,278.3h4.2c1.2,0,2.1,0.3,2.7,0.9c0.5,0.5,0.8,1.2,0.8,2.1v0c0,1.5-0.8,2.4-2,2.8l2.2,3.2h-2.3
			l-2-2.9h0h-1.5v2.9h-2V278.3z M444.9,282.7c1,0,1.5-0.5,1.5-1.3v0c0-0.9-0.6-1.3-1.6-1.3h-2v2.6H444.9z"/>
		<path fill="#445464" d="M449.7,286.1l1.2-1.4c0.8,0.7,1.7,1.1,2.7,1.1c0.8,0,1.3-0.3,1.3-0.9v0c0-0.5-0.3-0.8-1.8-1.2
			c-1.8-0.5-3-1-3-2.8v0c0-1.7,1.3-2.7,3.2-2.7c1.3,0,2.5,0.4,3.4,1.2l-1,1.5c-0.8-0.6-1.6-0.9-2.4-0.9c-0.8,0-1.2,0.4-1.2,0.8v0
			c0,0.6,0.4,0.8,2,1.2c1.8,0.5,2.9,1.1,2.9,2.7v0c0,1.8-1.4,2.8-3.3,2.8C452.1,287.5,450.8,287,449.7,286.1z"/>
		<path fill="#445464" d="M460.5,280.1h-2.8v-1.8h7.5v1.8h-2.8v7.3h-2V280.1z"/>
		<path fill="#445464" d="M470.7,278.3h2.2l2.4,3.8l2.4-3.8h2.2v9.1h-2v-5.9l-2.6,3.9h-0.1l-2.5-3.8v5.9h-2V278.3z"/>
		<path fill="#445464" d="M481.4,285.4L481.4,285.4c0-1.5,1.2-2.2,2.8-2.2c0.7,0,1.2,0.1,1.7,0.3v-0.1c0-0.8-0.5-1.3-1.5-1.3
			c-0.8,0-1.3,0.1-1.9,0.4l-0.5-1.5c0.8-0.3,1.5-0.6,2.7-0.6c1.1,0,1.9,0.3,2.4,0.8c0.5,0.5,0.8,1.3,0.8,2.2v4h-1.9v-0.8
			c-0.5,0.5-1.1,0.9-2.1,0.9C482.5,287.5,481.4,286.8,481.4,285.4z M485.9,284.9v-0.4c-0.3-0.2-0.8-0.3-1.3-0.3
			c-0.8,0-1.4,0.3-1.4,1v0c0,0.5,0.4,0.8,1.1,0.8C485.3,286.2,485.9,285.6,485.9,284.9z"/>
		<path fill="#445464" d="M489.5,280.4h2v1c0.5-0.6,1.1-1.1,2.2-1.1c1.6,0,3.2,1.3,3.2,3.6v0c0,2.3-1.5,3.6-3.2,3.6
			c-1.1,0-1.7-0.5-2.2-1v3h-2V280.4z M494.9,283.9L494.9,283.9c0-1.2-0.8-1.9-1.7-1.9s-1.7,0.8-1.7,1.9v0c0,1.2,0.8,1.9,1.7,1.9
			S494.9,285.1,494.9,283.9z"/>
		<path fill="#445464" d="M497.7,286.5l0.8-1.3c0.8,0.5,1.5,0.8,2.2,0.8c0.6,0,0.8-0.2,0.8-0.5v0c0-0.4-0.7-0.6-1.4-0.8
			c-1-0.3-2.1-0.7-2.1-2.1v0c0-1.4,1.1-2.2,2.5-2.2c0.9,0,1.8,0.3,2.6,0.8l-0.8,1.4c-0.7-0.4-1.4-0.7-1.9-0.7
			c-0.5,0-0.7,0.2-0.7,0.5v0c0,0.4,0.7,0.6,1.4,0.8c1,0.3,2.1,0.8,2.1,2.1v0c0,1.5-1.2,2.2-2.7,2.2
			C499.8,287.5,498.7,287.2,497.7,286.5z"/>
	</g>
</g>
<polyline fill="none" stroke="#7F888D" stroke-width="4" stroke-miterlimit="10" points="352.3,154.2 352.3,232.1 425.9,232.1 "/>
<polyline fill="none" stroke="#7F888D" stroke-width="4" stroke-miterlimit="10" points="592,154.2 592,232.1 519.8,232.1 "/>
<line fill="none" stroke="#7F888D" stroke-width="4" stroke-miterlimit="10" x1="474" y1="154.2" x2="474" y2="194"/>
<line fill="none" stroke="#7F888D" stroke-width="4" stroke-miterlimit="10" x1="466.9" y1="296.2" x2="466.9" y2="336"/>
<g>
	<ellipse fill="#6CB2E2" cx="468.7" cy="373.9" rx="60" ry="60.1"/>
	<g>
		<g>
			<g>
				<path fill="#FFFFFF" d="M471.5,369.8c5,0,9.1,4.1,9.1,9.1c0,5-4.1,9.1-9.1,9.1c-5,0-9.1-4.1-9.1-9.1
					C462.5,373.9,466.5,369.8,471.5,369.8L471.5,369.8z M471.5,384.9c3.3,0,6.1-2.7,6.1-6.1c0-3.3-2.7-6.1-6.1-6.1
					c-3.3,0-6.1,2.7-6.1,6.1C465.5,382.2,468.2,384.9,471.5,384.9L471.5,384.9z"/>
			</g>
			<g>
				<g>
					<path fill="#FFFFFF" d="M477.2,383.1c0.4,0,0.8,0.1,1.1,0.4l2.1,2.1c0.6,0.6,0.6,1.5,0,2.1c-0.6,0.6-1.5,0.6-2.1,0l-2.1-2.1
						c-0.6-0.6-0.6-1.5,0-2.1C476.5,383.2,476.9,383.1,477.2,383.1L477.2,383.1z"/>
				</g>
				<g>
					<path fill="#FFFFFF" d="M463.7,369.6c0.4,0,0.8,0.1,1.1,0.4l2.5,2.5c0.6,0.6,0.6,1.5,0,2.1c-0.6,0.6-1.5,0.6-2.1,0l-2.5-2.5
						c-0.6-0.6-0.6-1.5,0-2.1C463,369.7,463.4,369.6,463.7,369.6L463.7,369.6z"/>
				</g>
			</g>
			<g>
				<g>
					<path fill="#FFFFFF" d="M465.8,383.1c0.4,0,0.8,0.1,1.1,0.4c0.6,0.6,0.6,1.5,0,2.1l-2.1,2.1c-0.6,0.6-1.5,0.6-2.1,0
						c-0.6-0.6-0.6-1.5,0-2.1l2.1-2.1C465.1,383.2,465.5,383.1,465.8,383.1L465.8,383.1z"/>
				</g>
				<g>
					<path fill="#FFFFFF" d="M479.3,369.6c0.4,0,0.8,0.1,1.1,0.4c0.6,0.6,0.6,1.5,0,2.1l-2.5,2.5c-0.6,0.6-1.5,0.6-2.1,0
						c-0.6-0.6-0.6-1.5,0-2.1l2.5-2.5C478.6,369.7,479,369.6,479.3,369.6L479.3,369.6z"/>
				</g>
			</g>
			<g>
				<g>
					<path fill="#FFFFFF" d="M471.5,385.4c0.8,0,1.5,0.7,1.5,1.5v3c0,0.8-0.7,1.5-1.5,1.5c-0.8,0-1.5-0.7-1.5-1.5v-3
						C470,386.1,470.7,385.4,471.5,385.4L471.5,385.4z"/>
				</g>
				<g>
					<path fill="#FFFFFF" d="M471.5,366.3L471.5,366.3c0.8,0,1.5,0.7,1.5,1.5l0,3.5c0,0.8-0.7,1.5-1.5,1.5l0,0
						c-0.8,0-1.5-0.7-1.5-1.5l0-3.5C470,367,470.7,366.3,471.5,366.3L471.5,366.3z"/>
				</g>
			</g>
			<g>
				<g>
					<path fill="#FFFFFF" d="M460.5,377.4h3c0.8,0,1.5,0.7,1.5,1.5c0,0.8-0.7,1.5-1.5,1.5h-3c-0.8,0-1.5-0.7-1.5-1.5
						C459,378,459.7,377.4,460.5,377.4L460.5,377.4z"/>
				</g>
				<g>
					<path fill="#FFFFFF" d="M479.1,377.4h3.5c0.8,0,1.5,0.7,1.5,1.5c0,0.8-0.7,1.5-1.5,1.5h-3.5c-0.8,0-1.5-0.7-1.5-1.5
						C477.6,378,478.2,377.4,479.1,377.4L479.1,377.4z"/>
				</g>
			</g>
		</g>
		<g>
			<g>
				<path fill="#FFFFFF" d="M450.1,355.6c4.6,0,8.4,3.8,8.4,8.4c0,4.6-3.8,8.4-8.4,8.4c-4.6,0-8.4-3.8-8.4-8.4
					C441.7,359.4,445.5,355.6,450.1,355.6L450.1,355.6z M450.1,369.7c3.1,0,5.6-2.5,5.6-5.6c0-3.1-2.5-5.6-5.6-5.6
					c-3.1,0-5.6,2.5-5.6,5.6C444.5,367.2,447,369.7,450.1,369.7L450.1,369.7z"/>
			</g>
			<g>
				<g>
					<path fill="#FFFFFF" d="M455.4,367.9c0.4,0,0.7,0.1,1,0.4l2,2c0.5,0.5,0.5,1.4,0,2c-0.5,0.5-1.4,0.5-2,0l-2-2
						c-0.5-0.5-0.5-1.4,0-2C454.7,368.1,455,367.9,455.4,367.9L455.4,367.9z"/>
				</g>
				<g>
					<path fill="#FFFFFF" d="M442.8,355.4c0.4,0,0.7,0.1,1,0.4l2.3,2.3c0.5,0.5,0.5,1.4,0,2c-0.5,0.5-1.4,0.5-2,0l-2.3-2.3
						c-0.5-0.5-0.5-1.4,0-2C442.1,355.5,442.5,355.4,442.8,355.4L442.8,355.4z"/>
				</g>
			</g>
			<g>
				<g>
					<path fill="#FFFFFF" d="M444.8,367.9c0.4,0,0.7,0.1,1,0.4c0.5,0.5,0.5,1.4,0,2l-2,2c-0.5,0.5-1.4,0.5-2,0c-0.5-0.5-0.5-1.4,0-2
						l2-2C444.1,368.1,444.4,367.9,444.8,367.9L444.8,367.9z"/>
				</g>
				<g>
					<path fill="#FFFFFF" d="M457.4,355.4c0.4,0,0.7,0.1,1,0.4c0.5,0.5,0.5,1.4,0,2l-2.3,2.3c-0.5,0.5-1.4,0.5-2,0
						c-0.5-0.5-0.5-1.4,0-2l2.3-2.3C456.6,355.5,457,355.4,457.4,355.4L457.4,355.4z"/>
				</g>
			</g>
			<g>
				<g>
					<path fill="#FFFFFF" d="M450.1,370.1c0.8,0,1.4,0.6,1.4,1.4v2.8c0,0.8-0.6,1.4-1.4,1.4c-0.8,0-1.4-0.6-1.4-1.4v-2.8
						C448.7,370.8,449.3,370.1,450.1,370.1L450.1,370.1z"/>
				</g>
				<g>
					<path fill="#FFFFFF" d="M450.1,352.4L450.1,352.4c0.8,0,1.4,0.6,1.4,1.4l0,3.3c0,0.8-0.6,1.4-1.4,1.4l0,0
						c-0.8,0-1.4-0.6-1.4-1.4l0-3.3C448.7,353,449.3,352.4,450.1,352.4L450.1,352.4z"/>
				</g>
			</g>
			<g>
				<g>
					<path fill="#FFFFFF" d="M439.8,362.7h2.8c0.8,0,1.4,0.6,1.4,1.4c0,0.8-0.6,1.4-1.4,1.4h-2.8c-0.8,0-1.4-0.6-1.4-1.4
						C438.4,363.3,439.1,362.7,439.8,362.7L439.8,362.7z"/>
				</g>
				<g>
					<path fill="#FFFFFF" d="M457.1,362.7h3.3c0.8,0,1.4,0.6,1.4,1.4c0,0.8-0.6,1.4-1.4,1.4h-3.3c-0.8,0-1.4-0.6-1.4-1.4
						C455.7,363.3,456.3,362.7,457.1,362.7L457.1,362.7z"/>
				</g>
			</g>
		</g>
		<g>
			<g>
				<path fill="#FFFFFF" d="M476.9,335c7.2,0,13,5.9,13,13c0,7.2-5.9,13-13,13c-7.2,0-13-5.9-13-13C463.9,340.8,469.7,335,476.9,335
					L476.9,335z M476.9,356.7c4.8,0,8.7-3.9,8.7-8.7c0-4.8-3.9-8.7-8.7-8.7c-4.8,0-8.7,3.9-8.7,8.7
					C468.2,352.8,472.1,356.7,476.9,356.7L476.9,356.7z"/>
			</g>
			<g>
				<g>
					<path fill="#FFFFFF" d="M485.1,354c0.6,0,1.1,0.2,1.5,0.6l3,3c0.8,0.8,0.8,2.2,0,3.1c-0.8,0.8-2.2,0.8-3.1,0l-3-3
						c-0.8-0.8-0.8-2.2,0-3.1C484,354.2,484.6,354,485.1,354L485.1,354z"/>
				</g>
				<g>
					<path fill="#FFFFFF" d="M465.7,334.6c0.6,0,1.1,0.2,1.5,0.6l3.6,3.6c0.8,0.9,0.8,2.2,0,3.1c-0.8,0.8-2.2,0.8-3.1,0l-3.6-3.6
						c-0.8-0.9-0.8-2.2,0-3.1C464.6,334.8,465.2,334.6,465.7,334.6L465.7,334.6z"/>
				</g>
			</g>
			<g>
				<g>
					<path fill="#FFFFFF" d="M468.7,354c0.6,0,1.1,0.2,1.5,0.6c0.8,0.8,0.8,2.2,0,3.1l-3,3c-0.8,0.8-2.2,0.8-3.1,0
						c-0.8-0.8-0.8-2.2,0-3.1l3-3C467.6,354.2,468.2,354,468.7,354L468.7,354z"/>
				</g>
				<g>
					<path fill="#FFFFFF" d="M488.2,334.6c0.6,0,1.1,0.2,1.5,0.6c0.8,0.8,0.8,2.2,0,3.1l-3.6,3.6c-0.8,0.8-2.2,0.8-3.1,0
						c-0.8-0.8-0.8-2.2,0-3.1l3.6-3.6C487.1,334.8,487.6,334.6,488.2,334.6L488.2,334.6z"/>
				</g>
			</g>
			<g>
				<g>
					<path fill="#FFFFFF" d="M476.9,357.4c1.2,0,2.2,1,2.2,2.2v4.3c0,1.2-1,2.2-2.2,2.2c-1.2,0-2.2-1-2.2-2.2v-4.3
						C474.8,358.4,475.7,357.4,476.9,357.4L476.9,357.4z"/>
				</g>
				<g>
					<path fill="#FFFFFF" d="M476.9,329.9L476.9,329.9c1.2,0,2.2,1,2.2,2.2l0,5.1c0,1.2-1,2.2-2.2,2.2l0,0c-1.2,0-2.2-1-2.2-2.2
						l0-5.1C474.8,330.9,475.7,329.9,476.9,329.9L476.9,329.9z"/>
				</g>
			</g>
			<g>
				<g>
					<path fill="#FFFFFF" d="M461.1,345.8h4.3c1.2,0,2.2,1,2.2,2.2c0,1.2-1,2.2-2.2,2.2h-4.3c-1.2,0-2.2-1-2.2-2.2
						C458.9,346.8,459.9,345.8,461.1,345.8L461.1,345.8z"/>
				</g>
				<g>
					<path fill="#FFFFFF" d="M487.8,345.8h5.1c1.2,0,2.2,1,2.2,2.2c0,1.2-1,2.2-2.2,2.2h-5.1c-1.2,0-2.2-1-2.2-2.2
						C485.6,346.8,486.6,345.8,487.8,345.8L487.8,345.8z"/>
				</g>
			</g>
		</g>
	</g>
	<g>
		<path fill="#FFFFFF" d="M438.3,411.9l1.6-2c1.1,0.9,2.3,1.5,3.8,1.5c1.1,0,1.8-0.4,1.8-1.2v0c0-0.7-0.4-1.1-2.5-1.6
			c-2.5-0.6-4.2-1.4-4.2-3.9v0c0-2.3,1.8-3.8,4.4-3.8c1.8,0,3.4,0.6,4.7,1.6l-1.4,2.1c-1.1-0.8-2.2-1.2-3.3-1.2s-1.6,0.5-1.6,1.1v0
			c0,0.8,0.5,1.1,2.7,1.7c2.6,0.7,4,1.6,4,3.8v0c0,2.5-1.9,3.9-4.6,3.9C441.8,413.9,439.9,413.2,438.3,411.9z"/>
		<path fill="#FFFFFF" d="M450.4,404.1h2.7v1.4c0.7-0.9,1.6-1.6,3-1.6c2.3,0,4.4,1.8,4.4,5v0c0,3.2-2.1,5-4.4,5
			c-1.5,0-2.4-0.7-3-1.4v4.1h-2.7V404.1z M457.8,408.9L457.8,408.9c0-1.6-1.1-2.7-2.4-2.7s-2.3,1.1-2.3,2.7v0c0,1.6,1.1,2.7,2.3,2.7
			S457.8,410.5,457.8,408.9z"/>
		<path fill="#FFFFFF" d="M462.6,400.6h2.7v4.9c0.6-0.8,1.4-1.5,2.8-1.5c2.1,0,3.3,1.4,3.3,3.6v6.2h-2.7v-5.4c0-1.3-0.6-2-1.7-2
			c-1,0-1.7,0.7-1.7,2v5.4h-2.7V400.6z"/>
		<path fill="#FFFFFF" d="M473.9,400.6h2.9v2.4h-2.9V400.6z M473.9,404.1h2.7v9.7h-2.7V404.1z"/>
		<path fill="#FFFFFF" d="M479.2,404.1h2.7v1.4c0.6-0.8,1.4-1.5,2.8-1.5c2.1,0,3.3,1.4,3.3,3.6v6.2h-2.7v-5.4c0-1.3-0.6-2-1.7-2
			c-1,0-1.7,0.7-1.7,2v5.4h-2.7V404.1z"/>
		<path fill="#FFFFFF" d="M493,408.8l-3.3-4.8h2.9l1.8,2.8l1.8-2.8h2.9l-3.3,4.7l3.4,5h-2.9l-1.9-3l-1.9,3h-2.9L493,408.8z"/>
	</g>
</g>
</svg>
