<?xml version="1.0" encoding="utf-8"?>
<!-- Generator: Adobe Illustrator 19.1.0, SVG Export Plug-In . SVG Version: 6.00 Build 0)  -->
<svg version="1.1" id="Layer_1" xmlns="http://www.w3.org/2000/svg" xmlns:xlink="http://www.w3.org/1999/xlink" x="0px" y="0px"
	 viewBox="0 0 681 562" enable-background="new 0 0 681 562" xml:space="preserve">
<rect x="16.3" y="13.3" fill="#6CB2E2" width="544.3" height="158.4"/>
<rect x="173.3" y="23.3" fill="#FFFFFF" width="377.4" height="138.4"/>
<g>
	<g>
		<path fill="#FFFFFF" d="M140.3,111H49.1c-2.3,0-4.1-1.9-4.1-4.1v-58c0-2.3,1.9-4.1,4.1-4.1h91.2c2.3,0,4.1,1.9,4.1,4.1v58
			C144.4,109.1,142.6,111,140.3,111L140.3,111z M53.2,102.7h82.9V52.9H53.2V102.7L53.2,102.7z"/>
	</g>
	<g>
		<path fill="#FFFFFF" d="M132,100.6H57.4c-1.2,0-2.1-0.9-2.1-2.1V57.1c0-1.1,0.9-2.1,2.1-2.1H132c1.1,0,2.1,0.9,2.1,2.1v41.5
			C134.1,99.7,133.1,100.6,132,100.6L132,100.6z M59.4,96.5h70.5V59.2H59.4V96.5L59.4,96.5z"/>
	</g>
	<g>
		<path fill="#FFFFFF" d="M153.1,123.1H37.7c-2.3,0-4.1-1.9-4.1-4.1c0-2.3,1.9-4.1,4.1-4.1h115.4c2.3,0,4.1,1.9,4.1,4.1
			C157.2,121.2,155.4,123.1,153.1,123.1L153.1,123.1z"/>
	</g>
</g>
<g>
	<g>
		<path fill="#FFFFFF" d="M39,149.1h3l2.6,8.5l2.8-8.6h2.4l2.8,8.6l2.6-8.5h2.9l-4.3,12.7h-2.4l-2.8-8.2l-2.8,8.2h-2.4L39,149.1z"/>
		<path fill="#FFFFFF" d="M58.2,156.9L58.2,156.9c0-2.8,2.2-5.1,5.2-5.1c3,0,5.2,2.2,5.2,5v0c0,2.8-2.2,5-5.2,5
			C60.5,161.9,58.2,159.7,58.2,156.9z M66,156.9L66,156.9c0-1.5-1-2.7-2.5-2.7c-1.6,0-2.5,1.2-2.5,2.6v0c0,1.4,1,2.7,2.5,2.7
			C65,159.5,66,158.3,66,156.9z"/>
		<path fill="#FFFFFF" d="M70.7,152h2.7v1.9c0.6-1.3,1.5-2.2,3.1-2.1v2.9h-0.1c-1.8,0-2.9,1.1-2.9,3.4v3.6h-2.7V152z"/>
		<path fill="#FFFFFF" d="M78.2,148.5h2.7v7l3.2-3.5h3.3l-3.7,3.8l3.8,5.9h-3.1l-2.5-3.9l-1,1v2.9h-2.7V148.5z"/>
		<path fill="#FFFFFF" d="M88.1,160.4l1.2-1.8c1,0.8,2.1,1.2,3,1.2c0.8,0,1.2-0.3,1.2-0.7v0c0-0.6-0.9-0.8-2-1.1
			c-1.3-0.4-2.9-1-2.9-2.9v0c0-2,1.6-3.1,3.5-3.1c1.2,0,2.6,0.4,3.6,1.1l-1,1.9c-1-0.6-1.9-0.9-2.6-0.9c-0.7,0-1,0.3-1,0.7v0
			c0,0.5,0.9,0.8,2,1.2c1.4,0.5,2.9,1.1,2.9,2.9v0c0,2.1-1.6,3.1-3.7,3.1C90.9,161.8,89.4,161.4,88.1,160.4z"/>
		<path fill="#FFFFFF" d="M98.1,158.9v-4.6H97V152h1.2v-2.5h2.7v2.5h2.3v2.3h-2.3v4.1c0,0.6,0.3,0.9,0.9,0.9c0.5,0,1-0.1,1.4-0.3
			v2.2c-0.6,0.3-1.2,0.6-2.2,0.6C99.3,161.8,98.1,161.2,98.1,158.9z"/>
		<path fill="#FFFFFF" d="M104.6,158.9L104.6,158.9c0-2.1,1.6-3.1,3.9-3.1c1,0,1.7,0.2,2.4,0.4V156c0-1.1-0.7-1.8-2.1-1.8
			c-1,0-1.8,0.2-2.7,0.5l-0.7-2.1c1.1-0.5,2.1-0.8,3.7-0.8c1.5,0,2.6,0.4,3.3,1.1c0.7,0.7,1,1.8,1,3.1v5.6h-2.6v-1
			c-0.7,0.7-1.6,1.2-2.9,1.2C106.1,161.8,104.6,160.8,104.6,158.9z M110.9,158.3v-0.5c-0.5-0.2-1.1-0.4-1.7-0.4
			c-1.2,0-1.9,0.5-1.9,1.3v0c0,0.7,0.6,1.2,1.5,1.2C110,160,110.9,159.2,110.9,158.3z"/>
		<path fill="#FFFFFF" d="M116.2,158.9v-4.6H115V152h1.2v-2.5h2.7v2.5h2.3v2.3h-2.3v4.1c0,0.6,0.3,0.9,0.9,0.9c0.5,0,1-0.1,1.4-0.3
			v2.2c-0.6,0.3-1.2,0.6-2.2,0.6C117.3,161.8,116.2,161.2,116.2,158.9z"/>
		<path fill="#FFFFFF" d="M123.3,148.5h2.9v2.4h-2.9V148.5z M123.3,152h2.7v9.7h-2.7V152z"/>
		<path fill="#FFFFFF" d="M128.2,156.9L128.2,156.9c0-2.8,2.2-5.1,5.2-5.1c3,0,5.2,2.2,5.2,5v0c0,2.8-2.2,5-5.2,5
			C130.4,161.9,128.2,159.7,128.2,156.9z M135.9,156.9L135.9,156.9c0-1.5-1-2.7-2.5-2.7c-1.6,0-2.5,1.2-2.5,2.6v0
			c0,1.4,1,2.7,2.5,2.7C135,159.5,135.9,158.3,135.9,156.9z"/>
		<path fill="#FFFFFF" d="M140.6,152h2.7v1.4c0.6-0.8,1.4-1.5,2.8-1.5c2.1,0,3.3,1.4,3.3,3.6v6.2h-2.7v-5.4c0-1.3-0.6-2-1.7-2
			s-1.7,0.7-1.7,2v5.4h-2.7V152z"/>
	</g>
</g>
<g>
	<rect x="24.7" y="234.6" fill="#FFFFFF" width="133.4" height="133.4"/>
	<g>
		<path fill="#445464" d="M53.2,347.6h4.5c1.3,0,2.2,0.4,2.9,1c0.6,0.6,0.9,1.3,0.9,2.3v0c0,1.6-0.9,2.6-2.1,3.1l2.4,3.5h-2.6
			l-2.1-3.2h0h-1.7v3.2h-2.2V347.6z M57.6,352.4c1.1,0,1.7-0.6,1.7-1.4v0c0-0.9-0.7-1.4-1.7-1.4h-2.2v2.9H57.6z"/>
		<path fill="#445464" d="M62.7,353.8L62.7,353.8c0-2.2,1.5-4,3.8-4c2.5,0,3.7,2,3.7,4.1c0,0.2,0,0.4,0,0.6h-5.3
			c0.2,1,0.9,1.5,1.9,1.5c0.7,0,1.2-0.2,1.8-0.8l1.2,1.1c-0.7,0.9-1.7,1.4-3.1,1.4C64.4,357.7,62.7,356.1,62.7,353.8z M68.1,353.1
			c-0.1-1-0.7-1.6-1.6-1.6c-0.9,0-1.5,0.6-1.6,1.6H68.1z"/>
		<path fill="#445464" d="M71.8,349.9h2.2v1.1c0.5-0.7,1.2-1.2,2.4-1.2c1.8,0,3.5,1.4,3.5,3.9v0c0,2.5-1.7,3.9-3.5,3.9
			c-1.1,0-1.9-0.5-2.4-1.1v3.3h-2.2V349.9z M77.6,353.7L77.6,353.7c0-1.3-0.9-2.1-1.9-2.1s-1.8,0.8-1.8,2.1v0c0,1.3,0.8,2.1,1.8,2.1
			S77.6,355,77.6,353.7z"/>
		<path fill="#445464" d="M81,353.8L81,353.8c0-2.2,1.8-4,4.1-4c2.4,0,4.1,1.7,4.1,3.9v0c0,2.2-1.8,4-4.1,4
			C82.7,357.7,81,356,81,353.8z M87.1,353.8L87.1,353.8c0-1.1-0.8-2.1-2-2.1c-1.2,0-2,1-2,2.1v0c0,1.1,0.8,2.1,2,2.1
			C86.3,355.8,87.1,354.9,87.1,353.8z"/>
		<path fill="#445464" d="M90.2,356.5l0.9-1.4c0.8,0.6,1.7,0.9,2.4,0.9c0.6,0,0.9-0.2,0.9-0.6v0c0-0.5-0.7-0.6-1.6-0.9
			c-1.1-0.3-2.3-0.8-2.3-2.3v0c0-1.5,1.2-2.4,2.8-2.4c1,0,2,0.3,2.8,0.9l-0.8,1.5c-0.8-0.4-1.5-0.7-2.1-0.7c-0.5,0-0.8,0.2-0.8,0.5
			v0c0,0.4,0.7,0.6,1.5,0.9c1.1,0.4,2.3,0.9,2.3,2.3v0c0,1.7-1.3,2.5-2.9,2.5C92.4,357.7,91.2,357.3,90.2,356.5z"/>
		<path fill="#445464" d="M97.9,347.2h2.3v1.9h-2.3V347.2z M98,349.9h2.2v7.6H98V349.9z"/>
		<path fill="#445464" d="M102.5,355.4v-3.6h-0.9v-1.8h0.9V348h2.2v1.9h1.8v1.8h-1.8v3.2c0,0.5,0.2,0.7,0.7,0.7
			c0.4,0,0.8-0.1,1.1-0.3v1.7c-0.5,0.3-1,0.4-1.7,0.4C103.4,357.7,102.5,357.1,102.5,355.4z"/>
		<path fill="#445464" d="M107.5,353.8L107.5,353.8c0-2.2,1.8-4,4.1-4c2.4,0,4.1,1.7,4.1,3.9v0c0,2.2-1.8,4-4.1,4
			C109.2,357.7,107.5,356,107.5,353.8z M113.6,353.8L113.6,353.8c0-1.1-0.8-2.1-2-2.1c-1.2,0-2,1-2,2.1v0c0,1.1,0.8,2.1,2,2.1
			C112.9,355.8,113.6,354.9,113.6,353.8z"/>
		<path fill="#445464" d="M117.3,349.9h2.2v1.5c0.4-1,1.1-1.7,2.4-1.7v2.3h-0.1c-1.4,0-2.3,0.9-2.3,2.7v2.8h-2.2V349.9z"/>
		<path fill="#445464" d="M123.1,359.3l0.7-1.6c0.3,0.2,0.6,0.3,0.9,0.3c0.4,0,0.6-0.1,0.8-0.5l-3-7.6h2.3l1.7,5.2l1.7-5.2h2.2
			l-2.9,7.8c-0.6,1.5-1.2,2.1-2.5,2.1C124.2,359.8,123.7,359.6,123.1,359.3z"/>
	</g>
</g>
<g>
	<path fill="#445464" d="M91,315.8c9.2,0,16.9-2.5,19.7-5.9v-5.4c-0.1-0.1-0.2-0.3-0.3-0.4c-2.7,3.4-10.5,5.9-19.7,5.9
		c-8.8,0-16.3-2.3-19.3-5.5c0,0,0,0-0.1,0.1v5.1C73.9,313.3,81.8,315.8,91,315.8z"/>
	<path fill="#445464" d="M76,301.5c3.8,1.6,9.1,2.7,15.1,2.7c5.9,0,11.3-1,15.1-2.7c1.7-0.8,3.1-1.7,4.1-2.6
		c0.2-0.2,0.3-0.4,0.5-0.5v-5.4c-0.1-0.1-0.2-0.3-0.3-0.4c-1,1.2-2.6,2.3-4.6,3.2c-3.8,1.6-9.1,2.7-15.1,2.7c-5.9,0-11.3-1-15.1-2.7
		c-1.8-0.8-3.3-1.7-4.3-2.8c0,0,0,0-0.1,0.1v5.1c0.1,0.1,0.1,0.2,0.2,0.3C72.5,299.5,74,300.6,76,301.5z"/>
	<path fill="#445464" d="M76.1,289.7c3.6,1.7,8.9,2.8,14.8,2.8c6,0,11.3-1.1,14.9-2.8c1.8-0.9,3.1-1.9,3.9-3
		c0.5-0.7,0.7-1.4,0.7-2.2c0-4.4-8.7-8.1-19.5-8.1c-10.8,0-19.5,3.6-19.5,8.1c0,0.6,0.2,1.2,0.5,1.8
		C72.7,287.5,74.1,288.7,76.1,289.7z"/>
	<path fill="#445464" d="M124.8,259.8H57.6c-1.7,0-3.1,1.4-3.1,3.1v67.3c0,1.7,1.4,3.1,3.1,3.1h67.3c1.7,0,3.1-1.4,3.1-3.1v-67.3
		C127.9,261.2,126.6,259.8,124.8,259.8z M121.8,327.1H60.7V266h61.1V327.1z"/>
</g>
<g>
	<g>
		<rect x="54.6" y="424.9" fill="#FFFFFF" width="133.4" height="133.4"/>
		<g>
			<path fill="#445464" d="M81.4,537.9h2.3l2.1,6.7l2.2-6.8h1.9l2.2,6.8l2.1-6.7h2.3l-3.4,10h-1.9l-2.2-6.5l-2.2,6.5h-1.9
				L81.4,537.9z"/>
			<path fill="#445464" d="M96.6,544L96.6,544c0-2.2,1.5-4,3.8-4c2.5,0,3.7,2,3.7,4.1c0,0.2,0,0.4,0,0.6h-5.3c0.2,1,0.9,1.5,1.9,1.5
				c0.7,0,1.2-0.2,1.8-0.8l1.2,1.1c-0.7,0.9-1.7,1.4-3.1,1.4C98.2,548,96.6,546.4,96.6,544z M101.9,543.4c-0.1-1-0.7-1.6-1.6-1.6
				c-0.9,0-1.5,0.6-1.6,1.6H101.9z"/>
			<path fill="#445464" d="M107.8,546.8v1h-2.2v-10.4h2.2v3.8c0.5-0.7,1.2-1.2,2.4-1.2c1.8,0,3.5,1.4,3.5,3.9v0
				c0,2.5-1.7,3.9-3.5,3.9C109,547.9,108.3,547.4,107.8,546.8z M111.5,544L111.5,544c0-1.3-0.9-2.1-1.9-2.1s-1.8,0.8-1.8,2.1v0
				c0,1.3,0.8,2.1,1.8,2.1S111.5,545.3,111.5,544z"/>
			<path fill="#445464" d="M119.7,537.9h4.1c2.4,0,3.8,1.4,3.8,3.4v0c0,2.3-1.8,3.5-4,3.5h-1.7v3h-2.2V537.9z M123.6,542.9
				c1.1,0,1.7-0.7,1.7-1.5v0c0-1-0.7-1.5-1.8-1.5h-1.7v3H123.6z"/>
			<path fill="#445464" d="M128.3,545.6L128.3,545.6c0-1.7,1.3-2.5,3.1-2.5c0.8,0,1.3,0.1,1.9,0.3v-0.1c0-0.9-0.6-1.4-1.6-1.4
				c-0.8,0-1.4,0.2-2.1,0.4l-0.5-1.6c0.8-0.4,1.7-0.6,3-0.6c1.2,0,2,0.3,2.6,0.9c0.6,0.6,0.8,1.4,0.8,2.4v4.4h-2.1V547
				c-0.5,0.6-1.2,1-2.3,1C129.5,547.9,128.3,547.1,128.3,545.6z M133.3,545.1v-0.4c-0.4-0.2-0.9-0.3-1.4-0.3c-0.9,0-1.5,0.4-1.5,1.1
				v0c0,0.6,0.5,0.9,1.2,0.9C132.6,546.5,133.3,545.9,133.3,545.1z"/>
			<path fill="#445464" d="M137.2,549.3l0.7-1.6c0.8,0.4,1.6,0.7,2.6,0.7c1.5,0,2.2-0.7,2.2-2.1v-0.4c-0.6,0.8-1.3,1.2-2.5,1.2
				c-1.8,0-3.4-1.3-3.4-3.5v0c0-2.3,1.6-3.5,3.4-3.5c1.2,0,1.9,0.5,2.5,1.1v-1h2.2v5.9c0,1.4-0.3,2.4-1,3c-0.7,0.7-1.8,1-3.3,1
				C139.4,550.1,138.2,549.8,137.2,549.3z M142.7,543.6L142.7,543.6c0-1.1-0.8-1.8-1.9-1.8s-1.8,0.7-1.8,1.8v0c0,1,0.8,1.8,1.8,1.8
				S142.7,544.7,142.7,543.6z"/>
			<path fill="#445464" d="M146.4,544L146.4,544c0-2.2,1.5-4,3.8-4c2.5,0,3.7,2,3.7,4.1c0,0.2,0,0.4,0,0.6h-5.3
				c0.2,1,0.9,1.5,1.9,1.5c0.7,0,1.2-0.2,1.8-0.8l1.2,1.1c-0.7,0.9-1.7,1.4-3.1,1.4C148.1,548,146.4,546.4,146.4,544z M151.8,543.4
				c-0.1-1-0.7-1.6-1.6-1.6c-0.9,0-1.5,0.6-1.6,1.6H151.8z"/>
			<path fill="#445464" d="M154.9,546.8l0.9-1.4c0.8,0.6,1.7,0.9,2.4,0.9c0.6,0,0.9-0.2,0.9-0.6v0c0-0.5-0.7-0.6-1.6-0.9
				c-1.1-0.3-2.3-0.8-2.3-2.3v0c0-1.5,1.2-2.4,2.8-2.4c1,0,2,0.3,2.8,0.9l-0.8,1.5c-0.8-0.4-1.5-0.7-2.1-0.7c-0.5,0-0.8,0.2-0.8,0.5
				v0c0,0.4,0.7,0.6,1.5,0.9c1.1,0.4,2.3,0.9,2.3,2.3v0c0,1.7-1.3,2.5-2.9,2.5C157.1,547.9,155.9,547.6,154.9,546.8z"/>
		</g>
	</g>
	<g>
		<g>
			<path fill="#445464" d="M104.2,480h1.8v3.3h3.4V480h1.8v8.4h-1.8V485H106v3.4h-1.8V480z"/>
			<path fill="#445464" d="M115.3,481.7h-2.6V480h7v1.7h-2.6v6.7h-1.8V481.7z"/>
			<path fill="#445464" d="M121.1,480h2l2.2,3.5l2.2-3.5h2v8.4h-1.8v-5.5l-2.4,3.6h0l-2.3-3.6v5.4h-1.8V480z"/>
			<path fill="#445464" d="M131.5,480h1.8v6.7h4.2v1.7h-6V480z"/>
		</g>
		<g>
			<path fill="#445464" d="M127.8,520.8c-0.9,0-1.6-0.7-1.6-1.6v-19.8c0-0.9,0.7-1.6,1.6-1.6h19.8c0.9,0,1.6,0.7,1.6,1.6
				c0,0.9-0.7,1.6-1.6,1.6h-18.1v18.1C129.4,520.1,128.7,520.8,127.8,520.8L127.8,520.8z"/>
		</g>
		<path fill="#445464" d="M127.8,522.4h-34c-1.8,0-3.3-1.5-3.3-3.3v-67.6c0-1.8,1.5-3.3,3.3-3.3h53.8c1.8,0,3.3,1.5,3.3,3.3v47.8
			c0,0.9-0.3,1.7-1,2.3l-19.8,19.8C129.5,522.1,128.6,522.4,127.8,522.4L127.8,522.4z M97,515.9h29.4l17.8-17.8v-43.2H97V515.9
			L97,515.9z"/>
		<g>
			<path fill="#445464" d="M124.2,465.7h-19.3c-0.9,0-1.6-0.7-1.6-1.6s0.7-1.6,1.6-1.6h19.3c0.9,0,1.6,0.7,1.6,1.6
				S125.1,465.7,124.2,465.7L124.2,465.7z"/>
		</g>
		<g>
			<path fill="#445464" d="M136.9,473.6h-32.1c-0.9,0-1.6-0.7-1.6-1.6c0-0.9,0.7-1.6,1.6-1.6h32.1c0.9,0,1.6,0.7,1.6,1.6
				C138.6,472.9,137.9,473.6,136.9,473.6L136.9,473.6z"/>
		</g>
		<g>
			<path fill="#445464" d="M118.3,497.6h-13.4c-0.9,0-1.6-0.7-1.6-1.6c0-0.9,0.7-1.6,1.6-1.6h13.4c0.9,0,1.6,0.7,1.6,1.6
				C119.9,496.8,119.2,497.6,118.3,497.6L118.3,497.6z"/>
		</g>
		<g>
			<path fill="#445464" d="M118.3,505.6h-13.4c-0.9,0-1.6-0.7-1.6-1.6c0-0.9,0.7-1.6,1.6-1.6h13.4c0.9,0,1.6,0.7,1.6,1.6
				C119.9,504.8,119.2,505.6,118.3,505.6L118.3,505.6z"/>
		</g>
	</g>
</g>
<g>
	<g>
		<rect x="174.6" y="424.9" fill="#FFFFFF" width="133.4" height="133.4"/>
		<g>
			<path fill="#7F888D" d="M197.1,537.9h4.1c2.4,0,3.8,1.4,3.8,3.4v0c0,2.3-1.8,3.5-4,3.5h-1.7v3h-2.2V537.9z M201,542.9
				c1.1,0,1.7-0.7,1.7-1.5v0c0-1-0.7-1.5-1.8-1.5h-1.7v3H201z"/>
			<path fill="#7F888D" d="M206.6,537.9h3.9c3.1,0,5.3,2.1,5.3,4.9v0c0,2.8-2.2,5-5.3,5h-3.9V537.9z M210.5,545.8c1.8,0,3-1.2,3-3v0
				c0-1.8-1.2-3-3-3h-1.7v6H210.5z"/>
			<path fill="#7F888D" d="M217.7,537.9h7.6v2h-5.4v2.1h4.7v2h-4.7v3.8h-2.2V537.9z"/>
			<path fill="#7F888D" d="M230.9,543.7c0-2.7,1.3-4.7,3.9-6.1l1,1.4c-1.9,1.3-2.7,2.6-2.7,4.6s0.8,3.3,2.7,4.6l-1,1.4
				C232.2,548.4,230.9,546.5,230.9,543.7z"/>
			<path fill="#7F888D" d="M237.6,537.9h2.2v7.9h5v2h-7.1V537.9z"/>
			<path fill="#7F888D" d="M245.7,545.6L245.7,545.6c0-1.7,1.3-2.5,3.1-2.5c0.8,0,1.3,0.1,1.9,0.3v-0.1c0-0.9-0.6-1.4-1.6-1.4
				c-0.8,0-1.4,0.2-2.1,0.4l-0.5-1.6c0.8-0.4,1.7-0.6,3-0.6c1.2,0,2,0.3,2.6,0.9c0.6,0.6,0.8,1.4,0.8,2.4v4.4h-2.1V547
				c-0.5,0.6-1.2,1-2.3,1C246.9,547.9,245.7,547.1,245.7,545.6z M250.6,545.1v-0.4c-0.4-0.2-0.9-0.3-1.4-0.3c-0.9,0-1.5,0.4-1.5,1.1
				v0c0,0.6,0.5,0.9,1.2,0.9C249.9,546.5,250.6,545.9,250.6,545.1z"/>
			<path fill="#7F888D" d="M257.1,539.9h-3v-2h8.2v2h-3v7.9h-2.2V539.9z"/>
			<path fill="#7F888D" d="M261.9,544L261.9,544c0-2.2,1.5-4,3.8-4c2.5,0,3.7,2,3.7,4.1c0,0.2,0,0.4,0,0.6H264
				c0.2,1,0.9,1.5,1.9,1.5c0.7,0,1.2-0.2,1.8-0.8l1.2,1.1c-0.7,0.9-1.7,1.4-3.1,1.4C263.6,548,261.9,546.4,261.9,544z M267.2,543.4
				c-0.1-1-0.7-1.6-1.6-1.6c-0.9,0-1.5,0.6-1.6,1.6H267.2z"/>
			<path fill="#7F888D" d="M273.9,542.7l-3.3-4.9h2.6l2.1,3.2l2.1-3.2h2.5l-3.3,4.9l3.5,5.1h-2.6l-2.2-3.4l-2.2,3.4h-2.5
				L273.9,542.7z"/>
			<path fill="#7F888D" d="M281,548.4c1.9-1.3,2.7-2.6,2.7-4.6s-0.8-3.3-2.7-4.6l1-1.4c2.6,1.4,3.9,3.3,3.9,6.1s-1.3,4.7-3.9,6.1
				L281,548.4z"/>
		</g>
	</g>
	<g>
		<g>
			<path fill="#7F888D" d="M224.2,480h3.4c2,0,3.2,1.2,3.2,2.9v0c0,1.9-1.5,3-3.4,3H226v2.5h-1.8V480z M227.5,484.2
				c0.9,0,1.5-0.6,1.5-1.3v0c0-0.8-0.6-1.3-1.5-1.3H226v2.6H227.5z"/>
			<path fill="#7F888D" d="M232.2,480h3.3c2.6,0,4.5,1.8,4.5,4.2v0c0,2.4-1.8,4.2-4.5,4.2h-3.3V480z M235.5,486.7
				c1.5,0,2.5-1,2.5-2.5v0c0-1.5-1-2.5-2.5-2.5h-1.4v5.1H235.5z"/>
			<path fill="#7F888D" d="M241.6,480h6.4v1.7h-4.5v1.8h4v1.7h-4v3.3h-1.8V480z"/>
		</g>
		<g>
			<path fill="#7F888D" d="M247.8,520.8c-0.9,0-1.6-0.7-1.6-1.6v-19.8c0-0.9,0.7-1.6,1.6-1.6h19.8c0.9,0,1.6,0.7,1.6,1.6
				c0,0.9-0.7,1.6-1.6,1.6h-18.1v18.1C249.4,520.1,248.7,520.8,247.8,520.8L247.8,520.8z"/>
		</g>
		<path fill="#7F888D" d="M247.8,522.4h-34c-1.8,0-3.3-1.5-3.3-3.3v-67.6c0-1.8,1.5-3.3,3.3-3.3h53.8c1.8,0,3.3,1.5,3.3,3.3v47.8
			c0,0.9-0.3,1.7-1,2.3l-19.8,19.8C249.5,522.1,248.6,522.4,247.8,522.4L247.8,522.4z M217,515.9h29.4l17.8-17.8v-43.2H217V515.9
			L217,515.9z"/>
		<g>
			<path fill="#7F888D" d="M244.2,465.7h-19.3c-0.9,0-1.6-0.7-1.6-1.6s0.7-1.6,1.6-1.6h19.3c0.9,0,1.6,0.7,1.6,1.6
				S245.1,465.7,244.2,465.7L244.2,465.7z"/>
		</g>
		<g>
			<path fill="#7F888D" d="M256.9,473.6h-32.1c-0.9,0-1.6-0.7-1.6-1.6c0-0.9,0.7-1.6,1.6-1.6h32.1c0.9,0,1.6,0.7,1.6,1.6
				C258.6,472.9,257.9,473.6,256.9,473.6L256.9,473.6z"/>
		</g>
		<g>
			<path fill="#7F888D" d="M238.3,497.6h-13.4c-0.9,0-1.6-0.7-1.6-1.6c0-0.9,0.7-1.6,1.6-1.6h13.4c0.9,0,1.6,0.7,1.6,1.6
				C239.9,496.8,239.2,497.6,238.3,497.6L238.3,497.6z"/>
		</g>
		<g>
			<path fill="#7F888D" d="M238.3,505.6h-13.4c-0.9,0-1.6-0.7-1.6-1.6c0-0.9,0.7-1.6,1.6-1.6h13.4c0.9,0,1.6,0.7,1.6,1.6
				C239.9,504.8,239.2,505.6,238.3,505.6L238.3,505.6z"/>
		</g>
	</g>
</g>
<g>
	<g>
		<rect x="294.6" y="424.9" fill="#FFFFFF" width="133.4" height="133.4"/>
		<g>
			<path fill="#445464" d="M306.7,540.8h2v1.4c0.4-1,1.1-1.6,2.2-1.5v2.1h-0.1c-1.3,0-2.1,0.8-2.1,2.5v2.6h-2V540.8z"/>
			<path fill="#445464" d="M311.6,544.4L311.6,544.4c0-2,1.4-3.7,3.4-3.7c2.3,0,3.4,1.8,3.4,3.8c0,0.2,0,0.3,0,0.5h-4.8
				c0.2,0.9,0.8,1.4,1.7,1.4c0.7,0,1.1-0.2,1.7-0.7l1.1,1c-0.7,0.8-1.6,1.3-2.8,1.3C313.2,548,311.6,546.5,311.6,544.4z
				 M316.5,543.8c-0.1-0.9-0.6-1.5-1.5-1.5c-0.8,0-1.4,0.6-1.5,1.5H316.5z"/>
			<path fill="#445464" d="M319.5,546.5l1.2-1.4c0.8,0.7,1.7,1.1,2.7,1.1c0.8,0,1.3-0.3,1.3-0.9v0c0-0.5-0.3-0.8-1.8-1.2
				c-1.8-0.5-3-1-3-2.8v0c0-1.7,1.3-2.7,3.2-2.7c1.3,0,2.5,0.4,3.4,1.2l-1,1.5c-0.8-0.6-1.6-0.9-2.4-0.9s-1.2,0.4-1.2,0.8v0
				c0,0.6,0.4,0.8,2,1.2c1.8,0.5,2.9,1.1,2.9,2.7v0c0,1.8-1.4,2.8-3.3,2.8C322,547.9,320.6,547.4,319.5,546.5z"/>
			<path fill="#445464" d="M328.5,545.8v-3.3h-0.8v-1.7h0.8V539h2v1.8h1.6v1.7h-1.6v3c0,0.5,0.2,0.7,0.6,0.7c0.4,0,0.7-0.1,1-0.2
				v1.6c-0.4,0.2-0.9,0.4-1.6,0.4C329.3,547.9,328.5,547.4,328.5,545.8z"/>
			<path fill="#445464" d="M333.6,540.8h2v1.4c0.4-1,1.1-1.6,2.2-1.5v2.1h-0.1c-1.3,0-2.1,0.8-2.1,2.5v2.6h-2V540.8z"/>
			<path fill="#445464" d="M339,545.3v-4.5h2v3.9c0,0.9,0.4,1.4,1.2,1.4s1.2-0.5,1.2-1.4v-3.9h2v7h-2v-1c-0.5,0.6-1,1.1-2,1.1
				C339.8,547.9,339,546.9,339,545.3z"/>
			<path fill="#445464" d="M346.8,544.4L346.8,544.4c0-2,1.5-3.7,3.7-3.7c1.3,0,2.1,0.4,2.8,1.2l-1.2,1.3c-0.4-0.5-0.9-0.8-1.6-0.8
				c-1,0-1.7,0.9-1.7,1.9v0c0,1.1,0.7,1.9,1.8,1.9c0.7,0,1.1-0.3,1.6-0.7l1.2,1.2c-0.7,0.7-1.5,1.3-2.8,1.3
				C348.3,548,346.8,546.3,346.8,544.4z"/>
			<path fill="#445464" d="M354.9,545.8v-3.3H354v-1.7h0.8V539h2v1.8h1.6v1.7h-1.6v3c0,0.5,0.2,0.7,0.6,0.7c0.4,0,0.7-0.1,1-0.2v1.6
				c-0.4,0.2-0.9,0.4-1.6,0.4C355.7,547.9,354.9,547.4,354.9,545.8z"/>
			<path fill="#445464" d="M359.9,545.3v-4.5h2v3.9c0,0.9,0.4,1.4,1.2,1.4s1.2-0.5,1.2-1.4v-3.9h2v7h-2v-1c-0.5,0.6-1,1.1-2,1.1
				C360.8,547.9,359.9,546.9,359.9,545.3z"/>
			<path fill="#445464" d="M368,540.8h2v1.4c0.4-1,1.1-1.6,2.2-1.5v2.1h-0.1c-1.3,0-2.1,0.8-2.1,2.5v2.6h-2V540.8z"/>
			<path fill="#445464" d="M372.9,544.4L372.9,544.4c0-2,1.4-3.7,3.4-3.7c2.3,0,3.4,1.8,3.4,3.8c0,0.2,0,0.3,0,0.5h-4.8
				c0.2,0.9,0.8,1.4,1.7,1.4c0.7,0,1.1-0.2,1.7-0.7l1.1,1c-0.7,0.8-1.6,1.3-2.8,1.3C374.5,548,372.9,546.5,372.9,544.4z
				 M377.8,543.8c-0.1-0.9-0.6-1.5-1.5-1.5c-0.8,0-1.4,0.6-1.5,1.5H377.8z"/>
			<path fill="#445464" d="M380.9,544.3L380.9,544.3c0-2.4,1.5-3.6,3.2-3.6c1.1,0,1.7,0.5,2.2,1v-3.4h2v9.5h-2v-1
				c-0.5,0.6-1.1,1.1-2.2,1.1C382.5,547.9,380.9,546.7,380.9,544.3z M386.3,544.3L386.3,544.3c0-1.2-0.8-2-1.7-2s-1.7,0.8-1.7,1.9v0
				c0,1.2,0.8,1.9,1.7,1.9S386.3,545.5,386.3,544.3z"/>
			<path fill="#445464" d="M392.3,540.5h-2.8v-1.8h7.5v1.8h-2.8v7.3h-2V540.5z"/>
			<path fill="#445464" d="M396.7,544.4L396.7,544.4c0-2,1.4-3.7,3.4-3.7c2.3,0,3.4,1.8,3.4,3.8c0,0.2,0,0.3,0,0.5h-4.8
				c0.2,0.9,0.8,1.4,1.7,1.4c0.7,0,1.1-0.2,1.7-0.7l1.1,1c-0.7,0.8-1.6,1.3-2.8,1.3C398.3,548,396.7,546.5,396.7,544.4z
				 M401.7,543.8c-0.1-0.9-0.6-1.5-1.5-1.5c-0.8,0-1.4,0.6-1.5,1.5H401.7z"/>
			<path fill="#445464" d="M406.5,544.3l-2.4-3.4h2.1l1.3,2l1.3-2h2.1l-2.4,3.4l2.5,3.6h-2.1l-1.4-2.2l-1.4,2.2h-2.1L406.5,544.3z"
				/>
			<path fill="#445464" d="M412.6,545.8v-3.3h-0.8v-1.7h0.8V539h2v1.8h1.6v1.7h-1.6v3c0,0.5,0.2,0.7,0.6,0.7c0.4,0,0.7-0.1,1-0.2
				v1.6c-0.4,0.2-0.9,0.4-1.6,0.4C413.4,547.9,412.6,547.4,412.6,545.8z"/>
		</g>
	</g>
	<g>
		<g>
			<path fill="#445464" d="M344.2,480h3.8c1.1,0,1.9,0.3,2.4,0.9c0.5,0.5,0.7,1.1,0.7,1.9v0c0,1.4-0.7,2.2-1.8,2.6l2.1,3h-2.2
				l-1.8-2.7h0H346v2.7h-1.8V480z M347.9,484c0.9,0,1.4-0.5,1.4-1.2v0c0-0.8-0.6-1.2-1.5-1.2H346v2.4H347.9z"/>
			<path fill="#445464" d="M352.3,487.1l1.1-1.3c0.8,0.6,1.5,1,2.5,1c0.8,0,1.2-0.3,1.2-0.8v0c0-0.5-0.3-0.7-1.7-1.1
				c-1.7-0.4-2.8-0.9-2.8-2.6v0c0-1.5,1.2-2.5,2.9-2.5c1.2,0,2.3,0.4,3.1,1.1l-1,1.4c-0.7-0.5-1.5-0.8-2.2-0.8
				c-0.7,0-1.1,0.3-1.1,0.7v0c0,0.6,0.4,0.7,1.8,1.1c1.7,0.4,2.7,1.1,2.7,2.5v0c0,1.7-1.3,2.6-3.1,2.6
				C354.6,488.5,353.3,488,352.3,487.1z"/>
			<path fill="#445464" d="M362.3,481.7h-2.6V480h7v1.7h-2.6v6.7h-1.8V481.7z"/>
		</g>
		<g>
			<path fill="#445464" d="M367.8,520.8c-0.9,0-1.6-0.7-1.6-1.6v-19.8c0-0.9,0.7-1.6,1.6-1.6h19.8c0.9,0,1.6,0.7,1.6,1.6
				c0,0.9-0.7,1.6-1.6,1.6h-18.1v18.1C369.4,520.1,368.7,520.8,367.8,520.8L367.8,520.8z"/>
		</g>
		<path fill="#445464" d="M367.8,522.4h-34c-1.8,0-3.3-1.5-3.3-3.3v-67.6c0-1.8,1.5-3.3,3.3-3.3h53.8c1.8,0,3.3,1.5,3.3,3.3v47.8
			c0,0.9-0.3,1.7-1,2.3l-19.8,19.8C369.5,522.1,368.6,522.4,367.8,522.4L367.8,522.4z M337,515.9h29.4l17.8-17.8v-43.2H337V515.9
			L337,515.9z"/>
		<g>
			<path fill="#445464" d="M364.2,465.7h-19.3c-0.9,0-1.6-0.7-1.6-1.6s0.7-1.6,1.6-1.6h19.3c0.9,0,1.6,0.7,1.6,1.6
				S365.1,465.7,364.2,465.7L364.2,465.7z"/>
		</g>
		<g>
			<path fill="#445464" d="M376.9,473.6h-32.1c-0.9,0-1.6-0.7-1.6-1.6c0-0.9,0.7-1.6,1.6-1.6h32.1c0.9,0,1.6,0.7,1.6,1.6
				C378.6,472.9,377.9,473.6,376.9,473.6L376.9,473.6z"/>
		</g>
		<g>
			<path fill="#445464" d="M358.3,497.6h-13.4c-0.9,0-1.6-0.7-1.6-1.6c0-0.9,0.7-1.6,1.6-1.6h13.4c0.9,0,1.6,0.7,1.6,1.6
				C359.9,496.8,359.2,497.6,358.3,497.6L358.3,497.6z"/>
		</g>
		<g>
			<path fill="#445464" d="M358.3,505.6h-13.4c-0.9,0-1.6-0.7-1.6-1.6c0-0.9,0.7-1.6,1.6-1.6h13.4c0.9,0,1.6,0.7,1.6,1.6
				C359.9,504.8,359.2,505.6,358.3,505.6L358.3,505.6z"/>
		</g>
	</g>
</g>
<g>
	<g>
		<rect x="414.6" y="424.9" fill="#FFFFFF" width="133.4" height="133.4"/>
		<g>
			<path fill="#445464" d="M444,537.9h2.4l2.6,4.2l2.6-4.2h2.4v9.9h-2.2v-6.5l-2.8,4.2h-0.1l-2.8-4.2v6.4H444V537.9z"/>
			<path fill="#445464" d="M455.7,545.6L455.7,545.6c0-1.7,1.3-2.5,3.1-2.5c0.8,0,1.3,0.1,1.9,0.3v-0.1c0-0.9-0.6-1.4-1.6-1.4
				c-0.8,0-1.4,0.2-2.1,0.4l-0.5-1.6c0.8-0.4,1.7-0.6,3-0.6c1.2,0,2,0.3,2.6,0.9c0.6,0.6,0.8,1.4,0.8,2.4v4.4h-2.1V547
				c-0.5,0.6-1.2,1-2.3,1C456.8,547.9,455.7,547.1,455.7,545.6z M460.6,545.1v-0.4c-0.4-0.2-0.9-0.3-1.4-0.3c-0.9,0-1.5,0.4-1.5,1.1
				v0c0,0.6,0.5,0.9,1.2,0.9C459.9,546.5,460.6,545.9,460.6,545.1z"/>
			<path fill="#445464" d="M464.5,540.2h2.2v1.1c0.5-0.6,1.1-1.2,2.2-1.2c1.6,0,2.6,1.1,2.6,2.8v4.9h-2.2v-4.2c0-1-0.5-1.5-1.3-1.5
				c-0.8,0-1.3,0.5-1.3,1.5v4.2h-2.2V540.2z"/>
			<path fill="#445464" d="M477.8,537.9h4.1c2.4,0,3.8,1.4,3.8,3.4v0c0,2.3-1.8,3.5-4,3.5H480v3h-2.2V537.9z M481.7,542.9
				c1.1,0,1.7-0.7,1.7-1.5v0c0-1-0.7-1.5-1.8-1.5H480v3H481.7z"/>
			<path fill="#445464" d="M486.5,545.6L486.5,545.6c0-1.7,1.3-2.5,3.1-2.5c0.8,0,1.3,0.1,1.9,0.3v-0.1c0-0.9-0.6-1.4-1.6-1.4
				c-0.8,0-1.4,0.2-2.1,0.4l-0.5-1.6c0.8-0.4,1.7-0.6,3-0.6c1.2,0,2,0.3,2.6,0.9c0.6,0.6,0.8,1.4,0.8,2.4v4.4h-2.1V547
				c-0.5,0.6-1.2,1-2.3,1C487.7,547.9,486.5,547.1,486.5,545.6z M491.4,545.1v-0.4c-0.4-0.2-0.9-0.3-1.4-0.3c-0.9,0-1.5,0.4-1.5,1.1
				v0c0,0.6,0.5,0.9,1.2,0.9C490.8,546.5,491.4,545.9,491.4,545.1z"/>
			<path fill="#445464" d="M495.4,549.3l0.7-1.6c0.8,0.4,1.6,0.7,2.6,0.7c1.5,0,2.2-0.7,2.2-2.1v-0.4c-0.6,0.8-1.3,1.2-2.5,1.2
				c-1.8,0-3.4-1.3-3.4-3.5v0c0-2.3,1.6-3.5,3.4-3.5c1.2,0,1.9,0.5,2.5,1.1v-1h2.2v5.9c0,1.4-0.3,2.4-1,3c-0.7,0.7-1.8,1-3.3,1
				C497.5,550.1,496.3,549.8,495.4,549.3z M500.9,543.6L500.9,543.6c0-1.1-0.8-1.8-1.9-1.8s-1.8,0.7-1.8,1.8v0c0,1,0.8,1.8,1.8,1.8
				S500.9,544.7,500.9,543.6z"/>
			<path fill="#445464" d="M504.5,544L504.5,544c0-2.2,1.5-4,3.8-4c2.5,0,3.7,2,3.7,4.1c0,0.2,0,0.4,0,0.6h-5.3
				c0.2,1,0.9,1.5,1.9,1.5c0.7,0,1.2-0.2,1.8-0.8l1.2,1.1c-0.7,0.9-1.7,1.4-3.1,1.4C506.2,548,504.5,546.4,504.5,544z M509.9,543.4
				c-0.1-1-0.7-1.6-1.6-1.6c-0.9,0-1.5,0.6-1.6,1.6H509.9z"/>
			<path fill="#445464" d="M513,546.8l0.9-1.4c0.8,0.6,1.7,0.9,2.4,0.9c0.6,0,0.9-0.2,0.9-0.6v0c0-0.5-0.7-0.6-1.6-0.9
				c-1.1-0.3-2.3-0.8-2.3-2.3v0c0-1.5,1.2-2.4,2.8-2.4c1,0,2,0.3,2.8,0.9l-0.8,1.5c-0.8-0.4-1.5-0.7-2.1-0.7c-0.5,0-0.8,0.2-0.8,0.5
				v0c0,0.4,0.7,0.6,1.5,0.9c1.1,0.4,2.3,0.9,2.3,2.3v0c0,1.7-1.3,2.5-2.9,2.5C515.2,547.9,514,547.6,513,546.8z"/>
		</g>
	</g>
	<g>
		<g>
			<path fill="#445464" d="M464.2,480h2l2.2,3.5l2.2-3.5h2v8.4h-1.8v-5.5l-2.4,3.6h0l-2.3-3.6v5.4h-1.8V480z"/>
			<path fill="#445464" d="M477.5,479.9h1.7l3.6,8.5h-1.9l-0.8-1.9h-3.5l-0.8,1.9h-1.9L477.5,479.9z M479.4,484.8l-1.1-2.7l-1.1,2.7
				H479.4z"/>
			<path fill="#445464" d="M484.1,480h1.7l3.9,5.2V480h1.8v8.4H490l-4.1-5.3v5.3h-1.8V480z"/>
		</g>
		<g>
			<path fill="#445464" d="M487.8,520.8c-0.9,0-1.6-0.7-1.6-1.6v-19.8c0-0.9,0.7-1.6,1.6-1.6h19.8c0.9,0,1.6,0.7,1.6,1.6
				c0,0.9-0.7,1.6-1.6,1.6h-18.1v18.1C489.4,520.1,488.7,520.8,487.8,520.8L487.8,520.8z"/>
		</g>
		<path fill="#445464" d="M487.8,522.4h-34c-1.8,0-3.3-1.5-3.3-3.3v-67.6c0-1.8,1.5-3.3,3.3-3.3h53.8c1.8,0,3.3,1.5,3.3,3.3v47.8
			c0,0.9-0.3,1.7-1,2.3l-19.8,19.8C489.5,522.1,488.6,522.4,487.8,522.4L487.8,522.4z M457,515.9h29.4l17.8-17.8v-43.2H457V515.9
			L457,515.9z"/>
		<g>
			<path fill="#445464" d="M484.2,465.7h-19.3c-0.9,0-1.6-0.7-1.6-1.6s0.7-1.6,1.6-1.6h19.3c0.9,0,1.6,0.7,1.6,1.6
				S485.1,465.7,484.2,465.7L484.2,465.7z"/>
		</g>
		<g>
			<path fill="#445464" d="M496.9,473.6h-32.1c-0.9,0-1.6-0.7-1.6-1.6c0-0.9,0.7-1.6,1.6-1.6h32.1c0.9,0,1.6,0.7,1.6,1.6
				C498.6,472.9,497.9,473.6,496.9,473.6L496.9,473.6z"/>
		</g>
		<g>
			<path fill="#445464" d="M478.3,497.6h-13.4c-0.9,0-1.6-0.7-1.6-1.6c0-0.9,0.7-1.6,1.6-1.6h13.4c0.9,0,1.6,0.7,1.6,1.6
				C479.9,496.8,479.2,497.6,478.3,497.6L478.3,497.6z"/>
		</g>
		<g>
			<path fill="#445464" d="M478.3,505.6h-13.4c-0.9,0-1.6-0.7-1.6-1.6c0-0.9,0.7-1.6,1.6-1.6h13.4c0.9,0,1.6,0.7,1.6,1.6
				C479.9,504.8,479.2,505.6,478.3,505.6L478.3,505.6z"/>
		</g>
	</g>
</g>
<g>
	<g>
		<rect x="534.6" y="424.9" fill="#FFFFFF" width="133.4" height="133.4"/>
		<g>
			<path fill="#445464" d="M570.8,537.9h4.5c1.3,0,2.2,0.4,2.9,1c0.6,0.6,0.9,1.3,0.9,2.3v0c0,1.6-0.9,2.6-2.1,3.1l2.4,3.5h-2.6
				l-2.1-3.2h0H573v3.2h-2.2V537.9z M575.2,542.7c1.1,0,1.7-0.6,1.7-1.4v0c0-0.9-0.7-1.4-1.7-1.4H573v2.9H575.2z"/>
			<path fill="#445464" d="M580.3,544L580.3,544c0-2.2,1.5-4,3.8-4c2.5,0,3.7,2,3.7,4.1c0,0.2,0,0.4,0,0.6h-5.3
				c0.2,1,0.9,1.5,1.9,1.5c0.7,0,1.2-0.2,1.8-0.8l1.2,1.1c-0.7,0.9-1.7,1.4-3.1,1.4C582,548,580.3,546.4,580.3,544z M585.7,543.4
				c-0.1-1-0.7-1.6-1.6-1.6c-0.9,0-1.5,0.6-1.6,1.6H585.7z"/>
			<path fill="#445464" d="M588.3,540.2h2.3l1.7,5.1l1.7-5.1h2.2l-3,7.7h-2L588.3,540.2z"/>
			<path fill="#445464" d="M596.7,544L596.7,544c0-2.2,1.5-4,3.8-4c2.5,0,3.7,2,3.7,4.1c0,0.2,0,0.4,0,0.6h-5.3
				c0.2,1,0.9,1.5,1.9,1.5c0.7,0,1.2-0.2,1.8-0.8l1.2,1.1c-0.7,0.9-1.7,1.4-3.1,1.4C598.4,548,596.7,546.4,596.7,544z M602.1,543.4
				c-0.1-1-0.7-1.6-1.6-1.6c-0.9,0-1.5,0.6-1.6,1.6H602.1z"/>
			<path fill="#445464" d="M605.4,545.6L605.4,545.6c0-1.7,1.3-2.5,3.1-2.5c0.8,0,1.3,0.1,1.9,0.3v-0.1c0-0.9-0.6-1.4-1.6-1.4
				c-0.8,0-1.4,0.2-2.1,0.4l-0.5-1.6c0.8-0.4,1.7-0.6,3-0.6c1.2,0,2,0.3,2.6,0.9c0.6,0.6,0.8,1.4,0.8,2.4v4.4h-2.1V547
				c-0.5,0.6-1.2,1-2.3,1C606.5,547.9,605.4,547.1,605.4,545.6z M610.3,545.1v-0.4c-0.4-0.2-0.9-0.3-1.4-0.3c-0.9,0-1.5,0.4-1.5,1.1
				v0c0,0.6,0.5,0.9,1.2,0.9C609.6,546.5,610.3,545.9,610.3,545.1z"/>
			<path fill="#445464" d="M614.3,537.4h2.2v10.4h-2.2V537.4z"/>
			<path fill="#445464" d="M618.4,545.5h2.3v2.3h-2.3V545.5z"/>
			<path fill="#445464" d="M621.4,550v-1.7c0.2,0,0.3,0,0.5,0c0.5,0,0.8-0.2,0.8-0.9v-7.3h2.2v7.5c0,1.7-0.9,2.4-2.4,2.4
				C622,550.1,621.7,550.1,621.4,550z M622.6,537.4h2.3v1.9h-2.3V537.4z"/>
			<path fill="#445464" d="M626.2,546.8l0.9-1.4c0.8,0.6,1.7,0.9,2.4,0.9c0.6,0,0.9-0.2,0.9-0.6v0c0-0.5-0.7-0.6-1.6-0.9
				c-1.1-0.3-2.3-0.8-2.3-2.3v0c0-1.5,1.2-2.4,2.8-2.4c1,0,2,0.3,2.8,0.9l-0.8,1.5c-0.8-0.4-1.5-0.7-2.1-0.7c-0.5,0-0.8,0.2-0.8,0.5
				v0c0,0.4,0.7,0.6,1.5,0.9c1.1,0.4,2.3,0.9,2.3,2.3v0c0,1.7-1.3,2.5-2.9,2.5C628.4,547.9,627.3,547.6,626.2,546.8z"/>
		</g>
	</g>
	<g>
		<g>
			<path fill="#445464" d="M583.6,487.1l1.1-1.3c0.8,0.6,1.5,1,2.5,1c0.8,0,1.2-0.3,1.2-0.8v0c0-0.5-0.3-0.7-1.7-1.1
				c-1.7-0.4-2.8-0.9-2.8-2.6v0c0-1.5,1.2-2.5,2.9-2.5c1.2,0,2.3,0.4,3.1,1.1l-1,1.4c-0.7-0.5-1.5-0.8-2.2-0.8
				c-0.7,0-1.1,0.3-1.1,0.7v0c0,0.6,0.4,0.7,1.8,1.1c1.7,0.4,2.7,1.1,2.7,2.5v0c0,1.7-1.3,2.6-3.1,2.6
				C585.9,488.5,584.6,488,583.6,487.1z"/>
			<path fill="#445464" d="M591.9,480h1.8v6.7h4.2v1.7h-6V480z"/>
			<path fill="#445464" d="M599.4,480h1.8v8.4h-1.8V480z"/>
			<path fill="#445464" d="M603.3,480h3.3c2.6,0,4.5,1.8,4.5,4.2v0c0,2.4-1.8,4.2-4.5,4.2h-3.3V480z M606.6,486.7
				c1.5,0,2.5-1,2.5-2.5v0c0-1.5-1-2.5-2.5-2.5h-1.4v5.1H606.6z"/>
			<path fill="#445464" d="M612.7,480h6.3v1.6h-4.5v1.7h4v1.6h-4v1.8h4.6v1.6h-6.4V480z"/>
		</g>
		<g>
			<path fill="#445464" d="M607.8,520.8c-0.9,0-1.6-0.7-1.6-1.6v-19.8c0-0.9,0.7-1.6,1.6-1.6h19.8c0.9,0,1.6,0.7,1.6,1.6
				c0,0.9-0.7,1.6-1.6,1.6h-18.1v18.1C609.4,520.1,608.7,520.8,607.8,520.8L607.8,520.8z"/>
		</g>
		<path fill="#445464" d="M607.8,522.4h-34c-1.8,0-3.3-1.5-3.3-3.3v-67.6c0-1.8,1.5-3.3,3.3-3.3h53.8c1.8,0,3.3,1.5,3.3,3.3v47.8
			c0,0.9-0.3,1.7-1,2.3l-19.8,19.8C609.5,522.1,608.6,522.4,607.8,522.4L607.8,522.4z M577,515.9h29.4l17.8-17.8v-43.2H577V515.9
			L577,515.9z"/>
		<g>
			<path fill="#445464" d="M604.2,465.7h-19.3c-0.9,0-1.6-0.7-1.6-1.6s0.7-1.6,1.6-1.6h19.3c0.9,0,1.6,0.7,1.6,1.6
				S605.1,465.7,604.2,465.7L604.2,465.7z"/>
		</g>
		<g>
			<path fill="#445464" d="M616.9,473.6h-32.1c-0.9,0-1.6-0.7-1.6-1.6c0-0.9,0.7-1.6,1.6-1.6h32.1c0.9,0,1.6,0.7,1.6,1.6
				C618.6,472.9,617.9,473.6,616.9,473.6L616.9,473.6z"/>
		</g>
		<g>
			<path fill="#445464" d="M598.3,497.6h-13.4c-0.9,0-1.6-0.7-1.6-1.6c0-0.9,0.7-1.6,1.6-1.6h13.4c0.9,0,1.6,0.7,1.6,1.6
				C599.9,496.8,599.2,497.6,598.3,497.6L598.3,497.6z"/>
		</g>
		<g>
			<path fill="#445464" d="M598.3,505.6h-13.4c-0.9,0-1.6-0.7-1.6-1.6c0-0.9,0.7-1.6,1.6-1.6h13.4c0.9,0,1.6,0.7,1.6,1.6
				C599.9,504.8,599.2,505.6,598.3,505.6L598.3,505.6z"/>
		</g>
	</g>
</g>
<g>
	<g>
		<rect x="417.3" y="23.3" fill="#FFFFFF" width="133.4" height="133.4"/>
		<g>
			<path fill="#445464" d="M460,144.7l1.3-1.5c0.9,0.7,1.8,1.2,3,1.2c0.9,0,1.4-0.4,1.4-0.9v0c0-0.6-0.3-0.8-2-1.3
				c-2-0.5-3.3-1.1-3.3-3v0c0-1.8,1.4-3,3.5-3c1.4,0,2.7,0.5,3.7,1.3l-1.1,1.6c-0.9-0.6-1.7-1-2.6-1s-1.3,0.4-1.3,0.9v0
				c0,0.7,0.4,0.9,2.1,1.3c2,0.5,3.2,1.2,3.2,3v0c0,2-1.5,3.1-3.6,3.1C462.7,146.3,461.2,145.8,460,144.7z"/>
			<path fill="#445464" d="M469.5,138.5h2.2v1.1c0.5-0.7,1.2-1.2,2.4-1.2c1.8,0,3.5,1.4,3.5,3.9v0c0,2.5-1.7,3.9-3.5,3.9
				c-1.1,0-1.9-0.5-2.4-1.1v3.3h-2.2V138.5z M475.4,142.4L475.4,142.4c0-1.3-0.9-2.1-1.9-2.1s-1.8,0.8-1.8,2.1v0
				c0,1.3,0.8,2.1,1.8,2.1S475.4,143.6,475.4,142.4z"/>
			<path fill="#445464" d="M479.1,135.8h2.2v3.8c0.5-0.6,1.1-1.2,2.2-1.2c1.6,0,2.6,1.1,2.6,2.8v4.9h-2.2v-4.2c0-1-0.5-1.5-1.3-1.5
				c-0.8,0-1.3,0.5-1.3,1.5v4.2h-2.2V135.8z"/>
			<path fill="#445464" d="M488,135.8h2.3v1.9H488V135.8z M488.1,138.5h2.2v7.6h-2.2V138.5z"/>
			<path fill="#445464" d="M492.2,138.5h2.2v1.1c0.5-0.6,1.1-1.2,2.2-1.2c1.6,0,2.6,1.1,2.6,2.8v4.9h-2.2v-4.2c0-1-0.5-1.5-1.3-1.5
				c-0.8,0-1.3,0.5-1.3,1.5v4.2h-2.2V138.5z"/>
			<path fill="#445464" d="M503.1,142.3l-2.6-3.7h2.3l1.4,2.2l1.4-2.2h2.3l-2.6,3.7l2.7,3.9h-2.3l-1.5-2.4l-1.5,2.4h-2.3
				L503.1,142.3z"/>
		</g>
	</g>
	<ellipse fill="#445464" cx="484" cy="82" rx="39.7" ry="39.8"/>
	<g>
		<g>
			<g>
				<path fill="#FFFFFF" d="M486.7,92.2c4.5,0,8.1,3.6,8.1,8.1c0,4.5-3.7,8.1-8.1,8.1c-4.5,0-8.1-3.6-8.1-8.1
					C478.5,95.8,482.2,92.2,486.7,92.2L486.7,92.2z M486.7,105.7c3,0,5.4-2.4,5.4-5.4c0-3-2.4-5.4-5.4-5.4c-3,0-5.4,2.4-5.4,5.4
					C481.2,103.3,483.7,105.7,486.7,105.7L486.7,105.7z"/>
			</g>
			<g>
				<g>
					<path fill="#FFFFFF" d="M491.8,104c0.3,0,0.7,0.1,1,0.4l1.9,1.9c0.5,0.5,0.5,1.4,0,1.9c-0.5,0.5-1.4,0.5-1.9,0l-1.9-1.9
						c-0.5-0.5-0.5-1.4,0-1.9C491.1,104.2,491.4,104,491.8,104L491.8,104z"/>
				</g>
				<g>
					<path fill="#FFFFFF" d="M479.7,91.9c0.3,0,0.7,0.1,1,0.4l2.2,2.2c0.5,0.5,0.5,1.4,0,1.9c-0.5,0.5-1.4,0.5-1.9,0l-2.2-2.2
						c-0.5-0.5-0.5-1.4,0-1.9C479,92.1,479.3,91.9,479.7,91.9L479.7,91.9z"/>
				</g>
			</g>
			<g>
				<g>
					<path fill="#FFFFFF" d="M481.5,104c0.3,0,0.7,0.1,1,0.4c0.5,0.5,0.5,1.4,0,1.9l-1.9,1.9c-0.5,0.5-1.4,0.5-1.9,0
						c-0.5-0.5-0.5-1.4,0-1.9l1.9-1.9C480.8,104.2,481.2,104,481.5,104L481.5,104z"/>
				</g>
				<g>
					<path fill="#FFFFFF" d="M493.7,91.9c0.3,0,0.7,0.1,1,0.4c0.5,0.5,0.5,1.4,0,1.9l-2.2,2.2c-0.5,0.5-1.4,0.5-1.9,0
						c-0.5-0.5-0.5-1.4,0-1.9l2.2-2.2C493,92.1,493.3,91.9,493.7,91.9L493.7,91.9z"/>
				</g>
			</g>
			<g>
				<g>
					<path fill="#FFFFFF" d="M486.6,106.2c0.7,0,1.4,0.6,1.4,1.4v2.7c0,0.7-0.6,1.4-1.4,1.4c-0.7,0-1.4-0.6-1.4-1.4v-2.7
						C485.3,106.8,485.9,106.2,486.6,106.2L486.6,106.2z"/>
				</g>
				<g>
					<path fill="#FFFFFF" d="M486.7,89L486.7,89c0.7,0,1.4,0.6,1.4,1.4l0,3.2c0,0.7-0.6,1.3-1.4,1.3l0,0c-0.7,0-1.4-0.6-1.4-1.4
						l0-3.2C485.3,89.6,485.9,89,486.7,89L486.7,89z"/>
				</g>
			</g>
			<g>
				<g>
					<path fill="#FFFFFF" d="M476.7,98.9h2.7c0.7,0,1.4,0.6,1.4,1.4c0,0.7-0.6,1.4-1.4,1.4h-2.7c-0.7,0-1.4-0.6-1.4-1.4
						C475.4,99.5,476,98.9,476.7,98.9L476.7,98.9z"/>
				</g>
				<g>
					<path fill="#FFFFFF" d="M493.4,98.9h3.2c0.7,0,1.4,0.6,1.4,1.4c0,0.7-0.6,1.4-1.4,1.4h-3.2c-0.7,0-1.4-0.6-1.4-1.4
						C492,99.5,492.7,98.9,493.4,98.9L493.4,98.9z"/>
				</g>
			</g>
		</g>
		<g>
			<g>
				<path fill="#FFFFFF" d="M467.4,79.4c4.2,0,7.6,3.4,7.6,7.6c0,4.2-3.4,7.6-7.6,7.6c-4.2,0-7.6-3.4-7.6-7.6
					C459.9,82.8,463.2,79.4,467.4,79.4L467.4,79.4z M467.4,92c2.8,0,5-2.3,5-5c0-2.8-2.3-5-5-5c-2.8,0-5,2.3-5,5
					C462.4,89.8,464.6,92,467.4,92L467.4,92z"/>
			</g>
			<g>
				<g>
					<path fill="#FFFFFF" d="M472.2,90.5c0.3,0,0.6,0.1,0.9,0.4l1.8,1.8c0.5,0.5,0.5,1.3,0,1.8c-0.5,0.5-1.3,0.5-1.8,0l-1.8-1.8
						c-0.5-0.5-0.5-1.3,0-1.8C471.5,90.6,471.8,90.5,472.2,90.5L472.2,90.5z"/>
				</g>
				<g>
					<path fill="#FFFFFF" d="M460.9,79.2c0.3,0,0.6,0.1,0.9,0.4l2.1,2.1c0.5,0.5,0.5,1.3,0,1.8c-0.5,0.5-1.3,0.5-1.8,0l-2.1-2.1
						c-0.5-0.5-0.5-1.3,0-1.8C460.3,79.4,460.6,79.2,460.9,79.2L460.9,79.2z"/>
				</g>
			</g>
			<g>
				<g>
					<path fill="#FFFFFF" d="M462.7,90.5c0.3,0,0.6,0.1,0.9,0.4c0.5,0.5,0.5,1.3,0,1.8l-1.8,1.8c-0.5,0.5-1.3,0.5-1.8,0
						c-0.5-0.5-0.5-1.3,0-1.8l1.8-1.8C462,90.6,462.3,90.5,462.7,90.5L462.7,90.5z"/>
				</g>
				<g>
					<path fill="#FFFFFF" d="M473.9,79.2c0.3,0,0.6,0.1,0.9,0.4c0.5,0.5,0.5,1.3,0,1.8l-2.1,2.1c-0.5,0.5-1.3,0.5-1.8,0
						c-0.5-0.5-0.5-1.3,0-1.8l2.1-2.1C473.3,79.4,473.6,79.2,473.9,79.2L473.9,79.2z"/>
				</g>
			</g>
			<g>
				<g>
					<path fill="#FFFFFF" d="M467.4,92.5c0.7,0,1.3,0.6,1.3,1.3v2.5c0,0.7-0.6,1.3-1.3,1.3c-0.7,0-1.3-0.6-1.3-1.3v-2.5
						C466.2,93,466.7,92.5,467.4,92.5L467.4,92.5z"/>
				</g>
				<g>
					<path fill="#FFFFFF" d="M467.4,76.5L467.4,76.5c0.7,0,1.3,0.6,1.3,1.3l0,2.9c0,0.7-0.6,1.3-1.3,1.3l0,0c-0.7,0-1.3-0.6-1.3-1.3
						l0-2.9C466.2,77.1,466.7,76.5,467.4,76.5L467.4,76.5z"/>
				</g>
			</g>
			<g>
				<g>
					<path fill="#FFFFFF" d="M458.2,85.7h2.5c0.7,0,1.3,0.6,1.3,1.3c0,0.7-0.6,1.3-1.3,1.3h-2.5c-0.7,0-1.3-0.6-1.3-1.3
						C457,86.3,457.5,85.7,458.2,85.7L458.2,85.7z"/>
				</g>
				<g>
					<path fill="#FFFFFF" d="M473.7,85.7h2.9c0.7,0,1.3,0.6,1.3,1.3c0,0.7-0.6,1.3-1.3,1.3h-2.9c-0.7,0-1.3-0.6-1.3-1.3
						C472.4,86.3,473,85.7,473.7,85.7L473.7,85.7z"/>
				</g>
			</g>
		</g>
		<g>
			<g>
				<path fill="#FFFFFF" d="M491.5,60.9c6.5,0,11.7,5.3,11.7,11.7c0,6.5-5.3,11.7-11.7,11.7c-6.5,0-11.7-5.3-11.7-11.7
					C479.8,66.1,485,60.9,491.5,60.9L491.5,60.9z M491.5,80.4c4.3,0,7.8-3.5,7.8-7.8c0-4.3-3.5-7.8-7.8-7.8c-4.3,0-7.8,3.5-7.8,7.8
					C483.7,76.9,487.2,80.4,491.5,80.4L491.5,80.4z"/>
			</g>
			<g>
				<g>
					<path fill="#FFFFFF" d="M498.9,78c0.5,0,1,0.2,1.4,0.6l2.7,2.7c0.8,0.8,0.8,2,0,2.8c-0.8,0.8-2,0.8-2.8,0l-2.7-2.7
						c-0.8-0.8-0.8-2,0-2.8C497.9,78.2,498.4,78,498.9,78L498.9,78z"/>
				</g>
				<g>
					<path fill="#FFFFFF" d="M481.4,60.6c0.5,0,1,0.2,1.4,0.6l3.2,3.2c0.8,0.8,0.8,2,0,2.8c-0.8,0.8-2,0.8-2.8,0l-3.2-3.2
						c-0.8-0.8-0.8-2,0-2.8C480.4,60.8,480.9,60.6,481.4,60.6L481.4,60.6z"/>
				</g>
			</g>
			<g>
				<g>
					<path fill="#FFFFFF" d="M484.1,78c0.5,0,1,0.2,1.4,0.6c0.8,0.8,0.8,2,0,2.8l-2.7,2.7c-0.8,0.8-2,0.8-2.8,0
						c-0.8-0.8-0.8-2,0-2.8l2.7-2.7C483.1,78.2,483.6,78,484.1,78L484.1,78z"/>
				</g>
				<g>
					<path fill="#FFFFFF" d="M501.6,60.6c0.5,0,1,0.2,1.4,0.6c0.8,0.8,0.8,2,0,2.8l-3.2,3.2c-0.8,0.8-2,0.8-2.8,0
						c-0.8-0.8-0.8-2,0-2.8l3.2-3.2C500.6,60.8,501.1,60.6,501.6,60.6L501.6,60.6z"/>
				</g>
			</g>
			<g>
				<g>
					<path fill="#FFFFFF" d="M491.5,81.1c1.1,0,1.9,0.9,1.9,1.9v3.8c0,1.1-0.9,1.9-1.9,1.9c-1.1,0-1.9-0.9-1.9-1.9V83
						C489.5,81.9,490.4,81.1,491.5,81.1L491.5,81.1z"/>
				</g>
				<g>
					<path fill="#FFFFFF" d="M491.5,56.4L491.5,56.4c1.1,0,1.9,0.9,1.9,1.9l0,4.5c0,1.1-0.9,1.9-1.9,1.9l0,0c-1.1,0-1.9-0.9-1.9-1.9
						l0-4.5C489.6,57.3,490.4,56.4,491.5,56.4L491.5,56.4z"/>
				</g>
			</g>
			<g>
				<g>
					<path fill="#FFFFFF" d="M477.2,70.6h3.8c1.1,0,1.9,0.9,1.9,1.9c0,1.1-0.9,1.9-1.9,1.9h-3.8c-1.1,0-1.9-0.9-1.9-1.9
						C475.3,71.5,476.2,70.6,477.2,70.6L477.2,70.6z"/>
				</g>
				<g>
					<path fill="#FFFFFF" d="M501.2,70.6h4.5c1.1,0,1.9,0.9,1.9,1.9c0,1.1-0.9,1.9-1.9,1.9h-4.5c-1.1,0-1.9-0.9-1.9-1.9
						C499.3,71.5,500.1,70.6,501.2,70.6L501.2,70.6z"/>
				</g>
			</g>
		</g>
	</g>
</g>
<g>
	<g>
		<rect x="177.3" y="25.4" fill="#FFFFFF" width="133.4" height="133.4"/>
		<g>
			<path fill="#445464" d="M189.4,140.3h2v1.4c0.4-1,1.1-1.6,2.2-1.5v2.1h-0.1c-1.3,0-2.1,0.8-2.1,2.5v2.6h-2V140.3z"/>
			<path fill="#445464" d="M194.3,143.9L194.3,143.9c0-2,1.4-3.7,3.4-3.7c2.3,0,3.4,1.8,3.4,3.8c0,0.2,0,0.3,0,0.5h-4.8
				c0.2,0.9,0.8,1.4,1.7,1.4c0.7,0,1.1-0.2,1.7-0.7l1.1,1c-0.7,0.8-1.6,1.3-2.8,1.3C195.8,147.5,194.3,146,194.3,143.9z
				 M199.2,143.3c-0.1-0.9-0.6-1.5-1.5-1.5c-0.8,0-1.4,0.6-1.5,1.5H199.2z"/>
			<path fill="#445464" d="M202.2,146l1.2-1.4c0.8,0.7,1.7,1.1,2.7,1.1c0.8,0,1.3-0.3,1.3-0.9v0c0-0.5-0.3-0.8-1.8-1.2
				c-1.8-0.5-3-1-3-2.8v0c0-1.7,1.3-2.7,3.2-2.7c1.3,0,2.5,0.4,3.4,1.2l-1,1.5c-0.8-0.6-1.6-0.9-2.4-0.9s-1.2,0.4-1.2,0.8v0
				c0,0.6,0.4,0.8,2,1.2c1.8,0.5,2.9,1.1,2.9,2.7v0c0,1.8-1.4,2.8-3.3,2.8C204.7,147.4,203.3,147,202.2,146z"/>
			<path fill="#445464" d="M211.2,145.3V142h-0.8v-1.7h0.8v-1.8h2v1.8h1.6v1.7h-1.6v3c0,0.5,0.2,0.7,0.6,0.7c0.4,0,0.7-0.1,1-0.2
				v1.6c-0.4,0.2-0.9,0.4-1.6,0.4C212,147.4,211.2,146.9,211.2,145.3z"/>
			<path fill="#445464" d="M216.2,140.3h2v1.4c0.4-1,1.1-1.6,2.2-1.5v2.1h-0.1c-1.3,0-2.1,0.8-2.1,2.5v2.6h-2V140.3z"/>
			<path fill="#445464" d="M221.6,144.8v-4.5h2v3.9c0,0.9,0.4,1.4,1.2,1.4s1.2-0.5,1.2-1.4v-3.9h2v7h-2v-1c-0.5,0.6-1,1.1-2,1.1
				C222.5,147.4,221.6,146.4,221.6,144.8z"/>
			<path fill="#445464" d="M229.4,143.9L229.4,143.9c0-2,1.5-3.7,3.7-3.7c1.3,0,2.1,0.4,2.8,1.2l-1.2,1.3c-0.4-0.5-0.9-0.8-1.6-0.8
				c-1,0-1.7,0.9-1.7,1.9v0c0,1.1,0.7,1.9,1.8,1.9c0.7,0,1.1-0.3,1.6-0.7l1.2,1.2c-0.7,0.7-1.5,1.3-2.8,1.3
				C231,147.5,229.4,145.8,229.4,143.9z"/>
			<path fill="#445464" d="M237.5,145.3V142h-0.8v-1.7h0.8v-1.8h2v1.8h1.6v1.7h-1.6v3c0,0.5,0.2,0.7,0.6,0.7c0.4,0,0.7-0.1,1-0.2
				v1.6c-0.4,0.2-0.9,0.4-1.6,0.4C238.3,147.4,237.5,146.9,237.5,145.3z"/>
			<path fill="#445464" d="M242.5,144.8v-4.5h2v3.9c0,0.9,0.4,1.4,1.2,1.4s1.2-0.5,1.2-1.4v-3.9h2v7h-2v-1c-0.5,0.6-1,1.1-2,1.1
				C243.4,147.4,242.5,146.4,242.5,144.8z"/>
			<path fill="#445464" d="M250.7,140.3h2v1.4c0.4-1,1.1-1.6,2.2-1.5v2.1h-0.1c-1.3,0-2.1,0.8-2.1,2.5v2.6h-2V140.3z"/>
			<path fill="#445464" d="M255.6,143.9L255.6,143.9c0-2,1.4-3.7,3.4-3.7c2.3,0,3.4,1.8,3.4,3.8c0,0.2,0,0.3,0,0.5h-4.8
				c0.2,0.9,0.8,1.4,1.7,1.4c0.7,0,1.1-0.2,1.7-0.7l1.1,1c-0.7,0.8-1.6,1.3-2.8,1.3C257.1,147.5,255.6,146,255.6,143.9z
				 M260.5,143.3c-0.1-0.9-0.6-1.5-1.5-1.5c-0.8,0-1.4,0.6-1.5,1.5H260.5z"/>
			<path fill="#445464" d="M263.6,143.8L263.6,143.8c0-2.4,1.5-3.6,3.2-3.6c1.1,0,1.7,0.5,2.2,1v-3.4h2v9.5h-2v-1
				c-0.5,0.6-1.1,1.1-2.2,1.1C265.1,147.4,263.6,146.2,263.6,143.8z M269,143.8L269,143.8c0-1.2-0.8-2-1.7-2s-1.7,0.8-1.7,1.9v0
				c0,1.2,0.8,1.9,1.7,1.9S269,145,269,143.8z"/>
			<path fill="#445464" d="M275,140h-2.8v-1.8h7.5v1.8H277v7.3h-2V140z"/>
			<path fill="#445464" d="M279.4,143.9L279.4,143.9c0-2,1.4-3.7,3.4-3.7c2.3,0,3.4,1.8,3.4,3.8c0,0.2,0,0.3,0,0.5h-4.8
				c0.2,0.9,0.8,1.4,1.7,1.4c0.7,0,1.1-0.2,1.7-0.7l1.1,1c-0.7,0.8-1.6,1.3-2.8,1.3C280.9,147.5,279.4,146,279.4,143.9z
				 M284.3,143.3c-0.1-0.9-0.6-1.5-1.5-1.5c-0.8,0-1.4,0.6-1.5,1.5H284.3z"/>
			<path fill="#445464" d="M289.2,143.8l-2.4-3.4h2.1l1.3,2l1.3-2h2.1l-2.4,3.4l2.5,3.6h-2.1l-1.4-2.2l-1.4,2.2h-2.1L289.2,143.8z"
				/>
			<path fill="#445464" d="M295.2,145.3V142h-0.8v-1.7h0.8v-1.8h2v1.8h1.6v1.7h-1.6v3c0,0.5,0.2,0.7,0.6,0.7c0.4,0,0.7-0.1,1-0.2
				v1.6c-0.4,0.2-0.9,0.4-1.6,0.4C296,147.4,295.2,146.9,295.2,145.3z"/>
		</g>
	</g>
	<g>
		<g>
			<path fill="#445464" d="M226.9,77.5h3.8c1.1,0,1.9,0.3,2.4,0.9c0.5,0.5,0.7,1.1,0.7,1.9v0c0,1.4-0.7,2.2-1.8,2.6l2.1,3h-2.2
				l-1.8-2.7h0h-1.4v2.7h-1.8V77.5z M230.6,81.5c0.9,0,1.4-0.5,1.4-1.2v0c0-0.8-0.6-1.2-1.5-1.2h-1.8v2.4H230.6z"/>
			<path fill="#445464" d="M235,84.6l1.1-1.3c0.8,0.6,1.5,1,2.5,1c0.8,0,1.2-0.3,1.2-0.8v0c0-0.5-0.3-0.7-1.7-1.1
				c-1.7-0.4-2.8-0.9-2.8-2.6v0c0-1.5,1.2-2.5,2.9-2.5c1.2,0,2.3,0.4,3.1,1.1l-1,1.4c-0.7-0.5-1.5-0.8-2.2-0.8
				c-0.7,0-1.1,0.3-1.1,0.7v0c0,0.6,0.4,0.7,1.8,1.1c1.7,0.4,2.7,1.1,2.7,2.5v0c0,1.7-1.3,2.6-3.1,2.6C237.2,86,236,85.5,235,84.6z"
				/>
			<path fill="#445464" d="M245,79.2h-2.6v-1.7h7v1.7h-2.6v6.7H245V79.2z"/>
		</g>
		<g>
			<path fill="#445464" d="M250.4,118.3c-0.9,0-1.6-0.7-1.6-1.6V96.9c0-0.9,0.7-1.6,1.6-1.6h19.8c0.9,0,1.6,0.7,1.6,1.6
				c0,0.9-0.7,1.6-1.6,1.6h-18.1v18.1C252.1,117.6,251.3,118.3,250.4,118.3L250.4,118.3z"/>
		</g>
		<path fill="#445464" d="M250.4,120h-34c-1.8,0-3.3-1.5-3.3-3.3V49.1c0-1.8,1.5-3.3,3.3-3.3h53.8c1.8,0,3.3,1.5,3.3,3.3v47.8
			c0,0.9-0.3,1.7-1,2.3L252.7,119C252.1,119.6,251.3,120,250.4,120L250.4,120z M219.7,113.4H249l17.8-17.8V52.4h-47.2V113.4
			L219.7,113.4z"/>
		<g>
			<path fill="#445464" d="M246.8,63.2h-19.3c-0.9,0-1.6-0.7-1.6-1.6c0-0.9,0.7-1.6,1.6-1.6h19.3c0.9,0,1.6,0.7,1.6,1.6
				C248.5,62.5,247.8,63.2,246.8,63.2L246.8,63.2z"/>
		</g>
		<g>
			<path fill="#445464" d="M259.6,71.2h-32.1c-0.9,0-1.6-0.7-1.6-1.6c0-0.9,0.7-1.6,1.6-1.6h32.1c0.9,0,1.6,0.7,1.6,1.6
				C261.2,70.4,260.5,71.2,259.6,71.2L259.6,71.2z"/>
		</g>
		<g>
			<path fill="#445464" d="M240.9,95.1h-13.4c-0.9,0-1.6-0.7-1.6-1.6c0-0.9,0.7-1.6,1.6-1.6h13.4c0.9,0,1.6,0.7,1.6,1.6
				C242.6,94.3,241.8,95.1,240.9,95.1L240.9,95.1z"/>
		</g>
		<g>
			<path fill="#445464" d="M240.9,103.1h-13.4c-0.9,0-1.6-0.7-1.6-1.6c0-0.9,0.7-1.6,1.6-1.6h13.4c0.9,0,1.6,0.7,1.6,1.6
				C242.6,102.3,241.8,103.1,240.9,103.1L240.9,103.1z"/>
		</g>
	</g>
</g>
<polygon fill="#6CB2E2" fill-opacity="0.5" points="550.7,179.2 479.8,228.7 479.8,229.2 245.5,229.2 245.5,228.7 174.6,179.2 "/>
<g>
	<g>
		<rect x="299.3" y="25.3" fill="#FFFFFF" width="133.4" height="133.4"/>
		<g>
			<path fill="#445464" d="M335,139.1h4.2c1.2,0,2.1,0.3,2.7,0.9c0.5,0.5,0.8,1.2,0.8,2.1v0c0,1.5-0.8,2.4-2,2.8l2.2,3.2h-2.3
				l-2-2.9h0H337v2.9h-2V139.1z M339,143.5c1,0,1.5-0.5,1.5-1.3v0c0-0.9-0.6-1.3-1.6-1.3h-2v2.6H339z"/>
			<path fill="#445464" d="M343.8,146.8l1.2-1.4c0.8,0.7,1.7,1.1,2.7,1.1c0.8,0,1.3-0.3,1.3-0.9v0c0-0.5-0.3-0.8-1.8-1.2
				c-1.8-0.5-3-1-3-2.8v0c0-1.7,1.3-2.7,3.2-2.7c1.3,0,2.5,0.4,3.4,1.2l-1,1.5c-0.8-0.6-1.6-0.9-2.4-0.9c-0.8,0-1.2,0.4-1.2,0.8v0
				c0,0.6,0.4,0.8,2,1.2c1.8,0.5,2.9,1.1,2.9,2.7v0c0,1.8-1.4,2.8-3.3,2.8C346.2,148.3,344.8,147.8,343.8,146.8z"/>
			<path fill="#445464" d="M354.6,140.9h-2.8v-1.8h7.5v1.8h-2.8v7.3h-2V140.9z"/>
			<path fill="#445464" d="M364.8,139.1h2.2l2.4,3.8l2.4-3.8h2.2v9.1h-2v-5.9l-2.6,3.9h-0.1l-2.5-3.8v5.9h-2V139.1z"/>
			<path fill="#445464" d="M375.5,146.2L375.5,146.2c0-1.5,1.2-2.2,2.8-2.2c0.7,0,1.2,0.1,1.7,0.3v-0.1c0-0.8-0.5-1.3-1.5-1.3
				c-0.8,0-1.3,0.1-1.9,0.4l-0.5-1.5c0.8-0.3,1.5-0.6,2.7-0.6c1.1,0,1.9,0.3,2.4,0.8c0.5,0.5,0.8,1.3,0.8,2.2v4H380v-0.8
				c-0.5,0.5-1.1,0.9-2.1,0.9C376.6,148.3,375.5,147.5,375.5,146.2z M380,145.7v-0.4c-0.3-0.2-0.8-0.3-1.3-0.3c-0.8,0-1.4,0.3-1.4,1
				v0c0,0.5,0.4,0.8,1.1,0.8C379.4,146.9,380,146.4,380,145.7z"/>
			<path fill="#445464" d="M383.6,141.2h2v1c0.5-0.6,1.1-1.1,2.2-1.1c1.6,0,3.2,1.3,3.2,3.6v0c0,2.3-1.5,3.6-3.2,3.6
				c-1.1,0-1.7-0.5-2.2-1v3h-2V141.2z M388.9,144.7L388.9,144.7c0-1.2-0.8-2-1.7-2s-1.7,0.8-1.7,1.9v0c0,1.2,0.8,1.9,1.7,1.9
				S388.9,145.9,388.9,144.7z"/>
			<path fill="#445464" d="M391.8,147.2l0.8-1.3c0.8,0.5,1.5,0.8,2.2,0.8c0.6,0,0.8-0.2,0.8-0.5v0c0-0.4-0.7-0.6-1.4-0.8
				c-1-0.3-2.1-0.7-2.1-2.1v0c0-1.4,1.1-2.2,2.5-2.2c0.9,0,1.8,0.3,2.6,0.8l-0.8,1.4c-0.7-0.4-1.4-0.6-1.9-0.6
				c-0.5,0-0.7,0.2-0.7,0.5v0c0,0.4,0.7,0.6,1.4,0.8c1,0.3,2.1,0.8,2.1,2.1v0c0,1.5-1.2,2.2-2.7,2.2
				C393.8,148.3,392.8,148,391.8,147.2z"/>
		</g>
	</g>
	<g>
		<g>
			<path fill="#445464" d="M367.2,69.6h-32.8c-1.7,0-3.1-1.4-3.1-3.1c0-1.7,1.4-3.1,3.1-3.1h32.8c1.7,0,3.1,1.4,3.1,3.1
				C370.4,68.2,369,69.6,367.2,69.6L367.2,69.6z"/>
		</g>
		<g>
			<path fill="#445464" d="M377.1,55.5h-42.6c-1.7,0-3.1-1.4-3.1-3.1c0-1.7,1.4-3.1,3.1-3.1h42.6c1.7,0,3.1,1.4,3.1,3.1
				C380.2,54.1,378.8,55.5,377.1,55.5L377.1,55.5z"/>
		</g>
		<g>
			<path fill="#445464" d="M352.1,83.6h-17.7c-1.7,0-3.1-1.4-3.1-3.1c0-1.7,1.4-3.1,3.1-3.1h17.7c1.7,0,3.1,1.4,3.1,3.1
				C355.3,82.2,353.9,83.6,352.1,83.6L352.1,83.6z"/>
		</g>
		<g>
			<path fill="#445464" d="M352.1,97.7h-17.7c-1.7,0-3.1-1.4-3.1-3.1c0-1.7,1.4-3.1,3.1-3.1h17.7c1.7,0,3.1,1.4,3.1,3.1
				C355.3,96.3,353.9,97.7,352.1,97.7L352.1,97.7z"/>
		</g>
		<g>
			<path fill="#445464" d="M360.5,111.7h-26c-1.7,0-3.1-1.4-3.1-3.1c0-1.7,1.4-3.1,3.1-3.1h26c1.7,0,3.1,1.4,3.1,3.1
				C363.6,110.3,362.2,111.7,360.5,111.7L360.5,111.7z"/>
		</g>
		<g>
			<g>
				<path fill="#445464" d="M381,119.7c-0.5,0-1-0.2-1.4-0.5c-2.1-1.8-20.2-17.5-20.2-28.9c0-11.9,9.7-21.5,21.5-21.5
					c11.9,0,21.5,9.7,21.5,21.5c0,11.4-18.1,27.2-20.2,28.9C382,119.6,381.5,119.7,381,119.7L381,119.7z M381,73
					c-9.6,0-17.3,7.8-17.3,17.3c0,7.4,11.5,19.2,17.3,24.5c5.9-5.3,17.3-17.1,17.3-24.5C398.4,80.8,390.6,73,381,73L381,73z"/>
			</g>
			<ellipse fill="#445464" cx="380.8" cy="89.9" rx="15.5" ry="15.5"/>
			<g>
				<path fill="#445464" d="M380.8,115.3c-0.4,0-0.8-0.1-1.2-0.4c-1.7-1.5-17.1-14.8-17.1-24.5c0-10,8.2-18.2,18.2-18.2
					c10,0,18.2,8.2,18.2,18.2c0,9.6-15.3,23-17.1,24.5C381.6,115.2,381.2,115.3,380.8,115.3L380.8,115.3z M380.8,75.8
					c-8.1,0-14.7,6.6-14.7,14.7c0,6.2,9.7,16.3,14.7,20.7c5-4.5,14.7-14.5,14.7-20.7C395.5,82.4,388.9,75.8,380.8,75.8L380.8,75.8z"
					/>
			</g>
			<ellipse fill="#445464" cx="380.8" cy="105.3" rx="8.4" ry="8.4"/>
		</g>
		<g>
			<g>
				<path fill="#FFFFFF" d="M381,82.1c5,0,9.1,4.1,9.1,9.1c0,5-4.1,9.1-9.1,9.1c-5,0-9.1-4.1-9.1-9.1C371.9,86.2,376,82.1,381,82.1
					L381,82.1z M381,97.4c3.4,0,6.1-2.7,6.1-6.1c0-3.4-2.7-6.1-6.1-6.1c-3.4,0-6.1,2.7-6.1,6.1C374.9,94.6,377.7,97.4,381,97.4
					L381,97.4z"/>
			</g>
			<g>
				<g>
					<path fill="#FFFFFF" d="M386.7,95.5c0.4,0,0.8,0.1,1.1,0.4l2.1,2.1c0.6,0.6,0.6,1.6,0,2.1c-0.6,0.6-1.6,0.6-2.1,0l-2.1-2.1
						c-0.6-0.6-0.6-1.6,0-2.1C386,95.6,386.4,95.5,386.7,95.5L386.7,95.5z"/>
				</g>
				<g>
					<path fill="#FFFFFF" d="M373.2,81.9c0.4,0,0.8,0.1,1.1,0.4l2.5,2.5c0.6,0.6,0.6,1.6,0,2.1c-0.6,0.6-1.6,0.6-2.1,0l-2.5-2.5
						c-0.6-0.6-0.6-1.6,0-2.1C372.4,82,372.8,81.9,373.2,81.9L373.2,81.9z"/>
				</g>
			</g>
			<g>
				<g>
					<path fill="#FFFFFF" d="M375.3,95.5c0.4,0,0.8,0.1,1.1,0.4c0.6,0.6,0.6,1.6,0,2.1l-2.1,2.1c-0.6,0.6-1.6,0.6-2.1,0
						c-0.6-0.6-0.6-1.6,0-2.1l2.1-2.1C374.5,95.6,374.9,95.5,375.3,95.5L375.3,95.5z"/>
				</g>
				<g>
					<path fill="#FFFFFF" d="M388.9,81.9c0.4,0,0.8,0.1,1.1,0.4c0.6,0.6,0.6,1.6,0,2.1l-2.5,2.5c-0.6,0.6-1.6,0.6-2.1,0
						c-0.6-0.6-0.6-1.6,0-2.1l2.5-2.5C388.1,82,388.5,81.9,388.9,81.9L388.9,81.9z"/>
				</g>
			</g>
			<g>
				<g>
					<path fill="#FFFFFF" d="M381,97.9c0.8,0,1.5,0.7,1.5,1.5v3c0,0.8-0.7,1.5-1.5,1.5c-0.8,0-1.5-0.7-1.5-1.5v-3
						C379.5,98.5,380.2,97.9,381,97.9L381,97.9z"/>
				</g>
				<g>
					<path fill="#FFFFFF" d="M381,78.6L381,78.6c0.8,0,1.5,0.7,1.5,1.5l0,3.5c0,0.8-0.7,1.5-1.5,1.5l0,0c-0.8,0-1.5-0.7-1.5-1.5
						l0-3.5C379.5,79.3,380.2,78.6,381,78.6L381,78.6z"/>
				</g>
			</g>
			<g>
				<g>
					<path fill="#FFFFFF" d="M369.9,89.7h3c0.8,0,1.5,0.7,1.5,1.5c0,0.8-0.7,1.5-1.5,1.5h-3c-0.8,0-1.5-0.7-1.5-1.5
						C368.4,90.4,369.1,89.7,369.9,89.7L369.9,89.7z"/>
				</g>
				<g>
					<path fill="#FFFFFF" d="M388.6,89.7h3.5c0.8,0,1.5,0.7,1.5,1.5c0,0.8-0.7,1.5-1.5,1.5h-3.5c-0.8,0-1.5-0.7-1.5-1.5
						C387.1,90.4,387.7,89.7,388.6,89.7L388.6,89.7z"/>
				</g>
			</g>
		</g>
	</g>
</g>
<g>
	<ellipse fill="#6CB2E2" cx="362" cy="296.6" rx="60" ry="60.1"/>
	<g>
		<g>
			<g>
				<path fill="#FFFFFF" d="M364.8,292.4c5,0,9.1,4.1,9.1,9.1c0,5-4.1,9.1-9.1,9.1c-5,0-9.1-4.1-9.1-9.1
					C355.7,296.5,359.8,292.4,364.8,292.4L364.8,292.4z M364.8,307.6c3.3,0,6.1-2.7,6.1-6.1c0-3.3-2.7-6.1-6.1-6.1
					c-3.3,0-6.1,2.7-6.1,6.1C358.7,304.9,361.4,307.6,364.8,307.6L364.8,307.6z"/>
			</g>
			<g>
				<g>
					<path fill="#FFFFFF" d="M370.5,305.7c0.4,0,0.8,0.1,1.1,0.4l2.1,2.1c0.6,0.6,0.6,1.5,0,2.1c-0.6,0.6-1.5,0.6-2.1,0l-2.1-2.1
						c-0.6-0.6-0.6-1.5,0-2.1C369.7,305.9,370.1,305.7,370.5,305.7L370.5,305.7z"/>
				</g>
				<g>
					<path fill="#FFFFFF" d="M357,292.2c0.4,0,0.8,0.1,1.1,0.4l2.5,2.5c0.6,0.6,0.6,1.5,0,2.1c-0.6,0.6-1.5,0.6-2.1,0l-2.5-2.5
						c-0.6-0.6-0.6-1.5,0-2.1C356.2,292.3,356.6,292.2,357,292.2L357,292.2z"/>
				</g>
			</g>
			<g>
				<g>
					<path fill="#FFFFFF" d="M359.1,305.7c0.4,0,0.8,0.1,1.1,0.4c0.6,0.6,0.6,1.5,0,2.1l-2.1,2.1c-0.6,0.6-1.5,0.6-2.1,0
						c-0.6-0.6-0.6-1.5,0-2.1l2.1-2.1C358.3,305.9,358.7,305.7,359.1,305.7L359.1,305.7z"/>
				</g>
				<g>
					<path fill="#FFFFFF" d="M372.6,292.2c0.4,0,0.8,0.1,1.1,0.4c0.6,0.6,0.6,1.5,0,2.1l-2.5,2.5c-0.6,0.6-1.5,0.6-2.1,0
						c-0.6-0.6-0.6-1.5,0-2.1l2.5-2.5C371.8,292.3,372.2,292.2,372.6,292.2L372.6,292.2z"/>
				</g>
			</g>
			<g>
				<g>
					<path fill="#FFFFFF" d="M364.8,308.1c0.8,0,1.5,0.7,1.5,1.5v3c0,0.8-0.7,1.5-1.5,1.5c-0.8,0-1.5-0.7-1.5-1.5v-3
						C363.3,308.7,363.9,308.1,364.8,308.1L364.8,308.1z"/>
				</g>
				<g>
					<path fill="#FFFFFF" d="M364.8,289L364.8,289c0.8,0,1.5,0.7,1.5,1.5l0,3.5c0,0.8-0.7,1.5-1.5,1.5l0,0c-0.8,0-1.5-0.7-1.5-1.5
						l0-3.5C363.3,289.6,363.9,289,364.8,289L364.8,289z"/>
				</g>
			</g>
			<g>
				<g>
					<path fill="#FFFFFF" d="M353.7,300h3c0.8,0,1.5,0.7,1.5,1.5c0,0.8-0.7,1.5-1.5,1.5h-3c-0.8,0-1.5-0.7-1.5-1.5
						C352.2,300.7,352.9,300,353.7,300L353.7,300z"/>
				</g>
				<g>
					<path fill="#FFFFFF" d="M372.3,300h3.5c0.8,0,1.5,0.7,1.5,1.5c0,0.8-0.7,1.5-1.5,1.5h-3.5c-0.8,0-1.5-0.7-1.5-1.5
						C370.8,300.7,371.5,300,372.3,300L372.3,300z"/>
				</g>
			</g>
		</g>
		<g>
			<g>
				<path fill="#FFFFFF" d="M343.3,278.3c4.6,0,8.4,3.8,8.4,8.4c0,4.6-3.8,8.4-8.4,8.4c-4.6,0-8.4-3.8-8.4-8.4
					C334.9,282.1,338.7,278.3,343.3,278.3L343.3,278.3z M343.3,292.3c3.1,0,5.6-2.5,5.6-5.6c0-3.1-2.5-5.6-5.6-5.6
					c-3.1,0-5.6,2.5-5.6,5.6C337.7,289.8,340.2,292.3,343.3,292.3L343.3,292.3z"/>
			</g>
			<g>
				<g>
					<path fill="#FFFFFF" d="M348.6,290.6c0.4,0,0.7,0.1,1,0.4l2,2c0.5,0.5,0.5,1.4,0,2c-0.5,0.5-1.4,0.5-2,0l-2-2
						c-0.5-0.5-0.5-1.4,0-2C347.9,290.7,348.3,290.6,348.6,290.6L348.6,290.6z"/>
				</g>
				<g>
					<path fill="#FFFFFF" d="M336.1,278c0.4,0,0.7,0.1,1,0.4l2.3,2.3c0.5,0.5,0.5,1.4,0,2c-0.5,0.5-1.4,0.5-2,0l-2.3-2.3
						c-0.5-0.5-0.5-1.4,0-2C335.4,278.2,335.7,278,336.1,278L336.1,278z"/>
				</g>
			</g>
			<g>
				<g>
					<path fill="#FFFFFF" d="M338,290.6c0.4,0,0.7,0.1,1,0.4c0.5,0.5,0.5,1.4,0,2l-2,2c-0.5,0.5-1.4,0.5-2,0c-0.5-0.5-0.5-1.4,0-2
						l2-2C337.3,290.7,337.7,290.6,338,290.6L338,290.6z"/>
				</g>
				<g>
					<path fill="#FFFFFF" d="M350.6,278c0.4,0,0.7,0.1,1,0.4c0.5,0.5,0.5,1.4,0,2l-2.3,2.3c-0.5,0.5-1.4,0.5-2,0
						c-0.5-0.5-0.5-1.4,0-2l2.3-2.3C349.9,278.2,350.2,278,350.6,278L350.6,278z"/>
				</g>
			</g>
			<g>
				<g>
					<path fill="#FFFFFF" d="M343.3,292.8c0.8,0,1.4,0.6,1.4,1.4v2.8c0,0.8-0.6,1.4-1.4,1.4c-0.8,0-1.4-0.6-1.4-1.4v-2.8
						C341.9,293.4,342.6,292.8,343.3,292.8L343.3,292.8z"/>
				</g>
				<g>
					<path fill="#FFFFFF" d="M343.3,275L343.3,275c0.8,0,1.4,0.6,1.4,1.4l0,3.3c0,0.8-0.6,1.4-1.4,1.4l0,0c-0.8,0-1.4-0.6-1.4-1.4
						l0-3.3C341.9,275.7,342.6,275,343.3,275L343.3,275z"/>
				</g>
			</g>
			<g>
				<g>
					<path fill="#FFFFFF" d="M333.1,285.3h2.8c0.8,0,1.4,0.6,1.4,1.4c0,0.8-0.6,1.4-1.4,1.4h-2.8c-0.8,0-1.4-0.6-1.4-1.4
						C331.7,285.9,332.3,285.3,333.1,285.3L333.1,285.3z"/>
				</g>
				<g>
					<path fill="#FFFFFF" d="M350.3,285.3h3.3c0.8,0,1.4,0.6,1.4,1.4c0,0.8-0.6,1.4-1.4,1.4h-3.3c-0.8,0-1.4-0.6-1.4-1.4
						C348.9,285.9,349.5,285.3,350.3,285.3L350.3,285.3z"/>
				</g>
			</g>
		</g>
		<g>
			<g>
				<path fill="#FFFFFF" d="M370.2,257.6c7.2,0,13,5.9,13,13c0,7.2-5.9,13-13,13c-7.2,0-13-5.9-13-13
					C357.1,263.5,363,257.6,370.2,257.6L370.2,257.6z M370.2,279.4c4.8,0,8.7-3.9,8.7-8.7c0-4.8-3.9-8.7-8.7-8.7
					c-4.8,0-8.7,3.9-8.7,8.7C361.5,275.5,365.4,279.4,370.2,279.4L370.2,279.4z"/>
			</g>
			<g>
				<g>
					<path fill="#FFFFFF" d="M378.4,276.7c0.6,0,1.1,0.2,1.5,0.6l3,3c0.8,0.8,0.8,2.2,0,3.1c-0.8,0.8-2.2,0.8-3.1,0l-3-3
						c-0.8-0.8-0.8-2.2,0-3.1C377.3,276.9,377.8,276.7,378.4,276.7L378.4,276.7z"/>
				</g>
				<g>
					<path fill="#FFFFFF" d="M358.9,257.2c0.6,0,1.1,0.2,1.5,0.6l3.6,3.6c0.8,0.9,0.8,2.2,0,3.1c-0.8,0.8-2.2,0.8-3.1,0l-3.6-3.6
						c-0.8-0.9-0.8-2.2,0-3.1C357.8,257.5,358.4,257.2,358.9,257.2L358.9,257.2z"/>
				</g>
			</g>
			<g>
				<g>
					<path fill="#FFFFFF" d="M362,276.7c0.6,0,1.1,0.2,1.5,0.6c0.8,0.8,0.8,2.2,0,3.1l-3,3c-0.8,0.8-2.2,0.8-3.1,0
						c-0.8-0.8-0.8-2.2,0-3.1l3-3C360.9,276.9,361.4,276.7,362,276.7L362,276.7z"/>
				</g>
				<g>
					<path fill="#FFFFFF" d="M381.4,257.2c0.6,0,1.1,0.2,1.5,0.6c0.8,0.8,0.8,2.2,0,3.1l-3.6,3.6c-0.8,0.8-2.2,0.8-3.1,0
						c-0.8-0.8-0.8-2.2,0-3.1l3.6-3.6C380.3,257.5,380.9,257.2,381.4,257.2L381.4,257.2z"/>
				</g>
			</g>
			<g>
				<g>
					<path fill="#FFFFFF" d="M370.2,280.1c1.2,0,2.2,1,2.2,2.2v4.3c0,1.2-1,2.2-2.2,2.2c-1.2,0-2.2-1-2.2-2.2v-4.3
						C368,281.1,369,280.1,370.2,280.1L370.2,280.1z"/>
				</g>
				<g>
					<path fill="#FFFFFF" d="M370.2,252.6L370.2,252.6c1.2,0,2.2,1,2.2,2.2l0,5.1c0,1.2-1,2.2-2.2,2.2l0,0c-1.2,0-2.2-1-2.2-2.2
						l0-5.1C368,253.6,369,252.6,370.2,252.6L370.2,252.6z"/>
				</g>
			</g>
			<g>
				<g>
					<path fill="#FFFFFF" d="M354.3,268.5h4.3c1.2,0,2.2,1,2.2,2.2c0,1.2-1,2.2-2.2,2.2h-4.3c-1.2,0-2.2-1-2.2-2.2
						C352.1,269.4,353.1,268.5,354.3,268.5L354.3,268.5z"/>
				</g>
				<g>
					<path fill="#FFFFFF" d="M381,268.5h5.1c1.2,0,2.2,1,2.2,2.2c0,1.2-1,2.2-2.2,2.2H381c-1.2,0-2.2-1-2.2-2.2
						C378.8,269.4,379.8,268.5,381,268.5L381,268.5z"/>
				</g>
			</g>
		</g>
	</g>
	<g>
		<path fill="#FFFFFF" d="M331.6,334.5l1.6-2c1.1,0.9,2.3,1.5,3.8,1.5c1.1,0,1.8-0.4,1.8-1.2v0c0-0.7-0.4-1.1-2.5-1.6
			c-2.5-0.6-4.2-1.4-4.2-3.9v0c0-2.3,1.8-3.8,4.4-3.8c1.8,0,3.4,0.6,4.7,1.6l-1.4,2.1c-1.1-0.8-2.2-1.2-3.3-1.2s-1.6,0.5-1.6,1.1v0
			c0,0.8,0.5,1.1,2.7,1.7c2.6,0.7,4,1.6,4,3.8v0c0,2.5-1.9,3.9-4.6,3.9C335,336.6,333.1,335.9,331.6,334.5z"/>
		<path fill="#FFFFFF" d="M343.7,326.7h2.7v1.4c0.7-0.9,1.6-1.6,3-1.6c2.3,0,4.4,1.8,4.4,5v0c0,3.2-2.1,5-4.4,5
			c-1.5,0-2.4-0.7-3-1.4v4.1h-2.7V326.7z M351.1,331.6L351.1,331.6c0-1.6-1.1-2.7-2.4-2.7s-2.3,1.1-2.3,2.7v0c0,1.6,1.1,2.7,2.3,2.7
			S351.1,333.2,351.1,331.6z"/>
		<path fill="#FFFFFF" d="M355.8,323.2h2.7v4.9c0.6-0.8,1.4-1.5,2.8-1.5c2.1,0,3.3,1.4,3.3,3.6v6.2h-2.7V331c0-1.3-0.6-2-1.7-2
			c-1,0-1.7,0.7-1.7,2v5.4h-2.7V323.2z"/>
		<path fill="#FFFFFF" d="M367.1,323.2h2.9v2.4h-2.9V323.2z M367.2,326.7h2.7v9.7h-2.7V326.7z"/>
		<path fill="#FFFFFF" d="M372.5,326.7h2.7v1.4c0.6-0.8,1.4-1.5,2.8-1.5c2.1,0,3.3,1.4,3.3,3.6v6.2h-2.7V331c0-1.3-0.6-2-1.7-2
			c-1,0-1.7,0.7-1.7,2v5.4h-2.7V326.7z"/>
		<path fill="#FFFFFF" d="M386.3,331.5l-3.3-4.8h2.9l1.8,2.8l1.8-2.8h2.9l-3.3,4.7l3.4,5h-2.9l-1.9-3l-1.9,3h-2.9L386.3,331.5z"/>
	</g>
</g>
<g>
	<polyline fill="none" stroke="#80888D" stroke-width="4" stroke-miterlimit="10" points="119.3,439 119.3,397.2 361,397.2 361,363 
			"/>
	<line fill="none" stroke="#80888D" stroke-width="4" stroke-miterlimit="10" x1="239.9" y1="439" x2="239.9" y2="397.2"/>
	<polyline fill="none" stroke="#80888D" stroke-width="4" stroke-miterlimit="10" points="599.9,439 599.9,397.2 480.9,397.2 
		361,397.2 361,439 	"/>
	<line fill="none" stroke="#80888D" stroke-width="4" stroke-miterlimit="10" x1="480.9" y1="439" x2="480.9" y2="397.2"/>
</g>
<g>
	<g>
		<line fill="none" stroke="#80888D" stroke-width="4" stroke-miterlimit="10" x1="134.4" y1="296.6" x2="284.5" y2="296.6"/>
		<g>
			<polygon fill="#80888D" points="282.2,304.5 296,296.6 282.2,288.6 			"/>
		</g>
	</g>
</g>
<g>
	<g>
		<line fill="none" stroke="#80888D" stroke-width="4" stroke-miterlimit="10" x1="91" y1="187.1" x2="91" y2="243.8"/>
		<g>
			<polygon fill="#80888D" points="83,189.5 91,175.7 99,189.5 			"/>
		</g>
		<g>
			<polygon fill="#80888D" points="83,241.4 91,255.2 99,241.4 			"/>
		</g>
	</g>
</g>
<g>
	<g>
		<g>
			<path fill="#7F888D" d="M599.9,440.6c-0.1,0-0.3,0-0.4-0.1c-0.6-0.5-5.9-5.1-5.9-8.5c0-3.5,2.8-6.3,6.3-6.3
				c3.5,0,6.3,2.8,6.3,6.3c0,3.3-5.3,8-5.9,8.5C600.2,440.5,600.1,440.6,599.9,440.6L599.9,440.6z M599.9,426.9
				c-2.8,0-5.1,2.3-5.1,5.1c0,2.2,3.4,5.6,5.1,7.2c1.7-1.5,5.1-5,5.1-7.2C605,429.1,602.7,426.9,599.9,426.9L599.9,426.9z"/>
		</g>
		<ellipse fill="#7F888D" cx="599.9" cy="431.8" rx="4.5" ry="4.5"/>
		<g>
			<path fill="#7F888D" d="M599.9,439.3c-0.1,0-0.2,0-0.3-0.1c-0.5-0.4-5-4.3-5-7.2c0-2.9,2.4-5.3,5.3-5.3c2.9,0,5.3,2.4,5.3,5.3
				c0,2.8-4.5,6.7-5,7.2C600.1,439.2,600,439.3,599.9,439.3L599.9,439.3z M599.9,427.7c-2.4,0-4.3,1.9-4.3,4.3
				c0,1.8,2.8,4.8,4.3,6.1c1.5-1.3,4.3-4.2,4.3-6.1C604.2,429.6,602.2,427.7,599.9,427.7L599.9,427.7z"/>
		</g>
		<circle fill="#7F888D" cx="599.9" cy="436.3" r="2.5"/>
	</g>
	<g>
		<g>
			<path fill="#FFFFFF" d="M599.9,429.5c1.5,0,2.7,1.2,2.7,2.7c0,1.5-1.2,2.7-2.7,2.7c-1.5,0-2.7-1.2-2.7-2.7
				C597.3,430.7,598.5,429.5,599.9,429.5L599.9,429.5z M599.9,434c1,0,1.8-0.8,1.8-1.8c0-1-0.8-1.8-1.8-1.8c-1,0-1.8,0.8-1.8,1.8
				C598.1,433.2,598.9,434,599.9,434L599.9,434z"/>
		</g>
		<g>
			<g>
				<path fill="#FFFFFF" d="M601.6,433.4c0.1,0,0.2,0,0.3,0.1l0.6,0.6c0.2,0.2,0.2,0.5,0,0.6s-0.5,0.2-0.6,0l-0.6-0.6
					c-0.2-0.2-0.2-0.5,0-0.6C601.4,433.5,601.5,433.4,601.6,433.4L601.6,433.4z"/>
			</g>
			<g>
				<path fill="#FFFFFF" d="M597.6,429.5c0.1,0,0.2,0,0.3,0.1l0.7,0.7c0.2,0.2,0.2,0.5,0,0.6c-0.2,0.2-0.5,0.2-0.6,0l-0.7-0.7
					c-0.2-0.2-0.2-0.5,0-0.6C597.4,429.5,597.5,429.5,597.6,429.5L597.6,429.5z"/>
			</g>
		</g>
		<g>
			<g>
				<path fill="#FFFFFF" d="M598.3,433.4c0.1,0,0.2,0,0.3,0.1c0.2,0.2,0.2,0.5,0,0.6l-0.6,0.6c-0.2,0.2-0.5,0.2-0.6,0
					c-0.2-0.2-0.2-0.5,0-0.6l0.6-0.6C598,433.5,598.1,433.4,598.3,433.4L598.3,433.4z"/>
			</g>
			<g>
				<path fill="#FFFFFF" d="M602.2,429.5c0.1,0,0.2,0,0.3,0.1c0.2,0.2,0.2,0.5,0,0.6l-0.7,0.7c-0.2,0.2-0.5,0.2-0.6,0
					c-0.2-0.2-0.2-0.5,0-0.6l0.7-0.7C602,429.5,602.1,429.5,602.2,429.5L602.2,429.5z"/>
			</g>
		</g>
		<g>
			<g>
				<path fill="#FFFFFF" d="M599.9,434.1c0.2,0,0.4,0.2,0.4,0.4v0.9c0,0.2-0.2,0.4-0.4,0.4c-0.2,0-0.4-0.2-0.4-0.4v-0.9
					C599.5,434.3,599.7,434.1,599.9,434.1L599.9,434.1z"/>
			</g>
			<g>
				<path fill="#FFFFFF" d="M599.9,428.5L599.9,428.5c0.2,0,0.4,0.2,0.4,0.4l0,1c0,0.2-0.2,0.4-0.4,0.4l0,0c-0.2,0-0.4-0.2-0.4-0.4
					l0-1C599.5,428.7,599.7,428.5,599.9,428.5L599.9,428.5z"/>
			</g>
		</g>
		<g>
			<g>
				<path fill="#FFFFFF" d="M596.7,431.8h0.9c0.2,0,0.4,0.2,0.4,0.4c0,0.2-0.2,0.4-0.4,0.4h-0.9c-0.2,0-0.4-0.2-0.4-0.4
					C596.2,432,596.4,431.8,596.7,431.8L596.7,431.8z"/>
			</g>
			<g>
				<path fill="#FFFFFF" d="M602.1,431.8h1c0.2,0,0.4,0.2,0.4,0.4c0,0.2-0.2,0.4-0.4,0.4h-1c-0.2,0-0.4-0.2-0.4-0.4
					C601.7,432,601.9,431.8,602.1,431.8L602.1,431.8z"/>
			</g>
		</g>
	</g>
</g>
<g>
	<g>
		<g>
			<path fill="#7F888D" d="M480.9,440.6c-0.1,0-0.3,0-0.4-0.1c-0.6-0.5-5.9-5.1-5.9-8.5c0-3.5,2.8-6.3,6.3-6.3
				c3.5,0,6.3,2.8,6.3,6.3c0,3.3-5.3,8-5.9,8.5C481.2,440.5,481.1,440.6,480.9,440.6L480.9,440.6z M480.9,426.9
				c-2.8,0-5.1,2.3-5.1,5.1c0,2.2,3.4,5.6,5.1,7.2c1.7-1.5,5.1-5,5.1-7.2C486,429.1,483.7,426.9,480.9,426.9L480.9,426.9z"/>
		</g>
		<ellipse fill="#7F888D" cx="480.9" cy="431.8" rx="4.5" ry="4.5"/>
		<g>
			<path fill="#7F888D" d="M480.9,439.3c-0.1,0-0.2,0-0.3-0.1c-0.5-0.4-5-4.3-5-7.2c0-2.9,2.4-5.3,5.3-5.3c2.9,0,5.3,2.4,5.3,5.3
				c0,2.8-4.5,6.7-5,7.2C481.1,439.2,481,439.3,480.9,439.3L480.9,439.3z M480.9,427.7c-2.4,0-4.3,1.9-4.3,4.3
				c0,1.8,2.8,4.8,4.3,6.1c1.5-1.3,4.3-4.2,4.3-6.1C485.2,429.6,483.2,427.7,480.9,427.7L480.9,427.7z"/>
		</g>
		<circle fill="#7F888D" cx="480.9" cy="436.3" r="2.5"/>
	</g>
	<g>
		<g>
			<path fill="#FFFFFF" d="M480.9,429.5c1.5,0,2.7,1.2,2.7,2.7c0,1.5-1.2,2.7-2.7,2.7c-1.5,0-2.7-1.2-2.7-2.7
				C478.3,430.7,479.5,429.5,480.9,429.5L480.9,429.5z M480.9,434c1,0,1.8-0.8,1.8-1.8c0-1-0.8-1.8-1.8-1.8c-1,0-1.8,0.8-1.8,1.8
				C479.1,433.2,479.9,434,480.9,434L480.9,434z"/>
		</g>
		<g>
			<g>
				<path fill="#FFFFFF" d="M482.6,433.4c0.1,0,0.2,0,0.3,0.1l0.6,0.6c0.2,0.2,0.2,0.5,0,0.6c-0.2,0.2-0.5,0.2-0.6,0l-0.6-0.6
					c-0.2-0.2-0.2-0.5,0-0.6C482.4,433.5,482.5,433.4,482.6,433.4L482.6,433.4z"/>
			</g>
			<g>
				<path fill="#FFFFFF" d="M478.6,429.5c0.1,0,0.2,0,0.3,0.1l0.7,0.7c0.2,0.2,0.2,0.5,0,0.6c-0.2,0.2-0.5,0.2-0.6,0l-0.7-0.7
					c-0.2-0.2-0.2-0.5,0-0.6C478.4,429.5,478.5,429.5,478.6,429.5L478.6,429.5z"/>
			</g>
		</g>
		<g>
			<g>
				<path fill="#FFFFFF" d="M479.3,433.4c0.1,0,0.2,0,0.3,0.1c0.2,0.2,0.2,0.5,0,0.6l-0.6,0.6c-0.2,0.2-0.5,0.2-0.6,0
					c-0.2-0.2-0.2-0.5,0-0.6l0.6-0.6C479,433.5,479.1,433.4,479.3,433.4L479.3,433.4z"/>
			</g>
			<g>
				<path fill="#FFFFFF" d="M483.2,429.5c0.1,0,0.2,0,0.3,0.1c0.2,0.2,0.2,0.5,0,0.6l-0.7,0.7c-0.2,0.2-0.5,0.2-0.6,0
					c-0.2-0.2-0.2-0.5,0-0.6l0.7-0.7C483,429.5,483.1,429.5,483.2,429.5L483.2,429.5z"/>
			</g>
		</g>
		<g>
			<g>
				<path fill="#FFFFFF" d="M480.9,434.1c0.2,0,0.4,0.2,0.4,0.4v0.9c0,0.2-0.2,0.4-0.4,0.4c-0.2,0-0.4-0.2-0.4-0.4v-0.9
					C480.5,434.3,480.7,434.1,480.9,434.1L480.9,434.1z"/>
			</g>
			<g>
				<path fill="#FFFFFF" d="M480.9,428.5L480.9,428.5c0.2,0,0.4,0.2,0.4,0.4l0,1c0,0.2-0.2,0.4-0.4,0.4l0,0c-0.2,0-0.4-0.2-0.4-0.4
					l0-1C480.5,428.7,480.7,428.5,480.9,428.5L480.9,428.5z"/>
			</g>
		</g>
		<g>
			<g>
				<path fill="#FFFFFF" d="M477.7,431.8h0.9c0.2,0,0.4,0.2,0.4,0.4c0,0.2-0.2,0.4-0.4,0.4h-0.9c-0.2,0-0.4-0.2-0.4-0.4
					C477.2,432,477.4,431.8,477.7,431.8L477.7,431.8z"/>
			</g>
			<g>
				<path fill="#FFFFFF" d="M483.1,431.8h1c0.2,0,0.4,0.2,0.4,0.4c0,0.2-0.2,0.4-0.4,0.4h-1c-0.2,0-0.4-0.2-0.4-0.4
					C482.7,432,482.9,431.8,483.1,431.8L483.1,431.8z"/>
			</g>
		</g>
	</g>
</g>
<g>
	<g>
		<g>
			<path fill="#7F888D" d="M360.9,440.6c-0.1,0-0.3,0-0.4-0.1c-0.6-0.5-5.9-5.1-5.9-8.5c0-3.5,2.8-6.3,6.3-6.3
				c3.5,0,6.3,2.8,6.3,6.3c0,3.3-5.3,8-5.9,8.5C361.2,440.5,361.1,440.6,360.9,440.6L360.9,440.6z M360.9,426.9
				c-2.8,0-5.1,2.3-5.1,5.1c0,2.2,3.4,5.6,5.1,7.2c1.7-1.5,5.1-5,5.1-7.2C366,429.1,363.7,426.9,360.9,426.9L360.9,426.9z"/>
		</g>
		<ellipse fill="#7F888D" cx="360.9" cy="431.8" rx="4.5" ry="4.5"/>
		<g>
			<path fill="#7F888D" d="M360.9,439.3c-0.1,0-0.2,0-0.3-0.1c-0.5-0.4-5-4.3-5-7.2c0-2.9,2.4-5.3,5.3-5.3c2.9,0,5.3,2.4,5.3,5.3
				c0,2.8-4.5,6.7-5,7.2C361.1,439.2,361,439.3,360.9,439.3L360.9,439.3z M360.9,427.7c-2.4,0-4.3,1.9-4.3,4.3
				c0,1.8,2.8,4.8,4.3,6.1c1.5-1.3,4.3-4.2,4.3-6.1C365.2,429.6,363.2,427.7,360.9,427.7L360.9,427.7z"/>
		</g>
		<circle fill="#7F888D" cx="360.9" cy="436.3" r="2.5"/>
	</g>
	<g>
		<g>
			<path fill="#FFFFFF" d="M360.9,429.5c1.5,0,2.7,1.2,2.7,2.7c0,1.5-1.2,2.7-2.7,2.7c-1.5,0-2.7-1.2-2.7-2.7
				C358.3,430.7,359.5,429.5,360.9,429.5L360.9,429.5z M360.9,434c1,0,1.8-0.8,1.8-1.8c0-1-0.8-1.8-1.8-1.8c-1,0-1.8,0.8-1.8,1.8
				C359.1,433.2,359.9,434,360.9,434L360.9,434z"/>
		</g>
		<g>
			<g>
				<path fill="#FFFFFF" d="M362.6,433.4c0.1,0,0.2,0,0.3,0.1l0.6,0.6c0.2,0.2,0.2,0.5,0,0.6c-0.2,0.2-0.5,0.2-0.6,0l-0.6-0.6
					c-0.2-0.2-0.2-0.5,0-0.6C362.4,433.5,362.5,433.4,362.6,433.4L362.6,433.4z"/>
			</g>
			<g>
				<path fill="#FFFFFF" d="M358.6,429.5c0.1,0,0.2,0,0.3,0.1l0.7,0.7c0.2,0.2,0.2,0.5,0,0.6c-0.2,0.2-0.5,0.2-0.6,0l-0.7-0.7
					c-0.2-0.2-0.2-0.5,0-0.6C358.4,429.5,358.5,429.5,358.6,429.5L358.6,429.5z"/>
			</g>
		</g>
		<g>
			<g>
				<path fill="#FFFFFF" d="M359.3,433.4c0.1,0,0.2,0,0.3,0.1c0.2,0.2,0.2,0.5,0,0.6l-0.6,0.6c-0.2,0.2-0.5,0.2-0.6,0
					c-0.2-0.2-0.2-0.5,0-0.6l0.6-0.6C359,433.5,359.1,433.4,359.3,433.4L359.3,433.4z"/>
			</g>
			<g>
				<path fill="#FFFFFF" d="M363.2,429.5c0.1,0,0.2,0,0.3,0.1c0.2,0.2,0.2,0.5,0,0.6l-0.7,0.7c-0.2,0.2-0.5,0.2-0.6,0
					c-0.2-0.2-0.2-0.5,0-0.6l0.7-0.7C363,429.5,363.1,429.5,363.2,429.5L363.2,429.5z"/>
			</g>
		</g>
		<g>
			<g>
				<path fill="#FFFFFF" d="M360.9,434.1c0.2,0,0.4,0.2,0.4,0.4v0.9c0,0.2-0.2,0.4-0.4,0.4c-0.2,0-0.4-0.2-0.4-0.4v-0.9
					C360.5,434.3,360.7,434.1,360.9,434.1L360.9,434.1z"/>
			</g>
			<g>
				<path fill="#FFFFFF" d="M360.9,428.5L360.9,428.5c0.2,0,0.4,0.2,0.4,0.4l0,1c0,0.2-0.2,0.4-0.4,0.4l0,0c-0.2,0-0.4-0.2-0.4-0.4
					l0-1C360.5,428.7,360.7,428.5,360.9,428.5L360.9,428.5z"/>
			</g>
		</g>
		<g>
			<g>
				<path fill="#FFFFFF" d="M357.7,431.8h0.9c0.2,0,0.4,0.2,0.4,0.4c0,0.2-0.2,0.4-0.4,0.4h-0.9c-0.2,0-0.4-0.2-0.4-0.4
					C357.2,432,357.4,431.8,357.7,431.8L357.7,431.8z"/>
			</g>
			<g>
				<path fill="#FFFFFF" d="M363.1,431.8h1c0.2,0,0.4,0.2,0.4,0.4c0,0.2-0.2,0.4-0.4,0.4h-1c-0.2,0-0.4-0.2-0.4-0.4
					C362.7,432,362.9,431.8,363.1,431.8L363.1,431.8z"/>
			</g>
		</g>
	</g>
</g>
<g>
	<g>
		<g>
			<path fill="#7F888D" d="M239.9,440.6c-0.1,0-0.3,0-0.4-0.1c-0.6-0.5-5.9-5.1-5.9-8.5c0-3.5,2.8-6.3,6.3-6.3
				c3.5,0,6.3,2.8,6.3,6.3c0,3.3-5.3,8-5.9,8.5C240.2,440.5,240.1,440.6,239.9,440.6L239.9,440.6z M239.9,426.9
				c-2.8,0-5.1,2.3-5.1,5.1c0,2.2,3.4,5.6,5.1,7.2c1.7-1.5,5.1-5,5.1-7.2C245,429.1,242.7,426.9,239.9,426.9L239.9,426.9z"/>
		</g>
		<ellipse fill="#7F888D" cx="239.9" cy="431.8" rx="4.5" ry="4.5"/>
		<g>
			<path fill="#7F888D" d="M239.9,439.3c-0.1,0-0.2,0-0.3-0.1c-0.5-0.4-5-4.3-5-7.2c0-2.9,2.4-5.3,5.3-5.3c2.9,0,5.3,2.4,5.3,5.3
				c0,2.8-4.5,6.7-5,7.2C240.1,439.2,240,439.3,239.9,439.3L239.9,439.3z M239.9,427.7c-2.4,0-4.3,1.9-4.3,4.3
				c0,1.8,2.8,4.8,4.3,6.1c1.5-1.3,4.3-4.2,4.3-6.1C244.2,429.6,242.2,427.7,239.9,427.7L239.9,427.7z"/>
		</g>
		<circle fill="#7F888D" cx="239.9" cy="436.3" r="2.5"/>
	</g>
	<g>
		<g>
			<path fill="#FFFFFF" d="M239.9,429.5c1.5,0,2.7,1.2,2.7,2.7c0,1.5-1.2,2.7-2.7,2.7c-1.5,0-2.7-1.2-2.7-2.7
				C237.3,430.7,238.5,429.5,239.9,429.5L239.9,429.5z M239.9,434c1,0,1.8-0.8,1.8-1.8c0-1-0.8-1.8-1.8-1.8c-1,0-1.8,0.8-1.8,1.8
				C238.1,433.2,238.9,434,239.9,434L239.9,434z"/>
		</g>
		<g>
			<g>
				<path fill="#FFFFFF" d="M241.6,433.4c0.1,0,0.2,0,0.3,0.1l0.6,0.6c0.2,0.2,0.2,0.5,0,0.6s-0.5,0.2-0.6,0l-0.6-0.6
					c-0.2-0.2-0.2-0.5,0-0.6C241.4,433.5,241.5,433.4,241.6,433.4L241.6,433.4z"/>
			</g>
			<g>
				<path fill="#FFFFFF" d="M237.6,429.5c0.1,0,0.2,0,0.3,0.1l0.7,0.7c0.2,0.2,0.2,0.5,0,0.6c-0.2,0.2-0.5,0.2-0.6,0l-0.7-0.7
					c-0.2-0.2-0.2-0.5,0-0.6C237.4,429.5,237.5,429.5,237.6,429.5L237.6,429.5z"/>
			</g>
		</g>
		<g>
			<g>
				<path fill="#FFFFFF" d="M238.3,433.4c0.1,0,0.2,0,0.3,0.1c0.2,0.2,0.2,0.5,0,0.6l-0.6,0.6c-0.2,0.2-0.5,0.2-0.6,0
					c-0.2-0.2-0.2-0.5,0-0.6l0.6-0.6C238,433.5,238.1,433.4,238.3,433.4L238.3,433.4z"/>
			</g>
			<g>
				<path fill="#FFFFFF" d="M242.2,429.5c0.1,0,0.2,0,0.3,0.1c0.2,0.2,0.2,0.5,0,0.6l-0.7,0.7c-0.2,0.2-0.5,0.2-0.6,0
					c-0.2-0.2-0.2-0.5,0-0.6l0.7-0.7C242,429.5,242.1,429.5,242.2,429.5L242.2,429.5z"/>
			</g>
		</g>
		<g>
			<g>
				<path fill="#FFFFFF" d="M239.9,434.1c0.2,0,0.4,0.2,0.4,0.4v0.9c0,0.2-0.2,0.4-0.4,0.4c-0.2,0-0.4-0.2-0.4-0.4v-0.9
					C239.5,434.3,239.7,434.1,239.9,434.1L239.9,434.1z"/>
			</g>
			<g>
				<path fill="#FFFFFF" d="M239.9,428.5L239.9,428.5c0.2,0,0.4,0.2,0.4,0.4l0,1c0,0.2-0.2,0.4-0.4,0.4l0,0c-0.2,0-0.4-0.2-0.4-0.4
					l0-1C239.5,428.7,239.7,428.5,239.9,428.5L239.9,428.5z"/>
			</g>
		</g>
		<g>
			<g>
				<path fill="#FFFFFF" d="M236.7,431.8h0.9c0.2,0,0.4,0.2,0.4,0.4c0,0.2-0.2,0.4-0.4,0.4h-0.9c-0.2,0-0.4-0.2-0.4-0.4
					C236.2,432,236.4,431.8,236.7,431.8L236.7,431.8z"/>
			</g>
			<g>
				<path fill="#FFFFFF" d="M242.1,431.8h1c0.2,0,0.4,0.2,0.4,0.4c0,0.2-0.2,0.4-0.4,0.4h-1c-0.2,0-0.4-0.2-0.4-0.4
					C241.7,432,241.9,431.8,242.1,431.8L242.1,431.8z"/>
			</g>
		</g>
	</g>
</g>
<g>
	<g>
		<g>
			<path fill="#7F888D" d="M118.9,440.6c-0.1,0-0.3,0-0.4-0.1c-0.6-0.5-5.9-5.1-5.9-8.5c0-3.5,2.8-6.3,6.3-6.3
				c3.5,0,6.3,2.8,6.3,6.3c0,3.3-5.3,8-5.9,8.5C119.2,440.5,119.1,440.6,118.9,440.6L118.9,440.6z M118.9,426.9
				c-2.8,0-5.1,2.3-5.1,5.1c0,2.2,3.4,5.6,5.1,7.2c1.7-1.5,5.1-5,5.1-7.2C124,429.1,121.7,426.9,118.9,426.9L118.9,426.9z"/>
		</g>
		<ellipse fill="#7F888D" cx="118.9" cy="431.8" rx="4.5" ry="4.5"/>
		<g>
			<path fill="#7F888D" d="M118.9,439.3c-0.1,0-0.2,0-0.3-0.1c-0.5-0.4-5-4.3-5-7.2c0-2.9,2.4-5.3,5.3-5.3c2.9,0,5.3,2.4,5.3,5.3
				c0,2.8-4.5,6.7-5,7.2C119.1,439.2,119,439.3,118.9,439.3L118.9,439.3z M118.9,427.7c-2.4,0-4.3,1.9-4.3,4.3
				c0,1.8,2.8,4.8,4.3,6.1c1.5-1.3,4.3-4.2,4.3-6.1C123.2,429.6,121.2,427.7,118.9,427.7L118.9,427.7z"/>
		</g>
		<circle fill="#7F888D" cx="118.9" cy="436.3" r="2.5"/>
	</g>
	<g>
		<g>
			<path fill="#FFFFFF" d="M118.9,429.5c1.5,0,2.7,1.2,2.7,2.7c0,1.5-1.2,2.7-2.7,2.7c-1.5,0-2.7-1.2-2.7-2.7
				C116.3,430.7,117.5,429.5,118.9,429.5L118.9,429.5z M118.9,434c1,0,1.8-0.8,1.8-1.8c0-1-0.8-1.8-1.8-1.8c-1,0-1.8,0.8-1.8,1.8
				C117.1,433.2,117.9,434,118.9,434L118.9,434z"/>
		</g>
		<g>
			<g>
				<path fill="#FFFFFF" d="M120.6,433.4c0.1,0,0.2,0,0.3,0.1l0.6,0.6c0.2,0.2,0.2,0.5,0,0.6s-0.5,0.2-0.6,0l-0.6-0.6
					c-0.2-0.2-0.2-0.5,0-0.6C120.4,433.5,120.5,433.4,120.6,433.4L120.6,433.4z"/>
			</g>
			<g>
				<path fill="#FFFFFF" d="M116.6,429.5c0.1,0,0.2,0,0.3,0.1l0.7,0.7c0.2,0.2,0.2,0.5,0,0.6c-0.2,0.2-0.5,0.2-0.6,0l-0.7-0.7
					c-0.2-0.2-0.2-0.5,0-0.6C116.4,429.5,116.5,429.5,116.6,429.5L116.6,429.5z"/>
			</g>
		</g>
		<g>
			<g>
				<path fill="#FFFFFF" d="M117.3,433.4c0.1,0,0.2,0,0.3,0.1c0.2,0.2,0.2,0.5,0,0.6l-0.6,0.6c-0.2,0.2-0.5,0.2-0.6,0
					c-0.2-0.2-0.2-0.5,0-0.6l0.6-0.6C117,433.5,117.1,433.4,117.3,433.4L117.3,433.4z"/>
			</g>
			<g>
				<path fill="#FFFFFF" d="M121.2,429.5c0.1,0,0.2,0,0.3,0.1c0.2,0.2,0.2,0.5,0,0.6l-0.7,0.7c-0.2,0.2-0.5,0.2-0.6,0
					c-0.2-0.2-0.2-0.5,0-0.6l0.7-0.7C121,429.5,121.1,429.5,121.2,429.5L121.2,429.5z"/>
			</g>
		</g>
		<g>
			<g>
				<path fill="#FFFFFF" d="M118.9,434.1c0.2,0,0.4,0.2,0.4,0.4v0.9c0,0.2-0.2,0.4-0.4,0.4c-0.2,0-0.4-0.2-0.4-0.4v-0.9
					C118.5,434.3,118.7,434.1,118.9,434.1L118.9,434.1z"/>
			</g>
			<g>
				<path fill="#FFFFFF" d="M118.9,428.5L118.9,428.5c0.2,0,0.4,0.2,0.4,0.4l0,1c0,0.2-0.2,0.4-0.4,0.4l0,0c-0.2,0-0.4-0.2-0.4-0.4
					l0-1C118.5,428.7,118.7,428.5,118.9,428.5L118.9,428.5z"/>
			</g>
		</g>
		<g>
			<g>
				<path fill="#FFFFFF" d="M115.7,431.8h0.9c0.2,0,0.4,0.2,0.4,0.4c0,0.2-0.2,0.4-0.4,0.4h-0.9c-0.2,0-0.4-0.2-0.4-0.4
					C115.2,432,115.4,431.8,115.7,431.8L115.7,431.8z"/>
			</g>
			<g>
				<path fill="#FFFFFF" d="M121.1,431.8h1c0.2,0,0.4,0.2,0.4,0.4c0,0.2-0.2,0.4-0.4,0.4h-1c-0.2,0-0.4-0.2-0.4-0.4
					C120.7,432,120.9,431.8,121.1,431.8L121.1,431.8z"/>
			</g>
		</g>
	</g>
</g>
<g>
	<g>
		<rect x="417.3" y="25.3" fill="#FFFFFF" width="133.4" height="133.4"/>
		<g>
			<path fill="#445464" d="M440.7,139.2h3.9c3.1,0,5.3,2.1,5.3,4.9v0c0,2.8-2.2,5-5.3,5h-3.9V139.2z M444.6,147.2c1.8,0,3-1.2,3-3v0
				c0-1.8-1.2-3-3-3h-1.7v6H444.6z"/>
			<path fill="#445464" d="M451.2,145.4L451.2,145.4c0-2.2,1.5-4,3.8-4c2.5,0,3.7,2,3.7,4.1c0,0.2,0,0.4,0,0.6h-5.3
				c0.2,1,0.9,1.5,1.9,1.5c0.7,0,1.2-0.2,1.8-0.8l1.2,1.1c-0.7,0.9-1.7,1.4-3.1,1.4C452.9,149.3,451.2,147.7,451.2,145.4z
				 M456.6,144.8c-0.1-1-0.7-1.6-1.6-1.6c-0.9,0-1.5,0.6-1.6,1.6H456.6z"/>
			<path fill="#445464" d="M460.4,138.8h2.2v10.4h-2.2V138.8z"/>
			<path fill="#445464" d="M464.6,138.8h2.3v1.9h-2.3V138.8z M464.7,141.5h2.2v7.6h-2.2V141.5z"/>
			<path fill="#445464" d="M468.2,141.5h2.3l1.7,5.1l1.7-5.1h2.2l-3,7.7h-2L468.2,141.5z"/>
			<path fill="#445464" d="M476.6,145.4L476.6,145.4c0-2.2,1.5-4,3.8-4c2.5,0,3.7,2,3.7,4.1c0,0.2,0,0.4,0,0.6h-5.3
				c0.2,1,0.9,1.5,1.9,1.5c0.7,0,1.2-0.2,1.8-0.8l1.2,1.1c-0.7,0.9-1.7,1.4-3.1,1.4C478.3,149.3,476.6,147.7,476.6,145.4z
				 M482,144.8c-0.1-1-0.7-1.6-1.6-1.6c-0.9,0-1.5,0.6-1.6,1.6H482z"/>
			<path fill="#445464" d="M485.7,141.5h2.2v1.5c0.4-1,1.1-1.7,2.4-1.7v2.3h-0.1c-1.4,0-2.3,0.9-2.3,2.7v2.8h-2.2V141.5z"/>
			<path fill="#445464" d="M490.8,147L490.8,147c0-1.7,1.3-2.5,3.1-2.5c0.8,0,1.3,0.1,1.9,0.3v-0.1c0-0.9-0.6-1.4-1.6-1.4
				c-0.8,0-1.4,0.2-2.1,0.4l-0.5-1.6c0.8-0.4,1.7-0.6,3-0.6c1.2,0,2,0.3,2.6,0.9c0.6,0.6,0.8,1.4,0.8,2.4v4.4h-2.1v-0.8
				c-0.5,0.6-1.2,1-2.3,1C492,149.3,490.8,148.5,490.8,147z M495.7,146.5v-0.4c-0.4-0.2-0.9-0.3-1.4-0.3c-0.9,0-1.5,0.4-1.5,1.1v0
				c0,0.6,0.5,0.9,1.2,0.9C495.1,147.8,495.7,147.3,495.7,146.5z"/>
			<path fill="#445464" d="M501.8,148.2v1h-2.2v-10.4h2.2v3.8c0.5-0.7,1.2-1.2,2.4-1.2c1.8,0,3.5,1.4,3.5,3.9v0
				c0,2.5-1.7,3.9-3.5,3.9C503,149.3,502.3,148.8,501.8,148.2z M505.5,145.4L505.5,145.4c0-1.3-0.9-2.1-1.9-2.1s-1.8,0.8-1.8,2.1v0
				c0,1.3,0.8,2.1,1.8,2.1S505.5,146.6,505.5,145.4z"/>
			<path fill="#445464" d="M509.3,138.8h2.2v10.4h-2.2V138.8z"/>
			<path fill="#445464" d="M513.1,145.4L513.1,145.4c0-2.2,1.5-4,3.8-4c2.5,0,3.7,2,3.7,4.1c0,0.2,0,0.4,0,0.6h-5.3
				c0.2,1,0.9,1.5,1.9,1.5c0.7,0,1.2-0.2,1.8-0.8l1.2,1.1c-0.7,0.9-1.7,1.4-3.1,1.4C514.8,149.3,513.1,147.7,513.1,145.4z
				 M518.5,144.8c-0.1-1-0.7-1.6-1.6-1.6c-0.9,0-1.5,0.6-1.6,1.6H518.5z"/>
			<path fill="#445464" d="M521.6,148.1l0.9-1.4c0.8,0.6,1.7,0.9,2.4,0.9c0.6,0,0.9-0.2,0.9-0.6v0c0-0.5-0.7-0.6-1.6-0.9
				c-1.1-0.3-2.3-0.8-2.3-2.3v0c0-1.5,1.2-2.4,2.8-2.4c1,0,2,0.3,2.8,0.9l-0.8,1.5c-0.8-0.4-1.5-0.7-2.1-0.7c-0.5,0-0.8,0.2-0.8,0.5
				v0c0,0.4,0.7,0.6,1.5,0.9c1.1,0.4,2.3,0.9,2.3,2.3v0c0,1.7-1.3,2.5-2.9,2.5C523.8,149.3,522.6,148.9,521.6,148.1z"/>
		</g>
	</g>
	<g>
		<path fill="#445464" d="M511.7,121.9h-55.5c-6.6,0-12-5.4-12-12V54.1c0-6.6,5.4-12,12-12h55.5c6.6,0,12,5.4,12,12v55.8
			C523.7,116.5,518.3,121.9,511.7,121.9z"/>
		<g>
			<g>
				<path fill="#FFFFFF" d="M477.2,80.5h2.1c1.7,0,2.9,1.2,2.9,2.7v0c0,1.5-1.2,2.7-2.9,2.7h-2.1V80.5z M479.3,84.9
					c1,0,1.6-0.7,1.6-1.6v0c0-1-0.7-1.6-1.6-1.6h-0.9v3.3H479.3z"/>
				<path fill="#FFFFFF" d="M483,83.2L483,83.2c0-1.6,1.2-2.8,2.9-2.8s2.9,1.3,2.9,2.8v0c0,1.5-1.2,2.8-2.9,2.8
					C484.2,86,483,84.8,483,83.2z M487.5,83.2L487.5,83.2c0-0.9-0.7-1.7-1.6-1.7c-1,0-1.6,0.8-1.6,1.7v0c0,0.9,0.7,1.7,1.6,1.7
					S487.5,84.2,487.5,83.2z"/>
				<path fill="#FFFFFF" d="M489.6,83.2L489.6,83.2c0-1.6,1.2-2.8,2.8-2.8c1,0,1.6,0.3,2.1,0.8l-0.8,0.9c-0.4-0.4-0.8-0.6-1.4-0.6
					c-0.9,0-1.6,0.8-1.6,1.7v0c0,0.9,0.6,1.7,1.6,1.7c0.6,0,1-0.2,1.4-0.6l0.8,0.8c-0.6,0.6-1.2,1-2.2,1
					C490.8,86,489.6,84.8,489.6,83.2z"/>
				<path fill="#FFFFFF" d="M495.2,85.2l0.7-0.8c0.5,0.4,1,0.7,1.6,0.7c0.5,0,0.8-0.2,0.8-0.5v0c0-0.3-0.2-0.5-1.1-0.7
					c-1.1-0.3-1.8-0.6-1.8-1.7v0c0-1,0.8-1.6,1.9-1.6c0.8,0,1.5,0.2,2,0.7l-0.6,0.9c-0.5-0.3-1-0.5-1.4-0.5c-0.5,0-0.7,0.2-0.7,0.5
					v0c0,0.4,0.2,0.5,1.2,0.7c1.1,0.3,1.7,0.7,1.7,1.6v0c0,1.1-0.8,1.7-2,1.7C496.7,86,495.9,85.7,495.2,85.2z"/>
			</g>
			<g>
				<path fill="#FFFFFF" d="M490.1,71.3h-12.5c-0.6,0-1.1-0.5-1.1-1.1s0.5-1.1,1.1-1.1h12.5c0.6,0,1.1,0.5,1.1,1.1
					S490.7,71.3,490.1,71.3L490.1,71.3z"/>
			</g>
			<g>
				<path fill="#FFFFFF" d="M498.4,76.4h-20.8c-0.6,0-1.1-0.5-1.1-1.1c0-0.6,0.5-1.1,1.1-1.1h20.8c0.6,0,1.1,0.5,1.1,1.1
					C499.4,76,499,76.4,498.4,76.4L498.4,76.4z"/>
			</g>
			<g>
				<path fill="#FFFFFF" d="M486.3,91.9h-8.7c-0.6,0-1.1-0.5-1.1-1.1c0-0.6,0.5-1.1,1.1-1.1h8.7c0.6,0,1.1,0.5,1.1,1.1
					C487.4,91.4,486.9,91.9,486.3,91.9L486.3,91.9z"/>
			</g>
			<g>
				<path fill="#FFFFFF" d="M486.3,97.1h-8.7c-0.6,0-1.1-0.5-1.1-1.1c0-0.6,0.5-1.1,1.1-1.1h8.7c0.6,0,1.1,0.5,1.1,1.1
					C487.4,96.6,486.9,97.1,486.3,97.1L486.3,97.1z"/>
			</g>
			<g>
				<path fill="#FFFFFF" d="M492.5,107.8c-0.6,0-1.1-0.5-1.1-1.1V94.1c0-0.6,0.5-1.1,1.1-1.1h12.6c0.6,0,1.1,0.5,1.1,1.1
					c0,0.6-0.5,1.1-1.1,1.1h-11.6v11.6C493.5,107.3,493.1,107.8,492.5,107.8L492.5,107.8z"/>
			</g>
			<g>
				<path fill="#FFFFFF" d="M492.5,108.8h-21.8c-1.2,0-2.1-0.9-2.1-2.1V63.5c0-1.2,0.9-2.1,2.1-2.1h34.4c1.2,0,2.1,0.9,2.1,2.1v30.6
					c0,0.6-0.2,1.1-0.6,1.5L494,108.2C493.6,108.6,493,108.8,492.5,108.8L492.5,108.8z M472.8,104.6h18.8L503,93.2V65.6h-30.2V104.6
					L472.8,104.6z"/>
			</g>
			<g>
				<path fill="#FFFFFF" d="M464.8,103.8c-1.2,0-2.1-0.9-2.1-2.1V59.3c0-2.3,1.9-4.2,4.2-4.2h32.3c1.2,0,2.1,0.9,2.1,2.1
					c0,1.2-0.9,2.1-2.1,2.1h-32.3v42.4C466.9,102.9,465.9,103.8,464.8,103.8L464.8,103.8z"/>
			</g>
		</g>
	</g>
</g>
</svg>
