<?xml version="1.0" encoding="utf-8"?>
<!-- Generator: Adobe Illustrator 19.1.0, SVG Export Plug-In . SVG Version: 6.00 Build 0)  -->
<svg version="1.1" id="Layer_1" xmlns="http://www.w3.org/2000/svg" xmlns:xlink="http://www.w3.org/1999/xlink" x="0px" y="0px"
	 viewBox="0 0 169.2 169.2" enable-background="new 0 0 169.2 169.2" xml:space="preserve">
<g>
	<rect fill="#FFFFFF" width="169.2" height="169.2"/>
	<g>
		<path fill="#404447" d="M52.2,153.1L52.2,153.1c0-2.1,1.6-3.1,3.9-3.1c1,0,1.7,0.2,2.4,0.4v-0.2c0-1.1-0.7-1.8-2.1-1.8
			c-1,0-1.8,0.2-2.7,0.5l-0.7-2.1c1.1-0.5,2.1-0.8,3.7-0.8c1.5,0,2.6,0.4,3.3,1.1c0.7,0.7,1,1.8,1,3.1v5.6h-2.6v-1
			c-0.7,0.7-1.6,1.2-2.9,1.2C53.7,156.1,52.2,155,52.2,153.1z M58.5,152.5V152c-0.5-0.2-1.1-0.4-1.7-0.4c-1.2,0-1.9,0.5-1.9,1.3v0
			c0,0.7,0.6,1.2,1.5,1.2C57.7,154.2,58.5,153.5,58.5,152.5z"/>
		<path fill="#404447" d="M63,151.1L63,151.1c0-2.8,2.1-5.1,5.1-5.1c1.8,0,3,0.6,3.9,1.6l-1.7,1.8c-0.6-0.6-1.2-1.1-2.2-1.1
			c-1.4,0-2.3,1.2-2.3,2.6v0c0,1.5,1,2.7,2.4,2.7c0.9,0,1.5-0.4,2.2-1l1.6,1.6c-0.9,1-2,1.8-3.9,1.8C65.1,156.1,63,153.9,63,151.1z"
			/>
		<path fill="#404447" d="M74.2,153.2v-4.6h-1.2v-2.3h1.2v-2.5h2.7v2.5h2.3v2.3h-2.3v4.1c0,0.6,0.3,0.9,0.9,0.9c0.5,0,1-0.1,1.4-0.3
			v2.2c-0.6,0.3-1.2,0.6-2.2,0.6C75.3,156.1,74.2,155.4,74.2,153.2z"/>
		<path fill="#404447" d="M81.3,142.8h2.9v2.4h-2.9V142.8z M81.3,146.2h2.7v9.7h-2.7V146.2z"/>
		<path fill="#404447" d="M86.2,151.1L86.2,151.1c0-2.8,2.2-5.1,5.2-5.1c3,0,5.2,2.2,5.2,5v0c0,2.8-2.2,5-5.2,5
			C88.4,156.1,86.2,153.9,86.2,151.1z M93.9,151.1L93.9,151.1c0-1.5-1-2.7-2.5-2.7c-1.6,0-2.5,1.2-2.5,2.6v0c0,1.4,1,2.7,2.5,2.7
			C93,153.8,93.9,152.5,93.9,151.1z"/>
		<path fill="#404447" d="M98.6,146.2h2.7v1.4c0.6-0.8,1.4-1.5,2.8-1.5c2.1,0,3.3,1.4,3.3,3.6v6.2h-2.7v-5.4c0-1.3-0.6-2-1.7-2
			s-1.7,0.7-1.7,2v5.4h-2.7V146.2z"/>
		<path fill="#404447" d="M109.1,154.6l1.2-1.8c1,0.8,2.1,1.2,3,1.2c0.8,0,1.2-0.3,1.2-0.7v0c0-0.6-0.9-0.8-2-1.1
			c-1.4-0.4-2.9-1-2.9-2.9v0c0-2,1.6-3.1,3.5-3.1c1.2,0,2.6,0.4,3.6,1.1l-1,1.9c-1-0.6-1.9-0.9-2.6-0.9c-0.7,0-1,0.3-1,0.7v0
			c0,0.5,0.9,0.8,2,1.2c1.3,0.5,2.9,1.1,2.9,2.9v0c0,2.1-1.6,3.1-3.7,3.1C111.9,156.1,110.3,155.6,109.1,154.6z"/>
	</g>
</g>
<g>
	<g>
		<path fill="#404447" d="M96.8,122c-1.1,0-2-0.9-2-2V95.6c0-1.1,0.9-2,2-2h24.4c1.1,0,2,0.9,2,2c0,1.1-0.9,2-2,2H98.8v22.3
			C98.8,121.1,97.9,122,96.8,122L96.8,122z"/>
	</g>
	<g>
		<path fill="#404447" d="M96.8,124H54.9c-2.2,0-4.1-1.8-4.1-4.1V36.6c0-2.2,1.8-4.1,4.1-4.1h66.3c2.2,0,4.1,1.8,4.1,4.1v59
			c0,1.1-0.4,2.1-1.2,2.9l-24.4,24.4C98.9,123.6,97.9,124,96.8,124L96.8,124z M58.9,115.9h36.2l22-22V40.7H58.9V115.9L58.9,115.9z"
			/>
	</g>
	<g>
		<path fill="#404447" d="M43.5,114.4c-2.2,0-4.1-1.8-4.1-4.1V28.6c0-4.5,3.6-8.1,8.1-8.1h62.2c2.2,0,4.1,1.8,4.1,4.1
			c0,2.2-1.8,4.1-4.1,4.1H47.5v81.7C47.5,112.6,45.7,114.4,43.5,114.4L43.5,114.4z"/>
	</g>
	<g>
		<g>
			<path fill="#404447" d="M85.8,73.2c-0.4,0-0.8-0.2-1.1-0.5l-3.9-4.1c-0.6-0.6-0.5-1.6,0.1-2.1c0.6-0.6,1.6-0.6,2.1,0.1l2.7,2.9
				l7.5-9.2c0.5-0.6,1.5-0.7,2.1-0.2c0.6,0.5,0.7,1.5,0.2,2.1L87,72.6C86.7,72.9,86.3,73.1,85.8,73.2C85.9,73.2,85.9,73.2,85.8,73.2
				L85.8,73.2z"/>
		</g>
		<g>
			<path fill="#404447" d="M104.6,85.1H71.8c-0.8,0-1.5-0.7-1.5-1.5V50.7c0-0.8,0.7-1.5,1.5-1.5h32.8c0.8,0,1.5,0.7,1.5,1.5v32.8
				C106.1,84.4,105.4,85.1,104.6,85.1L104.6,85.1z M73.3,82.1h29.8V52.2H73.3V82.1L73.3,82.1z"/>
		</g>
	</g>
</g>
</svg>
