<?xml version="1.0" encoding="utf-8"?>
<!-- Generator: Adobe Illustrator 19.1.0, SVG Export Plug-In . SVG Version: 6.00 Build 0)  -->
<svg version="1.1" id="Layer_1" xmlns="http://www.w3.org/2000/svg" xmlns:xlink="http://www.w3.org/1999/xlink" x="0px" y="0px"
	 viewBox="0 0 169.2 169.2" enable-background="new 0 0 169.2 169.2" xml:space="preserve">
<g>
	<rect x="0" y="0" fill="#FFFFFF" width="169.2" height="169.2"/>
	<g>
		<path fill="#F08921" d="M58.1,146.2h2.7v1.4c0.6-0.8,1.4-1.5,2.8-1.5c2.1,0,3.3,1.4,3.3,3.6v6.2h-2.7v-5.4c0-1.3-0.6-2-1.7-2
			c-1,0-1.7,0.7-1.7,2v5.4h-2.7V146.2z"/>
		<path fill="#F08921" d="M68.9,151.1L68.9,151.1c0-2.8,2.2-5.1,5.2-5.1c3,0,5.2,2.2,5.2,5v0c0,2.8-2.2,5-5.2,5
			C71.1,156.1,68.9,153.9,68.9,151.1z M76.6,151.1L76.6,151.1c0-1.5-1-2.7-2.5-2.7c-1.6,0-2.5,1.2-2.5,2.6v0c0,1.4,1,2.7,2.5,2.7
			C75.7,153.8,76.6,152.5,76.6,151.1z"/>
		<path fill="#F08921" d="M80.9,151.1L80.9,151.1c0-3.3,2.1-5,4.4-5c1.5,0,2.4,0.7,3,1.4v-4.8H91v13.1h-2.7v-1.4
			c-0.7,0.9-1.6,1.6-3,1.6C83,156.1,80.9,154.3,80.9,151.1z M88.3,151.1L88.3,151.1c0-1.6-1.1-2.7-2.3-2.7s-2.4,1-2.4,2.7v0
			c0,1.6,1.1,2.7,2.4,2.7S88.3,152.7,88.3,151.1z"/>
		<path fill="#F08921" d="M93,151.1L93,151.1c0-2.8,2-5.1,4.8-5.1c3.2,0,4.7,2.5,4.7,5.2c0,0.2,0,0.5,0,0.7h-6.7
			c0.3,1.2,1.1,1.9,2.4,1.9c0.9,0,1.6-0.3,2.3-1l1.6,1.4c-0.9,1.1-2.2,1.8-3.9,1.8C95.1,156.1,93,154.1,93,151.1z M99.8,150.3
			c-0.2-1.2-0.9-2.1-2-2.1c-1.1,0-1.9,0.8-2.1,2.1H99.8z"/>
		<path fill="#F08921" d="M103.7,154.6l1.2-1.8c1,0.8,2.1,1.2,3,1.2c0.8,0,1.2-0.3,1.2-0.7v0c0-0.6-0.9-0.8-2-1.1
			c-1.4-0.4-2.9-1-2.9-2.9v0c0-2,1.6-3.1,3.5-3.1c1.2,0,2.6,0.4,3.6,1.1l-1,1.9c-1-0.6-1.9-0.9-2.6-0.9c-0.7,0-1,0.3-1,0.7v0
			c0,0.5,0.9,0.8,2,1.2c1.4,0.5,2.9,1.1,2.9,2.9v0c0,2.1-1.6,3.1-3.7,3.1C106.5,156.1,105,155.6,103.7,154.6z"/>
	</g>
</g>
<g>
	<path fill="#F08921" d="M128.2,119.1H41.9c-2.2,0-4-1.8-4-4V30.3c0-2.2,1.8-4,4-4h86.3c2.2,0,4,1.8,4,4v84.7
		C132.1,117.3,130.4,119.1,128.2,119.1L128.2,119.1z M45.9,111.1h78.3V34.3H45.9V111.1L45.9,111.1z"/>
</g>
<g>
	<path fill="#F08921" d="M85.1,84.6c-6.3,0-11.4-5.1-11.4-11.4c0-6.3,5.1-11.4,11.4-11.4c5.2,0,9.5,3.5,10.9,8.2h4.4
		C99,63,92.6,57.6,85.1,57.6c-8.6,0-15.6,7-15.6,15.6c0,8.6,7,15.6,15.6,15.6c7.5,0,13.9-5.4,15.3-12.5H96
		C94.7,81.1,90.3,84.6,85.1,84.6"/>
	<path fill="#F08921" d="M77.4,80.9c2,2,4.7,3.2,7.7,3.2v-4.5c-1.7,0-3.3-0.7-4.5-1.8L77.4,80.9z"/>
	<path fill="#F08921" d="M74.3,73.2c0,1.6,0.3,3,0.9,4.4l4.1-1.8c-0.3-0.8-0.5-1.6-0.5-2.5c0-3.5,2.8-6.3,6.3-6.3v-4.5
		C79.1,62.4,74.3,67.3,74.3,73.2"/>
	<path fill="#F08921" d="M89,63.1l-1.6,4.2c1.3,0.5,2.5,1.5,3.2,2.7h4.9C94.5,66.9,92.1,64.3,89,63.1"/>
	<path fill="#F08921" d="M87.4,79.1l1.6,4.2c3.1-1.2,5.5-3.8,6.4-6.9h-4.9C89.9,77.6,88.7,78.6,87.4,79.1"/>
	<path fill="#F08921" d="M65,79.3c-0.1-0.2-0.1-0.5-0.2-0.7c0,0,0,0,0,0c-0.1-0.2-0.1-0.4-0.2-0.7c0,0,0-0.1,0-0.1
		c0-0.2-0.1-0.4-0.1-0.6c0-0.1,0-0.2,0-0.3c0-0.2-0.1-0.3-0.1-0.5c0-0.1,0-0.3-0.1-0.4c-0.1-0.9-0.2-1.8-0.2-2.8h-4.3
		c0,1,0.1,2,0.2,3h0c0,0,0,0,0,0.1c0,0.3,0.1,0.5,0.1,0.8c0,0.1,0,0.1,0,0.2c0,0.2,0.1,0.4,0.1,0.7c0,0.1,0,0.2,0.1,0.3
		c0,0.2,0.1,0.4,0.1,0.5c0,0.2,0.1,0.3,0.1,0.5c0,0.1,0.1,0.3,0.1,0.4c0,0.2,0.1,0.4,0.2,0.5c0,0.1,0,0.2,0.1,0.2l0,0
		c0.3,1,0.6,1.9,1.1,2.9l3.9-1.7C65.6,80.9,65.3,80.1,65,79.3z"/>
	<path fill="#F08921" d="M85.1,94.2c-5.8,0-11-2.4-14.8-6.1l-3,3c4.6,4.6,10.9,7.4,17.8,7.4c12.9,0,23.5-9.6,25-22.1h-4.3
		C104.3,86.5,95.6,94.2,85.1,94.2"/>
	<path fill="#F08921" d="M85.1,52.3c4.7,0,9,1.6,12.5,4.2l2.6-3.4c-4.2-3.1-9.4-5-15.1-5c-10.7,0-19.9,6.7-23.5,16.1l4,1.6
		C68.6,57.8,76.2,52.3,85.1,52.3"/>
	<path fill="#F08921" d="M105.8,70.1h4.3c-0.5-3.7-1.7-7.2-3.6-10.2l-3.6,2.3C104.4,64.5,105.4,67.2,105.8,70.1"/>
	<path fill="#F08921" d="M101,70.1h4.3c-1.1-7.3-6.1-13.3-12.8-15.9l-1.5,4C96,60.2,99.9,64.6,101,70.1"/>
	<path fill="#F08921" d="M85.1,57.1L85.1,57.1l0-4.3h0c-8.7,0-16.1,5.4-19,13l4,1.5C72.4,61.4,78.3,57.1,85.1,57.1"/>
	<path fill="#F08921" d="M68.9,73.2L68.9,73.2l-4.3,0v0c0,8.6,5.3,15.9,12.8,19l1.6-4C73.2,85.9,68.9,80,68.9,73.2"/>
	<path fill="#F08921" d="M85.1,89.4v4.3c10.2,0,18.7-7.5,20.2-17.3H101C99.5,83.8,92.9,89.4,85.1,89.4"/>
</g>
</svg>
