<?xml version="1.0" encoding="utf-8"?>
<!-- Generator: Adobe Illustrator 19.1.0, SVG Export Plug-In . SVG Version: 6.00 Build 0)  -->
<svg version="1.1" id="Layer_1" xmlns="http://www.w3.org/2000/svg" xmlns:xlink="http://www.w3.org/1999/xlink" x="0px" y="0px"
	 viewBox="0 0 169.2 169.2" enable-background="new 0 0 169.2 169.2" xml:space="preserve">
<g>
	<rect fill="#FFFFFF" width="169.2" height="169.2"/>
	<g>
		<path fill="#404447" d="M25.5,146.2h2.7v1.4c0.7-0.9,1.6-1.6,3-1.6c2.3,0,4.4,1.8,4.4,5v0c0,3.2-2.1,5-4.4,5c-1.5,0-2.4-0.7-3-1.4
			v4.1h-2.7V146.2z M32.9,151.1L32.9,151.1c0-1.6-1.1-2.7-2.4-2.7c-1.3,0-2.3,1.1-2.3,2.7v0c0,1.6,1.1,2.7,2.3,2.7
			C31.8,153.8,32.9,152.7,32.9,151.1z"/>
		<path fill="#404447" d="M37.6,146.2h2.7v1.9c0.6-1.3,1.5-2.2,3.1-2.1v2.9h-0.1c-1.8,0-2.9,1.1-2.9,3.4v3.6h-2.7V146.2z"/>
		<path fill="#404447" d="M45.2,142.8h2.9v2.4h-2.9V142.8z M45.3,146.2H48v9.7h-2.7V146.2z"/>
		<path fill="#404447" d="M49.7,146.2h2.9l2.2,6.5l2.2-6.5h2.8L56,156h-2.5L49.7,146.2z"/>
		<path fill="#404447" d="M60.4,153.1L60.4,153.1c0-2.1,1.6-3.1,3.9-3.1c1,0,1.7,0.2,2.4,0.4v-0.2c0-1.1-0.7-1.8-2.1-1.8
			c-1,0-1.8,0.2-2.7,0.5l-0.7-2.1c1.1-0.5,2.1-0.8,3.7-0.8c1.5,0,2.6,0.4,3.3,1.1c0.7,0.7,1,1.8,1,3.1v5.6h-2.6v-1
			c-0.7,0.7-1.6,1.2-2.9,1.2C61.9,156.1,60.4,155,60.4,153.1z M66.7,152.5V152c-0.5-0.2-1.1-0.4-1.7-0.4c-1.2,0-1.9,0.5-1.9,1.3v0
			c0,0.7,0.6,1.2,1.5,1.2C65.8,154.2,66.7,153.5,66.7,152.5z"/>
		<path fill="#404447" d="M72,153.2v-4.6h-1.2v-2.3H72v-2.5h2.7v2.5H77v2.3h-2.3v4.1c0,0.6,0.3,0.9,0.9,0.9c0.5,0,1-0.1,1.4-0.3v2.2
			c-0.6,0.3-1.2,0.6-2.2,0.6C73.1,156.1,72,155.4,72,153.2z"/>
		<path fill="#404447" d="M78.3,151.1L78.3,151.1c0-2.8,2-5.1,4.8-5.1c3.2,0,4.7,2.5,4.7,5.2c0,0.2,0,0.5,0,0.7H81
			c0.3,1.2,1.1,1.9,2.4,1.9c0.9,0,1.6-0.3,2.3-1l1.6,1.4c-0.9,1.1-2.2,1.8-3.9,1.8C80.4,156.1,78.3,154.1,78.3,151.1z M85.1,150.3
			c-0.2-1.2-0.9-2.1-2-2.1c-1.1,0-1.9,0.8-2.1,2.1H85.1z"/>
		<path fill="#404447" d="M94.7,151.1L94.7,151.1c0-2.8,2.1-5.1,5.1-5.1c1.8,0,3,0.6,3.9,1.6l-1.7,1.8c-0.6-0.6-1.2-1.1-2.2-1.1
			c-1.4,0-2.3,1.2-2.3,2.6v0c0,1.5,1,2.7,2.4,2.7c0.9,0,1.5-0.4,2.2-1l1.6,1.6c-0.9,1-2,1.8-3.9,1.8
			C96.8,156.1,94.7,153.9,94.7,151.1z"/>
		<path fill="#404447" d="M105.6,142.8h2.7v13.1h-2.7V142.8z"/>
		<path fill="#404447" d="M110.4,151.1L110.4,151.1c0-2.8,2.2-5.1,5.2-5.1c3,0,5.2,2.2,5.2,5v0c0,2.8-2.2,5-5.2,5
			C112.6,156.1,110.4,153.9,110.4,151.1z M118.1,151.1L118.1,151.1c0-1.5-1-2.7-2.5-2.7c-1.6,0-2.5,1.2-2.5,2.6v0
			c0,1.4,1,2.7,2.5,2.7C117.2,153.8,118.1,152.5,118.1,151.1z"/>
		<path fill="#404447" d="M122.8,152.5v-6.2h2.7v5.4c0,1.3,0.6,2,1.7,2s1.7-0.7,1.7-2v-5.4h2.7v9.7h-2.7v-1.4
			c-0.6,0.8-1.4,1.5-2.8,1.5C124,156.1,122.8,154.7,122.8,152.5z"/>
		<path fill="#404447" d="M133.6,151.1L133.6,151.1c0-3.3,2.1-5,4.4-5c1.5,0,2.4,0.7,3,1.4v-4.8h2.7v13.1H141v-1.4
			c-0.7,0.9-1.6,1.6-3,1.6C135.7,156.1,133.6,154.3,133.6,151.1z M141,151.1L141,151.1c0-1.6-1.1-2.7-2.3-2.7s-2.4,1-2.4,2.7v0
			c0,1.6,1.1,2.7,2.4,2.7S141,152.7,141,151.1z"/>
	</g>
</g>
<g>
	<g>
		<path fill="#404447" d="M113.6,104.1h-4.5v-7.9h4.5c3,0,5.9-1.3,7.9-3.5c3.4-3.1,5.1-6.9,5.1-11.1c0-8.1-6.6-14.6-14.6-14.6
			c-1.5,0-3,0.2-4.5,0.7c-1.1,0.4-2.4,0.2-3.4-0.5c-1-0.7-1.6-1.7-1.8-2.9c-1-10.1-9.4-17.7-19.6-17.7C71.8,46.5,63,55.4,63,66.3
			c0,1.3,0.1,2.6,0.4,3.9c0.2,1.2-0.1,2.4-0.8,3.3c-0.7,0.9-1.9,1.4-3,1.4h-4.4c-5.9,0-10.7,4.8-10.7,10.7c0,5.9,4.8,10.7,10.7,10.7
			h9v7.9h-9c-10.2,0-18.6-8.3-18.6-18.5c0-10.2,8.3-18.6,18.6-18.6h0c0-0.2,0-0.5,0-0.7c0-15.2,12.4-27.6,27.6-27.6
			c12.8,0,23.6,8.6,26.7,20.6c0.8-0.1,1.7-0.1,2.5-0.1c12.4,0,22.5,10.1,22.5,22.5c0,6.3-2.7,12.4-7.4,16.6
			C123.8,101.8,118.8,104.1,113.6,104.1L113.6,104.1z"/>
	</g>
	<g>
		<path fill="#404447" d="M100.9,123.3H72.2c-3.1,0-5.5-2.5-5.5-5.5v-17.1c0-3.1,2.5-5.5,5.5-5.5h28.8c3.1,0,5.5,2.5,5.5,5.5v17.1
			C106.5,120.8,104,123.3,100.9,123.3L100.9,123.3z M74.5,115.4h24.1v-12.4H74.5V115.4L74.5,115.4z"/>
	</g>
	<g>
		<path fill="#404447" d="M96.8,102.7c-2.2,0-3.9-1.8-3.9-3.9v-4.4c0-3.5-2.8-6.3-6.3-6.3c-3.5,0-6.3,2.8-6.3,6.3v4.4
			c0,2.2-1.8,3.9-3.9,3.9c-2.2,0-3.9-1.8-3.9-3.9v-4.4c0-7.8,6.4-14.2,14.2-14.2c7.8,0,14.2,6.4,14.2,14.2v4.4
			C100.7,100.9,99,102.7,96.8,102.7L96.8,102.7z"/>
	</g>
	<path fill="#404447" d="M86.5,103.8c-1.8,0-3.3,1.5-3.3,3.3c0,1.3,0.7,2.3,1.7,2.9v3.8h3.2V110c1-0.6,1.7-1.6,1.7-2.9
		C89.9,105.3,88.4,103.8,86.5,103.8L86.5,103.8z"/>
</g>
</svg>
