<?xml version="1.0" encoding="utf-8"?>
<!-- Generator: Adobe Illustrator 19.1.0, SVG Export Plug-In . SVG Version: 6.00 Build 0)  -->
<svg version="1.1" id="Layer_1" xmlns="http://www.w3.org/2000/svg" xmlns:xlink="http://www.w3.org/1999/xlink" x="0px" y="0px"
	 viewBox="0 0 169.2 169.2" enable-background="new 0 0 169.2 169.2" xml:space="preserve">
<g>
	<rect fill="#FFFFFF" width="169.2" height="169.2"/>
	<g>
		<path fill="#F08921" d="M7.6,149.6L7.6,149.6c0-3.6,2.7-6.6,6.6-6.6c2.4,0,3.8,0.8,5,1.9l-1.8,2c-1-0.9-2-1.4-3.2-1.4
			c-2.1,0-3.7,1.8-3.7,3.9v0c0,2.2,1.5,4,3.7,4c1.4,0,2.3-0.6,3.3-1.5l1.8,1.8c-1.3,1.4-2.7,2.3-5.2,2.3
			C10.4,156.1,7.6,153.2,7.6,149.6z"/>
		<path fill="#F08921" d="M21.2,142.8h2.7v4.9c0.6-0.8,1.4-1.5,2.8-1.5c2.1,0,3.3,1.4,3.3,3.6v6.2h-2.7v-5.4c0-1.3-0.6-2-1.7-2
			c-1,0-1.7,0.7-1.7,2v5.4h-2.7V142.8z"/>
		<path fill="#F08921" d="M31.9,151.1L31.9,151.1c0-2.8,2-5.1,4.8-5.1c3.2,0,4.7,2.5,4.7,5.2c0,0.2,0,0.5,0,0.7h-6.7
			c0.3,1.2,1.1,1.9,2.4,1.9c0.9,0,1.6-0.3,2.3-1l1.6,1.4c-0.9,1.1-2.2,1.8-3.9,1.8C34.1,156.1,31.9,154.1,31.9,151.1z M38.7,150.3
			c-0.2-1.2-0.9-2.1-2-2.1c-1.1,0-1.9,0.8-2.1,2.1H38.7z"/>
		<path fill="#F08921" d="M43.9,148.6h-1.1v-2.3h1.1v-0.6c0-1.1,0.3-1.8,0.8-2.3c0.5-0.5,1.2-0.8,2.2-0.8c0.9,0,1.4,0.1,1.9,0.3v2.3
			c-0.4-0.1-0.8-0.2-1.2-0.2c-0.6,0-1,0.3-1,1v0.4h2.2v2.2h-2.2v7.3h-2.7V148.6z"/>
		<path fill="#F08921" d="M55.4,149.6L55.4,149.6c0-3.6,2.7-6.6,6.6-6.6c2.4,0,3.8,0.8,5,1.9l-1.8,2c-1-0.9-2-1.4-3.2-1.4
			c-2.1,0-3.7,1.8-3.7,3.9v0c0,2.2,1.5,4,3.7,4c1.4,0,2.3-0.6,3.3-1.5l1.8,1.8c-1.3,1.4-2.7,2.3-5.2,2.3
			C58.2,156.1,55.4,153.2,55.4,149.6z"/>
		<path fill="#F08921" d="M68.3,151.1L68.3,151.1c0-2.8,2.2-5.1,5.2-5.1c3,0,5.2,2.2,5.2,5v0c0,2.8-2.2,5-5.2,5
			C70.5,156.1,68.3,153.9,68.3,151.1z M76.1,151.1L76.1,151.1c0-1.5-1-2.7-2.5-2.7c-1.6,0-2.5,1.2-2.5,2.6v0c0,1.4,1,2.7,2.5,2.7
			C75.1,153.8,76.1,152.5,76.1,151.1z"/>
		<path fill="#F08921" d="M80.8,146.2h2.7v1.4c0.6-0.8,1.5-1.5,2.8-1.5c1.3,0,2.2,0.6,2.7,1.5c0.8-1,1.9-1.5,3.2-1.5
			c2,0,3.3,1.2,3.3,3.5v6.3h-2.7v-5.4c0-1.3-0.6-2-1.6-2c-1,0-1.7,0.7-1.7,2v5.4h-2.7v-5.4c0-1.3-0.6-2-1.6-2s-1.7,0.7-1.7,2v5.4
			h-2.7V146.2z"/>
		<path fill="#F08921" d="M97.9,146.2h2.7v1.4c0.7-0.9,1.6-1.6,3-1.6c2.3,0,4.4,1.8,4.4,5v0c0,3.2-2.1,5-4.4,5c-1.5,0-2.4-0.7-3-1.4
			v4.1h-2.7V146.2z M105.3,151.1L105.3,151.1c0-1.6-1.1-2.7-2.4-2.7s-2.3,1.1-2.3,2.7v0c0,1.6,1.1,2.7,2.3,2.7
			S105.3,152.7,105.3,151.1z"/>
		<path fill="#F08921" d="M110.1,142.8h2.7v13.1h-2.7V142.8z"/>
		<path fill="#F08921" d="M115.5,142.8h2.9v2.4h-2.9V142.8z M115.6,146.2h2.7v9.7h-2.7V146.2z"/>
		<path fill="#F08921" d="M120.3,153.1L120.3,153.1c0-2.1,1.6-3.1,3.9-3.1c1,0,1.7,0.2,2.4,0.4v-0.2c0-1.1-0.7-1.8-2.1-1.8
			c-1,0-1.8,0.2-2.7,0.5l-0.7-2.1c1.1-0.5,2.1-0.8,3.7-0.8c1.5,0,2.6,0.4,3.3,1.1c0.7,0.7,1,1.8,1,3.1v5.6h-2.6v-1
			c-0.7,0.7-1.6,1.2-2.9,1.2C121.8,156.1,120.3,155,120.3,153.1z M126.6,152.5V152c-0.5-0.2-1.1-0.4-1.7-0.4c-1.2,0-1.9,0.5-1.9,1.3
			v0c0,0.7,0.6,1.2,1.5,1.2C125.7,154.2,126.6,153.5,126.6,152.5z"/>
		<path fill="#F08921" d="M131.5,146.2h2.7v1.4c0.6-0.8,1.4-1.5,2.8-1.5c2.1,0,3.3,1.4,3.3,3.6v6.2h-2.7v-5.4c0-1.3-0.6-2-1.7-2
			c-1,0-1.7,0.7-1.7,2v5.4h-2.7V146.2z"/>
		<path fill="#F08921" d="M142.3,151.1L142.3,151.1c0-2.8,2.1-5.1,5.1-5.1c1.8,0,3,0.6,3.9,1.6l-1.7,1.8c-0.6-0.6-1.2-1.1-2.2-1.1
			c-1.4,0-2.3,1.2-2.3,2.6v0c0,1.5,1,2.7,2.4,2.7c0.9,0,1.5-0.4,2.2-1l1.6,1.6c-0.9,1-2,1.8-3.9,1.8
			C144.4,156.1,142.3,153.9,142.3,151.1z"/>
		<path fill="#F08921" d="M152.3,151.1L152.3,151.1c0-2.8,2-5.1,4.8-5.1c3.2,0,4.7,2.5,4.7,5.2c0,0.2,0,0.5,0,0.7H155
			c0.3,1.2,1.1,1.9,2.4,1.9c0.9,0,1.6-0.3,2.3-1l1.6,1.4c-0.9,1.1-2.2,1.8-3.9,1.8C154.4,156.1,152.3,154.1,152.3,151.1z
			 M159.1,150.3c-0.2-1.2-0.9-2.1-2-2.1c-1.1,0-1.9,0.8-2.1,2.1H159.1z"/>
	</g>
</g>
<g>
	<path fill="#F08921" d="M136.6,132.5H35.2c-2.6,0-4.7-2.1-4.7-4.7V28.2c0-2.6,2.1-4.7,4.7-4.7h101.4c2.6,0,4.7,2.1,4.7,4.7v99.6
		C141.3,130.4,139.2,132.5,136.6,132.5L136.6,132.5z M39.9,123.2H132V32.9H39.9V123.2L39.9,123.2z"/>
</g>
<g>
	<path fill="#F08921" d="M85.5,95.8c-9.7,0-17.6-7.9-17.6-17.6c0-9.7,7.9-17.6,17.6-17.6c8,0,14.8,5.4,16.9,12.7h6.8
		C107,62.3,97.2,54,85.5,54c-13.3,0-24.2,10.9-24.2,24.2c0,13.3,10.9,24.2,24.2,24.2c11.7,0,21.4-8.3,23.7-19.3h-6.8
		C100.3,90.4,93.5,95.8,85.5,95.8"/>
	<path fill="#F08921" d="M73.7,90c3,3,7.2,4.9,11.9,4.9v-7c-2.7,0-5.1-1.1-6.9-2.9L73.7,90z"/>
	<path fill="#F08921" d="M68.7,78.2c0,2.4,0.5,4.7,1.4,6.8l6.4-2.8c-0.5-1.2-0.8-2.5-0.8-3.9c0-5.4,4.4-9.8,9.8-9.8v-7
		C76.3,61.4,68.7,68.9,68.7,78.2"/>
	<path fill="#F08921" d="M91.6,62.5l-2.5,6.5c2.1,0.8,3.8,2.3,4.9,4.2h7.6C100.1,68.4,96.4,64.4,91.6,62.5"/>
	<path fill="#F08921" d="M89.1,87.3l2.5,6.5c4.8-1.9,8.5-5.8,10-10.8H94C92.9,85,91.1,86.5,89.1,87.3"/>
	<path fill="#F08921" d="M54.5,87.5c-0.1-0.4-0.2-0.7-0.3-1.1c0,0,0,0,0-0.1c-0.1-0.3-0.2-0.7-0.3-1c0-0.1,0-0.1,0-0.2
		c-0.1-0.3-0.1-0.6-0.2-0.9c0-0.1,0-0.3-0.1-0.4c0-0.2-0.1-0.5-0.1-0.7c0-0.2-0.1-0.4-0.1-0.6c-0.2-1.4-0.3-2.9-0.3-4.3h-6.6
		c0,1.6,0.1,3.2,0.3,4.7h0c0,0,0,0.1,0,0.1c0.1,0.4,0.1,0.8,0.2,1.3c0,0.1,0,0.2,0.1,0.3c0.1,0.3,0.1,0.7,0.2,1
		c0,0.2,0.1,0.4,0.1,0.5c0.1,0.3,0.1,0.5,0.2,0.8c0.1,0.2,0.1,0.5,0.2,0.7c0.1,0.2,0.1,0.4,0.2,0.6c0.1,0.3,0.2,0.6,0.2,0.8
		c0,0.1,0.1,0.2,0.1,0.3l0,0c0.5,1.5,1,3,1.6,4.4l6.1-2.7C55.3,90,54.9,88.8,54.5,87.5z"/>
	<path fill="#F08921" d="M85.5,110.6c-8.9,0-17.1-3.6-22.9-9.5l-4.7,4.7c7.1,7.1,16.8,11.4,27.6,11.4c19.9,0,36.4-14.9,38.8-34.2
		h-6.7C115.2,98.6,101.8,110.6,85.5,110.6"/>
	<path fill="#F08921" d="M85.5,45.7c7.3,0,14,2.4,19.4,6.5l4-5.3c-6.5-4.9-14.6-7.8-23.4-7.8c-16.6,0-30.7,10.3-36.4,24.9l6.2,2.4
		C60,54.3,71.8,45.7,85.5,45.7"/>
	<path fill="#F08921" d="M117.6,73.3h6.7c-0.7-5.7-2.7-11.1-5.6-15.8L113,61C115.3,64.7,116.9,68.8,117.6,73.3"/>
	<path fill="#F08921" d="M110.1,73.3h6.7C115,62,107.3,52.7,97,48.7l-2.4,6.2C102.4,57.9,108.4,64.8,110.1,73.3"/>
	<path fill="#F08921" d="M85.5,53.1L85.5,53.1l0-6.6h0c-13.4,0-24.9,8.4-29.5,20.2l6.2,2.4C65.8,59.8,74.9,53.1,85.5,53.1"/>
	<path fill="#F08921" d="M60.5,78.2L60.5,78.2l-6.6,0v0c0,13.3,8.2,24.7,19.9,29.4l2.5-6.1C67,97.7,60.5,88.7,60.5,78.2"/>
	<path fill="#F08921" d="M85.5,103.2v6.6c15.8,0,28.9-11.6,31.2-26.7h-6.7C107.8,94.5,97.6,103.2,85.5,103.2"/>
</g>
</svg>
