<?xml version="1.0" encoding="utf-8"?>
<!-- Generator: Adobe Illustrator 19.1.0, SVG Export Plug-In . SVG Version: 6.00 Build 0)  -->
<svg version="1.1" id="Layer_1" xmlns="http://www.w3.org/2000/svg" xmlns:xlink="http://www.w3.org/1999/xlink" x="0px" y="0px"
	 viewBox="0 0 169.2 169.2" enable-background="new 0 0 169.2 169.2" xml:space="preserve">
<g>
	<rect fill="#FFFFFF" width="169.2" height="169.2"/>
	<g>
		<path fill="#404447" d="M42.4,146.2h2.7v1.4c0.7-0.9,1.6-1.6,3-1.6c2.2,0,4.4,1.8,4.4,5v0c0,3.2-2.1,5-4.4,5c-1.5,0-2.4-0.7-3-1.4
			v4.1h-2.7V146.2z M49.8,151.1L49.8,151.1c0-1.6-1.1-2.7-2.4-2.7c-1.3,0-2.3,1.1-2.3,2.7v0c0,1.6,1.1,2.7,2.3,2.7
			C48.8,153.8,49.8,152.7,49.8,151.1z"/>
		<path fill="#404447" d="M54.6,146.2h2.7v1.9c0.6-1.3,1.5-2.2,3.1-2.1v2.9h-0.1c-1.8,0-2.9,1.1-2.9,3.4v3.6h-2.7V146.2z"/>
		<path fill="#404447" d="M61.4,151.1L61.4,151.1c0-2.8,2.2-5.1,5.2-5.1c3,0,5.2,2.2,5.2,5v0c0,2.8-2.2,5-5.2,5
			C63.6,156.1,61.4,153.9,61.4,151.1z M69.1,151.1L69.1,151.1c0-1.5-1-2.7-2.5-2.7c-1.6,0-2.5,1.2-2.5,2.6v0c0,1.4,1,2.7,2.5,2.7
			C68.2,153.8,69.1,152.5,69.1,151.1z"/>
		<path fill="#404447" d="M72.4,146.2h2.9l2.2,6.5l2.2-6.5h2.8l-3.8,9.7h-2.5L72.4,146.2z"/>
		<path fill="#404447" d="M84.1,142.8H87v2.4h-2.9V142.8z M84.2,146.2h2.7v9.7h-2.7V146.2z"/>
		<path fill="#404447" d="M89.1,151.1L89.1,151.1c0-3.3,2.1-5,4.4-5c1.5,0,2.4,0.7,3,1.4v-4.8h2.7v13.1h-2.7v-1.4
			c-0.7,0.9-1.6,1.6-3,1.6C91.2,156.1,89.1,154.3,89.1,151.1z M96.5,151.1L96.5,151.1c0-1.6-1.1-2.7-2.3-2.7s-2.4,1-2.4,2.7v0
			c0,1.6,1.1,2.7,2.4,2.7S96.5,152.7,96.5,151.1z"/>
		<path fill="#404447" d="M101.2,151.1L101.2,151.1c0-2.8,2-5.1,4.8-5.1c3.2,0,4.7,2.5,4.7,5.2c0,0.2,0,0.5,0,0.7h-6.7
			c0.3,1.2,1.1,1.9,2.4,1.9c0.9,0,1.6-0.3,2.3-1l1.6,1.4c-0.9,1.1-2.2,1.8-3.9,1.8C103.3,156.1,101.2,154.1,101.2,151.1z M108,150.3
			c-0.2-1.2-0.9-2.1-2-2.1c-1.1,0-1.9,0.8-2.1,2.1H108z"/>
		<path fill="#404447" d="M112.7,146.2h2.7v1.9c0.6-1.3,1.5-2.2,3.1-2.1v2.9h-0.1c-1.8,0-2.9,1.1-2.9,3.4v3.6h-2.7V146.2z"/>
		<path fill="#404447" d="M119.4,154.6l1.2-1.8c1,0.8,2.1,1.2,3,1.2c0.8,0,1.2-0.3,1.2-0.7v0c0-0.6-0.9-0.8-2-1.1
			c-1.4-0.4-2.9-1-2.9-2.9v0c0-2,1.6-3.1,3.5-3.1c1.2,0,2.6,0.4,3.6,1.1l-1,1.9c-1-0.6-1.9-0.9-2.6-0.9c-0.7,0-1,0.3-1,0.7v0
			c0,0.5,0.9,0.8,2,1.2c1.3,0.5,2.9,1.1,2.9,2.9v0c0,2.1-1.6,3.1-3.7,3.1C122.2,156.1,120.7,155.6,119.4,154.6z"/>
	</g>
</g>
<g>
	<g>
		<path fill="#404447" d="M85.6,61.2c0.7,0,1.4,0.2,2.1,0.5l49.1,27.5c1.3,0.7,2.2,2.2,2.2,3.7c0,1.5-0.8,2.9-2.2,3.7L88,124
			c-1.3,0.7-2.9,0.7-4.1,0L34.7,96.5c-1.3-0.7-2.2-2.2-2.2-3.7s0.8-2.9,2.2-3.7l48.8-27.3C84.2,61.4,84.9,61.2,85.6,61.2L85.6,61.2z
			 M126.1,93L85.6,70.3L45.4,92.8l40.5,22.7L126.1,93L126.1,93z"/>
	</g>
	<g>
		<g>
			<path fill="#404447" d="M129.5,67.4c-5.3,0-9.7-4.3-9.7-9.7c0-5.3,4.3-9.7,9.7-9.7c5.3,0,9.7,4.3,9.7,9.7
				C139.2,63.1,134.9,67.4,129.5,67.4L129.5,67.4z M129.5,51.3c-3.6,0-6.4,2.9-6.4,6.4c0,3.6,2.9,6.4,6.4,6.4c3.6,0,6.4-2.9,6.4-6.4
				C136,54.2,133.1,51.3,129.5,51.3L129.5,51.3z"/>
		</g>
		<g>
			<g>
				<path fill="#404447" d="M123.5,53.3c-0.4,0-0.8-0.2-1.1-0.5l-2.2-2.2c-0.6-0.6-0.6-1.6,0-2.3c0.6-0.6,1.6-0.6,2.3,0l2.2,2.2
					c0.6,0.6,0.6,1.6,0,2.3C124.3,53.1,123.9,53.3,123.5,53.3L123.5,53.3z"/>
			</g>
			<g>
				<path fill="#404447" d="M137.8,67.7c-0.4,0-0.8-0.2-1.1-0.5l-2.6-2.6c-0.6-0.6-0.6-1.6,0-2.3c0.6-0.6,1.6-0.6,2.3,0l2.6,2.6
					c0.6,0.6,0.6,1.6,0,2.3C138.7,67.5,138.3,67.7,137.8,67.7L137.8,67.7z"/>
			</g>
		</g>
		<g>
			<g>
				<path fill="#404447" d="M135.6,53.3c-0.4,0-0.8-0.2-1.1-0.5c-0.6-0.6-0.6-1.6,0-2.3l2.2-2.2c0.6-0.6,1.6-0.6,2.3,0
					c0.6,0.6,0.6,1.6,0,2.3l-2.2,2.2C136.4,53.1,136,53.3,135.6,53.3L135.6,53.3z"/>
			</g>
			<g>
				<path fill="#404447" d="M121.2,67.7c-0.4,0-0.8-0.2-1.1-0.5c-0.6-0.6-0.6-1.6,0-2.3l2.7-2.6c0.6-0.6,1.6-0.6,2.3,0
					c0.6,0.6,0.6,1.6,0,2.3l-2.7,2.6C122,67.5,121.6,67.7,121.2,67.7L121.2,67.7z"/>
			</g>
		</g>
		<g>
			<g>
				<path fill="#404447" d="M129.5,50.7c-0.9,0-1.6-0.7-1.6-1.6V46c0-0.9,0.7-1.6,1.6-1.6c0.9,0,1.6,0.7,1.6,1.6v3.2
					C131.1,50,130.4,50.7,129.5,50.7L129.5,50.7z"/>
			</g>
			<g>
				<path fill="#404447" d="M129.5,71.1L129.5,71.1c-0.9,0-1.6-0.7-1.6-1.6l0-3.7c0-0.9,0.7-1.6,1.6-1.6l0,0c0.9,0,1.6,0.7,1.6,1.6
					l0,3.7C131.1,70.4,130.4,71.1,129.5,71.1L129.5,71.1z"/>
			</g>
		</g>
		<g>
			<g>
				<path fill="#404447" d="M141.3,59.3h-3.2c-0.9,0-1.6-0.7-1.6-1.6c0-0.9,0.7-1.6,1.6-1.6h3.2c0.9,0,1.6,0.7,1.6,1.6
					C142.9,58.6,142.2,59.3,141.3,59.3L141.3,59.3z"/>
			</g>
			<g>
				<path fill="#404447" d="M121.5,59.3h-3.7c-0.9,0-1.6-0.7-1.6-1.6c0-0.9,0.7-1.6,1.6-1.6h3.7c0.9,0,1.6,0.7,1.6,1.6
					C123.1,58.6,122.4,59.3,121.5,59.3L121.5,59.3z"/>
			</g>
		</g>
	</g>
	<g>
		<g>
			<path fill="#404447" d="M85.2,48.1c-5.3,0-9.7-4.3-9.7-9.7c0-5.3,4.3-9.7,9.7-9.7c5.3,0,9.7,4.3,9.7,9.7
				C94.9,43.7,90.5,48.1,85.2,48.1L85.2,48.1z M85.2,31.9c-3.6,0-6.4,2.9-6.4,6.4c0,3.6,2.9,6.4,6.4,6.4c3.6,0,6.4-2.9,6.4-6.4
				C91.6,34.8,88.8,31.9,85.2,31.9L85.2,31.9z"/>
		</g>
		<g>
			<g>
				<path fill="#404447" d="M79.1,33.9c-0.4,0-0.8-0.2-1.1-0.5l-2.2-2.2c-0.6-0.6-0.6-1.6,0-2.3c0.6-0.6,1.6-0.6,2.3,0l2.2,2.2
					c0.6,0.6,0.6,1.6,0,2.3C80,33.8,79.5,33.9,79.1,33.9L79.1,33.9z"/>
			</g>
			<g>
				<path fill="#404447" d="M93.5,48.3c-0.4,0-0.8-0.2-1.1-0.5l-2.6-2.6c-0.6-0.6-0.6-1.6,0-2.3c0.6-0.6,1.6-0.6,2.3,0l2.6,2.6
					c0.6,0.6,0.6,1.6,0,2.3C94.3,48.2,93.9,48.3,93.5,48.3L93.5,48.3z"/>
			</g>
		</g>
		<g>
			<g>
				<path fill="#404447" d="M91.3,33.9c-0.4,0-0.8-0.2-1.1-0.5c-0.6-0.6-0.6-1.6,0-2.3l2.2-2.2c0.6-0.6,1.6-0.6,2.3,0
					c0.6,0.6,0.6,1.6,0,2.3l-2.2,2.2C92.1,33.8,91.7,33.9,91.3,33.9L91.3,33.9z"/>
			</g>
			<g>
				<path fill="#404447" d="M76.9,48.3c-0.4,0-0.8-0.2-1.1-0.5c-0.6-0.6-0.6-1.6,0-2.3l2.7-2.6c0.6-0.6,1.6-0.6,2.3,0
					c0.6,0.6,0.6,1.6,0,2.3L78,47.8C77.7,48.2,77.3,48.3,76.9,48.3L76.9,48.3z"/>
			</g>
		</g>
		<g>
			<g>
				<path fill="#404447" d="M85.2,31.4c-0.9,0-1.6-0.7-1.6-1.6v-3.2c0-0.9,0.7-1.6,1.6-1.6c0.9,0,1.6,0.7,1.6,1.6v3.2
					C86.8,30.7,86.1,31.4,85.2,31.4L85.2,31.4z"/>
			</g>
			<g>
				<path fill="#404447" d="M85.2,51.8L85.2,51.8c-0.9,0-1.6-0.7-1.6-1.6l0-3.7c0-0.9,0.7-1.6,1.6-1.6l0,0c0.9,0,1.6,0.7,1.6,1.6
					l0,3.7C86.8,51,86.1,51.8,85.2,51.8L85.2,51.8z"/>
			</g>
		</g>
		<g>
			<g>
				<path fill="#404447" d="M97,40h-3.2c-0.9,0-1.6-0.7-1.6-1.6c0-0.9,0.7-1.6,1.6-1.6H97c0.9,0,1.6,0.7,1.6,1.6
					C98.6,39.3,97.8,40,97,40L97,40z"/>
			</g>
			<g>
				<path fill="#404447" d="M77.2,40h-3.7c-0.9,0-1.6-0.7-1.6-1.6c0-0.9,0.7-1.6,1.6-1.6h3.7c0.9,0,1.6,0.7,1.6,1.6
					C78.8,39.3,78.1,40,77.2,40L77.2,40z"/>
			</g>
		</g>
	</g>
	<g>
		<g>
			<path fill="#404447" d="M42.1,67.2c-5.3,0-9.7-4.3-9.7-9.7c0-5.3,4.3-9.7,9.7-9.7c5.3,0,9.7,4.3,9.7,9.7
				C51.7,62.9,47.4,67.2,42.1,67.2L42.1,67.2z M42.1,51.1c-3.6,0-6.4,2.9-6.4,6.4c0,3.6,2.9,6.4,6.4,6.4c3.6,0,6.4-2.9,6.4-6.4
				C48.5,54,45.6,51.1,42.1,51.1L42.1,51.1z"/>
		</g>
		<g>
			<g>
				<path fill="#404447" d="M36,53.1c-0.4,0-0.8-0.2-1.1-0.5l-2.2-2.2c-0.6-0.6-0.6-1.6,0-2.3c0.6-0.6,1.6-0.6,2.3,0l2.2,2.2
					c0.6,0.6,0.6,1.6,0,2.3C36.8,52.9,36.4,53.1,36,53.1L36,53.1z"/>
			</g>
			<g>
				<path fill="#404447" d="M50.4,67.5c-0.4,0-0.8-0.2-1.1-0.5l-2.6-2.6c-0.6-0.6-0.6-1.6,0-2.3c0.6-0.6,1.6-0.6,2.3,0l2.6,2.6
					c0.6,0.6,0.6,1.6,0,2.3C51.2,67.3,50.8,67.5,50.4,67.5L50.4,67.5z"/>
			</g>
		</g>
		<g>
			<g>
				<path fill="#404447" d="M48.1,53.1c-0.4,0-0.8-0.2-1.1-0.5c-0.6-0.6-0.6-1.6,0-2.3l2.2-2.2c0.6-0.6,1.6-0.6,2.3,0
					c0.6,0.6,0.6,1.6,0,2.3l-2.2,2.2C49,52.9,48.6,53.1,48.1,53.1L48.1,53.1z"/>
			</g>
			<g>
				<path fill="#404447" d="M33.8,67.5c-0.4,0-0.8-0.2-1.1-0.5c-0.6-0.6-0.6-1.6,0-2.3l2.7-2.6c0.6-0.6,1.6-0.6,2.3,0
					c0.6,0.6,0.6,1.6,0,2.3L34.9,67C34.6,67.3,34.2,67.5,33.8,67.5L33.8,67.5z"/>
			</g>
		</g>
		<g>
			<g>
				<path fill="#404447" d="M42.1,50.6c-0.9,0-1.6-0.7-1.6-1.6v-3.2c0-0.9,0.7-1.6,1.6-1.6c0.9,0,1.6,0.7,1.6,1.6V49
					C43.7,49.8,43,50.6,42.1,50.6L42.1,50.6z"/>
			</g>
			<g>
				<path fill="#404447" d="M42.1,70.9L42.1,70.9c-0.9,0-1.6-0.7-1.6-1.6l0-3.7c0-0.9,0.7-1.6,1.6-1.6l0,0c0.9,0,1.6,0.7,1.6,1.6
					l0,3.7C43.7,70.2,43,70.9,42.1,70.9L42.1,70.9z"/>
			</g>
		</g>
		<g>
			<g>
				<path fill="#404447" d="M53.8,59.1h-3.2c-0.9,0-1.6-0.7-1.6-1.6c0-0.9,0.7-1.6,1.6-1.6h3.2c0.9,0,1.6,0.7,1.6,1.6
					C55.4,58.4,54.7,59.1,53.8,59.1L53.8,59.1z"/>
			</g>
			<g>
				<path fill="#404447" d="M34.1,59.1h-3.7c-0.9,0-1.6-0.7-1.6-1.6c0-0.9,0.7-1.6,1.6-1.6h3.7c0.9,0,1.6,0.7,1.6,1.6
					C35.7,58.4,35,59.1,34.1,59.1L34.1,59.1z"/>
			</g>
		</g>
	</g>
</g>
</svg>
