<?xml version="1.0" encoding="utf-8"?>
<!-- Generator: Adobe Illustrator 19.1.0, SVG Export Plug-In . SVG Version: 6.00 Build 0)  -->
<svg version="1.1" id="Layer_1" xmlns="http://www.w3.org/2000/svg" xmlns:xlink="http://www.w3.org/1999/xlink" x="0px" y="0px"
	 viewBox="0 0 133.4 133.4" enable-background="new 0 0 133.4 133.4" xml:space="preserve">
<g>
	<g>
		<rect x="0" y="0" fill="#FFFFFF" width="133.4" height="133.4"/>
		<g>
			<path fill="#445464" d="M21.2,118.1L21.2,118.1c0-3.3,2.1-5,4.4-5c1.5,0,2.4,0.7,3,1.4v-4.8h2.7v13.1h-2.7v-1.4
				c-0.7,0.9-1.6,1.6-3,1.6C23.4,123.1,21.2,121.3,21.2,118.1z M28.7,118.1L28.7,118.1c0-1.6-1.1-2.7-2.3-2.7s-2.4,1-2.4,2.7v0
				c0,1.6,1.1,2.7,2.4,2.7S28.7,119.7,28.7,118.1z"/>
			<path fill="#445464" d="M33.2,120.1L33.2,120.1c0-2.1,1.6-3.1,3.9-3.1c1,0,1.7,0.2,2.4,0.4v-0.2c0-1.1-0.7-1.8-2.1-1.8
				c-1,0-1.8,0.2-2.7,0.5l-0.7-2.1c1.1-0.5,2.1-0.8,3.7-0.8c1.5,0,2.6,0.4,3.3,1.1c0.7,0.7,1,1.8,1,3.1v5.6h-2.6v-1
				c-0.7,0.7-1.6,1.2-2.9,1.2C34.7,123.1,33.2,122,33.2,120.1z M39.5,119.5V119c-0.5-0.2-1.1-0.4-1.7-0.4c-1.2,0-1.9,0.5-1.9,1.3v0
				c0,0.7,0.6,1.2,1.5,1.2C38.6,121.2,39.5,120.5,39.5,119.5z"/>
			<path fill="#445464" d="M44.8,120.2v-4.6h-1.2v-2.3h1.2v-2.5h2.7v2.5h2.3v2.3h-2.3v4.1c0,0.6,0.3,0.9,0.9,0.9
				c0.5,0,1-0.1,1.3-0.3v2.2c-0.6,0.3-1.2,0.6-2.2,0.6C46,123.1,44.8,122.4,44.8,120.2z"/>
			<path fill="#445464" d="M51.3,120.1L51.3,120.1c0-2.1,1.6-3.1,3.9-3.1c1,0,1.7,0.2,2.4,0.4v-0.2c0-1.1-0.7-1.8-2.1-1.8
				c-1,0-1.8,0.2-2.7,0.5l-0.7-2.1c1.1-0.5,2.1-0.8,3.7-0.8c1.5,0,2.6,0.4,3.3,1.1c0.7,0.7,1,1.8,1,3.1v5.6h-2.6v-1
				c-0.7,0.7-1.6,1.2-2.9,1.2C52.8,123.1,51.3,122,51.3,120.1z M57.6,119.5V119c-0.5-0.2-1.1-0.4-1.7-0.4c-1.2,0-1.9,0.5-1.9,1.3v0
				c0,0.7,0.6,1.2,1.5,1.2C56.7,121.2,57.6,120.5,57.6,119.5z"/>
			<path fill="#445464" d="M67.1,121.6l1.2-1.8c1,0.8,2.1,1.2,3,1.2c0.8,0,1.2-0.3,1.2-0.7v0c0-0.6-0.9-0.8-2-1.1
				c-1.4-0.4-2.9-1-2.9-2.9v0c0-2,1.6-3.1,3.5-3.1c1.2,0,2.6,0.4,3.6,1.1l-1,1.9c-1-0.6-1.9-0.9-2.6-0.9c-0.7,0-1,0.3-1,0.7v0
				c0,0.5,0.9,0.8,2,1.2c1.4,0.5,2.9,1.1,2.9,2.9v0c0,2.1-1.6,3.1-3.7,3.1C69.9,123.1,68.4,122.6,67.1,121.6z"/>
			<path fill="#445464" d="M77.2,120.2v-4.6h-1.2v-2.3h1.2v-2.5h2.7v2.5h2.3v2.3h-2.3v4.1c0,0.6,0.3,0.9,0.9,0.9
				c0.5,0,1-0.1,1.3-0.3v2.2c-0.6,0.3-1.2,0.6-2.2,0.6C78.3,123.1,77.2,122.4,77.2,120.2z"/>
			<path fill="#445464" d="M83.5,118.1L83.5,118.1c0-2.8,2.2-5.1,5.2-5.1c3,0,5.2,2.2,5.2,5v0c0,2.8-2.2,5-5.2,5
				C85.7,123.1,83.5,120.9,83.5,118.1z M91.2,118.1L91.2,118.1c0-1.5-1-2.7-2.5-2.7c-1.6,0-2.5,1.2-2.5,2.6v0c0,1.4,1,2.7,2.5,2.7
				C90.3,120.7,91.2,119.5,91.2,118.1z"/>
			<path fill="#445464" d="M95.9,113.2h2.7v1.9c0.6-1.3,1.5-2.2,3.1-2.1v2.9h-0.1c-1.8,0-2.9,1.1-2.9,3.4v3.6h-2.7V113.2z"/>
			<path fill="#445464" d="M102.7,118.1L102.7,118.1c0-2.8,2-5.1,4.8-5.1c3.2,0,4.7,2.5,4.7,5.2c0,0.2,0,0.5,0,0.7h-6.7
				c0.3,1.2,1.1,1.9,2.4,1.9c0.9,0,1.6-0.3,2.3-1l1.6,1.4c-0.9,1.1-2.2,1.8-3.9,1.8C104.8,123.1,102.7,121.1,102.7,118.1z
				 M109.5,117.3c-0.2-1.2-0.9-2.1-2-2.1c-1.1,0-1.9,0.8-2.1,2.1H109.5z"/>
		</g>
	</g>
	<g>
		<path fill="#445464" d="M66.4,79.8c9.2,0,16.9-2.5,19.7-5.9v-5.4c-0.1-0.1-0.2-0.3-0.3-0.4C83,71.7,75.2,74.1,66,74.1
			c-8.8,0-16.3-2.3-19.3-5.5c0,0,0,0-0.1,0.1v5.1C49.2,77.3,57.1,79.8,66.4,79.8z"/>
		<path fill="#445464" d="M51.3,65.5c3.8,1.6,9.1,2.7,15.1,2.7c5.9,0,11.3-1,15.1-2.7c1.7-0.8,3.1-1.7,4.1-2.6
			c0.2-0.2,0.3-0.4,0.5-0.5v-5.4c-0.1-0.1-0.2-0.3-0.3-0.4c-1,1.2-2.6,2.3-4.6,3.2c-3.8,1.6-9.1,2.7-15.1,2.7
			c-5.9,0-11.3-1-15.1-2.7C49.1,59,47.6,58,46.7,57c0,0,0,0-0.1,0.1v5.1c0.1,0.1,0.1,0.2,0.2,0.3C47.8,63.5,49.3,64.6,51.3,65.5z"/>
		<path fill="#445464" d="M51.5,53.7c3.6,1.7,8.9,2.8,14.8,2.8c6,0,11.3-1.1,14.9-2.8c1.8-0.9,3.1-1.9,3.9-3
			c0.5-0.7,0.7-1.4,0.7-2.2c0-4.4-8.7-8.1-19.5-8.1c-10.8,0-19.5,3.6-19.5,8.1c0,0.6,0.2,1.2,0.5,1.8C48,51.5,49.4,52.7,51.5,53.7z"
			/>
		<path fill="#445464" d="M100.2,23.8H32.9c-1.7,0-3.1,1.4-3.1,3.1v67.3c0,1.7,1.4,3.1,3.1,3.1h67.3c1.7,0,3.1-1.4,3.1-3.1V26.9
			C103.3,25.2,101.9,23.8,100.2,23.8z M97.1,91.1H36V30h61.1V91.1z"/>
	</g>
</g>
</svg>
