<?xml version="1.0" encoding="utf-8"?>
<!-- Generator: Adobe Illustrator 19.1.0, SVG Export Plug-In . SVG Version: 6.00 Build 0)  -->
<svg version="1.1" id="Layer_1" xmlns="http://www.w3.org/2000/svg" xmlns:xlink="http://www.w3.org/1999/xlink" x="0px" y="0px"
	 viewBox="0 0 169.2 169.2" enable-background="new 0 0 169.2 169.2" xml:space="preserve">
<g>
	<rect fill="#FFFFFF" width="169.2" height="169.2"/>
	<g>
		<path fill="#404447" d="M36.8,151.1L36.8,151.1c0-3.3,2.1-5,4.4-5c1.5,0,2.4,0.7,3,1.4v-4.8h2.7v13.1h-2.7v-1.4
			c-0.7,0.9-1.6,1.6-3,1.6C38.9,156.1,36.8,154.3,36.8,151.1z M44.2,151.1L44.2,151.1c0-1.6-1.1-2.7-2.3-2.7s-2.4,1-2.4,2.7v0
			c0,1.6,1.1,2.7,2.4,2.7S44.2,152.7,44.2,151.1z"/>
		<path fill="#404447" d="M48.9,151.1L48.9,151.1c0-2.8,2-5.1,4.8-5.1c3.2,0,4.7,2.5,4.7,5.2c0,0.2,0,0.5,0,0.7h-6.7
			c0.3,1.2,1.1,1.9,2.4,1.9c0.9,0,1.6-0.3,2.3-1l1.6,1.4c-0.9,1.1-2.2,1.8-3.9,1.8C51,156.1,48.9,154.1,48.9,151.1z M55.7,150.3
			c-0.2-1.2-0.9-2.1-2-2.1c-1.1,0-1.9,0.8-2.1,2.1H55.7z"/>
		<path fill="#404447" d="M60.9,148.6h-1.1v-2.3h1.1v-0.6c0-1.1,0.3-1.8,0.8-2.3c0.5-0.5,1.2-0.8,2.2-0.8c0.9,0,1.4,0.1,1.9,0.3v2.3
			c-0.4-0.1-0.8-0.2-1.2-0.2c-0.6,0-1,0.3-1,1v0.4h2.2v2.2h-2.2v7.3h-2.7V148.6z"/>
		<path fill="#404447" d="M67.3,142.8h2.9v2.4h-2.9V142.8z M67.4,146.2h2.7v9.7h-2.7V146.2z"/>
		<path fill="#404447" d="M72.7,146.2h2.7v1.4c0.6-0.8,1.4-1.5,2.8-1.5c2.1,0,3.3,1.4,3.3,3.6v6.2h-2.7v-5.4c0-1.3-0.6-2-1.7-2
			s-1.7,0.7-1.7,2v5.4h-2.7V146.2z"/>
		<path fill="#404447" d="M84,142.8h2.9v2.4H84V142.8z M84,146.2h2.7v9.7H84V146.2z"/>
		<path fill="#404447" d="M89.8,153.2v-4.6h-1.2v-2.3h1.2v-2.5h2.7v2.5h2.3v2.3h-2.3v4.1c0,0.6,0.3,0.9,0.9,0.9c0.5,0,1-0.1,1.4-0.3
			v2.2c-0.6,0.3-1.2,0.6-2.2,0.6C90.9,156.1,89.8,155.4,89.8,153.2z"/>
		<path fill="#404447" d="M96.9,142.8h2.9v2.4h-2.9V142.8z M97,146.2h2.7v9.7H97V146.2z"/>
		<path fill="#404447" d="M101.8,151.1L101.8,151.1c0-2.8,2.2-5.1,5.2-5.1c3,0,5.2,2.2,5.2,5v0c0,2.8-2.2,5-5.2,5
			C104,156.1,101.8,153.9,101.8,151.1z M109.5,151.1L109.5,151.1c0-1.5-1-2.7-2.5-2.7c-1.6,0-2.5,1.2-2.5,2.6v0c0,1.4,1,2.7,2.5,2.7
			C108.6,153.8,109.5,152.5,109.5,151.1z"/>
		<path fill="#404447" d="M114.2,146.2h2.7v1.4c0.6-0.8,1.4-1.5,2.8-1.5c2.1,0,3.3,1.4,3.3,3.6v6.2h-2.7v-5.4c0-1.3-0.6-2-1.7-2
			s-1.7,0.7-1.7,2v5.4h-2.7V146.2z"/>
		<path fill="#404447" d="M124.7,154.6l1.2-1.8c1,0.8,2.1,1.2,3,1.2c0.8,0,1.2-0.3,1.2-0.7v0c0-0.6-0.9-0.8-2-1.1
			c-1.3-0.4-2.9-1-2.9-2.9v0c0-2,1.6-3.1,3.5-3.1c1.2,0,2.6,0.4,3.6,1.1l-1,1.9c-1-0.6-1.9-0.9-2.6-0.9c-0.7,0-1,0.3-1,0.7v0
			c0,0.5,0.9,0.8,2,1.2c1.4,0.5,2.9,1.1,2.9,2.9v0c0,2.1-1.6,3.1-3.7,3.1C127.5,156.1,126,155.6,124.7,154.6z"/>
	</g>
</g>
<g>
	<g>
		<g>
			<path fill="#404447" d="M84.9,82.7c-0.4,0-0.7-0.1-1-0.3L59,68.5c-0.7-0.4-1.1-1.1-1.1-1.9c0-0.8,0.4-1.5,1.1-1.9L83.6,51
				c0.6-0.4,1.4-0.4,2.1,0l24.8,13.9c0.7,0.4,1.1,1.1,1.1,1.9s-0.4,1.5-1.1,1.9L85.9,82.4C85.6,82.6,85.2,82.7,84.9,82.7L84.9,82.7z
				 M64.4,66.7l20.5,11.5l20.3-11.4L84.7,55.3L64.4,66.7L64.4,66.7z"/>
		</g>
		<g>
			<path fill="#404447" d="M84.9,92.3c-0.4,0-0.7-0.1-1-0.3L59,78.1c-1-0.6-1.4-1.9-0.8-2.9c0.6-1,1.9-1.4,2.9-0.8l23.8,13.3
				l23.6-13.2c1-0.6,2.3-0.2,2.9,0.8c0.6,1,0.2,2.3-0.8,2.9L85.9,92C85.6,92.2,85.2,92.3,84.9,92.3L84.9,92.3z"/>
		</g>
		<g>
			<path fill="#404447" d="M84.9,101.9c-0.4,0-0.7-0.1-1-0.3L59,87.7c-1-0.6-1.4-1.9-0.8-2.9c0.6-1,1.9-1.4,2.9-0.8l23.8,13.3
				l23.6-13.2c1-0.6,2.3-0.2,2.9,0.8c0.6,1,0.2,2.3-0.8,2.9l-24.6,13.8C85.6,101.8,85.2,101.9,84.9,101.9L84.9,101.9z"/>
		</g>
	</g>
	<g>
		<path fill="#404447" d="M128.4,123.9H41.6c-2.2,0-4-1.8-4-4V33.1c0-2.2,1.8-4,4-4h86.8c2.2,0,4,1.8,4,4v86.8
			C132.3,122.1,130.6,123.9,128.4,123.9L128.4,123.9z M45.6,116h78.8V37.1H45.6V116L45.6,116z"/>
	</g>
</g>
</svg>
