<?xml version="1.0" encoding="utf-8"?>
<!-- Generator: Adobe Illustrator 19.1.0, SVG Export Plug-In . SVG Version: 6.00 Build 0)  -->
<svg version="1.1" id="Layer_1" xmlns="http://www.w3.org/2000/svg" xmlns:xlink="http://www.w3.org/1999/xlink" x="0px" y="0px"
	 viewBox="0 0 169.2 169.2" enable-background="new 0 0 169.2 169.2" xml:space="preserve">
<g>
	<rect fill="#FFFFFF" width="169.2" height="169.2"/>
	<g>
		<path fill="#404447" d="M39.5,154.6v1.3h-2.7v-13.1h2.7v4.9c0.7-0.9,1.6-1.6,3-1.6c2.3,0,4.4,1.8,4.4,5v0c0,3.2-2.1,5-4.4,5
			C41,156.1,40.1,155.4,39.5,154.6z M44.1,151.1L44.1,151.1c0-1.6-1.1-2.7-2.4-2.7c-1.3,0-2.3,1.1-2.3,2.7v0c0,1.6,1.1,2.7,2.3,2.7
			C43.1,153.8,44.1,152.7,44.1,151.1z"/>
		<path fill="#404447" d="M48.3,153.1L48.3,153.1c0-2.1,1.6-3.1,3.9-3.1c1,0,1.7,0.2,2.4,0.4v-0.2c0-1.1-0.7-1.8-2.1-1.8
			c-1,0-1.8,0.2-2.7,0.5l-0.7-2.1c1.1-0.5,2.1-0.8,3.7-0.8c1.5,0,2.6,0.4,3.3,1.1c0.7,0.7,1,1.8,1,3.1v5.6h-2.6v-1
			c-0.7,0.7-1.6,1.2-2.9,1.2C49.8,156.1,48.3,155,48.3,153.1z M54.6,152.5V152c-0.5-0.2-1.1-0.4-1.7-0.4c-1.2,0-1.9,0.5-1.9,1.3v0
			c0,0.7,0.6,1.2,1.5,1.2C53.7,154.2,54.6,153.5,54.6,152.5z"/>
		<path fill="#404447" d="M59.6,146.2h2.7v1.9c0.6-1.3,1.5-2.2,3.1-2.1v2.9h-0.1c-1.8,0-2.9,1.1-2.9,3.4v3.6h-2.7V146.2z"/>
		<path fill="#404447" d="M66.3,151.1L66.3,151.1c0-2.8,2-5.1,4.8-5.1c3.2,0,4.7,2.5,4.7,5.2c0,0.2,0,0.5,0,0.7h-6.7
			c0.3,1.2,1.1,1.9,2.4,1.9c0.9,0,1.6-0.3,2.3-1l1.6,1.4c-0.9,1.1-2.2,1.8-3.9,1.8C68.5,156.1,66.3,154.1,66.3,151.1z M73.1,150.3
			c-0.2-1.2-0.9-2.1-2-2.1c-1.1,0-1.9,0.8-2.1,2.1H73.1z"/>
		<path fill="#404447" d="M83.2,146.2H86v1.4c0.6-0.8,1.5-1.5,2.8-1.5c1.3,0,2.2,0.6,2.7,1.5c0.8-1,1.9-1.5,3.2-1.5
			c2,0,3.3,1.2,3.3,3.5v6.3h-2.7v-5.4c0-1.3-0.6-2-1.6-2c-1,0-1.7,0.7-1.7,2v5.4h-2.7v-5.4c0-1.3-0.6-2-1.6-2s-1.7,0.7-1.7,2v5.4
			h-2.7V146.2z"/>
		<path fill="#404447" d="M99.9,151.1L99.9,151.1c0-2.8,2-5.1,4.8-5.1c3.2,0,4.7,2.5,4.7,5.2c0,0.2,0,0.5,0,0.7h-6.7
			c0.3,1.2,1.1,1.9,2.4,1.9c0.9,0,1.6-0.3,2.3-1l1.6,1.4c-0.9,1.1-2.2,1.8-3.9,1.8C102,156.1,99.9,154.1,99.9,151.1z M106.7,150.3
			c-0.2-1.2-0.9-2.1-2-2.1c-1.1,0-1.9,0.8-2.1,2.1H106.7z"/>
		<path fill="#404447" d="M111.8,153.2v-4.6h-1.2v-2.3h1.2v-2.5h2.7v2.5h2.3v2.3h-2.3v4.1c0,0.6,0.3,0.9,0.9,0.9
			c0.5,0,1-0.1,1.4-0.3v2.2c-0.6,0.3-1.2,0.6-2.2,0.6C113,156.1,111.8,155.4,111.8,153.2z"/>
		<path fill="#404447" d="M118.3,153.1L118.3,153.1c0-2.1,1.6-3.1,3.9-3.1c1,0,1.7,0.2,2.4,0.4v-0.2c0-1.1-0.7-1.8-2.1-1.8
			c-1,0-1.8,0.2-2.7,0.5l-0.7-2.1c1.1-0.5,2.1-0.8,3.7-0.8c1.5,0,2.6,0.4,3.3,1.1c0.7,0.7,1,1.8,1,3.1v5.6h-2.6v-1
			c-0.7,0.7-1.6,1.2-2.9,1.2C119.8,156.1,118.3,155,118.3,153.1z M124.6,152.5V152c-0.5-0.2-1.1-0.4-1.7-0.4c-1.2,0-1.9,0.5-1.9,1.3
			v0c0,0.7,0.6,1.2,1.5,1.2C123.7,154.2,124.6,153.5,124.6,152.5z"/>
		<path fill="#404447" d="M129.6,142.8h2.7v13.1h-2.7V142.8z"/>
	</g>
</g>
<g>
	<g>
		<g>
			<path fill="#404447" d="M41.4,56.9c-2.1,0-3.8-1.7-3.8-3.8V37.2c0-2.1,1.7-3.8,3.8-3.8h15.9c2.1,0,3.8,1.7,3.8,3.8
				c0,2.1-1.7,3.8-3.8,3.8H45.1v12.1C45.1,55.2,43.5,56.9,41.4,56.9L41.4,56.9z"/>
		</g>
		<g>
			<path fill="#404447" d="M124.2,56.9c-2.1,0-3.8-1.7-3.8-3.8V41h-12.1c-2.1,0-3.8-1.7-3.8-3.8c0-2.1,1.7-3.8,3.8-3.8h15.9
				c2.1,0,3.8,1.7,3.8,3.8v15.9C128,55.2,126.3,56.9,124.2,56.9L124.2,56.9z"/>
		</g>
		<g>
			<path fill="#404447" d="M57.3,123.4H41.4c-2.1,0-3.8-1.7-3.8-3.8v-15.9c0-2.1,1.7-3.8,3.8-3.8s3.8,1.7,3.8,3.8v12.1h12.1
				c2.1,0,3.8,1.7,3.8,3.8C61.1,121.7,59.4,123.4,57.3,123.4L57.3,123.4z"/>
		</g>
		<g>
			<path fill="#404447" d="M124.2,123.4h-15.9c-2.1,0-3.8-1.7-3.8-3.8c0-2.1,1.7-3.8,3.8-3.8h12.1v-12.1c0-2.1,1.7-3.8,3.8-3.8
				c2.1,0,3.8,1.7,3.8,3.8v15.9C128,121.7,126.3,123.4,124.2,123.4L124.2,123.4z"/>
		</g>
	</g>
	<g>
		<path fill="#404447" d="M109,108.4H56.6c-2.1,0-3.8-1.7-3.8-3.8V52.2c0-2.1,1.7-3.8,3.8-3.8H109c2.1,0,3.8,1.7,3.8,3.8v52.4
			C112.8,106.7,111.1,108.4,109,108.4L109,108.4z M60.4,100.8h44.9V56H60.4V100.8L60.4,100.8z"/>
	</g>
</g>
</svg>
