<?xml version="1.0" encoding="utf-8"?>
<!-- Generator: Adobe Illustrator 19.1.0, SVG Export Plug-In . SVG Version: 6.00 Build 0)  -->
<svg version="1.1" id="Layer_1" xmlns="http://www.w3.org/2000/svg" xmlns:xlink="http://www.w3.org/1999/xlink" x="0px" y="0px"
	 viewBox="0 0 169.2 169.2" enable-background="new 0 0 169.2 169.2" xml:space="preserve">
<g>
	<rect fill="#FFFFFF" width="169.2" height="169.2"/>
	<g>
		<path fill="#404447" d="M17.9,154.6l1.2-1.8c1,0.8,2.1,1.2,3,1.2c0.8,0,1.2-0.3,1.2-0.7v0c0-0.6-0.9-0.8-2-1.1
			c-1.4-0.4-2.9-1-2.9-2.9v0c0-2,1.6-3.1,3.5-3.1c1.2,0,2.6,0.4,3.6,1.1l-1,1.9c-1-0.6-1.9-0.9-2.6-0.9c-0.7,0-1,0.3-1,0.7v0
			c0,0.5,0.9,0.8,2,1.2c1.4,0.5,2.9,1.1,2.9,2.9v0c0,2.1-1.6,3.1-3.7,3.1C20.7,156.1,19.2,155.6,17.9,154.6z"/>
		<path fill="#404447" d="M28,153.2v-4.6h-1.2v-2.3H28v-2.5h2.7v2.5H33v2.3h-2.3v4.1c0,0.6,0.3,0.9,0.9,0.9c0.5,0,1-0.1,1.4-0.3v2.2
			c-0.6,0.3-1.2,0.6-2.2,0.6C29.1,156.1,28,155.4,28,153.2z"/>
		<path fill="#404447" d="M34.3,151.1L34.3,151.1c0-2.8,2.2-5.1,5.2-5.1c3,0,5.2,2.2,5.2,5v0c0,2.8-2.2,5-5.2,5
			C36.5,156.1,34.3,153.9,34.3,151.1z M42,151.1L42,151.1c0-1.5-1-2.7-2.5-2.7c-1.6,0-2.5,1.2-2.5,2.6v0c0,1.4,1,2.7,2.5,2.7
			C41.1,153.8,42,152.5,42,151.1z"/>
		<path fill="#404447" d="M46.7,146.2h2.7v1.9c0.6-1.3,1.5-2.2,3.1-2.1v2.9h-0.1c-1.8,0-2.9,1.1-2.9,3.4v3.6h-2.7V146.2z"/>
		<path fill="#404447" d="M53.2,153.1L53.2,153.1c0-2.1,1.6-3.1,3.9-3.1c1,0,1.7,0.2,2.4,0.4v-0.2c0-1.1-0.7-1.8-2.1-1.8
			c-1,0-1.8,0.2-2.7,0.5l-0.7-2.1c1.1-0.5,2.1-0.8,3.7-0.8c1.5,0,2.6,0.4,3.3,1.1c0.7,0.7,1,1.8,1,3.1v5.6h-2.6v-1
			c-0.7,0.7-1.6,1.2-2.9,1.2C54.7,156.1,53.2,155,53.2,153.1z M59.5,152.5V152c-0.5-0.2-1.1-0.4-1.7-0.4c-1.2,0-1.9,0.5-1.9,1.3v0
			c0,0.7,0.6,1.2,1.5,1.2C58.6,154.2,59.5,153.5,59.5,152.5z"/>
		<path fill="#404447" d="M64.5,157.8l0.9-2.1c1,0.6,2,0.9,3.3,0.9c1.9,0,2.8-0.9,2.8-2.6v-0.5c-0.8,1-1.7,1.6-3.2,1.6
			c-2.2,0-4.3-1.6-4.3-4.5v0c0-2.9,2.1-4.5,4.3-4.5c1.5,0,2.4,0.6,3.1,1.4v-1.3h2.7v7.5c0,1.7-0.4,3-1.2,3.8
			c-0.9,0.9-2.3,1.3-4.2,1.3C67.2,158.8,65.7,158.5,64.5,157.8z M71.4,150.6L71.4,150.6c0-1.4-1-2.3-2.4-2.3s-2.3,0.9-2.3,2.2v0
			c0,1.3,1,2.2,2.3,2.2S71.4,151.9,71.4,150.6z"/>
		<path fill="#404447" d="M76.1,151.1L76.1,151.1c0-2.8,2-5.1,4.8-5.1c3.2,0,4.7,2.5,4.7,5.2c0,0.2,0,0.5,0,0.7h-6.7
			c0.3,1.2,1.1,1.9,2.4,1.9c0.9,0,1.6-0.3,2.3-1l1.6,1.4c-0.9,1.1-2.2,1.8-3.9,1.8C78.2,156.1,76.1,154.1,76.1,151.1z M82.9,150.3
			c-0.2-1.2-0.9-2.1-2-2.1c-1.1,0-1.9,0.8-2.1,2.1H82.9z"/>
		<path fill="#404447" d="M92.6,151.1L92.6,151.1c0-3.3,2.1-5,4.4-5c1.5,0,2.4,0.7,3,1.4v-4.8h2.7v13.1H100v-1.4
			c-0.7,0.9-1.6,1.6-3,1.6C94.7,156.1,92.6,154.3,92.6,151.1z M100,151.1L100,151.1c0-1.6-1.1-2.7-2.3-2.7s-2.4,1-2.4,2.7v0
			c0,1.6,1.1,2.7,2.4,2.7S100,152.7,100,151.1z"/>
		<path fill="#404447" d="M104.7,151.1L104.7,151.1c0-2.8,2-5.1,4.8-5.1c3.2,0,4.7,2.5,4.7,5.2c0,0.2,0,0.5,0,0.7h-6.7
			c0.3,1.2,1.1,1.9,2.4,1.9c0.9,0,1.6-0.3,2.3-1l1.6,1.4c-0.9,1.1-2.2,1.8-3.9,1.8C106.8,156.1,104.7,154.1,104.7,151.1z
			 M111.5,150.3c-0.2-1.2-0.9-2.1-2-2.1c-1.1,0-1.9,0.8-2.1,2.1H111.5z"/>
		<path fill="#404447" d="M114.9,146.2h2.9l2.2,6.5l2.2-6.5h2.8l-3.8,9.7h-2.5L114.9,146.2z"/>
		<path fill="#404447" d="M126.6,142.8h2.9v2.4h-2.9V142.8z M126.7,146.2h2.7v9.7h-2.7V146.2z"/>
		<path fill="#404447" d="M131.5,151.1L131.5,151.1c0-2.8,2.1-5.1,5.1-5.1c1.8,0,3,0.6,3.9,1.6l-1.7,1.8c-0.6-0.6-1.2-1.1-2.2-1.1
			c-1.4,0-2.3,1.2-2.3,2.6v0c0,1.5,1,2.7,2.4,2.7c0.9,0,1.5-0.4,2.2-1l1.6,1.6c-0.9,1-2,1.8-3.9,1.8
			C133.6,156.1,131.5,153.9,131.5,151.1z"/>
		<path fill="#404447" d="M141.5,151.1L141.5,151.1c0-2.8,2-5.1,4.8-5.1c3.2,0,4.7,2.5,4.7,5.2c0,0.2,0,0.5,0,0.7h-6.7
			c0.3,1.2,1.1,1.9,2.4,1.9c0.9,0,1.6-0.3,2.3-1l1.6,1.4c-0.9,1.1-2.2,1.8-3.9,1.8C143.7,156.1,141.5,154.1,141.5,151.1z
			 M148.3,150.3c-0.2-1.2-0.9-2.1-2-2.1c-1.1,0-1.9,0.8-2.1,2.1H148.3z"/>
	</g>
</g>
<g>
	<path fill="#404447" d="M84.7,99.6c11.6,0,21.5-3.1,24.9-7.4v-6.8c-0.1-0.2-0.3-0.3-0.4-0.5c-3.4,4.4-13.3,7.5-25,7.5
		c-11.2,0-20.7-2.9-24.5-6.9c0,0-0.1,0.1-0.1,0.1V92C63,96.4,72.9,99.6,84.7,99.6z"/>
	<path fill="#404447" d="M65.6,81.4c4.8,2.1,11.6,3.4,19.1,3.4s14.3-1.3,19.1-3.4c2.2-1,4-2.1,5.2-3.3c0.2-0.2,0.4-0.5,0.6-0.7v-6.8
		c-0.1-0.2-0.3-0.3-0.4-0.5c-1.2,1.5-3.2,2.9-5.9,4.1c-4.8,2.1-11.6,3.4-19.1,3.4c-7.5,0-14.3-1.3-19.1-3.4c-2.3-1-4.2-2.2-5.4-3.5
		c0,0-0.1,0.1-0.1,0.1v6.5c0.1,0.1,0.2,0.2,0.3,0.3C61.1,78.9,63.1,80.3,65.6,81.4z"/>
	<path fill="#404447" d="M65.8,66.4c4.5,2.2,11.3,3.5,18.8,3.5c7.6,0,14.3-1.4,18.9-3.6c2.3-1.1,4-2.4,5-3.9
		c0.6-0.9,0.9-1.8,0.9-2.8c0-5.6-11.1-10.2-24.8-10.2c-13.7,0-24.8,4.6-24.8,10.2c0,0.8,0.2,1.6,0.6,2.3
		C61.4,63.7,63.2,65.2,65.8,66.4z"/>
	<path fill="#404447" d="M127.6,28.6H42.3c-2.2,0-3.9,1.7-3.9,3.9v85.3c0,2.2,1.8,3.9,3.9,3.9h85.3c2.2,0,3.9-1.8,3.9-3.9V32.5
		C131.5,30.3,129.8,28.6,127.6,28.6z M123.7,113.9H46.2V36.4h77.5V113.9z"/>
</g>
</svg>
