<?xml version="1.0" encoding="utf-8"?>
<!-- Generator: Adobe Illustrator 19.1.0, SVG Export Plug-In . SVG Version: 6.00 Build 0)  -->
<svg version="1.1" id="Layer_1" xmlns="http://www.w3.org/2000/svg" xmlns:xlink="http://www.w3.org/1999/xlink" x="0px" y="0px"
	 viewBox="0 0 133.4 133.4" enable-background="new 0 0 133.4 133.4" xml:space="preserve">
<g>
	<rect x="0" y="0" fill="#FFFFFF" width="133.4" height="133.4"/>
	<g>
		<g>
			<path fill="#445464" d="M31.8,122.6l1.2-1.8c1,0.8,2.1,1.2,3,1.2c0.8,0,1.2-0.3,1.2-0.7v0c0-0.6-0.9-0.8-2-1.1
				c-1.4-0.4-2.9-1-2.9-2.9v0c0-2,1.6-3.1,3.5-3.1c1.2,0,2.6,0.4,3.6,1.1l-1,1.9c-1-0.6-1.9-0.9-2.6-0.9c-0.7,0-1,0.3-1,0.7v0
				c0,0.5,0.9,0.8,2,1.2c1.4,0.5,2.9,1.1,2.9,2.9v0c0,2.1-1.6,3.1-3.7,3.1C34.5,124,33,123.6,31.8,122.6z"/>
			<path fill="#445464" d="M41.1,119.1L41.1,119.1c0-2.8,2-5.1,4.8-5.1c3.2,0,4.7,2.5,4.7,5.2c0,0.2,0,0.5,0,0.7h-6.7
				c0.3,1.2,1.1,1.9,2.4,1.9c0.9,0,1.6-0.3,2.3-1l1.6,1.4c-0.9,1.1-2.2,1.8-3.9,1.8C43.2,124.1,41.1,122,41.1,119.1z M47.9,118.3
				c-0.2-1.2-0.9-2.1-2-2.1c-1.1,0-1.9,0.8-2.1,2.1H47.9z"/>
			<path fill="#445464" d="M52.6,114.2h2.7v1.9c0.6-1.3,1.5-2.2,3.1-2.1v2.9h-0.1c-1.8,0-2.9,1.1-2.9,3.4v3.6h-2.7V114.2z"/>
			<path fill="#445464" d="M59.2,114.2h2.9l2.2,6.5l2.2-6.5h2.8l-3.8,9.7H63L59.2,114.2z"/>
			<path fill="#445464" d="M71,110.7h2.9v2.4H71V110.7z M71,114.2h2.7v9.7H71V114.2z"/>
			<path fill="#445464" d="M75.9,119.1L75.9,119.1c0-2.8,2.1-5.1,5.1-5.1c1.8,0,3,0.6,3.9,1.6l-1.7,1.8c-0.6-0.6-1.2-1.1-2.2-1.1
				c-1.4,0-2.3,1.2-2.3,2.6v0c0,1.5,1,2.7,2.4,2.7c0.9,0,1.5-0.4,2.2-1l1.6,1.6c-0.9,1-2,1.8-3.9,1.8
				C78,124.1,75.9,121.8,75.9,119.1z"/>
			<path fill="#445464" d="M85.9,119.1L85.9,119.1c0-2.8,2-5.1,4.8-5.1c3.2,0,4.7,2.5,4.7,5.2c0,0.2,0,0.5,0,0.7h-6.7
				c0.3,1.2,1.1,1.9,2.4,1.9c0.9,0,1.6-0.3,2.3-1l1.6,1.4c-0.9,1.1-2.2,1.8-3.9,1.8C88,124.1,85.9,122,85.9,119.1z M92.7,118.3
				c-0.2-1.2-0.9-2.1-2-2.1c-1.1,0-1.9,0.8-2.1,2.1H92.7z"/>
			<path fill="#445464" d="M96.6,122.6l1.2-1.8c1,0.8,2.1,1.2,3,1.2c0.8,0,1.2-0.3,1.2-0.7v0c0-0.6-0.9-0.8-2-1.1
				c-1.4-0.4-2.9-1-2.9-2.9v0c0-2,1.6-3.1,3.5-3.1c1.2,0,2.6,0.4,3.6,1.1l-1,1.9c-1-0.6-1.9-0.9-2.6-0.9c-0.7,0-1,0.3-1,0.7v0
				c0,0.5,0.9,0.8,2,1.2c1.4,0.5,2.9,1.1,2.9,2.9v0c0,2.1-1.6,3.1-3.7,3.1C99.4,124,97.9,123.6,96.6,122.6z"/>
		</g>
		<g>
			<g>
				<g>
					<path fill="#445464" d="M51.3,61.7C41.7,61.7,34,54,34,44.4C34,34.9,41.9,27,51.3,27c9.6,0,17.3,7.7,17.3,17.3
						S60.9,61.7,51.3,61.7L51.3,61.7z M51.3,32.9c-6.5,0-11.6,5.2-11.6,11.6s5.2,11.6,11.6,11.6C57.8,56.2,63,51,63,44.5
						S57.8,32.9,51.3,32.9L51.3,32.9z"/>
				</g>
				<g>
					<g>
						<path fill="#445464" d="M40.5,36.3c-0.8,0-1.4-0.3-2-0.8l-4.1-4.1c-1.1-1.1-1.1-3,0-4.1c1.1-1.1,3-1.1,4.1,0l4.1,4.1
							c1.1,1.1,1.1,3,0,4.1C41.9,36.2,41.2,36.3,40.5,36.3L40.5,36.3z"/>
					</g>
					<g>
						<path fill="#445464" d="M66.3,62.1c-0.8,0-1.4-0.3-2-0.8l-4.7-4.7c-1.1-1.1-1.1-3,0-4.1c1.1-1.1,3-1.1,4.1,0l4.7,4.7
							c1.1,1.1,1.1,3,0,4.1C67.7,62,67,62.1,66.3,62.1L66.3,62.1z"/>
					</g>
				</g>
				<g>
					<g>
						<path fill="#445464" d="M62.3,36.3c-0.8,0-1.4-0.3-2-0.8c-1.1-1.1-1.1-3,0-4.1l4.1-4.1c1.1-1.1,3-1.1,4.1,0s1.1,3,0,4.1
							l-4.1,4.1C63.7,36.2,63,36.3,62.3,36.3L62.3,36.3z"/>
					</g>
					<g>
						<path fill="#445464" d="M36.4,62.1c-0.8,0-1.4-0.3-2-0.8c-1.1-1.1-1.1-3,0-4.1l4.7-4.7c1.1-1.1,3-1.1,4.1,0
							c1.1,1.1,1.1,3,0,4.1l-4.7,4.7C37.9,62,37.1,62.1,36.4,62.1L36.4,62.1z"/>
					</g>
				</g>
				<g>
					<g>
						<path fill="#445464" d="M51.3,31.9c-1.6,0-2.8-1.3-2.8-2.8v-5.7c0-1.6,1.3-2.8,2.8-2.8s2.8,1.3,2.8,2.8v5.7
							C54.3,30.5,52.9,31.9,51.3,31.9L51.3,31.9z"/>
					</g>
					<g>
						<path fill="#445464" d="M51.3,68.4L51.3,68.4c-1.6,0-2.8-1.3-2.8-2.8v-6.8c0-1.6,1.3-2.8,2.8-2.8l0,0c1.6,0,2.8,1.3,2.8,2.8
							v6.8C54.3,67.2,52.9,68.4,51.3,68.4L51.3,68.4z"/>
					</g>
				</g>
				<g>
					<g>
						<path fill="#445464" d="M72.4,47.3h-5.7c-1.6,0-2.8-1.3-2.8-2.8s1.3-2.8,2.8-2.8h5.7c1.6,0,2.8,1.3,2.8,2.8
							C75.4,45.9,74.1,47.3,72.4,47.3L72.4,47.3z"/>
					</g>
					<g>
						<path fill="#445464" d="M37,47.3h-6.8c-1.6,0-2.8-1.3-2.8-2.8s1.3-2.8,2.8-2.8H37c1.6,0,2.8,1.3,2.8,2.8
							C39.8,45.9,38.6,47.3,37,47.3L37,47.3z"/>
					</g>
				</g>
			</g>
			<g>
				<g>
					<path fill="#445464" d="M88.4,79c-7.2,0-13.2-6-13.2-13.2s6-13.2,13.2-13.2s13.2,6,13.2,13.2C101.6,73.2,95.8,79,88.4,79
						L88.4,79z M88.4,57.1c-4.9,0-8.8,3.9-8.8,8.8c0,4.9,3.9,8.8,8.8,8.8s8.8-3.9,8.8-8.8C97.2,61.1,93.2,57.1,88.4,57.1L88.4,57.1z
						"/>
				</g>
				<g>
					<g>
						<path fill="#445464" d="M80.2,59.8c-0.6,0-1.1-0.2-1.6-0.6l-3-3c-0.8-0.8-0.8-2.2,0-3.1c0.8-0.8,2.2-0.8,3.1,0l3,3
							c0.8,0.8,0.8,2.2,0,3.1C81.3,59.5,80.6,59.8,80.2,59.8L80.2,59.8z"/>
					</g>
					<g>
						<path fill="#445464" d="M99.8,79.3c-0.6,0-1.1-0.2-1.6-0.6l-3.6-3.6c-0.8-0.8-0.8-2.2,0-3.1c0.8-0.8,2.2-0.8,3.1,0l3.6,3.6
							c0.8,0.8,0.8,2.2,0,3.1C100.9,79.2,100.3,79.3,99.8,79.3L99.8,79.3z"/>
					</g>
				</g>
				<g>
					<g>
						<path fill="#445464" d="M96.7,59.8c-0.6,0-1.1-0.2-1.6-0.6c-0.8-0.8-0.8-2.2,0-3.1l3-3c0.8-0.8,2.2-0.8,3.1,0
							c0.8,0.8,0.8,2.2,0,3.1l-3,3C97.8,59.5,97.3,59.8,96.7,59.8L96.7,59.8z"/>
					</g>
					<g>
						<path fill="#445464" d="M77,79.3c-0.6,0-1.1-0.2-1.6-0.6c-0.8-0.8-0.8-2.2,0-3.1l3.6-3.6c0.8-0.8,2.2-0.8,3.1,0
							c0.8,0.8,0.8,2.2,0,3.1l-3.6,3.6C78.3,79.2,77.7,79.3,77,79.3L77,79.3z"/>
					</g>
				</g>
				<g>
					<g>
						<path fill="#445464" d="M88.5,56.4c-1.3,0-2.2-0.9-2.2-2.2v-4.2c0-1.3,0.9-2.2,2.2-2.2s2.2,0.9,2.2,2.2v4.2
							C90.6,55.4,89.6,56.4,88.5,56.4L88.5,56.4z"/>
					</g>
					<g>
						<path fill="#445464" d="M88.4,84.1L88.4,84.1c-1.3,0-2.2-0.9-2.2-2.2v-5c0-1.3,0.9-2.2,2.2-2.2l0,0c1.3,0,2.2,0.9,2.2,2.2v5
							C90.6,83.1,89.6,84.1,88.4,84.1L88.4,84.1z"/>
					</g>
				</g>
				<g>
					<g>
						<path fill="#445464" d="M104.4,68h-4.2c-1.3,0-2.2-0.9-2.2-2.2s0.9-2.2,2.2-2.2h4.2c1.3,0,2.2,0.9,2.2,2.2
							C106.6,67.1,105.7,68,104.4,68L104.4,68z"/>
					</g>
					<g>
						<path fill="#445464" d="M77.5,68h-5c-1.3,0-2.2-0.9-2.2-2.2s0.9-2.2,2.2-2.2h5c1.3,0,2.2,0.9,2.2,2.2S78.8,68,77.5,68L77.5,68
							z"/>
					</g>
				</g>
			</g>
			<g>
				<g>
					<path fill="#445464" d="M58.7,89.3c-5.4,0-9.6-4.2-9.6-9.6s4.2-9.6,9.6-9.6s9.6,4.2,9.6,9.6C68.3,85,63.9,89.3,58.7,89.3
						L58.7,89.3z M58.7,73.2c-3.5,0-6.5,2.8-6.5,6.5c0,3.5,2.8,6.5,6.5,6.5c3.5,0,6.5-2.8,6.5-6.5C65.2,76.2,62.2,73.2,58.7,73.2
						L58.7,73.2z"/>
				</g>
				<g>
					<g>
						<path fill="#445464" d="M52.7,75.3c-0.5,0-0.8-0.2-1.1-0.5l-2.2-2.2c-0.6-0.6-0.6-1.6,0-2.2c0.6-0.6,1.6-0.6,2.2,0l2.2,2.2
							c0.6,0.6,0.6,1.6,0,2.2C53.5,75.1,53.1,75.3,52.7,75.3L52.7,75.3z"/>
					</g>
					<g>
						<path fill="#445464" d="M66.9,89.6c-0.5,0-0.8-0.2-1.1-0.5l-2.7-2.7c-0.6-0.6-0.6-1.6,0-2.2c0.6-0.6,1.6-0.6,2.2,0l2.7,2.7
							c0.6,0.6,0.6,1.6,0,2.2C67.7,89.4,67.4,89.6,66.9,89.6L66.9,89.6z"/>
					</g>
				</g>
				<g>
					<g>
						<path fill="#445464" d="M64.7,75.3c-0.5,0-0.8-0.2-1.1-0.5c-0.6-0.6-0.6-1.6,0-2.2l2.2-2.2c0.6-0.6,1.6-0.6,2.2,0
							c0.6,0.6,0.6,1.6,0,2.2l-2.2,2.2C65.5,75.1,65.2,75.3,64.7,75.3L64.7,75.3z"/>
					</g>
					<g>
						<path fill="#445464" d="M50.4,89.6c-0.5,0-0.8-0.2-1.1-0.5c-0.6-0.6-0.6-1.6,0-2.2l2.7-2.7c0.6-0.6,1.6-0.6,2.2,0
							c0.6,0.6,0.6,1.6,0,2.2l-2.7,2.7C51.3,89.4,50.9,89.6,50.4,89.6L50.4,89.6z"/>
					</g>
				</g>
				<g>
					<g>
						<path fill="#445464" d="M58.7,72.8c-0.9,0-1.6-0.8-1.6-1.6V68c0-0.9,0.8-1.6,1.6-1.6c0.9,0,1.6,0.8,1.6,1.6v3.1
							C60.3,72,59.5,72.8,58.7,72.8L58.7,72.8z"/>
					</g>
					<g>
						<path fill="#445464" d="M58.7,92.9L58.7,92.9c-0.9,0-1.6-0.8-1.6-1.6v-3.8c0-0.9,0.8-1.6,1.6-1.6l0,0c0.9,0,1.6,0.8,1.6,1.6
							v3.8C60.3,92.3,59.5,92.9,58.7,92.9L58.7,92.9z"/>
					</g>
				</g>
				<g>
					<g>
						<path fill="#445464" d="M70.4,81.3h-3.1c-0.9,0-1.6-0.8-1.6-1.6c0-0.9,0.8-1.6,1.6-1.6h3.1c0.9,0,1.6,0.8,1.6,1.6
							C71.9,80.6,71.3,81.3,70.4,81.3L70.4,81.3z"/>
					</g>
					<g>
						<path fill="#445464" d="M50.7,81.3h-3.6c-0.9,0-1.6-0.8-1.6-1.6c0-0.9,0.8-1.6,1.6-1.6h3.8c0.9,0,1.6,0.8,1.6,1.6
							C52.3,80.6,51.6,81.3,50.7,81.3L50.7,81.3z"/>
					</g>
				</g>
			</g>
			<g>
				<g>
					<path fill="#445464" d="M85.1,44.6c-4,0-7.3-3.2-7.3-7.3s3.2-7.3,7.3-7.3c4,0,7.3,3.2,7.3,7.3S89,44.6,85.1,44.6L85.1,44.6z
						 M85.1,32.5c-2.6,0-4.9,2.1-4.9,4.9c0,2.6,2.1,4.9,4.9,4.9c2.6,0,4.9-2.1,4.9-4.9C90,34.8,87.7,32.5,85.1,32.5L85.1,32.5z"/>
				</g>
				<g>
					<g>
						<path fill="#445464" d="M80.6,34.1c-0.4,0-0.6-0.1-0.8-0.4L78.1,32c-0.5-0.5-0.5-1.2,0-1.7s1.2-0.5,1.7,0l1.7,1.7
							c0.5,0.5,0.5,1.2,0,1.7C81.2,33.9,80.8,34.1,80.6,34.1L80.6,34.1z"/>
					</g>
					<g>
						<path fill="#445464" d="M91.3,44.9c-0.4,0-0.6-0.1-0.8-0.4l-2-2c-0.5-0.5-0.5-1.2,0-1.7c0.5-0.5,1.2-0.5,1.7,0l2,2
							c0.5,0.5,0.5,1.2,0,1.7C91.9,44.8,91.6,44.9,91.3,44.9L91.3,44.9z"/>
					</g>
				</g>
				<g>
					<g>
						<path fill="#445464" d="M89.6,34.1c-0.4,0-0.6-0.1-0.8-0.4c-0.5-0.5-0.5-1.2,0-1.7l1.7-1.7c0.5-0.5,1.2-0.5,1.7,0
							c0.5,0.5,0.5,1.2,0,1.7l-1.7,1.7C90.2,33.9,90,34.1,89.6,34.1L89.6,34.1z"/>
					</g>
					<g>
						<path fill="#445464" d="M78.8,44.9c-0.4,0-0.6-0.1-0.8-0.4c-0.5-0.5-0.5-1.2,0-1.7l2-2c0.5-0.5,1.2-0.5,1.7,0
							c0.5,0.5,0.5,1.2,0,1.7l-2,2C79.5,44.8,79.1,44.9,78.8,44.9L78.8,44.9z"/>
					</g>
				</g>
				<g>
					<g>
						<path fill="#445464" d="M85.1,32.2c-0.7,0-1.2-0.6-1.2-1.2v-2.4c0-0.7,0.6-1.2,1.2-1.2c0.7,0,1.2,0.6,1.2,1.2V31
							C86.3,31.6,85.7,32.2,85.1,32.2L85.1,32.2z"/>
					</g>
					<g>
						<path fill="#445464" d="M85.1,47.4L85.1,47.4c-0.7,0-1.2-0.6-1.2-1.2v-2.9c0-0.7,0.6-1.2,1.2-1.2l0,0c0.7,0,1.2,0.6,1.2,1.2
							v2.9C86.3,46.9,85.7,47.4,85.1,47.4L85.1,47.4z"/>
					</g>
				</g>
				<g>
					<g>
						<path fill="#445464" d="M93.9,38.6h-2.4c-0.7,0-1.2-0.6-1.2-1.2c0-0.7,0.6-1.2,1.2-1.2h2.4c0.7,0,1.2,0.6,1.2,1.2
							C95.1,38.1,94.6,38.6,93.9,38.6L93.9,38.6z"/>
					</g>
					<g>
						<path fill="#445464" d="M79,38.6h-2.7c-0.7,0-1.2-0.6-1.2-1.2c0-0.7,0.6-1.2,1.2-1.2h2.9c0.7,0,1.2,0.6,1.2,1.2
							C80.2,38.1,79.7,38.6,79,38.6L79,38.6z"/>
					</g>
				</g>
			</g>
		</g>
	</g>
</g>
</svg>
