<?xml version="1.0" encoding="utf-8"?>
<!-- Generator: Adobe Illustrator 19.1.0, SVG Export Plug-In . SVG Version: 6.00 Build 0)  -->
<svg version="1.1" id="Layer_1" xmlns="http://www.w3.org/2000/svg" xmlns:xlink="http://www.w3.org/1999/xlink" x="0px" y="0px"
	 viewBox="0 0 169.2 169.2" enable-background="new 0 0 169.2 169.2" xml:space="preserve">
<g>
	<rect fill="#FFFFFF" width="169.2" height="169.2"/>
	<g>
		<path fill="#404447" d="M32.4,146.2h2.7v1.4c0.6-0.8,1.5-1.5,2.8-1.5c1.3,0,2.2,0.6,2.7,1.5c0.8-1,1.9-1.5,3.2-1.5
			c2,0,3.3,1.2,3.3,3.5v6.3h-2.7v-5.4c0-1.3-0.6-2-1.6-2s-1.7,0.7-1.7,2v5.4h-2.7v-5.4c0-1.3-0.6-2-1.6-2s-1.7,0.7-1.7,2v5.4h-2.7
			V146.2z"/>
		<path fill="#404447" d="M49.5,142.8h2.9v2.4h-2.9V142.8z M49.6,146.2h2.7v9.7h-2.7V146.2z"/>
		<path fill="#404447" d="M54.5,151.1L54.5,151.1c0-3.3,2.1-5,4.4-5c1.5,0,2.4,0.7,3,1.4v-4.8h2.7v13.1h-2.7v-1.4
			c-0.7,0.9-1.6,1.6-3,1.6C56.6,156.1,54.5,154.3,54.5,151.1z M61.9,151.1L61.9,151.1c0-1.6-1.1-2.7-2.3-2.7s-2.4,1-2.4,2.7v0
			c0,1.6,1.1,2.7,2.4,2.7S61.9,152.7,61.9,151.1z"/>
		<path fill="#404447" d="M66.6,151.1L66.6,151.1c0-3.3,2.1-5,4.4-5c1.5,0,2.4,0.7,3,1.4v-4.8h2.7v13.1H74v-1.4
			c-0.7,0.9-1.6,1.6-3,1.6C68.8,156.1,66.6,154.3,66.6,151.1z M74.1,151.1L74.1,151.1c0-1.6-1.1-2.7-2.3-2.7s-2.4,1-2.4,2.7v0
			c0,1.6,1.1,2.7,2.4,2.7S74.1,152.7,74.1,151.1z"/>
		<path fill="#404447" d="M79.3,142.8h2.7v13.1h-2.7V142.8z"/>
		<path fill="#404447" d="M84.2,151.1L84.2,151.1c0-2.8,2-5.1,4.8-5.1c3.2,0,4.7,2.5,4.7,5.2c0,0.2,0,0.5,0,0.7h-6.7
			c0.3,1.2,1.1,1.9,2.4,1.9c0.9,0,1.6-0.3,2.3-1l1.6,1.4c-0.9,1.1-2.2,1.8-3.9,1.8C86.3,156.1,84.2,154.1,84.2,151.1z M91,150.3
			c-0.2-1.2-0.9-2.1-2-2.1c-1.1,0-1.9,0.8-2.1,2.1H91z"/>
		<path fill="#404447" d="M94.4,146.2h2.8l1.5,5.9l1.8-5.9h2.4l1.8,5.9l1.6-5.9h2.7l-3,9.7h-2.5l-1.9-5.9l-1.9,5.9h-2.4L94.4,146.2z
			"/>
		<path fill="#404447" d="M109.8,153.1L109.8,153.1c0-2.1,1.6-3.1,3.9-3.1c1,0,1.7,0.2,2.4,0.4v-0.2c0-1.1-0.7-1.8-2.1-1.8
			c-1,0-1.8,0.2-2.7,0.5l-0.7-2.1c1.1-0.5,2.1-0.8,3.7-0.8c1.5,0,2.6,0.4,3.3,1.1c0.7,0.7,1,1.8,1,3.1v5.6H116v-1
			c-0.7,0.7-1.6,1.2-2.9,1.2C111.3,156.1,109.8,155,109.8,153.1z M116.1,152.5V152c-0.5-0.2-1.1-0.4-1.7-0.4c-1.2,0-1.9,0.5-1.9,1.3
			v0c0,0.7,0.6,1.2,1.5,1.2C115.2,154.2,116.1,153.5,116.1,152.5z"/>
		<path fill="#404447" d="M121,146.2h2.7v1.9c0.6-1.3,1.5-2.2,3.1-2.1v2.9h-0.1c-1.8,0-2.9,1.1-2.9,3.4v3.6H121V146.2z"/>
		<path fill="#404447" d="M127.8,151.1L127.8,151.1c0-2.8,2-5.1,4.8-5.1c3.2,0,4.7,2.5,4.7,5.2c0,0.2,0,0.5,0,0.7h-6.7
			c0.3,1.2,1.1,1.9,2.4,1.9c0.9,0,1.6-0.3,2.3-1l1.6,1.4c-0.9,1.1-2.2,1.8-3.9,1.8C130,156.1,127.8,154.1,127.8,151.1z M134.6,150.3
			c-0.2-1.2-0.9-2.1-2-2.1c-1.1,0-1.9,0.8-2.1,2.1H134.6z"/>
	</g>
</g>
<g>
	<g>
		<g>
			<path fill="#404447" d="M53.6,73.8c-2.2,0-4-1.8-4-4V48c0-2.2,1.8-4,4-4h21.9c2.2,0,4,1.8,4,4c0,2.2-1.8,4-4,4H57.6v17.9
				C57.6,72.1,55.8,73.8,53.6,73.8L53.6,73.8z"/>
		</g>
		<g>
			<path fill="#404447" d="M115.3,73.8c-2.2,0-4-1.8-4-4V52H93.4c-2.2,0-4-1.8-4-4c0-2.2,1.8-4,4-4h21.9c2.2,0,4,1.8,4,4v21.9
				C119.3,72.1,117.5,73.8,115.3,73.8L115.3,73.8z"/>
		</g>
		<g>
			<path fill="#404447" d="M75.4,113.4H53.6c-2.2,0-4-1.8-4-4V87.6c0-2.2,1.8-4,4-4c2.2,0,4,1.8,4,4v17.9h17.9c2.2,0,4,1.8,4,4
				C79.4,111.6,77.6,113.4,75.4,113.4L75.4,113.4z"/>
		</g>
		<g>
			<path fill="#404447" d="M115.3,113.4H93.4c-2.2,0-4-1.8-4-4c0-2.2,1.8-4,4-4h17.9V87.6c0-2.2,1.8-4,4-4c2.2,0,4,1.8,4,4v21.9
				C119.3,111.6,117.5,113.4,115.3,113.4L115.3,113.4z"/>
		</g>
	</g>
	<g>
		<path fill="#404447" d="M127.8,126.1H41c-2.2,0-4-1.8-4-4V35.3c0-2.2,1.8-4,4-4h86.8c2.2,0,4,1.8,4,4v86.8
			C131.8,124.3,130,126.1,127.8,126.1L127.8,126.1z M45,118.1h78.8V39.3H45V118.1L45,118.1z"/>
	</g>
</g>
</svg>
