<?xml version="1.0" encoding="utf-8"?>
<!-- Generator: Adobe Illustrator 19.1.0, SVG Export Plug-In . SVG Version: 6.00 Build 0)  -->
<svg version="1.1" id="Layer_1" xmlns="http://www.w3.org/2000/svg" xmlns:xlink="http://www.w3.org/1999/xlink" x="0px" y="0px"
	 viewBox="0 0 169.2 169.2" enable-background="new 0 0 169.2 169.2" xml:space="preserve">
<g>
	<rect fill="#FFFFFF" width="169.2" height="169.2"/>
	<g>
		<path fill="#404447" d="M33.9,153.1L33.9,153.1c0-2.1,1.6-3.1,3.9-3.1c1,0,1.7,0.2,2.4,0.4v-0.2c0-1.1-0.7-1.8-2.1-1.8
			c-1,0-1.8,0.2-2.7,0.5l-0.7-2.1c1.1-0.5,2.1-0.8,3.7-0.8c1.5,0,2.6,0.4,3.3,1.1c0.7,0.7,1,1.8,1,3.1v5.6h-2.6v-1
			c-0.7,0.7-1.6,1.2-2.9,1.2C35.4,156.1,33.9,155,33.9,153.1z M40.2,152.5V152c-0.5-0.2-1.1-0.4-1.7-0.4c-1.2,0-1.9,0.5-1.9,1.3v0
			c0,0.7,0.6,1.2,1.5,1.2C39.3,154.2,40.2,153.5,40.2,152.5z"/>
		<path fill="#404447" d="M45.1,146.2h2.7v1.4c0.7-0.9,1.6-1.6,3-1.6c2.3,0,4.4,1.8,4.4,5v0c0,3.2-2.1,5-4.4,5c-1.5,0-2.4-0.7-3-1.4
			v4.1h-2.7V146.2z M52.5,151.1L52.5,151.1c0-1.6-1.1-2.7-2.4-2.7c-1.3,0-2.3,1.1-2.3,2.7v0c0,1.6,1.1,2.7,2.3,2.7
			C51.4,153.8,52.5,152.7,52.5,151.1z"/>
		<path fill="#404447" d="M57.3,146.2H60v1.4c0.7-0.9,1.6-1.6,3-1.6c2.3,0,4.4,1.8,4.4,5v0c0,3.2-2.1,5-4.4,5c-1.5,0-2.4-0.7-3-1.4
			v4.1h-2.7V146.2z M64.7,151.1L64.7,151.1c0-1.6-1.1-2.7-2.4-2.7c-1.3,0-2.3,1.1-2.3,2.7v0c0,1.6,1.1,2.7,2.3,2.7
			C63.6,153.8,64.7,152.7,64.7,151.1z"/>
		<path fill="#404447" d="M69.5,142.8h2.7v13.1h-2.7V142.8z"/>
		<path fill="#404447" d="M74.9,142.8h2.9v2.4h-2.9V142.8z M75,146.2h2.7v9.7H75V146.2z"/>
		<path fill="#404447" d="M79.8,151.1L79.8,151.1c0-2.8,2.1-5.1,5.1-5.1c1.8,0,3,0.6,3.9,1.6l-1.7,1.8c-0.6-0.6-1.2-1.1-2.2-1.1
			c-1.4,0-2.3,1.2-2.3,2.6v0c0,1.5,1,2.7,2.4,2.7c0.9,0,1.5-0.4,2.2-1l1.6,1.6c-0.9,1-2,1.8-3.9,1.8C82,156.1,79.8,153.9,79.8,151.1
			z"/>
		<path fill="#404447" d="M90,153.1L90,153.1c0-2.1,1.6-3.1,3.9-3.1c1,0,1.7,0.2,2.4,0.4v-0.2c0-1.1-0.7-1.8-2.1-1.8
			c-1,0-1.8,0.2-2.7,0.5l-0.7-2.1c1.1-0.5,2.1-0.8,3.7-0.8c1.5,0,2.6,0.4,3.3,1.1c0.7,0.7,1,1.8,1,3.1v5.6h-2.6v-1
			c-0.7,0.7-1.6,1.2-2.9,1.2C91.5,156.1,90,155,90,153.1z M96.3,152.5V152c-0.5-0.2-1.1-0.4-1.7-0.4c-1.2,0-1.9,0.5-1.9,1.3v0
			c0,0.7,0.6,1.2,1.5,1.2C95.4,154.2,96.3,153.5,96.3,152.5z"/>
		<path fill="#404447" d="M101.6,153.2v-4.6h-1.2v-2.3h1.2v-2.5h2.7v2.5h2.3v2.3h-2.3v4.1c0,0.6,0.3,0.9,0.9,0.9
			c0.5,0,1-0.1,1.4-0.3v2.2c-0.6,0.3-1.2,0.6-2.2,0.6C102.7,156.1,101.6,155.4,101.6,153.2z"/>
		<path fill="#404447" d="M108.7,142.8h2.9v2.4h-2.9V142.8z M108.7,146.2h2.7v9.7h-2.7V146.2z"/>
		<path fill="#404447" d="M113.6,151.1L113.6,151.1c0-2.8,2.2-5.1,5.2-5.1c3,0,5.2,2.2,5.2,5v0c0,2.8-2.2,5-5.2,5
			C115.8,156.1,113.6,153.9,113.6,151.1z M121.3,151.1L121.3,151.1c0-1.5-1-2.7-2.5-2.7c-1.6,0-2.5,1.2-2.5,2.6v0
			c0,1.4,1,2.7,2.5,2.7C120.4,153.8,121.3,152.5,121.3,151.1z"/>
		<path fill="#404447" d="M126,146.2h2.7v1.4c0.6-0.8,1.4-1.5,2.8-1.5c2.1,0,3.3,1.4,3.3,3.6v6.2h-2.7v-5.4c0-1.3-0.6-2-1.7-2
			c-1,0-1.7,0.7-1.7,2v5.4H126V146.2z"/>
	</g>
</g>
<g>
	<g>
		<path fill="#404447" d="M128.9,119H39.6c-2.5,0-4.4-2-4.4-4.4V40.1c0-2.5,2-4.4,4.4-4.4h89.3c2.5,0,4.4,2,4.4,4.4v74.4
			C133.4,117,131.4,119,128.9,119L128.9,119z M44.1,110.1h80.4V44.6H44.1V110.1L44.1,110.1z"/>
	</g>
	<g>
		<path fill="#404447" d="M115.6,103.5H53c-1.2,0-2.2-1-2.2-2.2V53.5c0-1.2,1-2.2,2.2-2.2h62.7c1.2,0,2.2,1,2.2,2.2v47.8
			C117.9,102.5,116.9,103.5,115.6,103.5L115.6,103.5z M55.2,99h58.2V55.7H55.2V99L55.2,99z"/>
	</g>
</g>
</svg>
