<?xml version="1.0" encoding="utf-8"?>
<!-- Generator: Adobe Illustrator 19.1.0, SVG Export Plug-In . SVG Version: 6.00 Build 0)  -->
<svg version="1.1" id="Layer_1" xmlns="http://www.w3.org/2000/svg" xmlns:xlink="http://www.w3.org/1999/xlink" x="0px" y="0px"
	 viewBox="0 0 169.2 169.2" enable-background="new 0 0 169.2 169.2" xml:space="preserve">
<g>
	<rect fill="#FFFFFF" width="169.2" height="169.2"/>
	<g>
		<path fill="#404447" d="M53.6,143.3h4.9c4,0,6.7,2.7,6.7,6.3v0c0,3.5-2.7,6.3-6.7,6.3h-4.9V143.3z M58.5,153.4
			c2.3,0,3.8-1.5,3.8-3.8v0c0-2.2-1.5-3.8-3.8-3.8h-2.1v7.6H58.5z"/>
		<path fill="#404447" d="M66.9,151.1L66.9,151.1c0-2.8,2.2-5.1,5.2-5.1c3,0,5.2,2.2,5.2,5v0c0,2.8-2.2,5-5.2,5
			C69.1,156.1,66.9,153.9,66.9,151.1z M74.7,151.1L74.7,151.1c0-1.5-1-2.7-2.5-2.7c-1.6,0-2.5,1.2-2.5,2.6v0c0,1.4,1,2.7,2.5,2.7
			C73.7,153.8,74.7,152.5,74.7,151.1z"/>
		<path fill="#404447" d="M78.9,151.1L78.9,151.1c0-2.8,2.1-5.1,5.1-5.1c1.8,0,3,0.6,3.9,1.6l-1.7,1.8c-0.6-0.6-1.2-1.1-2.2-1.1
			c-1.4,0-2.3,1.2-2.3,2.6v0c0,1.5,1,2.7,2.4,2.7c0.9,0,1.5-0.4,2.2-1l1.6,1.6c-0.9,1-2,1.8-3.9,1.8C81,156.1,78.9,153.9,78.9,151.1
			z"/>
		<path fill="#404447" d="M89.6,142.8h2.7v7l3.2-3.5h3.3l-3.7,3.8l3.8,5.9h-3.1l-2.5-3.9l-1,1v2.9h-2.7V142.8z"/>
		<path fill="#404447" d="M99.3,151.1L99.3,151.1c0-2.8,2-5.1,4.8-5.1c3.2,0,4.7,2.5,4.7,5.2c0,0.2,0,0.5,0,0.7h-6.7
			c0.3,1.2,1.1,1.9,2.4,1.9c0.9,0,1.6-0.3,2.3-1l1.6,1.4c-0.9,1.1-2.2,1.8-3.9,1.8C101.5,156.1,99.3,154.1,99.3,151.1z M106.2,150.3
			c-0.2-1.2-0.9-2.1-2-2.1c-1.1,0-1.9,0.8-2.1,2.1H106.2z"/>
		<path fill="#404447" d="M110.9,146.2h2.7v1.9c0.6-1.3,1.5-2.2,3.1-2.1v2.9h-0.1c-1.8,0-2.9,1.1-2.9,3.4v3.6h-2.7V146.2z"/>
	</g>
</g>
<g>
	<rect x="91.2" y="70" fill="#404447" width="0.9" height="9.1"/>
	<rect x="92.8" y="70" fill="#404447" width="0.9" height="9.1"/>
	<rect x="94.5" y="70" fill="#404447" width="0.9" height="9.1"/>
	<rect x="96.2" y="70" fill="#404447" width="0.9" height="9.1"/>
	<rect x="97.8" y="70" fill="#404447" width="0.9" height="9.1"/>
	<rect x="99.5" y="70" fill="#404447" width="0.9" height="9.1"/>
	<path fill="#404447" d="M78.6,70v9.1h0.9V70H78.6z M80.2,70v9.1h0.9V70H80.2z M81.9,70v9.1h0.9V70H81.9z M83.5,70v9.1h0.9V70H83.5z
		 M85.2,70v9.1h0.9V70H85.2z M86.9,70v9.1h0.9V70H86.9z M86.9,70v9.1h0.9V70H86.9z M85.2,70v9.1h0.9V70H85.2z M83.5,70v9.1h0.9V70
		H83.5z M81.9,70v9.1h0.9V70H81.9z M80.2,70v9.1h0.9V70H80.2z M78.6,70v9.1h0.9V70H78.6z M53.4,70v9.1h0.9V70H53.4z M55,70v9.1h0.9
		V70H55z M56.6,70v9.1h0.9V70H56.6z M58.3,70v9.1h0.9V70H58.3z M60,70v9.1h0.9V70H60z M61.6,70v9.1h0.9V70H61.6z M66,70v9.1h0.9V70
		H66z M67.6,70v9.1h0.9V70H67.6z M69.3,70v9.1h0.9V70H69.3z M70.9,70v9.1h0.9V70H70.9z M72.6,70v9.1h0.9V70H72.6z M74.2,70v9.1h0.9
		V70H74.2z M78.6,70v9.1h0.9V70H78.6z M80.2,70v9.1h0.9V70H80.2z M81.9,70v9.1h0.9V70H81.9z M83.5,70v9.1h0.9V70H83.5z M85.2,70v9.1
		h0.9V70H85.2z M86.9,70v9.1h0.9V70H86.9z M61.6,70v9.1h0.9V70H61.6z M60,70v9.1h0.9V70H60z M58.3,70v9.1h0.9V70H58.3z M56.6,70v9.1
		h0.9V70H56.6z M55,70v9.1h0.9V70H55z M53.4,70v9.1h0.9V70H53.4z M74.2,70v9.1h0.9V70H74.2z M72.6,70v9.1h0.9V70H72.6z M70.9,70v9.1
		h0.9V70H70.9z M69.3,70v9.1h0.9V70H69.3z M67.6,70v9.1h0.9V70H67.6z M66,70v9.1h0.9V70H66z M86.9,70v9.1h0.9V70H86.9z M85.2,70v9.1
		h0.9V70H85.2z M83.5,70v9.1h0.9V70H83.5z M81.9,70v9.1h0.9V70H81.9z M80.2,70v9.1h0.9V70H80.2z M78.6,70v9.1h0.9V70H78.6z M40.8,70
		v9.1h0.9V70H40.8z M42.4,70v9.1h0.9V70H42.4z M44,70v9.1h0.9V70H44z M45.7,70v9.1h0.9V70H45.7z M47.3,70v9.1h0.9V70H47.3z M49,70
		v9.1h0.9V70H49z M53.4,57.4v9.1h0.9v-9.1H53.4z M53.4,70v9.1h0.9V70H53.4z M55,57.4v9.1h0.9v-9.1H55z M55,70v9.1h0.9V70H55z
		 M56.6,57.4v9.1h0.9v-9.1H56.6z M56.6,70v9.1h0.9V70H56.6z M58.3,57.4v9.1h0.9v-9.1H58.3z M58.3,70v9.1h0.9V70H58.3z M60,57.4v9.1
		h0.9v-9.1H60z M60,70v9.1h0.9V70H60z M61.6,57.4v9.1h0.9v-9.1H61.6z M61.6,70v9.1h0.9V70H61.6z M66,70v9.1h0.9V70H66z M67.6,70v9.1
		h0.9V70H67.6z M69.3,70v9.1h0.9V70H69.3z M70.9,70v9.1h0.9V70H70.9z M72.6,70v9.1h0.9V70H72.6z M74.2,70v9.1h0.9V70H74.2z M78.6,70
		v9.1h0.9V70H78.6z M80.2,70v9.1h0.9V70H80.2z M81.9,70v9.1h0.9V70H81.9z M83.5,70v9.1h0.9V70H83.5z M85.2,70v9.1h0.9V70H85.2z
		 M86.9,70v9.1h0.9V70H86.9z M49,70v9.1h0.9V70H49z M47.3,70v9.1h0.9V70H47.3z M45.7,70v9.1h0.9V70H45.7z M44,70v9.1h0.9V70H44z
		 M42.4,70v9.1h0.9V70H42.4z M40.8,70v9.1h0.9V70H40.8z M61.6,70v9.1h0.9V70H61.6z M60,70v9.1h0.9V70H60z M58.3,70v9.1h0.9V70H58.3z
		 M56.6,70v9.1h0.9V70H56.6z M55,70v9.1h0.9V70H55z M53.4,70v9.1h0.9V70H53.4z M61.6,57.4v9.1h0.9v-9.1H61.6z M60,57.4v9.1h0.9v-9.1
		H60z M58.3,57.4v9.1h0.9v-9.1H58.3z M56.6,57.4v9.1h0.9v-9.1H56.6z M55,57.4v9.1h0.9v-9.1H55z M53.4,57.4v9.1h0.9v-9.1H53.4z
		 M74.2,70v9.1h0.9V70H74.2z M72.6,70v9.1h0.9V70H72.6z M70.9,70v9.1h0.9V70H70.9z M69.3,70v9.1h0.9V70H69.3z M67.6,70v9.1h0.9V70
		H67.6z M66,70v9.1h0.9V70H66z M86.9,70v9.1h0.9V70H86.9z M85.2,70v9.1h0.9V70H85.2z M83.5,70v9.1h0.9V70H83.5z M81.9,70v9.1h0.9V70
		H81.9z M80.2,70v9.1h0.9V70H80.2z M78.6,70v9.1h0.9V70H78.6z M40.8,70v9.1h0.9V70H40.8z M42.4,70v9.1h0.9V70H42.4z M44,70v9.1h0.9
		V70H44z M45.7,70v9.1h0.9V70H45.7z M47.3,70v9.1h0.9V70H47.3z M49,70v9.1h0.9V70H49z M53.4,57.4v9.1h0.9v-9.1H53.4z M53.4,70v9.1
		h0.9V70H53.4z M55,57.4v9.1h0.9v-9.1H55z M55,70v9.1h0.9V70H55z M56.6,57.4v9.1h0.9v-9.1H56.6z M56.6,70v9.1h0.9V70H56.6z
		 M58.3,57.4v9.1h0.9v-9.1H58.3z M58.3,70v9.1h0.9V70H58.3z M60,57.4v9.1h0.9v-9.1H60z M60,70v9.1h0.9V70H60z M61.6,57.4v9.1h0.9
		v-9.1H61.6z M61.6,70v9.1h0.9V70H61.6z M66,57.4v9.1h0.9v-9.1H66z M66,70v9.1h0.9V70H66z M67.6,57.4v9.1h0.9v-9.1H67.6z M67.6,70
		v9.1h0.9V70H67.6z M69.3,57.4v9.1h0.9v-9.1H69.3z M69.3,70v9.1h0.9V70H69.3z M70.9,57.4v9.1h0.9v-9.1H70.9z M70.9,70v9.1h0.9V70
		H70.9z M72.6,57.4v9.1h0.9v-9.1H72.6z M72.6,70v9.1h0.9V70H72.6z M74.2,57.4v9.1h0.9v-9.1H74.2z M74.2,70v9.1h0.9V70H74.2z
		 M78.6,57.4v9.1h0.9v-9.1H78.6z M78.6,70v9.1h0.9V70H78.6z M80.2,57.4v9.1h0.9v-9.1H80.2z M80.2,70v9.1h0.9V70H80.2z M81.9,57.4
		v9.1h0.9v-9.1H81.9z M81.9,70v9.1h0.9V70H81.9z M83.5,57.4v9.1h0.9v-9.1H83.5z M83.5,70v9.1h0.9V70H83.5z M85.2,57.4v9.1h0.9v-9.1
		H85.2z M85.2,70v9.1h0.9V70H85.2z M86.9,57.4v9.1h0.9v-9.1H86.9z M86.9,70v9.1h0.9V70H86.9z M49,70v9.1h0.9V70H49z M47.3,70v9.1
		h0.9V70H47.3z M45.7,70v9.1h0.9V70H45.7z M44,70v9.1h0.9V70H44z M42.4,70v9.1h0.9V70H42.4z M40.8,70v9.1h0.9V70H40.8z M61.6,70v9.1
		h0.9V70H61.6z M60,70v9.1h0.9V70H60z M58.3,70v9.1h0.9V70H58.3z M56.6,70v9.1h0.9V70H56.6z M55,70v9.1h0.9V70H55z M53.4,70v9.1h0.9
		V70H53.4z M61.6,57.4v9.1h0.9v-9.1H61.6z M60,57.4v9.1h0.9v-9.1H60z M58.3,57.4v9.1h0.9v-9.1H58.3z M56.6,57.4v9.1h0.9v-9.1H56.6z
		 M55,57.4v9.1h0.9v-9.1H55z M53.4,57.4v9.1h0.9v-9.1H53.4z M74.2,70v9.1h0.9V70H74.2z M72.6,70v9.1h0.9V70H72.6z M70.9,70v9.1h0.9
		V70H70.9z M69.3,70v9.1h0.9V70H69.3z M67.6,70v9.1h0.9V70H67.6z M66,70v9.1h0.9V70H66z M74.2,57.4v9.1h0.9v-9.1H74.2z M72.6,57.4
		v9.1h0.9v-9.1H72.6z M70.9,57.4v9.1h0.9v-9.1H70.9z M69.3,57.4v9.1h0.9v-9.1H69.3z M67.6,57.4v9.1h0.9v-9.1H67.6z M66,57.4v9.1h0.9
		v-9.1H66z M86.9,70v9.1h0.9V70H86.9z M85.2,70v9.1h0.9V70H85.2z M83.5,70v9.1h0.9V70H83.5z M81.9,70v9.1h0.9V70H81.9z M80.2,70v9.1
		h0.9V70H80.2z M78.6,70v9.1h0.9V70H78.6z M86.9,57.4v9.1h0.9v-9.1H86.9z M85.2,57.4v9.1h0.9v-9.1H85.2z M83.5,57.4v9.1h0.9v-9.1
		H83.5z M81.9,57.4v9.1h0.9v-9.1H81.9z M80.2,57.4v9.1h0.9v-9.1H80.2z M78.6,57.4v9.1h0.9v-9.1H78.6z M40.8,70v9.1h0.9V70H40.8z
		 M42.4,70v9.1h0.9V70H42.4z M44,70v9.1h0.9V70H44z M45.7,70v9.1h0.9V70H45.7z M47.3,70v9.1h0.9V70H47.3z M49,70v9.1h0.9V70H49z
		 M53.4,57.4v9.1h0.9v-9.1H53.4z M53.4,70v9.1h0.9V70H53.4z M55,57.4v9.1h0.9v-9.1H55z M55,70v9.1h0.9V70H55z M56.6,57.4v9.1h0.9
		v-9.1H56.6z M56.6,70v9.1h0.9V70H56.6z M58.3,57.4v9.1h0.9v-9.1H58.3z M58.3,70v9.1h0.9V70H58.3z M60,57.4v9.1h0.9v-9.1H60z M60,70
		v9.1h0.9V70H60z M61.6,57.4v9.1h0.9v-9.1H61.6z M61.6,70v9.1h0.9V70H61.6z M66,57.4v9.1h0.9v-9.1H66z M66,70v9.1h0.9V70H66z
		 M67.6,57.4v9.1h0.9v-9.1H67.6z M67.6,70v9.1h0.9V70H67.6z M69.3,57.4v9.1h0.9v-9.1H69.3z M69.3,70v9.1h0.9V70H69.3z M70.9,57.4
		v9.1h0.9v-9.1H70.9z M70.9,70v9.1h0.9V70H70.9z M72.6,57.4v9.1h0.9v-9.1H72.6z M72.6,70v9.1h0.9V70H72.6z M74.2,57.4v9.1h0.9v-9.1
		H74.2z M74.2,70v9.1h0.9V70H74.2z M78.6,57.4v9.1h0.9v-9.1H78.6z M78.6,70v9.1h0.9V70H78.6z M80.2,57.4v9.1h0.9v-9.1H80.2z
		 M80.2,70v9.1h0.9V70H80.2z M81.9,57.4v9.1h0.9v-9.1H81.9z M81.9,70v9.1h0.9V70H81.9z M83.5,57.4v9.1h0.9v-9.1H83.5z M83.5,70v9.1
		h0.9V70H83.5z M85.2,57.4v9.1h0.9v-9.1H85.2z M85.2,70v9.1h0.9V70H85.2z M86.9,57.4v9.1h0.9v-9.1H86.9z M86.9,70v9.1h0.9V70H86.9z
		 M49,70v9.1h0.9V70H49z M47.3,79.2h0.9V70h-0.9V79.2z M45.7,79.2h0.9V70h-0.9V79.2z M44,79.2h0.9V70H44V79.2z M42.4,79.2h0.9V70
		h-0.9V79.2z M40.8,79.2h0.9V70h-0.9V79.2z M61.6,70v9.1h0.9V70H61.6z M60,79.2h0.9V70H60V79.2z M58.3,79.2h0.9V70h-0.9V79.2z
		 M56.6,79.2h0.9V70h-0.9V79.2z M55,79.2h0.9V70H55V79.2z M53.4,79.2h0.9V70h-0.9V79.2z M61.6,57.4v9.1h0.9v-9.1H61.6z M60,66.5h0.9
		v-9.1H60V66.5z M58.3,66.5h0.9v-9.1h-0.9V66.5z M56.6,66.5h0.9v-9.1h-0.9V66.5z M55,66.5h0.9v-9.1H55V66.5z M53.4,66.5h0.9v-9.1
		h-0.9V66.5z M74.2,70v9.1h0.9V70H74.2z M72.6,79.2h0.9V70h-0.9V79.2z M70.9,79.2h0.9V70h-0.9V79.2z M69.3,79.2h0.9V70h-0.9V79.2z
		 M67.6,79.2h0.9V70h-0.9V79.2z M66,79.2h0.9V70H66V79.2z M74.2,57.4v9.1h0.9v-9.1H74.2z M72.6,66.5h0.9v-9.1h-0.9V66.5z M70.9,66.5
		h0.9v-9.1h-0.9V66.5z M69.3,66.5h0.9v-9.1h-0.9V66.5z M67.6,66.5h0.9v-9.1h-0.9V66.5z M66,66.5h0.9v-9.1H66V66.5z M86.9,70v9.1h0.9
		V70H86.9z M85.2,79.2h0.9V70h-0.9V79.2z M83.5,79.2h0.9V70h-0.9V79.2z M81.9,79.2h0.9V70h-0.9V79.2z M80.2,79.2h0.9V70h-0.9V79.2z
		 M78.6,79.2h0.9V70h-0.9V79.2z M86.9,57.4v9.1h0.9v-9.1H86.9z M85.2,66.5h0.9v-9.1h-0.9V66.5z M83.5,66.5h0.9v-9.1h-0.9V66.5z
		 M81.9,66.5h0.9v-9.1h-0.9V66.5z M80.2,66.5h0.9v-9.1h-0.9V66.5z M78.6,66.5h0.9v-9.1h-0.9V66.5z M148.4,70.1
		c-4.2-2.4-9.8-2.8-14.6-1.4c-0.6-5.1-3.9-9.6-7.9-12.8l-1.6-1.3l-1.3,1.5c-2.7,3.1-3.5,8.2-3.1,12.1c0.3,2.9,1.2,5.8,3,8.2
		c-1.4,0.8-2.9,1.5-4.3,1.9c-2.8,0.9-5.8,1.5-8.8,1.5h-6.4V67H90.7V43.9h-2.1v10.9H77.7V43.9h-2.1v10.5H50.4V67H37.7v12.9H27
		l-0.2,1.9c-0.6,6.4,0.3,12.7,2.9,18.6l1.1,2.3l0.1,0.2c0.4,0.7,0.9,1.4,1.3,2.1h0l2.8,0.3c3.3,0.2,6.4,0.3,9.2,0.2c0,0,0,0,0,0
		c5.5-0.1,10-0.8,13.4-2c0.5-0.2,1.1,0.1,1.2,0.6c0.2,0.5-0.1,1.1-0.6,1.2c-0.5,0.2-0.9,0.3-1.4,0.4c0,0,0,0,0,0
		c-0.2,0-0.3,0.1-0.5,0.1c0,0,0,0,0,0c0,0,0,0,0,0c-0.1,0-0.1,0-0.2,0.1c-0.1,0-0.2,0-0.2,0.1c0,0,0,0,0,0c0,0,0,0,0,0c0,0,0,0,0,0
		c-0.1,0-0.1,0-0.2,0c-0.1,0-0.1,0-0.2,0c0,0-0.1,0-0.1,0c-0.1,0-0.1,0-0.2,0c-0.1,0-0.1,0-0.2,0c-0.1,0-0.1,0-0.2,0c0,0,0,0,0,0
		c-0.1,0-0.3,0.1-0.4,0.1c-2.1,0.4-4.4,0.8-6.9,0.9c0,0,0,0-0.1,0h0c0,0,0,0,0,0c0,0,0,0,0,0c-0.1,0-0.2,0-0.3,0c0,0,0,0,0,0
		c-0.9,0.1-1.8,0.1-2.7,0.1c-0.7,0-1.3,0-2,0c-1.7,0-3.5,0-5.4-0.1l-2.8-0.1c8,10,20.2,14.4,33.3,14.4c28.8,0,52.6-12.9,63.5-40.1
		c7.3,0.4,14.8-1.8,18.3-8.7l0.9-1.8L148.4,70.1z M62.7,103.8c-1.7,0-3-1.4-3-3c0-1.7,1.4-3,3-3c1.7,0,3,1.4,3,3
		C65.7,102.5,64.4,103.8,62.7,103.8z M90.3,69.1h10.9v10.9H90.3V69.1z M77.7,56.5h10.9v10.9H77.7V56.5z M77.7,69.1h10.9v10.9H77.7
		V69.1z M65.1,56.5H76v10.9H65.1V56.5z M65.1,69.1H76v10.9H65.1V69.1z M52.5,56.5h10.9v10.9H52.5V56.5z M52.5,69.1h10.9v10.9H52.5
		V69.1z M39.8,69.1h10.9v10.9H39.8V69.1z M86.9,79.2h0.9V70h-0.9V79.2z M86.9,66.5h0.9v-9.1h-0.9V66.5z M85.2,79.2h0.9V70h-0.9V79.2
		z M85.2,66.5h0.9v-9.1h-0.9V66.5z M83.5,79.2h0.9V70h-0.9V79.2z M83.5,66.5h0.9v-9.1h-0.9V66.5z M81.9,79.2h0.9V70h-0.9V79.2z
		 M81.9,66.5h0.9v-9.1h-0.9V66.5z M80.2,79.2h0.9V70h-0.9V79.2z M80.2,66.5h0.9v-9.1h-0.9V66.5z M78.6,79.2h0.9V70h-0.9V79.2z
		 M78.6,66.5h0.9v-9.1h-0.9V66.5z M74.2,79.2h0.9V70h-0.9V79.2z M74.2,66.5h0.9v-9.1h-0.9V66.5z M72.6,79.2h0.9V70h-0.9V79.2z
		 M72.6,66.5h0.9v-9.1h-0.9V66.5z M70.9,79.2h0.9V70h-0.9V79.2z M70.9,66.5h0.9v-9.1h-0.9V66.5z M69.3,79.2h0.9V70h-0.9V79.2z
		 M69.3,66.5h0.9v-9.1h-0.9V66.5z M67.6,79.2h0.9V70h-0.9V79.2z M67.6,66.5h0.9v-9.1h-0.9V66.5z M66,79.2h0.9V70H66V79.2z M66,66.5
		h0.9v-9.1H66V66.5z M61.6,79.2h0.9V70h-0.9V79.2z M61.6,66.5h0.9v-9.1h-0.9V66.5z M60,79.2h0.9V70H60V79.2z M60,66.5h0.9v-9.1H60
		V66.5z M58.3,79.2h0.9V70h-0.9V79.2z M58.3,66.5h0.9v-9.1h-0.9V66.5z M56.6,79.2h0.9V70h-0.9V79.2z M56.6,66.5h0.9v-9.1h-0.9V66.5z
		 M55,79.2h0.9V70H55V79.2z M55,66.5h0.9v-9.1H55V66.5z M53.4,79.2h0.9V70h-0.9V79.2z M53.4,66.5h0.9v-9.1h-0.9V66.5z M49,79.2h0.9
		V70H49V79.2z M47.3,79.2h0.9V70h-0.9V79.2z M45.7,79.2h0.9V70h-0.9V79.2z M44,79.2h0.9V70H44V79.2z M42.4,79.2h0.9V70h-0.9V79.2z
		 M40.8,79.2h0.9V70h-0.9V79.2z M78.6,57.4v9.1h0.9v-9.1H78.6z M80.2,57.4v9.1h0.9v-9.1H80.2z M81.9,57.4v9.1h0.9v-9.1H81.9z
		 M83.5,57.4v9.1h0.9v-9.1H83.5z M85.2,57.4v9.1h0.9v-9.1H85.2z M86.9,57.4v9.1h0.9v-9.1H86.9z M78.6,70v9.1h0.9V70H78.6z M80.2,70
		v9.1h0.9V70H80.2z M81.9,70v9.1h0.9V70H81.9z M83.5,70v9.1h0.9V70H83.5z M85.2,70v9.1h0.9V70H85.2z M86.9,70v9.1h0.9V70H86.9z
		 M66,57.4v9.1h0.9v-9.1H66z M67.6,57.4v9.1h0.9v-9.1H67.6z M69.3,57.4v9.1h0.9v-9.1H69.3z M70.9,57.4v9.1h0.9v-9.1H70.9z
		 M72.6,57.4v9.1h0.9v-9.1H72.6z M74.2,57.4v9.1h0.9v-9.1H74.2z M66,70v9.1h0.9V70H66z M67.6,70v9.1h0.9V70H67.6z M69.3,70v9.1h0.9
		V70H69.3z M70.9,70v9.1h0.9V70H70.9z M72.6,70v9.1h0.9V70H72.6z M74.2,70v9.1h0.9V70H74.2z M53.4,57.4v9.1h0.9v-9.1H53.4z M55,57.4
		v9.1h0.9v-9.1H55z M56.6,57.4v9.1h0.9v-9.1H56.6z M58.3,57.4v9.1h0.9v-9.1H58.3z M60,57.4v9.1h0.9v-9.1H60z M61.6,57.4v9.1h0.9
		v-9.1H61.6z M53.4,70v9.1h0.9V70H53.4z M55,70v9.1h0.9V70H55z M56.6,70v9.1h0.9V70H56.6z M58.3,70v9.1h0.9V70H58.3z M60,70v9.1h0.9
		V70H60z M61.6,70v9.1h0.9V70H61.6z M40.8,70v9.1h0.9V70H40.8z M42.4,70v9.1h0.9V70H42.4z M44,70v9.1h0.9V70H44z M45.7,70v9.1h0.9
		V70H45.7z M47.3,70v9.1h0.9V70H47.3z M49,70v9.1h0.9V70H49z M86.9,70v9.1h0.9V70H86.9z M86.9,57.4v9.1h0.9v-9.1H86.9z M86.9,44.8
		v9.1h0.9v-9.1H86.9z M85.2,70v9.1h0.9V70H85.2z M85.2,57.4v9.1h0.9v-9.1H85.2z M85.2,44.8v9.1h0.9v-9.1H85.2z M83.5,70v9.1h0.9V70
		H83.5z M83.5,57.4v9.1h0.9v-9.1H83.5z M83.5,44.8v9.1h0.9v-9.1H83.5z M81.9,70v9.1h0.9V70H81.9z M81.9,57.4v9.1h0.9v-9.1H81.9z
		 M81.9,44.8v9.1h0.9v-9.1H81.9z M80.2,70v9.1h0.9V70H80.2z M80.2,57.4v9.1h0.9v-9.1H80.2z M80.2,44.8v9.1h0.9v-9.1H80.2z M78.6,70
		v9.1h0.9V70H78.6z M78.6,57.4v9.1h0.9v-9.1H78.6z M78.6,44.8v9.1h0.9v-9.1H78.6z M74.2,70v9.1h0.9V70H74.2z M74.2,57.4v9.1h0.9
		v-9.1H74.2z M72.6,70v9.1h0.9V70H72.6z M72.6,57.4v9.1h0.9v-9.1H72.6z M70.9,70v9.1h0.9V70H70.9z M70.9,57.4v9.1h0.9v-9.1H70.9z
		 M69.3,70v9.1h0.9V70H69.3z M69.3,57.4v9.1h0.9v-9.1H69.3z M67.6,70v9.1h0.9V70H67.6z M67.6,57.4v9.1h0.9v-9.1H67.6z M66,70v9.1
		h0.9V70H66z M66,57.4v9.1h0.9v-9.1H66z M61.6,70v9.1h0.9V70H61.6z M61.6,57.4v9.1h0.9v-9.1H61.6z M60,70v9.1h0.9V70H60z M60,57.4
		v9.1h0.9v-9.1H60z M58.3,70v9.1h0.9V70H58.3z M58.3,57.4v9.1h0.9v-9.1H58.3z M56.6,70v9.1h0.9V70H56.6z M56.6,57.4v9.1h0.9v-9.1
		H56.6z M55,70v9.1h0.9V70H55z M55,57.4v9.1h0.9v-9.1H55z M53.4,70v9.1h0.9V70H53.4z M53.4,57.4v9.1h0.9v-9.1H53.4z M49,70v9.1h0.9
		V70H49z M47.3,70v9.1h0.9V70H47.3z M45.7,70v9.1h0.9V70H45.7z M44,70v9.1h0.9V70H44z M42.4,70v9.1h0.9V70H42.4z M40.8,70v9.1h0.9
		V70H40.8z M78.6,70v9.1h0.9V70H78.6z M80.2,70v9.1h0.9V70H80.2z M81.9,70v9.1h0.9V70H81.9z M83.5,70v9.1h0.9V70H83.5z M85.2,70v9.1
		h0.9V70H85.2z M86.9,70v9.1h0.9V70H86.9z M66,57.4v9.1h0.9v-9.1H66z M67.6,57.4v9.1h0.9v-9.1H67.6z M69.3,57.4v9.1h0.9v-9.1H69.3z
		 M70.9,57.4v9.1h0.9v-9.1H70.9z M72.6,57.4v9.1h0.9v-9.1H72.6z M74.2,57.4v9.1h0.9v-9.1H74.2z M66,70v9.1h0.9V70H66z M67.6,70v9.1
		h0.9V70H67.6z M69.3,70v9.1h0.9V70H69.3z M70.9,70v9.1h0.9V70H70.9z M72.6,70v9.1h0.9V70H72.6z M74.2,70v9.1h0.9V70H74.2z
		 M53.4,57.4v9.1h0.9v-9.1H53.4z M55,57.4v9.1h0.9v-9.1H55z M56.6,57.4v9.1h0.9v-9.1H56.6z M58.3,57.4v9.1h0.9v-9.1H58.3z M60,57.4
		v9.1h0.9v-9.1H60z M61.6,57.4v9.1h0.9v-9.1H61.6z M53.4,70v9.1h0.9V70H53.4z M55,70v9.1h0.9V70H55z M56.6,70v9.1h0.9V70H56.6z
		 M58.3,70v9.1h0.9V70H58.3z M60,70v9.1h0.9V70H60z M61.6,70v9.1h0.9V70H61.6z M40.8,70v9.1h0.9V70H40.8z M42.4,70v9.1h0.9V70H42.4z
		 M44,70v9.1h0.9V70H44z M45.7,70v9.1h0.9V70H45.7z M47.3,70v9.1h0.9V70H47.3z M49,70v9.1h0.9V70H49z M86.9,70v9.1h0.9V70H86.9z
		 M85.2,70v9.1h0.9V70H85.2z M83.5,70v9.1h0.9V70H83.5z M81.9,70v9.1h0.9V70H81.9z M80.2,70v9.1h0.9V70H80.2z M78.6,70v9.1h0.9V70
		H78.6z M74.2,70v9.1h0.9V70H74.2z M74.2,57.4v9.1h0.9v-9.1H74.2z M72.6,70v9.1h0.9V70H72.6z M72.6,57.4v9.1h0.9v-9.1H72.6z
		 M70.9,70v9.1h0.9V70H70.9z M70.9,57.4v9.1h0.9v-9.1H70.9z M69.3,70v9.1h0.9V70H69.3z M69.3,57.4v9.1h0.9v-9.1H69.3z M67.6,70v9.1
		h0.9V70H67.6z M67.6,57.4v9.1h0.9v-9.1H67.6z M66,70v9.1h0.9V70H66z M66,57.4v9.1h0.9v-9.1H66z M61.6,70v9.1h0.9V70H61.6z
		 M61.6,57.4v9.1h0.9v-9.1H61.6z M60,70v9.1h0.9V70H60z M60,57.4v9.1h0.9v-9.1H60z M58.3,70v9.1h0.9V70H58.3z M58.3,57.4v9.1h0.9
		v-9.1H58.3z M56.6,70v9.1h0.9V70H56.6z M56.6,57.4v9.1h0.9v-9.1H56.6z M55,70v9.1h0.9V70H55z M55,57.4v9.1h0.9v-9.1H55z M53.4,70
		v9.1h0.9V70H53.4z M53.4,57.4v9.1h0.9v-9.1H53.4z M49,70v9.1h0.9V70H49z M47.3,70v9.1h0.9V70H47.3z M45.7,70v9.1h0.9V70H45.7z
		 M44,70v9.1h0.9V70H44z M42.4,70v9.1h0.9V70H42.4z M40.8,70v9.1h0.9V70H40.8z M78.6,70v9.1h0.9V70H78.6z M80.2,70v9.1h0.9V70H80.2z
		 M81.9,70v9.1h0.9V70H81.9z M83.5,70v9.1h0.9V70H83.5z M85.2,70v9.1h0.9V70H85.2z M86.9,70v9.1h0.9V70H86.9z M66,70v9.1h0.9V70H66z
		 M67.6,70v9.1h0.9V70H67.6z M69.3,70v9.1h0.9V70H69.3z M70.9,70v9.1h0.9V70H70.9z M72.6,70v9.1h0.9V70H72.6z M74.2,70v9.1h0.9V70
		H74.2z M53.4,70v9.1h0.9V70H53.4z M55,70v9.1h0.9V70H55z M56.6,70v9.1h0.9V70H56.6z M58.3,70v9.1h0.9V70H58.3z M60,70v9.1h0.9V70
		H60z M61.6,70v9.1h0.9V70H61.6z M40.8,70v9.1h0.9V70H40.8z M42.4,70v9.1h0.9V70H42.4z M44,70v9.1h0.9V70H44z M45.7,70v9.1h0.9V70
		H45.7z M47.3,70v9.1h0.9V70H47.3z M49,70v9.1h0.9V70H49z M86.9,70v9.1h0.9V70H86.9z M85.2,70v9.1h0.9V70H85.2z M83.5,70v9.1h0.9V70
		H83.5z M81.9,70v9.1h0.9V70H81.9z M80.2,70v9.1h0.9V70H80.2z M78.6,70v9.1h0.9V70H78.6z M74.2,70v9.1h0.9V70H74.2z M72.6,70v9.1
		h0.9V70H72.6z M70.9,70v9.1h0.9V70H70.9z M69.3,70v9.1h0.9V70H69.3z M67.6,70v9.1h0.9V70H67.6z M66,70v9.1h0.9V70H66z M61.6,70v9.1
		h0.9V70H61.6z M60,70v9.1h0.9V70H60z M58.3,70v9.1h0.9V70H58.3z M56.6,70v9.1h0.9V70H56.6z M55,70v9.1h0.9V70H55z M53.4,70v9.1h0.9
		V70H53.4z M49,70v9.1h0.9V70H49z M47.3,70v9.1h0.9V70H47.3z M45.7,70v9.1h0.9V70H45.7z M44,70v9.1h0.9V70H44z M42.4,70v9.1h0.9V70
		H42.4z M40.8,70v9.1h0.9V70H40.8z M78.6,70v9.1h0.9V70H78.6z M80.2,70v9.1h0.9V70H80.2z M81.9,70v9.1h0.9V70H81.9z M83.5,70v9.1
		h0.9V70H83.5z M85.2,70v9.1h0.9V70H85.2z M86.9,70v9.1h0.9V70H86.9z M66,70v9.1h0.9V70H66z M67.6,70v9.1h0.9V70H67.6z M69.3,70v9.1
		h0.9V70H69.3z M70.9,70v9.1h0.9V70H70.9z M72.6,70v9.1h0.9V70H72.6z M74.2,70v9.1h0.9V70H74.2z M86.9,70v9.1h0.9V70H86.9z M85.2,70
		v9.1h0.9V70H85.2z M83.5,70v9.1h0.9V70H83.5z M81.9,70v9.1h0.9V70H81.9z M80.2,70v9.1h0.9V70H80.2z M78.6,70v9.1h0.9V70H78.6z
		 M74.2,70v9.1h0.9V70H74.2z M72.6,70v9.1h0.9V70H72.6z M70.9,70v9.1h0.9V70H70.9z M69.3,70v9.1h0.9V70H69.3z M67.6,70v9.1h0.9V70
		H67.6z M66,70v9.1h0.9V70H66z"/>
	<g>
		<rect x="86.9" y="57.4" fill="#404447" width="0.9" height="9.1"/>
		<rect x="78.6" y="70" fill="#404447" width="0.9" height="9.1"/>
		<rect x="83.5" y="57.4" fill="#404447" width="0.9" height="9.1"/>
		<rect x="85.2" y="57.4" fill="#404447" width="0.9" height="9.1"/>
		<rect x="80.2" y="70" fill="#404447" width="0.9" height="9.1"/>
		<rect x="85.2" y="70" fill="#404447" width="0.9" height="9.1"/>
		<rect x="66" y="57.4" fill="#404447" width="0.9" height="9.1"/>
		<rect x="86.9" y="70" fill="#404447" width="0.9" height="9.1"/>
		<rect x="83.5" y="70" fill="#404447" width="0.9" height="9.1"/>
		<rect x="81.9" y="70" fill="#404447" width="0.9" height="9.1"/>
		<rect x="80.2" y="57.4" fill="#404447" width="0.9" height="9.1"/>
		<rect x="97.8" y="70" fill="#404447" width="0.9" height="9.1"/>
		<rect x="99.5" y="70" fill="#404447" width="0.9" height="9.1"/>
		<rect x="96.2" y="70" fill="#404447" width="0.9" height="9.1"/>
		<rect x="91.2" y="70" fill="#404447" width="0.9" height="9.1"/>
		<rect x="78.6" y="44.8" fill="#404447" width="0.9" height="9.1"/>
		<rect x="94.5" y="70" fill="#404447" width="0.9" height="9.1"/>
		<rect x="92.8" y="70" fill="#404447" width="0.9" height="9.1"/>
		<rect x="80.2" y="44.8" fill="#404447" width="0.9" height="9.1"/>
		<rect x="78.6" y="57.4" fill="#404447" width="0.9" height="9.1"/>
		<rect x="67.6" y="57.4" fill="#404447" width="0.9" height="9.1"/>
		<rect x="81.9" y="57.4" fill="#404447" width="0.9" height="9.1"/>
		<rect x="86.9" y="44.8" fill="#404447" width="0.9" height="9.1"/>
		<rect x="85.2" y="44.8" fill="#404447" width="0.9" height="9.1"/>
		<rect x="81.9" y="44.8" fill="#404447" width="0.9" height="9.1"/>
		<rect x="83.5" y="44.8" fill="#404447" width="0.9" height="9.1"/>
		<rect x="74.2" y="57.4" fill="#404447" width="0.9" height="9.1"/>
		<rect x="60" y="70" fill="#404447" width="0.9" height="9.1"/>
		<rect x="58.3" y="70" fill="#404447" width="0.9" height="9.1"/>
		<rect x="61.6" y="57.4" fill="#404447" width="0.9" height="9.1"/>
		<rect x="53.4" y="70" fill="#404447" width="0.9" height="9.1"/>
		<rect x="56.6" y="70" fill="#404447" width="0.9" height="9.1"/>
		<rect x="40.8" y="70" fill="#404447" width="0.9" height="9.1"/>
		<rect x="55" y="70" fill="#404447" width="0.9" height="9.1"/>
		<rect x="61.6" y="70" fill="#404447" width="0.9" height="9.1"/>
		<rect x="47.3" y="70" fill="#404447" width="0.9" height="9.1"/>
		<rect x="49" y="70" fill="#404447" width="0.9" height="9.1"/>
		<path fill="#404447" d="M148.4,70.1c-4.2-2.4-9.8-2.8-14.6-1.4c-0.6-5.1-3.9-9.6-7.9-12.8l-1.6-1.3l-1.3,1.5
			c-2.7,3.1-3.5,8.2-3.1,12.1c0.3,2.9,1.2,5.8,3,8.2c-1.4,0.8-2.9,1.5-4.3,1.9c-2.8,0.9-5.8,1.5-8.8,1.5h-6.4V67H90.7V41.8H75.6
			v12.6H50.4V67H37.7v12.9H27l-0.2,1.9c-0.6,6.4,0.3,12.7,2.9,18.6l1.1,2.3l0.1,0.2c0.4,0.7,0.9,1.4,1.3,2.1h0l2.8,0.3
			c-0.7-0.9-1.3-1.9-1.9-2.9l-0.9-1.7c-0.1-0.2-0.2-0.4-0.3-0.6c-0.3-0.5-0.5-1.1-0.7-1.6c-0.1-0.1-0.1-0.3-0.2-0.4
			c-0.1-0.4-0.3-0.7-0.4-1.1c-0.1-0.2-0.1-0.4-0.2-0.6c0,0,0-0.1,0-0.1c-0.1-0.2-0.1-0.4-0.2-0.6c-0.1-0.2-0.1-0.4-0.2-0.6
			c0-0.1,0-0.2-0.1-0.2c-0.2-0.6-0.3-1.2-0.4-1.8c0-0.2-0.1-0.4-0.1-0.6c0-0.1-0.1-0.3-0.1-0.4c0-0.1-0.1-0.3-0.1-0.4
			c0-0.2-0.1-0.4-0.1-0.7c0-0.2-0.1-0.5-0.1-0.7c-0.4-2.7-0.4-5.5-0.2-8.4h80.9c6.6,0,13.1-2.5,16.2-5.2c-5.5-4.5-5-15.1-1.5-19.2
			c3.1,2.5,8,7.6,7.1,14.2c0.1,0,0.2-0.1,0.2-0.1c0.1,0,0.2-0.1,0.3-0.1h0c3.9-1.8,10.2-2.5,15.2,0.3c-3.3,6.4-10.4,8.3-17.9,7.5
			c-1.7,4.4-3.6,8.4-5.9,12c-0.4,0.6-0.8,1.2-1.2,1.8c0,0,0,0,0,0c-0.2,0.3-0.4,0.6-0.6,0.9c-0.2,0.3-0.4,0.5-0.6,0.8
			c0,0-0.1,0.1-0.1,0.1c-0.2,0.3-0.4,0.5-0.6,0.8c-0.2,0.3-0.4,0.6-0.6,0.8c-0.4,0.6-0.9,1.1-1.3,1.6c-0.2,0.2-0.4,0.4-0.5,0.6
			c-0.1,0.1-0.1,0.1-0.2,0.2c-0.2,0.2-0.4,0.4-0.6,0.6c0,0.1-0.1,0.1-0.1,0.2c-0.2,0.2-0.4,0.5-0.7,0.7c-0.2,0.2-0.4,0.4-0.6,0.7
			c-0.1,0.1-0.1,0.1-0.2,0.2c-0.2,0.2-0.4,0.4-0.6,0.6c-0.2,0.2-0.5,0.5-0.7,0.7c-0.5,0.4-0.9,0.9-1.4,1.3c0,0-0.1,0.1-0.1,0.1
			c-0.2,0.2-0.4,0.3-0.6,0.5c-0.1,0.1-0.2,0.2-0.3,0.2c-0.2,0.2-0.4,0.4-0.7,0.5c0,0,0,0-0.1,0.1c-0.2,0.2-0.4,0.4-0.7,0.5
			c-0.1,0.1-0.2,0.2-0.4,0.3c-0.2,0.1-0.3,0.3-0.5,0.4c-0.8,0.6-1.7,1.2-2.5,1.8c-0.3,0.2-0.5,0.3-0.8,0.5c0,0-0.1,0.1-0.1,0.1
			c-0.3,0.2-0.5,0.3-0.8,0.5c-0.3,0.2-0.5,0.3-0.8,0.5c-0.9,0.5-1.8,1.1-2.7,1.6c-0.3,0.1-0.5,0.3-0.8,0.4c0,0-0.1,0-0.1,0.1
			c-0.2,0.1-0.5,0.2-0.7,0.4c-0.1,0-0.2,0.1-0.3,0.1c-0.2,0.1-0.5,0.2-0.7,0.4c-0.1,0-0.1,0.1-0.2,0.1c-0.3,0.1-0.6,0.3-0.8,0.4
			c-0.3,0.1-0.6,0.3-0.9,0.4c-0.6,0.3-1.2,0.5-1.9,0.8c-0.3,0.1-0.6,0.2-1,0.4c-0.3,0.1-0.6,0.2-0.8,0.3c-0.1,0-0.1,0-0.2,0.1
			c-0.3,0.1-0.6,0.2-0.9,0.3c0,0,0,0-0.1,0c-0.3,0.1-0.5,0.2-0.8,0.3c-0.1,0-0.2,0.1-0.3,0.1c-0.3,0.1-0.5,0.2-0.8,0.3
			c-0.8,0.2-1.5,0.4-2.3,0.7c-0.3,0.1-0.6,0.2-0.9,0.2c-0.3,0.1-0.6,0.1-0.9,0.2c-0.3,0.1-0.6,0.1-0.9,0.2c-0.3,0.1-0.6,0.1-0.9,0.2
			c-0.3,0.1-0.7,0.1-1,0.2c-0.9,0.2-1.9,0.4-2.8,0.5c-0.3,0.1-0.6,0.1-0.9,0.1c-0.1,0-0.2,0-0.4,0.1c-0.2,0-0.5,0.1-0.7,0.1
			c-0.2,0-0.3,0-0.5,0.1c-0.3,0-0.6,0.1-0.9,0.1c-0.1,0-0.1,0-0.2,0c-0.4,0-0.8,0.1-1.2,0.1c-0.3,0-0.6,0.1-0.9,0.1
			c-0.5,0-1,0.1-1.4,0.1c-0.4,0-0.7,0.1-1.1,0.1c-0.3,0-0.5,0-0.8,0c-0.3,0-0.5,0-0.8,0c0,0-0.1,0-0.1,0c-0.3,0-0.6,0-1,0
			c-0.2,0-0.3,0-0.5,0c-0.2,0-0.4,0-0.7,0c-0.1,0-0.1,0-0.2,0c-0.1,0-0.2,0-0.3,0h-0.1c0,0-0.1,0-0.1,0c-0.3,0-0.7,0-1,0
			c-1.4,0-2.8-0.1-4.1-0.2c-0.2,0-0.3,0-0.5,0c-0.1,0-0.1,0-0.2,0c0,0,0,0,0,0c-0.8-0.1-1.7-0.2-2.5-0.3c-0.3,0-0.6-0.1-0.9-0.1
			c-0.6-0.1-1.1-0.2-1.7-0.3c-0.4-0.1-0.7-0.1-1-0.2c-0.7-0.2-1.5-0.3-2.2-0.5c-0.3-0.1-0.7-0.2-1-0.3c-0.4-0.1-0.7-0.2-1.1-0.3
			c-0.3-0.1-0.7-0.2-1-0.3c0,0,0,0,0,0c-0.2-0.1-0.4-0.1-0.5-0.2c-0.4-0.1-0.7-0.3-1.1-0.4c-0.2-0.1-0.3-0.1-0.5-0.2
			c-4.8-2.1-8.9-5-12.1-8.6l0,0l-2.8-0.1c8,10,20.2,14.4,33.3,14.4c28.8,0,52.6-12.9,63.5-40.1c7.3,0.4,14.8-1.8,18.3-8.7l0.9-1.8
			L148.4,70.1z M50.8,80.1H39.8V69.1h10.9V80.1z M63.4,80.1H52.5V69.1h10.9V80.1z M63.4,67.4H52.5V56.5h10.9V67.4z M76,80.1H65.1
			V69.1H76V80.1z M76,67.4H65.1V56.5H76V67.4z M88.6,80.1H77.7V69.1h10.9V80.1z M88.6,67.4H77.7V56.5h10.9V67.4z M88.6,54.8H77.7
			V43.9h10.9V54.8z M101.2,80.1H90.3V69.1h10.9V80.1z"/>
		<rect x="42.4" y="70" fill="#404447" width="0.9" height="9.1"/>
		<rect x="45.7" y="70" fill="#404447" width="0.9" height="9.1"/>
		<rect x="44" y="70" fill="#404447" width="0.9" height="9.1"/>
		<rect x="66" y="70" fill="#404447" width="0.9" height="9.1"/>
		<rect x="67.6" y="70" fill="#404447" width="0.9" height="9.1"/>
		<rect x="69.3" y="70" fill="#404447" width="0.9" height="9.1"/>
		<rect x="69.3" y="57.4" fill="#404447" width="0.9" height="9.1"/>
		<rect x="72.6" y="57.4" fill="#404447" width="0.9" height="9.1"/>
		<rect x="70.9" y="57.4" fill="#404447" width="0.9" height="9.1"/>
		<rect x="70.9" y="70" fill="#404447" width="0.9" height="9.1"/>
		<rect x="74.2" y="70" fill="#404447" width="0.9" height="9.1"/>
		<rect x="56.6" y="57.4" fill="#404447" width="0.9" height="9.1"/>
		<rect x="72.6" y="70" fill="#404447" width="0.9" height="9.1"/>
		<rect x="55" y="57.4" fill="#404447" width="0.9" height="9.1"/>
		<rect x="60" y="57.4" fill="#404447" width="0.9" height="9.1"/>
		<rect x="53.4" y="57.4" fill="#404447" width="0.9" height="9.1"/>
		<rect x="58.3" y="57.4" fill="#404447" width="0.9" height="9.1"/>
	</g>
	<polyline fill="#404447" points="32.3,105 32.3,105 35,105.4 	"/>
	<polyline fill="#404447" points="34,107.3 34,107.3 36.8,107.5 	"/>
</g>
</svg>
