<?xml version="1.0" encoding="utf-8"?>
<!-- Generator: Adobe Illustrator 19.1.0, SVG Export Plug-In . SVG Version: 6.00 Build 0)  -->
<svg version="1.1" id="Layer_1" xmlns="http://www.w3.org/2000/svg" xmlns:xlink="http://www.w3.org/1999/xlink" x="0px" y="0px"
	 viewBox="0 0 169.2 169.2" enable-background="new 0 0 169.2 169.2" xml:space="preserve">
<g>
	<rect fill="#FFFFFF" width="169.2" height="169.2"/>
	<g>
		<path fill="#404447" d="M48.2,151.1L48.2,151.1c0-2.8,2.1-5.1,5.1-5.1c1.8,0,3,0.6,3.9,1.6l-1.7,1.8c-0.6-0.6-1.2-1.1-2.2-1.1
			c-1.4,0-2.3,1.2-2.3,2.6v0c0,1.5,1,2.7,2.4,2.7c0.9,0,1.5-0.4,2.2-1l1.6,1.6c-0.9,1-2,1.8-3.9,1.8
			C50.3,156.1,48.2,153.9,48.2,151.1z"/>
		<path fill="#404447" d="M58.2,151.1L58.2,151.1c0-2.8,2.2-5.1,5.2-5.1c3,0,5.2,2.2,5.2,5v0c0,2.8-2.2,5-5.2,5
			C60.4,156.1,58.2,153.9,58.2,151.1z M66,151.1L66,151.1c0-1.5-1-2.7-2.5-2.7c-1.6,0-2.5,1.2-2.5,2.6v0c0,1.4,1,2.7,2.5,2.7
			C65,153.8,66,152.5,66,151.1z"/>
		<path fill="#404447" d="M70.6,146.2h2.7v1.4c0.6-0.8,1.4-1.5,2.8-1.5c2.1,0,3.3,1.4,3.3,3.6v6.2h-2.7v-5.4c0-1.3-0.6-2-1.7-2
			c-1,0-1.7,0.7-1.7,2v5.4h-2.7V146.2z"/>
		<path fill="#404447" d="M82.3,153.2v-4.6h-1.2v-2.3h1.2v-2.5H85v2.5h2.3v2.3H85v4.1c0,0.6,0.3,0.9,0.9,0.9c0.5,0,1-0.1,1.4-0.3
			v2.2c-0.6,0.3-1.2,0.6-2.2,0.6C83.4,156.1,82.3,155.4,82.3,153.2z"/>
		<path fill="#404447" d="M89.3,146.2h2.7v1.9c0.6-1.3,1.5-2.2,3.1-2.1v2.9H95c-1.8,0-2.9,1.1-2.9,3.4v3.6h-2.7V146.2z"/>
		<path fill="#404447" d="M96.1,151.1L96.1,151.1c0-2.8,2.2-5.1,5.2-5.1c3,0,5.2,2.2,5.2,5v0c0,2.8-2.2,5-5.2,5
			C98.3,156.1,96.1,153.9,96.1,151.1z M103.9,151.1L103.9,151.1c0-1.5-1-2.7-2.5-2.7c-1.6,0-2.5,1.2-2.5,2.6v0c0,1.4,1,2.7,2.5,2.7
			C102.9,153.8,103.9,152.5,103.9,151.1z"/>
		<path fill="#404447" d="M108.7,142.8h2.7v13.1h-2.7V142.8z"/>
		<path fill="#404447" d="M113.2,154.6l1.2-1.8c1,0.8,2.1,1.2,3,1.2c0.8,0,1.2-0.3,1.2-0.7v0c0-0.6-0.9-0.8-2-1.1
			c-1.3-0.4-2.9-1-2.9-2.9v0c0-2,1.6-3.1,3.5-3.1c1.2,0,2.6,0.4,3.6,1.1l-1,1.9c-1-0.6-1.9-0.9-2.6-0.9c-0.7,0-1,0.3-1,0.7v0
			c0,0.5,0.9,0.8,2,1.2c1.4,0.5,2.9,1.1,2.9,2.9v0c0,2.1-1.6,3.1-3.7,3.1C116,156.1,114.5,155.6,113.2,154.6z"/>
	</g>
</g>
<g>
	<g>
		<path fill="#404447" d="M110.3,124.4h-51c-1.6,0-3-0.8-3.8-2.2L30,78.1c-0.8-1.4-0.8-3,0-4.4l25.5-44.2c0.8-1.4,2.2-2.2,3.8-2.2
			h51c1.6,0,3,0.8,3.8,2.2l25.5,44.2c0.8,1.4,0.8,3,0,4.4l-25.5,44.1C113.3,123.6,111.9,124.4,110.3,124.4L110.3,124.4z M61.9,115.6
			h45.9l23-39.8l-23-39.8H61.9l-23,39.8L61.9,115.6L61.9,115.6z"/>
	</g>
	<g>
		<path fill="#404447" d="M84.8,102.2c-14.5,0-26.4-11.8-26.4-26.4s11.8-26.4,26.4-26.4c14.5,0,26.4,11.8,26.4,26.4
			S99.4,102.2,84.8,102.2L84.8,102.2z M84.8,58.3c-9.7,0-17.6,7.9-17.6,17.6s7.9,17.6,17.6,17.6c9.7,0,17.6-7.9,17.6-17.6
			S94.5,58.3,84.8,58.3L84.8,58.3z"/>
	</g>
</g>
</svg>
