<?xml version="1.0" encoding="utf-8"?>
<!-- Generator: Adobe Illustrator 20.0.0, SVG Export Plug-In . SVG Version: 6.00 Build 0)  -->
<svg version="1.1" id="Layer_1" xmlns="http://www.w3.org/2000/svg" xmlns:xlink="http://www.w3.org/1999/xlink" x="0px" y="0px"
	 viewBox="0 0 336.4 235.6" style="enable-background:new 0 0 336.4 235.6;" xml:space="preserve">
<style type="text/css">
	.st0{opacity:0.7;fill:none;stroke:#7F888D;stroke-width:3;stroke-miterlimit:10;}
	.st1{fill:#7F888D;}
	.st2{opacity:0.2;fill:#F08921;}
	.st3{fill:#435363;}
	.st4{fill:#F38B00;}
	.st5{fill:#F08921;}
	.st6{opacity:0.5;fill:#F08921;}
	.st7{fill:#FFFFFF;}
	.st8{fill:#445464;}
	.st9{clip-path:url(#SVGID_2_);fill:#FFFFFF;}
</style>
<line class="st0" x1="52.9" y1="120.6" x2="52.9" y2="177.6"/>
<line class="st0" x1="283.9" y1="120.6" x2="283.9" y2="177.6"/>
<line class="st0" x1="168.9" y1="120.6" x2="168.9" y2="177.6"/>
<rect x="19.3" y="130.7" class="st1" width="297.8" height="31.5"/>
<rect y="0.6" class="st2" width="336.4" height="120.1"/>
<path class="st3" d="M9.2,15L9.2,15c0-3.6,2.7-6.5,6.6-6.5c2.4,0,3.8,0.8,5,1.9l-1.8,2c-1-0.9-2-1.4-3.2-1.4c-2.1,0-3.6,1.8-3.6,3.9
	v0c0,2.2,1.5,4,3.6,4c1.4,0,2.3-0.6,3.3-1.5l1.8,1.8c-1.3,1.4-2.7,2.2-5.2,2.2C11.9,21.4,9.2,18.6,9.2,15z"/>
<path class="st3" d="M23,8.6h2.8v5h5.1v-5h2.8v12.6h-2.8v-5.1h-5.1v5.1H23V8.6z"/>
<path class="st3" d="M36.7,8.6h9.5v2.5h-6.7v2.6h5.9v2.5h-5.9v2.6h6.8v2.5h-9.6V8.6z"/>
<path class="st3" d="M48.7,8.6h9.6v2.5h-6.8v2.7h6v2.5h-6v4.9h-2.8V8.6z"/>
<path class="st4" d="M65.4,8.6h1.3l5.7,12.7h-1.5l-1.5-3.3h-6.8l-1.5,3.3h-1.5L65.4,8.6z M68.9,16.6l-2.9-6.4l-2.9,6.4H68.9z"/>
<path class="st4" d="M74.3,16V8.6h1.4v7.2c0,2.7,1.5,4.2,3.8,4.2c2.3,0,3.8-1.4,3.8-4.2V8.6h1.4v7.2c0,3.7-2.1,5.6-5.2,5.6
	C76.4,21.4,74.3,19.5,74.3,16z"/>
<path class="st4" d="M91.5,10h-4.2V8.6h9.9V10h-4.2v11.3h-1.4V10z"/>
<path class="st4" d="M98.4,15L98.4,15c0-3.5,2.6-6.5,6.4-6.5s6.4,3,6.4,6.5v0c0,3.5-2.6,6.5-6.4,6.5S98.4,18.4,98.4,15z M109.7,15
	L109.7,15c0-2.9-2.1-5.2-5-5.2s-4.9,2.3-4.9,5.2v0c0,2.9,2.1,5.2,5,5.2S109.7,17.8,109.7,15z"/>
<path class="st4" d="M114.2,8.6h1.4l4.6,6.9l4.6-6.9h1.4v12.6h-1.4V11l-4.6,6.7h-0.1l-4.6-6.7v10.2h-1.4V8.6z"/>
<path class="st4" d="M134.5,8.6h1.3l5.7,12.7H140l-1.5-3.3h-6.8l-1.5,3.3h-1.5L134.5,8.6z M138,16.6l-2.9-6.4l-2.9,6.4H138z"/>
<path class="st4" d="M145.7,10h-4.2V8.6h9.9V10h-4.2v11.3h-1.4V10z"/>
<path class="st4" d="M154,8.6h9.1v1.3h-7.7v4.3h6.9v1.3h-6.9v4.4h7.8v1.3H154V8.6z"/>
<g>
	<rect x="6.6" y="29.5" class="st5" width="279.1" height="40.1"/>
	<rect x="6.6" y="72.4" class="st5" width="279.1" height="40.1"/>
	<rect x="288.6" y="29.5" class="st6" width="41.2" height="82.9"/>
	<g>
		<path class="st7" d="M117.1,44.5h2l1.7,5.7l1.9-5.7h1.6l1.9,5.7l1.7-5.7h1.9l-2.9,8.5h-1.6l-1.9-5.5l-1.9,5.5h-1.6L117.1,44.5z"/>
		<path class="st7" d="M129.9,49.7L129.9,49.7c0-1.9,1.5-3.4,3.5-3.4c2,0,3.5,1.5,3.5,3.3v0c0,1.8-1.5,3.3-3.5,3.3
			C131.4,53,129.9,51.5,129.9,49.7z M135,49.7L135,49.7c0-1-0.7-1.8-1.7-1.8c-1,0-1.7,0.8-1.7,1.8v0c0,0.9,0.7,1.8,1.7,1.8
			C134.4,51.4,135,50.6,135,49.7z"/>
		<path class="st7" d="M138.2,46.4h1.8v1.3c0.4-0.9,1-1.5,2.1-1.4v1.9h-0.1c-1.2,0-2,0.7-2,2.3v2.4h-1.8V46.4z"/>
		<path class="st7" d="M143.2,44.1h1.8v4.7l2.1-2.3h2.2l-2.4,2.5l2.5,3.9h-2.1l-1.6-2.6l-0.6,0.7v2h-1.8V44.1z"/>
		<path class="st7" d="M150.6,48h-0.8v-1.5h0.8v-0.4c0-0.7,0.2-1.2,0.5-1.6s0.8-0.5,1.5-0.5c0.6,0,1,0.1,1.3,0.2v1.5
			c-0.3-0.1-0.5-0.2-0.8-0.2c-0.4,0-0.7,0.2-0.7,0.7v0.3h1.5V48h-1.5v4.9h-1.8V48z M155,44.1h1.8v8.8H155V44.1z"/>
		<path class="st7" d="M158.2,49.7L158.2,49.7c0-1.9,1.5-3.4,3.5-3.4c2,0,3.5,1.5,3.5,3.3v0c0,1.8-1.5,3.3-3.5,3.3
			C159.7,53,158.2,51.5,158.2,49.7z M163.3,49.7L163.3,49.7c0-1-0.7-1.8-1.7-1.8c-1,0-1.7,0.8-1.7,1.8v0c0,0.9,0.7,1.8,1.7,1.8
			C162.7,51.4,163.3,50.6,163.3,49.7z"/>
		<path class="st7" d="M165.6,46.4h1.8l1,3.9l1.2-3.9h1.6l1.2,3.9l1.1-3.9h1.8l-2,6.5h-1.6l-1.2-3.9l-1.3,3.9h-1.6L165.6,46.4z"/>
	</g>
	<g>
		<path class="st7" d="M119.9,87.3h2l2.2,5.9l2.2-5.9h2l-3.4,8.5h-1.6L119.9,87.3z"/>
		<path class="st7" d="M129.2,87h1.9v1.6h-1.9V87z M129.3,89.3h1.8v6.4h-1.8V89.3z"/>
		<path class="st7" d="M132.3,94.9l0.8-1.2c0.7,0.5,1.4,0.8,2,0.8c0.5,0,0.8-0.2,0.8-0.5v0c0-0.4-0.6-0.5-1.3-0.7
			c-0.9-0.3-1.9-0.7-1.9-1.9v0c0-1.3,1.1-2,2.4-2c0.8,0,1.7,0.3,2.4,0.7l-0.7,1.3c-0.6-0.4-1.3-0.6-1.7-0.6c-0.4,0-0.7,0.2-0.7,0.4
			v0c0,0.4,0.6,0.5,1.3,0.8c0.9,0.3,1.9,0.7,1.9,1.9v0c0,1.4-1.1,2.1-2.5,2.1C134.2,95.8,133.1,95.5,132.3,94.9z"/>
		<path class="st7" d="M138.9,87h1.9v1.6h-1.9V87z M138.9,89.3h1.8v6.4h-1.8V89.3z"/>
		<path class="st7" d="M144.3,94.9v0.8h-1.8V87h1.8v3.3c0.4-0.6,1.1-1,2-1c1.5,0,2.9,1.2,2.9,3.3v0c0,2.1-1.4,3.3-2.9,3.3
			C145.3,95.8,144.7,95.4,144.3,94.9z M147.4,92.5L147.4,92.5c0-1.1-0.7-1.8-1.6-1.8s-1.6,0.7-1.6,1.8v0c0,1.1,0.7,1.8,1.6,1.8
			S147.4,93.6,147.4,92.5z"/>
		<path class="st7" d="M150.6,87h1.9v1.6h-1.9V87z M150.6,89.3h1.8v6.4h-1.8V89.3z"/>
		<path class="st7" d="M154.3,87h1.8v8.8h-1.8V87z"/>
		<path class="st7" d="M157.8,87h1.9v1.6h-1.9V87z M157.9,89.3h1.8v6.4h-1.8V89.3z"/>
		<path class="st7" d="M161.7,93.9v-3H161v-1.6h0.8v-1.6h1.8v1.6h1.5v1.6h-1.5v2.7c0,0.4,0.2,0.6,0.6,0.6c0.3,0,0.6-0.1,0.9-0.2v1.5
			c-0.4,0.2-0.8,0.4-1.4,0.4C162.5,95.8,161.7,95.4,161.7,93.9z"/>
		<path class="st7" d="M170.6,89.3h1.9l-2.5,6.6c-0.5,1.3-1,1.8-2.1,1.8c-0.7,0-1.2-0.2-1.6-0.4l0.6-1.3c0.2,0.1,0.5,0.3,0.8,0.3
			c0.3,0,0.5-0.1,0.6-0.4l-2.5-6.5h1.9l1.5,4.4L170.6,89.3z"/>
	</g>
	<g>
		<path class="st8" d="M308.7,38.5L308.7,38.5c2.2,0,4,1.7,4,4c0,1.5-0.5,2.3-1.2,3l-1.2-1.1c0.5-0.6,0.9-1.2,0.9-2
			c0-1.3-1.1-2.2-2.4-2.2h0c-1.3,0-2.4,0.9-2.4,2.2c0,0.9,0.4,1.4,0.9,2l-1.1,1.1c-0.8-0.8-1.4-1.7-1.4-3.2
			C304.7,40.2,306.5,38.5,308.7,38.5z"/>
		<path class="st8" d="M307.8,46.4L307.8,46.4c1.7,0,3.1,1.4,3.1,3.2c0,1.8-1.4,3.2-3,3.2h0c-1.7,0-3.1-1.4-3.1-3.2
			C304.7,47.8,306.1,46.4,307.8,46.4z M307.8,51.2L307.8,51.2c0.9,0,1.7-0.6,1.7-1.6c0-1-0.7-1.5-1.6-1.5h0c-0.9,0-1.6,0.6-1.6,1.6
			C306.1,50.6,306.9,51.2,307.8,51.2z"/>
		<path class="st8" d="M310.7,54v1.7h-0.8c0.5,0.4,0.9,0.9,0.9,1.7c0,0.8-0.3,1.4-0.9,1.7c0.6,0.5,0.9,1.1,0.9,1.9
			c0,1.2-0.7,2-2.2,2h-3.8v-1.7h3.3c0.8,0,1.2-0.4,1.2-1c0-0.6-0.4-1-1.2-1h-3.3v-1.7h3.3c0.8,0,1.2-0.4,1.2-1c0-0.6-0.4-1-1.2-1
			h-3.3V54H310.7z"/>
		<path class="st8" d="M310.7,64.5v1.7h-0.8c0.5,0.4,1,1,1,1.8c0,1.4-1.1,2.7-3,2.7h0c-2,0-3-1.3-3-2.7c0-0.9,0.4-1.4,0.9-1.8h-2.5
			v-1.7H310.7z M307.8,69L307.8,69c1,0,1.7-0.7,1.7-1.4s-0.6-1.4-1.6-1.4h0c-1,0-1.6,0.6-1.6,1.4S306.8,69,307.8,69z"/>
		<path class="st8" d="M312.9,72v1.7h-8V72H312.9z"/>
		<path class="st8" d="M310.7,75.3V77h-5.9v-1.7H310.7z M312.9,75.2V77h-1.5v-1.8H312.9z"/>
		<path class="st8" d="M306.5,78.2L306.5,78.2c1.3,0,1.9,1,1.9,2.4c0,0.6-0.1,1-0.2,1.4h0.1c0.7,0,1.1-0.4,1.1-1.3
			c0-0.6-0.1-1.1-0.3-1.6l1.3-0.4c0.3,0.6,0.5,1.3,0.5,2.3c0,0.9-0.2,1.6-0.7,2c-0.4,0.4-1.1,0.6-1.9,0.6h-3.4V82h0.6
			c-0.5-0.4-0.7-1-0.7-1.8C304.7,79.1,305.4,78.2,306.5,78.2z M306.9,82h0.3c0.1-0.3,0.2-0.7,0.2-1.1c0-0.7-0.3-1.2-0.8-1.2h0
			c-0.5,0-0.7,0.4-0.7,0.9C305.9,81.5,306.3,82,306.9,82z"/>
		<path class="st8" d="M310.7,85v1.7h-0.8c0.5,0.4,0.9,0.9,0.9,1.7c0,1.3-0.8,2-2.2,2h-3.8v-1.7h3.3c0.8,0,1.2-0.4,1.2-1
			c0-0.6-0.4-1-1.2-1h-3.3V85H310.7z"/>
		<path class="st8" d="M307.8,91.6L307.8,91.6c1.7,0,3.1,1.3,3.1,3.1c0,1.1-0.4,1.8-1,2.4l-1.1-1c0.4-0.4,0.6-0.7,0.6-1.3
			c0-0.8-0.7-1.4-1.6-1.4h0c-0.9,0-1.6,0.6-1.6,1.5c0,0.6,0.2,0.9,0.6,1.4l-1,1c-0.6-0.6-1.1-1.2-1.1-2.4
			C304.7,92.9,306.1,91.6,307.8,91.6z"/>
		<path class="st8" d="M307.8,97.7L307.8,97.7c1.7,0,3.1,1.2,3.1,2.9c0,2-1.5,2.9-3.2,2.9c-0.1,0-0.3,0-0.4,0v-4.1
			c-0.8,0.2-1.2,0.7-1.2,1.4c0,0.6,0.2,1,0.6,1.4l-0.8,1c-0.7-0.5-1.1-1.3-1.1-2.4C304.7,99,305.9,97.7,307.8,97.7z M308.2,101.9
			c0.7-0.1,1.3-0.5,1.3-1.2c0-0.7-0.5-1.1-1.3-1.3V101.9z"/>
	</g>
</g>
<rect x="0.1" y="172.4" class="st8" width="106.1" height="63.7"/>
<rect x="230.2" y="172.4" class="st8" width="106.1" height="63.7"/>
<rect x="115.2" y="172.4" class="st8" width="106.1" height="63.7"/>
<g>
	<g>
		<path class="st7" d="M8.8,218.1h0.6v4.9H8.8V218.1z"/>
		<path class="st7" d="M10.7,219.3h0.5v0.6c0.2-0.4,0.6-0.7,1.2-0.7c0.9,0,1.4,0.6,1.4,1.5v2.2h-0.5v-2.1c0-0.7-0.4-1.1-1-1.1
			c-0.6,0-1.1,0.5-1.1,1.1v2.1h-0.5V219.3z"/>
		<path class="st7" d="M15.2,219.8h-0.5v-0.5h0.5V219c0-0.4,0.1-0.7,0.3-0.9c0.2-0.2,0.4-0.3,0.8-0.3c0.3,0,0.4,0,0.6,0.1v0.5
			c-0.2-0.1-0.3-0.1-0.5-0.1c-0.4,0-0.6,0.3-0.6,0.8v0.3h1.1v0.5h-1.1v3.1h-0.5V219.8z"/>
		<path class="st7" d="M17.5,219.3h0.5v0.9c0.3-0.6,0.8-1,1.5-1v0.6h0c-0.8,0-1.4,0.6-1.4,1.7v1.4h-0.5V219.3z"/>
		<path class="st7" d="M19.9,221.9L19.9,221.9c0-0.8,0.6-1.2,1.5-1.2c0.5,0,0.8,0.1,1.1,0.2v-0.1c0-0.7-0.4-1-1.1-1
			c-0.4,0-0.8,0.1-1.1,0.3l-0.2-0.4c0.4-0.2,0.8-0.3,1.3-0.3c0.5,0,0.9,0.1,1.2,0.4c0.2,0.2,0.4,0.6,0.4,1.1v2.2h-0.5v-0.5
			c-0.3,0.3-0.7,0.6-1.3,0.6C20.6,223,19.9,222.7,19.9,221.9z M22.6,221.6v-0.3c-0.3-0.1-0.6-0.2-1.1-0.2c-0.7,0-1.1,0.3-1.1,0.7v0
			c0,0.5,0.4,0.7,0.9,0.7C22.1,222.6,22.6,222.2,22.6,221.6z"/>
		<path class="st7" d="M24,222.5l0.3-0.4c0.4,0.3,0.8,0.5,1.3,0.5c0.4,0,0.7-0.2,0.7-0.6v0c0-0.4-0.4-0.5-0.9-0.6
			c-0.6-0.2-1.2-0.4-1.2-1v0c0-0.6,0.5-1,1.2-1c0.4,0,0.9,0.2,1.3,0.4l-0.2,0.4c-0.3-0.2-0.7-0.3-1.1-0.3c-0.4,0-0.7,0.2-0.7,0.5v0
			c0,0.3,0.4,0.5,0.9,0.6c0.6,0.2,1.2,0.4,1.2,1v0c0,0.7-0.6,1.1-1.3,1.1C24.9,223,24.4,222.8,24,222.5z"/>
		<path class="st7" d="M27.9,222v-2.2h-0.5v-0.5h0.5v-1.1h0.5v1.1h1.1v0.5h-1.1v2.1c0,0.4,0.2,0.6,0.6,0.6c0.2,0,0.3,0,0.5-0.1v0.5
			c-0.2,0.1-0.4,0.2-0.7,0.2C28.3,223,27.9,222.7,27.9,222z"/>
		<path class="st7" d="M30.5,219.3H31v0.9c0.3-0.6,0.8-1,1.5-1v0.6h0c-0.8,0-1.4,0.6-1.4,1.7v1.4h-0.5V219.3z"/>
		<path class="st7" d="M33.3,221.6v-2.2h0.5v2.1c0,0.7,0.4,1.1,1,1.1c0.6,0,1.1-0.5,1.1-1.1v-2.1h0.5v3.6h-0.5v-0.6
			c-0.2,0.4-0.6,0.7-1.2,0.7C33.8,223,33.3,222.4,33.3,221.6z"/>
		<path class="st7" d="M37.4,221.2L37.4,221.2c0-1,0.8-1.9,1.9-1.9c0.7,0,1.1,0.3,1.4,0.6l-0.4,0.4c-0.3-0.3-0.6-0.5-1.1-0.5
			c-0.7,0-1.3,0.6-1.3,1.4v0c0,0.8,0.6,1.4,1.3,1.4c0.5,0,0.8-0.2,1.1-0.5l0.3,0.3c-0.4,0.4-0.8,0.7-1.5,0.7
			C38.2,223,37.4,222.2,37.4,221.2z"/>
		<path class="st7" d="M41.8,222v-2.2h-0.5v-0.5h0.5v-1.1h0.5v1.1h1.1v0.5h-1.1v2.1c0,0.4,0.2,0.6,0.6,0.6c0.2,0,0.3,0,0.5-0.1v0.5
			c-0.2,0.1-0.4,0.2-0.7,0.2C42.3,223,41.8,222.7,41.8,222z"/>
		<path class="st7" d="M44.4,221.6v-2.2H45v2.1c0,0.7,0.4,1.1,1,1.1c0.6,0,1.1-0.5,1.1-1.1v-2.1h0.5v3.6H47v-0.6
			c-0.2,0.4-0.6,0.7-1.2,0.7C44.9,223,44.4,222.4,44.4,221.6z"/>
		<path class="st7" d="M48.8,219.3h0.5v0.9c0.3-0.6,0.8-1,1.5-1v0.6h0c-0.8,0-1.4,0.6-1.4,1.7v1.4h-0.5V219.3z"/>
		<path class="st7" d="M51.2,221.2L51.2,221.2c0-1.1,0.7-1.9,1.7-1.9c1.1,0,1.7,0.9,1.7,1.9c0,0.1,0,0.1,0,0.2h-2.9
			c0.1,0.8,0.6,1.2,1.3,1.2c0.5,0,0.8-0.2,1.1-0.5l0.3,0.3c-0.4,0.4-0.8,0.7-1.5,0.7C52.1,223,51.2,222.3,51.2,221.2z M54.1,221
			c-0.1-0.7-0.4-1.2-1.2-1.2c-0.6,0-1.1,0.5-1.2,1.2H54.1z"/>
		<path class="st7" d="M59.6,218h0.5l2.2,4.9h-0.6l-0.6-1.3h-2.7l-0.6,1.3h-0.6L59.6,218z M61,221.2l-1.1-2.5l-1.1,2.5H61z"/>
		<path class="st7" d="M63.1,221.6v-2.2h0.5v2.1c0,0.7,0.4,1.1,1,1.1c0.6,0,1.1-0.5,1.1-1.1v-2.1h0.5v3.6h-0.5v-0.6
			c-0.2,0.4-0.6,0.7-1.2,0.7C63.6,223,63.1,222.4,63.1,221.6z"/>
		<path class="st7" d="M67.7,222v-2.2h-0.5v-0.5h0.5v-1.1h0.5v1.1h1.1v0.5h-1.1v2.1c0,0.4,0.2,0.6,0.6,0.6c0.2,0,0.3,0,0.5-0.1v0.5
			c-0.2,0.1-0.4,0.2-0.7,0.2C68.1,223,67.7,222.7,67.7,222z"/>
		<path class="st7" d="M70,221.2L70,221.2c0-1,0.8-1.9,1.9-1.9c1.1,0,1.9,0.9,1.9,1.9v0c0,1-0.8,1.9-1.9,1.9
			C70.8,223,70,222.2,70,221.2z M73.2,221.2L73.2,221.2c0-0.8-0.6-1.4-1.3-1.4c-0.8,0-1.3,0.6-1.3,1.4v0c0,0.8,0.6,1.4,1.3,1.4
			C72.7,222.6,73.2,221.9,73.2,221.2z"/>
		<path class="st7" d="M74.7,219.3h0.5v0.6c0.2-0.4,0.6-0.7,1.2-0.7c0.6,0,1,0.3,1.2,0.7c0.3-0.4,0.6-0.7,1.3-0.7
			c0.8,0,1.3,0.6,1.3,1.5v2.2h-0.5v-2.1c0-0.7-0.4-1.1-0.9-1.1c-0.5,0-1,0.4-1,1.1v2.1h-0.5v-2.1c0-0.7-0.4-1.1-0.9-1.1
			s-1,0.5-1,1.1v2.1h-0.5V219.3z"/>
		<path class="st7" d="M81.1,221.9L81.1,221.9c0-0.8,0.6-1.2,1.5-1.2c0.5,0,0.8,0.1,1.1,0.2v-0.1c0-0.7-0.4-1-1.1-1
			c-0.4,0-0.8,0.1-1.1,0.3l-0.2-0.4c0.4-0.2,0.8-0.3,1.3-0.3c0.5,0,0.9,0.1,1.2,0.4c0.2,0.2,0.4,0.6,0.4,1.1v2.2h-0.5v-0.5
			c-0.3,0.3-0.7,0.6-1.3,0.6C81.8,223,81.1,222.7,81.1,221.9z M83.8,221.6v-0.3c-0.3-0.1-0.6-0.2-1.1-0.2c-0.7,0-1.1,0.3-1.1,0.7v0
			c0,0.5,0.4,0.7,0.9,0.7C83.2,222.6,83.8,222.2,83.8,221.6z"/>
		<path class="st7" d="M85.6,222v-2.2h-0.5v-0.5h0.5v-1.1h0.5v1.1h1.1v0.5h-1.1v2.1c0,0.4,0.2,0.6,0.6,0.6c0.2,0,0.3,0,0.5-0.1v0.5
			c-0.2,0.1-0.4,0.2-0.7,0.2C86,223,85.6,222.7,85.6,222z"/>
		<path class="st7" d="M88.2,218h0.6v0.6h-0.6V218z M88.3,219.3h0.5v3.6h-0.5V219.3z"/>
		<path class="st7" d="M89.8,221.2L89.8,221.2c0-1,0.8-1.9,1.9-1.9c1.1,0,1.9,0.9,1.9,1.9v0c0,1-0.8,1.9-1.9,1.9
			C90.6,223,89.8,222.2,89.8,221.2z M93.1,221.2L93.1,221.2c0-0.8-0.6-1.4-1.3-1.4c-0.8,0-1.3,0.6-1.3,1.4v0c0,0.8,0.6,1.4,1.3,1.4
			C92.5,222.6,93.1,221.9,93.1,221.2z"/>
		<path class="st7" d="M94.6,219.3h0.5v0.6c0.2-0.4,0.6-0.7,1.2-0.7c0.9,0,1.4,0.6,1.4,1.5v2.2h-0.5v-2.1c0-0.7-0.4-1.1-1-1.1
			c-0.6,0-1.1,0.5-1.1,1.1v2.1h-0.5V219.3z"/>
	</g>
</g>
<g>
	<g>
		<path class="st7" d="M241.7,220.5L241.7,220.5c0-1.4,1-2.5,2.5-2.5c0.9,0,1.4,0.3,1.9,0.8l-0.4,0.4c-0.4-0.4-0.9-0.7-1.5-0.7
			c-1.1,0-1.9,0.9-1.9,2v0c0,1.1,0.8,2,1.9,2c0.7,0,1.1-0.3,1.6-0.7l0.4,0.4c-0.5,0.5-1.1,0.9-2,0.9
			C242.7,223,241.7,221.9,241.7,220.5z"/>
		<path class="st7" d="M246.7,221.2L246.7,221.2c0-1,0.8-1.9,1.9-1.9c1.1,0,1.9,0.9,1.9,1.9v0c0,1-0.8,1.9-1.9,1.9
			C247.5,223,246.7,222.2,246.7,221.2z M249.9,221.2L249.9,221.2c0-0.8-0.6-1.4-1.3-1.4c-0.8,0-1.3,0.6-1.3,1.4v0
			c0,0.8,0.6,1.4,1.3,1.4C249.4,222.6,249.9,221.9,249.9,221.2z"/>
		<path class="st7" d="M251.4,219.3h0.5v0.6c0.2-0.4,0.6-0.7,1.2-0.7c0.6,0,1,0.3,1.2,0.7c0.3-0.4,0.6-0.7,1.3-0.7
			c0.8,0,1.3,0.6,1.3,1.5v2.2h-0.5v-2.1c0-0.7-0.4-1.1-0.9-1.1c-0.5,0-1,0.4-1,1.1v2.1h-0.5v-2.1c0-0.7-0.4-1.1-0.9-1.1
			c-0.6,0-1,0.5-1,1.1v2.1h-0.5V219.3z"/>
		<path class="st7" d="M258.1,219.3h0.5v0.7c0.3-0.4,0.7-0.8,1.4-0.8c0.9,0,1.7,0.7,1.7,1.9v0c0,1.2-0.9,1.9-1.7,1.9
			c-0.7,0-1.1-0.4-1.4-0.8v1.8h-0.5V219.3z M261.2,221.2L261.2,221.2c0-0.9-0.6-1.4-1.3-1.4c-0.7,0-1.3,0.6-1.3,1.4v0
			c0,0.8,0.6,1.4,1.3,1.4C260.6,222.6,261.2,222,261.2,221.2z"/>
		<path class="st7" d="M262.8,217.8h0.5v5.1h-0.5V217.8z"/>
		<path class="st7" d="M264.6,218h0.6v0.6h-0.6V218z M264.6,219.3h0.5v3.6h-0.5V219.3z"/>
		<path class="st7" d="M266.1,221.9L266.1,221.9c0-0.8,0.6-1.2,1.5-1.2c0.5,0,0.8,0.1,1.1,0.2v-0.1c0-0.7-0.4-1-1.1-1
			c-0.4,0-0.8,0.1-1.1,0.3l-0.2-0.4c0.4-0.2,0.8-0.3,1.3-0.3c0.5,0,0.9,0.1,1.2,0.4c0.2,0.2,0.4,0.6,0.4,1.1v2.2h-0.5v-0.5
			c-0.3,0.3-0.7,0.6-1.3,0.6C266.8,223,266.1,222.7,266.1,221.9z M268.8,221.6v-0.3c-0.3-0.1-0.6-0.2-1.1-0.2
			c-0.7,0-1.1,0.3-1.1,0.7v0c0,0.5,0.4,0.7,0.9,0.7C268.3,222.6,268.8,222.2,268.8,221.6z"/>
		<path class="st7" d="M270.5,219.3h0.5v0.6c0.2-0.4,0.6-0.7,1.2-0.7c0.9,0,1.4,0.6,1.4,1.5v2.2h-0.5v-2.1c0-0.7-0.4-1.1-1-1.1
			c-0.6,0-1.1,0.5-1.1,1.1v2.1h-0.5V219.3z"/>
		<path class="st7" d="M274.6,221.2L274.6,221.2c0-1,0.8-1.9,1.9-1.9c0.7,0,1.1,0.3,1.5,0.6l-0.4,0.4c-0.3-0.3-0.6-0.5-1.1-0.5
			c-0.7,0-1.3,0.6-1.3,1.4v0c0,0.8,0.6,1.4,1.3,1.4c0.5,0,0.8-0.2,1.1-0.5l0.3,0.3c-0.4,0.4-0.8,0.7-1.5,0.7
			C275.4,223,274.6,222.2,274.6,221.2z"/>
		<path class="st7" d="M278.4,221.2L278.4,221.2c0-1.1,0.7-1.9,1.7-1.9c1.1,0,1.7,0.9,1.7,1.9c0,0.1,0,0.1,0,0.2H279
			c0.1,0.8,0.6,1.2,1.3,1.2c0.5,0,0.8-0.2,1.1-0.5l0.3,0.3c-0.4,0.4-0.8,0.7-1.5,0.7C279.3,223,278.4,222.3,278.4,221.2z M281.3,221
			c-0.1-0.7-0.4-1.2-1.2-1.2c-0.6,0-1.1,0.5-1.2,1.2H281.3z"/>
		<path class="st7" d="M286.8,218h0.5l2.2,4.9H289l-0.6-1.3h-2.7l-0.6,1.3h-0.6L286.8,218z M288.2,221.2l-1.1-2.5l-1.1,2.5H288.2z"
			/>
		<path class="st7" d="M290.3,221.6v-2.2h0.5v2.1c0,0.7,0.4,1.1,1,1.1c0.6,0,1.1-0.5,1.1-1.1v-2.1h0.5v3.6h-0.5v-0.6
			c-0.2,0.4-0.6,0.7-1.2,0.7C290.8,223,290.3,222.4,290.3,221.6z"/>
		<path class="st7" d="M294.9,222v-2.2h-0.5v-0.5h0.5v-1.1h0.5v1.1h1.1v0.5h-1.1v2.1c0,0.4,0.2,0.6,0.6,0.6c0.2,0,0.3,0,0.5-0.1v0.5
			c-0.2,0.1-0.4,0.2-0.7,0.2C295.3,223,294.9,222.7,294.9,222z"/>
		<path class="st7" d="M297.2,221.2L297.2,221.2c0-1,0.8-1.9,1.9-1.9c1.1,0,1.9,0.9,1.9,1.9v0c0,1-0.8,1.9-1.9,1.9
			C298,223,297.2,222.2,297.2,221.2z M300.4,221.2L300.4,221.2c0-0.8-0.6-1.4-1.3-1.4c-0.8,0-1.3,0.6-1.3,1.4v0
			c0,0.8,0.6,1.4,1.3,1.4C299.9,222.6,300.4,221.9,300.4,221.2z"/>
		<path class="st7" d="M301.9,219.3h0.5v0.6c0.2-0.4,0.6-0.7,1.2-0.7c0.6,0,1,0.3,1.2,0.7c0.3-0.4,0.6-0.7,1.3-0.7
			c0.8,0,1.3,0.6,1.3,1.5v2.2h-0.5v-2.1c0-0.7-0.4-1.1-0.9-1.1c-0.5,0-1,0.4-1,1.1v2.1h-0.5v-2.1c0-0.7-0.4-1.1-0.9-1.1
			c-0.6,0-1,0.5-1,1.1v2.1h-0.5V219.3z"/>
		<path class="st7" d="M308.3,221.9L308.3,221.9c0-0.8,0.6-1.2,1.5-1.2c0.5,0,0.8,0.1,1.1,0.2v-0.1c0-0.7-0.4-1-1.1-1
			c-0.4,0-0.8,0.1-1.1,0.3l-0.2-0.4c0.4-0.2,0.8-0.3,1.3-0.3c0.5,0,0.9,0.1,1.2,0.4c0.2,0.2,0.4,0.6,0.4,1.1v2.2H311v-0.5
			c-0.3,0.3-0.7,0.6-1.3,0.6C309,223,308.3,222.7,308.3,221.9z M311,221.6v-0.3c-0.3-0.1-0.6-0.2-1.1-0.2c-0.7,0-1.1,0.3-1.1,0.7v0
			c0,0.5,0.4,0.7,0.9,0.7C310.4,222.6,311,222.2,311,221.6z"/>
		<path class="st7" d="M312.8,222v-2.2h-0.5v-0.5h0.5v-1.1h0.5v1.1h1.1v0.5h-1.1v2.1c0,0.4,0.2,0.6,0.6,0.6c0.2,0,0.3,0,0.5-0.1v0.5
			c-0.2,0.1-0.4,0.2-0.7,0.2C313.2,223,312.8,222.7,312.8,222z"/>
		<path class="st7" d="M315.5,218h0.6v0.6h-0.6V218z M315.5,219.3h0.5v3.6h-0.5V219.3z"/>
		<path class="st7" d="M317.1,221.2L317.1,221.2c0-1,0.8-1.9,1.9-1.9c1.1,0,1.9,0.9,1.9,1.9v0c0,1-0.8,1.9-1.9,1.9
			C317.8,223,317.1,222.2,317.1,221.2z M320.3,221.2L320.3,221.2c0-0.8-0.6-1.4-1.3-1.4c-0.8,0-1.3,0.6-1.3,1.4v0
			c0,0.8,0.6,1.4,1.3,1.4C319.7,222.6,320.3,221.9,320.3,221.2z"/>
		<path class="st7" d="M321.8,219.3h0.5v0.6c0.2-0.4,0.6-0.7,1.2-0.7c0.9,0,1.4,0.6,1.4,1.5v2.2h-0.5v-2.1c0-0.7-0.4-1.1-1-1.1
			c-0.6,0-1.1,0.5-1.1,1.1v2.1h-0.5V219.3z"/>
	</g>
</g>
<g>
	<g>
		<path class="st7" d="M129.2,218h0.5l2.2,4.9h-0.6l-0.6-1.3h-2.7l-0.6,1.3h-0.6L129.2,218z M130.5,221.2l-1.1-2.5l-1.1,2.5H130.5z"
			/>
		<path class="st7" d="M132.8,219.3h0.5v0.7c0.3-0.4,0.7-0.8,1.4-0.8c0.9,0,1.7,0.7,1.7,1.9v0c0,1.2-0.9,1.9-1.7,1.9
			c-0.7,0-1.1-0.4-1.4-0.8v1.8h-0.5V219.3z M135.9,221.2L135.9,221.2c0-0.9-0.6-1.4-1.3-1.4c-0.7,0-1.3,0.6-1.3,1.4v0
			c0,0.8,0.6,1.4,1.3,1.4C135.3,222.6,135.9,222,135.9,221.2z"/>
		<path class="st7" d="M137.4,219.3h0.5v0.7c0.3-0.4,0.7-0.8,1.4-0.8c0.9,0,1.7,0.7,1.7,1.9v0c0,1.2-0.9,1.9-1.7,1.9
			c-0.7,0-1.1-0.4-1.4-0.8v1.8h-0.5V219.3z M140.5,221.2L140.5,221.2c0-0.9-0.6-1.4-1.3-1.4c-0.7,0-1.3,0.6-1.3,1.4v0
			c0,0.8,0.6,1.4,1.3,1.4C140,222.6,140.5,222,140.5,221.2z"/>
		<path class="st7" d="M142.1,217.8h0.5v5.1h-0.5V217.8z"/>
		<path class="st7" d="M143.9,218h0.6v0.6h-0.6V218z M144,219.3h0.5v3.6H144V219.3z"/>
		<path class="st7" d="M145.5,221.2L145.5,221.2c0-1,0.8-1.9,1.9-1.9c0.7,0,1.1,0.3,1.4,0.6l-0.4,0.4c-0.3-0.3-0.6-0.5-1.1-0.5
			c-0.7,0-1.3,0.6-1.3,1.4v0c0,0.8,0.6,1.4,1.3,1.4c0.5,0,0.8-0.2,1.1-0.5l0.3,0.3c-0.4,0.4-0.8,0.7-1.5,0.7
			C146.3,223,145.5,222.2,145.5,221.2z"/>
		<path class="st7" d="M149.5,221.9L149.5,221.9c0-0.8,0.6-1.2,1.5-1.2c0.5,0,0.8,0.1,1.1,0.2v-0.1c0-0.7-0.4-1-1.1-1
			c-0.4,0-0.8,0.1-1.1,0.3l-0.2-0.4c0.4-0.2,0.8-0.3,1.3-0.3c0.5,0,0.9,0.1,1.2,0.4c0.2,0.2,0.4,0.6,0.4,1.1v2.2h-0.5v-0.5
			c-0.3,0.3-0.7,0.6-1.3,0.6C150.2,223,149.5,222.7,149.5,221.9z M152.2,221.6v-0.3c-0.3-0.1-0.6-0.2-1.1-0.2
			c-0.7,0-1.1,0.3-1.1,0.7v0c0,0.5,0.4,0.7,0.9,0.7C151.6,222.6,152.2,222.2,152.2,221.6z"/>
		<path class="st7" d="M154,222v-2.2h-0.5v-0.5h0.5v-1.1h0.5v1.1h1.1v0.5h-1.1v2.1c0,0.4,0.2,0.6,0.6,0.6c0.2,0,0.3,0,0.5-0.1v0.5
			c-0.2,0.1-0.4,0.2-0.7,0.2C154.4,223,154,222.7,154,222z"/>
		<path class="st7" d="M156.6,218h0.6v0.6h-0.6V218z M156.7,219.3h0.5v3.6h-0.5V219.3z"/>
		<path class="st7" d="M158.2,221.2L158.2,221.2c0-1,0.8-1.9,1.9-1.9c1.1,0,1.9,0.9,1.9,1.9v0c0,1-0.8,1.9-1.9,1.9
			C159,223,158.2,222.2,158.2,221.2z M161.4,221.2L161.4,221.2c0-0.8-0.6-1.4-1.3-1.4c-0.8,0-1.3,0.6-1.3,1.4v0
			c0,0.8,0.6,1.4,1.3,1.4C160.9,222.6,161.4,221.9,161.4,221.2z"/>
		<path class="st7" d="M163,219.3h0.5v0.6c0.2-0.4,0.6-0.7,1.2-0.7c0.9,0,1.4,0.6,1.4,1.5v2.2h-0.5v-2.1c0-0.7-0.4-1.1-1-1.1
			c-0.6,0-1.1,0.5-1.1,1.1v2.1H163V219.3z"/>
		<path class="st7" d="M171.3,218h0.5l2.2,4.9h-0.6l-0.6-1.3h-2.7l-0.6,1.3h-0.6L171.3,218z M172.7,221.2l-1.1-2.5l-1.1,2.5H172.7z"
			/>
		<path class="st7" d="M174.8,221.6v-2.2h0.5v2.1c0,0.7,0.4,1.1,1,1.1c0.6,0,1.1-0.5,1.1-1.1v-2.1h0.5v3.6h-0.5v-0.6
			c-0.2,0.4-0.6,0.7-1.2,0.7C175.3,223,174.8,222.4,174.8,221.6z"/>
		<path class="st7" d="M179.3,222v-2.2h-0.5v-0.5h0.5v-1.1h0.5v1.1h1.1v0.5h-1.1v2.1c0,0.4,0.2,0.6,0.6,0.6c0.2,0,0.3,0,0.5-0.1v0.5
			c-0.2,0.1-0.4,0.2-0.7,0.2C179.8,223,179.3,222.7,179.3,222z"/>
		<path class="st7" d="M181.7,221.2L181.7,221.2c0-1,0.8-1.9,1.9-1.9c1.1,0,1.9,0.9,1.9,1.9v0c0,1-0.8,1.9-1.9,1.9
			C182.4,223,181.7,222.2,181.7,221.2z M184.9,221.2L184.9,221.2c0-0.8-0.6-1.4-1.3-1.4c-0.8,0-1.3,0.6-1.3,1.4v0
			c0,0.8,0.6,1.4,1.3,1.4C184.3,222.6,184.9,221.9,184.9,221.2z"/>
		<path class="st7" d="M186.4,219.3h0.5v0.6c0.2-0.4,0.6-0.7,1.2-0.7c0.6,0,1,0.3,1.2,0.7c0.3-0.4,0.6-0.7,1.3-0.7
			c0.8,0,1.3,0.6,1.3,1.5v2.2h-0.5v-2.1c0-0.7-0.4-1.1-0.9-1.1c-0.5,0-1,0.4-1,1.1v2.1h-0.5v-2.1c0-0.7-0.4-1.1-0.9-1.1
			c-0.6,0-1,0.5-1,1.1v2.1h-0.5V219.3z"/>
		<path class="st7" d="M192.8,221.9L192.8,221.9c0-0.8,0.6-1.2,1.5-1.2c0.5,0,0.8,0.1,1.1,0.2v-0.1c0-0.7-0.4-1-1.1-1
			c-0.4,0-0.8,0.1-1.1,0.3l-0.2-0.4c0.4-0.2,0.8-0.3,1.3-0.3c0.5,0,0.9,0.1,1.2,0.4c0.2,0.2,0.4,0.6,0.4,1.1v2.2h-0.5v-0.5
			c-0.3,0.3-0.7,0.6-1.3,0.6C193.5,223,192.8,222.7,192.8,221.9z M195.5,221.6v-0.3c-0.3-0.1-0.6-0.2-1.1-0.2
			c-0.7,0-1.1,0.3-1.1,0.7v0c0,0.5,0.4,0.7,0.9,0.7C194.9,222.6,195.5,222.2,195.5,221.6z"/>
		<path class="st7" d="M197.3,222v-2.2h-0.5v-0.5h0.5v-1.1h0.5v1.1h1.1v0.5h-1.1v2.1c0,0.4,0.2,0.6,0.6,0.6c0.2,0,0.3,0,0.5-0.1v0.5
			c-0.2,0.1-0.4,0.2-0.7,0.2C197.7,223,197.3,222.7,197.3,222z"/>
		<path class="st7" d="M199.9,218h0.6v0.6h-0.6V218z M200,219.3h0.5v3.6H200V219.3z"/>
		<path class="st7" d="M201.5,221.2L201.5,221.2c0-1,0.8-1.9,1.9-1.9c1.1,0,1.9,0.9,1.9,1.9v0c0,1-0.8,1.9-1.9,1.9
			C202.3,223,201.5,222.2,201.5,221.2z M204.7,221.2L204.7,221.2c0-0.8-0.6-1.4-1.3-1.4c-0.8,0-1.3,0.6-1.3,1.4v0
			c0,0.8,0.6,1.4,1.3,1.4C204.2,222.6,204.7,221.9,204.7,221.2z"/>
		<path class="st7" d="M206.3,219.3h0.5v0.6c0.2-0.4,0.6-0.7,1.2-0.7c0.9,0,1.4,0.6,1.4,1.5v2.2h-0.5v-2.1c0-0.7-0.4-1.1-1-1.1
			c-0.6,0-1.1,0.5-1.1,1.1v2.1h-0.5V219.3z"/>
	</g>
</g>
<path class="st7" d="M64.3,203.6L64.3,203.6l-0.1-0.5H64V203h0.5v0.1h-0.2V203.6L64.3,203.6z M64.9,203.5L64.9,203.5l-0.2-0.3v0.5
	h-0.1V203h0.1l0.2,0.3l0.2-0.3h0.1v0.6h-0.1v-0.5L64.9,203.5L64.9,203.5z"/>
<path class="st7" d="M41.1,205.6L41.1,205.6c0-1.6,1.2-2.8,2.8-2.8c1,0,1.6,0.3,2.1,0.8l-0.8,0.9c-0.4-0.4-0.8-0.6-1.4-0.6
	c-0.9,0-1.6,0.8-1.6,1.7v0c0,0.9,0.6,1.7,1.6,1.7c0.6,0,1-0.2,1.4-0.6l0.8,0.8c-0.6,0.6-1.2,1-2.2,1
	C42.3,208.4,41.1,207.2,41.1,205.6"/>
<polygon class="st7" points="47.5,202.9 48.7,202.9 48.7,205 50.9,205 50.9,202.9 52.1,202.9 52.1,208.3 50.9,208.3 50.9,206.1 
	48.7,206.1 48.7,208.3 47.5,208.3 47.5,202.9 "/>
<polygon class="st7" points="53.5,202.9 57.6,202.9 57.6,204 54.7,204 54.7,205.1 57.3,205.1 57.3,206.1 54.7,206.1 54.7,207.3 
	57.6,207.3 57.6,208.3 53.5,208.3 53.5,202.9 "/>
<polygon class="st7" points="59.2,202.9 63.3,202.9 63.3,204 60.4,204 60.4,205.1 63,205.1 63,206.2 60.4,206.2 60.4,208.3 
	59.2,208.3 59.2,202.9 "/>
<path class="st7" d="M52.3,195.6c-1.9,0-3.4-1.5-3.4-3.4c0-1.9,1.5-3.4,3.4-3.4c1.5,0,2.9,1,3.3,2.5h1.3c-0.4-2.1-2.3-3.7-4.6-3.7
	c-2.6,0-4.7,2.1-4.7,4.7c0,2.6,2.1,4.7,4.7,4.7c2.3,0,4.1-1.6,4.6-3.7h-1.3C55.2,194.5,53.9,195.6,52.3,195.6"/>
<path class="st7" d="M50.1,194.5c0.6,0.6,1.4,1,2.3,1v-1.4c-0.5,0-1-0.2-1.3-0.6L50.1,194.5L50.1,194.5z"/>
<path class="st7" d="M49.1,192.2c0,0.5,0.1,0.9,0.3,1.3l1.2-0.5c-0.1-0.2-0.2-0.5-0.2-0.8c0-1,0.8-1.9,1.9-1.9v-1.4
	C50.6,188.9,49.1,190.4,49.1,192.2"/>
<path class="st7" d="M53.5,189.2l-0.5,1.3c0.4,0.2,0.7,0.4,1,0.8h1.5C55.2,190.3,54.4,189.5,53.5,189.2"/>
<path class="st7" d="M53,193.9l0.5,1.3c0.9-0.4,1.6-1.1,1.9-2.1H54C53.8,193.5,53.4,193.8,53,193.9"/>
<path class="st7" d="M52.3,198.5c-1.7,0-3.3-0.7-4.4-1.8l-0.9,0.9c1.4,1.4,3.3,2.2,5.3,2.2c3.9,0,7-2.9,7.5-6.6h-1.3
	C58.1,196.1,55.5,198.5,52.3,198.5"/>
<path class="st7" d="M52.3,185.9c1.4,0,2.7,0.5,3.8,1.2l0.8-1c-1.3-0.9-2.8-1.5-4.5-1.5c-3.2,0-5.9,2-7,4.8l1.2,0.5
	C47.4,187.6,49.7,185.9,52.3,185.9"/>
<path class="st7" d="M58.6,191.2h1.3c-0.1-1.1-0.5-2.1-1.1-3.1l-1.1,0.7C58.1,189.6,58.4,190.4,58.6,191.2"/>
<path class="st7" d="M57.1,191.2h1.3c-0.3-2.2-1.8-4-3.8-4.8l-0.5,1.2C55.6,188.3,56.8,189.6,57.1,191.2"/>
<path class="st7" d="M52.3,187.3L52.3,187.3l0-1.3h0c-2.6,0-4.8,1.6-5.7,3.9l1.2,0.5C48.5,188.6,50.3,187.3,52.3,187.3"/>
<path class="st7" d="M47.5,192.2L47.5,192.2l-1.3,0v0c0,2.6,1.6,4.8,3.8,5.7l0.5-1.2C48.8,196,47.5,194.2,47.5,192.2"/>
<path class="st7" d="M52.3,197v1.3c3.1,0,5.6-2.2,6-5.2h-1.3C56.7,195.3,54.7,197,52.3,197"/>
<path class="st7" d="M45.4,195.2c-0.4-1-0.6-2-0.6-3l1.3,0c0,0.9,0.2,1.7,0.5,2.5L45.4,195.2L45.4,195.2z"/>
<path class="st7" d="M264.1,196.5c0,1.3-1.1,2.4-2.4,2.4c-1.3,0-2.4-1.1-2.4-2.4c0-1.3,1.1-2.4,2.4-2.4
	C263.1,194.1,264.2,195.2,264.1,196.5L264.1,196.5z"/>
<path class="st7" d="M268.8,196.6c0,3.9-3.2,7-7.1,7c-1.6,0-3.1-0.6-4.3-1.5l2-2c0.6,0.4,1.4,0.7,2.2,0.7c2.3,0,4.2-1.9,4.2-4.2
	c0-2.3-1.9-4.2-4.2-4.2c-2.3,0-4.2,1.9-4.2,4.2c0,0.8,0.2,1.6,0.6,2.3l-2,2c-0.9-1.2-1.4-2.7-1.4-4.3c0-3.9,3.2-7,7.1-7
	C265.7,189.5,268.8,192.7,268.8,196.6L268.8,196.6z"/>
<polygon class="st7" points="271.4,200.4 271.4,192.4 273,192.4 273,200.4 271.4,200.4 "/>
<polygon class="st7" points="281.3,200.4 276.8,195.7 276.8,200.4 275.2,200.4 275.2,192.4 275.7,192.4 280.1,196.9 280.1,192.4 
	281.7,192.4 281.7,200.4 281.3,200.4 "/>
<path class="st7" d="M286.2,197c-0.3-0.1-0.8-0.2-1.2-0.5c-0.6-0.4-1-1-1-1.8c0-0.6,0.2-1.2,0.6-1.6c0.6-0.6,1.5-0.8,1.9-0.8
	c1.2,0,1.8,0.4,2.4,0.8l0.3,0.2l-0.8,1.4l-0.3-0.2c-0.5-0.3-0.8-0.6-1.5-0.6c-0.1,0-0.5,0.1-0.7,0.3c-0.1,0.1-0.1,0.2-0.1,0.5
	c0,0.4,0.3,0.6,1,0.8c0.1,0,0.2,0,0.2,0.1c0.8,0.3,1.4,0.6,1.8,1.1c0.4,0.5,0.6,1,0.6,1.6c0,0.6-0.2,1.1-0.6,1.6
	c-0.5,0.5-1.1,0.8-1.8,0.8c-0.4,0-0.8,0-1.4-0.2c-0.7-0.2-1.4-0.6-1.9-1.2l1.2-1.1c0.8,0.9,1.8,0.9,2.2,0.9c0.7,0,0.9-0.6,0.9-0.8
	C287.6,197.7,287.1,197.3,286.2,197L286.2,197L286.2,197L286.2,197z"/>
<path class="st7" d="M293.8,195.6c0.4,0,0.8-0.4,0.8-0.8c0-0.4-0.4-0.8-0.8-0.8h-1v1.6H293.8L293.8,195.6z M293.8,192.4
	c1.3,0,2.4,1.1,2.4,2.4c0,1.3-1.1,2.4-2.4,2.4h-1v3.2h-1.6v-8H293.8L293.8,192.4z"/>
<path class="st7" d="M297.9,198.8h5.3v1.6h-5.3V198.8L297.9,198.8z M297.9,195.5h4.4v1.6h-4.4V195.5L297.9,195.5z M303.3,194h-5.4
	v-1.6h5.4V194L303.3,194z"/>
<path class="st7" d="M310.8,194.3c-1.6-1-3.9-0.1-3.9,2.1c0,2.3,2.5,3.2,4,2l1,1.2c-0.7,0.6-1.7,1-2.7,1c-2.3,0-4.2-1.9-4.2-4.2
	c0-2.3,1.9-4.2,4.2-4.2c1,0,1.9,0.3,2.6,0.9L310.8,194.3L310.8,194.3z"/>
<path class="st7" d="M161.4,203.8c-0.4,0.4-0.9,0.6-1.5,0.6c0,0,0,0,0,0c-1.2,0-2.1-0.8-2.1-2c0-1.2,0.8-2,2-2.1c1.2,0,2,0.8,2,1.9
	C161.9,202.9,161.7,203.4,161.4,203.8L161.4,203.8z M162,200c-0.6-0.5-1.4-0.8-2.2-0.7c-0.6,0.1-1.2,0.3-1.6,0.7
	c-0.1,0.1-0.3,0-0.3-0.1v-2.7c0-0.1-0.1-0.2-0.2-0.2h-0.7c-0.1,0-0.2,0.1-0.2,0.2l0,0c0,0,0,0.1,0,0.1c0,0.1,0,0.1,0,0.2l0,0.6
	c0,1.4,0,2.8,0,4.2c0,0.2,0,0.5,0.1,0.8c0.3,1.5,1.5,2.4,3.1,2.4c0,0,0.1,0,0.1,0c1.3,0,2.4-0.8,2.8-1.9
	C163.3,202.2,162.9,200.8,162,200L162,200z"/>
<path class="st7" d="M146.9,199.3c-0.9-0.1-1.6,0-2.2,0.5c-0.1,0.1-0.3,0-0.3-0.1v-2.5c0-0.1-0.1-0.2-0.2-0.2h-0.7
	c-0.1,0-0.2,0.1-0.2,0.2v7.9c0,0.1,0.1,0.2,0.2,0.2h0.7c0.1,0,0.2-0.1,0.2-0.2c0-0.3,0-0.9,0-1.1c0-0.6,0-1.2,0-1.8
	c0-0.6,0.2-1.1,0.5-1.4c0.3-0.3,0.9-0.5,1.5-0.4c0.9,0.1,1.5,0.6,1.6,1.5c0,0.7,0,1.3,0,2c0,0.3,0,0.6,0,0.9c0,0.1,0,0.2,0,0.3
	l0,0.1c0,0.1,0.1,0.2,0.2,0.2h0.7c0.1,0,0.2-0.1,0.2-0.2v0c0-0.3,0-0.6,0-1c0-0.7,0-1.4,0-2.2C149.1,200.5,148.3,199.5,146.9,199.3
	L146.9,199.3z"/>
<path class="st7" d="M164.7,199.4l-0.7,0c-0.1,0-0.2,0.1-0.2,0.2v5.5c0,0.1,0.1,0.2,0.2,0.2h0.7c0.1,0,0.2-0.1,0.2-0.2v-5.5
	C164.8,199.5,164.8,199.4,164.7,199.4L164.7,199.4z"/>
<path class="st7" d="M154.3,203.8c-0.4,0.4-0.9,0.6-1.5,0.6c0,0,0,0,0,0c-1.2,0-2-0.8-2-2c0-1.2,0.8-2.1,2-2.1c0,0,0,0,0,0
	c1.2,0,2,0.8,2,2C154.9,202.9,154.7,203.4,154.3,203.8L154.3,203.8z M155.3,200.4c-0.9-1.1-2.6-1.4-4-0.8c-1.3,0.6-1.9,2.1-1.5,3.5
	c0.3,1.1,1,1.9,2.1,2.2c0.3,0.1,0.6,0.1,0.9,0.1c0.8,0,1.4-0.3,2-0.9c0.1-0.1,0.1-0.1,0.2-0.2v0.7c0,0.1,0.1,0.2,0.2,0.2h0.6
	c0.1,0,0.2-0.1,0.2-0.2v0c0-0.3,0-0.6,0-1c0-0.8,0-1.5,0-2.3C155.9,201.4,155.7,200.9,155.3,200.4L155.3,200.4z"/>
<g>
	<defs>
		<rect id="SVGID_1_" x="143.4" y="187.6" width="49.9" height="17.8"/>
	</defs>
	<clipPath id="SVGID_2_">
		<use xlink:href="#SVGID_1_"  style="overflow:visible;"/>
	</clipPath>
	<path class="st9" d="M182.5,202.8h-0.8c-0.1,0-0.2,0.1-0.2,0.2l0,0.1c0,0.1,0,0.1,0,0.2c0,0.7-0.4,1-1.1,1.1
		c-0.5,0-1.3-0.1-1.3-0.9c-0.1-0.7-0.1-1.5-0.1-2.2c0-0.2,0-0.4,0-0.7c0-0.1,0.1-0.2,0.2-0.2h2c0.2,0,0.2-0.2,0.1-0.3l-0.9-0.7
		c0,0-0.1,0-0.1,0h-1.2c-0.1,0-0.2-0.1-0.2-0.2v-1.1c0-0.1-0.1-0.2-0.2-0.2h-0.7c-0.1,0-0.2,0.1-0.2,0.2l0,0.3c0,0,0,3.1,0,5
		c0,0.8,0.7,1.6,1.6,1.8c0.2,0.1,0.5,0.1,0.8,0.1c0,0,0.1,0,0.1,0c0.6,0,1.2-0.3,1.6-0.7c0.4-0.5,0.6-1.1,0.5-1.7L182.5,202.8
		L182.5,202.8z"/>
	<path class="st9" d="M190.5,194.4l-0.9,0.9c-0.1,0.1-0.2,0-0.2-0.1v-0.3c0-0.1-0.1-0.1-0.1-0.1h-0.5c-0.1,0-0.1,0.1-0.1,0.1v0.7
		c0,0.1,0.1,0.1,0.1,0.1h0.2c0.1,0,0.2,0.2,0.1,0.2l-0.9,0.9c-0.1,0.1-0.1,0.1-0.2,0l-0.9-0.9c-0.1-0.1,0-0.2,0.1-0.2h0.2
		c0.1,0,0.1-0.1,0.1-0.1v-0.7c0-0.1-0.1-0.1-0.1-0.1H186c-0.1,0-0.1,0.1-0.1,0.1v0.7c0,0.1,0.1,0.1,0.1,0.1h0.2
		c0.1,0,0.2,0.2,0.1,0.2l-0.9,0.9c-0.1,0.1-0.1,0.1-0.2,0l-0.9-0.9c-0.1-0.1,0-0.2,0.1-0.2h0.2c0.1,0,0.1-0.1,0.1-0.1v-0.7
		c0-0.1-0.1-0.1-0.1-0.1H184c-0.1,0-0.1,0.1-0.1,0.1v0.3c0,0.1-0.2,0.2-0.2,0.1l-0.9-0.9c-0.1-0.1-0.1-0.1,0-0.2l0.9-0.9
		c0.1-0.1,0.2,0,0.2,0.1v0.3c0,0.1,0.1,0.1,0.1,0.1h0.5c0.1,0,0.1-0.1,0.1-0.1V193c0-0.1-0.1-0.1-0.1-0.1h-0.2
		c-0.1,0-0.2-0.2-0.1-0.2l0.9-0.9c0.1-0.1,0.1-0.1,0.2,0l0.9,0.9c0.1,0.1,0,0.2-0.1,0.2H186c-0.1,0-0.1,0.1-0.1,0.1v0.7
		c0,0.1,0.1,0.1,0.1,0.1h1.1c0.1,0,0.1-0.1,0.1-0.1V193c0-0.1-0.1-0.1-0.1-0.1h-0.2c-0.1,0-0.2-0.2-0.1-0.2l0.9-0.9
		c0.1-0.1,0.1-0.1,0.2,0l0.9,0.9c0.1,0.1,0,0.2-0.1,0.2h-0.2c-0.1,0-0.1,0.1-0.1,0.1v0.7c0,0.1,0.1,0.1,0.1,0.1h0.5
		c0.1,0,0.1-0.1,0.1-0.1v-0.3c0-0.1,0.2-0.2,0.2-0.1l0.9,0.9C190.5,194.2,190.5,194.3,190.5,194.4L190.5,194.4z M192.8,193.2
		l-5.1-5.1c-0.6-0.6-1.6-0.6-2.2,0l-5.1,5.1c-0.6,0.6-0.6,1.6,0,2.2l5.1,5.1c0.6,0.6,1.6,0.6,2.2,0l5.1-5.1
		C193.4,194.8,193.4,193.8,192.8,193.2L192.8,193.2z"/>
</g>
<path class="st7" d="M175.7,203.8c-0.4,0.4-0.9,0.6-1.5,0.6c0,0,0,0,0,0c-1.2,0-2-0.8-2-2c0-1.2,0.8-2.1,2-2.1c0,0,0,0,0,0
	c1.2,0,2,0.8,2,2C176.2,202.9,176,203.4,175.7,203.8L175.7,203.8z M176.7,200.4c-0.9-1.1-2.6-1.4-4-0.8c-1.3,0.6-1.9,2.1-1.5,3.5
	c0.3,1.1,1,1.9,2.1,2.2c0.3,0.1,0.6,0.1,0.9,0.1c0.8,0,1.4-0.3,2-0.9c0.1-0.1,0.1-0.1,0.2-0.2v0.7c0,0.1,0.1,0.2,0.2,0.2h0.6
	c0.1,0,0.2-0.1,0.2-0.2v0c0-0.3,0-0.6,0-1c0-0.8,0-1.5,0-2.3C177.3,201.4,177,200.9,176.7,200.4L176.7,200.4z"/>
<path class="st7" d="M170.4,202.8h-0.8c-0.1,0-0.2,0.1-0.2,0.2l0,0.1c0,0.1,0,0.2,0,0.2c0,0.6-0.4,1-1.1,1.1c-0.5,0-1.3-0.1-1.3-0.9
	c-0.1-0.7-0.1-1.5-0.1-2.2c0-0.2,0-0.5,0-0.7c0-0.1,0.1-0.2,0.2-0.2h2.1c0.2,0,0.2-0.2,0.1-0.3l-0.8-0.7c0,0-0.1,0-0.1,0H167
	c-0.1,0-0.2-0.1-0.2-0.2v-1.1c0-0.1-0.1-0.2-0.2-0.2H166c-0.1,0-0.2,0.1-0.2,0.2l0,0.3c0,0,0,3.2,0,5.1c0,0.5,0.2,0.9,0.6,1.3
	c0.5,0.5,1.1,0.6,1.6,0.6c0.1,0,0.3,0,0.4,0c0.6,0,1.2-0.4,1.5-0.9c0.4-0.5,0.5-1.1,0.4-1.6L170.4,202.8L170.4,202.8z"/>
<path class="st7" d="M164.7,197.7H164c-0.1,0-0.2,0.1-0.2,0.2v0.7c0,0.1,0.1,0.2,0.2,0.2h0.7c0.1,0,0.2-0.1,0.2-0.2v-0.7
	C164.8,197.8,164.8,197.7,164.7,197.7L164.7,197.7z"/>
<g>
	<g>
		<path class="st7" d="M56.1,145.8L56.1,145.8c0-1.8,1.4-3.3,3.3-3.3c1.2,0,1.9,0.4,2.5,1l-0.9,1c-0.5-0.4-1-0.7-1.6-0.7
			c-1.1,0-1.8,0.9-1.8,2v0c0,1.1,0.7,2,1.8,2c0.7,0,1.2-0.3,1.7-0.7L62,148c-0.6,0.7-1.4,1.1-2.6,1.1
			C57.5,149.1,56.1,147.7,56.1,145.8z"/>
		<path class="st7" d="M62.6,146.6L62.6,146.6c0-1.4,1.1-2.5,2.6-2.5c1.5,0,2.6,1.1,2.6,2.5v0c0,1.4-1.1,2.5-2.6,2.5
			C63.7,149.1,62.6,148,62.6,146.6z M66.5,146.6L66.5,146.6c0-0.7-0.5-1.4-1.3-1.4c-0.8,0-1.3,0.6-1.3,1.3v0c0,0.7,0.5,1.3,1.3,1.3
			C66,147.9,66.5,147.3,66.5,146.6z"/>
		<path class="st7" d="M68.8,144.2h1.4v0.7c0.3-0.4,0.7-0.8,1.4-0.8c1,0,1.6,0.7,1.6,1.8v3.1h-1.4v-2.7c0-0.6-0.3-1-0.8-1
			s-0.9,0.3-0.9,1v2.7h-1.4V144.2z"/>
		<path class="st7" d="M74.6,147.6v-2.3h-0.6v-1.2h0.6v-1.2H76v1.2h1.1v1.2H76v2.1c0,0.3,0.1,0.5,0.4,0.5c0.3,0,0.5-0.1,0.7-0.2v1.1
			c-0.3,0.2-0.6,0.3-1.1,0.3C75.2,149.1,74.6,148.7,74.6,147.6z"/>
		<path class="st7" d="M77.8,146.6L77.8,146.6c0-1.4,1-2.5,2.4-2.5c1.6,0,2.3,1.3,2.3,2.6c0,0.1,0,0.2,0,0.4h-3.4
			c0.1,0.6,0.6,0.9,1.2,0.9c0.5,0,0.8-0.1,1.2-0.5l0.8,0.7c-0.5,0.6-1.1,0.9-2,0.9C78.8,149.1,77.8,148.1,77.8,146.6z M81.2,146.2
			c-0.1-0.6-0.4-1-1-1c-0.6,0-0.9,0.4-1,1H81.2z"/>
		<path class="st7" d="M83.5,144.2h1.4v0.7c0.3-0.4,0.7-0.8,1.4-0.8c1,0,1.6,0.7,1.6,1.8v3.1h-1.4v-2.7c0-0.6-0.3-1-0.8-1
			s-0.9,0.3-0.9,1v2.7h-1.4V144.2z"/>
		<path class="st7" d="M89.4,147.6v-2.3h-0.6v-1.2h0.6v-1.2h1.4v1.2h1.1v1.2h-1.1v2.1c0,0.3,0.1,0.5,0.4,0.5c0.3,0,0.5-0.1,0.7-0.2
			v1.1c-0.3,0.2-0.6,0.3-1.1,0.3C89.9,149.1,89.4,148.7,89.4,147.6z"/>
		<path class="st7" d="M95.4,147c0-1.3,0.7-2.3,1.9-3l0.2,0.4c-1.1,0.7-1.6,1.5-1.6,2.6c0,1.1,0.6,2,1.6,2.6l-0.2,0.4
			C96.1,149.3,95.4,148.3,95.4,147z"/>
		<path class="st7" d="M98.3,146.5L98.3,146.5c0-1.4,1-2.5,2.5-2.5c0.9,0,1.4,0.3,1.9,0.8l-0.4,0.4c-0.4-0.4-0.9-0.7-1.5-0.7
			c-1.1,0-1.9,0.9-1.9,2v0c0,1.1,0.8,2,1.9,2c0.7,0,1.1-0.3,1.6-0.7l0.4,0.4c-0.5,0.5-1.1,0.9-2,0.9
			C99.3,149.1,98.3,147.9,98.3,146.5z"/>
		<path class="st7" d="M103.5,143.9h0.5v2.1c0.2-0.4,0.6-0.7,1.2-0.7c0.9,0,1.4,0.6,1.4,1.5v2.2h-0.5v-2.1c0-0.7-0.4-1.1-1-1.1
			c-0.6,0-1.1,0.5-1.1,1.1v2.1h-0.5V143.9z"/>
		<path class="st7" d="M107.6,147.2L107.6,147.2c0-1.1,0.7-1.9,1.7-1.9c1.1,0,1.7,0.9,1.7,1.9c0,0.1,0,0.1,0,0.2h-2.9
			c0.1,0.8,0.6,1.2,1.3,1.2c0.5,0,0.8-0.2,1.1-0.5l0.3,0.3c-0.4,0.4-0.8,0.7-1.5,0.7C108.4,149.1,107.6,148.3,107.6,147.2z
			 M110.5,147c-0.1-0.7-0.4-1.2-1.2-1.2c-0.6,0-1.1,0.5-1.2,1.2H110.5z"/>
		<path class="st7" d="M112.2,145.8h-0.5v-0.5h0.5v-0.3c0-0.4,0.1-0.7,0.3-0.9c0.2-0.2,0.4-0.3,0.8-0.3c0.3,0,0.4,0,0.6,0.1v0.5
			c-0.2-0.1-0.3-0.1-0.5-0.1c-0.4,0-0.6,0.3-0.6,0.8v0.3h1.1v0.5h-1.1v3.1h-0.5V145.8z"/>
		<path class="st7" d="M116.5,146.5L116.5,146.5c0-1.4,1-2.5,2.5-2.5c0.9,0,1.4,0.3,1.9,0.8l-0.4,0.4c-0.4-0.4-0.9-0.7-1.5-0.7
			c-1.1,0-1.9,0.9-1.9,2v0c0,1.1,0.8,2,1.9,2c0.7,0,1.1-0.3,1.6-0.7l0.4,0.4c-0.5,0.5-1.1,0.9-2,0.9
			C117.6,149.1,116.5,147.9,116.5,146.5z"/>
		<path class="st7" d="M121.5,147.2L121.5,147.2c0-1,0.8-1.9,1.9-1.9c1.1,0,1.9,0.9,1.9,1.9v0c0,1-0.8,1.9-1.9,1.9
			C122.3,149.1,121.5,148.2,121.5,147.2z M124.8,147.2L124.8,147.2c0-0.8-0.6-1.4-1.3-1.4c-0.8,0-1.3,0.6-1.3,1.4v0
			c0,0.8,0.6,1.4,1.3,1.4C124.2,148.6,124.8,147.9,124.8,147.2z"/>
		<path class="st7" d="M126.1,147.2L126.1,147.2c0-1,0.8-1.9,1.9-1.9c1.1,0,1.9,0.9,1.9,1.9v0c0,1-0.8,1.9-1.9,1.9
			C126.9,149.1,126.1,148.2,126.1,147.2z M129.3,147.2L129.3,147.2c0-0.8-0.6-1.4-1.3-1.4c-0.8,0-1.3,0.6-1.3,1.4v0
			c0,0.8,0.6,1.4,1.3,1.4C128.7,148.6,129.3,147.9,129.3,147.2z"/>
		<path class="st7" d="M130.8,143.9h0.5v3.5l2-2h0.7l-1.5,1.6l1.6,2.1h-0.6l-1.3-1.7l-0.7,0.7v0.9h-0.5V143.9z"/>
		<path class="st7" d="M135.3,148.3v0.7h-0.5v-5.1h0.5v2.2c0.3-0.4,0.7-0.8,1.4-0.8c0.9,0,1.7,0.7,1.7,1.9v0c0,1.2-0.9,1.9-1.7,1.9
			C136,149.1,135.6,148.7,135.3,148.3z M137.9,147.2L137.9,147.2c0-0.9-0.6-1.4-1.3-1.4c-0.7,0-1.3,0.6-1.3,1.4v0
			c0,0.8,0.6,1.4,1.3,1.4C137.3,148.6,137.9,148.1,137.9,147.2z"/>
		<path class="st7" d="M139.2,147.2L139.2,147.2c0-1,0.8-1.9,1.9-1.9c1.1,0,1.9,0.9,1.9,1.9v0c0,1-0.8,1.9-1.9,1.9
			C140,149.1,139.2,148.2,139.2,147.2z M142.4,147.2L142.4,147.2c0-0.8-0.6-1.4-1.3-1.4c-0.8,0-1.3,0.6-1.3,1.4v0
			c0,0.8,0.6,1.4,1.3,1.4C141.9,148.6,142.4,147.9,142.4,147.2z"/>
		<path class="st7" d="M143.7,147.2L143.7,147.2c0-1,0.8-1.9,1.9-1.9c1.1,0,1.9,0.9,1.9,1.9v0c0,1-0.8,1.9-1.9,1.9
			C144.5,149.1,143.7,148.2,143.7,147.2z M147,147.2L147,147.2c0-0.8-0.6-1.4-1.3-1.4c-0.8,0-1.3,0.6-1.3,1.4v0
			c0,0.8,0.6,1.4,1.3,1.4C146.4,148.6,147,147.9,147,147.2z"/>
		<path class="st7" d="M148.5,143.9h0.5v3.5l2-2h0.7l-1.5,1.6l1.6,2.1h-0.6l-1.3-1.7L149,148v0.9h-0.5V143.9z"/>
		<path class="st7" d="M152.2,148.5l0.3-0.4c0.4,0.3,0.8,0.5,1.3,0.5c0.4,0,0.7-0.2,0.7-0.6v0c0-0.4-0.4-0.5-0.9-0.6
			c-0.6-0.2-1.2-0.4-1.2-1v0c0-0.6,0.5-1,1.2-1c0.4,0,0.9,0.2,1.3,0.4l-0.2,0.4c-0.3-0.2-0.7-0.3-1.1-0.3c-0.4,0-0.7,0.2-0.7,0.5v0
			c0,0.3,0.4,0.5,0.9,0.6c0.6,0.2,1.2,0.4,1.2,1v0c0,0.7-0.6,1.1-1.3,1.1C153.1,149,152.6,148.8,152.2,148.5z"/>
		<path class="st7" d="M155.7,149.6c0.4-0.1,0.5-0.3,0.5-0.6h-0.3v-0.7h0.6v0.6c0,0.6-0.2,0.8-0.8,1L155.7,149.6z"/>
		<path class="st7" d="M159.9,144.1h0.6v2.2h2.8v-2.2h0.6v4.9h-0.6v-2.2h-2.8v2.2h-0.6V144.1z"/>
		<path class="st7" d="M164.8,147.9L164.8,147.9c0-0.8,0.6-1.2,1.5-1.2c0.5,0,0.8,0.1,1.1,0.2v-0.1c0-0.7-0.4-1-1.1-1
			c-0.4,0-0.8,0.1-1.1,0.3l-0.2-0.4c0.4-0.2,0.8-0.3,1.3-0.3c0.5,0,0.9,0.1,1.2,0.4c0.2,0.2,0.4,0.6,0.4,1.1v2.2h-0.5v-0.5
			c-0.3,0.3-0.7,0.6-1.3,0.6C165.5,149.1,164.8,148.7,164.8,147.9z M167.5,147.6v-0.3c-0.3-0.1-0.6-0.2-1.1-0.2
			c-0.7,0-1.1,0.3-1.1,0.7v0c0,0.5,0.4,0.7,0.9,0.7C166.9,148.6,167.5,148.2,167.5,147.6z"/>
		<path class="st7" d="M169.7,148.3v0.7h-0.5v-5.1h0.5v2.2c0.3-0.4,0.7-0.8,1.4-0.8c0.9,0,1.7,0.7,1.7,1.9v0c0,1.2-0.9,1.9-1.7,1.9
			C170.4,149.1,170,148.7,169.7,148.3z M172.2,147.2L172.2,147.2c0-0.9-0.6-1.4-1.3-1.4c-0.7,0-1.3,0.6-1.3,1.4v0
			c0,0.8,0.6,1.4,1.3,1.4C171.7,148.6,172.2,148.1,172.2,147.2z"/>
		<path class="st7" d="M173.8,144h0.6v0.6h-0.6V144z M173.8,145.4h0.5v3.6h-0.5V145.4z"/>
		<path class="st7" d="M175.8,148v-2.2h-0.5v-0.5h0.5v-1.1h0.5v1.1h1.1v0.5h-1.1v2.1c0,0.4,0.2,0.6,0.6,0.6c0.2,0,0.3,0,0.5-0.1v0.5
			c-0.2,0.1-0.4,0.2-0.7,0.2C176.3,149,175.8,148.8,175.8,148z"/>
		<path class="st7" d="M178.2,147.9L178.2,147.9c0-0.8,0.6-1.2,1.5-1.2c0.5,0,0.8,0.1,1.1,0.2v-0.1c0-0.7-0.4-1-1.1-1
			c-0.4,0-0.8,0.1-1.1,0.3l-0.2-0.4c0.4-0.2,0.8-0.3,1.3-0.3c0.5,0,0.9,0.1,1.2,0.4c0.2,0.2,0.4,0.6,0.4,1.1v2.2h-0.5v-0.5
			c-0.3,0.3-0.7,0.6-1.3,0.6C178.9,149.1,178.2,148.7,178.2,147.9z M180.9,147.6v-0.3c-0.3-0.1-0.6-0.2-1.1-0.2
			c-0.7,0-1.1,0.3-1.1,0.7v0c0,0.5,0.4,0.7,0.9,0.7C180.3,148.6,180.9,148.2,180.9,147.6z"/>
		<path class="st7" d="M182.7,148v-2.2h-0.5v-0.5h0.5v-1.1h0.5v1.1h1.1v0.5h-1.1v2.1c0,0.4,0.2,0.6,0.6,0.6c0.2,0,0.3,0,0.5-0.1v0.5
			c-0.2,0.1-0.4,0.2-0.7,0.2C183.1,149,182.7,148.8,182.7,148z"/>
		<path class="st7" d="M187.5,144.1h1.8c1.1,0,1.8,0.6,1.8,1.6v0c0,1.1-0.9,1.6-1.9,1.6h-1.2v1.7h-0.6V144.1z M189.3,146.7
			c0.8,0,1.3-0.4,1.3-1.1v0c0-0.7-0.5-1.1-1.3-1.1h-1.2v2.2H189.3z"/>
		<path class="st7" d="M192.1,143.9h0.5v5.1h-0.5V143.9z"/>
		<path class="st7" d="M193.6,147.9L193.6,147.9c0-0.8,0.6-1.2,1.5-1.2c0.5,0,0.8,0.1,1.1,0.2v-0.1c0-0.7-0.4-1-1.1-1
			c-0.4,0-0.8,0.1-1.1,0.3l-0.2-0.4c0.4-0.2,0.8-0.3,1.3-0.3c0.5,0,0.9,0.1,1.2,0.4c0.2,0.2,0.4,0.6,0.4,1.1v2.2h-0.5v-0.5
			c-0.3,0.3-0.7,0.6-1.3,0.6C194.3,149.1,193.6,148.7,193.6,147.9z M196.3,147.6v-0.3c-0.3-0.1-0.6-0.2-1.1-0.2
			c-0.7,0-1.1,0.3-1.1,0.7v0c0,0.5,0.4,0.7,0.9,0.7C195.8,148.6,196.3,148.2,196.3,147.6z"/>
		<path class="st7" d="M198,145.4h0.5v0.6c0.2-0.4,0.6-0.7,1.2-0.7c0.9,0,1.4,0.6,1.4,1.5v2.2h-0.5v-2.1c0-0.7-0.4-1.1-1-1.1
			c-0.6,0-1.1,0.5-1.1,1.1v2.1H198V145.4z"/>
		<path class="st7" d="M202,148.5l0.3-0.4c0.4,0.3,0.8,0.5,1.3,0.5c0.4,0,0.7-0.2,0.7-0.6v0c0-0.4-0.4-0.5-0.9-0.6
			c-0.6-0.2-1.2-0.4-1.2-1v0c0-0.6,0.5-1,1.2-1c0.4,0,0.9,0.2,1.3,0.4l-0.2,0.4c-0.3-0.2-0.7-0.3-1.1-0.3c-0.4,0-0.7,0.2-0.7,0.5v0
			c0,0.3,0.4,0.5,0.9,0.6c0.6,0.2,1.2,0.4,1.2,1v0c0,0.7-0.6,1.1-1.3,1.1C203,149,202.4,148.8,202,148.5z"/>
		<path class="st7" d="M205.5,149.6c0.4-0.1,0.5-0.3,0.5-0.6h-0.3v-0.7h0.6v0.6c0,0.6-0.2,0.8-0.8,1L205.5,149.6z"/>
		<path class="st7" d="M209.5,146.5L209.5,146.5c0-1.4,1-2.5,2.5-2.5c0.9,0,1.4,0.3,1.9,0.8l-0.4,0.4c-0.4-0.4-0.9-0.7-1.5-0.7
			c-1.1,0-1.9,0.9-1.9,2v0c0,1.1,0.8,2,1.9,2c0.7,0,1.1-0.3,1.6-0.7l0.4,0.4c-0.5,0.5-1.1,0.9-2,0.9
			C210.5,149.1,209.5,147.9,209.5,146.5z"/>
		<path class="st7" d="M214.5,147.2L214.5,147.2c0-1,0.8-1.9,1.9-1.9c1.1,0,1.9,0.9,1.9,1.9v0c0,1-0.8,1.9-1.9,1.9
			C215.3,149.1,214.5,148.2,214.5,147.2z M217.7,147.2L217.7,147.2c0-0.8-0.6-1.4-1.3-1.4c-0.8,0-1.3,0.6-1.3,1.4v0
			c0,0.8,0.6,1.4,1.3,1.4C217.1,148.6,217.7,147.9,217.7,147.2z"/>
		<path class="st7" d="M219.2,145.4h0.5v0.6c0.2-0.4,0.6-0.7,1.2-0.7c0.6,0,1,0.3,1.2,0.7c0.3-0.4,0.6-0.7,1.3-0.7
			c0.8,0,1.3,0.6,1.3,1.5v2.2h-0.5v-2.1c0-0.7-0.4-1.1-0.9-1.1c-0.5,0-1,0.4-1,1.1v2.1h-0.5v-2.1c0-0.7-0.4-1.1-0.9-1.1
			c-0.6,0-1,0.5-1,1.1v2.1h-0.5V145.4z"/>
		<path class="st7" d="M225.9,145.4h0.5v0.7c0.3-0.4,0.7-0.8,1.4-0.8c0.9,0,1.7,0.7,1.7,1.9v0c0,1.2-0.9,1.9-1.7,1.9
			c-0.7,0-1.1-0.4-1.4-0.8v1.8h-0.5V145.4z M229,147.2L229,147.2c0-0.9-0.6-1.4-1.3-1.4c-0.7,0-1.3,0.6-1.3,1.4v0
			c0,0.8,0.6,1.4,1.3,1.4C228.4,148.6,229,148.1,229,147.2z"/>
		<path class="st7" d="M230.6,143.9h0.5v5.1h-0.5V143.9z"/>
		<path class="st7" d="M232.4,144h0.6v0.6h-0.6V144z M232.4,145.4h0.5v3.6h-0.5V145.4z"/>
		<path class="st7" d="M233.9,147.9L233.9,147.9c0-0.8,0.6-1.2,1.5-1.2c0.5,0,0.8,0.1,1.1,0.2v-0.1c0-0.7-0.4-1-1.1-1
			c-0.4,0-0.8,0.1-1.1,0.3l-0.2-0.4c0.4-0.2,0.8-0.3,1.3-0.3c0.5,0,0.9,0.1,1.2,0.4c0.2,0.2,0.4,0.6,0.4,1.1v2.2h-0.5v-0.5
			c-0.3,0.3-0.7,0.6-1.3,0.6C234.6,149.1,233.9,148.7,233.9,147.9z M236.6,147.6v-0.3c-0.3-0.1-0.6-0.2-1.1-0.2
			c-0.7,0-1.1,0.3-1.1,0.7v0c0,0.5,0.4,0.7,0.9,0.7C236,148.6,236.6,148.2,236.6,147.6z"/>
		<path class="st7" d="M238.2,145.4h0.5v0.6c0.2-0.4,0.6-0.7,1.2-0.7c0.9,0,1.4,0.6,1.4,1.5v2.2h-0.5v-2.1c0-0.7-0.4-1.1-1-1.1
			c-0.6,0-1.1,0.5-1.1,1.1v2.1h-0.5V145.4z"/>
		<path class="st7" d="M242.3,147.2L242.3,147.2c0-1,0.8-1.9,1.9-1.9c0.7,0,1.1,0.3,1.5,0.6l-0.4,0.4c-0.3-0.3-0.6-0.5-1.1-0.5
			c-0.7,0-1.3,0.6-1.3,1.4v0c0,0.8,0.6,1.4,1.3,1.4c0.5,0,0.8-0.2,1.1-0.5l0.3,0.3c-0.4,0.4-0.8,0.7-1.5,0.7
			C243.1,149.1,242.3,148.2,242.3,147.2z"/>
		<path class="st7" d="M246.2,147.2L246.2,147.2c0-1.1,0.7-1.9,1.7-1.9c1.1,0,1.7,0.9,1.7,1.9c0,0.1,0,0.1,0,0.2h-2.9
			c0.1,0.8,0.6,1.2,1.3,1.2c0.5,0,0.8-0.2,1.1-0.5l0.3,0.3c-0.4,0.4-0.8,0.7-1.5,0.7C247,149.1,246.2,148.3,246.2,147.2z M249.1,147
			c-0.1-0.7-0.4-1.2-1.2-1.2c-0.6,0-1.1,0.5-1.2,1.2H249.1z"/>
		<path class="st7" d="M252.8,144.1h1.8c1.1,0,1.8,0.6,1.8,1.6v0c0,1.1-0.9,1.6-1.9,1.6h-1.2v1.7h-0.6V144.1z M254.6,146.7
			c0.8,0,1.3-0.4,1.3-1.1v0c0-0.7-0.5-1.1-1.3-1.1h-1.2v2.2H254.6z"/>
		<path class="st7" d="M257.4,145.4h0.5v0.9c0.3-0.6,0.8-1,1.5-1v0.6h0c-0.8,0-1.4,0.6-1.4,1.7v1.4h-0.5V145.4z"/>
		<path class="st7" d="M259.8,147.2L259.8,147.2c0-1,0.8-1.9,1.9-1.9c1.1,0,1.9,0.9,1.9,1.9v0c0,1-0.8,1.9-1.9,1.9
			C260.6,149.1,259.8,148.2,259.8,147.2z M263,147.2L263,147.2c0-0.8-0.6-1.4-1.3-1.4c-0.8,0-1.3,0.6-1.3,1.4v0
			c0,0.8,0.6,1.4,1.3,1.4C262.5,148.6,263,147.9,263,147.2z"/>
		<path class="st7" d="M264.8,145.8h-0.5v-0.5h0.5v-0.3c0-0.4,0.1-0.7,0.3-0.9c0.2-0.2,0.4-0.3,0.8-0.3c0.3,0,0.4,0,0.6,0.1v0.5
			c-0.2-0.1-0.3-0.1-0.5-0.1c-0.4,0-0.6,0.3-0.6,0.8v0.3h1.1v0.5h-1.1v3.1h-0.5V145.8z M267.2,144h0.6v0.6h-0.6V144z M267.2,145.4
			h0.5v3.6h-0.5V145.4z"/>
		<path class="st7" d="M269,143.9h0.5v5.1H269V143.9z"/>
		<path class="st7" d="M270.6,147.2L270.6,147.2c0-1.1,0.7-1.9,1.7-1.9c1.1,0,1.7,0.9,1.7,1.9c0,0.1,0,0.1,0,0.2h-2.9
			c0.1,0.8,0.6,1.2,1.3,1.2c0.5,0,0.8-0.2,1.1-0.5l0.3,0.3c-0.4,0.4-0.8,0.7-1.5,0.7C271.4,149.1,270.6,148.3,270.6,147.2z
			 M273.5,147c-0.1-0.7-0.4-1.2-1.2-1.2c-0.6,0-1.1,0.5-1.2,1.2H273.5z"/>
		<path class="st7" d="M274.7,148.5l0.3-0.4c0.4,0.3,0.8,0.5,1.3,0.5c0.4,0,0.7-0.2,0.7-0.6v0c0-0.4-0.4-0.5-0.9-0.6
			c-0.6-0.2-1.2-0.4-1.2-1v0c0-0.6,0.5-1,1.2-1c0.4,0,0.9,0.2,1.3,0.4l-0.2,0.4c-0.3-0.2-0.7-0.3-1.1-0.3c-0.4,0-0.7,0.2-0.7,0.5v0
			c0,0.3,0.4,0.5,0.9,0.6c0.6,0.2,1.2,0.4,1.2,1v0c0,0.7-0.6,1.1-1.3,1.1C275.7,149,275.1,148.8,274.7,148.5z"/>
		<path class="st7" d="M278.1,149.6c1.1-0.7,1.6-1.5,1.6-2.6c0-1.1-0.6-2-1.6-2.6l0.2-0.4c1.2,0.7,1.9,1.7,1.9,3
			c0,1.3-0.7,2.3-1.9,3L278.1,149.6z"/>
	</g>
</g>
<g>
</g>
<g>
</g>
<g>
</g>
<g>
</g>
<g>
</g>
<g>
</g>
<g>
</g>
<g>
</g>
<g>
</g>
<g>
</g>
<g>
</g>
<g>
</g>
<g>
</g>
<g>
</g>
<g>
</g>
</svg>
