<?xml version="1.0" encoding="utf-8"?>
<!-- Generator: Adobe Illustrator 19.1.0, SVG Export Plug-In . SVG Version: 6.00 Build 0)  -->
<svg version="1.1" id="Layer_1" xmlns="http://www.w3.org/2000/svg" xmlns:xlink="http://www.w3.org/1999/xlink" x="0px" y="0px"
	 viewBox="358 -73.1 928 834" enable-background="new 358 -73.1 928 834" xml:space="preserve">
<polygon fill="#F08921" points="867.9,280.8 449.6,280.8 449.6,111.8 867.9,111.8 867.9,179.5 "/>
<rect x="594.8" y="119.9" fill="#FFFFFF" width="263.1" height="153.8"/>
<rect x="389.6" y="350.3" fill="#6CB2E2" width="538" height="169"/>
<rect x="534.8" y="357.9" fill="#FFFFFF" width="382.8" height="153.8"/>
<g>
	<g>
		<path fill="#FFFFFF" d="M507.5,453.6h-91.2c-2.3,0-4.1-1.9-4.1-4.1v-58c0-2.3,1.9-4.1,4.1-4.1h91.2c2.3,0,4.1,1.9,4.1,4.1v58
			C511.7,451.8,509.8,453.6,507.5,453.6L507.5,453.6z M420.5,445.3h82.9v-49.7h-82.9V445.3L420.5,445.3z"/>
	</g>
	<g>
		<path fill="#FFFFFF" d="M499.3,443.3h-74.6c-1.2,0-2.1-0.9-2.1-2.1v-41.5c0-1.1,0.9-2.1,2.1-2.1h74.6c1.1,0,2.1,0.9,2.1,2.1v41.5
			C501.3,442.3,500.4,443.3,499.3,443.3L499.3,443.3z M426.7,439.1h70.5v-37.3h-70.5V439.1L426.7,439.1z"/>
	</g>
	<g>
		<path fill="#FFFFFF" d="M520.3,465.7H404.9c-2.3,0-4.1-1.9-4.1-4.1c0-2.3,1.9-4.1,4.1-4.1h115.4c2.3,0,4.1,1.9,4.1,4.1
			C524.5,463.9,522.6,465.7,520.3,465.7L520.3,465.7z"/>
	</g>
</g>
<g>
	<g>
		<path fill="#FFFFFF" d="M408.1,494.7h2.8l1.5,5.9l1.8-5.9h2.4l1.8,5.9l1.6-5.9h2.7l-3,9.7h-2.5l-1.9-5.9l-1.9,5.9H411L408.1,494.7
			z"/>
		<path fill="#FFFFFF" d="M423.5,499.6L423.5,499.6c0-2.8,2.2-5.1,5.2-5.1s5.2,2.2,5.2,5l0,0c0,2.8-2.2,5-5.2,5
			C425.7,504.5,423.5,502.3,423.5,499.6z M431.3,499.6L431.3,499.6c0-1.5-1-2.7-2.5-2.7c-1.6,0-2.5,1.2-2.5,2.6l0,0
			c0,1.4,1,2.7,2.5,2.7S431.3,501,431.3,499.6z"/>
		<path fill="#FFFFFF" d="M435.9,494.7h2.7v1.9c0.6-1.3,1.5-2.2,3.1-2.1v2.9h-0.1c-1.8,0-2.9,1.1-2.9,3.4v3.6H436v-9.7H435.9z"/>
		<path fill="#FFFFFF" d="M443.5,491.2h2.7v7l3.2-3.5h3.3l-3.7,3.8l3.8,5.9h-3.1l-2.5-3.9l-1,1v2.9h-2.7L443.5,491.2L443.5,491.2z"
			/>
		<path fill="#FFFFFF" d="M453.4,503l1.2-1.8c1,0.8,2.1,1.2,3,1.2c0.8,0,1.2-0.3,1.2-0.7l0,0c0-0.6-0.9-0.8-2-1.1
			c-1.3-0.4-2.9-1-2.9-2.9l0,0c0-2,1.6-3.1,3.5-3.1c1.2,0,2.6,0.4,3.6,1.1l-1,1.9c-1-0.6-1.9-0.9-2.6-0.9s-1,0.3-1,0.7l0,0
			c0,0.5,0.9,0.8,2,1.2c1.4,0.5,2.9,1.1,2.9,2.9l0,0c0,2.1-1.6,3.1-3.7,3.1C456.1,504.5,454.6,504.1,453.4,503z"/>
		<path fill="#FFFFFF" d="M463.4,501.6V497h-1.2v-2.3h1.2v-2.5h2.7v2.5h2.3v2.3h-2.3v4.1c0,0.6,0.3,0.9,0.9,0.9c0.5,0,1-0.1,1.4-0.3
			v2.2c-0.6,0.3-1.2,0.6-2.2,0.6C464.6,504.5,463.4,503.8,463.4,501.6z"/>
		<path fill="#FFFFFF" d="M469.9,501.6L469.9,501.6c0-2.1,1.6-3.1,3.9-3.1c1,0,1.7,0.2,2.4,0.4v-0.2c0-1.1-0.7-1.8-2.1-1.8
			c-1,0-1.8,0.2-2.7,0.5l-0.7-2.1c1.1-0.5,2.1-0.8,3.7-0.8c1.5,0,2.6,0.4,3.3,1.1c0.7,0.7,1,1.8,1,3.1v5.6h-2.6v-1
			c-0.7,0.7-1.6,1.2-2.9,1.2C471.4,504.5,469.9,503.5,469.9,501.6z M476.1,500.9v-0.5c-0.5-0.2-1.1-0.4-1.7-0.4
			c-1.2,0-1.9,0.5-1.9,1.3l0,0c0,0.7,0.6,1.2,1.5,1.2C475.3,502.6,476.1,501.9,476.1,500.9z"/>
		<path fill="#FFFFFF" d="M481.5,501.6V497h-1.2v-2.3h1.2v-2.5h2.7v2.5h2.3v2.3h-2.3v4.1c0,0.6,0.3,0.9,0.9,0.9c0.5,0,1-0.1,1.4-0.3
			v2.2c-0.6,0.3-1.2,0.6-2.2,0.6C482.6,504.5,481.5,503.8,481.5,501.6z"/>
		<path fill="#FFFFFF" d="M488.5,491.2h2.9v2.4h-2.9V491.2z M488.6,494.7h2.7v9.7h-2.7V494.7z"/>
		<path fill="#FFFFFF" d="M493.4,499.6L493.4,499.6c0-2.8,2.2-5.1,5.2-5.1s5.2,2.2,5.2,5l0,0c0,2.8-2.2,5-5.2,5
			C495.7,504.5,493.4,502.3,493.4,499.6z M501.2,499.6L501.2,499.6c0-1.5-1-2.7-2.5-2.7c-1.6,0-2.5,1.2-2.5,2.6l0,0
			c0,1.4,1,2.7,2.5,2.7C500.3,502.2,501.2,501,501.2,499.6z"/>
		<path fill="#FFFFFF" d="M505.9,494.7h2.7v1.4c0.6-0.8,1.4-1.5,2.8-1.5c2.1,0,3.3,1.4,3.3,3.6v6.2H512v-5.5c0-1.3-0.6-2-1.7-2
			c-1,0-1.7,0.7-1.7,2v5.4h-2.7L505.9,494.7L505.9,494.7z"/>
	</g>
</g>
<g>
	<g>
		<rect x="544.5" y="368.1" fill="#FFFFFF" width="133.4" height="133.4"/>
		<g>
			<path fill="#445464" d="M572.3,487.2L572.3,487.2c0-2.2,1.7-4,4-4c1.4,0,2.3,0.5,3,1.3l-1.3,1.4c-0.5-0.5-1-0.8-1.7-0.8
				c-1.1,0-1.8,1-1.8,2.1l0,0c0,1.2,0.8,2.1,1.9,2.1c0.7,0,1.2-0.3,1.7-0.8l1.3,1.3c-0.7,0.8-1.6,1.4-3.1,1.4
				C573.9,491.1,572.3,489.4,572.3,487.2z"/>
			<path fill="#445464" d="M580.2,487.2L580.2,487.2c0-2.2,1.8-4,4.1-4c2.4,0,4.1,1.7,4.1,3.9l0,0c0,2.2-1.8,4-4.1,4
				C581.9,491.1,580.2,489.4,580.2,487.2z M586.3,487.2L586.3,487.2c0-1.1-0.8-2.1-2-2.1s-2,1-2,2.1l0,0c0,1.1,0.8,2.1,2,2.1
				C585.5,489.3,586.3,488.3,586.3,487.2z"/>
			<path fill="#445464" d="M589.6,487.2L589.6,487.2c0-2.2,1.8-4,4.1-4c2.4,0,4.1,1.7,4.1,3.9l0,0c0,2.2-1.8,4-4.1,4
				C591.3,491.1,589.6,489.4,589.6,487.2z M595.7,487.2L595.7,487.2c0-1.1-0.8-2.1-2-2.1s-2,1-2,2.1l0,0c0,1.1,0.8,2.1,2,2.1
				C594.9,489.3,595.7,488.3,595.7,487.2z"/>
			<path fill="#445464" d="M599.4,480.6h2.2v5.5l2.5-2.8h2.6l-2.9,3l3,4.6h-2.5l-2-3.1l-0.8,0.8v2.3h-2.2L599.4,480.6L599.4,480.6z"
				/>
			<path fill="#445464" d="M609.9,490v1h-2.2v-10.4h2.2v3.8c0.5-0.7,1.2-1.2,2.4-1.2c1.8,0,3.5,1.4,3.5,3.9l0,0
				c0,2.5-1.7,3.9-3.5,3.9C611.2,491.1,610.4,490.6,609.9,490z M613.6,487.2L613.6,487.2c0-1.3-0.9-2.1-1.9-2.1s-1.8,0.8-1.8,2.1
				l0,0c0,1.3,0.8,2.1,1.8,2.1S613.6,488.5,613.6,487.2z"/>
			<path fill="#445464" d="M617,487.2L617,487.2c0-2.2,1.8-4,4.1-4c2.4,0,4.1,1.7,4.1,3.9l0,0c0,2.2-1.8,4-4.1,4
				C618.7,491.1,617,489.4,617,487.2z M623.1,487.2L623.1,487.2c0-1.1-0.8-2.1-2-2.1c-1.2,0-2,1-2,2.1l0,0c0,1.1,0.8,2.1,2,2.1
				C622.3,489.3,623.1,488.3,623.1,487.2z"/>
			<path fill="#445464" d="M626.4,487.2L626.4,487.2c0-2.2,1.8-4,4.1-4c2.4,0,4.1,1.7,4.1,3.9l0,0c0,2.2-1.8,4-4.1,4
				C628.2,491.1,626.4,489.4,626.4,487.2z M632.5,487.2L632.5,487.2c0-1.1-0.8-2.1-2-2.1s-2,1-2,2.1l0,0c0,1.1,0.8,2.1,2,2.1
				C631.8,489.3,632.5,488.3,632.5,487.2z"/>
			<path fill="#445464" d="M636.2,480.6h2.2v5.5l2.5-2.8h2.6l-2.9,3l3,4.6h-2.5l-2-3.1l-0.8,0.8v2.3h-2.2L636.2,480.6L636.2,480.6z"
				/>
			<path fill="#445464" d="M644,490l0.9-1.4c0.8,0.6,1.7,0.9,2.4,0.9c0.6,0,0.9-0.2,0.9-0.6l0,0c0-0.5-0.7-0.6-1.6-0.9
				c-1.1-0.3-2.3-0.8-2.3-2.3l0,0c0-1.5,1.2-2.4,2.8-2.4c1,0,2,0.3,2.8,0.9l-0.8,1.5c-0.8-0.4-1.5-0.7-2.1-0.7
				c-0.5,0-0.8,0.2-0.8,0.5l0,0c0,0.4,0.7,0.6,1.5,0.9c1.1,0.4,2.3,0.9,2.3,2.3l0,0c0,1.7-1.3,2.5-2.9,2.5
				C646.2,491.1,645,490.8,644,490z"/>
		</g>
	</g>
	<g>
		<g>
			<path fill="#445464" d="M626.6,422.4h-24.7c-0.9,0-1.6-0.7-1.6-1.6v-14c0-0.9,0.7-1.6,1.6-1.6h24.7c0.9,0,1.6,0.7,1.6,1.6v14
				C628.2,421.7,627.5,422.4,626.6,422.4L626.6,422.4z M603.5,419.2H625v-10.8h-21.5V419.2L603.5,419.2z"/>
		</g>
		<g>
			<g>
				<path fill="#445464" d="M640.1,466.7h-55.4c-1.8,0-3.2-1.4-3.2-3.2v-69.6c0-1.8,1.4-3.2,3.2-3.2h55.4c1.8,0,3.2,1.4,3.2,3.2
					v69.6C643.4,465.2,641.9,466.7,640.1,466.7L640.1,466.7z M588,460.2h48.9v-63.1H588V460.2L588,460.2z"/>
			</g>
			<g>
				<path fill="#445464" d="M590.4,410.1h-11.3c-1.8,0-3.2-1.4-3.2-3.2s1.4-3.2,3.2-3.2h11.3c1.8,0,3.2,1.4,3.2,3.2
					S592.2,410.1,590.4,410.1L590.4,410.1z"/>
			</g>
			<g>
				<path fill="#445464" d="M590.4,424.5h-11.3c-1.8,0-3.2-1.4-3.2-3.2s1.4-3.2,3.2-3.2h11.3c1.8,0,3.2,1.4,3.2,3.2
					C593.7,423,592.2,424.5,590.4,424.5L590.4,424.5z"/>
			</g>
			<g>
				<path fill="#445464" d="M590.4,438.9h-11.3c-1.8,0-3.2-1.4-3.2-3.2s1.4-3.2,3.2-3.2h11.3c1.8,0,3.2,1.4,3.2,3.2
					S592.2,438.9,590.4,438.9L590.4,438.9z"/>
			</g>
			<g>
				<path fill="#445464" d="M590.4,453.3h-11.3c-1.8,0-3.2-1.4-3.2-3.2s1.4-3.2,3.2-3.2h11.3c1.8,0,3.2,1.4,3.2,3.2
					C593.7,451.8,592.2,453.3,590.4,453.3L590.4,453.3z"/>
			</g>
		</g>
	</g>
</g>
<rect x="590.8" y="588.9" fill="#6CB2E2" width="273.1" height="153.8"/>
<g>
	<g>
		<rect x="600.5" y="599.1" fill="#FFFFFF" width="133.4" height="133.4"/>
		<g>
			<path fill="#445464" d="M641,712h2.2v4.3l4-4.3h2.6l-4,4.2l4.2,5.7h-2.6l-3.1-4.2l-1.1,1.2v3H641V712z"/>
			<path fill="#445464" d="M651.2,711.6h2.3v1.9h-2.3V711.6z M651.2,714.4h2.2v7.6h-2.2V714.4z"/>
			<path fill="#445464" d="M655.8,719.8v-3.6h-0.9v-1.8h0.9v-1.9h2.2v1.9h1.8v1.8H658v3.2c0,0.5,0.2,0.7,0.7,0.7
				c0.4,0,0.8-0.1,1.1-0.3v1.7c-0.5,0.3-1,0.4-1.7,0.4C656.7,722.1,655.8,721.6,655.8,719.8z"/>
			<path fill="#445464" d="M660.7,718.2L660.7,718.2c0-2.2,1.7-4,4-4c1.4,0,2.3,0.5,3,1.3l-1.3,1.4c-0.5-0.5-1-0.8-1.7-0.8
				c-1.1,0-1.8,1-1.8,2.1l0,0c0,1.2,0.8,2.1,1.9,2.1c0.7,0,1.2-0.3,1.7-0.8l1.3,1.3c-0.7,0.8-1.6,1.4-3.1,1.4
				C662.4,722.1,660.7,720.4,660.7,718.2z"/>
			<path fill="#445464" d="M669.2,711.6h2.2v3.8c0.5-0.6,1.1-1.2,2.2-1.2c1.6,0,2.6,1.1,2.6,2.8v4.9H674v-4.2c0-1-0.5-1.5-1.3-1.5
				s-1.3,0.5-1.3,1.5v4.2h-2.2V711.6z"/>
			<path fill="#445464" d="M677.7,718.2L677.7,718.2c0-2.2,1.5-4,3.8-4c2.5,0,3.7,2,3.7,4.1c0,0.2,0,0.4,0,0.6h-5.3
				c0.2,1,0.9,1.5,1.9,1.5c0.7,0,1.2-0.2,1.8-0.8l1.2,1.1c-0.7,0.9-1.7,1.4-3.1,1.4C679.4,722.1,677.7,720.5,677.7,718.2z
				 M683,717.6c-0.1-1-0.7-1.6-1.6-1.6c-0.9,0-1.5,0.6-1.6,1.6H683z"/>
			<path fill="#445464" d="M686.7,714.4h2.2v1.1c0.5-0.6,1.1-1.2,2.2-1.2c1.6,0,2.6,1.1,2.6,2.8v4.9h-2.2v-4.2c0-1-0.5-1.5-1.3-1.5
				s-1.3,0.5-1.3,1.5v4.2h-2.2V714.4z"/>
		</g>
	</g>
	<g>
		<path fill="#445464" d="M698,618.7h-62.3c-5.2,0-9.5,4.3-9.5,9.5v60.2c0,5.2,4.3,9.5,9.5,9.5H698c5.2,0,9.5-4.3,9.5-9.5v-60.2
			C707.4,623,703.2,618.7,698,618.7z M661.9,669c0,7.2-5.8,13.1-12.8,13.1c-6.7,0-12.1-5.3-12.7-12h-0.2l0.1-24.9h0.1
			c0.1-7.1,5.8-12.9,12.8-12.8c7,0,12.6,5.8,12.7,12.9l0,0l-0.1,22.3l0,0C661.9,668.1,661.9,668.6,661.9,669z M695.3,671.4v18.9
			h-17.9v-0.1c-1,0-2-0.2-3-0.4c-1.1-0.3-2.1-0.7-3-1.3c-3.4-2.1-5.7-5.9-5.7-10.2c0-0.2,0-0.5,0-0.7l0,0v-18.9h17.9l0,0
			c6.5,0.1,11.7,5.5,11.7,12C695.3,670.8,695.3,671.1,695.3,671.4L695.3,671.4z M697.1,643.9L697.1,643.9c-0.2,6.7-5.6,12.1-12.1,12
			c-0.2,0-0.5,0-0.7,0l0,0l-18.9-0.1l0.1-18.1v-0.3l0,0c0.2-6.7,5.5-12.1,12-12c0.3,0,0.5,0,0.8,0l0,0l18.9,0.1L697.1,643.9z"/>
		<g>
			<path fill="#445464" d="M656.2,644.9c0,0.1,0,0.3,0,0.4c-0.3,3.4-3.4,6.2-7.1,6.1c-3.8,0-6.9-2.8-7.1-6.2c0-0.1,0-0.3,0-0.4
				c0-3.6,3.2-6.6,7.1-6.6C653.1,638.3,656.3,641.2,656.2,644.9z"/>
		</g>
	</g>
</g>
<rect x="720.5" y="599.1" fill="#FFFFFF" width="133.4" height="133.4"/>
<g>
	<path fill="#445464" d="M766.8,712h3.9c3.1,0,5.3,2.1,5.3,4.9l0,0c0,2.8-2.2,5-5.3,5h-3.9V712z M770.6,720c1.8,0,3-1.2,3-3l0,0
		c0-1.8-1.2-3-3-3h-1.7v6H770.6z"/>
	<path fill="#445464" d="M777.3,718.2L777.3,718.2c0-2.2,1.8-4,4.1-4c2.4,0,4.1,1.7,4.1,3.9l0,0c0,2.2-1.8,4-4.1,4
		C779,722.1,777.3,720.4,777.3,718.2z M783.4,718.2L783.4,718.2c0-1.1-0.8-2.1-2-2.1s-2,1-2,2.1l0,0c0,1.1,0.8,2.1,2,2.1
		C782.6,720.3,783.4,719.3,783.4,718.2z"/>
	<path fill="#445464" d="M786.7,718.2L786.7,718.2c0-2.2,1.7-4,4-4c1.4,0,2.3,0.5,3,1.3l-1.3,1.4c-0.5-0.5-1-0.8-1.7-0.8
		c-1.1,0-1.8,1-1.8,2.1l0,0c0,1.2,0.8,2.1,1.9,2.1c0.7,0,1.2-0.3,1.7-0.8l1.3,1.3c-0.7,0.8-1.6,1.4-3.1,1.4
		C788.4,722.1,786.7,720.4,786.7,718.2z"/>
	<path fill="#445464" d="M795.2,711.6h2.2v5.5l2.5-2.8h2.6l-2.9,3l3,4.6H800l-2-3.1l-0.8,0.8v2.3H795v-10.3H795.2z"/>
	<path fill="#445464" d="M802.8,718.2L802.8,718.2c0-2.2,1.5-4,3.8-4c2.5,0,3.7,2,3.7,4.1c0,0.2,0,0.4,0,0.6H805
		c0.2,1,0.9,1.5,1.9,1.5c0.7,0,1.2-0.2,1.8-0.8l1.2,1.1c-0.7,0.9-1.7,1.4-3.1,1.4C804.5,722.1,802.8,720.5,802.8,718.2z
		 M808.2,717.6c-0.1-1-0.7-1.6-1.6-1.6c-0.9,0-1.5,0.6-1.6,1.6H808.2z"/>
	<path fill="#445464" d="M811.9,714.4h2.2v1.5c0.4-1,1.1-1.7,2.4-1.7v2.3h-0.1c-1.4,0-2.3,0.9-2.3,2.7v2.8h-2.2L811.9,714.4
		L811.9,714.4z"/>
</g>
<polygon fill="#6CB2E2" fill-opacity="0.5" points="917.9,529.3 845.9,578.9 845.9,579.3 607.9,579.3 607.9,578.9 535.9,529.3 "/>
<polygon fill="#6CB2E2" fill-opacity="0.5" points="535.9,340.3 607.9,290.8 607.9,290.3 845.9,290.3 845.9,290.8 917.9,340.3 "/>
<g>
	<g>
		<g>
			<path fill="#FFFFFF" d="M457.6,260.6L457.6,260.6c0-3,2.2-5.5,5.5-5.5c2,0,3.2,0.7,4.1,1.6l-1.5,1.7c-0.8-0.7-1.6-1.2-2.7-1.2
				c-1.8,0-3,1.5-3,3.3l0,0c0,1.8,1.2,3.3,3,3.3c1.2,0,1.9-0.5,2.8-1.2l1.5,1.5c-1.1,1.2-2.3,1.9-4.3,1.9
				C459.9,266,457.6,263.6,457.6,260.6z"/>
			<path fill="#FFFFFF" d="M468.9,254.8h2.3v4c0.5-0.7,1.2-1.3,2.4-1.3c1.7,0,2.7,1.1,2.7,3v5.2H474v-4.5c0-1.1-0.5-1.6-1.4-1.6
				s-1.4,0.6-1.4,1.6v4.5h-2.3L468.9,254.8L468.9,254.8z"/>
			<path fill="#FFFFFF" d="M477.9,261.8L477.9,261.8c0-2.3,1.6-4.2,4-4.2c2.7,0,3.9,2.1,3.9,4.4c0,0.2,0,0.4,0,0.6h-5.6
				c0.2,1,0.9,1.6,2,1.6c0.8,0,1.3-0.2,2-0.8l1.3,1.2c-0.8,0.9-1.8,1.5-3.3,1.5C479.7,266,477.9,264.3,477.9,261.8z M483.5,261.1
				c-0.1-1-0.7-1.7-1.7-1.7c-0.9,0-1.6,0.7-1.7,1.7H483.5z"/>
			<path fill="#FFFFFF" d="M487.8,259.7h-0.9v-1.9h0.9v-0.5c0-0.9,0.2-1.5,0.6-2c0.4-0.4,1-0.6,1.8-0.6c0.7,0,1.2,0.1,1.6,0.2v1.9
				c-0.3-0.1-0.6-0.2-1-0.2c-0.5,0-0.8,0.3-0.8,0.9v0.3h1.8v1.9H490v6.1h-2.3L487.8,259.7L487.8,259.7z"/>
			<path fill="#FFFFFF" d="M497.5,260.6L497.5,260.6c0-3,2.2-5.5,5.5-5.5c2,0,3.2,0.7,4.1,1.6l-1.5,1.7c-0.8-0.7-1.6-1.2-2.7-1.2
				c-1.8,0-3,1.5-3,3.3l0,0c0,1.8,1.2,3.3,3,3.3c1.2,0,1.9-0.5,2.8-1.2l1.5,1.5c-1.1,1.2-2.3,1.9-4.3,1.9
				C499.8,266,497.5,263.6,497.5,260.6z"/>
			<path fill="#FFFFFF" d="M508.2,261.8L508.2,261.8c0-2.3,1.9-4.2,4.4-4.2c2.5,0,4.3,1.8,4.3,4.2l0,0c0,2.3-1.9,4.2-4.4,4.2
				C510.1,266,508.2,264.1,508.2,261.8z M514.7,261.8L514.7,261.8c0-1.2-0.9-2.2-2.1-2.2c-1.3,0-2.1,1-2.1,2.2l0,0
				c0,1.2,0.9,2.2,2.1,2.2C513.9,264,514.7,263,514.7,261.8z"/>
			<path fill="#FFFFFF" d="M518.6,257.7h2.3v1.1c0.5-0.7,1.2-1.3,2.4-1.3c1,0,1.8,0.5,2.3,1.3c0.7-0.8,1.5-1.3,2.6-1.3
				c1.7,0,2.7,1,2.7,3v5.2h-2.3v-4.5c0-1.1-0.5-1.6-1.3-1.6c-0.9,0-1.4,0.6-1.4,1.6v4.5h-2.3v-4.5c0-1.1-0.5-1.6-1.3-1.6
				c-0.9,0-1.4,0.6-1.4,1.6v4.5h-2.3L518.6,257.7L518.6,257.7z"/>
			<path fill="#FFFFFF" d="M532.8,257.7h2.3v1.2c0.6-0.8,1.3-1.3,2.5-1.3c1.9,0,3.7,1.5,3.7,4.2l0,0c0,2.7-1.8,4.2-3.7,4.2
				c-1.2,0-2-0.6-2.5-1.2v3.4h-2.3V257.7z M539,261.8L539,261.8c0-1.4-0.9-2.2-2-2.2s-1.9,0.9-1.9,2.2l0,0c0,1.3,0.9,2.2,1.9,2.2
				C538.1,264,539,263.1,539,261.8z"/>
			<path fill="#FFFFFF" d="M543,254.8h2.3v10.9H543V254.8z"/>
			<path fill="#FFFFFF" d="M547.5,254.8h2.4v2h-2.4V254.8z M547.6,257.7h2.3v8h-2.3V257.7z"/>
			<path fill="#FFFFFF" d="M551.5,263.5L551.5,263.5c0-1.8,1.3-2.6,3.2-2.6c0.8,0,1.4,0.1,2,0.3v-0.1c0-0.9-0.6-1.5-1.7-1.5
				c-0.9,0-1.5,0.2-2.2,0.4l-0.6-1.7c0.9-0.4,1.8-0.6,3.1-0.6c1.2,0,2.1,0.3,2.7,0.9s0.9,1.5,0.9,2.6v4.7h-2.2v-1
				c-0.6,0.6-1.3,1-2.4,1C552.8,265.9,551.5,265.1,551.5,263.5z M556.8,263v-0.4c-0.4-0.2-0.9-0.3-1.5-0.3c-1,0-1.6,0.4-1.6,1.1l0,0
				c0,0.6,0.5,1,1.2,1C556,264.4,556.8,263.8,556.8,263z"/>
			<path fill="#FFFFFF" d="M560.9,257.7h2.3v1.1c0.5-0.7,1.2-1.3,2.4-1.3c1.7,0,2.7,1.1,2.7,3v5.2H566v-4.5c0-1.1-0.5-1.6-1.4-1.6
				c-0.9,0-1.4,0.6-1.4,1.6v4.5h-2.3V257.7L560.9,257.7z"/>
			<path fill="#FFFFFF" d="M569.8,261.8L569.8,261.8c0-2.3,1.8-4.2,4.2-4.2c1.5,0,2.5,0.5,3.2,1.3l-1.4,1.5c-0.5-0.5-1-0.9-1.8-0.9
				c-1.1,0-1.9,1-1.9,2.2l0,0c0,1.2,0.8,2.2,2,2.2c0.8,0,1.3-0.3,1.8-0.9l1.3,1.3c-0.8,0.9-1.7,1.5-3.3,1.5
				C571.6,266,569.8,264.1,569.8,261.8z"/>
			<path fill="#FFFFFF" d="M578.2,261.8L578.2,261.8c0-2.3,1.6-4.2,4-4.2c2.7,0,3.9,2.1,3.9,4.4c0,0.2,0,0.4,0,0.6h-5.6
				c0.2,1,0.9,1.6,2,1.6c0.8,0,1.3-0.2,2-0.8l1.3,1.2c-0.8,0.9-1.8,1.5-3.3,1.5C580,266,578.2,264.3,578.2,261.8z M583.8,261.1
				c-0.1-1-0.7-1.7-1.7-1.7c-0.9,0-1.6,0.7-1.7,1.7H583.8z"/>
		</g>
	</g>
</g>
<g>
	<g>
		<rect x="604.1" y="128.5" fill="#FFFFFF" width="133.4" height="133.4"/>
		<g>
			<path fill="#445464" d="M648,241.5h2.3l2.1,6.7l2.2-6.8h1.9l2.2,6.8l2.1-6.7h2.3l-3.4,10h-1.9l-2.2-6.5l-2.2,6.5h-1.9L648,241.5z
				"/>
			<path fill="#445464" d="M663.2,247.7L663.2,247.7c0-2.2,1.5-4,3.8-4c2.5,0,3.7,2,3.7,4.1c0,0.2,0,0.4,0,0.6h-5.3
				c0.2,1,0.9,1.5,1.9,1.5c0.7,0,1.2-0.2,1.8-0.8l1.2,1.1c-0.7,0.9-1.7,1.4-3.1,1.4C664.9,251.6,663.2,250,663.2,247.7z M668.5,247
				c-0.1-1-0.7-1.6-1.6-1.6c-0.9,0-1.5,0.6-1.6,1.6H668.5z"/>
			<path fill="#445464" d="M674.4,250.4v1h-2.2V241h2.2v3.8c0.5-0.7,1.2-1.2,2.4-1.2c1.8,0,3.5,1.4,3.5,3.9l0,0
				c0,2.5-1.7,3.9-3.5,3.9C675.6,251.6,674.9,251,674.4,250.4z M678.1,247.6L678.1,247.6c0-1.3-0.9-2.1-1.9-2.1s-1.8,0.8-1.8,2.1
				l0,0c0,1.3,0.8,2.1,1.8,2.1C677.2,249.7,678.1,248.9,678.1,247.6z"/>
			<path fill="#445464" d="M681.8,248.7v-4.9h2.2v4.2c0,1,0.5,1.5,1.3,1.5s1.3-0.5,1.3-1.5v-4.2h2.2v7.6h-2.2v-1.1
				c-0.5,0.6-1.1,1.2-2.2,1.2C682.7,251.6,681.8,250.5,681.8,248.7z"/>
			<path fill="#445464" d="M690.7,241.1h2.3v1.9h-2.3V241.1z M690.8,243.8h2.2v7.6h-2.2V243.8z"/>
		</g>
	</g>
	<g>
		<g>
			<g>
				<path fill="#445464" d="M703.8,225.7h-67.5c-1.7,0-3.1-1.4-3.1-3.1v-67.5c0-1.7,1.4-3.1,3.1-3.1h67.5c1.7,0,3.1,1.4,3.1,3.1
					v67.5C706.9,224.3,705.5,225.7,703.8,225.7L703.8,225.7z M639.5,219.5h61.3v-61.3h-61.3V219.5L639.5,219.5z"/>
			</g>
			<g>
				<path fill="#445464" d="M702.7,174.8h-65.2c-0.9,0-1.5-0.7-1.5-1.5c0-0.9,0.7-1.5,1.5-1.5h65.2c0.9,0,1.5,0.7,1.5,1.5
					C704.3,174.1,703.6,174.8,702.7,174.8L702.7,174.8z"/>
			</g>
			<path fill="#445464" d="M647.3,161.2c-2.2,0-3.9,1.7-3.9,3.9c0,2.2,1.7,3.9,3.9,3.9s3.9-1.7,3.9-3.9
				C651.2,162.9,649.5,161.2,647.3,161.2L647.3,161.2z"/>
			<path fill="#445464" d="M657.9,161.2c-2.2,0-3.9,1.7-3.9,3.9c0,2.2,1.7,3.9,3.9,3.9c2.2,0,3.9-1.7,3.9-3.9
				S660.1,161.2,657.9,161.2L657.9,161.2z"/>
			<path fill="#445464" d="M668.5,161.2c-2.2,0-3.9,1.7-3.9,3.9c0,2.2,1.7,3.9,3.9,3.9c2.2,0,3.9-1.7,3.9-3.9
				S670.6,161.2,668.5,161.2L668.5,161.2z"/>
		</g>
		<g>
			<g>
				<path fill="#445464" d="M670.1,187.2h-21.2c-0.9,0-1.5-0.7-1.5-1.5c0-0.9,0.7-1.5,1.5-1.5h21.2c0.9,0,1.5,0.7,1.5,1.5
					C671.6,186.5,670.9,187.2,670.1,187.2L670.1,187.2z"/>
			</g>
			<g>
				<path fill="#445464" d="M670.1,197h-21.2c-0.9,0-1.5-0.7-1.5-1.5c0-0.9,0.7-1.5,1.5-1.5h21.2c0.9,0,1.5,0.7,1.5,1.5
					S670.9,197,670.1,197L670.1,197z"/>
			</g>
			<g>
				<path fill="#445464" d="M670.1,206.8h-21.2c-0.9,0-1.5-0.7-1.5-1.5c0-0.9,0.7-1.5,1.5-1.5h21.2c0.9,0,1.5,0.7,1.5,1.5
					C671.6,206.1,670.9,206.8,670.1,206.8L670.1,206.8z"/>
			</g>
			<g>
				<path fill="#445464" d="M691.3,206.8h-13.4c-0.9,0-1.5-0.7-1.5-1.5v-19.6c0-0.9,0.7-1.5,1.5-1.5h13.4c0.9,0,1.5,0.7,1.5,1.5
					v19.6C692.8,206.1,692.1,206.8,691.3,206.8L691.3,206.8z M679.4,203.7h10.3v-16.5h-10.3V203.7L679.4,203.7z"/>
			</g>
		</g>
	</g>
</g>
<g>
	<g>
		<path fill="#FFFFFF" d="M522.3,200.7c-9.7,0-17.6-7.9-17.6-17.6s7.9-17.6,17.6-17.6c8,0,14.8,5.4,16.9,12.7h6.8
			c-2.3-11-12-19.3-23.7-19.3c-13.3,0-24.2,10.9-24.2,24.2c0,13.3,10.9,24.2,24.2,24.2c11.7,0,21.4-8.3,23.7-19.3h-6.8
			C537.1,195.3,530.3,200.7,522.3,200.7"/>
		<path fill="#FFFFFF" d="M510.5,195c3,3,7.2,4.9,11.9,4.9v-7c-2.7,0-5.1-1.1-6.9-2.9L510.5,195z"/>
		<path fill="#FFFFFF" d="M505.6,183.1c0,2.4,0.5,4.7,1.4,6.8l6.4-2.8c-0.5-1.2-0.8-2.5-0.8-3.9c0-5.4,4.4-9.8,9.8-9.8v-7
			C513.1,166.3,505.6,173.9,505.6,183.1"/>
		<path fill="#FFFFFF" d="M528.4,167.5l-2.5,6.5c2.1,0.8,3.8,2.3,4.9,4.2h7.6C536.9,173.3,533.2,169.3,528.4,167.5"/>
		<path fill="#FFFFFF" d="M525.9,192.2l2.5,6.5c4.8-1.9,8.5-5.8,10-10.8h-7.6C529.7,189.9,528,191.4,525.9,192.2"/>
		<path fill="#FFFFFF" d="M491.3,192.5c-0.1-0.4-0.2-0.7-0.3-1.1c0,0,0,0,0-0.1c-0.1-0.3-0.2-0.7-0.3-1c0-0.1,0-0.1,0-0.2
			c-0.1-0.3-0.1-0.6-0.2-0.9c0-0.1,0-0.3-0.1-0.4c0-0.2-0.1-0.5-0.1-0.7s-0.1-0.4-0.1-0.6c-0.2-1.4-0.3-2.9-0.3-4.3h-6.6
			c0,1.6,0.1,3.2,0.3,4.7l0,0v0.1c0.1,0.4,0.1,0.8,0.2,1.3c0,0.1,0,0.2,0.1,0.3c0.1,0.3,0.1,0.7,0.2,1c0,0.2,0.1,0.4,0.1,0.5
			c0.1,0.3,0.1,0.5,0.2,0.8c0.1,0.2,0.1,0.5,0.2,0.7s0.1,0.4,0.2,0.6c0.1,0.3,0.2,0.6,0.2,0.8c0,0.1,0.1,0.2,0.1,0.3l0,0
			c0.5,1.5,1,3,1.6,4.4l6.1-2.7C492.1,195,491.7,193.8,491.3,192.5z"/>
		<path fill="#FFFFFF" d="M522.3,215.6c-8.9,0-17.1-3.6-22.9-9.5l-4.7,4.7c7.1,7.1,16.8,11.4,27.6,11.4c19.9,0,36.4-14.9,38.8-34.2
			h-6.7C552,203.6,538.6,215.6,522.3,215.6"/>
		<path fill="#FFFFFF" d="M522.3,150.7c7.3,0,14,2.4,19.4,6.5l4-5.3c-6.5-4.9-14.6-7.8-23.4-7.8c-16.6,0-30.7,10.3-36.4,24.9
			l6.2,2.4C496.8,159.3,508.6,150.7,522.3,150.7"/>
		<path fill="#FFFFFF" d="M554.4,178.2h6.7c-0.7-5.7-2.7-11.1-5.6-15.8l-5.6,3.5C552.1,169.6,553.7,173.8,554.4,178.2"/>
		<path fill="#FFFFFF" d="M546.9,178.2h6.7c-1.8-11.3-9.5-20.6-19.8-24.6l-2.4,6.2C539.3,162.9,545.2,169.8,546.9,178.2"/>
		<path fill="#FFFFFF" d="M522.3,158.1L522.3,158.1v-6.6l0,0c-13.4,0-24.9,8.4-29.5,20.2l6.2,2.4
			C502.7,164.7,511.7,158.1,522.3,158.1"/>
		<path fill="#FFFFFF" d="M497.3,183.1L497.3,183.1h-6.6l0,0c0,13.3,8.2,24.7,19.9,29.4l2.5-6.1
			C503.8,202.6,497.3,193.6,497.3,183.1"/>
		<path fill="#FFFFFF" d="M522.3,208.1v6.6c15.8,0,28.9-11.6,31.2-26.7h-6.7C544.6,199.5,534.5,208.1,522.3,208.1"/>
	</g>
	<rect x="468.9" y="130.9" fill="none" stroke="#FFFFFF" stroke-width="4" stroke-miterlimit="10" width="105.2" height="104.7"/>
</g>
<g>
	<g>
		<rect x="664.5" y="368.1" fill="#FFFFFF" width="133.4" height="133.4"/>
		<g>
			<path fill="#445464" d="M714.7,483.4h2.2v1.5c0.4-1.1,1.1-1.7,2.4-1.7v2.3h-0.1c-1.4,0-2.3,0.9-2.3,2.7v2.8h-2.2L714.7,483.4
				L714.7,483.4z"/>
			<path fill="#445464" d="M720.6,488.3v-4.9h2.2v4.2c0,1,0.5,1.5,1.3,1.5s1.3-0.5,1.3-1.5v-4.2h2.2v7.6h-2.2v-1.1
				c-0.5,0.6-1.1,1.2-2.2,1.2C721.6,491.1,720.6,490,720.6,488.3z"/>
			<path fill="#445464" d="M729.6,480.6h2.2V491h-2.2V480.6z"/>
			<path fill="#445464" d="M733.4,487.2L733.4,487.2c0-2.2,1.5-4,3.8-4c2.5,0,3.7,2,3.7,4.1c0,0.2,0,0.4,0,0.6h-5.3
				c0.2,1,0.9,1.5,1.9,1.5c0.7,0,1.2-0.2,1.8-0.8l1.2,1.1c-0.7,0.9-1.7,1.4-3.1,1.4C735.1,491.1,733.4,489.5,733.4,487.2z
				 M738.8,486.6c-0.1-1-0.7-1.6-1.6-1.6c-0.9,0-1.5,0.6-1.6,1.6H738.8z"/>
			<path fill="#445464" d="M741.9,490l0.9-1.4c0.8,0.6,1.7,0.9,2.4,0.9c0.6,0,0.9-0.2,0.9-0.6l0,0c0-0.5-0.7-0.6-1.6-0.9
				c-1.1-0.3-2.3-0.8-2.3-2.3l0,0c0-1.5,1.2-2.4,2.8-2.4c1,0,2,0.3,2.8,0.9l-0.8,1.5c-0.8-0.4-1.5-0.7-2.1-0.7
				c-0.5,0-0.8,0.2-0.8,0.5l0,0c0,0.4,0.7,0.6,1.5,0.9c1.1,0.4,2.3,0.9,2.3,2.3l0,0c0,1.7-1.3,2.5-2.9,2.5
				C744.1,491.1,742.9,490.8,741.9,490z"/>
		</g>
	</g>
	<g>
		<g>
			<g>
				<path fill="#455565" d="M735.4,451.8c-0.7,0-1.4-0.3-1.9-0.8s-0.8-1.3-0.8-2.1l0.6-9.8c0-0.7,0.3-1.3,0.8-1.7l29.2-29.2
					c1-1,2.8-1,3.8,0l9.2,9.2c1,1,1,2.7,0,3.8l-29.2,29.2c-0.5,0.5-1.1,0.7-1.7,0.8l-9.8,0.6C735.5,451.8,735.4,451.8,735.4,451.8
					L735.4,451.8z M738.6,440.5l-0.3,5.8l5.7-0.3l26.6-26.6l-5.4-5.4L738.6,440.5L738.6,440.5z"/>
			</g>
			<g>
				<path fill="#455565" d="M769.1,425c-0.3,0-0.7-0.1-0.9-0.4l-8.3-8.3c-0.5-0.5-0.5-1.4,0-1.9s1.4-0.5,1.9,0l8.3,8.3
					c0.5,0.5,0.5,1.4,0,1.9C769.8,424.9,769.5,425,769.1,425L769.1,425z"/>
			</g>
			<path fill="#455565" d="M736.9,442.3c-0.2,0-0.4,0-0.6,0c-0.2,0-0.3,0.1-0.5,0.1l-0.4,6.8l6.5-0.4c0.1-0.2,0.1-0.5,0.2-0.8
				C742.4,444.8,740.1,442.3,736.9,442.3L736.9,442.3z"/>
		</g>
		<g>
			<g>
				<path fill="#455565" d="M751,462.2h-37.5c-3.4,0-6.1-2.7-6.1-6.1v-50.3c0-1.5,1.2-2.7,2.7-2.7s2.7,1.2,2.7,2.7v50.3
					c0,0.4,0.3,0.7,0.7,0.7H751c0.4,0,0.8-0.3,0.8-0.7v-15.8c0-1.5,1.2-2.7,2.7-2.7s2.7,1.2,2.7,2.7v15.8
					C757.1,459.4,754.4,462.2,751,462.2L751,462.2z"/>
			</g>
			<g>
				<path fill="#455565" d="M754.4,423.4c-1.5,0-2.7-1.2-2.7-2.7v-7.1c0-0.4-0.3-0.7-0.8-0.7c-1.5,0-2.7-1.2-2.7-2.7
					s1.2-2.7,2.7-2.7c3.4,0,6.1,2.7,6.1,6.1v7.1C757.1,422.2,755.9,423.4,754.4,423.4L754.4,423.4z"/>
			</g>
			<g>
				<path fill="#455565" d="M750.5,412.8h-34.7c-4.6,0-8.3-3.7-8.3-8.3s3.7-8.3,8.3-8.3h38.7c1.5,0,2.7,1.2,2.7,2.7
					s-1.2,2.7-2.7,2.7h-38.7c-1.6,0-2.9,1.3-2.9,2.9s1.3,2.9,2.9,2.9h34.7c1.5,0,2.7,1.2,2.7,2.7S751.9,412.8,750.5,412.8
					L750.5,412.8z"/>
			</g>
		</g>
		<g>
			<path fill="#455565" d="M736.3,422.7h-16.5c-0.7,0-1.3-0.6-1.3-1.3s0.6-1.3,1.3-1.3h16.5c0.7,0,1.3,0.6,1.3,1.3
				S737,422.7,736.3,422.7L736.3,422.7z"/>
		</g>
		<g>
			<path fill="#455565" d="M736.3,430.1h-16.5c-0.7,0-1.3-0.6-1.3-1.3s0.6-1.3,1.3-1.3h16.5c0.7,0,1.3,0.6,1.3,1.3
				C737.6,429.5,737,430.1,736.3,430.1L736.3,430.1z"/>
		</g>
	</g>
</g>
<g>
	<rect x="793.4" y="653.1" fill="#445464" width="0.7" height="7"/>
	<rect x="794.7" y="653.1" fill="#445464" width="0.7" height="7"/>
	<rect x="795.9" y="653.1" fill="#445464" width="0.7" height="7"/>
	<rect x="797.2" y="653.1" fill="#445464" width="0.7" height="7"/>
	<rect x="798.5" y="653.1" fill="#445464" width="0.7" height="7"/>
	<rect x="799.8" y="653.1" fill="#445464" width="0.7" height="7"/>
	<path fill="#445464" d="M783.7,653.1v7h0.7v-7H783.7z M785,653.1v7h0.7v-7H785z M786.3,653.1v7h0.7v-7H786.3z M787.5,653.1v7h0.7
		v-7H787.5z M788.8,653.1v7h0.7v-7H788.8z M790.1,653.1v7h0.7v-7H790.1z M790.1,653.1v7h0.7v-7H790.1z M788.8,653.1v7h0.7v-7H788.8z
		 M787.5,653.1v7h0.7v-7H787.5z M786.3,653.1v7h0.7v-7H786.3z M785,653.1v7h0.7v-7H785z M783.7,653.1v7h0.7v-7H783.7z M764.4,653.1
		v7h0.7v-7H764.4z M765.6,653.1v7h0.7v-7H765.6z M766.9,653.1v7h0.7v-7H766.9z M768.2,653.1v7h0.7v-7H768.2z M769.4,653.1v7h0.7v-7
		H769.4z M770.7,653.1v7h0.7v-7H770.7z M774.1,653.1v7h0.7v-7H774.1z M775.3,653.1v7h0.7v-7H775.3z M776.6,653.1v7h0.7v-7H776.6z
		 M777.9,653.1v7h0.7v-7H777.9z M779.1,653.1v7h0.7v-7H779.1z M780.4,653.1v7h0.7v-7H780.4z M783.7,653.1v7h0.7v-7H783.7z
		 M785,653.1v7h0.7v-7H785z M786.3,653.1v7h0.7v-7H786.3z M787.5,653.1v7h0.7v-7H787.5z M788.8,653.1v7h0.7v-7H788.8z M790.1,653.1
		v7h0.7v-7H790.1z M770.7,653.1v7h0.7v-7H770.7z M769.4,653.1v7h0.7v-7H769.4z M768.2,653.1v7h0.7v-7H768.2z M766.9,653.1v7h0.7v-7
		H766.9z M765.6,653.1v7h0.7v-7H765.6z M764.4,653.1v7h0.7v-7H764.4z M780.4,653.1v7h0.7v-7H780.4z M779.1,653.1v7h0.7v-7H779.1z
		 M777.9,653.1v7h0.7v-7H777.9z M776.6,653.1v7h0.7v-7H776.6z M775.3,653.1v7h0.7v-7H775.3z M774.1,653.1v7h0.7v-7H774.1z
		 M790.1,653.1v7h0.7v-7H790.1z M788.8,653.1v7h0.7v-7H788.8z M787.5,653.1v7h0.7v-7H787.5z M786.3,653.1v7h0.7v-7H786.3z
		 M785,653.1v7h0.7v-7H785z M783.7,653.1v7h0.7v-7H783.7z M754.7,653.1v7h0.7v-7H754.7z M756,653.1v7h0.7v-7H756z M757.2,653.1v7
		h0.7v-7H757.2z M758.5,653.1v7h0.7v-7H758.5z M759.8,653.1v7h0.7v-7H759.8z M761,653.1v7h0.7v-7H761z M764.4,643.4v7h0.7v-7H764.4z
		 M764.4,653.1v7h0.7v-7H764.4z M765.6,643.4v7h0.7v-7H765.6z M765.6,653.1v7h0.7v-7H765.6z M766.9,643.4v7h0.7v-7H766.9z
		 M766.9,653.1v7h0.7v-7H766.9z M768.2,643.4v7h0.7v-7H768.2z M768.2,653.1v7h0.7v-7H768.2z M769.4,643.4v7h0.7v-7H769.4z
		 M769.4,653.1v7h0.7v-7H769.4z M770.7,643.4v7h0.7v-7H770.7z M770.7,653.1v7h0.7v-7H770.7z M774.1,653.1v7h0.7v-7H774.1z
		 M775.3,653.1v7h0.7v-7H775.3z M776.6,653.1v7h0.7v-7H776.6z M777.9,653.1v7h0.7v-7H777.9z M779.1,653.1v7h0.7v-7H779.1z
		 M780.4,653.1v7h0.7v-7H780.4z M783.7,653.1v7h0.7v-7H783.7z M785,653.1v7h0.7v-7H785z M786.3,653.1v7h0.7v-7H786.3z M787.5,653.1
		v7h0.7v-7H787.5z M788.8,653.1v7h0.7v-7H788.8z M790.1,653.1v7h0.7v-7H790.1z M761,653.1v7h0.7v-7H761z M759.8,653.1v7h0.7v-7
		H759.8z M758.5,653.1v7h0.7v-7H758.5z M757.2,653.1v7h0.7v-7H757.2z M756,653.1v7h0.7v-7H756z M754.7,653.1v7h0.7v-7H754.7z
		 M770.7,653.1v7h0.7v-7H770.7z M769.4,653.1v7h0.7v-7H769.4z M768.2,653.1v7h0.7v-7H768.2z M766.9,653.1v7h0.7v-7H766.9z
		 M765.6,653.1v7h0.7v-7H765.6z M764.4,653.1v7h0.7v-7H764.4z M770.7,643.4v7h0.7v-7H770.7z M769.4,643.4v7h0.7v-7H769.4z
		 M768.2,643.4v7h0.7v-7H768.2z M766.9,643.4v7h0.7v-7H766.9z M765.6,643.4v7h0.7v-7H765.6z M764.4,643.4v7h0.7v-7H764.4z
		 M780.4,653.1v7h0.7v-7H780.4z M779.1,653.1v7h0.7v-7H779.1z M777.9,653.1v7h0.7v-7H777.9z M776.6,653.1v7h0.7v-7H776.6z
		 M775.3,653.1v7h0.7v-7H775.3z M774.1,653.1v7h0.7v-7H774.1z M790.1,653.1v7h0.7v-7H790.1z M788.8,653.1v7h0.7v-7H788.8z
		 M787.5,653.1v7h0.7v-7H787.5z M786.3,653.1v7h0.7v-7H786.3z M785,653.1v7h0.7v-7H785z M783.7,653.1v7h0.7v-7H783.7z M754.7,653.1
		v7h0.7v-7H754.7z M756,653.1v7h0.7v-7H756z M757.2,653.1v7h0.7v-7H757.2z M758.5,653.1v7h0.7v-7H758.5z M759.8,653.1v7h0.7v-7
		H759.8z M761,653.1v7h0.7v-7H761z M764.4,643.4v7h0.7v-7H764.4z M764.4,653.1v7h0.7v-7H764.4z M765.6,643.4v7h0.7v-7H765.6z
		 M765.6,653.1v7h0.7v-7H765.6z M766.9,643.4v7h0.7v-7H766.9z M766.9,653.1v7h0.7v-7H766.9z M768.2,643.4v7h0.7v-7H768.2z
		 M768.2,653.1v7h0.7v-7H768.2z M769.4,643.4v7h0.7v-7H769.4z M769.4,653.1v7h0.7v-7H769.4z M770.7,643.4v7h0.7v-7H770.7z
		 M770.7,653.1v7h0.7v-7H770.7z M774.1,643.4v7h0.7v-7H774.1z M774.1,653.1v7h0.7v-7H774.1z M775.3,643.4v7h0.7v-7H775.3z
		 M775.3,653.1v7h0.7v-7H775.3z M776.6,643.4v7h0.7v-7H776.6z M776.6,653.1v7h0.7v-7H776.6z M777.9,643.4v7h0.7v-7H777.9z
		 M777.9,653.1v7h0.7v-7H777.9z M779.1,643.4v7h0.7v-7H779.1z M779.1,653.1v7h0.7v-7H779.1z M780.4,643.4v7h0.7v-7H780.4z
		 M780.4,653.1v7h0.7v-7H780.4z M783.7,643.4v7h0.7v-7H783.7z M783.7,653.1v7h0.7v-7H783.7z M785,643.4v7h0.7v-7H785z M785,653.1v7
		h0.7v-7H785z M786.3,643.4v7h0.7v-7H786.3z M786.3,653.1v7h0.7v-7H786.3z M787.5,643.4v7h0.7v-7H787.5z M787.5,653.1v7h0.7v-7
		H787.5z M788.8,643.4v7h0.7v-7H788.8z M788.8,653.1v7h0.7v-7H788.8z M790.1,643.4v7h0.7v-7H790.1z M790.1,653.1v7h0.7v-7H790.1z
		 M761,653.1v7h0.7v-7H761z M759.8,653.1v7h0.7v-7H759.8z M758.5,653.1v7h0.7v-7H758.5z M757.2,653.1v7h0.7v-7H757.2z M756,653.1v7
		h0.7v-7H756z M754.7,653.1v7h0.7v-7H754.7z M770.7,653.1v7h0.7v-7H770.7z M769.4,653.1v7h0.7v-7H769.4z M768.2,653.1v7h0.7v-7
		H768.2z M766.9,653.1v7h0.7v-7H766.9z M765.6,653.1v7h0.7v-7H765.6z M764.4,653.1v7h0.7v-7H764.4z M770.7,643.4v7h0.7v-7H770.7z
		 M769.4,643.4v7h0.7v-7H769.4z M768.2,643.4v7h0.7v-7H768.2z M766.9,643.4v7h0.7v-7H766.9z M765.6,643.4v7h0.7v-7H765.6z
		 M764.4,643.4v7h0.7v-7H764.4z M780.4,653.1v7h0.7v-7H780.4z M779.1,653.1v7h0.7v-7H779.1z M777.9,653.1v7h0.7v-7H777.9z
		 M776.6,653.1v7h0.7v-7H776.6z M775.3,653.1v7h0.7v-7H775.3z M774.1,653.1v7h0.7v-7H774.1z M780.4,643.4v7h0.7v-7H780.4z
		 M779.1,643.4v7h0.7v-7H779.1z M777.9,643.4v7h0.7v-7H777.9z M776.6,643.4v7h0.7v-7H776.6z M775.3,643.4v7h0.7v-7H775.3z
		 M774.1,643.4v7h0.7v-7H774.1z M790.1,653.1v7h0.7v-7H790.1z M788.8,653.1v7h0.7v-7H788.8z M787.5,653.1v7h0.7v-7H787.5z
		 M786.3,653.1v7h0.7v-7H786.3z M785,653.1v7h0.7v-7H785z M783.7,653.1v7h0.7v-7H783.7z M790.1,643.4v7h0.7v-7H790.1z M788.8,643.4
		v7h0.7v-7H788.8z M787.5,643.4v7h0.7v-7H787.5z M786.3,643.4v7h0.7v-7H786.3z M785,643.4v7h0.7v-7H785z M783.7,643.4v7h0.7v-7
		H783.7z M754.7,653.1v7h0.7v-7H754.7z M756,653.1v7h0.7v-7H756z M757.2,653.1v7h0.7v-7H757.2z M758.5,653.1v7h0.7v-7H758.5z
		 M759.8,653.1v7h0.7v-7H759.8z M761,653.1v7h0.7v-7H761z M764.4,643.4v7h0.7v-7H764.4z M764.4,653.1v7h0.7v-7H764.4z M765.6,643.4
		v7h0.7v-7H765.6z M765.6,653.1v7h0.7v-7H765.6z M766.9,643.4v7h0.7v-7H766.9z M766.9,653.1v7h0.7v-7H766.9z M768.2,643.4v7h0.7v-7
		H768.2z M768.2,653.1v7h0.7v-7H768.2z M769.4,643.4v7h0.7v-7H769.4z M769.4,653.1v7h0.7v-7H769.4z M770.7,643.4v7h0.7v-7H770.7z
		 M770.7,653.1v7h0.7v-7H770.7z M774.1,643.4v7h0.7v-7H774.1z M774.1,653.1v7h0.7v-7H774.1z M775.3,643.4v7h0.7v-7H775.3z
		 M775.3,653.1v7h0.7v-7H775.3z M776.6,643.4v7h0.7v-7H776.6z M776.6,653.1v7h0.7v-7H776.6z M777.9,643.4v7h0.7v-7H777.9z
		 M777.9,653.1v7h0.7v-7H777.9z M779.1,643.4v7h0.7v-7H779.1z M779.1,653.1v7h0.7v-7H779.1z M780.4,643.4v7h0.7v-7H780.4z
		 M780.4,653.1v7h0.7v-7H780.4z M783.7,643.4v7h0.7v-7H783.7z M783.7,653.1v7h0.7v-7H783.7z M785,643.4v7h0.7v-7H785z M785,653.1v7
		h0.7v-7H785z M786.3,643.4v7h0.7v-7H786.3z M786.3,653.1v7h0.7v-7H786.3z M787.5,643.4v7h0.7v-7H787.5z M787.5,653.1v7h0.7v-7
		H787.5z M788.8,643.4v7h0.7v-7H788.8z M788.8,653.1v7h0.7v-7H788.8z M790.1,643.4v7h0.7v-7H790.1z M790.1,653.1v7h0.7v-7H790.1z
		 M761,653.1v7h0.7v-7H761z M759.8,660.1h0.7v-7h-0.7V660.1z M758.5,660.1h0.7v-7h-0.7V660.1z M757.2,660.1h0.7v-7h-0.7V660.1z
		 M756,660.1h0.7v-7H756V660.1z M754.7,660.1h0.7v-7h-0.7V660.1z M770.7,653.1v7h0.7v-7H770.7z M769.4,660.1h0.7v-7h-0.7V660.1z
		 M768.2,660.1h0.7v-7h-0.7V660.1z M766.9,660.1h0.7v-7h-0.7V660.1z M765.6,660.1h0.7v-7h-0.7V660.1z M764.4,660.1h0.7v-7h-0.7
		V660.1z M770.7,643.4v7h0.7v-7H770.7z M769.4,650.4h0.7v-7h-0.7V650.4z M768.2,650.4h0.7v-7h-0.7V650.4z M766.9,650.4h0.7v-7h-0.7
		V650.4z M765.6,650.4h0.7v-7h-0.7V650.4z M764.4,650.4h0.7v-7h-0.7V650.4z M780.4,653.1v7h0.7v-7H780.4z M779.1,660.1h0.7v-7h-0.7
		V660.1z M777.9,660.1h0.7v-7h-0.7V660.1z M776.6,660.1h0.7v-7h-0.7V660.1z M775.3,660.1h0.7v-7h-0.7V660.1z M774.1,660.1h0.7v-7
		h-0.7V660.1z M780.4,643.4v7h0.7v-7H780.4z M779.1,650.4h0.7v-7h-0.7V650.4z M777.9,650.4h0.7v-7h-0.7V650.4z M776.6,650.4h0.7v-7
		h-0.7V650.4z M775.3,650.4h0.7v-7h-0.7V650.4z M774.1,650.4h0.7v-7h-0.7V650.4z M790.1,653.1v7h0.7v-7H790.1z M788.8,660.1h0.7v-7
		h-0.7V660.1z M787.5,660.1h0.7v-7h-0.7V660.1z M786.3,660.1h0.7v-7h-0.7V660.1z M785,660.1h0.7v-7H785V660.1z M783.7,660.1h0.7v-7
		h-0.7V660.1z M790.1,643.4v7h0.7v-7H790.1z M788.8,650.4h0.7v-7h-0.7V650.4z M787.5,650.4h0.7v-7h-0.7V650.4z M786.3,650.4h0.7v-7
		h-0.7V650.4z M785,650.4h0.7v-7H785V650.4z M783.7,650.4h0.7v-7h-0.7V650.4z M837.3,653.1c-3.2-1.9-7.6-2.1-11.2-1
		c-0.5-3.9-3-7.3-6.1-9.8l-1.2-1l-1,1.2c-2,2.4-2.7,6.3-2.4,9.3c0.2,2.2,0.9,4.5,2.3,6.3c-1,0.6-2.2,1.1-3.3,1.5
		c-2.1,0.7-4.5,1.1-6.7,1.1h-4.9v-9.9H793v-17.7h-1.6v8.4H783v-8.4h-1.6v8.1H762v9.7h-9.7v9.9H744l-0.1,1.5
		c-0.5,4.9,0.2,9.8,2.2,14.2l0.9,1.8l0.1,0.2c0.3,0.6,0.7,1.1,1,1.6l0,0l2.1,0.3c2.6,0.2,4.9,0.2,7.1,0.2l0,0
		c4.2-0.1,7.7-0.6,10.3-1.5c0.4-0.1,0.8,0.1,0.9,0.5c0.1,0.4-0.1,0.8-0.5,0.9c-0.3,0.1-0.7,0.2-1.1,0.3l0,0c-0.1,0-0.3,0.1-0.4,0.1
		l0,0l0,0h-0.1c-0.1,0-0.1,0-0.2,0l0,0l0,0l0,0h-0.1H766h-0.1h-0.1h-0.1h-0.1l0,0c-0.1,0-0.2,0-0.3,0.1c-1.6,0.3-3.3,0.6-5.3,0.7
		l0,0l0,0l0,0l0,0c-0.1,0-0.2,0-0.2,0l0,0c-0.7,0-1.4,0.1-2.1,0.1c-0.5,0-1,0-1.5,0c-1.3,0-2.7,0-4.2-0.1l-2.2-0.1
		c6.2,7.7,15.5,11,25.5,11c22.1,0,40.4-9.9,48.7-30.8c5.6,0.3,11.3-1.4,14.1-6.7l0.7-1.4L837.3,653.1z M771.6,679
		c-1.3,0-2.3-1-2.3-2.3s1-2.3,2.3-2.3s2.3,1,2.3,2.3C773.9,678,772.8,679,771.6,679z M792.7,652.4h8.4v8.4h-8.4V652.4z M783,642.7
		h8.4v8.4H783V642.7z M783,652.4h8.4v8.4H783V652.4z M773.4,642.7h8.4v8.4h-8.4V642.7z M773.4,652.4h8.4v8.4h-8.4V652.4z
		 M763.7,642.7h8.4v8.4h-8.4V642.7z M763.7,652.4h8.4v8.4h-8.4V652.4z M754,652.4h8.4v8.4H754V652.4z M790.1,660.1h0.7v-7h-0.7
		V660.1z M790.1,650.4h0.7v-7h-0.7V650.4z M788.8,660.1h0.7v-7h-0.7V660.1z M788.8,650.4h0.7v-7h-0.7V650.4z M787.5,660.1h0.7v-7
		h-0.7V660.1z M787.5,650.4h0.7v-7h-0.7V650.4z M786.3,660.1h0.7v-7h-0.7V660.1z M786.3,650.4h0.7v-7h-0.7V650.4z M785,660.1h0.7v-7
		H785V660.1z M785,650.4h0.7v-7H785V650.4z M783.7,660.1h0.7v-7h-0.7V660.1z M783.7,650.4h0.7v-7h-0.7V650.4z M780.4,660.1h0.7v-7
		h-0.7V660.1z M780.4,650.4h0.7v-7h-0.7V650.4z M779.1,660.1h0.7v-7h-0.7V660.1z M779.1,650.4h0.7v-7h-0.7V650.4z M777.9,660.1h0.7
		v-7h-0.7V660.1z M777.9,650.4h0.7v-7h-0.7V650.4z M776.6,660.1h0.7v-7h-0.7V660.1z M776.6,650.4h0.7v-7h-0.7V650.4z M775.3,660.1
		h0.7v-7h-0.7V660.1z M775.3,650.4h0.7v-7h-0.7V650.4z M774.1,660.1h0.7v-7h-0.7V660.1z M774.1,650.4h0.7v-7h-0.7V650.4z
		 M770.7,660.1h0.7v-7h-0.7V660.1z M770.7,650.4h0.7v-7h-0.7V650.4z M769.4,660.1h0.7v-7h-0.7V660.1z M769.4,650.4h0.7v-7h-0.7
		V650.4z M768.2,660.1h0.7v-7h-0.7V660.1z M768.2,650.4h0.7v-7h-0.7V650.4z M766.9,660.1h0.7v-7h-0.7V660.1z M766.9,650.4h0.7v-7
		h-0.7V650.4z M765.6,660.1h0.7v-7h-0.7V660.1z M765.6,650.4h0.7v-7h-0.7V650.4z M764.4,660.1h0.7v-7h-0.7V660.1z M764.4,650.4h0.7
		v-7h-0.7V650.4z M761,660.1h0.7v-7H761V660.1z M759.8,660.1h0.7v-7h-0.7V660.1z M758.5,660.1h0.7v-7h-0.7V660.1z M757.2,660.1h0.7
		v-7h-0.7V660.1z M756,660.1h0.7v-7H756V660.1z M754.7,660.1h0.7v-7h-0.7V660.1z M783.7,643.4v7h0.7v-7H783.7z M785,643.4v7h0.7v-7
		H785z M786.3,643.4v7h0.7v-7H786.3z M787.5,643.4v7h0.7v-7H787.5z M788.8,643.4v7h0.7v-7H788.8z M790.1,643.4v7h0.7v-7H790.1z
		 M783.7,653.1v7h0.7v-7H783.7z M785,653.1v7h0.7v-7H785z M786.3,653.1v7h0.7v-7H786.3z M787.5,653.1v7h0.7v-7H787.5z M788.8,653.1
		v7h0.7v-7H788.8z M790.1,653.1v7h0.7v-7H790.1z M774.1,643.4v7h0.7v-7H774.1z M775.3,643.4v7h0.7v-7H775.3z M776.6,643.4v7h0.7v-7
		H776.6z M777.9,643.4v7h0.7v-7H777.9z M779.1,643.4v7h0.7v-7H779.1z M780.4,643.4v7h0.7v-7H780.4z M774.1,653.1v7h0.7v-7H774.1z
		 M775.3,653.1v7h0.7v-7H775.3z M776.6,653.1v7h0.7v-7H776.6z M777.9,653.1v7h0.7v-7H777.9z M779.1,653.1v7h0.7v-7H779.1z
		 M780.4,653.1v7h0.7v-7H780.4z M764.4,643.4v7h0.7v-7H764.4z M765.6,643.4v7h0.7v-7H765.6z M766.9,643.4v7h0.7v-7H766.9z
		 M768.2,643.4v7h0.7v-7H768.2z M769.4,643.4v7h0.7v-7H769.4z M770.7,643.4v7h0.7v-7H770.7z M764.4,653.1v7h0.7v-7H764.4z
		 M765.6,653.1v7h0.7v-7H765.6z M766.9,653.1v7h0.7v-7H766.9z M768.2,653.1v7h0.7v-7H768.2z M769.4,653.1v7h0.7v-7H769.4z
		 M770.7,653.1v7h0.7v-7H770.7z M754.7,653.1v7h0.7v-7H754.7z M756,653.1v7h0.7v-7H756z M757.2,653.1v7h0.7v-7H757.2z M758.5,653.1
		v7h0.7v-7H758.5z M759.8,653.1v7h0.7v-7H759.8z M761,653.1v7h0.7v-7H761z M790.1,653.1v7h0.7v-7H790.1z M790.1,643.4v7h0.7v-7
		H790.1z M790.1,633.7v7h0.7v-7H790.1z M788.8,653.1v7h0.7v-7H788.8z M788.8,643.4v7h0.7v-7H788.8z M788.8,633.7v7h0.7v-7H788.8z
		 M787.5,653.1v7h0.7v-7H787.5z M787.5,643.4v7h0.7v-7H787.5z M787.5,633.7v7h0.7v-7H787.5z M786.3,653.1v7h0.7v-7H786.3z
		 M786.3,643.4v7h0.7v-7H786.3z M786.3,633.7v7h0.7v-7H786.3z M785,653.1v7h0.7v-7H785z M785,643.4v7h0.7v-7H785z M785,633.7v7h0.7
		v-7H785z M783.7,653.1v7h0.7v-7H783.7z M783.7,643.4v7h0.7v-7H783.7z M783.7,633.7v7h0.7v-7H783.7z M780.4,653.1v7h0.7v-7H780.4z
		 M780.4,643.4v7h0.7v-7H780.4z M779.1,653.1v7h0.7v-7H779.1z M779.1,643.4v7h0.7v-7H779.1z M777.9,653.1v7h0.7v-7H777.9z
		 M777.9,643.4v7h0.7v-7H777.9z M776.6,653.1v7h0.7v-7H776.6z M776.6,643.4v7h0.7v-7H776.6z M775.3,653.1v7h0.7v-7H775.3z
		 M775.3,643.4v7h0.7v-7H775.3z M774.1,653.1v7h0.7v-7H774.1z M774.1,643.4v7h0.7v-7H774.1z M770.7,653.1v7h0.7v-7H770.7z
		 M770.7,643.4v7h0.7v-7H770.7z M769.4,653.1v7h0.7v-7H769.4z M769.4,643.4v7h0.7v-7H769.4z M768.2,653.1v7h0.7v-7H768.2z
		 M768.2,643.4v7h0.7v-7H768.2z M766.9,653.1v7h0.7v-7H766.9z M766.9,643.4v7h0.7v-7H766.9z M765.6,653.1v7h0.7v-7H765.6z
		 M765.6,643.4v7h0.7v-7H765.6z M764.4,653.1v7h0.7v-7H764.4z M764.4,643.4v7h0.7v-7H764.4z M761,653.1v7h0.7v-7H761z M759.8,653.1
		v7h0.7v-7H759.8z M758.5,653.1v7h0.7v-7H758.5z M757.2,653.1v7h0.7v-7H757.2z M756,653.1v7h0.7v-7H756z M754.7,653.1v7h0.7v-7
		H754.7z M783.7,653.1v7h0.7v-7H783.7z M785,653.1v7h0.7v-7H785z M786.3,653.1v7h0.7v-7H786.3z M787.5,653.1v7h0.7v-7H787.5z
		 M788.8,653.1v7h0.7v-7H788.8z M790.1,653.1v7h0.7v-7H790.1z M774.1,643.4v7h0.7v-7H774.1z M775.3,643.4v7h0.7v-7H775.3z
		 M776.6,643.4v7h0.7v-7H776.6z M777.9,643.4v7h0.7v-7H777.9z M779.1,643.4v7h0.7v-7H779.1z M780.4,643.4v7h0.7v-7H780.4z
		 M774.1,653.1v7h0.7v-7H774.1z M775.3,653.1v7h0.7v-7H775.3z M776.6,653.1v7h0.7v-7H776.6z M777.9,653.1v7h0.7v-7H777.9z
		 M779.1,653.1v7h0.7v-7H779.1z M780.4,653.1v7h0.7v-7H780.4z M764.4,643.4v7h0.7v-7H764.4z M765.6,643.4v7h0.7v-7H765.6z
		 M766.9,643.4v7h0.7v-7H766.9z M768.2,643.4v7h0.7v-7H768.2z M769.4,643.4v7h0.7v-7H769.4z M770.7,643.4v7h0.7v-7H770.7z
		 M764.4,653.1v7h0.7v-7H764.4z M765.6,653.1v7h0.7v-7H765.6z M766.9,653.1v7h0.7v-7H766.9z M768.2,653.1v7h0.7v-7H768.2z
		 M769.4,653.1v7h0.7v-7H769.4z M770.7,653.1v7h0.7v-7H770.7z M754.7,653.1v7h0.7v-7H754.7z M756,653.1v7h0.7v-7H756z M757.2,653.1
		v7h0.7v-7H757.2z M758.5,653.1v7h0.7v-7H758.5z M759.8,653.1v7h0.7v-7H759.8z M761,653.1v7h0.7v-7H761z M790.1,653.1v7h0.7v-7
		H790.1z M788.8,653.1v7h0.7v-7H788.8z M787.5,653.1v7h0.7v-7H787.5z M786.3,653.1v7h0.7v-7H786.3z M785,653.1v7h0.7v-7H785z
		 M783.7,653.1v7h0.7v-7H783.7z M780.4,653.1v7h0.7v-7H780.4z M780.4,643.4v7h0.7v-7H780.4z M779.1,653.1v7h0.7v-7H779.1z
		 M779.1,643.4v7h0.7v-7H779.1z M777.9,653.1v7h0.7v-7H777.9z M777.9,643.4v7h0.7v-7H777.9z M776.6,653.1v7h0.7v-7H776.6z
		 M776.6,643.4v7h0.7v-7H776.6z M775.3,653.1v7h0.7v-7H775.3z M775.3,643.4v7h0.7v-7H775.3z M774.1,653.1v7h0.7v-7H774.1z
		 M774.1,643.4v7h0.7v-7H774.1z M770.7,653.1v7h0.7v-7H770.7z M770.7,643.4v7h0.7v-7H770.7z M769.4,653.1v7h0.7v-7H769.4z
		 M769.4,643.4v7h0.7v-7H769.4z M768.2,653.1v7h0.7v-7H768.2z M768.2,643.4v7h0.7v-7H768.2z M766.9,653.1v7h0.7v-7H766.9z
		 M766.9,643.4v7h0.7v-7H766.9z M765.6,653.1v7h0.7v-7H765.6z M765.6,643.4v7h0.7v-7H765.6z M764.4,653.1v7h0.7v-7H764.4z
		 M764.4,643.4v7h0.7v-7H764.4z M761,653.1v7h0.7v-7H761z M759.8,653.1v7h0.7v-7H759.8z M758.5,653.1v7h0.7v-7H758.5z M757.2,653.1
		v7h0.7v-7H757.2z M756,653.1v7h0.7v-7H756z M754.7,653.1v7h0.7v-7H754.7z M783.7,653.1v7h0.7v-7H783.7z M785,653.1v7h0.7v-7H785z
		 M786.3,653.1v7h0.7v-7H786.3z M787.5,653.1v7h0.7v-7H787.5z M788.8,653.1v7h0.7v-7H788.8z M790.1,653.1v7h0.7v-7H790.1z
		 M774.1,653.1v7h0.7v-7H774.1z M775.3,653.1v7h0.7v-7H775.3z M776.6,653.1v7h0.7v-7H776.6z M777.9,653.1v7h0.7v-7H777.9z
		 M779.1,653.1v7h0.7v-7H779.1z M780.4,653.1v7h0.7v-7H780.4z M764.4,653.1v7h0.7v-7H764.4z M765.6,653.1v7h0.7v-7H765.6z
		 M766.9,653.1v7h0.7v-7H766.9z M768.2,653.1v7h0.7v-7H768.2z M769.4,653.1v7h0.7v-7H769.4z M770.7,653.1v7h0.7v-7H770.7z
		 M754.7,653.1v7h0.7v-7H754.7z M756,653.1v7h0.7v-7H756z M757.2,653.1v7h0.7v-7H757.2z M758.5,653.1v7h0.7v-7H758.5z M759.8,653.1
		v7h0.7v-7H759.8z M761,653.1v7h0.7v-7H761z M790.1,653.1v7h0.7v-7H790.1z M788.8,653.1v7h0.7v-7H788.8z M787.5,653.1v7h0.7v-7
		H787.5z M786.3,653.1v7h0.7v-7H786.3z M785,653.1v7h0.7v-7H785z M783.7,653.1v7h0.7v-7H783.7z M780.4,653.1v7h0.7v-7H780.4z
		 M779.1,653.1v7h0.7v-7H779.1z M777.9,653.1v7h0.7v-7H777.9z M776.6,653.1v7h0.7v-7H776.6z M775.3,653.1v7h0.7v-7H775.3z
		 M774.1,653.1v7h0.7v-7H774.1z M770.7,653.1v7h0.7v-7H770.7z M769.4,653.1v7h0.7v-7H769.4z M768.2,653.1v7h0.7v-7H768.2z
		 M766.9,653.1v7h0.7v-7H766.9z M765.6,653.1v7h0.7v-7H765.6z M764.4,653.1v7h0.7v-7H764.4z M761,653.1v7h0.7v-7H761z M759.8,653.1
		v7h0.7v-7H759.8z M758.5,653.1v7h0.7v-7H758.5z M757.2,653.1v7h0.7v-7H757.2z M756,653.1v7h0.7v-7H756z M754.7,653.1v7h0.7v-7
		H754.7z M783.7,653.1v7h0.7v-7H783.7z M785,653.1v7h0.7v-7H785z M786.3,653.1v7h0.7v-7H786.3z M787.5,653.1v7h0.7v-7H787.5z
		 M788.8,653.1v7h0.7v-7H788.8z M790.1,653.1v7h0.7v-7H790.1z M774.1,653.1v7h0.7v-7H774.1z M775.3,653.1v7h0.7v-7H775.3z
		 M776.6,653.1v7h0.7v-7H776.6z M777.9,653.1v7h0.7v-7H777.9z M779.1,653.1v7h0.7v-7H779.1z M780.4,653.1v7h0.7v-7H780.4z
		 M790.1,653.1v7h0.7v-7H790.1z M788.8,653.1v7h0.7v-7H788.8z M787.5,653.1v7h0.7v-7H787.5z M786.3,653.1v7h0.7v-7H786.3z
		 M785,653.1v7h0.7v-7H785z M783.7,653.1v7h0.7v-7H783.7z M780.4,653.1v7h0.7v-7H780.4z M779.1,653.1v7h0.7v-7H779.1z M777.9,653.1
		v7h0.7v-7H777.9z M776.6,653.1v7h0.7v-7H776.6z M775.3,653.1v7h0.7v-7H775.3z M774.1,653.1v7h0.7v-7H774.1z"/>
	<g>
		<rect x="790.1" y="643.4" fill="#445464" width="0.7" height="7"/>
		<rect x="783.7" y="653.1" fill="#445464" width="0.7" height="7"/>
		<rect x="787.5" y="643.4" fill="#445464" width="0.7" height="7"/>
		<rect x="788.8" y="643.4" fill="#445464" width="0.7" height="7"/>
		<rect x="785" y="653.1" fill="#445464" width="0.7" height="7"/>
		<rect x="788.8" y="653.1" fill="#445464" width="0.7" height="7"/>
		<rect x="774.1" y="643.4" fill="#445464" width="0.7" height="7"/>
		<rect x="790.1" y="653.1" fill="#445464" width="0.7" height="7"/>
		<rect x="787.5" y="653.1" fill="#445464" width="0.7" height="7"/>
		<rect x="786.3" y="653.1" fill="#445464" width="0.7" height="7"/>
		<rect x="785" y="643.4" fill="#445464" width="0.7" height="7"/>
		<rect x="798.5" y="653.1" fill="#445464" width="0.7" height="7"/>
		<rect x="799.8" y="653.1" fill="#445464" width="0.7" height="7"/>
		<rect x="797.2" y="653.1" fill="#445464" width="0.7" height="7"/>
		<rect x="793.4" y="653.1" fill="#445464" width="0.7" height="7"/>
		<rect x="783.7" y="633.7" fill="#445464" width="0.7" height="7"/>
		<rect x="795.9" y="653.1" fill="#445464" width="0.7" height="7"/>
		<rect x="794.7" y="653.1" fill="#445464" width="0.7" height="7"/>
		<rect x="785" y="633.7" fill="#445464" width="0.7" height="7"/>
		<rect x="783.7" y="643.4" fill="#445464" width="0.7" height="7"/>
		<rect x="775.3" y="643.4" fill="#445464" width="0.7" height="7"/>
		<rect x="786.3" y="643.4" fill="#445464" width="0.7" height="7"/>
		<rect x="790.1" y="633.7" fill="#445464" width="0.7" height="7"/>
		<rect x="788.8" y="633.7" fill="#445464" width="0.7" height="7"/>
		<rect x="786.3" y="633.7" fill="#445464" width="0.7" height="7"/>
		<rect x="787.5" y="633.7" fill="#445464" width="0.7" height="7"/>
		<rect x="780.4" y="643.4" fill="#445464" width="0.7" height="7"/>
		<rect x="769.4" y="653.1" fill="#445464" width="0.7" height="7"/>
		<rect x="768.2" y="653.1" fill="#445464" width="0.7" height="7"/>
		<rect x="770.7" y="643.4" fill="#445464" width="0.7" height="7"/>
		<rect x="764.4" y="653.1" fill="#445464" width="0.7" height="7"/>
		<rect x="766.9" y="653.1" fill="#445464" width="0.7" height="7"/>
		<rect x="754.7" y="653.1" fill="#445464" width="0.7" height="7"/>
		<rect x="765.6" y="653.1" fill="#445464" width="0.7" height="7"/>
		<rect x="770.7" y="653.1" fill="#445464" width="0.7" height="7"/>
		<rect x="759.8" y="653.1" fill="#445464" width="0.7" height="7"/>
		<rect x="761" y="653.1" fill="#445464" width="0.7" height="7"/>
		<path fill="#445464" d="M837.3,653.1c-3.2-1.9-7.6-2.1-11.2-1c-0.5-3.9-3-7.3-6.1-9.8l-1.2-1l-1,1.2c-2,2.4-2.7,6.3-2.4,9.3
			c0.2,2.2,0.9,4.5,2.3,6.3c-1,0.6-2.2,1.1-3.3,1.5c-2.1,0.7-4.5,1.1-6.7,1.1h-4.9v-9.9H793v-19.4h-11.6v9.7H762v9.7h-9.7v9.9H744
			l-0.1,1.5c-0.5,4.9,0.2,9.8,2.2,14.2l0.9,1.8l0.1,0.2c0.3,0.6,0.7,1.1,1,1.6l0,0l2.1,0.3c-0.5-0.7-1-1.4-1.5-2.2l-0.7-1.3
			c-0.1-0.2-0.2-0.3-0.2-0.5c-0.2-0.4-0.4-0.8-0.6-1.2c0-0.1-0.1-0.2-0.1-0.3c-0.1-0.3-0.2-0.6-0.3-0.8s-0.1-0.3-0.2-0.5v-0.1
			c0-0.1-0.1-0.3-0.1-0.4c0-0.1-0.1-0.3-0.1-0.4c0-0.1,0-0.1-0.1-0.2c-0.1-0.4-0.2-0.9-0.3-1.4c0-0.2-0.1-0.3-0.1-0.5
			c0-0.1,0-0.2-0.1-0.3c0-0.1,0-0.2-0.1-0.3c0-0.2-0.1-0.3-0.1-0.5s-0.1-0.4-0.1-0.5c-0.3-2.1-0.3-4.2-0.1-6.5h62
			c5.1,0,10.1-1.9,12.4-4c-4.2-3.4-3.8-11.6-1.1-14.7c2.3,1.9,6.1,5.8,5.5,10.9c0.1,0,0.1-0.1,0.2-0.1c0.1,0,0.1-0.1,0.2-0.1l0,0
			c3-1.4,7.8-1.9,11.7,0.3c-2.5,4.9-8,6.3-13.7,5.7c-1.3,3.4-2.8,6.4-4.5,9.2c-0.3,0.5-0.6,0.9-0.9,1.4l0,0
			c-0.2,0.2-0.3,0.5-0.5,0.7c-0.1,0.2-0.3,0.4-0.4,0.6c0,0,0,0.1-0.1,0.1c-0.1,0.2-0.3,0.4-0.5,0.6c-0.2,0.2-0.3,0.4-0.5,0.6
			c-0.3,0.4-0.7,0.8-1,1.2c-0.1,0.2-0.3,0.3-0.4,0.5l-0.1,0.1c-0.1,0.2-0.3,0.3-0.4,0.5l-0.1,0.1c-0.2,0.2-0.3,0.4-0.5,0.5
			c-0.2,0.2-0.3,0.3-0.5,0.5c-0.1,0.1-0.1,0.1-0.2,0.2c-0.1,0.2-0.3,0.3-0.5,0.5s-0.4,0.4-0.6,0.5c-0.4,0.3-0.7,0.7-1.1,1
			c0,0-0.1,0-0.1,0.1c-0.1,0.1-0.3,0.2-0.4,0.4c-0.1,0.1-0.1,0.1-0.2,0.2c-0.2,0.1-0.3,0.3-0.5,0.4l0,0c-0.2,0.1-0.3,0.3-0.5,0.4
			c-0.1,0.1-0.2,0.1-0.3,0.2c-0.1,0.1-0.3,0.2-0.4,0.3c-0.6,0.5-1.3,0.9-1.9,1.4c-0.2,0.1-0.4,0.3-0.6,0.4c0,0-0.1,0-0.1,0.1
			c-0.2,0.1-0.4,0.3-0.6,0.4c-0.2,0.1-0.4,0.2-0.6,0.4c-0.7,0.4-1.4,0.8-2.1,1.2c-0.2,0.1-0.4,0.2-0.6,0.3h-0.1
			c-0.2,0.1-0.4,0.2-0.5,0.3c-0.1,0-0.1,0.1-0.2,0.1c-0.2,0.1-0.4,0.2-0.6,0.3c0,0-0.1,0-0.1,0.1c-0.2,0.1-0.4,0.2-0.6,0.3
			c-0.2,0.1-0.5,0.2-0.7,0.3c-0.5,0.2-1,0.4-1.4,0.6c-0.2,0.1-0.5,0.2-0.7,0.3s-0.4,0.2-0.6,0.2h-0.1c-0.2,0.1-0.5,0.2-0.7,0.2l0,0
			c-0.2,0.1-0.4,0.1-0.6,0.2c-0.1,0-0.2,0-0.2,0.1c-0.2,0.1-0.4,0.1-0.6,0.2c-0.6,0.2-1.2,0.3-1.7,0.5c-0.2,0.1-0.5,0.1-0.7,0.2
			c-0.2,0.1-0.4,0.1-0.7,0.2c-0.2,0.1-0.4,0.1-0.7,0.2c-0.2,0-0.4,0.1-0.7,0.1c-0.3,0.1-0.5,0.1-0.8,0.2c-0.7,0.1-1.4,0.3-2.1,0.4
			c-0.2,0-0.4,0.1-0.7,0.1c-0.1,0-0.2,0-0.3,0c-0.2,0-0.4,0.1-0.6,0.1c-0.1,0-0.2,0-0.4,0s-0.5,0.1-0.7,0.1H783
			c-0.3,0-0.6,0.1-0.9,0.1c-0.2,0-0.5,0-0.7,0.1c-0.4,0-0.7,0.1-1.1,0.1c-0.3,0-0.6,0-0.8,0.1c-0.2,0-0.4,0-0.6,0
			c-0.2,0-0.4,0-0.6,0c0,0,0,0-0.1,0c-0.2,0-0.5,0-0.7,0c-0.1,0-0.3,0-0.4,0c-0.2,0-0.3,0-0.5,0h-0.1c-0.1,0-0.2,0-0.2,0h-0.1h-0.1
			c-0.3,0-0.5,0-0.8,0c-1.1,0-2.2,0-3.2-0.1c-0.1,0-0.3,0-0.4,0h-0.1l0,0c-0.6-0.1-1.3-0.1-1.9-0.2c-0.2,0-0.5-0.1-0.7-0.1
			c-0.4-0.1-0.9-0.1-1.3-0.2c-0.3-0.1-0.5-0.1-0.8-0.2c-0.6-0.1-1.1-0.3-1.7-0.4c-0.3-0.1-0.5-0.1-0.8-0.2c-0.3-0.1-0.5-0.2-0.8-0.3
			s-0.5-0.2-0.7-0.3l0,0c-0.1,0-0.3-0.1-0.4-0.2c-0.3-0.1-0.5-0.2-0.8-0.3c-0.1-0.1-0.3-0.1-0.4-0.2c-3.7-1.6-6.8-3.8-9.3-6.6l0,0
			l-2.2-0.1c6.2,7.7,15.5,11,25.5,11c22.1,0,40.4-9.9,48.7-30.8c5.6,0.3,11.3-1.4,14.1-6.7l0.7-1.4L837.3,653.1z M762.4,660.8H754
			v-8.4h8.4V660.8z M772.1,660.8h-8.4v-8.4h8.4V660.8z M772.1,651.1h-8.4v-8.4h8.4V651.1z M781.8,660.8h-8.4v-8.4h8.4V660.8z
			 M781.8,651.1h-8.4v-8.4h8.4V651.1z M791.4,660.8H783v-8.4h8.4V660.8z M791.4,651.1H783v-8.4h8.4V651.1z M791.4,641.4H783V633h8.4
			V641.4z M801.1,660.8h-8.4v-8.4h8.4V660.8z"/>
		<rect x="756" y="653.1" fill="#445464" width="0.7" height="7"/>
		<rect x="758.5" y="653.1" fill="#445464" width="0.7" height="7"/>
		<rect x="757.2" y="653.1" fill="#445464" width="0.7" height="7"/>
		<rect x="774.1" y="653.1" fill="#445464" width="0.7" height="7"/>
		<rect x="775.3" y="653.1" fill="#445464" width="0.7" height="7"/>
		<rect x="776.6" y="653.1" fill="#445464" width="0.7" height="7"/>
		<rect x="776.6" y="643.4" fill="#445464" width="0.7" height="7"/>
		<rect x="779.1" y="643.4" fill="#445464" width="0.7" height="7"/>
		<rect x="777.9" y="643.4" fill="#445464" width="0.7" height="7"/>
		<rect x="777.9" y="653.1" fill="#445464" width="0.7" height="7"/>
		<rect x="780.4" y="653.1" fill="#445464" width="0.7" height="7"/>
		<rect x="766.9" y="643.4" fill="#445464" width="0.7" height="7"/>
		<rect x="779.1" y="653.1" fill="#445464" width="0.7" height="7"/>
		<rect x="765.6" y="643.4" fill="#445464" width="0.7" height="7"/>
		<rect x="769.4" y="643.4" fill="#445464" width="0.7" height="7"/>
		<rect x="764.4" y="643.4" fill="#445464" width="0.7" height="7"/>
		<rect x="768.2" y="643.4" fill="#445464" width="0.7" height="7"/>
	</g>
	<polyline fill="#445464" points="748.2,679.9 748.2,679.9 750.3,680.2 	"/>
	<polyline fill="#445464" points="749.5,681.7 749.5,681.7 751.7,681.8 	"/>
</g>
<g>
	<g>
		<rect x="724.5" y="128.5" fill="#FFFFFF" width="133.4" height="133.4"/>
		<g>
			<path fill="#445464" d="M764.9,243.8h2.2v1.1c0.5-0.7,1.2-1.2,2.4-1.2c1.8,0,3.5,1.4,3.5,3.9l0,0c0,2.5-1.7,3.9-3.5,3.9
				c-1.1,0-1.9-0.5-2.4-1.1v3.3h-2.2V243.8z M770.7,247.6L770.7,247.6c0-1.3-0.9-2.1-1.9-2.1s-1.8,0.8-1.8,2.1l0,0
				c0,1.3,0.8,2.1,1.8,2.1S770.7,248.9,770.7,247.6z"/>
			<path fill="#445464" d="M774.5,243.8h2.2v1.5c0.4-1.1,1.1-1.7,2.4-1.7v2.3H779c-1.4,0-2.3,0.9-2.3,2.7v2.8h-2.2V243.8z"/>
			<path fill="#445464" d="M779.8,247.7L779.8,247.7c0-2.2,1.8-4,4.1-4c2.4,0,4.1,1.7,4.1,3.9l0,0c0,2.2-1.8,4-4.1,4
				C781.6,251.6,779.8,249.9,779.8,247.7z M785.9,247.7L785.9,247.7c0-1.1-0.8-2.1-2-2.1s-2,1-2,2.1l0,0c0,1.1,0.8,2.1,2,2.1
				C785.2,249.7,785.9,248.8,785.9,247.7z"/>
			<path fill="#445464" d="M790,245.7h-0.9v-1.8h0.9v-0.5c0-0.8,0.2-1.4,0.6-1.8c0.4-0.4,1-0.6,1.7-0.6s1.1,0.1,1.5,0.2v1.8
				c-0.3-0.1-0.6-0.2-1-0.2c-0.5,0-0.8,0.3-0.8,0.8v0.3h1.7v1.8H792v5.8h-2V245.7z"/>
			<path fill="#445464" d="M795.1,241.1h2.3v1.9h-2.3V241.1z M795.2,243.8h2.2v7.6h-2.2V243.8z"/>
			<path fill="#445464" d="M799.4,241.1h2.2v10.4h-2.2V241.1z"/>
			<path fill="#445464" d="M803.3,247.7L803.3,247.7c0-2.2,1.5-4,3.8-4c2.5,0,3.7,2,3.7,4.1c0,0.2,0,0.4,0,0.6h-5.3
				c0.2,1,0.9,1.5,1.9,1.5c0.7,0,1.2-0.2,1.8-0.8l1.2,1.1c-0.7,0.9-1.7,1.4-3.1,1.4C804.9,251.6,803.3,250,803.3,247.7z M808.6,247
				c-0.1-1-0.7-1.6-1.6-1.6c-0.9,0-1.5,0.6-1.6,1.6H808.6z"/>
			<path fill="#445464" d="M811.7,250.4l0.9-1.4c0.8,0.6,1.7,0.9,2.4,0.9c0.6,0,0.9-0.2,0.9-0.6l0,0c0-0.5-0.7-0.6-1.6-0.9
				c-1.1-0.3-2.3-0.8-2.3-2.3l0,0c0-1.5,1.2-2.4,2.8-2.4c1,0,2,0.3,2.8,0.9l-0.8,1.5c-0.8-0.4-1.5-0.7-2.1-0.7
				c-0.5,0-0.8,0.2-0.8,0.5l0,0c0,0.4,0.7,0.6,1.5,0.9c1.1,0.4,2.3,0.9,2.3,2.3l0,0c0,1.7-1.3,2.5-2.9,2.5
				C813.9,251.6,812.7,251.2,811.7,250.4z"/>
		</g>
	</g>
	<g>
		<path fill="#455565" d="M790.8,231.2c-23.5,0-42.6-19.1-42.6-42.6s19.1-42.6,42.6-42.6s42.6,19.1,42.6,42.6
			C833.4,212.1,814.3,231.2,790.8,231.2L790.8,231.2z M790.8,153.2c-19.5,0-35.4,15.9-35.4,35.4s15.9,35.4,35.4,35.4
			s35.4-15.9,35.4-35.4C826.2,169.1,810.3,153.2,790.8,153.2L790.8,153.2z"/>
		<g>
			<g>
				<g>
					<path fill="#455565" d="M791.8,204.8c-0.5,0-1-0.2-1.4-0.6s-0.6-0.9-0.6-1.5l0.4-7c0-0.5,0.2-0.9,0.6-1.2l20.8-20.8
						c0.7-0.7,2-0.7,2.7,0l6.6,6.6c0.7,0.7,0.7,2,0,2.7l-20.8,20.8c-0.3,0.3-0.8,0.5-1.2,0.6L791.8,204.8
						C791.9,204.8,791.9,204.8,791.8,204.8L791.8,204.8z M794.1,196.8l-0.2,4.1l4.1-0.2l18.9-18.9l-3.9-3.9L794.1,196.8L794.1,196.8
						z"/>
				</g>
				<g>
					<path fill="#455565" d="M815.9,185.7c-0.2,0-0.5-0.1-0.7-0.3l-5.9-5.9c-0.4-0.4-0.4-1,0-1.4s1-0.4,1.4,0l5.9,5.9
						c0.4,0.4,0.4,1,0,1.4C816.4,185.6,816.1,185.7,815.9,185.7L815.9,185.7z"/>
				</g>
				<path fill="#455565" d="M792.9,198c-0.1,0-0.3,0-0.4,0c-0.1,0-0.2,0.1-0.4,0.1l-0.3,4.8l4.6-0.3c0-0.2,0.1-0.4,0.1-0.5
					C796.8,199.8,795.2,198,792.9,198L792.9,198z"/>
			</g>
			<g>
				<g>
					<path fill="#455565" d="M802.9,212.2h-26.7c-2.4,0-4.4-2-4.4-4.4V172c0-1.1,0.9-1.9,1.9-1.9c1.1,0,1.9,0.9,1.9,1.9v35.8
						c0,0.3,0.2,0.5,0.5,0.5h26.7c0.3,0,0.5-0.2,0.5-0.5v-11.3c0-1.1,0.9-1.9,1.9-1.9c1.1,0,1.9,0.9,1.9,1.9v11.3
						C807.3,210.2,805.3,212.2,802.9,212.2L802.9,212.2z"/>
				</g>
				<g>
					<path fill="#455565" d="M805.4,184.6c-1.1,0-1.9-0.9-1.9-1.9v-5.1c0-0.3-0.2-0.5-0.5-0.5c-1.1,0-1.9-0.9-1.9-1.9
						s0.9-1.9,1.9-1.9c2.4,0,4.4,2,4.4,4.4v5.1C807.3,183.7,806.4,184.6,805.4,184.6L805.4,184.6z"/>
				</g>
				<g>
					<path fill="#455565" d="M802.6,177.1h-24.7c-3.3,0-5.9-2.7-5.9-5.9c0-3.3,2.7-5.9,5.9-5.9h27.5c1.1,0,1.9,0.9,1.9,1.9
						c0,1.1-0.9,1.9-1.9,1.9h-27.5c-1.1,0-2.1,0.9-2.1,2.1s0.9,2.1,2.1,2.1h24.7c1.1,0,1.9,0.9,1.9,1.9
						C804.5,176.2,803.6,177.1,802.6,177.1L802.6,177.1z"/>
				</g>
			</g>
			<g>
				<path fill="#455565" d="M792.5,184.1h-11.7c-0.5,0-1-0.4-1-1c0-0.5,0.4-1,1-1h11.7c0.5,0,1,0.4,1,1
					C793.4,183.7,793,184.1,792.5,184.1L792.5,184.1z"/>
			</g>
			<g>
				<path fill="#455565" d="M792.5,189.4h-11.7c-0.5,0-1-0.4-1-1c0-0.5,0.4-1,1-1h11.7c0.5,0,1,0.4,1,1
					C793.4,188.9,793,189.4,792.5,189.4L792.5,189.4z"/>
			</g>
		</g>
	</g>
</g>
<g>
	<g>
		<rect x="784.8" y="368.4" fill="#FFFFFF" width="132.8" height="132.8"/>
		<g>
			<path fill="#445464" d="M818.6,480.4h2.3v1.9h-2.3V480.4z M818.6,483.2h2.1v7.6h-2.1V483.2z"/>
			<path fill="#445464" d="M822.8,483.2h2.1v1.1c0.5-0.6,1.1-1.2,2.2-1.2c1.6,0,2.6,1.1,2.6,2.8v4.9h-2.1v-4.2c0-1-0.5-1.5-1.3-1.5
				s-1.3,0.5-1.3,1.5v4.2h-2.1v-7.6H822.8z"/>
			<path fill="#445464" d="M831,489.7l0.9-1.4c0.8,0.6,1.7,0.9,2.4,0.9c0.6,0,0.9-0.2,0.9-0.6l0,0c0-0.5-0.7-0.6-1.6-0.9
				c-1.1-0.3-2.3-0.8-2.3-2.3l0,0c0-1.5,1.2-2.4,2.8-2.4c1,0,2,0.3,2.8,0.9l-0.8,1.5c-0.7-0.4-1.5-0.7-2-0.7s-0.8,0.2-0.8,0.5l0,0
				c0,0.4,0.7,0.6,1.5,0.9c1.1,0.4,2.3,0.9,2.3,2.2l0,0c0,1.7-1.3,2.4-2.9,2.4C833.2,490.9,832,490.5,831,489.7z"/>
			<path fill="#445464" d="M838.7,483.2h2.1v1.1c0.5-0.7,1.2-1.2,2.4-1.2c1.8,0,3.4,1.4,3.4,3.9l0,0c0,2.5-1.7,3.9-3.4,3.9
				c-1.1,0-1.9-0.5-2.4-1.1v3.2h-2.1V483.2z M844.5,487L844.5,487c0-1.3-0.8-2.1-1.9-2.1s-1.8,0.8-1.8,2.1l0,0
				c0,1.3,0.8,2.1,1.8,2.1S844.5,488.2,844.5,487z"/>
			<path fill="#445464" d="M847.9,487L847.9,487c0-2.2,1.5-4,3.7-4c2.5,0,3.7,2,3.7,4.1c0,0.2,0,0.4,0,0.6H850
				c0.2,1,0.9,1.5,1.9,1.5c0.7,0,1.2-0.2,1.8-0.8l1.2,1.1c-0.7,0.9-1.7,1.4-3.1,1.4C849.6,490.9,847.9,489.3,847.9,487z
				 M853.2,486.3c-0.1-1-0.7-1.6-1.6-1.6c-0.9,0-1.5,0.6-1.6,1.6H853.2z"/>
			<path fill="#445464" d="M856.5,487L856.5,487c0-2.2,1.7-4,4-4c1.4,0,2.3,0.5,3,1.3l-1.3,1.4c-0.5-0.5-1-0.8-1.7-0.8
				c-1.1,0-1.8,0.9-1.8,2.1l0,0c0,1.2,0.7,2.1,1.9,2.1c0.7,0,1.2-0.3,1.7-0.8l1.3,1.3c-0.7,0.8-1.6,1.4-3.1,1.4
				C858.2,490.9,856.5,489.1,856.5,487z"/>
			<path fill="#445464" d="M868.8,487L868.8,487c0-2.2,1.7-4,4-4c1.4,0,2.3,0.5,3,1.3l-1.3,1.4c-0.5-0.5-1-0.8-1.7-0.8
				c-1.1,0-1.8,0.9-1.8,2.1l0,0c0,1.2,0.7,2.1,1.9,2.1c0.7,0,1.2-0.3,1.7-0.8l1.3,1.3c-0.7,0.8-1.6,1.4-3.1,1.4
				C870.5,490.9,868.8,489.1,868.8,487z"/>
			<path fill="#445464" d="M877.4,480.4h2.1v10.3h-2.1V480.4z"/>
			<path fill="#445464" d="M881.6,480.4h2.3v1.9h-2.3V480.4z M881.6,483.2h2.1v7.6h-2.1V483.2z"/>
		</g>
	</g>
	<g>
		<g>
			<g>
				<path fill="#445464" d="M885,464.6h-66.9c-1.7,0-3.1-1.4-3.1-3.1v-66.9c0-1.7,1.4-3.1,3.1-3.1H885c1.7,0,3.1,1.4,3.1,3.1v66.9
					C888.1,463.2,886.7,464.6,885,464.6L885,464.6z M821.2,458.5H882v-60.8h-60.8V458.5L821.2,458.5z"/>
			</g>
			<g>
				<path fill="#445464" d="M883.9,414.1h-64.7c-0.8,0-1.5-0.7-1.5-1.5s0.7-1.5,1.5-1.5h64.7c0.9,0,1.5,0.7,1.5,1.5
					S884.8,414.1,883.9,414.1L883.9,414.1z"/>
			</g>
			<path fill="#445464" d="M829,400.6c-2.1,0-3.9,1.7-3.9,3.9c0,2.1,1.7,3.9,3.9,3.9s3.9-1.7,3.9-3.9S831.2,400.6,829,400.6
				L829,400.6z"/>
			<path fill="#445464" d="M839.5,400.6c-2.1,0-3.9,1.7-3.9,3.9c0,2.1,1.7,3.9,3.9,3.9c2.1,0,3.9-1.7,3.9-3.9
				S841.6,400.6,839.5,400.6L839.5,400.6z"/>
			<path fill="#445464" d="M850,400.6c-2.1,0-3.9,1.7-3.9,3.9c0,2.1,1.7,3.9,3.9,3.9c2.1,0,3.9-1.7,3.9-3.9S852.1,400.6,850,400.6
				L850,400.6z"/>
		</g>
		<g>
			<g>
				<g>
					<path fill="#445464" d="M870,448.9h-19.6c-1.7,0-3.1-1.4-3.1-3.1c0-1.7,1.4-3.1,3.1-3.1H870c1.7,0,3.1,1.4,3.1,3.1
						C873.1,447.6,871.7,448.9,870,448.9L870,448.9z"/>
				</g>
			</g>
			<g>
				<g>
					<path fill="#445464" d="M833.1,448.9c-0.8,0-1.6-0.3-2.2-0.9c-1.2-1.2-1.2-3.1,0-4.3l9-9l-9-9c-1.2-1.2-1.2-3.1,0-4.3
						s3.1-1.2,4.3,0l11.1,11.2c1.2,1.2,1.2,3.1,0,4.3l-11.1,11.2C834.7,448.6,833.9,448.9,833.1,448.9L833.1,448.9z"/>
				</g>
			</g>
		</g>
	</g>
</g>
<g>
	<rect x="1125.2" y="126.7" fill="#455565" width="133.4" height="133.4"/>
	<g>
		<g>
			<g>
				<g>
					<path fill="#FFFFFF" d="M1167.7,241.3h2.4v1.2c0.6-0.7,1.3-1.4,2.5-1.4c1.8,0,2.9,1.2,2.9,3.2v5.6h-2.4v-4.8
						c0-1.2-0.5-1.7-1.5-1.7c-0.9,0-1.5,0.6-1.5,1.7v4.8h-2.4V241.3z"/>
					<path fill="#FFFFFF" d="M1177.3,245.6L1177.3,245.6c0-2.5,2-4.5,4.7-4.5s4.6,2,4.6,4.4l0,0c0,2.5-2,4.5-4.7,4.5
						C1179.2,250,1177.3,248.1,1177.3,245.6z M1184.2,245.6L1184.2,245.6c0-1.3-0.9-2.4-2.3-2.4s-2.2,1.1-2.2,2.3l0,0
						c0,1.3,0.9,2.4,2.3,2.4C1183.3,247.9,1184.2,246.9,1184.2,245.6z"/>
					<path fill="#FFFFFF" d="M1187.9,245.6L1187.9,245.6c0-2.9,1.9-4.5,3.9-4.5c1.3,0,2.1,0.6,2.7,1.3v-4.2h2.4v11.7h-2.4v-1.2
						c-0.6,0.8-1.4,1.4-2.7,1.4C1189.8,250,1187.9,248.4,1187.9,245.6z M1194.5,245.6L1194.5,245.6c0-1.5-0.9-2.4-2.1-2.4
						c-1.1,0-2.1,0.9-2.1,2.4l0,0c0,1.4,1,2.4,2.1,2.4C1193.6,247.9,1194.5,247,1194.5,245.6z"/>
					<path fill="#FFFFFF" d="M1198.7,245.6L1198.7,245.6c0-2.5,1.7-4.5,4.2-4.5c2.9,0,4.2,2.2,4.2,4.7c0,0.2,0,0.4,0,0.6h-6
						c0.2,1.1,1,1.7,2.1,1.7c0.8,0,1.4-0.3,2.1-0.9l1.4,1.2c-0.8,1-2,1.6-3.5,1.6C1200.6,250,1198.7,248.2,1198.7,245.6z
						 M1204.7,244.9c-0.1-1.1-0.8-1.8-1.8-1.8s-1.7,0.7-1.9,1.8H1204.7z"/>
				</g>
			</g>
		</g>
	</g>
</g>
<g>
	<rect x="1125.2" y="296.7" fill="#455565" width="133.4" height="133.4"/>
	<g>
		<g>
			<g>
				<g>
					<path fill="#FFFFFF" d="M1167.7,411.3h2.4v1.2c0.6-0.7,1.3-1.4,2.5-1.4c1.8,0,2.9,1.2,2.9,3.2v5.6h-2.4v-4.8
						c0-1.2-0.5-1.7-1.5-1.7c-0.9,0-1.5,0.6-1.5,1.7v4.8h-2.4V411.3z"/>
					<path fill="#FFFFFF" d="M1177.3,415.6L1177.3,415.6c0-2.5,2-4.5,4.7-4.5s4.6,2,4.6,4.4l0,0c0,2.5-2,4.5-4.7,4.5
						C1179.2,420,1177.3,418.1,1177.3,415.6z M1184.2,415.6L1184.2,415.6c0-1.3-0.9-2.4-2.3-2.4s-2.2,1.1-2.2,2.3l0,0
						c0,1.3,0.9,2.4,2.3,2.4C1183.3,417.9,1184.2,416.9,1184.2,415.6z"/>
					<path fill="#FFFFFF" d="M1187.9,415.6L1187.9,415.6c0-2.9,1.9-4.5,3.9-4.5c1.3,0,2.1,0.6,2.7,1.3v-4.2h2.4v11.7h-2.4v-1.2
						c-0.6,0.8-1.4,1.4-2.7,1.4C1189.8,420,1187.9,418.4,1187.9,415.6z M1194.5,415.6L1194.5,415.6c0-1.5-0.9-2.4-2.1-2.4
						c-1.1,0-2.1,0.9-2.1,2.4l0,0c0,1.4,1,2.4,2.1,2.4C1193.6,417.9,1194.5,417,1194.5,415.6z"/>
					<path fill="#FFFFFF" d="M1198.7,415.6L1198.7,415.6c0-2.5,1.7-4.5,4.2-4.5c2.9,0,4.2,2.2,4.2,4.7c0,0.2,0,0.4,0,0.6h-6
						c0.2,1.1,1,1.7,2.1,1.7c0.8,0,1.4-0.3,2.1-0.9l1.4,1.2c-0.8,1-2,1.6-3.5,1.6C1200.6,420,1198.7,418.2,1198.7,415.6z
						 M1204.7,414.9c-0.1-1.1-0.8-1.8-1.8-1.8s-1.7,0.7-1.9,1.8H1204.7z"/>
				</g>
			</g>
		</g>
	</g>
</g>
<g>
	<rect x="1125.2" y="-43.3" fill="#455565" width="133.4" height="133.4"/>
	<g>
		<g>
			<g>
				<g>
					<path fill="#FFFFFF" d="M1167.7,71.3h2.4v1.2c0.6-0.7,1.3-1.4,2.5-1.4c1.8,0,2.9,1.2,2.9,3.2v5.6h-2.4v-4.8
						c0-1.2-0.5-1.7-1.5-1.7c-0.9,0-1.5,0.6-1.5,1.7v4.8h-2.4V71.3z"/>
					<path fill="#FFFFFF" d="M1177.3,75.6L1177.3,75.6c0-2.5,2-4.5,4.7-4.5s4.6,2,4.6,4.4l0,0c0,2.5-2,4.5-4.7,4.5
						C1179.2,80,1177.3,78.1,1177.3,75.6z M1184.2,75.6L1184.2,75.6c0-1.3-0.9-2.4-2.3-2.4s-2.2,1.1-2.2,2.3l0,0
						c0,1.3,0.9,2.4,2.3,2.4C1183.3,77.9,1184.2,76.9,1184.2,75.6z"/>
					<path fill="#FFFFFF" d="M1187.9,75.6L1187.9,75.6c0-2.9,1.9-4.5,3.9-4.5c1.3,0,2.1,0.6,2.7,1.3v-4.2h2.4v11.7h-2.4v-1.2
						c-0.6,0.8-1.4,1.4-2.7,1.4C1189.8,80,1187.9,78.4,1187.9,75.6z M1194.5,75.6L1194.5,75.6c0-1.5-0.9-2.4-2.1-2.4
						c-1.1,0-2.1,0.9-2.1,2.4l0,0c0,1.4,1,2.4,2.1,2.4C1193.6,77.9,1194.5,77,1194.5,75.6z"/>
					<path fill="#FFFFFF" d="M1198.7,75.6L1198.7,75.6c0-2.5,1.7-4.5,4.2-4.5c2.9,0,4.2,2.2,4.2,4.7c0,0.2,0,0.4,0,0.6h-6
						c0.2,1.1,1,1.7,2.1,1.7c0.8,0,1.4-0.3,2.1-0.9l1.4,1.2c-0.8,1-2,1.6-3.5,1.6C1200.6,80,1198.7,78.2,1198.7,75.6z M1204.7,74.9
						c-0.1-1.1-0.8-1.8-1.8-1.8s-1.7,0.7-1.9,1.8H1204.7z"/>
				</g>
			</g>
		</g>
	</g>
</g>
<g>
	<g>
		<line fill="none" stroke="#80888D" stroke-width="4" stroke-miterlimit="10" x1="873.2" y1="193.7" x2="1100.2" y2="193.7"/>
		<g>
			<polygon fill="#80888D" points="1098.2,201.4 1112,193.4 1098.2,185.4 			"/>
		</g>
	</g>
</g>
<g>
	<g>
		<polyline fill="none" stroke="#80888D" stroke-width="4" stroke-miterlimit="10" points="1101.2,362.7 1070.2,362.7 1070.2,23.7 
			1101.2,23.7 		"/>
		<g>
			<polygon fill="#80888D" points="1098.2,354.9 1112,362.9 1098.2,370.9 			"/>
		</g>
		<g>
			<polygon fill="#80888D" points="1098.2,31.9 1112,23.9 1098.2,15.9 			"/>
		</g>
	</g>
</g>
<polyline fill="none" stroke="#7F888D" stroke-width="4" stroke-miterlimit="10" points="982.1,207.3 982.1,428.6 898.2,428.6 "/>
<g>
	<rect x="919.2" y="179.1" fill="#FFFFFF" width="121" height="28.5"/>
	<g>
		<g>
			<g>
				<path fill="#455565" d="M926,197.2l1.5-1.7c1,0.8,2.1,1.4,3.3,1.4c1,0,1.6-0.4,1.6-1.1l0,0c0-0.6-0.4-0.9-2.3-1.4
					c-2.3-0.6-3.7-1.2-3.7-3.4l0,0c0-2,1.6-3.4,3.9-3.4c1.6,0,3,0.5,4.2,1.4l-1.3,1.9c-1-0.7-2-1.1-2.9-1.1s-1.4,0.4-1.4,1l0,0
					c0,0.7,0.5,1,2.4,1.5c2.3,0.6,3.6,1.4,3.6,3.4l0,0c0,2.2-1.7,3.5-4.1,3.5C929,199,927.3,198.4,926,197.2z"/>
				<path fill="#455565" d="M936.1,197.2l1.5-1.7c1,0.8,2.1,1.4,3.3,1.4c1,0,1.6-0.4,1.6-1.1l0,0c0-0.6-0.4-0.9-2.3-1.4
					c-2.3-0.6-3.7-1.2-3.7-3.4l0,0c0-2,1.6-3.4,3.9-3.4c1.6,0,3,0.5,4.2,1.4l-1.3,1.9c-1-0.7-2-1.1-2.9-1.1s-1.4,0.4-1.4,1l0,0
					c0,0.7,0.5,1,2.4,1.5c2.3,0.6,3.6,1.4,3.6,3.4l0,0c0,2.2-1.7,3.5-4.1,3.5C939.1,199,937.4,198.4,936.1,197.2z"/>
				<path fill="#455565" d="M947.1,187.6h2.5v4.4h4.5v-4.4h2.5v11.2h-2.5v-4.5h-4.5v4.5h-2.5V187.6z"/>
				<path fill="#455565" d="M969.3,186h2.1l-7.1,14.8h-2.1L969.3,186z"/>
				<path fill="#455565" d="M976.5,187.6h2.6l2.3,7.6l2.5-7.6h2.1l2.5,7.6l2.3-7.6h2.6l-3.8,11.3h-2.1l-2.5-7.3l-2.5,7.3h-2.1
					L976.5,187.6z"/>
				<path fill="#455565" d="M994.8,187.1h2.6v2.2h-2.6V187.1z M994.9,190.2h2.4v8.6h-2.4V190.2z"/>
				<path fill="#455565" d="M999.6,190.2h2.4v1.2c0.6-0.7,1.3-1.4,2.5-1.4c1.8,0,2.9,1.2,2.9,3.2v5.6h-2.4V194
					c0-1.2-0.5-1.7-1.5-1.7c-0.9,0-1.5,0.6-1.5,1.7v4.8h-2.4V190.2z"/>
				<path fill="#455565" d="M1009.8,187.6h5.1c1.4,0,2.5,0.4,3.3,1.1c0.6,0.6,1,1.5,1,2.6l0,0c0,1.8-1,2.9-2.4,3.5l2.7,4h-2.9
					l-2.4-3.6l0,0h-1.9v3.6h-2.5L1009.8,187.6L1009.8,187.6z M1014.8,193c1.2,0,1.9-0.6,1.9-1.6l0,0c0-1.1-0.7-1.6-1.9-1.6h-2.4v3.2
					H1014.8z"/>
				<path fill="#455565" d="M1021.4,187.6h2.7l2.9,4.7l2.9-4.7h2.7v11.2h-2.4v-7.3l-3.2,4.8h-0.1l-3.1-4.7v7.3h-2.4L1021.4,187.6
					L1021.4,187.6z"/>
			</g>
		</g>
	</g>
</g>
<g>
	<g>
		<path fill="#FFFFFF" d="M1226.6,56.7H1158c-1.7,0-3.2-1.4-3.2-3.2v-67.4c0-1.7,1.4-3.2,3.2-3.2h68.6c1.7,0,3.2,1.4,3.2,3.2v67.4
			C1229.7,55.3,1228.3,56.7,1226.6,56.7L1226.6,56.7z M1161.1,50.4h62.3v-61.1h-62.3L1161.1,50.4L1161.1,50.4z"/>
	</g>
	<g>
		<g>
			<path fill="#FFFFFF" d="M1189.7,34.6c-9.7,0-17.6-7.9-17.6-17.6c0-9.7,7.9-17.6,17.6-17.7c9.7,0,17.6,7.9,17.6,17.6
				C1207.3,26.7,1199.4,34.6,1189.7,34.6L1189.7,34.6z M1189.7,2.8c-7.8,0-14.1,6.3-14.1,14.1c0,7.8,6.3,14.1,14.1,14.1
				c7.8,0,14.1-6.3,14.1-14.1C1203.8,9.1,1197.5,2.8,1189.7,2.8L1189.7,2.8z"/>
		</g>
		<g>
			<path fill="#FFFFFF" d="M1179.8,16.9h-1.8c0-6.4,5.2-11.7,11.7-11.7V7C1184.2,7,1179.8,11.4,1179.8,16.9L1179.8,16.9z"/>
		</g>
		<g>
			<path fill="#FFFFFF" d="M1210.7,40.4c-0.5,0-0.9-0.2-1.3-0.5l-9.9-9.9c-0.7-0.7-0.7-1.8,0-2.5s1.8-0.7,2.5,0l9.9,9.9
				c0.7,0.7,0.7,1.8,0,2.5C1211.6,40.2,1211.2,40.4,1210.7,40.4L1210.7,40.4z"/>
		</g>
	</g>
</g>
<g>
	<g>
		<path fill="#FFFFFF" d="M1226.2,396.2h-68.6c-1.7,0-3.2-1.4-3.2-3.2v-67.4c0-1.7,1.4-3.2,3.2-3.2h68.6c1.7,0,3.2,1.4,3.2,3.2V393
			C1229.4,394.8,1228,396.2,1226.2,396.2L1226.2,396.2z M1160.8,389.9h62.3v-61.1h-62.3V389.9L1160.8,389.9z"/>
	</g>
	<g>
		<g>
			<path fill="#FFFFFF" d="M1189.3,374.1c-9.7,0-17.6-7.9-17.6-17.6c0-9.7,7.9-17.6,17.6-17.7c9.7,0,17.6,7.9,17.6,17.6
				C1207,366.2,1199.1,374.1,1189.3,374.1L1189.3,374.1z M1189.4,342.4c-7.8,0-14.1,6.3-14.1,14.1s6.3,14.1,14.1,14.1
				c7.8,0,14.1-6.3,14.1-14.1S1197.1,342.4,1189.4,342.4L1189.4,342.4z"/>
		</g>
		<g>
			<path fill="#FFFFFF" d="M1179.4,356.5h-1.8c0-6.4,5.2-11.7,11.7-11.7v1.8C1183.9,346.5,1179.4,351,1179.4,356.5L1179.4,356.5z"/>
		</g>
		<g>
			<path fill="#FFFFFF" d="M1210.4,379.9c-0.5,0-0.9-0.2-1.3-0.5l-9.9-9.9c-0.7-0.7-0.7-1.8,0-2.5s1.8-0.7,2.5,0l9.9,9.9
				c0.7,0.7,0.7,1.8,0,2.5C1211.3,379.8,1210.8,379.9,1210.4,379.9L1210.4,379.9z"/>
		</g>
	</g>
</g>
<g>
	<g>
		<path fill="#FFFFFF" d="M1226.2,226.2h-68.6c-1.7,0-3.2-1.4-3.2-3.2v-67.4c0-1.7,1.4-3.2,3.2-3.2h68.6c1.7,0,3.2,1.4,3.2,3.2V223
			C1229.4,224.8,1228,226.2,1226.2,226.2L1226.2,226.2z M1160.8,219.9h62.3v-61.1h-62.3V219.9L1160.8,219.9z"/>
	</g>
	<g>
		<g>
			<path fill="#FFFFFF" d="M1189.3,204.1c-9.7,0-17.6-7.9-17.6-17.6s7.9-17.6,17.6-17.7c9.7,0,17.6,7.9,17.6,17.6
				C1207,196.2,1199.1,204.1,1189.3,204.1L1189.3,204.1z M1189.4,172.4c-7.8,0-14.1,6.3-14.1,14.1c0,7.8,6.3,14.1,14.1,14.1
				c7.8,0,14.1-6.3,14.1-14.1S1197.1,172.4,1189.4,172.4L1189.4,172.4z"/>
		</g>
		<g>
			<path fill="#FFFFFF" d="M1179.4,186.5h-1.8c0-6.4,5.2-11.7,11.7-11.7v1.8C1183.9,176.5,1179.4,181,1179.4,186.5L1179.4,186.5z"/>
		</g>
		<g>
			<path fill="#FFFFFF" d="M1210.4,209.9c-0.5,0-0.9-0.2-1.3-0.5l-9.9-9.9c-0.7-0.7-0.7-1.8,0-2.5s1.8-0.7,2.5,0l9.9,9.9
				c0.7,0.7,0.7,1.8,0,2.5C1211.3,209.8,1210.8,209.9,1210.4,209.9L1210.4,209.9z"/>
		</g>
	</g>
</g>
</svg>
