<?xml version="1.0" encoding="utf-8"?>
<!-- Generator: Adobe Illustrator 19.1.0, SVG Export Plug-In . SVG Version: 6.00 Build 0)  -->
<svg version="1.1" id="Layer_1" xmlns="http://www.w3.org/2000/svg" xmlns:xlink="http://www.w3.org/1999/xlink" x="0px" y="0px"
	 viewBox="0 0 1068 531.3" enable-background="new 0 0 1068 531.3" xml:space="preserve">
<rect fill="#7F888D" width="1068" height="531.3"/>
<g>
	<g>
		<g>
			<path fill="#FFFFFF" d="M105.6,110h-68c-1.7,0-3.1-1.4-3.1-3.1V40.1c0-1.7,1.4-3.1,3.1-3.1h68c1.7,0,3.1,1.4,3.1,3.1v66.8
				C108.8,108.6,107.4,110,105.6,110L105.6,110z M40.8,103.8h61.7V43.3H40.8V103.8L40.8,103.8z"/>
		</g>
		<g>
			<g>
				<path fill="#FFFFFF" d="M71.6,91.4c-10,0-18.1-8-18.1-18.1s8-18.1,18.1-18.1s18.1,8,18.1,18.1C89.8,83.4,81.6,91.4,71.6,91.4
					L71.6,91.4z M71.6,61.4c-6.7,0-12.2,5.4-12.2,12.2c0,6.7,5.4,12.2,12.2,12.2c6.7,0,12.2-5.4,12.2-12.2
					C83.7,66.8,78.3,61.4,71.6,61.4L71.6,61.4z"/>
			</g>
			<g>
				<g>
					<path fill="#FFFFFF" d="M60.2,65c-0.8,0-1.5-0.3-2.1-0.8l-4.3-4.3c-1.1-1.1-1.1-3.1,0-4.3c1.1-1.1,3.1-1.1,4.3,0l4.3,4.3
						c1.1,1.1,1.1,3.1,0,4.3C61.9,64.7,61.1,65,60.2,65L60.2,65z"/>
				</g>
				<g>
					<path fill="#FFFFFF" d="M87.2,91.9c-0.8,0-1.5-0.3-2.1-0.8l-4.9-4.9c-1.1-1.1-1.1-3.1,0-4.3s3.1-1.1,4.3,0l4.9,4.9
						c1.1,1.1,1.1,3.1,0,4.3C88.8,91.8,88,91.9,87.2,91.9L87.2,91.9z"/>
				</g>
			</g>
			<g>
				<g>
					<path fill="#FFFFFF" d="M83.1,65c-0.8,0-1.5-0.3-2.1-0.8c-1.1-1.1-1.1-3.1,0-4.3l4.3-4.3c1.1-1.1,3.1-1.1,4.3,0
						c1.1,1.1,1.1,3.1,0,4.3l-4.3,4.3C84.5,64.7,83.7,65,83.1,65L83.1,65z"/>
				</g>
				<g>
					<path fill="#FFFFFF" d="M56.1,91.9c-0.8,0-1.5-0.3-2.1-0.8c-1.1-1.1-1.1-3.1,0-4.3l4.9-4.9c1.1-1.1,3.1-1.1,4.3,0
						c1.1,1.1,1.1,3.1,0,4.3l-4.9,4.9C57.6,91.8,56.8,91.9,56.1,91.9L56.1,91.9z"/>
				</g>
			</g>
			<g>
				<g>
					<path fill="#FFFFFF" d="M71.7,60.4c-1.6,0-3-1.3-3-3v-5.9c0-1.6,1.3-3,3-3c1.6,0,3,1.3,3,3v5.9C74.7,58.9,73.4,60.4,71.7,60.4
						L71.7,60.4z"/>
				</g>
				<g>
					<path fill="#FFFFFF" d="M71.6,98.5L71.6,98.5c-1.6,0-3-1.3-3-3v-7.1c0-1.6,1.3-3,3-3l0,0c1.6,0,3,1.3,3,3v7.1
						C74.7,97,73.4,98.5,71.6,98.5L71.6,98.5z"/>
				</g>
			</g>
			<g>
				<g>
					<path fill="#FFFFFF" d="M93.7,76.3h-5.9c-1.6,0-3-1.3-3-3s1.3-3,3-3h5.9c1.6,0,3,1.3,3,3C96.7,75,95.4,76.3,93.7,76.3
						L93.7,76.3z"/>
				</g>
				<g>
					<path fill="#FFFFFF" d="M56.6,76.3h-7.1c-1.6,0-3-1.3-3-3s1.3-3,3-3h7.1c1.6,0,3,1.3,3,3C59.6,75,58.3,76.3,56.6,76.3
						L56.6,76.3z"/>
				</g>
			</g>
		</g>
	</g>
	<g>
		<g>
			<g>
				<path fill="#FFFFFF" d="M22.3,127.9h2.4v1.2c0.6-0.8,1.4-1.4,2.7-1.4c2,0,3.9,1.6,3.9,4.4v0c0,2.9-1.9,4.4-3.9,4.4
					c-1.3,0-2.1-0.6-2.7-1.3v3.7h-2.4V127.9z M28.9,132.2L28.9,132.2c0-1.5-1-2.4-2.1-2.4c-1.1,0-2.1,0.9-2.1,2.4v0
					c0,1.4,0.9,2.4,2.1,2.4C27.9,134.6,28.9,133.7,28.9,132.2z"/>
				<path fill="#FFFFFF" d="M33.1,127.9h2.4v1.7c0.5-1.2,1.3-2,2.7-1.9v2.5h-0.1c-1.6,0-2.6,1-2.6,3v3.2h-2.4V127.9z"/>
				<path fill="#FFFFFF" d="M39.1,132.3L39.1,132.3c0-2.5,2-4.5,4.7-4.5c2.7,0,4.6,2,4.6,4.4v0c0,2.5-2,4.5-4.7,4.5
					C41.1,136.7,39.1,134.7,39.1,132.3z M46,132.3L46,132.3c0-1.3-0.9-2.4-2.3-2.4c-1.4,0-2.2,1.1-2.2,2.3v0c0,1.3,0.9,2.4,2.3,2.4
					C45.2,134.6,46,133.5,46,132.3z"/>
				<path fill="#FFFFFF" d="M48.9,127.9h2.6l1.9,5.7l1.9-5.7h2.5l-3.4,8.6h-2.2L48.9,127.9z"/>
				<path fill="#FFFFFF" d="M59.3,124.8h2.6v2.2h-2.6V124.8z M59.4,127.9h2.4v8.6h-2.4V127.9z"/>
				<path fill="#FFFFFF" d="M63.5,135.4l1-1.6c0.9,0.7,1.9,1,2.7,1c0.7,0,1-0.3,1-0.6v0c0-0.5-0.8-0.7-1.8-1
					c-1.2-0.4-2.6-0.9-2.6-2.6v0c0-1.7,1.4-2.7,3.1-2.7c1.1,0,2.3,0.4,3.2,1l-0.9,1.7c-0.8-0.5-1.7-0.8-2.3-0.8
					c-0.6,0-0.9,0.3-0.9,0.6v0c0,0.5,0.8,0.7,1.7,1c1.2,0.4,2.6,1,2.6,2.5v0c0,1.9-1.4,2.8-3.3,2.8
					C65.9,136.7,64.6,136.3,63.5,135.4z"/>
				<path fill="#FFFFFF" d="M72.2,124.8h2.6v2.2h-2.6V124.8z M72.3,127.9h2.4v8.6h-2.4V127.9z"/>
				<path fill="#FFFFFF" d="M76.6,132.3L76.6,132.3c0-2.5,2-4.5,4.7-4.5c2.7,0,4.6,2,4.6,4.4v0c0,2.5-2,4.5-4.7,4.5
					C78.5,136.7,76.6,134.7,76.6,132.3z M83.5,132.3L83.5,132.3c0-1.3-0.9-2.4-2.3-2.4c-1.4,0-2.2,1.1-2.2,2.3v0
					c0,1.3,0.9,2.4,2.3,2.4C82.6,134.6,83.5,133.5,83.5,132.3z"/>
				<path fill="#FFFFFF" d="M87.6,127.9H90v1.2c0.6-0.7,1.3-1.4,2.5-1.4c1.8,0,2.9,1.2,2.9,3.2v5.6H93v-4.8c0-1.2-0.5-1.7-1.5-1.7
					s-1.5,0.6-1.5,1.7v4.8h-2.4V127.9z"/>
				<path fill="#FFFFFF" d="M97.6,124.8h2.6v2.2h-2.6V124.8z M97.7,127.9h2.4v8.6h-2.4V127.9z"/>
				<path fill="#FFFFFF" d="M102.4,127.9h2.4v1.2c0.6-0.7,1.3-1.4,2.5-1.4c1.8,0,2.9,1.2,2.9,3.2v5.6h-2.4v-4.8
					c0-1.2-0.5-1.7-1.5-1.7s-1.5,0.6-1.5,1.7v4.8h-2.4V127.9z"/>
				<path fill="#FFFFFF" d="M112.4,138.2l0.8-1.8c0.9,0.5,1.8,0.8,2.9,0.8c1.7,0,2.4-0.8,2.4-2.3v-0.4c-0.7,0.9-1.5,1.4-2.8,1.4
					c-2,0-3.8-1.5-3.8-4v0c0-2.6,1.8-4,3.8-4c1.3,0,2.1,0.6,2.8,1.3v-1.1h2.4v6.6c0,1.5-0.4,2.7-1.1,3.4c-0.8,0.8-2,1.2-3.7,1.2
					C114.8,139.1,113.5,138.8,112.4,138.2z M118.6,131.8L118.6,131.8c0-1.2-0.9-2-2.1-2c-1.2,0-2.1,0.8-2.1,2v0c0,1.2,0.9,2,2.1,2
					C117.7,133.8,118.6,133,118.6,131.8z"/>
			</g>
		</g>
	</g>
</g>
<rect x="142.5" y="21.5" fill="#FFFFFF" width="905.5" height="489.8"/>
<polygon fill="#FCB716" fill-opacity="0.35" points="367.3,490 337,457.3 336.7,457.3 336.7,349.2 337,349.2 367.3,316.5 "/>
<rect x="367.3" y="316.5" fill="#FCB716" fill-opacity="0.35" width="512.9" height="173.5"/>
<rect x="894.6" y="41.5" fill="#6CB2E2" width="133.4" height="133.4"/>
<g>
	<g>
		<path fill="#FFFFFF" d="M962.2,114.5c-7.1,0-12.9-5.8-12.9-12.9c0-7.1,5.8-12.9,12.9-12.9c5.8,0,10.8,3.9,12.3,9.3h5
			c-1.7-8-8.8-14.1-17.3-14.1c-9.7,0-17.7,7.9-17.7,17.7c0,9.7,7.9,17.7,17.7,17.7c8.5,0,15.7-6.1,17.3-14.1h-5
			C973,110.6,968.1,114.5,962.2,114.5"/>
		<path fill="#FFFFFF" d="M953.5,110.3c2.2,2.2,5.3,3.6,8.7,3.6v-5.1c-2,0-3.8-0.8-5-2.1L953.5,110.3z"/>
		<path fill="#FFFFFF" d="M949.9,101.6c0,1.8,0.4,3.4,1,4.9l4.7-2.1c-0.4-0.9-0.6-1.8-0.6-2.9c0-3.9,3.2-7.1,7.1-7.1v-5.1
			C955.4,89.4,949.9,94.9,949.9,101.6"/>
		<path fill="#FFFFFF" d="M966.6,90.2l-1.9,4.8c1.5,0.6,2.8,1.7,3.6,3.1h5.5C972.8,94.5,970.1,91.6,966.6,90.2"/>
		<path fill="#FFFFFF" d="M964.8,108.3l1.9,4.8c3.5-1.4,6.2-4.3,7.3-7.9h-5.5C967.6,106.6,966.3,107.7,964.8,108.3"/>
		<path fill="#FFFFFF" d="M939.5,108.5c-0.1-0.3-0.2-0.5-0.2-0.8c0,0,0,0,0,0c-0.1-0.3-0.1-0.5-0.2-0.8c0-0.1,0-0.1,0-0.2
			c0-0.2-0.1-0.4-0.1-0.7c0-0.1,0-0.2-0.1-0.3c0-0.2-0.1-0.4-0.1-0.5c0-0.2,0-0.3-0.1-0.5c-0.1-1-0.2-2.1-0.2-3.1h-4.8
			c0,1.2,0.1,2.3,0.2,3.4h0c0,0,0,0,0,0.1c0,0.3,0.1,0.6,0.1,0.9c0,0.1,0,0.2,0,0.3c0,0.3,0.1,0.5,0.1,0.7c0,0.1,0.1,0.3,0.1,0.4
			c0,0.2,0.1,0.4,0.1,0.6c0,0.2,0.1,0.3,0.1,0.5c0,0.2,0.1,0.3,0.1,0.5c0.1,0.2,0.1,0.4,0.2,0.6c0,0.1,0,0.2,0.1,0.3l0,0
			c0.3,1.1,0.7,2.2,1.2,3.2l4.4-2C940.1,110.3,939.8,109.4,939.5,108.5z"/>
		<path fill="#FFFFFF" d="M962.2,125.3c-6.5,0-12.5-2.7-16.7-7l-3.4,3.4c5.2,5.2,12.3,8.4,20.2,8.4c14.6,0,26.6-10.9,28.3-25h-4.9
			C983.9,116.6,974.1,125.3,962.2,125.3"/>
		<path fill="#FFFFFF" d="M962.2,77.9c5.3,0,10.2,1.8,14.2,4.7l2.9-3.9c-4.8-3.6-10.7-5.7-17.1-5.7c-12.1,0-22.5,7.5-26.6,18.2
			l4.5,1.8C943.6,84.2,952.2,77.9,962.2,77.9"/>
		<path fill="#FFFFFF" d="M985.6,98.1h4.9c-0.5-4.2-2-8.1-4.1-11.5l-4.1,2.6C984,91.8,985.1,94.8,985.6,98.1"/>
		<path fill="#FFFFFF" d="M980.1,98.1h4.9c-1.3-8.2-6.9-15-14.4-18l-1.8,4.5C974.6,86.9,978.9,91.9,980.1,98.1"/>
		<path fill="#FFFFFF" d="M962.2,83.4L962.2,83.4l0-4.8h0c-9.8,0-18.2,6.1-21.5,14.7l4.5,1.8C947.8,88.2,954.5,83.4,962.2,83.4"/>
		<path fill="#FFFFFF" d="M943.9,101.6L943.9,101.6l-4.8,0v0c0,9.7,6,18,14.5,21.4l1.8-4.5C948.7,115.9,943.9,109.3,943.9,101.6"/>
		<path fill="#FFFFFF" d="M962.2,119.9v4.8c11.5,0,21.1-8.5,22.8-19.5h-4.9C978.5,113.6,971.1,119.9,962.2,119.9"/>
	</g>
	<rect x="923.2" y="63.5" fill="none" stroke="#FFFFFF" stroke-width="4" stroke-miterlimit="10" width="76.8" height="76.4"/>
</g>
<g>
	<g>
		<g>
			<path fill="#FFFFFF" d="M907.3,158.9L907.3,158.9c0-3.2,2.4-5.8,5.8-5.8c2.1,0,3.4,0.7,4.4,1.7l-1.6,1.8
				c-0.9-0.8-1.7-1.3-2.9-1.3c-1.9,0-3.2,1.6-3.2,3.5v0c0,1.9,1.3,3.5,3.2,3.5c1.3,0,2.1-0.5,2.9-1.3l1.6,1.6c-1.2,1.2-2.4,2-4.6,2
				C909.8,164.7,907.3,162.2,907.3,158.9z"/>
			<path fill="#FFFFFF" d="M919.3,152.8h2.4v4.3c0.6-0.7,1.3-1.4,2.5-1.4c1.8,0,2.9,1.2,2.9,3.2v5.6h-2.4v-4.8
				c0-1.2-0.5-1.7-1.5-1.7c-0.9,0-1.5,0.6-1.5,1.7v4.8h-2.4V152.8z"/>
			<path fill="#FFFFFF" d="M928.9,160.3L928.9,160.3c0-2.5,1.7-4.5,4.2-4.5c2.9,0,4.2,2.2,4.2,4.7c0,0.2,0,0.4,0,0.6h-6
				c0.2,1.1,1,1.7,2.1,1.7c0.8,0,1.4-0.3,2.1-0.9l1.4,1.2c-0.8,1-2,1.6-3.5,1.6C930.8,164.7,928.9,162.9,928.9,160.3z M935,159.5
				c-0.1-1.1-0.8-1.8-1.8-1.8c-1,0-1.7,0.7-1.9,1.8H935z"/>
			<path fill="#FFFFFF" d="M939.5,158h-1v-2h1v-0.5c0-0.9,0.2-1.6,0.7-2.1s1.1-0.7,2-0.7c0.8,0,1.3,0.1,1.7,0.2v2
				c-0.4-0.1-0.7-0.2-1.1-0.2c-0.6,0-0.9,0.3-0.9,0.9v0.3h2v2H942v6.5h-2.4V158z"/>
			<path fill="#FFFFFF" d="M950.3,153.3h4.4c3.5,0,6,2.4,6,5.6v0c0,3.2-2.4,5.6-6,5.6h-4.4V153.3z M954.7,162.3c2,0,3.4-1.4,3.4-3.3
				v0c0-2-1.4-3.4-3.4-3.4h-1.9v6.8H954.7z"/>
			<path fill="#FFFFFF" d="M962.1,160.3L962.1,160.3c0-2.5,1.7-4.5,4.2-4.5c2.9,0,4.2,2.2,4.2,4.7c0,0.2,0,0.4,0,0.6h-6
				c0.2,1.1,1,1.7,2.1,1.7c0.8,0,1.4-0.3,2.1-0.9l1.4,1.2c-0.8,1-2,1.6-3.5,1.6C964,164.7,962.1,162.9,962.1,160.3z M968.2,159.5
				c-0.1-1.1-0.8-1.8-1.8-1.8c-1,0-1.7,0.7-1.9,1.8H968.2z"/>
			<path fill="#FFFFFF" d="M972.5,152.8h2.4v11.7h-2.4V152.8z"/>
			<path fill="#FFFFFF" d="M977.2,152.8h2.6v2.2h-2.6V152.8z M977.3,155.9h2.4v8.6h-2.4V155.9z"/>
			<path fill="#FFFFFF" d="M981.3,155.9h2.6l1.9,5.7l1.9-5.7h2.5l-3.4,8.6h-2.2L981.3,155.9z"/>
			<path fill="#FFFFFF" d="M990.7,160.3L990.7,160.3c0-2.5,1.7-4.5,4.2-4.5c2.9,0,4.2,2.2,4.2,4.7c0,0.2,0,0.4,0,0.6h-6
				c0.2,1.1,1,1.7,2.1,1.7c0.8,0,1.4-0.3,2.1-0.9l1.4,1.2c-0.8,1-2,1.6-3.5,1.6C992.6,164.7,990.7,162.9,990.7,160.3z M996.8,159.5
				c-0.1-1.1-0.8-1.8-1.8-1.8c-1,0-1.7,0.7-1.9,1.8H996.8z"/>
			<path fill="#FFFFFF" d="M1000.9,155.9h2.4v1.7c0.5-1.2,1.3-2,2.7-1.9v2.5h-0.1c-1.6,0-2.6,1-2.6,3v3.2h-2.4V155.9z"/>
			<path fill="#FFFFFF" d="M1007.5,166.5l0.8-1.8c0.3,0.2,0.7,0.3,1,0.3c0.4,0,0.6-0.1,0.8-0.6l-3.4-8.6h2.6l2,5.8l1.9-5.8h2.5
				l-3.3,8.8c-0.7,1.7-1.4,2.4-2.8,2.4C1008.8,167.1,1008.1,166.9,1007.5,166.5z"/>
		</g>
	</g>
</g>
<g>
	<rect x="557.3" y="41.5" fill="#F08921" width="133.4" height="133.4"/>
	<g>
		<g>
			<path fill="#FFFFFF" d="M624.6,114.5c-7.1,0-12.9-5.8-12.9-12.9c0-7.1,5.8-12.9,12.9-12.9c5.8,0,10.8,3.9,12.3,9.3h5
				c-1.7-8-8.8-14.1-17.3-14.1c-9.7,0-17.7,7.9-17.7,17.7c0,9.7,7.9,17.7,17.7,17.7c8.5,0,15.7-6.1,17.3-14.1h-5
				C635.4,110.6,630.4,114.5,624.6,114.5"/>
			<path fill="#FFFFFF" d="M615.9,110.3c2.2,2.2,5.3,3.6,8.7,3.6v-5.1c-2,0-3.8-0.8-5-2.1L615.9,110.3z"/>
			<path fill="#FFFFFF" d="M612.3,101.6c0,1.8,0.4,3.4,1,4.9l4.7-2.1c-0.4-0.9-0.6-1.8-0.6-2.9c0-3.9,3.2-7.1,7.1-7.1v-5.1
				C617.8,89.4,612.3,94.9,612.3,101.6"/>
			<path fill="#FFFFFF" d="M629,90.2l-1.9,4.8c1.5,0.6,2.8,1.7,3.6,3.1h5.5C635.2,94.5,632.5,91.6,629,90.2"/>
			<path fill="#FFFFFF" d="M627.2,108.3l1.9,4.8c3.5-1.4,6.2-4.3,7.3-7.9h-5.5C630,106.6,628.7,107.7,627.2,108.3"/>
			<path fill="#FFFFFF" d="M601.9,108.5c-0.1-0.3-0.2-0.5-0.2-0.8c0,0,0,0,0,0c-0.1-0.3-0.1-0.5-0.2-0.8c0-0.1,0-0.1,0-0.2
				c0-0.2-0.1-0.4-0.1-0.7c0-0.1,0-0.2-0.1-0.3c0-0.2-0.1-0.4-0.1-0.5c0-0.2,0-0.3-0.1-0.5c-0.1-1-0.2-2.1-0.2-3.1h-4.8
				c0,1.2,0.1,2.3,0.2,3.4h0c0,0,0,0,0,0.1c0,0.3,0.1,0.6,0.1,0.9c0,0.1,0,0.2,0,0.3c0,0.3,0.1,0.5,0.1,0.7c0,0.1,0.1,0.3,0.1,0.4
				c0,0.2,0.1,0.4,0.1,0.6c0,0.2,0.1,0.3,0.1,0.5c0,0.2,0.1,0.3,0.1,0.5c0.1,0.2,0.1,0.4,0.2,0.6c0,0.1,0,0.2,0.1,0.3l0,0
				c0.3,1.1,0.7,2.2,1.2,3.2l4.4-2C602.5,110.3,602.2,109.4,601.9,108.5z"/>
			<path fill="#FFFFFF" d="M624.6,125.3c-6.5,0-12.5-2.7-16.7-7l-3.4,3.4c5.2,5.2,12.3,8.4,20.2,8.4c14.6,0,26.6-10.9,28.3-25H648
				C646.3,116.6,636.5,125.3,624.6,125.3"/>
			<path fill="#FFFFFF" d="M624.6,77.9c5.3,0,10.2,1.8,14.2,4.7l2.9-3.9c-4.8-3.6-10.7-5.7-17.1-5.7c-12.1,0-22.5,7.5-26.6,18.2
				l4.5,1.8C606,84.2,614.6,77.9,624.6,77.9"/>
			<path fill="#FFFFFF" d="M648,98.1h4.9c-0.5-4.2-2-8.1-4.1-11.5l-4.1,2.6C646.4,91.8,647.5,94.8,648,98.1"/>
			<path fill="#FFFFFF" d="M642.5,98.1h4.9c-1.3-8.2-6.9-15-14.4-18l-1.8,4.5C637,86.9,641.3,91.9,642.5,98.1"/>
			<path fill="#FFFFFF" d="M624.6,83.4L624.6,83.4l0-4.8h0c-9.8,0-18.2,6.1-21.5,14.7l4.5,1.8C610.2,88.2,616.9,83.4,624.6,83.4"/>
			<path fill="#FFFFFF" d="M606.3,101.6L606.3,101.6l-4.8,0v0c0,9.7,6,18,14.5,21.4l1.8-4.5C611.1,115.9,606.3,109.3,606.3,101.6"/>
			<path fill="#FFFFFF" d="M624.6,119.9v4.8c11.5,0,21.1-8.5,22.8-19.5h-4.9C640.9,113.6,633.5,119.9,624.6,119.9"/>
		</g>
		<rect x="585.6" y="63.5" fill="none" stroke="#FFFFFF" stroke-width="4" stroke-miterlimit="10" width="76.8" height="76.4"/>
	</g>
	<g>
		<g>
			<g>
				<path fill="#FFFFFF" d="M577.4,158.9L577.4,158.9c0-3.2,2.4-5.8,5.8-5.8c2.1,0,3.4,0.7,4.4,1.7l-1.6,1.8
					c-0.9-0.8-1.7-1.3-2.9-1.3c-1.9,0-3.2,1.6-3.2,3.5v0c0,1.9,1.3,3.5,3.2,3.5c1.3,0,2.1-0.5,2.9-1.3l1.6,1.6c-1.2,1.2-2.4,2-4.6,2
					C579.9,164.7,577.4,162.2,577.4,158.9z"/>
				<path fill="#FFFFFF" d="M589.5,152.8h2.4v4.3c0.6-0.7,1.3-1.4,2.5-1.4c1.8,0,2.9,1.2,2.9,3.2v5.6h-2.4v-4.8
					c0-1.2-0.5-1.7-1.5-1.7s-1.5,0.6-1.5,1.7v4.8h-2.4V152.8z"/>
				<path fill="#FFFFFF" d="M599,160.3L599,160.3c0-2.5,1.7-4.5,4.2-4.5c2.9,0,4.2,2.2,4.2,4.7c0,0.2,0,0.4,0,0.6h-6
					c0.2,1.1,1,1.7,2.1,1.7c0.8,0,1.4-0.3,2.1-0.9l1.4,1.2c-0.8,1-2,1.6-3.5,1.6C600.9,164.7,599,162.9,599,160.3z M605.1,159.5
					c-0.1-1.1-0.8-1.8-1.8-1.8c-1,0-1.7,0.7-1.9,1.8H605.1z"/>
				<path fill="#FFFFFF" d="M609.7,158h-1v-2h1v-0.5c0-0.9,0.2-1.6,0.7-2.1s1.1-0.7,2-0.7c0.8,0,1.3,0.1,1.7,0.2v2
					c-0.4-0.1-0.7-0.2-1.1-0.2c-0.6,0-0.9,0.3-0.9,0.9v0.3h2v2h-1.9v6.5h-2.4V158z"/>
				<path fill="#FFFFFF" d="M619.6,162.9l1.5-1.7c1,0.8,2.1,1.4,3.3,1.4c1,0,1.6-0.4,1.6-1.1v0c0-0.6-0.4-0.9-2.3-1.4
					c-2.3-0.6-3.7-1.2-3.7-3.4v0c0-2,1.6-3.4,3.9-3.4c1.6,0,3,0.5,4.2,1.4l-1.3,1.9c-1-0.7-2-1.1-2.9-1.1s-1.4,0.4-1.4,1v0
					c0,0.7,0.5,1,2.4,1.5c2.3,0.6,3.6,1.4,3.6,3.4v0c0,2.2-1.7,3.5-4.1,3.5C622.7,164.7,621,164.1,619.6,162.9z"/>
				<path fill="#FFFFFF" d="M630,160.3L630,160.3c0-2.5,1.7-4.5,4.2-4.5c2.9,0,4.2,2.2,4.2,4.7c0,0.2,0,0.4,0,0.6h-6
					c0.2,1.1,1,1.7,2.1,1.7c0.8,0,1.4-0.3,2.1-0.9l1.4,1.2c-0.8,1-2,1.6-3.5,1.6C631.9,164.7,630,162.9,630,160.3z M636,159.5
					c-0.1-1.1-0.8-1.8-1.8-1.8c-1,0-1.7,0.7-1.9,1.8H636z"/>
				<path fill="#FFFFFF" d="M640.2,155.9h2.4v1.7c0.5-1.2,1.3-2,2.7-1.9v2.5h-0.1c-1.6,0-2.6,1-2.6,3v3.2h-2.4V155.9z"/>
				<path fill="#FFFFFF" d="M646.1,155.9h2.6l1.9,5.7l1.9-5.7h2.5l-3.4,8.6h-2.2L646.1,155.9z"/>
				<path fill="#FFFFFF" d="M655.6,160.3L655.6,160.3c0-2.5,1.7-4.5,4.2-4.5c2.9,0,4.2,2.2,4.2,4.7c0,0.2,0,0.4,0,0.6h-6
					c0.2,1.1,1,1.7,2.1,1.7c0.8,0,1.4-0.3,2.1-0.9l1.4,1.2c-0.8,1-2,1.6-3.5,1.6C657.5,164.7,655.6,162.9,655.6,160.3z M661.6,159.5
					c-0.1-1.1-0.8-1.8-1.8-1.8c-1,0-1.7,0.7-1.9,1.8H661.6z"/>
				<path fill="#FFFFFF" d="M665.8,155.9h2.4v1.7c0.5-1.2,1.3-2,2.7-1.9v2.5h-0.1c-1.6,0-2.6,1-2.6,3v3.2h-2.4V155.9z"/>
			</g>
		</g>
	</g>
</g>
<g>
	<rect x="163.3" y="336.5" fill="#FCB716" width="133.4" height="133.4"/>
	<g>
		<g>
			<path fill="#FFFFFF" d="M230.9,409.5c-7.1,0-12.9-5.8-12.9-12.9c0-7.1,5.8-12.9,12.9-12.9c5.8,0,10.8,3.9,12.3,9.3h5
				c-1.7-8-8.8-14.1-17.3-14.1c-9.7,0-17.7,7.9-17.7,17.7c0,9.7,7.9,17.7,17.7,17.7c8.5,0,15.7-6.1,17.3-14.1h-5
				C241.7,405.6,236.8,409.5,230.9,409.5"/>
			<path fill="#FFFFFF" d="M222.2,405.3c2.2,2.2,5.3,3.6,8.7,3.6v-5.1c-2,0-3.8-0.8-5-2.1L222.2,405.3z"/>
			<path fill="#FFFFFF" d="M218.6,396.7c0,1.8,0.4,3.4,1,4.9l4.7-2.1c-0.4-0.9-0.6-1.8-0.6-2.9c0-3.9,3.2-7.1,7.1-7.1v-5.1
				C224.1,384.4,218.6,389.9,218.6,396.7"/>
			<path fill="#FFFFFF" d="M235.3,385.3l-1.9,4.8c1.5,0.6,2.8,1.7,3.6,3.1h5.5C241.5,389.5,238.8,386.6,235.3,385.3"/>
			<path fill="#FFFFFF" d="M233.5,403.3l1.9,4.8c3.5-1.4,6.2-4.3,7.3-7.9h-5.5C236.3,401.6,235,402.7,233.5,403.3"/>
			<path fill="#FFFFFF" d="M208.2,403.5c-0.1-0.3-0.2-0.5-0.2-0.8c0,0,0,0,0,0c-0.1-0.3-0.1-0.5-0.2-0.8c0-0.1,0-0.1,0-0.2
				c0-0.2-0.1-0.4-0.1-0.7c0-0.1,0-0.2-0.1-0.3c0-0.2-0.1-0.4-0.1-0.5c0-0.2,0-0.3-0.1-0.5c-0.1-1-0.2-2.1-0.2-3.1h-4.8
				c0,1.2,0.1,2.3,0.2,3.4h0c0,0,0,0,0,0.1c0,0.3,0.1,0.6,0.1,0.9c0,0.1,0,0.2,0,0.3c0,0.3,0.1,0.5,0.1,0.7c0,0.1,0.1,0.3,0.1,0.4
				c0,0.2,0.1,0.4,0.1,0.6c0,0.2,0.1,0.3,0.1,0.5c0,0.2,0.1,0.3,0.1,0.5c0.1,0.2,0.1,0.4,0.2,0.6c0,0.1,0,0.2,0.1,0.3l0,0
				c0.3,1.1,0.7,2.2,1.2,3.2l4.4-2C208.8,405.3,208.5,404.4,208.2,403.5z"/>
			<path fill="#FFFFFF" d="M230.9,420.4c-6.5,0-12.5-2.7-16.7-7l-3.4,3.4c5.2,5.2,12.3,8.4,20.2,8.4c14.6,0,26.6-10.9,28.3-25h-4.9
				C252.6,411.6,242.8,420.4,230.9,420.4"/>
			<path fill="#FFFFFF" d="M230.9,373c5.3,0,10.2,1.8,14.2,4.7l2.9-3.9c-4.8-3.6-10.7-5.7-17.1-5.7c-12.1,0-22.5,7.5-26.6,18.2
				l4.5,1.8C212.3,379.3,220.9,373,230.9,373"/>
			<path fill="#FFFFFF" d="M254.3,393.1h4.9c-0.5-4.2-2-8.1-4.1-11.5l-4.1,2.6C252.7,386.8,253.8,389.9,254.3,393.1"/>
			<path fill="#FFFFFF" d="M248.8,393.1h4.9c-1.3-8.2-6.9-15-14.4-18l-1.8,4.5C243.3,381.9,247.6,386.9,248.8,393.1"/>
			<path fill="#FFFFFF" d="M230.9,378.4L230.9,378.4l0-4.8h0c-9.8,0-18.2,6.1-21.5,14.7l4.5,1.8
				C216.5,383.2,223.2,378.4,230.9,378.4"/>
			<path fill="#FFFFFF" d="M212.6,396.7L212.6,396.7l-4.8,0v0c0,9.7,6,18,14.5,21.4l1.8-4.5C217.4,410.9,212.6,404.4,212.6,396.7"/>
			<path fill="#FFFFFF" d="M230.9,414.9v4.8c11.5,0,21.1-8.5,22.8-19.5h-4.9C247.2,408.6,239.8,414.9,230.9,414.9"/>
		</g>
		<rect x="191.9" y="358.5" fill="none" stroke="#FFFFFF" stroke-width="4" stroke-miterlimit="10" width="76.8" height="76.4"/>
	</g>
	<g>
		<g>
			<g>
				<path fill="#FFFFFF" d="M178.4,457.9l1.5-1.7c1,0.8,2.1,1.4,3.3,1.4c1,0,1.6-0.4,1.6-1.1v0c0-0.6-0.4-0.9-2.3-1.4
					c-2.3-0.6-3.7-1.2-3.7-3.4v0c0-2,1.6-3.4,3.9-3.4c1.6,0,3,0.5,4.2,1.4l-1.3,1.9c-1-0.7-2-1.1-2.9-1.1s-1.4,0.4-1.4,1v0
					c0,0.7,0.5,1,2.4,1.5c2.3,0.6,3.6,1.4,3.6,3.4v0c0,2.2-1.7,3.5-4.1,3.5C181.4,459.7,179.7,459.1,178.4,457.9z"/>
				<path fill="#FFFFFF" d="M189.1,456.5V451h2.4v4.8c0,1.2,0.5,1.7,1.5,1.7c0.9,0,1.5-0.6,1.5-1.7V451h2.4v8.6h-2.4v-1.2
					c-0.6,0.7-1.3,1.4-2.5,1.4C190.1,459.7,189.1,458.5,189.1,456.5z"/>
				<path fill="#FFFFFF" d="M199.1,451h2.4v1.2c0.6-0.8,1.4-1.4,2.7-1.4c2,0,3.9,1.6,3.9,4.4v0c0,2.9-1.9,4.4-3.9,4.4
					c-1.3,0-2.1-0.6-2.7-1.3v3.7h-2.4V451z M205.7,455.3L205.7,455.3c0-1.5-1-2.4-2.1-2.4c-1.1,0-2.1,0.9-2.1,2.4v0
					c0,1.4,0.9,2.4,2.1,2.4C204.7,457.6,205.7,456.7,205.7,455.3z"/>
				<path fill="#FFFFFF" d="M209.5,455.3L209.5,455.3c0-2.5,1.7-4.5,4.2-4.5c2.9,0,4.2,2.2,4.2,4.7c0,0.2,0,0.4,0,0.6h-6
					c0.2,1.1,1,1.7,2.1,1.7c0.8,0,1.4-0.3,2.1-0.9l1.4,1.2c-0.8,1-2,1.6-3.5,1.6C211.4,459.7,209.5,457.9,209.5,455.3z M215.5,454.6
					c-0.1-1.1-0.8-1.8-1.8-1.8c-1,0-1.7,0.7-1.9,1.8H215.5z"/>
				<path fill="#FFFFFF" d="M219.7,451h2.4v1.7c0.5-1.2,1.3-2,2.7-1.9v2.5h-0.1c-1.6,0-2.6,1-2.6,3v3.2h-2.4V451z"/>
				<path fill="#FFFFFF" d="M226.4,451h2.4v1.2c0.6-0.7,1.3-1.4,2.5-1.4c1.1,0,2,0.5,2.4,1.4c0.8-0.9,1.6-1.4,2.8-1.4
					c1.8,0,2.9,1.1,2.9,3.2v5.6h-2.4v-4.8c0-1.2-0.5-1.7-1.4-1.7c-0.9,0-1.5,0.6-1.5,1.7v4.8h-2.4v-4.8c0-1.2-0.5-1.7-1.4-1.7
					c-0.9,0-1.5,0.6-1.5,1.7v4.8h-2.4V451z"/>
				<path fill="#FFFFFF" d="M241.1,457.1L241.1,457.1c0-1.9,1.4-2.8,3.5-2.8c0.9,0,1.5,0.1,2.1,0.4v-0.1c0-1-0.6-1.6-1.8-1.6
					c-0.9,0-1.6,0.2-2.4,0.5l-0.6-1.9c0.9-0.4,1.9-0.7,3.3-0.7c1.3,0,2.3,0.4,2.9,1c0.6,0.6,0.9,1.6,0.9,2.7v5h-2.4v-0.9
					c-0.6,0.7-1.4,1.1-2.6,1.1C242.4,459.7,241.1,458.8,241.1,457.1z M246.7,456.5v-0.4c-0.4-0.2-1-0.3-1.6-0.3
					c-1,0-1.7,0.4-1.7,1.2v0c0,0.7,0.5,1,1.3,1C245.9,458,246.7,457.4,246.7,456.5z"/>
				<path fill="#FFFFFF" d="M251.1,451h2.4v1.7c0.5-1.2,1.3-2,2.7-1.9v2.5h-0.1c-1.6,0-2.6,1-2.6,3v3.2h-2.4V451z"/>
				<path fill="#FFFFFF" d="M257.8,447.9h2.4v6.2l2.8-3.1h2.9l-3.3,3.4l3.4,5.2h-2.8L261,456l-0.8,0.9v2.6h-2.4V447.9z"/>
				<path fill="#FFFFFF" d="M266.4,455.3L266.4,455.3c0-2.5,1.7-4.5,4.2-4.5c2.9,0,4.2,2.2,4.2,4.7c0,0.2,0,0.4,0,0.6h-6
					c0.2,1.1,1,1.7,2.1,1.7c0.8,0,1.4-0.3,2.1-0.9l1.4,1.2c-0.8,1-2,1.6-3.5,1.6C268.3,459.7,266.4,457.9,266.4,455.3z M272.5,454.6
					c-0.1-1.1-0.8-1.8-1.8-1.8c-1,0-1.7,0.7-1.9,1.8H272.5z"/>
				<path fill="#FFFFFF" d="M277,457.1V453h-1V451h1v-2.2h2.4v2.2h2v2.1h-2v3.7c0,0.6,0.2,0.8,0.8,0.8c0.4,0,0.8-0.1,1.2-0.3v2
					c-0.5,0.3-1.1,0.5-1.9,0.5C278,459.7,277,459.1,277,457.1z"/>
			</g>
		</g>
	</g>
</g>
<g>
	<g>
		<g>
			<path fill="#445464" d="M752.8,89.6h4.6c2.7,0,4.3,1.6,4.3,3.9v0c0,2.6-2,3.9-4.5,3.9h-1.9v3.4h-2.5V89.6z M757.3,95.3
				c1.2,0,2-0.7,2-1.7v0c0-1.1-0.8-1.7-2-1.7h-1.9v3.4H757.3z"/>
			<path fill="#445464" d="M763.3,97.8v-5.6h2.4V97c0,1.2,0.5,1.7,1.5,1.7s1.5-0.6,1.5-1.7v-4.8h2.4v8.6h-2.4v-1.2
				c-0.6,0.7-1.3,1.4-2.5,1.4C764.4,101,763.3,99.8,763.3,97.8z"/>
			<path fill="#445464" d="M772.6,99.7l1-1.6c0.9,0.7,1.9,1,2.7,1c0.7,0,1-0.3,1-0.6v0c0-0.5-0.8-0.7-1.8-1
				c-1.2-0.4-2.6-0.9-2.6-2.6v0c0-1.7,1.4-2.7,3.1-2.7c1.1,0,2.3,0.4,3.2,1l-0.9,1.7c-0.8-0.5-1.7-0.8-2.3-0.8
				c-0.6,0-0.9,0.3-0.9,0.6v0c0,0.5,0.8,0.7,1.7,1c1.2,0.4,2.6,1,2.6,2.5v0c0,1.9-1.4,2.8-3.3,2.8C775.1,101,773.8,100.6,772.6,99.7
				z"/>
			<path fill="#445464" d="M781.3,89.2h2.4v4.3c0.6-0.7,1.3-1.4,2.5-1.4c1.8,0,2.9,1.2,2.9,3.2v5.6h-2.4v-4.8c0-1.2-0.5-1.7-1.5-1.7
				c-0.9,0-1.5,0.6-1.5,1.7v4.8h-2.4V89.2z"/>
			<path fill="#445464" d="M795.3,99.3l1.6-1.7c0.6,0.7,1.3,1.1,2,1.1c0.9,0,1.5-0.6,1.5-1.9v-7.2h2.5V97c0,1.3-0.4,2.3-1.1,3
				c-0.7,0.7-1.7,1-2.9,1C797.2,101,796,100.2,795.3,99.3z"/>
			<path fill="#445464" d="M804.7,96.6L804.7,96.6c0-2.5,2-4.5,4.7-4.5c2.7,0,4.6,2,4.6,4.4v0c0,2.5-2,4.5-4.7,4.5
				C806.7,101,804.7,99.1,804.7,96.6z M811.6,96.6L811.6,96.6c0-1.3-0.9-2.4-2.3-2.4c-1.4,0-2.2,1.1-2.2,2.3v0
				c0,1.3,0.9,2.4,2.3,2.4C810.8,98.9,811.6,97.9,811.6,96.6z"/>
			<path fill="#445464" d="M818.2,99.7v1.1h-2.4V89.2h2.4v4.3c0.6-0.8,1.4-1.4,2.7-1.4c2,0,3.9,1.6,3.9,4.4v0c0,2.9-1.9,4.4-3.9,4.4
				C819.6,101,818.8,100.4,818.2,99.7z M822.3,96.6L822.3,96.6c0-1.5-1-2.4-2.1-2.4c-1.1,0-2.1,0.9-2.1,2.4v0c0,1.4,0.9,2.4,2.1,2.4
				C821.4,98.9,822.3,98,822.3,96.6z"/>
			<path fill="#445464" d="M825.9,99.7l1-1.6c0.9,0.7,1.9,1,2.7,1c0.7,0,1-0.3,1-0.6v0c0-0.5-0.8-0.7-1.8-1
				c-1.2-0.4-2.6-0.9-2.6-2.6v0c0-1.7,1.4-2.7,3.1-2.7c1.1,0,2.3,0.4,3.2,1l-0.9,1.7c-0.8-0.5-1.7-0.8-2.3-0.8
				c-0.6,0-0.9,0.3-0.9,0.6v0c0,0.5,0.8,0.7,1.7,1c1.2,0.4,2.6,1,2.6,2.5v0c0,1.9-1.4,2.8-3.3,2.8C828.4,101,827,100.6,825.9,99.7z"
				/>
		</g>
	</g>
</g>
<line fill="none" stroke="#7F888D" stroke-width="4" stroke-miterlimit="10" x1="882" y1="108.2" x2="699" y2="108.2"/>
<line fill="none" stroke="#7F888D" stroke-width="4" stroke-miterlimit="10" x1="623" y1="185.2" x2="623" y2="309.2"/>
<polyline fill="none" stroke="#7F888D" stroke-width="4" stroke-miterlimit="10" points="455,309.2 455,267.2 794,267.2 794,309.2 
	"/>
<g>
	<g>
		<g>
			<path fill="#445464" d="M928.1,415.8h5.1c1.4,0,2.5,0.4,3.3,1.1c0.6,0.6,1,1.5,1,2.6v0c0,1.8-1,2.9-2.4,3.5l2.7,4h-2.9l-2.4-3.6
				h0h-1.9v3.6h-2.5V415.8z M933,421.3c1.2,0,1.9-0.6,1.9-1.6v0c0-1.1-0.7-1.6-1.9-1.6h-2.4v3.2H933z"/>
			<path fill="#445464" d="M939.6,415.8h8.5v2.2h-6v2.3h5.3v2.2h-5.3v2.4h6.1v2.2h-8.5V415.8z"/>
			<path fill="#445464" d="M949.6,425.4l1.5-1.7c1,0.8,2.1,1.4,3.3,1.4c1,0,1.6-0.4,1.6-1.1v0c0-0.6-0.4-0.9-2.3-1.4
				c-2.3-0.6-3.7-1.2-3.7-3.4v0c0-2,1.6-3.4,3.9-3.4c1.6,0,3,0.5,4.2,1.4l-1.3,1.9c-1-0.7-2-1.1-2.9-1.1s-1.4,0.4-1.4,1v0
				c0,0.7,0.5,1,2.4,1.5c2.3,0.6,3.6,1.4,3.6,3.4v0c0,2.2-1.7,3.5-4.1,3.5C952.6,427.2,950.9,426.6,949.6,425.4z"/>
			<path fill="#445464" d="M963,418.1h-3.4v-2.3h9.3v2.3h-3.4v8.9H963V418.1z"/>
			<path fill="#445464" d="M979.4,415.8h2.3l4.8,11.3h-2.6l-1-2.5h-4.7l-1,2.5h-2.5L979.4,415.8z M981.9,422.3l-1.5-3.6l-1.5,3.6
				H981.9z"/>
			<path fill="#445464" d="M988.2,415.8h4.6c2.7,0,4.3,1.6,4.3,3.9v0c0,2.6-2,3.9-4.5,3.9h-1.9v3.4h-2.5V415.8z M992.6,421.5
				c1.2,0,2-0.7,2-1.7v0c0-1.1-0.8-1.7-2-1.7h-1.9v3.4H992.6z"/>
			<path fill="#445464" d="M999,415.8h2.5V427H999V415.8z"/>
			<path fill="#445464" d="M926.7,440.7L926.7,440.7c0-3.2,2.4-5.8,5.8-5.8c2.1,0,3.4,0.7,4.4,1.7l-1.6,1.8
				c-0.9-0.8-1.7-1.3-2.9-1.3c-1.9,0-3.2,1.6-3.2,3.5v0c0,1.9,1.3,3.5,3.2,3.5c1.3,0,2.1-0.5,2.9-1.3l1.6,1.6c-1.2,1.2-2.4,2-4.6,2
				C929.2,446.4,926.7,443.9,926.7,440.7z"/>
			<path fill="#445464" d="M938.2,443.8L938.2,443.8c0-1.9,1.4-2.8,3.5-2.8c0.9,0,1.5,0.1,2.1,0.4v-0.1c0-1-0.6-1.6-1.8-1.6
				c-0.9,0-1.6,0.2-2.4,0.5l-0.6-1.9c0.9-0.4,1.9-0.7,3.3-0.7c1.3,0,2.3,0.4,2.9,1c0.6,0.6,0.9,1.6,0.9,2.7v5h-2.4v-0.9
				c-0.6,0.7-1.4,1.1-2.6,1.1C939.6,446.4,938.2,445.5,938.2,443.8z M943.8,443.2v-0.4c-0.4-0.2-1-0.3-1.6-0.3c-1,0-1.7,0.4-1.7,1.2
				v0c0,0.7,0.5,1,1.3,1C943.1,444.7,943.8,444.1,943.8,443.2z"/>
			<path fill="#445464" d="M948.3,434.6h2.4v11.7h-2.4V434.6z"/>
			<path fill="#445464" d="M953.2,434.6h2.4v11.7h-2.4V434.6z"/>
			<path fill="#445464" d="M960.3,445.1v1.1h-2.4v-11.7h2.4v4.3c0.6-0.8,1.4-1.4,2.7-1.4c2,0,3.9,1.6,3.9,4.4v0
				c0,2.9-1.9,4.4-3.9,4.4C961.7,446.4,960.9,445.8,960.3,445.1z M964.5,442L964.5,442c0-1.5-1-2.4-2.1-2.4c-1.1,0-2.1,0.9-2.1,2.4
				v0c0,1.4,0.9,2.4,2.1,2.4C963.5,444.3,964.5,443.4,964.5,442z"/>
			<path fill="#445464" d="M968.2,443.8L968.2,443.8c0-1.9,1.4-2.8,3.5-2.8c0.9,0,1.5,0.1,2.1,0.4v-0.1c0-1-0.6-1.6-1.8-1.6
				c-0.9,0-1.6,0.2-2.4,0.5l-0.6-1.9c0.9-0.4,1.9-0.7,3.3-0.7c1.3,0,2.3,0.4,2.9,1c0.6,0.6,0.9,1.6,0.9,2.7v5h-2.4v-0.9
				c-0.6,0.7-1.4,1.1-2.6,1.1C969.5,446.4,968.2,445.5,968.2,443.8z M973.8,443.2v-0.4c-0.4-0.2-1-0.3-1.6-0.3c-1,0-1.7,0.4-1.7,1.2
				v0c0,0.7,0.5,1,1.3,1C973,444.7,973.8,444.1,973.8,443.2z"/>
			<path fill="#445464" d="M977.7,442L977.7,442c0-2.5,1.9-4.5,4.5-4.5c1.6,0,2.6,0.5,3.4,1.4l-1.5,1.6c-0.5-0.6-1.1-0.9-2-0.9
				c-1.2,0-2.1,1.1-2.1,2.3v0c0,1.3,0.8,2.4,2.2,2.4c0.8,0,1.4-0.4,2-0.9l1.4,1.4c-0.8,0.9-1.8,1.6-3.5,1.6
				C979.6,446.4,977.7,444.4,977.7,442z"/>
			<path fill="#445464" d="M987.3,434.6h2.4v6.2l2.8-3.1h2.9l-3.3,3.4l3.4,5.2h-2.8l-2.2-3.5l-0.8,0.9v2.6h-2.4V434.6z"/>
			<path fill="#445464" d="M996.1,445.1l1-1.6c0.9,0.7,1.9,1,2.7,1c0.7,0,1-0.3,1-0.6v0c0-0.5-0.8-0.7-1.8-1
				c-1.2-0.4-2.6-0.9-2.6-2.6v0c0-1.7,1.4-2.7,3.1-2.7c1.1,0,2.3,0.4,3.2,1l-0.9,1.7c-0.8-0.5-1.7-0.8-2.3-0.8
				c-0.6,0-0.9,0.3-0.9,0.6v0c0,0.5,0.8,0.7,1.7,1c1.2,0.4,2.6,1,2.6,2.5v0c0,1.9-1.4,2.8-3.3,2.8
				C998.6,446.4,997.2,446,996.1,445.1z"/>
		</g>
	</g>
</g>
<g>
	<rect x="727.3" y="336.5" fill="#445464" width="133.4" height="133.4"/>
	<g>
		<g>
			<path fill="#FFFFFF" d="M828.3,433.2h-68c-1.7,0-3.1-1.4-3.1-3.1v-66.8c0-1.7,1.4-3.1,3.1-3.1h68c1.7,0,3.1,1.4,3.1,3.1v66.8
				C831.5,431.8,830.1,433.2,828.3,433.2L828.3,433.2z M763.5,427h61.7v-60.5h-61.7V427L763.5,427z"/>
		</g>
		<g>
			<g>
				<g>
					<path fill="#FFFFFF" d="M783.3,398.5c-6.1,0-11-4.9-11-11s4.9-11,11-11s11,4.9,11,11C794.4,393.6,789.4,398.5,783.3,398.5
						L783.3,398.5z M783.3,380.2c-4.1,0-7.4,3.3-7.4,7.4c0,4.1,3.3,7.4,7.4,7.4s7.4-3.3,7.4-7.4S787.4,380.2,783.3,380.2
						L783.3,380.2z"/>
				</g>
				<g>
					<g>
						<path fill="#FFFFFF" d="M776.4,382.4c-0.5,0-0.9-0.2-1.3-0.5l-2.6-2.6c-0.7-0.7-0.7-1.9,0-2.6c0.7-0.7,1.9-0.7,2.6,0l2.6,2.6
							c0.7,0.7,0.7,1.9,0,2.6C777.4,382.2,776.9,382.4,776.4,382.4L776.4,382.4z"/>
					</g>
					<g>
						<path fill="#FFFFFF" d="M792.8,398.8c-0.5,0-0.9-0.2-1.3-0.5l-3-3c-0.7-0.7-0.7-1.9,0-2.6c0.7-0.7,1.9-0.7,2.6,0l3,3
							c0.7,0.7,0.7,1.9,0,2.6C793.8,398.7,793.3,398.8,792.8,398.8L792.8,398.8z"/>
					</g>
				</g>
				<g>
					<g>
						<path fill="#FFFFFF" d="M790.3,382.4c-0.5,0-0.9-0.2-1.3-0.5c-0.7-0.7-0.7-1.9,0-2.6l2.6-2.6c0.7-0.7,1.9-0.7,2.6,0
							s0.7,1.9,0,2.6l-2.6,2.6C791.2,382.2,790.7,382.4,790.3,382.4L790.3,382.4z"/>
					</g>
					<g>
						<path fill="#FFFFFF" d="M773.9,398.8c-0.5,0-0.9-0.2-1.3-0.5c-0.7-0.7-0.7-1.9,0-2.6l3-3c0.7-0.7,1.9-0.7,2.6,0s0.7,1.9,0,2.6
							l-3,3C774.8,398.7,774.3,398.8,773.9,398.8L773.9,398.8z"/>
					</g>
				</g>
				<g>
					<g>
						<path fill="#FFFFFF" d="M783.4,379.6c-1,0-1.8-0.8-1.8-1.8v-3.6c0-1,0.8-1.8,1.8-1.8s1.8,0.8,1.8,1.8v3.6
							C785.2,378.7,784.4,379.6,783.4,379.6L783.4,379.6z"/>
					</g>
					<g>
						<path fill="#FFFFFF" d="M783.3,402.8L783.3,402.8c-1,0-1.8-0.8-1.8-1.8v-4.3c0-1,0.8-1.8,1.8-1.8l0,0c1,0,1.8,0.8,1.8,1.8v4.3
							C785.2,401.9,784.4,402.8,783.3,402.8L783.3,402.8z"/>
					</g>
				</g>
				<g>
					<g>
						<path fill="#FFFFFF" d="M796.8,389.3h-3.6c-1,0-1.8-0.8-1.8-1.8s0.8-1.8,1.8-1.8h3.6c1,0,1.8,0.8,1.8,1.8
							C798.6,388.5,797.8,389.3,796.8,389.3L796.8,389.3z"/>
					</g>
					<g>
						<path fill="#FFFFFF" d="M774.2,389.3h-4.3c-1,0-1.8-0.8-1.8-1.8s0.8-1.8,1.8-1.8h4.3c1,0,1.8,0.8,1.8,1.8
							C776,388.5,775.2,389.3,774.2,389.3L774.2,389.3z"/>
					</g>
				</g>
			</g>
			<g>
				<g>
					<path fill="#FFFFFF" d="M809,410.9c-4.6,0-8.4-3.8-8.4-8.4s3.8-8.4,8.4-8.4s8.4,3.8,8.4,8.4S813.6,410.9,809,410.9L809,410.9z
						 M809,396.9c-3.1,0-5.6,2.5-5.6,5.6s2.5,5.6,5.6,5.6s5.6-2.5,5.6-5.6S812.1,396.9,809,396.9L809,396.9z"/>
				</g>
				<g>
					<g>
						<path fill="#FFFFFF" d="M803.7,398.7c-0.4,0-0.7-0.1-1-0.4l-1.9-1.9c-0.5-0.5-0.5-1.4,0-2c0.5-0.5,1.4-0.5,2,0l1.9,1.9
							c0.5,0.5,0.5,1.4,0,2C804.4,398.5,804.1,398.7,803.7,398.7L803.7,398.7z"/>
					</g>
					<g>
						<path fill="#FFFFFF" d="M816.2,411.1c-0.4,0-0.7-0.1-1-0.4l-2.3-2.3c-0.5-0.5-0.5-1.4,0-2c0.5-0.5,1.4-0.5,2,0l2.3,2.3
							c0.5,0.5,0.5,1.4,0,2C816.9,411,816.5,411.1,816.2,411.1L816.2,411.1z"/>
					</g>
				</g>
				<g>
					<g>
						<path fill="#FFFFFF" d="M814.2,398.7c-0.4,0-0.7-0.1-1-0.4c-0.5-0.5-0.5-1.4,0-2l1.9-1.9c0.5-0.5,1.4-0.5,2,0
							c0.5,0.5,0.5,1.4,0,2l-1.9,1.9C814.9,398.5,814.6,398.7,814.2,398.7L814.2,398.7z"/>
					</g>
					<g>
						<path fill="#FFFFFF" d="M801.8,411.1c-0.4,0-0.7-0.1-1-0.4c-0.5-0.5-0.5-1.4,0-2l2.3-2.3c0.5-0.5,1.4-0.5,2,0
							c0.5,0.5,0.5,1.4,0,2l-2.3,2.3C802.5,411,802.1,411.1,801.8,411.1L801.8,411.1z"/>
					</g>
				</g>
				<g>
					<g>
						<path fill="#FFFFFF" d="M809,396.5c-0.8,0-1.4-0.6-1.4-1.4v-2.7c0-0.8,0.6-1.4,1.4-1.4s1.4,0.6,1.4,1.4v2.7
							C810.4,395.9,809.7,396.5,809,396.5L809,396.5z"/>
					</g>
					<g>
						<path fill="#FFFFFF" d="M809,414.1L809,414.1c-0.8,0-1.4-0.6-1.4-1.4v-3.2c0-0.8,0.6-1.4,1.4-1.4l0,0c0.8,0,1.4,0.6,1.4,1.4
							v3.2C810.4,413.5,809.7,414.1,809,414.1L809,414.1z"/>
					</g>
				</g>
				<g>
					<g>
						<path fill="#FFFFFF" d="M819.2,403.9h-2.7c-0.8,0-1.4-0.6-1.4-1.4c0-0.8,0.6-1.4,1.4-1.4h2.7c0.8,0,1.4,0.6,1.4,1.4
							S819.9,403.9,819.2,403.9L819.2,403.9z"/>
					</g>
					<g>
						<path fill="#FFFFFF" d="M802,403.9h-3.2c-0.8,0-1.4-0.6-1.4-1.4c0-0.8,0.6-1.4,1.4-1.4h3.2c0.8,0,1.4,0.6,1.4,1.4
							S802.8,403.9,802,403.9L802,403.9z"/>
					</g>
				</g>
			</g>
			<g>
				<g>
					<path fill="#FFFFFF" d="M788.7,418.8c-3.4,0-6.1-2.7-6.1-6.1s2.7-6.1,6.1-6.1s6.1,2.7,6.1,6.1S792.1,418.8,788.7,418.8
						L788.7,418.8z M788.7,408.6c-2.2,0-4.1,1.8-4.1,4.1s1.8,4.1,4.1,4.1c2.2,0,4.1-1.8,4.1-4.1S791,408.6,788.7,408.6L788.7,408.6z
						"/>
				</g>
				<g>
					<g>
						<path fill="#FFFFFF" d="M784.9,409.9c-0.3,0-0.5-0.1-0.7-0.3l-1.4-1.4c-0.4-0.4-0.4-1,0-1.4s1-0.4,1.4,0l1.4,1.4
							c0.4,0.4,0.4,1,0,1.4C785.4,409.8,785.1,409.9,784.9,409.9L784.9,409.9z"/>
					</g>
					<g>
						<path fill="#FFFFFF" d="M794,419c-0.3,0-0.5-0.1-0.7-0.3l-1.7-1.7c-0.4-0.4-0.4-1,0-1.4s1-0.4,1.4,0l1.7,1.7
							c0.4,0.4,0.4,1,0,1.4C794.5,418.9,794.2,419,794,419L794,419z"/>
					</g>
				</g>
				<g>
					<g>
						<path fill="#FFFFFF" d="M792.5,409.9c-0.3,0-0.5-0.1-0.7-0.3c-0.4-0.4-0.4-1,0-1.4l1.4-1.4c0.4-0.4,1-0.4,1.4,0s0.4,1,0,1.4
							l-1.4,1.4C793.1,409.8,792.8,409.9,792.5,409.9L792.5,409.9z"/>
					</g>
					<g>
						<path fill="#FFFFFF" d="M783.5,419c-0.3,0-0.5-0.1-0.7-0.3c-0.4-0.4-0.4-1,0-1.4l1.7-1.7c0.4-0.4,1-0.4,1.4,0s0.4,1,0,1.4
							l-1.7,1.7C784,418.9,783.7,419,783.5,419L783.5,419z"/>
					</g>
				</g>
				<g>
					<g>
						<path fill="#FFFFFF" d="M788.7,408.3c-0.6,0-1-0.5-1-1v-2c0-0.6,0.5-1,1-1c0.6,0,1,0.5,1,1v2
							C789.7,407.8,789.3,408.3,788.7,408.3L788.7,408.3z"/>
					</g>
					<g>
						<path fill="#FFFFFF" d="M788.7,421.1L788.7,421.1c-0.6,0-1-0.5-1-1v-2.4c0-0.6,0.5-1,1-1l0,0c0.6,0,1,0.5,1,1v2.4
							C789.7,420.7,789.3,421.1,788.7,421.1L788.7,421.1z"/>
					</g>
				</g>
				<g>
					<g>
						<path fill="#FFFFFF" d="M796.1,413.7h-2c-0.6,0-1-0.5-1-1c0-0.6,0.5-1,1-1h2c0.6,0,1,0.5,1,1
							C797.1,413.3,796.7,413.7,796.1,413.7L796.1,413.7z"/>
					</g>
					<g>
						<path fill="#FFFFFF" d="M783.7,413.7h-2.4c-0.6,0-1-0.5-1-1c0-0.6,0.5-1,1-1h2.4c0.6,0,1,0.5,1,1
							C784.7,413.3,784.2,413.7,783.7,413.7L783.7,413.7z"/>
					</g>
				</g>
			</g>
		</g>
	</g>
	<g>
		<g>
			<g>
				<path fill="#FFFFFF" d="M754.2,458.6v1.1h-2.4V448h2.4v4.3c0.6-0.8,1.4-1.4,2.7-1.4c2,0,3.9,1.6,3.9,4.4v0
					c0,2.9-1.9,4.4-3.9,4.4C755.6,459.9,754.8,459.3,754.2,458.6z M758.4,455.4L758.4,455.4c0-1.5-1-2.4-2.1-2.4s-2.1,0.9-2.1,2.4v0
					c0,1.4,0.9,2.4,2.1,2.4S758.4,456.9,758.4,455.4z"/>
				<path fill="#FFFFFF" d="M762.5,456.7v-5.6h2.4v4.8c0,1.2,0.5,1.7,1.5,1.7c0.9,0,1.5-0.6,1.5-1.7v-4.8h2.4v8.6h-2.4v-1.2
					c-0.6,0.7-1.3,1.4-2.5,1.4C763.6,459.9,762.5,458.6,762.5,456.7z"/>
				<path fill="#FFFFFF" d="M772.6,448h2.6v2.2h-2.6V448z M772.7,451.1h2.4v8.6h-2.4V451.1z"/>
				<path fill="#FFFFFF" d="M777.5,448h2.4v11.7h-2.4V448z"/>
				<path fill="#FFFFFF" d="M781.8,455.4L781.8,455.4c0-2.9,1.9-4.5,3.9-4.5c1.3,0,2.1,0.6,2.7,1.3V448h2.4v11.7h-2.4v-1.2
					c-0.6,0.8-1.4,1.4-2.7,1.4C783.7,459.9,781.8,458.3,781.8,455.4z M788.4,455.4L788.4,455.4c0-1.5-0.9-2.4-2.1-2.4
					s-2.1,0.9-2.1,2.4v0c0,1.4,1,2.4,2.1,2.4S788.4,456.9,788.4,455.4z"/>
				<path fill="#FFFFFF" d="M797.8,451.1h2.4v1.2c0.6-0.7,1.3-1.4,2.5-1.4c1.8,0,2.9,1.2,2.9,3.2v5.6h-2.4v-4.8
					c0-1.2-0.5-1.7-1.5-1.7c-0.9,0-1.5,0.6-1.5,1.7v4.8h-2.4V451.1z"/>
				<path fill="#FFFFFF" d="M807.4,455.5L807.4,455.5c0-2.5,2-4.5,4.7-4.5c2.7,0,4.6,2,4.6,4.4v0c0,2.5-2,4.5-4.7,4.5
					C809.3,459.9,807.4,457.9,807.4,455.5z M814.2,455.5L814.2,455.5c0-1.3-0.9-2.4-2.3-2.4c-1.4,0-2.2,1.1-2.2,2.3v0
					c0,1.3,0.9,2.4,2.3,2.4C813.4,457.8,814.2,456.7,814.2,455.5z"/>
				<path fill="#FFFFFF" d="M818,455.4L818,455.4c0-2.9,1.9-4.5,3.9-4.5c1.3,0,2.1,0.6,2.7,1.3V448h2.4v11.7h-2.4v-1.2
					c-0.6,0.8-1.4,1.4-2.7,1.4C819.9,459.9,818,458.3,818,455.4z M824.6,455.4L824.6,455.4c0-1.5-0.9-2.4-2.1-2.4s-2.1,0.9-2.1,2.4
					v0c0,1.4,1,2.4,2.1,2.4S824.6,456.9,824.6,455.4z"/>
				<path fill="#FFFFFF" d="M828.8,455.5L828.8,455.5c0-2.5,1.7-4.5,4.2-4.5c2.9,0,4.2,2.2,4.2,4.7c0,0.2,0,0.4,0,0.6h-6
					c0.2,1.1,1,1.7,2.1,1.7c0.8,0,1.4-0.3,2.1-0.9l1.4,1.2c-0.8,1-2,1.6-3.5,1.6C830.7,459.9,828.8,458.1,828.8,455.5z M834.8,454.7
					c-0.1-1.1-0.8-1.8-1.8-1.8c-1,0-1.7,0.7-1.9,1.8H834.8z"/>
			</g>
		</g>
	</g>
</g>
<g>
	<rect x="387.3" y="336.5" fill="#445464" width="133.4" height="133.4"/>
	<g>
		<g>
			<path fill="#FFFFFF" d="M488.3,433.2h-68c-1.7,0-3.1-1.4-3.1-3.1v-66.8c0-1.7,1.4-3.1,3.1-3.1h68c1.7,0,3.1,1.4,3.1,3.1v66.8
				C491.5,431.8,490.1,433.2,488.3,433.2L488.3,433.2z M423.5,427h61.7v-60.5h-61.7V427L423.5,427z"/>
		</g>
		<g>
			<g>
				<g>
					<path fill="#FFFFFF" d="M443.3,398.5c-6.1,0-11-4.9-11-11s4.9-11,11-11s11,4.9,11,11C454.4,393.6,449.4,398.5,443.3,398.5
						L443.3,398.5z M443.3,380.2c-4.1,0-7.4,3.3-7.4,7.4c0,4.1,3.3,7.4,7.4,7.4s7.4-3.3,7.4-7.4S447.4,380.2,443.3,380.2
						L443.3,380.2z"/>
				</g>
				<g>
					<g>
						<path fill="#FFFFFF" d="M436.4,382.4c-0.5,0-0.9-0.2-1.3-0.5l-2.6-2.6c-0.7-0.7-0.7-1.9,0-2.6s1.9-0.7,2.6,0l2.6,2.6
							c0.7,0.7,0.7,1.9,0,2.6C437.4,382.2,436.9,382.4,436.4,382.4L436.4,382.4z"/>
					</g>
					<g>
						<path fill="#FFFFFF" d="M452.8,398.8c-0.5,0-0.9-0.2-1.3-0.5l-3-3c-0.7-0.7-0.7-1.9,0-2.6s1.9-0.7,2.6,0l3,3
							c0.7,0.7,0.7,1.9,0,2.6C453.8,398.7,453.3,398.8,452.8,398.8L452.8,398.8z"/>
					</g>
				</g>
				<g>
					<g>
						<path fill="#FFFFFF" d="M450.3,382.4c-0.5,0-0.9-0.2-1.3-0.5c-0.7-0.7-0.7-1.9,0-2.6l2.6-2.6c0.7-0.7,1.9-0.7,2.6,0
							c0.7,0.7,0.7,1.9,0,2.6l-2.6,2.6C451.2,382.2,450.7,382.4,450.3,382.4L450.3,382.4z"/>
					</g>
					<g>
						<path fill="#FFFFFF" d="M433.9,398.8c-0.5,0-0.9-0.2-1.3-0.5c-0.7-0.7-0.7-1.9,0-2.6l3-3c0.7-0.7,1.9-0.7,2.6,0s0.7,1.9,0,2.6
							l-3,3C434.8,398.7,434.3,398.8,433.9,398.8L433.9,398.8z"/>
					</g>
				</g>
				<g>
					<g>
						<path fill="#FFFFFF" d="M443.4,379.6c-1,0-1.8-0.8-1.8-1.8v-3.6c0-1,0.8-1.8,1.8-1.8s1.8,0.8,1.8,1.8v3.6
							C445.2,378.7,444.4,379.6,443.4,379.6L443.4,379.6z"/>
					</g>
					<g>
						<path fill="#FFFFFF" d="M443.3,402.8L443.3,402.8c-1,0-1.8-0.8-1.8-1.8v-4.3c0-1,0.8-1.8,1.8-1.8l0,0c1,0,1.8,0.8,1.8,1.8v4.3
							C445.2,401.9,444.4,402.8,443.3,402.8L443.3,402.8z"/>
					</g>
				</g>
				<g>
					<g>
						<path fill="#FFFFFF" d="M456.8,389.3h-3.6c-1,0-1.8-0.8-1.8-1.8s0.8-1.8,1.8-1.8h3.6c1,0,1.8,0.8,1.8,1.8
							C458.6,388.5,457.8,389.3,456.8,389.3L456.8,389.3z"/>
					</g>
					<g>
						<path fill="#FFFFFF" d="M434.2,389.3h-4.3c-1,0-1.8-0.8-1.8-1.8s0.8-1.8,1.8-1.8h4.3c1,0,1.8,0.8,1.8,1.8
							C436,388.5,435.2,389.3,434.2,389.3L434.2,389.3z"/>
					</g>
				</g>
			</g>
			<g>
				<g>
					<path fill="#FFFFFF" d="M469,410.9c-4.6,0-8.4-3.8-8.4-8.4s3.8-8.4,8.4-8.4s8.4,3.8,8.4,8.4C477.3,407.2,473.6,410.9,469,410.9
						L469,410.9z M469,396.9c-3.1,0-5.6,2.5-5.6,5.6s2.5,5.6,5.6,5.6s5.6-2.5,5.6-5.6C474.6,399.5,472.1,396.9,469,396.9L469,396.9z
						"/>
				</g>
				<g>
					<g>
						<path fill="#FFFFFF" d="M463.7,398.7c-0.4,0-0.7-0.1-1-0.4l-1.9-1.9c-0.5-0.5-0.5-1.4,0-2s1.4-0.5,2,0l1.9,1.9
							c0.5,0.5,0.5,1.4,0,2C464.4,398.5,464.1,398.7,463.7,398.7L463.7,398.7z"/>
					</g>
					<g>
						<path fill="#FFFFFF" d="M476.2,411.1c-0.4,0-0.7-0.1-1-0.4l-2.3-2.3c-0.5-0.5-0.5-1.4,0-2c0.5-0.5,1.4-0.5,2,0l2.3,2.3
							c0.5,0.5,0.5,1.4,0,2C476.9,411,476.5,411.1,476.2,411.1L476.2,411.1z"/>
					</g>
				</g>
				<g>
					<g>
						<path fill="#FFFFFF" d="M474.2,398.7c-0.4,0-0.7-0.1-1-0.4c-0.5-0.5-0.5-1.4,0-2l1.9-1.9c0.5-0.5,1.4-0.5,2,0
							c0.5,0.5,0.5,1.4,0,2l-1.9,1.9C474.9,398.5,474.6,398.7,474.2,398.7L474.2,398.7z"/>
					</g>
					<g>
						<path fill="#FFFFFF" d="M461.8,411.1c-0.4,0-0.7-0.1-1-0.4c-0.5-0.5-0.5-1.4,0-2l2.3-2.3c0.5-0.5,1.4-0.5,2,0
							c0.5,0.5,0.5,1.4,0,2l-2.3,2.3C462.5,411,462.1,411.1,461.8,411.1L461.8,411.1z"/>
					</g>
				</g>
				<g>
					<g>
						<path fill="#FFFFFF" d="M469,396.5c-0.8,0-1.4-0.6-1.4-1.4v-2.7c0-0.8,0.6-1.4,1.4-1.4s1.4,0.6,1.4,1.4v2.7
							C470.4,395.9,469.7,396.5,469,396.5L469,396.5z"/>
					</g>
					<g>
						<path fill="#FFFFFF" d="M469,414.1L469,414.1c-0.8,0-1.4-0.6-1.4-1.4v-3.2c0-0.8,0.6-1.4,1.4-1.4l0,0c0.8,0,1.4,0.6,1.4,1.4
							v3.2C470.4,413.5,469.7,414.1,469,414.1L469,414.1z"/>
					</g>
				</g>
				<g>
					<g>
						<path fill="#FFFFFF" d="M479.2,403.9h-2.7c-0.8,0-1.4-0.6-1.4-1.4s0.6-1.4,1.4-1.4h2.7c0.8,0,1.4,0.6,1.4,1.4
							S479.9,403.9,479.2,403.9L479.2,403.9z"/>
					</g>
					<g>
						<path fill="#FFFFFF" d="M462,403.9h-3.2c-0.8,0-1.4-0.6-1.4-1.4s0.6-1.4,1.4-1.4h3.2c0.8,0,1.4,0.6,1.4,1.4
							S462.8,403.9,462,403.9L462,403.9z"/>
					</g>
				</g>
			</g>
			<g>
				<g>
					<path fill="#FFFFFF" d="M448.7,418.8c-3.4,0-6.1-2.7-6.1-6.1s2.7-6.1,6.1-6.1s6.1,2.7,6.1,6.1
						C454.8,416.1,452.1,418.8,448.7,418.8L448.7,418.8z M448.7,408.6c-2.2,0-4.1,1.8-4.1,4.1c0,2.2,1.8,4.1,4.1,4.1
						c2.2,0,4.1-1.8,4.1-4.1C452.8,410.5,451,408.6,448.7,408.6L448.7,408.6z"/>
				</g>
				<g>
					<g>
						<path fill="#FFFFFF" d="M444.9,409.9c-0.3,0-0.5-0.1-0.7-0.3l-1.4-1.4c-0.4-0.4-0.4-1,0-1.4s1-0.4,1.4,0l1.4,1.4
							c0.4,0.4,0.4,1,0,1.4C445.4,409.8,445.1,409.9,444.9,409.9L444.9,409.9z"/>
					</g>
					<g>
						<path fill="#FFFFFF" d="M454,419c-0.3,0-0.5-0.1-0.7-0.3l-1.7-1.7c-0.4-0.4-0.4-1,0-1.4s1-0.4,1.4,0l1.7,1.7
							c0.4,0.4,0.4,1,0,1.4C454.5,418.9,454.2,419,454,419L454,419z"/>
					</g>
				</g>
				<g>
					<g>
						<path fill="#FFFFFF" d="M452.5,409.9c-0.3,0-0.5-0.1-0.7-0.3c-0.4-0.4-0.4-1,0-1.4l1.4-1.4c0.4-0.4,1-0.4,1.4,0s0.4,1,0,1.4
							l-1.4,1.4C453.1,409.8,452.8,409.9,452.5,409.9L452.5,409.9z"/>
					</g>
					<g>
						<path fill="#FFFFFF" d="M443.5,419c-0.3,0-0.5-0.1-0.7-0.3c-0.4-0.4-0.4-1,0-1.4l1.7-1.7c0.4-0.4,1-0.4,1.4,0s0.4,1,0,1.4
							l-1.7,1.7C444,418.9,443.7,419,443.5,419L443.5,419z"/>
					</g>
				</g>
				<g>
					<g>
						<path fill="#FFFFFF" d="M448.7,408.3c-0.6,0-1-0.5-1-1v-2c0-0.6,0.5-1,1-1c0.6,0,1,0.5,1,1v2
							C449.7,407.8,449.3,408.3,448.7,408.3L448.7,408.3z"/>
					</g>
					<g>
						<path fill="#FFFFFF" d="M448.7,421.1L448.7,421.1c-0.6,0-1-0.5-1-1v-2.4c0-0.6,0.5-1,1-1l0,0c0.6,0,1,0.5,1,1v2.4
							C449.7,420.7,449.3,421.1,448.7,421.1L448.7,421.1z"/>
					</g>
				</g>
				<g>
					<g>
						<path fill="#FFFFFF" d="M456.1,413.7h-2c-0.6,0-1-0.5-1-1c0-0.6,0.5-1,1-1h2c0.6,0,1,0.5,1,1
							C457.1,413.3,456.7,413.7,456.1,413.7L456.1,413.7z"/>
					</g>
					<g>
						<path fill="#FFFFFF" d="M443.7,413.7h-2.4c-0.6,0-1-0.5-1-1c0-0.6,0.5-1,1-1h2.4c0.6,0,1,0.5,1,1
							C444.7,413.3,444.2,413.7,443.7,413.7L443.7,413.7z"/>
					</g>
				</g>
			</g>
		</g>
	</g>
	<g>
		<g>
			<g>
				<path fill="#FFFFFF" d="M414.2,458.6v1.1h-2.4V448h2.4v4.3c0.6-0.8,1.4-1.4,2.7-1.4c2,0,3.9,1.6,3.9,4.4v0
					c0,2.9-1.9,4.4-3.9,4.4C415.6,459.9,414.8,459.3,414.2,458.6z M418.4,455.4L418.4,455.4c0-1.5-1-2.4-2.1-2.4
					c-1.1,0-2.1,0.9-2.1,2.4v0c0,1.4,0.9,2.4,2.1,2.4C417.4,457.8,418.4,456.9,418.4,455.4z"/>
				<path fill="#FFFFFF" d="M422.5,456.7v-5.6h2.4v4.8c0,1.2,0.5,1.7,1.5,1.7c0.9,0,1.5-0.6,1.5-1.7v-4.8h2.4v8.6h-2.4v-1.2
					c-0.6,0.7-1.3,1.4-2.5,1.4C423.6,459.9,422.5,458.6,422.5,456.7z"/>
				<path fill="#FFFFFF" d="M432.6,448h2.6v2.2h-2.6V448z M432.7,451.1h2.4v8.6h-2.4V451.1z"/>
				<path fill="#FFFFFF" d="M437.5,448h2.4v11.7h-2.4V448z"/>
				<path fill="#FFFFFF" d="M441.8,455.4L441.8,455.4c0-2.9,1.9-4.5,3.9-4.5c1.3,0,2.1,0.6,2.7,1.3V448h2.4v11.7h-2.4v-1.2
					c-0.6,0.8-1.4,1.4-2.7,1.4C443.7,459.9,441.8,458.3,441.8,455.4z M448.4,455.4L448.4,455.4c0-1.5-0.9-2.4-2.1-2.4
					c-1.1,0-2.1,0.9-2.1,2.4v0c0,1.4,1,2.4,2.1,2.4C447.5,457.8,448.4,456.9,448.4,455.4z"/>
				<path fill="#FFFFFF" d="M457.8,451.1h2.4v1.2c0.6-0.7,1.3-1.4,2.5-1.4c1.8,0,2.9,1.2,2.9,3.2v5.6h-2.4v-4.8
					c0-1.2-0.5-1.7-1.5-1.7s-1.5,0.6-1.5,1.7v4.8h-2.4V451.1z"/>
				<path fill="#FFFFFF" d="M467.4,455.5L467.4,455.5c0-2.5,2-4.5,4.7-4.5c2.7,0,4.6,2,4.6,4.4v0c0,2.5-2,4.5-4.7,4.5
					C469.3,459.9,467.4,457.9,467.4,455.5z M474.2,455.5L474.2,455.5c0-1.3-0.9-2.4-2.3-2.4c-1.4,0-2.2,1.1-2.2,2.3v0
					c0,1.3,0.9,2.4,2.3,2.4C473.4,457.8,474.2,456.7,474.2,455.5z"/>
				<path fill="#FFFFFF" d="M478,455.4L478,455.4c0-2.9,1.9-4.5,3.9-4.5c1.3,0,2.1,0.6,2.7,1.3V448h2.4v11.7h-2.4v-1.2
					c-0.6,0.8-1.4,1.4-2.7,1.4C479.9,459.9,478,458.3,478,455.4z M484.6,455.4L484.6,455.4c0-1.5-0.9-2.4-2.1-2.4
					c-1.1,0-2.1,0.9-2.1,2.4v0c0,1.4,1,2.4,2.1,2.4C483.7,457.8,484.6,456.9,484.6,455.4z"/>
				<path fill="#FFFFFF" d="M488.8,455.5L488.8,455.5c0-2.5,1.7-4.5,4.2-4.5c2.9,0,4.2,2.2,4.2,4.7c0,0.2,0,0.4,0,0.6h-6
					c0.2,1.1,1,1.7,2.1,1.7c0.8,0,1.4-0.3,2.1-0.9l1.4,1.2c-0.8,1-2,1.6-3.5,1.6C490.7,459.9,488.8,458.1,488.8,455.5z M494.8,454.7
					c-0.1-1.1-0.8-1.8-1.8-1.8c-1,0-1.7,0.7-1.9,1.8H494.8z"/>
			</g>
		</g>
	</g>
</g>
<g>
	<rect x="557.3" y="336.5" fill="#445464" width="133.4" height="133.4"/>
	<g>
		<g>
			<path fill="#FFFFFF" d="M658.3,433.2h-68c-1.7,0-3.1-1.4-3.1-3.1v-66.8c0-1.7,1.4-3.1,3.1-3.1h68c1.7,0,3.1,1.4,3.1,3.1v66.8
				C661.5,431.8,660.1,433.2,658.3,433.2L658.3,433.2z M593.5,427h61.7v-60.5h-61.7V427L593.5,427z"/>
		</g>
		<g>
			<g>
				<g>
					<path fill="#FFFFFF" d="M613.3,398.5c-6.1,0-11-4.9-11-11s4.9-11,11-11s11,4.9,11,11C624.4,393.6,619.4,398.5,613.3,398.5
						L613.3,398.5z M613.3,380.2c-4.1,0-7.4,3.3-7.4,7.4s3.3,7.4,7.4,7.4s7.4-3.3,7.4-7.4C620.7,383.5,617.4,380.2,613.3,380.2
						L613.3,380.2z"/>
				</g>
				<g>
					<g>
						<path fill="#FFFFFF" d="M606.4,382.4c-0.5,0-0.9-0.2-1.3-0.5l-2.6-2.6c-0.7-0.7-0.7-1.9,0-2.6s1.9-0.7,2.6,0l2.6,2.6
							c0.7,0.7,0.7,1.9,0,2.6C607.4,382.2,606.9,382.4,606.4,382.4L606.4,382.4z"/>
					</g>
					<g>
						<path fill="#FFFFFF" d="M622.8,398.8c-0.5,0-0.9-0.2-1.3-0.5l-3-3c-0.7-0.7-0.7-1.9,0-2.6s1.9-0.7,2.6,0l3,3
							c0.7,0.7,0.7,1.9,0,2.6C623.8,398.7,623.3,398.8,622.8,398.8L622.8,398.8z"/>
					</g>
				</g>
				<g>
					<g>
						<path fill="#FFFFFF" d="M620.3,382.4c-0.5,0-0.9-0.2-1.3-0.5c-0.7-0.7-0.7-1.9,0-2.6l2.6-2.6c0.7-0.7,1.9-0.7,2.6,0
							s0.7,1.9,0,2.6l-2.6,2.6C621.2,382.2,620.7,382.4,620.3,382.4L620.3,382.4z"/>
					</g>
					<g>
						<path fill="#FFFFFF" d="M603.9,398.8c-0.5,0-0.9-0.2-1.3-0.5c-0.7-0.7-0.7-1.9,0-2.6l3-3c0.7-0.7,1.9-0.7,2.6,0s0.7,1.9,0,2.6
							l-3,3C604.8,398.7,604.3,398.8,603.9,398.8L603.9,398.8z"/>
					</g>
				</g>
				<g>
					<g>
						<path fill="#FFFFFF" d="M613.4,379.6c-1,0-1.8-0.8-1.8-1.8v-3.6c0-1,0.8-1.8,1.8-1.8s1.8,0.8,1.8,1.8v3.6
							C615.2,378.7,614.4,379.6,613.4,379.6L613.4,379.6z"/>
					</g>
					<g>
						<path fill="#FFFFFF" d="M613.3,402.8L613.3,402.8c-1,0-1.8-0.8-1.8-1.8v-4.3c0-1,0.8-1.8,1.8-1.8l0,0c1,0,1.8,0.8,1.8,1.8v4.3
							C615.2,401.9,614.4,402.8,613.3,402.8L613.3,402.8z"/>
					</g>
				</g>
				<g>
					<g>
						<path fill="#FFFFFF" d="M626.8,389.3h-3.6c-1,0-1.8-0.8-1.8-1.8s0.8-1.8,1.8-1.8h3.6c1,0,1.8,0.8,1.8,1.8
							S627.8,389.3,626.8,389.3L626.8,389.3z"/>
					</g>
					<g>
						<path fill="#FFFFFF" d="M604.2,389.3h-4.3c-1,0-1.8-0.8-1.8-1.8s0.8-1.8,1.8-1.8h4.3c1,0,1.8,0.8,1.8,1.8
							S605.2,389.3,604.2,389.3L604.2,389.3z"/>
					</g>
				</g>
			</g>
			<g>
				<g>
					<path fill="#FFFFFF" d="M639,410.9c-4.6,0-8.4-3.8-8.4-8.4s3.8-8.4,8.4-8.4s8.4,3.8,8.4,8.4C647.3,407.2,643.6,410.9,639,410.9
						L639,410.9z M639,396.9c-3.1,0-5.6,2.5-5.6,5.6s2.5,5.6,5.6,5.6s5.6-2.5,5.6-5.6C644.6,399.5,642.1,396.9,639,396.9L639,396.9z
						"/>
				</g>
				<g>
					<g>
						<path fill="#FFFFFF" d="M633.7,398.7c-0.4,0-0.7-0.1-1-0.4l-1.9-1.9c-0.5-0.5-0.5-1.4,0-2s1.4-0.5,2,0l1.9,1.9
							c0.5,0.5,0.5,1.4,0,2C634.4,398.5,634.1,398.7,633.7,398.7L633.7,398.7z"/>
					</g>
					<g>
						<path fill="#FFFFFF" d="M646.2,411.1c-0.4,0-0.7-0.1-1-0.4l-2.3-2.3c-0.5-0.5-0.5-1.4,0-2c0.5-0.5,1.4-0.5,2,0l2.3,2.3
							c0.5,0.5,0.5,1.4,0,2C646.9,411,646.5,411.1,646.2,411.1L646.2,411.1z"/>
					</g>
				</g>
				<g>
					<g>
						<path fill="#FFFFFF" d="M644.2,398.7c-0.4,0-0.7-0.1-1-0.4c-0.5-0.5-0.5-1.4,0-2l1.9-1.9c0.5-0.5,1.4-0.5,2,0
							c0.5,0.5,0.5,1.4,0,2l-1.9,1.9C644.9,398.5,644.6,398.7,644.2,398.7L644.2,398.7z"/>
					</g>
					<g>
						<path fill="#FFFFFF" d="M631.8,411.1c-0.4,0-0.7-0.1-1-0.4c-0.5-0.5-0.5-1.4,0-2l2.3-2.3c0.5-0.5,1.4-0.5,2,0
							c0.5,0.5,0.5,1.4,0,2l-2.3,2.3C632.5,411,632.1,411.1,631.8,411.1L631.8,411.1z"/>
					</g>
				</g>
				<g>
					<g>
						<path fill="#FFFFFF" d="M639,396.5c-0.8,0-1.4-0.6-1.4-1.4v-2.7c0-0.8,0.6-1.4,1.4-1.4s1.4,0.6,1.4,1.4v2.7
							C640.4,395.9,639.7,396.5,639,396.5L639,396.5z"/>
					</g>
					<g>
						<path fill="#FFFFFF" d="M639,414.1L639,414.1c-0.8,0-1.4-0.6-1.4-1.4v-3.2c0-0.8,0.6-1.4,1.4-1.4l0,0c0.8,0,1.4,0.6,1.4,1.4
							v3.2C640.4,413.5,639.7,414.1,639,414.1L639,414.1z"/>
					</g>
				</g>
				<g>
					<g>
						<path fill="#FFFFFF" d="M649.2,403.9h-2.7c-0.8,0-1.4-0.6-1.4-1.4s0.6-1.4,1.4-1.4h2.7c0.8,0,1.4,0.6,1.4,1.4
							S649.9,403.9,649.2,403.9L649.2,403.9z"/>
					</g>
					<g>
						<path fill="#FFFFFF" d="M632,403.9h-3.2c-0.8,0-1.4-0.6-1.4-1.4s0.6-1.4,1.4-1.4h3.2c0.8,0,1.4,0.6,1.4,1.4
							S632.8,403.9,632,403.9L632,403.9z"/>
					</g>
				</g>
			</g>
			<g>
				<g>
					<path fill="#FFFFFF" d="M618.7,418.8c-3.4,0-6.1-2.7-6.1-6.1s2.7-6.1,6.1-6.1s6.1,2.7,6.1,6.1
						C624.8,416.1,622.1,418.8,618.7,418.8L618.7,418.8z M618.7,408.6c-2.2,0-4.1,1.8-4.1,4.1c0,2.2,1.8,4.1,4.1,4.1
						c2.2,0,4.1-1.8,4.1-4.1C622.8,410.5,621,408.6,618.7,408.6L618.7,408.6z"/>
				</g>
				<g>
					<g>
						<path fill="#FFFFFF" d="M614.9,409.9c-0.3,0-0.5-0.1-0.7-0.3l-1.4-1.4c-0.4-0.4-0.4-1,0-1.4s1-0.4,1.4,0l1.4,1.4
							c0.4,0.4,0.4,1,0,1.4C615.4,409.8,615.1,409.9,614.9,409.9L614.9,409.9z"/>
					</g>
					<g>
						<path fill="#FFFFFF" d="M624,419c-0.3,0-0.5-0.1-0.7-0.3l-1.7-1.7c-0.4-0.4-0.4-1,0-1.4s1-0.4,1.4,0l1.7,1.7
							c0.4,0.4,0.4,1,0,1.4C624.5,418.9,624.2,419,624,419L624,419z"/>
					</g>
				</g>
				<g>
					<g>
						<path fill="#FFFFFF" d="M622.5,409.9c-0.3,0-0.5-0.1-0.7-0.3c-0.4-0.4-0.4-1,0-1.4l1.4-1.4c0.4-0.4,1-0.4,1.4,0s0.4,1,0,1.4
							l-1.4,1.4C623.1,409.8,622.8,409.9,622.5,409.9L622.5,409.9z"/>
					</g>
					<g>
						<path fill="#FFFFFF" d="M613.5,419c-0.3,0-0.5-0.1-0.7-0.3c-0.4-0.4-0.4-1,0-1.4l1.7-1.7c0.4-0.4,1-0.4,1.4,0s0.4,1,0,1.4
							l-1.7,1.7C614,418.9,613.7,419,613.5,419L613.5,419z"/>
					</g>
				</g>
				<g>
					<g>
						<path fill="#FFFFFF" d="M618.7,408.3c-0.6,0-1-0.5-1-1v-2c0-0.6,0.5-1,1-1c0.6,0,1,0.5,1,1v2
							C619.7,407.8,619.3,408.3,618.7,408.3L618.7,408.3z"/>
					</g>
					<g>
						<path fill="#FFFFFF" d="M618.7,421.1L618.7,421.1c-0.6,0-1-0.5-1-1v-2.4c0-0.6,0.5-1,1-1l0,0c0.6,0,1,0.5,1,1v2.4
							C619.7,420.7,619.3,421.1,618.7,421.1L618.7,421.1z"/>
					</g>
				</g>
				<g>
					<g>
						<path fill="#FFFFFF" d="M626.1,413.7h-2c-0.6,0-1-0.5-1-1c0-0.6,0.5-1,1-1h2c0.6,0,1,0.5,1,1
							C627.1,413.3,626.7,413.7,626.1,413.7L626.1,413.7z"/>
					</g>
					<g>
						<path fill="#FFFFFF" d="M613.7,413.7h-2.4c-0.6,0-1-0.5-1-1c0-0.6,0.5-1,1-1h2.4c0.6,0,1,0.5,1,1
							C614.7,413.3,614.2,413.7,613.7,413.7L613.7,413.7z"/>
					</g>
				</g>
			</g>
		</g>
	</g>
	<g>
		<g>
			<g>
				<path fill="#FFFFFF" d="M584.2,458.6v1.1h-2.4V448h2.4v4.3c0.6-0.8,1.4-1.4,2.7-1.4c2,0,3.9,1.6,3.9,4.4v0
					c0,2.9-1.9,4.4-3.9,4.4C585.6,459.9,584.8,459.3,584.2,458.6z M588.4,455.4L588.4,455.4c0-1.5-1-2.4-2.1-2.4
					c-1.1,0-2.1,0.9-2.1,2.4v0c0,1.4,0.9,2.4,2.1,2.4C587.4,457.8,588.4,456.9,588.4,455.4z"/>
				<path fill="#FFFFFF" d="M592.5,456.7v-5.6h2.4v4.8c0,1.2,0.5,1.7,1.5,1.7c0.9,0,1.5-0.6,1.5-1.7v-4.8h2.4v8.6h-2.4v-1.2
					c-0.6,0.7-1.3,1.4-2.5,1.4C593.6,459.9,592.5,458.6,592.5,456.7z"/>
				<path fill="#FFFFFF" d="M602.6,448h2.6v2.2h-2.6V448z M602.7,451.1h2.4v8.6h-2.4V451.1z"/>
				<path fill="#FFFFFF" d="M607.5,448h2.4v11.7h-2.4V448z"/>
				<path fill="#FFFFFF" d="M611.8,455.4L611.8,455.4c0-2.9,1.9-4.5,3.9-4.5c1.3,0,2.1,0.6,2.7,1.3V448h2.4v11.7h-2.4v-1.2
					c-0.6,0.8-1.4,1.4-2.7,1.4C613.7,459.9,611.8,458.3,611.8,455.4z M618.4,455.4L618.4,455.4c0-1.5-0.9-2.4-2.1-2.4
					c-1.1,0-2.1,0.9-2.1,2.4v0c0,1.4,1,2.4,2.1,2.4C617.5,457.8,618.4,456.9,618.4,455.4z"/>
				<path fill="#FFFFFF" d="M627.8,451.1h2.4v1.2c0.6-0.7,1.3-1.4,2.5-1.4c1.8,0,2.9,1.2,2.9,3.2v5.6h-2.4v-4.8
					c0-1.2-0.5-1.7-1.5-1.7s-1.5,0.6-1.5,1.7v4.8h-2.4V451.1z"/>
				<path fill="#FFFFFF" d="M637.4,455.5L637.4,455.5c0-2.5,2-4.5,4.7-4.5c2.7,0,4.6,2,4.6,4.4v0c0,2.5-2,4.5-4.7,4.5
					C639.3,459.9,637.4,457.9,637.4,455.5z M644.2,455.5L644.2,455.5c0-1.3-0.9-2.4-2.3-2.4c-1.4,0-2.2,1.1-2.2,2.3v0
					c0,1.3,0.9,2.4,2.3,2.4C643.4,457.8,644.2,456.7,644.2,455.5z"/>
				<path fill="#FFFFFF" d="M648,455.4L648,455.4c0-2.9,1.9-4.5,3.9-4.5c1.3,0,2.1,0.6,2.7,1.3V448h2.4v11.7h-2.4v-1.2
					c-0.6,0.8-1.4,1.4-2.7,1.4C649.9,459.9,648,458.3,648,455.4z M654.6,455.4L654.6,455.4c0-1.5-0.9-2.4-2.1-2.4
					c-1.1,0-2.1,0.9-2.1,2.4v0c0,1.4,1,2.4,2.1,2.4C653.7,457.8,654.6,456.9,654.6,455.4z"/>
				<path fill="#FFFFFF" d="M658.8,455.5L658.8,455.5c0-2.5,1.7-4.5,4.2-4.5c2.9,0,4.2,2.2,4.2,4.7c0,0.2,0,0.4,0,0.6h-6
					c0.2,1.1,1,1.7,2.1,1.7c0.8,0,1.4-0.3,2.1-0.9l1.4,1.2c-0.8,1-2,1.6-3.5,1.6C660.7,459.9,658.8,458.1,658.8,455.5z M664.8,454.7
					c-0.1-1.1-0.8-1.8-1.8-1.8c-1,0-1.7,0.7-1.9,1.8H664.8z"/>
			</g>
		</g>
	</g>
</g>
<line fill="none" stroke="#7F888D" stroke-width="4" stroke-miterlimit="10" x1="377" y1="403.2" x2="306" y2="403.2"/>
<polyline fill="none" stroke="#7F888D" stroke-width="4" stroke-miterlimit="10" points="965,185.2 965,402.2 889,402.2 "/>
<g>
</g>
<g>
</g>
<g>
</g>
<g>
</g>
<g>
</g>
<g>
</g>
<g>
</g>
<g>
</g>
<g>
</g>
<g>
</g>
<g>
</g>
<g>
</g>
<g>
</g>
<g>
</g>
<g>
</g>
</svg>
