<?xml version="1.0" encoding="utf-8"?>
<!-- Generator: Adobe Illustrator 19.1.0, SVG Export Plug-In . SVG Version: 6.00 Build 0)  -->
<svg version="1.1" id="Layer_1" xmlns="http://www.w3.org/2000/svg" xmlns:xlink="http://www.w3.org/1999/xlink" x="0px" y="0px"
	 viewBox="0 0 299.5 247.1" enable-background="new 0 0 299.5 247.1" xml:space="preserve">
<rect fill="none" width="299.5" height="247.1"/>
<rect x="12.4" y="34.9" fill="#445464" width="204.2" height="13.4"/>
<ellipse fill="#445464" stroke="#D1D3D4" stroke-miterlimit="10" cx="216.5" cy="41.7" rx="3.2" ry="6.7"/>
<g>
	<g>
		<path fill="#FFFFFF" d="M16.5,37.3h3.4c2,0,3.2,1.2,3.2,2.9v0c0,1.9-1.5,3-3.4,3h-1.4v2.5h-1.8V37.3z M19.8,41.6
			c0.9,0,1.5-0.6,1.5-1.3v0c0-0.8-0.6-1.3-1.5-1.3h-1.4v2.6H19.8z"/>
		<path fill="#FFFFFF" d="M24.4,37h1.9v1.6h-1.9V37z M24.4,39.3h1.8v6.4h-1.8V39.3z"/>
		<path fill="#FFFFFF" d="M28,39.3h1.8v0.9c0.4-0.6,1.1-1,2-1c1.5,0,2.9,1.2,2.9,3.3v0c0,2.1-1.4,3.3-2.9,3.3c-1,0-1.6-0.4-2-1v2.8
			H28V39.3z M32.9,42.5L32.9,42.5c0-1.1-0.7-1.8-1.6-1.8s-1.6,0.7-1.6,1.8v0c0,1.1,0.7,1.8,1.6,1.8S32.9,43.6,32.9,42.5z"/>
		<path fill="#FFFFFF" d="M35.8,42.5L35.8,42.5c0-1.9,1.3-3.4,3.2-3.4c2.1,0,3.1,1.7,3.1,3.5c0,0.1,0,0.3,0,0.5h-4.5
			c0.2,0.8,0.8,1.3,1.6,1.3c0.6,0,1.1-0.2,1.6-0.7l1,0.9c-0.6,0.7-1.5,1.2-2.6,1.2C37.2,45.9,35.8,44.5,35.8,42.5z M40.3,42
			c-0.1-0.8-0.6-1.4-1.4-1.4c-0.8,0-1.2,0.5-1.4,1.4H40.3z"/>
		<path fill="#FFFFFF" d="M43.5,37h1.8v8.8h-1.8V37z"/>
		<path fill="#FFFFFF" d="M47.1,37H49v1.6h-1.9V37z M47.1,39.3h1.8v6.4h-1.8V39.3z"/>
		<path fill="#FFFFFF" d="M50.7,39.3h1.8v0.9c0.4-0.5,1-1,1.9-1c1.4,0,2.2,0.9,2.2,2.4v4.2h-1.8v-3.6c0-0.9-0.4-1.3-1.1-1.3
			c-0.7,0-1.1,0.4-1.1,1.3v3.6h-1.8V39.3z"/>
		<path fill="#FFFFFF" d="M57.8,42.5L57.8,42.5c0-1.9,1.3-3.4,3.2-3.4c2.1,0,3.1,1.7,3.1,3.5c0,0.1,0,0.3,0,0.5h-4.5
			c0.2,0.8,0.8,1.3,1.6,1.3c0.6,0,1.1-0.2,1.6-0.7l1,0.9c-0.6,0.7-1.5,1.2-2.6,1.2C59.3,45.9,57.8,44.5,57.8,42.5z M62.4,42
			c-0.1-0.8-0.6-1.4-1.4-1.4c-0.8,0-1.2,0.5-1.4,1.4H62.4z"/>
		<path fill="#FFFFFF" d="M65,44.9l0.8-1.2c0.7,0.5,1.4,0.8,2,0.8c0.5,0,0.8-0.2,0.8-0.5v0c0-0.4-0.6-0.5-1.3-0.7
			c-0.9-0.3-1.9-0.7-1.9-1.9v0c0-1.3,1.1-2,2.4-2c0.8,0,1.7,0.3,2.4,0.7l-0.7,1.3c-0.6-0.4-1.3-0.6-1.7-0.6c-0.4,0-0.7,0.2-0.7,0.4
			v0c0,0.4,0.6,0.5,1.3,0.8c0.9,0.3,1.9,0.7,1.9,1.9v0c0,1.4-1.1,2.1-2.5,2.1C66.9,45.8,65.8,45.5,65,44.9z"/>
	</g>
</g>
<g>
	<g>
		<g>
			<path fill="#59B8B3" d="M217,77.9h3.5c2.9,0,4.8,2,4.8,4.5v0c0,2.6-2,4.6-4.8,4.6H217V77.9z M220.5,85.1c1.6,0,2.7-1.1,2.7-2.7v0
				c0-1.6-1.1-2.7-2.7-2.7H219v5.5H220.5z"/>
		</g>
	</g>
	<g>
		<path fill="#59B8B3" d="M209.9,90.3l10.4,8.9c0.4,0.3,0.9,0.3,1.3,0l10.5-8.9c0.2-0.2,0.3-0.5,0.3-0.8V76.3c0-1.3-1.1-2.4-2.4-2.4
			h-18.2c-1.3,0-2.4,1.1-2.4,2.4v13.2C209.5,89.8,209.6,90.1,209.9,90.3z M211.5,76.3c0-0.2,0.2-0.4,0.4-0.4H230
			c0.2,0,0.4,0.2,0.4,0.4V89h-18.9V76.3z"/>
	</g>
</g>
<g>
	<g>
		<path fill="#6CB2E2" d="M98,73.1l-10.4-8.9c-0.4-0.3-0.9-0.3-1.3,0l-10.5,8.9c-0.2,0.2-0.3,0.5-0.3,0.8v13.2
			c0,1.3,1.1,2.4,2.4,2.4H96c1.3,0,2.4-1.1,2.4-2.4V73.8C98.4,73.5,98.3,73.3,98,73.1z M96.4,87.1c0,0.2-0.2,0.4-0.4,0.4H77.9
			c-0.2,0-0.4-0.2-0.4-0.4V74.3h18.9V87.1z"/>
	</g>
	<g>
		<g>
			<path fill="#6CB2E2" d="M83,81.5v-5.2h2v5.1c0,1.5,0.7,2.2,2,2.2s2-0.7,2-2.2v-5.2h2v5.1c0,2.8-1.5,4.1-4,4.1
				C84.5,85.6,83,84.2,83,81.5z"/>
		</g>
	</g>
</g>
<g>
	<path fill="#404447" d="M13.2,82.1v-4.8h1.8v4.7c0,1.4,0.7,2.1,1.8,2.1c1.1,0,1.8-0.7,1.8-2v-4.8h1.8v4.7c0,2.5-1.4,3.8-3.7,3.8
		S13.2,84.6,13.2,82.1z"/>
	<path fill="#404447" d="M22.3,79.3h1.8v0.9c0.4-0.6,1.1-1,2-1c1.5,0,2.9,1.2,2.9,3.3v0c0,2.1-1.4,3.3-2.9,3.3c-1,0-1.6-0.4-2-1v2.8
		h-1.8V79.3z M27.2,82.5L27.2,82.5c0-1.1-0.7-1.8-1.6-1.8s-1.6,0.7-1.6,1.8v0c0,1.1,0.7,1.8,1.6,1.8S27.2,83.6,27.2,82.5z"/>
	<path fill="#404447" d="M29.9,84.9l0.8-1.2c0.7,0.5,1.4,0.8,2,0.8c0.5,0,0.8-0.2,0.8-0.5v0c0-0.4-0.6-0.5-1.3-0.7
		c-0.9-0.3-1.9-0.7-1.9-1.9v0c0-1.3,1.1-2,2.4-2c0.8,0,1.7,0.3,2.4,0.7l-0.7,1.3c-0.6-0.4-1.3-0.6-1.7-0.6c-0.4,0-0.7,0.2-0.7,0.4v0
		c0,0.4,0.6,0.5,1.3,0.8c0.9,0.3,1.9,0.7,1.9,1.9v0c0,1.4-1.1,2.1-2.5,2.1C31.7,85.8,30.7,85.5,29.9,84.9z"/>
	<path fill="#404447" d="M36.6,83.9v-3h-0.8v-1.6h0.8v-1.6h1.8v1.6h1.5v1.6h-1.5v2.7c0,0.4,0.2,0.6,0.6,0.6c0.3,0,0.6-0.1,0.9-0.2
		v1.5c-0.4,0.2-0.8,0.4-1.4,0.4C37.3,85.8,36.6,85.4,36.6,83.9z"/>
	<path fill="#404447" d="M41.2,79.3h1.8v1.3c0.4-0.9,1-1.5,2.1-1.4v1.9H45c-1.2,0-2,0.7-2,2.3v2.4h-1.8V79.3z"/>
	<path fill="#404447" d="M45.8,82.5L45.8,82.5c0-1.9,1.3-3.4,3.2-3.4c2.1,0,3.1,1.7,3.1,3.5c0,0.1,0,0.3,0,0.5h-4.5
		c0.2,0.8,0.8,1.3,1.6,1.3c0.6,0,1.1-0.2,1.6-0.7l1,0.9c-0.6,0.7-1.5,1.2-2.6,1.2C47.2,85.9,45.8,84.5,45.8,82.5z M50.3,82
		c-0.1-0.8-0.6-1.4-1.4-1.4c-0.8,0-1.2,0.5-1.4,1.4H50.3z"/>
	<path fill="#404447" d="M53,83.9L53,83.9c0-1.4,1.1-2.1,2.6-2.1c0.6,0,1.1,0.1,1.6,0.3V82c0-0.8-0.5-1.2-1.4-1.2
		c-0.7,0-1.2,0.1-1.8,0.3l-0.5-1.4c0.7-0.3,1.4-0.5,2.5-0.5c1,0,1.7,0.3,2.2,0.7c0.5,0.5,0.7,1.2,0.7,2.1v3.7h-1.8V85
		c-0.4,0.5-1.1,0.8-1.9,0.8C54,85.8,53,85.1,53,83.9z M57.2,83.5v-0.3c-0.3-0.1-0.7-0.2-1.2-0.2c-0.8,0-1.3,0.3-1.3,0.9v0
		c0,0.5,0.4,0.8,1,0.8C56.7,84.6,57.2,84.1,57.2,83.5z"/>
	<path fill="#404447" d="M60.5,79.3h1.8v0.9c0.4-0.5,1-1,1.9-1c0.8,0,1.5,0.4,1.8,1c0.6-0.7,1.2-1,2.1-1c1.4,0,2.2,0.8,2.2,2.4v4.2
		h-1.8v-3.6c0-0.9-0.4-1.3-1.1-1.3s-1.1,0.4-1.1,1.3v3.6h-1.8v-3.6c0-0.9-0.4-1.3-1.1-1.3c-0.7,0-1.1,0.4-1.1,1.3v3.6h-1.8V79.3z"/>
	<path fill="#404447" d="M104,83.9L104,83.9c0-1.4,1.1-2.1,2.6-2.1c0.6,0,1.1,0.1,1.6,0.3V82c0-0.8-0.5-1.2-1.4-1.2
		c-0.7,0-1.2,0.1-1.8,0.3l-0.5-1.4c0.7-0.3,1.4-0.5,2.5-0.5c1,0,1.7,0.3,2.2,0.7c0.5,0.5,0.7,1.2,0.7,2.1v3.7h-1.8V85
		c-0.4,0.5-1.1,0.8-1.9,0.8C104.9,85.8,104,85.1,104,83.9z M108.1,83.5v-0.3c-0.3-0.1-0.7-0.2-1.2-0.2c-0.8,0-1.3,0.3-1.3,0.9v0
		c0,0.5,0.4,0.8,1,0.8C107.6,84.6,108.1,84.1,108.1,83.5z"/>
	<path fill="#404447" d="M111.4,79.3h1.8v0.9c0.4-0.5,1-1,1.9-1c1.4,0,2.2,0.9,2.2,2.4v4.2h-1.8v-3.6c0-0.9-0.4-1.3-1.1-1.3
		c-0.7,0-1.1,0.4-1.1,1.3v3.6h-1.8V79.3z"/>
	<path fill="#404447" d="M118.6,82.5L118.6,82.5c0-2.2,1.4-3.3,2.9-3.3c1,0,1.6,0.4,2,1V77h1.8v8.8h-1.8v-0.9c-0.4,0.6-1.1,1-2,1
		C120.1,85.8,118.6,84.7,118.6,82.5z M123.6,82.5L123.6,82.5c0-1.1-0.7-1.8-1.6-1.8s-1.6,0.7-1.6,1.8v0c0,1.1,0.7,1.8,1.6,1.8
		S123.6,83.6,123.6,82.5z"/>
	<path fill="#404447" d="M130.3,82.5L130.3,82.5c0-2.2,1.4-3.3,2.9-3.3c1,0,1.6,0.4,2,1V77h1.8v8.8h-1.8v-0.9c-0.4,0.6-1.1,1-2,1
		C131.8,85.8,130.3,84.7,130.3,82.5z M135.3,82.5L135.3,82.5c0-1.1-0.7-1.8-1.6-1.8s-1.6,0.7-1.6,1.8v0c0,1.1,0.7,1.8,1.6,1.8
		S135.3,83.6,135.3,82.5z"/>
	<path fill="#404447" d="M138.4,82.5L138.4,82.5c0-1.9,1.5-3.4,3.5-3.4c2,0,3.5,1.5,3.5,3.3v0c0,1.8-1.5,3.3-3.5,3.3
		C139.9,85.9,138.4,84.4,138.4,82.5z M143.6,82.5L143.6,82.5c0-1-0.7-1.8-1.7-1.8c-1,0-1.7,0.8-1.7,1.8v0c0,0.9,0.7,1.8,1.7,1.8
		C142.9,84.3,143.6,83.5,143.6,82.5z"/>
	<path fill="#404447" d="M145.9,79.3h1.8l1,3.9l1.2-3.9h1.6l1.2,3.9l1.1-3.9h1.8l-2,6.5H152l-1.2-3.9l-1.3,3.9h-1.6L145.9,79.3z"/>
	<path fill="#404447" d="M156.7,79.3h1.8v0.9c0.4-0.5,1-1,1.9-1c1.4,0,2.2,0.9,2.2,2.4v4.2h-1.8v-3.6c0-0.9-0.4-1.3-1.1-1.3
		c-0.7,0-1.1,0.4-1.1,1.3v3.6h-1.8V79.3z"/>
	<path fill="#404447" d="M163.7,84.9l0.8-1.2c0.7,0.5,1.4,0.8,2,0.8c0.5,0,0.8-0.2,0.8-0.5v0c0-0.4-0.6-0.5-1.3-0.7
		c-0.9-0.3-1.9-0.7-1.9-1.9v0c0-1.3,1.1-2,2.4-2c0.8,0,1.7,0.3,2.4,0.7l-0.7,1.3c-0.6-0.4-1.3-0.6-1.7-0.6c-0.4,0-0.7,0.2-0.7,0.4v0
		c0,0.4,0.6,0.5,1.3,0.8c0.9,0.3,1.9,0.7,1.9,1.9v0c0,1.4-1.1,2.1-2.5,2.1C165.5,85.8,164.5,85.5,163.7,84.9z"/>
	<path fill="#404447" d="M170.4,83.9v-3h-0.8v-1.6h0.8v-1.6h1.8v1.6h1.5v1.6h-1.5v2.7c0,0.4,0.2,0.6,0.6,0.6c0.3,0,0.6-0.1,0.9-0.2
		v1.5c-0.4,0.2-0.8,0.4-1.4,0.4C171.2,85.8,170.4,85.4,170.4,83.9z"/>
	<path fill="#404447" d="M175.1,79.3h1.8v1.3c0.4-0.9,1-1.5,2.1-1.4v1.9h-0.1c-1.2,0-2,0.7-2,2.3v2.4h-1.8V79.3z"/>
	<path fill="#404447" d="M179.6,82.5L179.6,82.5c0-1.9,1.3-3.4,3.2-3.4c2.1,0,3.1,1.7,3.1,3.5c0,0.1,0,0.3,0,0.5h-4.5
		c0.2,0.8,0.8,1.3,1.6,1.3c0.6,0,1.1-0.2,1.6-0.7l1,0.9c-0.6,0.7-1.5,1.2-2.6,1.2C181,85.9,179.6,84.5,179.6,82.5z M184.1,82
		c-0.1-0.8-0.6-1.4-1.4-1.4c-0.8,0-1.2,0.5-1.4,1.4H184.1z"/>
	<path fill="#404447" d="M186.9,83.9L186.9,83.9c0-1.4,1.1-2.1,2.6-2.1c0.6,0,1.1,0.1,1.6,0.3V82c0-0.8-0.5-1.2-1.4-1.2
		c-0.7,0-1.2,0.1-1.8,0.3l-0.5-1.4c0.7-0.3,1.4-0.5,2.5-0.5c1,0,1.7,0.3,2.2,0.7c0.5,0.5,0.7,1.2,0.7,2.1v3.7H191V85
		c-0.4,0.5-1.1,0.8-1.9,0.8C187.9,85.8,186.9,85.1,186.9,83.9z M191.1,83.5v-0.3c-0.3-0.1-0.7-0.2-1.2-0.2c-0.8,0-1.3,0.3-1.3,0.9v0
		c0,0.5,0.4,0.8,1,0.8C190.5,84.6,191.1,84.1,191.1,83.5z"/>
	<path fill="#404447" d="M194.4,79.3h1.8v0.9c0.4-0.5,1-1,1.9-1c0.8,0,1.5,0.4,1.8,1c0.6-0.7,1.2-1,2.1-1c1.4,0,2.2,0.8,2.2,2.4v4.2
		h-1.8v-3.6c0-0.9-0.4-1.3-1.1-1.3s-1.1,0.4-1.1,1.3v3.6h-1.8v-3.6c0-0.9-0.4-1.3-1.1-1.3s-1.1,0.4-1.1,1.3v3.6h-1.8V79.3z"/>
	<path fill="#404447" d="M238.2,79.3h1.8v0.9c0.4-0.6,1.1-1,2-1c1.5,0,2.9,1.2,2.9,3.3v0c0,2.1-1.4,3.3-2.9,3.3c-1,0-1.6-0.4-2-1
		v2.8h-1.8V79.3z M243.1,82.5L243.1,82.5c0-1.1-0.7-1.8-1.6-1.8s-1.6,0.7-1.6,1.8v0c0,1.1,0.7,1.8,1.6,1.8S243.1,83.6,243.1,82.5z"
		/>
	<path fill="#404447" d="M246.3,79.3h1.8v1.3c0.4-0.9,1-1.5,2.1-1.4v1.9H250c-1.2,0-2,0.7-2,2.3v2.4h-1.8V79.3z"/>
	<path fill="#404447" d="M250.8,82.5L250.8,82.5c0-1.9,1.5-3.4,3.5-3.4c2,0,3.5,1.5,3.5,3.3v0c0,1.8-1.5,3.3-3.5,3.3
		C252.3,85.9,250.8,84.4,250.8,82.5z M256,82.5L256,82.5c0-1-0.7-1.8-1.7-1.8c-1,0-1.7,0.8-1.7,1.8v0c0,0.9,0.7,1.8,1.7,1.8
		C255.3,84.3,256,83.5,256,82.5z"/>
	<path fill="#404447" d="M258.1,87.6v-1.4c0.1,0,0.3,0,0.4,0c0.4,0,0.6-0.2,0.6-0.7v-6.2h1.8v6.3c0,1.4-0.7,2.1-2.1,2.1
		C258.6,87.7,258.4,87.7,258.1,87.6z M259.1,77h1.9v1.6h-1.9V77z"/>
	<path fill="#404447" d="M262.4,82.5L262.4,82.5c0-1.9,1.3-3.4,3.2-3.4c2.1,0,3.1,1.7,3.1,3.5c0,0.1,0,0.3,0,0.5h-4.5
		c0.2,0.8,0.8,1.3,1.6,1.3c0.6,0,1.1-0.2,1.6-0.7l1,0.9c-0.6,0.7-1.5,1.2-2.6,1.2C263.8,85.9,262.4,84.5,262.4,82.5z M266.9,82
		c-0.1-0.8-0.6-1.4-1.4-1.4c-0.8,0-1.2,0.5-1.4,1.4H266.9z"/>
	<path fill="#404447" d="M269.7,82.5L269.7,82.5c0-1.9,1.4-3.4,3.4-3.4c1.2,0,2,0.4,2.6,1.1l-1.1,1.2c-0.4-0.4-0.8-0.7-1.5-0.7
		c-0.9,0-1.6,0.8-1.6,1.8v0c0,1,0.6,1.8,1.6,1.8c0.6,0,1-0.3,1.5-0.7l1.1,1.1c-0.6,0.7-1.3,1.2-2.6,1.2
		C271.2,85.9,269.7,84.4,269.7,82.5z"/>
	<path fill="#404447" d="M277.2,83.9v-3h-0.8v-1.6h0.8v-1.6h1.8v1.6h1.5v1.6H279v2.7c0,0.4,0.2,0.6,0.6,0.6c0.3,0,0.6-0.1,0.9-0.2
		v1.5c-0.4,0.2-0.8,0.4-1.4,0.4C278,85.8,277.2,85.4,277.2,83.9z"/>
	<path fill="#404447" d="M281.4,84.9l0.8-1.2c0.7,0.5,1.4,0.8,2,0.8c0.5,0,0.8-0.2,0.8-0.5v0c0-0.4-0.6-0.5-1.3-0.7
		c-0.9-0.3-1.9-0.7-1.9-1.9v0c0-1.3,1.1-2,2.4-2c0.8,0,1.7,0.3,2.4,0.7l-0.7,1.3c-0.6-0.4-1.3-0.6-1.7-0.6c-0.4,0-0.7,0.2-0.7,0.4v0
		c0,0.4,0.6,0.5,1.3,0.8c0.9,0.3,1.9,0.7,1.9,1.9v0c0,1.4-1.1,2.1-2.5,2.1C283.2,85.8,282.2,85.5,281.4,84.9z"/>
</g>
<g>
	<g>
		<g>
			<g>
				<path fill="#F26522" d="M82.2,126.4c-0.2,0-0.5-0.1-0.7-0.3c-0.4-0.4-0.4-0.9,0-1.3l3.2-3.2l-3.2-3.2c-0.4-0.4-0.4-0.9,0-1.3
					c0.4-0.4,0.9-0.4,1.3,0l3.9,3.9c0.4,0.4,0.4,0.9,0,1.3l-3.9,3.9C82.7,126.3,82.4,126.4,82.2,126.4L82.2,126.4z"/>
			</g>
			<g>
				<path fill="#F26522" d="M73.9,122.6c-0.5,0-0.9-0.4-0.9-0.9c0-0.5,0.4-0.9,0.9-0.9l11.2,0c0.5,0,0.9,0.4,0.9,0.9
					c0,0.5-0.4,0.9-0.9,0.9L73.9,122.6L73.9,122.6z"/>
			</g>
		</g>
		<g>
			<path fill="#F26522" d="M90,132.6H69.9c-0.5,0-0.9-0.4-0.9-0.9v-20.1c0-0.5,0.4-0.9,0.9-0.9H90c0.5,0,0.9,0.4,0.9,0.9v20.1
				C90.9,132.2,90.5,132.6,90,132.6L90,132.6z M70.8,130.8h18.2v-18.2H70.8V130.8L70.8,130.8z"/>
		</g>
	</g>
	<g>
		<g>
			<path fill="#F26522" d="M276.7,123.9c-0.2,0-0.5-0.1-0.7-0.3l-3-2.7c-0.4-0.4-0.4-1-0.1-1.4c0.4-0.4,1-0.4,1.4-0.1l2.4,2.1
				l2.4-2.1c0.4-0.4,1-0.3,1.4,0.1c0.4,0.4,0.3,1-0.1,1.4l-3,2.7C277.1,123.8,276.9,123.9,276.7,123.9L276.7,123.9z"/>
		</g>
		<g>
			<path fill="#F26522" d="M276.8,122.6c-0.6,0-1-0.4-1-1c0-4.8-3.9-8.7-8.7-8.7c-3,0-5.7,1.5-7.3,4c-0.3,0.5-0.9,0.6-1.4,0.3
				c-0.5-0.3-0.6-0.9-0.3-1.4c2-3.1,5.3-4.9,9-4.9c5.9,0,10.7,4.8,10.7,10.7C277.8,122.1,277.4,122.6,276.8,122.6L276.8,122.6z"/>
		</g>
		<g>
			<path fill="#F26522" d="M267.2,132.4c-5.9,0-10.7-4.8-10.7-10.7c0-0.6,0.4-1,1-1c0.6,0,1,0.4,1,1c0,4.8,3.9,8.7,8.7,8.7
				c3,0,5.7-1.5,7.3-4c0.3-0.5,0.9-0.6,1.4-0.3c0.5,0.3,0.6,0.9,0.3,1.4C274.2,130.6,270.9,132.4,267.2,132.4L267.2,132.4z"/>
		</g>
		<g>
			<path fill="#F26522" d="M260.6,124.1c-0.2,0-0.5-0.1-0.7-0.3l-2.4-2.1l-2.4,2.1c-0.4,0.4-1,0.3-1.4-0.1c-0.4-0.4-0.3-1,0.1-1.4
				l3-2.7c0.4-0.3,1-0.3,1.3,0l3,2.7c0.4,0.4,0.4,1,0.1,1.4C261.2,124,260.9,124.1,260.6,124.1L260.6,124.1z"/>
		</g>
	</g>
	<g>
		<path fill="#404447" d="M13,121.6L13,121.6c0-2.4,1.8-4.4,4.4-4.4c1.6,0,2.5,0.5,3.3,1.3l-1.2,1.4c-0.6-0.6-1.3-0.9-2.1-0.9
			c-1.4,0-2.4,1.2-2.4,2.6v0c0,1.4,1,2.6,2.4,2.6c1,0,1.5-0.4,2.2-1l1.2,1.2c-0.9,0.9-1.8,1.5-3.4,1.5C14.8,125.9,13,124,13,121.6z"
			/>
		<path fill="#404447" d="M22,117h1.8v3.2c0.4-0.5,1-1,1.9-1c1.4,0,2.2,0.9,2.2,2.4v4.2h-1.8v-3.6c0-0.9-0.4-1.3-1.1-1.3
			c-0.7,0-1.1,0.4-1.1,1.3v3.6H22V117z"/>
		<path fill="#404447" d="M29.1,123.9L29.1,123.9c0-1.4,1.1-2.1,2.6-2.1c0.6,0,1.1,0.1,1.6,0.3V122c0-0.8-0.5-1.2-1.4-1.2
			c-0.7,0-1.2,0.1-1.8,0.3l-0.5-1.4c0.7-0.3,1.4-0.5,2.5-0.5c1,0,1.7,0.3,2.2,0.7c0.5,0.5,0.7,1.2,0.7,2.1v3.7h-1.8V125
			c-0.4,0.5-1.1,0.8-1.9,0.8C30.1,125.8,29.1,125.1,29.1,123.9z M33.3,123.5v-0.3c-0.3-0.1-0.7-0.2-1.2-0.2c-0.8,0-1.3,0.3-1.3,0.9
			v0c0,0.5,0.4,0.8,1,0.8C32.7,124.6,33.3,124.1,33.3,123.5z"/>
		<path fill="#404447" d="M36.6,119.3h1.8v0.9c0.4-0.5,1-1,1.9-1c1.4,0,2.2,0.9,2.2,2.4v4.2h-1.8v-3.6c0-0.9-0.4-1.3-1.1-1.3
			c-0.7,0-1.1,0.4-1.1,1.3v3.6h-1.8V119.3z"/>
		<path fill="#404447" d="M44.1,127l0.6-1.4c0.7,0.4,1.3,0.6,2.2,0.6c1.2,0,1.8-0.6,1.8-1.8v-0.3c-0.5,0.6-1.1,1-2.1,1
			c-1.5,0-2.9-1.1-2.9-3v0c0-1.9,1.4-3,2.9-3c1,0,1.6,0.4,2.1,1v-0.8h1.8v5c0,1.2-0.3,2-0.8,2.5c-0.6,0.6-1.5,0.9-2.8,0.9
			C45.9,127.7,44.9,127.4,44.1,127z M48.8,122.2L48.8,122.2c0-0.9-0.7-1.5-1.6-1.5s-1.6,0.6-1.6,1.5v0c0,0.9,0.7,1.5,1.6,1.5
			S48.8,123.1,48.8,122.2z"/>
		<path fill="#404447" d="M51.9,122.5L51.9,122.5c0-1.9,1.3-3.4,3.2-3.4c2.1,0,3.1,1.7,3.1,3.5c0,0.1,0,0.3,0,0.5h-4.5
			c0.2,0.8,0.8,1.3,1.6,1.3c0.6,0,1.1-0.2,1.6-0.7l1,0.9c-0.6,0.7-1.5,1.2-2.6,1.2C53.3,125.9,51.9,124.5,51.9,122.5z M56.4,122
			c-0.1-0.8-0.6-1.4-1.4-1.4c-0.8,0-1.2,0.5-1.4,1.4H56.4z"/>
		<path fill="#404447" d="M59,124.9l0.8-1.2c0.7,0.5,1.4,0.8,2,0.8c0.5,0,0.8-0.2,0.8-0.5v0c0-0.4-0.6-0.5-1.3-0.7
			c-0.9-0.3-1.9-0.7-1.9-1.9v0c0-1.3,1.1-2,2.4-2c0.8,0,1.7,0.3,2.4,0.7l-0.7,1.3c-0.6-0.4-1.3-0.6-1.7-0.6c-0.4,0-0.7,0.2-0.7,0.4
			v0c0,0.4,0.6,0.5,1.3,0.8c0.9,0.3,1.9,0.7,1.9,1.9v0c0,1.4-1.1,2.1-2.5,2.1C60.9,125.8,59.9,125.5,59,124.9z"/>
		<path fill="#404447" d="M98.3,123.9v-3h-0.8v-1.6h0.8v-1.6h1.8v1.6h1.5v1.6h-1.5v2.7c0,0.4,0.2,0.6,0.6,0.6c0.3,0,0.6-0.1,0.9-0.2
			v1.5c-0.4,0.2-0.8,0.4-1.4,0.4C99,125.8,98.3,125.4,98.3,123.9z"/>
		<path fill="#404447" d="M102.5,122.5L102.5,122.5c0-1.9,1.5-3.4,3.5-3.4c2,0,3.5,1.5,3.5,3.3v0c0,1.8-1.5,3.3-3.5,3.3
			C103.9,125.9,102.5,124.4,102.5,122.5z M107.6,122.5L107.6,122.5c0-1-0.7-1.8-1.7-1.8c-1,0-1.7,0.8-1.7,1.8v0
			c0,0.9,0.7,1.8,1.7,1.8C107,124.3,107.6,123.5,107.6,122.5z"/>
		<path fill="#404447" d="M114.3,119.3h1.8v0.9c0.4-0.6,1.1-1,2-1c1.5,0,2.9,1.2,2.9,3.3v0c0,2.1-1.4,3.3-2.9,3.3c-1,0-1.6-0.4-2-1
			v2.8h-1.8V119.3z M119.3,122.5L119.3,122.5c0-1.1-0.7-1.8-1.6-1.8s-1.6,0.7-1.6,1.8v0c0,1.1,0.7,1.8,1.6,1.8
			S119.3,123.6,119.3,122.5z"/>
		<path fill="#404447" d="M122.4,119.3h1.8v1.3c0.4-0.9,1-1.5,2.1-1.4v1.9h-0.1c-1.2,0-2,0.7-2,2.3v2.4h-1.8V119.3z"/>
		<path fill="#404447" d="M127,122.5L127,122.5c0-1.9,1.5-3.4,3.5-3.4c2,0,3.5,1.5,3.5,3.3v0c0,1.8-1.5,3.3-3.5,3.3
			C128.4,125.9,127,124.4,127,122.5z M132.1,122.5L132.1,122.5c0-1-0.7-1.8-1.7-1.8c-1,0-1.7,0.8-1.7,1.8v0c0,0.9,0.7,1.8,1.7,1.8
			C131.5,124.3,132.1,123.5,132.1,122.5z"/>
		<path fill="#404447" d="M134.3,127.6v-1.4c0.1,0,0.3,0,0.4,0c0.4,0,0.6-0.2,0.6-0.7v-6.2h1.8v6.3c0,1.4-0.7,2.1-2.1,2.1
			C134.8,127.7,134.6,127.7,134.3,127.6z M135.3,117h1.9v1.6h-1.9V117z"/>
		<path fill="#404447" d="M138.6,122.5L138.6,122.5c0-1.9,1.3-3.4,3.2-3.4c2.1,0,3.1,1.7,3.1,3.5c0,0.1,0,0.3,0,0.5h-4.5
			c0.2,0.8,0.8,1.3,1.6,1.3c0.6,0,1.1-0.2,1.6-0.7l1,0.9c-0.6,0.7-1.5,1.2-2.6,1.2C140,125.9,138.6,124.5,138.6,122.5z M143.1,122
			c-0.1-0.8-0.6-1.4-1.4-1.4c-0.8,0-1.2,0.5-1.4,1.4H143.1z"/>
		<path fill="#404447" d="M145.9,122.5L145.9,122.5c0-1.9,1.4-3.4,3.4-3.4c1.2,0,2,0.4,2.6,1.1l-1.1,1.2c-0.4-0.4-0.8-0.7-1.5-0.7
			c-0.9,0-1.6,0.8-1.6,1.8v0c0,1,0.6,1.8,1.6,1.8c0.6,0,1-0.3,1.5-0.7l1.1,1.1c-0.6,0.7-1.3,1.2-2.6,1.2
			C147.3,125.9,145.9,124.4,145.9,122.5z"/>
		<path fill="#404447" d="M153.4,123.9v-3h-0.8v-1.6h0.8v-1.6h1.8v1.6h1.5v1.6h-1.5v2.7c0,0.4,0.2,0.6,0.6,0.6
			c0.3,0,0.6-0.1,0.9-0.2v1.5c-0.4,0.2-0.8,0.4-1.4,0.4C154.1,125.8,153.4,125.4,153.4,123.9z"/>
		<path fill="#404447" d="M157.6,124.9l0.8-1.2c0.7,0.5,1.4,0.8,2,0.8c0.5,0,0.8-0.2,0.8-0.5v0c0-0.4-0.6-0.5-1.3-0.7
			c-0.9-0.3-1.9-0.7-1.9-1.9v0c0-1.3,1.1-2,2.4-2c0.8,0,1.7,0.3,2.4,0.7l-0.7,1.3c-0.6-0.4-1.3-0.6-1.7-0.6c-0.4,0-0.7,0.2-0.7,0.4
			v0c0,0.4,0.6,0.5,1.3,0.8c0.9,0.3,1.9,0.7,1.9,1.9v0c0,1.4-1.1,2.1-2.5,2.1C159.4,125.8,158.4,125.5,157.6,124.9z"/>
		<path fill="#404447" d="M163.6,126.9c0.8-0.1,1.2-0.5,1.2-1.2H164v-1.9h1.9v1.6c0,1.6-0.8,2.2-2.2,2.2L163.6,126.9z"/>
		<path fill="#404447" d="M171.1,119.3h1.8v0.9c0.4-0.6,1.1-1,2-1c1.5,0,2.9,1.2,2.9,3.3v0c0,2.1-1.4,3.3-2.9,3.3c-1,0-1.6-0.4-2-1
			v2.8h-1.8V119.3z M176,122.5L176,122.5c0-1.1-0.7-1.8-1.6-1.8s-1.6,0.7-1.6,1.8v0c0,1.1,0.7,1.8,1.6,1.8S176,123.6,176,122.5z"/>
		<path fill="#404447" d="M179.3,117h1.8v8.8h-1.8V117z"/>
		<path fill="#404447" d="M182.8,123.5v-4.2h1.8v3.6c0,0.9,0.4,1.3,1.1,1.3c0.7,0,1.1-0.4,1.1-1.3v-3.6h1.8v6.4h-1.8v-0.9
			c-0.4,0.5-1,1-1.9,1C183.6,125.8,182.8,124.9,182.8,123.5z"/>
		<path fill="#404447" d="M189.8,124.9l0.8-1.2c0.7,0.5,1.4,0.8,2,0.8c0.5,0,0.8-0.2,0.8-0.5v0c0-0.4-0.6-0.5-1.3-0.7
			c-0.9-0.3-1.9-0.7-1.9-1.9v0c0-1.3,1.1-2,2.4-2c0.8,0,1.7,0.3,2.4,0.7l-0.7,1.3c-0.6-0.4-1.3-0.6-1.7-0.6c-0.4,0-0.7,0.2-0.7,0.4
			v0c0,0.4,0.6,0.5,1.3,0.8c0.9,0.3,1.9,0.7,1.9,1.9v0c0,1.4-1.1,2.1-2.5,2.1C191.7,125.8,190.7,125.5,189.8,124.9z"/>
		<path fill="#404447" d="M199.9,123.5v-4.2h1.8v3.6c0,0.9,0.4,1.3,1.1,1.3c0.7,0,1.1-0.4,1.1-1.3v-3.6h1.8v6.4H204v-0.9
			c-0.4,0.5-1,1-1.9,1C200.7,125.8,199.9,124.9,199.9,123.5z"/>
		<path fill="#404447" d="M207.4,119.3h1.8v0.9c0.4-0.6,1.1-1,2-1c1.5,0,2.9,1.2,2.9,3.3v0c0,2.1-1.4,3.3-2.9,3.3c-1,0-1.6-0.4-2-1
			v2.8h-1.8V119.3z M212.3,122.5L212.3,122.5c0-1.1-0.7-1.8-1.6-1.8s-1.6,0.7-1.6,1.8v0c0,1.1,0.7,1.8,1.6,1.8
			S212.3,123.6,212.3,122.5z"/>
		<path fill="#404447" d="M215.2,122.5L215.2,122.5c0-2.2,1.4-3.3,2.9-3.3c1,0,1.6,0.4,2,1V117h1.8v8.8h-1.8v-0.9
			c-0.4,0.6-1.1,1-2,1C216.7,125.8,215.2,124.7,215.2,122.5z M220.2,122.5L220.2,122.5c0-1.1-0.7-1.8-1.6-1.8s-1.6,0.7-1.6,1.8v0
			c0,1.1,0.7,1.8,1.6,1.8S220.2,123.6,220.2,122.5z"/>
		<path fill="#404447" d="M223.2,123.9L223.2,123.9c0-1.4,1.1-2.1,2.6-2.1c0.6,0,1.1,0.1,1.6,0.3V122c0-0.8-0.5-1.2-1.4-1.2
			c-0.7,0-1.2,0.1-1.8,0.3l-0.5-1.4c0.7-0.3,1.4-0.5,2.5-0.5c1,0,1.7,0.3,2.2,0.7c0.5,0.5,0.7,1.2,0.7,2.1v3.7h-1.8V125
			c-0.4,0.5-1.1,0.8-1.9,0.8C224.2,125.8,223.2,125.1,223.2,123.9z M227.4,123.5v-0.3c-0.3-0.1-0.7-0.2-1.2-0.2
			c-0.8,0-1.3,0.3-1.3,0.9v0c0,0.5,0.4,0.8,1,0.8C226.8,124.6,227.4,124.1,227.4,123.5z"/>
		<path fill="#404447" d="M231,123.9v-3h-0.8v-1.6h0.8v-1.6h1.8v1.6h1.5v1.6h-1.5v2.7c0,0.4,0.2,0.6,0.6,0.6c0.3,0,0.6-0.1,0.9-0.2
			v1.5c-0.4,0.2-0.8,0.4-1.4,0.4C231.7,125.8,231,125.4,231,123.9z"/>
		<path fill="#404447" d="M235.1,122.5L235.1,122.5c0-1.9,1.3-3.4,3.2-3.4c2.1,0,3.1,1.7,3.1,3.5c0,0.1,0,0.3,0,0.5H237
			c0.2,0.8,0.8,1.3,1.6,1.3c0.6,0,1.1-0.2,1.6-0.7l1,0.9c-0.6,0.7-1.5,1.2-2.6,1.2C236.6,125.9,235.1,124.5,235.1,122.5z M239.7,122
			c-0.1-0.8-0.6-1.4-1.4-1.4c-0.8,0-1.2,0.5-1.4,1.4H239.7z"/>
		<path fill="#404447" d="M242.3,124.9l0.8-1.2c0.7,0.5,1.4,0.8,2,0.8c0.5,0,0.8-0.2,0.8-0.5v0c0-0.4-0.6-0.5-1.3-0.7
			c-0.9-0.3-1.9-0.7-1.9-1.9v0c0-1.3,1.1-2,2.4-2c0.8,0,1.7,0.3,2.4,0.7l-0.7,1.3c-0.6-0.4-1.3-0.6-1.7-0.6c-0.4,0-0.7,0.2-0.7,0.4
			v0c0,0.4,0.6,0.5,1.3,0.8c0.9,0.3,1.9,0.7,1.9,1.9v0c0,1.4-1.1,2.1-2.5,2.1C244.2,125.8,243.2,125.5,242.3,124.9z"/>
	</g>
</g>
<g>
	<g>
		<g>
			<path fill="#F08921" d="M88.8,212.2c-0.1,0-0.3,0-0.4-0.1l-9.6-4.8c-0.3-0.2-0.5-0.5-0.5-0.9v-9.5c0-0.4,0.2-0.8,0.5-0.9l9.6-4.8
				c0.2-0.1,0.5-0.1,0.8,0l9.6,4.8c0.3,0.2,0.5,0.5,0.5,0.9v9.5c0,0.4-0.2,0.8-0.5,0.9l-9.6,4.8C89.1,212.2,88.9,212.2,88.8,212.2
				L88.8,212.2z M80.2,205.8l8.6,4.3l8.6-4.3v-8.2l-8.6-4.3l-8.6,4.3V205.8L80.2,205.8z"/>
		</g>
		<g>
			<path fill="#F08921" d="M88.8,202.9c-0.1,0-0.3,0-0.4-0.1l-9.6-4.8c-0.5-0.2-0.7-0.8-0.5-1.4c0.2-0.5,0.8-0.7,1.2-0.5l9.2,4.6
				l9.2-4.6c0.5-0.2,1,0,1.2,0.5c0.2,0.5,0,1.1-0.5,1.4l-9.6,4.8C89.1,202.9,88.9,202.9,88.8,202.9L88.8,202.9z"/>
		</g>
		<g>
			<path fill="#F08921" d="M94,200.1c-0.1,0-0.1,0-0.2,0l-9.6-4.8c-0.2-0.1-0.3-0.4-0.2-0.7c0.1-0.3,0.4-0.4,0.6-0.3l9.6,4.8
				c0.2,0.1,0.3,0.4,0.2,0.7C94.3,200,94.1,200.1,94,200.1L94,200.1z"/>
		</g>
		<g>
			<path fill="#F08921" d="M88.8,211.8c-0.5,0-0.9-0.5-0.9-1v-7.9c0-0.6,0.4-1,0.9-1c0.5,0,0.9,0.5,0.9,1v7.9
				C89.7,211.4,89.3,211.8,88.8,211.8L88.8,211.8z"/>
		</g>
	</g>
	<g>
		<g>
			<path fill="#404447" d="M194.8,212.2c-0.1,0-0.3,0-0.4-0.1l-9.6-4.8c-0.3-0.2-0.5-0.5-0.5-0.9v-9.5c0-0.4,0.2-0.8,0.5-0.9
				l9.6-4.8c0.2-0.1,0.5-0.1,0.8,0l9.6,4.8c0.3,0.2,0.5,0.5,0.5,0.9v9.5c0,0.4-0.2,0.8-0.5,0.9l-9.6,4.8
				C195.1,212.2,194.9,212.2,194.8,212.2L194.8,212.2z M186.2,205.8l8.6,4.3l8.6-4.3v-8.2l-8.6-4.3l-8.6,4.3V205.8L186.2,205.8z"/>
		</g>
		<g>
			<path fill="#404447" d="M194.8,202.9c-0.1,0-0.3,0-0.4-0.1l-9.6-4.8c-0.5-0.2-0.7-0.8-0.5-1.4c0.2-0.5,0.8-0.7,1.2-0.5l9.2,4.6
				l9.2-4.6c0.5-0.2,1,0,1.2,0.5c0.2,0.5,0,1.1-0.5,1.4l-9.6,4.8C195.1,202.9,194.9,202.9,194.8,202.9L194.8,202.9z"/>
		</g>
		<g>
			<path fill="#404447" d="M200,200.1c-0.1,0-0.1,0-0.2,0l-9.6-4.8c-0.2-0.1-0.3-0.4-0.2-0.7c0.1-0.3,0.4-0.4,0.6-0.3l9.6,4.8
				c0.2,0.1,0.3,0.4,0.2,0.7C200.3,200,200.1,200.1,200,200.1L200,200.1z"/>
		</g>
		<g>
			<path fill="#404447" d="M194.8,211.8c-0.5,0-0.9-0.5-0.9-1v-7.9c0-0.6,0.4-1,0.9-1c0.5,0,0.9,0.5,0.9,1v7.9
				C195.7,211.4,195.3,211.8,194.8,211.8L194.8,211.8z"/>
		</g>
	</g>
	<g>
		<path fill="#404447" d="M13.4,196.6h3.4c2,0,3.2,1.2,3.2,2.9v0c0,1.9-1.5,3-3.4,3h-1.4v2.5h-1.8V196.6z M16.7,200.8
			c0.9,0,1.5-0.6,1.5-1.3v0c0-0.8-0.6-1.3-1.5-1.3h-1.4v2.6H16.7z"/>
		<path fill="#404447" d="M21.2,198.5H23v1.3c0.4-0.9,1-1.5,2.1-1.4v1.9H25c-1.2,0-2,0.7-2,2.3v2.4h-1.8V198.5z"/>
		<path fill="#404447" d="M25.7,201.8L25.7,201.8c0-1.9,1.5-3.4,3.5-3.4c2,0,3.5,1.5,3.5,3.3v0c0,1.8-1.5,3.3-3.5,3.3
			C27.2,205.1,25.7,203.6,25.7,201.8z M30.9,201.8L30.9,201.8c0-1-0.7-1.8-1.7-1.8c-1,0-1.7,0.8-1.7,1.8v0c0,0.9,0.7,1.8,1.7,1.8
			C30.3,203.5,30.9,202.7,30.9,201.8z"/>
		<path fill="#404447" d="M34,198.5h1.8v0.9c0.4-0.5,1-1,1.9-1c0.8,0,1.5,0.4,1.8,1c0.6-0.7,1.2-1,2.1-1c1.4,0,2.2,0.8,2.2,2.4v4.2
			H42v-3.6c0-0.9-0.4-1.3-1.1-1.3s-1.1,0.4-1.1,1.3v3.6H38v-3.6c0-0.9-0.4-1.3-1.1-1.3s-1.1,0.4-1.1,1.3v3.6H34V198.5z"/>
		<path fill="#404447" d="M45.1,201.8L45.1,201.8c0-1.9,1.5-3.4,3.5-3.4c2,0,3.5,1.5,3.5,3.3v0c0,1.8-1.5,3.3-3.5,3.3
			C46.6,205.1,45.1,203.6,45.1,201.8z M50.3,201.8L50.3,201.8c0-1-0.7-1.8-1.7-1.8c-1,0-1.7,0.8-1.7,1.8v0c0,0.9,0.7,1.8,1.7,1.8
			C49.6,203.5,50.3,202.7,50.3,201.8z"/>
		<path fill="#404447" d="M53.7,203.1v-3h-0.8v-1.6h0.8v-1.6h1.8v1.6H57v1.6h-1.5v2.7c0,0.4,0.2,0.6,0.6,0.6c0.3,0,0.6-0.1,0.9-0.2
			v1.5c-0.4,0.2-0.8,0.4-1.4,0.4C54.4,205.1,53.7,204.6,53.7,203.1z"/>
		<path fill="#404447" d="M57.9,201.8L57.9,201.8c0-1.9,1.3-3.4,3.2-3.4c2.1,0,3.1,1.7,3.1,3.5c0,0.1,0,0.3,0,0.5h-4.5
			c0.2,0.8,0.8,1.3,1.6,1.3c0.6,0,1.1-0.2,1.6-0.7l1,0.9c-0.6,0.7-1.5,1.2-2.6,1.2C59.3,205.1,57.9,203.8,57.9,201.8z M62.4,201.2
			c-0.1-0.8-0.6-1.4-1.4-1.4c-0.8,0-1.2,0.5-1.4,1.4H62.4z"/>
		<path fill="#404447" d="M65.2,201.8L65.2,201.8c0-2.2,1.4-3.3,2.9-3.3c1,0,1.6,0.4,2,1v-3.2H72v8.8h-1.8V204c-0.4,0.6-1.1,1-2,1
			C66.7,205.1,65.2,203.9,65.2,201.8z M70.2,201.8L70.2,201.8c0-1.1-0.7-1.8-1.6-1.8s-1.6,0.7-1.6,1.8v0c0,1.1,0.7,1.8,1.6,1.8
			S70.2,202.8,70.2,201.8z"/>
		<path fill="#404447" d="M105.6,203.1L105.6,203.1c0-1.4,1.1-2.1,2.6-2.1c0.6,0,1.1,0.1,1.6,0.3v-0.1c0-0.8-0.5-1.2-1.4-1.2
			c-0.7,0-1.2,0.1-1.8,0.3l-0.5-1.4c0.7-0.3,1.4-0.5,2.5-0.5c1,0,1.7,0.3,2.2,0.7c0.5,0.5,0.7,1.2,0.7,2.1v3.7h-1.8v-0.7
			c-0.4,0.5-1.1,0.8-1.9,0.8C106.6,205.1,105.6,204.4,105.6,203.1z M109.8,202.7v-0.3c-0.3-0.1-0.7-0.2-1.2-0.2
			c-0.8,0-1.3,0.3-1.3,0.9v0c0,0.5,0.4,0.8,1,0.8C109.3,203.8,109.8,203.4,109.8,202.7z"/>
		<path fill="#404447" d="M113.1,198.5h1.8v0.9c0.4-0.5,1-1,1.9-1c1.4,0,2.2,0.9,2.2,2.4v4.2h-1.8v-3.6c0-0.9-0.4-1.3-1.1-1.3
			c-0.7,0-1.1,0.4-1.1,1.3v3.6h-1.8V198.5z"/>
		<path fill="#404447" d="M120.3,201.8L120.3,201.8c0-2.2,1.4-3.3,2.9-3.3c1,0,1.6,0.4,2,1v-3.2h1.8v8.8h-1.8V204
			c-0.4,0.6-1.1,1-2,1C121.7,205.1,120.3,203.9,120.3,201.8z M125.3,201.8L125.3,201.8c0-1.1-0.7-1.8-1.6-1.8s-1.6,0.7-1.6,1.8v0
			c0,1.1,0.7,1.8,1.6,1.8S125.3,202.8,125.3,201.8z"/>
		<path fill="#404447" d="M134.1,204.1v0.8h-1.8v-8.8h1.8v3.3c0.4-0.6,1.1-1,2-1c1.5,0,2.9,1.2,2.9,3.3v0c0,2.1-1.4,3.3-2.9,3.3
			C135.2,205.1,134.6,204.6,134.1,204.1z M137.2,201.8L137.2,201.8c0-1.1-0.7-1.8-1.6-1.8s-1.6,0.7-1.6,1.8v0c0,1.1,0.7,1.8,1.6,1.8
			S137.2,202.8,137.2,201.8z"/>
		<path fill="#404447" d="M140.5,196.2h1.8v8.8h-1.8V196.2z"/>
		<path fill="#404447" d="M143.7,201.8L143.7,201.8c0-1.9,1.5-3.4,3.5-3.4c2,0,3.5,1.5,3.5,3.3v0c0,1.8-1.5,3.3-3.5,3.3
			C145.2,205.1,143.7,203.6,143.7,201.8z M148.9,201.8L148.9,201.8c0-1-0.7-1.8-1.7-1.8c-1,0-1.7,0.8-1.7,1.8v0
			c0,0.9,0.7,1.8,1.7,1.8C148.3,203.5,148.9,202.7,148.9,201.8z"/>
		<path fill="#404447" d="M151.7,201.8L151.7,201.8c0-1.9,1.4-3.4,3.4-3.4c1.2,0,2,0.4,2.6,1.1l-1.1,1.2c-0.4-0.4-0.8-0.7-1.5-0.7
			c-0.9,0-1.6,0.8-1.6,1.8v0c0,1,0.6,1.8,1.6,1.8c0.6,0,1-0.3,1.5-0.7l1.1,1.1c-0.6,0.7-1.3,1.2-2.6,1.2
			C153.1,205.1,151.7,203.6,151.7,201.8z"/>
		<path fill="#404447" d="M158.9,196.2h1.8v4.7l2.1-2.3h2.2l-2.4,2.5l2.5,3.9H163l-1.7-2.6l-0.6,0.7v2h-1.8V196.2z"/>
		<path fill="#404447" d="M165.3,201.8L165.3,201.8c0-1.9,1.3-3.4,3.2-3.4c2.1,0,3.1,1.7,3.1,3.5c0,0.1,0,0.3,0,0.5h-4.5
			c0.2,0.8,0.8,1.3,1.6,1.3c0.6,0,1.1-0.2,1.6-0.7l1,0.9c-0.6,0.7-1.5,1.2-2.6,1.2C166.8,205.1,165.3,203.8,165.3,201.8z
			 M169.9,201.2c-0.1-0.8-0.6-1.4-1.4-1.4c-0.8,0-1.2,0.5-1.4,1.4H169.9z"/>
		<path fill="#404447" d="M172.7,201.8L172.7,201.8c0-2.2,1.4-3.3,2.9-3.3c1,0,1.6,0.4,2,1v-3.2h1.8v8.8h-1.8V204
			c-0.4,0.6-1.1,1-2,1C174.2,205.1,172.7,203.9,172.7,201.8z M177.7,201.8L177.7,201.8c0-1.1-0.7-1.8-1.6-1.8s-1.6,0.7-1.6,1.8v0
			c0,1.1,0.7,1.8,1.6,1.8S177.7,202.8,177.7,201.8z"/>
		<path fill="#404447" d="M209.9,198.5h1.8v0.9c0.4-0.6,1.1-1,2-1c1.5,0,2.9,1.2,2.9,3.3v0c0,2.1-1.4,3.3-2.9,3.3c-1,0-1.6-0.4-2-1
			v2.8h-1.8V198.5z M214.8,201.8L214.8,201.8c0-1.1-0.7-1.8-1.6-1.8s-1.6,0.7-1.6,1.8v0c0,1.1,0.7,1.8,1.6,1.8
			S214.8,202.8,214.8,201.8z"/>
		<path fill="#404447" d="M218,198.5h1.8v1.3c0.4-0.9,1-1.5,2.1-1.4v1.9h-0.1c-1.2,0-2,0.7-2,2.3v2.4H218V198.5z"/>
		<path fill="#404447" d="M222.5,201.8L222.5,201.8c0-1.9,1.5-3.4,3.5-3.4c2,0,3.5,1.5,3.5,3.3v0c0,1.8-1.5,3.3-3.5,3.3
			C224,205.1,222.5,203.6,222.5,201.8z M227.7,201.8L227.7,201.8c0-1-0.7-1.8-1.7-1.8c-1,0-1.7,0.8-1.7,1.8v0c0,0.9,0.7,1.8,1.7,1.8
			C227.1,203.5,227.7,202.7,227.7,201.8z"/>
		<path fill="#404447" d="M229.9,206.8v-1.4c0.1,0,0.3,0,0.4,0c0.4,0,0.6-0.2,0.6-0.7v-6.2h1.8v6.3c0,1.4-0.7,2.1-2.1,2.1
			C230.3,206.9,230.1,206.9,229.9,206.8z M230.9,196.2h1.9v1.6h-1.9V196.2z"/>
		<path fill="#404447" d="M234.1,201.8L234.1,201.8c0-1.9,1.3-3.4,3.2-3.4c2.1,0,3.1,1.7,3.1,3.5c0,0.1,0,0.3,0,0.5h-4.5
			c0.2,0.8,0.8,1.3,1.6,1.3c0.6,0,1.1-0.2,1.6-0.7l1,0.9c-0.6,0.7-1.5,1.2-2.6,1.2C235.6,205.1,234.1,203.8,234.1,201.8z
			 M238.7,201.2c-0.1-0.8-0.6-1.4-1.4-1.4c-0.8,0-1.2,0.5-1.4,1.4H238.7z"/>
		<path fill="#404447" d="M241.5,201.8L241.5,201.8c0-1.9,1.4-3.4,3.4-3.4c1.2,0,2,0.4,2.6,1.1l-1.1,1.2c-0.4-0.4-0.8-0.7-1.5-0.7
			c-0.9,0-1.6,0.8-1.6,1.8v0c0,1,0.6,1.8,1.6,1.8c0.6,0,1-0.3,1.5-0.7l1.1,1.1c-0.6,0.7-1.3,1.2-2.6,1.2
			C242.9,205.1,241.5,203.6,241.5,201.8z"/>
		<path fill="#404447" d="M248.9,203.1v-3h-0.8v-1.6h0.8v-1.6h1.8v1.6h1.5v1.6h-1.5v2.7c0,0.4,0.2,0.6,0.6,0.6
			c0.3,0,0.6-0.1,0.9-0.2v1.5c-0.4,0.2-0.8,0.4-1.4,0.4C249.7,205.1,248.9,204.6,248.9,203.1z"/>
		<path fill="#404447" d="M253.1,204.1l0.8-1.2c0.7,0.5,1.4,0.8,2,0.8c0.5,0,0.8-0.2,0.8-0.5v0c0-0.4-0.6-0.5-1.3-0.7
			c-0.9-0.3-1.9-0.7-1.9-1.9v0c0-1.3,1.1-2,2.4-2c0.8,0,1.7,0.3,2.4,0.7l-0.7,1.3c-0.6-0.4-1.3-0.6-1.7-0.6c-0.4,0-0.7,0.2-0.7,0.4
			v0c0,0.4,0.6,0.5,1.3,0.8c0.9,0.3,1.9,0.7,1.9,1.9v0c0,1.4-1.1,2.1-2.5,2.1C255,205.1,254,204.8,253.1,204.1z"/>
	</g>
</g>
<g>
	<g>
		<g>
			<g>
				<path fill="#ED1C24" d="M182.6,165.1c-0.2,0-0.5-0.1-0.6-0.3c-0.4-0.4-0.4-0.9,0-1.3l5.1-5.1c0.4-0.4,0.9-0.4,1.3,0
					c0.4,0.4,0.4,0.9,0,1.3l-5.1,5.1C183,165,182.8,165.1,182.6,165.1L182.6,165.1z"/>
			</g>
			<g>
				<path fill="#ED1C24" d="M187.7,165.1c-0.2,0-0.5-0.1-0.6-0.3l-5.1-5.1c-0.4-0.4-0.4-0.9,0-1.3c0.4-0.4,0.9-0.4,1.3,0l5.1,5.1
					c0.4,0.4,0.4,0.9,0,1.3C188.1,165,187.9,165.1,187.7,165.1L187.7,165.1z"/>
			</g>
		</g>
		<g>
			<path fill="#ED1C24" d="M195.1,172.6h-20c-0.5,0-0.9-0.4-0.9-0.9v-20c0-0.5,0.4-0.9,0.9-0.9h20c0.5,0,0.9,0.4,0.9,0.9v20
				C196,172.2,195.6,172.6,195.1,172.6L195.1,172.6z M176,170.7h18.2v-18.2H176V170.7L176,170.7z"/>
		</g>
	</g>
	<g>
		<g>
			<path fill="#006838" d="M90.5,165.3c-0.3,0-0.5-0.1-0.7-0.3l-2.4-2.5c-0.3-0.4-0.3-0.9,0-1.3c0.4-0.3,0.9-0.3,1.3,0l1.7,1.7
				l4.6-5.6c0.3-0.4,0.9-0.4,1.3-0.1c0.4,0.3,0.4,0.9,0.1,1.3l-5.2,6.4C91.1,165.2,90.8,165.3,90.5,165.3
				C90.5,165.3,90.5,165.3,90.5,165.3L90.5,165.3z"/>
		</g>
		<g>
			<path fill="#006838" d="M102,172.6H82c-0.5,0-0.9-0.4-0.9-0.9v-20c0-0.5,0.4-0.9,0.9-0.9h20c0.5,0,0.9,0.4,0.9,0.9v20
				C102.9,172.2,102.5,172.6,102,172.6L102,172.6z M82.9,170.7H101v-18.2H82.9V170.7L82.9,170.7z"/>
		</g>
	</g>
	<g>
		<path fill="#404447" d="M12.8,163.9l1.1-1.3c0.8,0.6,1.5,1,2.5,1c0.8,0,1.2-0.3,1.2-0.8v0c0-0.5-0.3-0.7-1.7-1.1
			c-1.7-0.4-2.8-0.9-2.8-2.6v0c0-1.5,1.2-2.5,2.9-2.5c1.2,0,2.3,0.4,3.1,1.1l-1,1.4c-0.7-0.5-1.5-0.8-2.2-0.8
			c-0.7,0-1.1,0.3-1.1,0.7v0c0,0.6,0.4,0.7,1.8,1.1c1.7,0.4,2.7,1.1,2.7,2.5v0c0,1.7-1.3,2.6-3.1,2.6
			C15.1,165.2,13.8,164.8,12.8,163.9z"/>
		<path fill="#404447" d="M20.8,162.8v-4.2h1.8v3.6c0,0.9,0.4,1.3,1.1,1.3c0.7,0,1.1-0.4,1.1-1.3v-3.6h1.8v6.4h-1.8v-0.9
			c-0.4,0.5-1,1-1.9,1C21.6,165.2,20.8,164.3,20.8,162.8z"/>
		<path fill="#404447" d="M28,161.9L28,161.9c0-1.9,1.4-3.4,3.4-3.4c1.2,0,2,0.4,2.6,1.1l-1.1,1.2c-0.4-0.4-0.8-0.7-1.5-0.7
			c-0.9,0-1.6,0.8-1.6,1.8v0c0,1,0.6,1.8,1.6,1.8c0.6,0,1-0.3,1.5-0.7l1.1,1.1c-0.6,0.7-1.3,1.2-2.6,1.2
			C29.4,165.2,28,163.8,28,161.9z"/>
		<path fill="#404447" d="M34.7,161.9L34.7,161.9c0-1.9,1.4-3.4,3.4-3.4c1.2,0,2,0.4,2.6,1.1l-1.1,1.2c-0.4-0.4-0.8-0.7-1.5-0.7
			c-0.9,0-1.6,0.8-1.6,1.8v0c0,1,0.6,1.8,1.6,1.8c0.6,0,1-0.3,1.5-0.7l1.1,1.1c-0.6,0.7-1.3,1.2-2.6,1.2
			C36.1,165.2,34.7,163.8,34.7,161.9z"/>
		<path fill="#404447" d="M41.4,161.9L41.4,161.9c0-1.9,1.3-3.4,3.2-3.4c2.1,0,3.1,1.7,3.1,3.5c0,0.1,0,0.3,0,0.5h-4.5
			c0.2,0.8,0.8,1.3,1.6,1.3c0.6,0,1.1-0.2,1.6-0.7l1,0.9c-0.6,0.7-1.5,1.2-2.6,1.2C42.8,165.2,41.4,163.9,41.4,161.9z M45.9,161.4
			c-0.1-0.8-0.6-1.4-1.4-1.4c-0.8,0-1.2,0.5-1.4,1.4H45.9z"/>
		<path fill="#404447" d="M48.5,164.3l0.8-1.2c0.7,0.5,1.4,0.8,2,0.8c0.5,0,0.8-0.2,0.8-0.5v0c0-0.4-0.6-0.5-1.3-0.7
			c-0.9-0.3-1.9-0.7-1.9-1.9v0c0-1.3,1.1-2,2.4-2c0.8,0,1.7,0.3,2.4,0.7l-0.7,1.3c-0.6-0.4-1.3-0.6-1.7-0.6c-0.4,0-0.7,0.2-0.7,0.4
			v0c0,0.4,0.6,0.5,1.3,0.8c0.9,0.3,1.9,0.7,1.9,1.9v0c0,1.4-1.1,2.1-2.5,2.1C50.4,165.2,49.4,164.9,48.5,164.3z"/>
		<path fill="#404447" d="M54.4,164.3l0.8-1.2c0.7,0.5,1.4,0.8,2,0.8c0.5,0,0.8-0.2,0.8-0.5v0c0-0.4-0.6-0.5-1.3-0.7
			c-0.9-0.3-1.9-0.7-1.9-1.9v0c0-1.3,1.1-2,2.4-2c0.8,0,1.7,0.3,2.4,0.7l-0.7,1.3c-0.6-0.4-1.3-0.6-1.7-0.6c-0.4,0-0.7,0.2-0.7,0.4
			v0c0,0.4,0.6,0.5,1.3,0.8c0.9,0.3,1.9,0.7,1.9,1.9v0c0,1.4-1.1,2.1-2.5,2.1C56.3,165.2,55.3,164.9,54.4,164.3z"/>
		<path fill="#404447" d="M61.3,160.2h-0.8v-1.5h0.8v-0.4c0-0.7,0.2-1.2,0.5-1.6c0.3-0.3,0.8-0.5,1.5-0.5c0.6,0,1,0.1,1.3,0.2v1.5
			c-0.3-0.1-0.5-0.2-0.8-0.2c-0.4,0-0.7,0.2-0.7,0.7v0.3h1.5v1.5h-1.5v4.9h-1.8V160.2z"/>
		<path fill="#404447" d="M65.5,162.8v-4.2h1.8v3.6c0,0.9,0.4,1.3,1.1,1.3c0.7,0,1.1-0.4,1.1-1.3v-3.6h1.8v6.4h-1.8v-0.9
			c-0.4,0.5-1,1-1.9,1C66.3,165.2,65.5,164.3,65.5,162.8z"/>
		<path fill="#404447" d="M73.1,156.4h1.8v8.8h-1.8V156.4z"/>
		<path fill="#404447" d="M108.7,163.3L108.7,163.3c0-1.4,1.1-2.1,2.6-2.1c0.6,0,1.1,0.1,1.6,0.3v-0.1c0-0.8-0.5-1.2-1.4-1.2
			c-0.7,0-1.2,0.1-1.8,0.3l-0.5-1.4c0.7-0.3,1.4-0.5,2.5-0.5c1,0,1.7,0.3,2.2,0.7c0.5,0.5,0.7,1.2,0.7,2.1v3.7h-1.8v-0.7
			c-0.4,0.5-1.1,0.8-1.9,0.8C109.7,165.2,108.7,164.5,108.7,163.3z M112.9,162.8v-0.3c-0.3-0.1-0.7-0.2-1.2-0.2
			c-0.8,0-1.3,0.3-1.3,0.9v0c0,0.5,0.4,0.8,1,0.8C112.3,164,112.9,163.5,112.9,162.8z"/>
		<path fill="#404447" d="M116.2,158.7h1.8v0.9c0.4-0.5,1-1,1.9-1c1.4,0,2.2,0.9,2.2,2.4v4.2h-1.8v-3.6c0-0.9-0.4-1.3-1.1-1.3
			c-0.7,0-1.1,0.4-1.1,1.3v3.6h-1.8V158.7z"/>
		<path fill="#404447" d="M123.3,161.9L123.3,161.9c0-2.2,1.4-3.3,2.9-3.3c1,0,1.6,0.4,2,1v-3.2h1.8v8.8h-1.8v-0.9
			c-0.4,0.6-1.1,1-2,1C124.8,165.2,123.3,164,123.3,161.9z M128.3,161.9L128.3,161.9c0-1.1-0.7-1.8-1.6-1.8s-1.6,0.7-1.6,1.8v0
			c0,1.1,0.7,1.8,1.6,1.8S128.3,163,128.3,161.9z"/>
		<path fill="#404447" d="M135.6,160.2h-0.8v-1.5h0.8v-0.4c0-0.7,0.2-1.2,0.5-1.6c0.3-0.3,0.8-0.5,1.5-0.5c0.6,0,1,0.1,1.3,0.2v1.5
			c-0.3-0.1-0.5-0.2-0.8-0.2c-0.4,0-0.7,0.2-0.7,0.7v0.3h1.5v1.5h-1.5v4.9h-1.8V160.2z"/>
		<path fill="#404447" d="M139.4,163.3L139.4,163.3c0-1.4,1.1-2.1,2.6-2.1c0.6,0,1.1,0.1,1.6,0.3v-0.1c0-0.8-0.5-1.2-1.4-1.2
			c-0.7,0-1.2,0.1-1.8,0.3l-0.5-1.4c0.7-0.3,1.4-0.5,2.5-0.5c1,0,1.7,0.3,2.2,0.7c0.5,0.5,0.7,1.2,0.7,2.1v3.7h-1.8v-0.7
			c-0.4,0.5-1.1,0.8-1.9,0.8C140.3,165.2,139.4,164.5,139.4,163.3z M143.5,162.8v-0.3c-0.3-0.1-0.7-0.2-1.2-0.2
			c-0.8,0-1.3,0.3-1.3,0.9v0c0,0.5,0.4,0.8,1,0.8C143,164,143.5,163.5,143.5,162.8z"/>
		<path fill="#404447" d="M146.9,156.4h1.9v1.6h-1.9V156.4z M146.9,158.7h1.8v6.4h-1.8V158.7z"/>
		<path fill="#404447" d="M150.5,156.4h1.8v8.8h-1.8V156.4z"/>
		<path fill="#404447" d="M153.8,161.9L153.8,161.9c0-1.9,1.3-3.4,3.2-3.4c2.1,0,3.1,1.7,3.1,3.5c0,0.1,0,0.3,0,0.5h-4.5
			c0.2,0.8,0.8,1.3,1.6,1.3c0.6,0,1.1-0.2,1.6-0.7l1,0.9c-0.6,0.7-1.5,1.2-2.6,1.2C155.2,165.2,153.8,163.9,153.8,161.9z
			 M158.3,161.4c-0.1-0.8-0.6-1.4-1.4-1.4c-0.8,0-1.2,0.5-1.4,1.4H158.3z"/>
		<path fill="#404447" d="M161.2,161.9L161.2,161.9c0-2.2,1.4-3.3,2.9-3.3c1,0,1.6,0.4,2,1v-3.2h1.8v8.8h-1.8v-0.9
			c-0.4,0.6-1.1,1-2,1C162.6,165.2,161.2,164,161.2,161.9z M166.1,161.9L166.1,161.9c0-1.1-0.7-1.8-1.6-1.8s-1.6,0.7-1.6,1.8v0
			c0,1.1,0.7,1.8,1.6,1.8S166.1,163,166.1,161.9z"/>
		<path fill="#404447" d="M203.8,164.3v0.8h-1.8v-8.8h1.8v3.3c0.4-0.6,1.1-1,2-1c1.5,0,2.9,1.2,2.9,3.3v0c0,2.1-1.4,3.3-2.9,3.3
			C204.8,165.2,204.2,164.8,203.8,164.3z M206.9,161.9L206.9,161.9c0-1.1-0.7-1.8-1.6-1.8s-1.6,0.7-1.6,1.8v0c0,1.1,0.7,1.8,1.6,1.8
			S206.9,163,206.9,161.9z"/>
		<path fill="#404447" d="M210,162.8v-4.2h1.8v3.6c0,0.9,0.4,1.3,1.1,1.3c0.7,0,1.1-0.4,1.1-1.3v-3.6h1.8v6.4h-1.8v-0.9
			c-0.4,0.5-1,1-1.9,1C210.8,165.2,210,164.3,210,162.8z"/>
		<path fill="#404447" d="M217.6,156.4h1.9v1.6h-1.9V156.4z M217.6,158.7h1.8v6.4h-1.8V158.7z"/>
		<path fill="#404447" d="M221.2,156.4h1.8v8.8h-1.8V156.4z"/>
		<path fill="#404447" d="M224.5,161.9L224.5,161.9c0-2.2,1.4-3.3,2.9-3.3c1,0,1.6,0.4,2,1v-3.2h1.8v8.8h-1.8v-0.9
			c-0.4,0.6-1.1,1-2,1C225.9,165.2,224.5,164,224.5,161.9z M229.4,161.9L229.4,161.9c0-1.1-0.7-1.8-1.6-1.8s-1.6,0.7-1.6,1.8v0
			c0,1.1,0.7,1.8,1.6,1.8S229.4,163,229.4,161.9z"/>
		<path fill="#404447" d="M232.4,164.3l0.8-1.2c0.7,0.5,1.4,0.8,2,0.8c0.5,0,0.8-0.2,0.8-0.5v0c0-0.4-0.6-0.5-1.3-0.7
			c-0.9-0.3-1.9-0.7-1.9-1.9v0c0-1.3,1.1-2,2.4-2c0.8,0,1.7,0.3,2.4,0.7l-0.7,1.3c-0.6-0.4-1.3-0.6-1.7-0.6c-0.4,0-0.7,0.2-0.7,0.4
			v0c0,0.4,0.6,0.5,1.3,0.8c0.9,0.3,1.9,0.7,1.9,1.9v0c0,1.4-1.1,2.1-2.5,2.1C234.2,165.2,233.2,164.9,232.4,164.3z"/>
	</g>
</g>
</svg>
