<?xml version="1.0" encoding="utf-8"?>
<!-- Generator: Adobe Illustrator 19.1.0, SVG Export Plug-In . SVG Version: 6.00 Build 0)  -->
<svg version="1.1" id="Layer_1" xmlns="http://www.w3.org/2000/svg" xmlns:xlink="http://www.w3.org/1999/xlink" x="0px" y="0px"
	 viewBox="0 0 169.2 169.2" enable-background="new 0 0 169.2 169.2" xml:space="preserve">
<g>
	<rect fill="#FFFFFF" width="169.2" height="169.2"/>
	<g>
		<path fill="#404447" d="M45.4,153.2v-4.6h-1.2v-2.3h1.2v-2.5h2.7v2.5h2.3v2.3h-2.3v4.1c0,0.6,0.3,0.9,0.9,0.9c0.5,0,1-0.1,1.4-0.3
			v2.2c-0.6,0.3-1.2,0.6-2.2,0.6C46.6,156.1,45.4,155.4,45.4,153.2z"/>
		<path fill="#404447" d="M51.7,151.1L51.7,151.1c0-2.8,2-5.1,4.8-5.1c3.2,0,4.7,2.5,4.7,5.2c0,0.2,0,0.5,0,0.7h-6.7
			c0.3,1.2,1.1,1.9,2.4,1.9c0.9,0,1.6-0.3,2.3-1l1.6,1.4c-0.9,1.1-2.2,1.8-3.9,1.8C53.9,156.1,51.7,154.1,51.7,151.1z M58.5,150.3
			c-0.2-1.2-0.9-2.1-2-2.1c-1.1,0-1.9,0.8-2.1,2.1H58.5z"/>
		<path fill="#404447" d="M63.2,146.2H66v1.4c0.6-0.8,1.5-1.5,2.8-1.5c1.3,0,2.2,0.6,2.7,1.5c0.8-1,1.9-1.5,3.2-1.5
			c2,0,3.3,1.2,3.3,3.5v6.3h-2.7v-5.4c0-1.3-0.6-2-1.6-2c-1,0-1.7,0.7-1.7,2v5.4h-2.7v-5.4c0-1.3-0.6-2-1.6-2s-1.7,0.7-1.7,2v5.4
			h-2.7V146.2z"/>
		<path fill="#404447" d="M80.3,146.2h2.7v1.4c0.7-0.9,1.6-1.6,3-1.6c2.2,0,4.4,1.8,4.4,5v0c0,3.2-2.1,5-4.4,5c-1.5,0-2.4-0.7-3-1.4
			v4.1h-2.7V146.2z M87.7,151.1L87.7,151.1c0-1.6-1.1-2.7-2.4-2.7c-1.3,0-2.3,1.1-2.3,2.7v0c0,1.6,1.1,2.7,2.3,2.7
			C86.6,153.8,87.7,152.7,87.7,151.1z"/>
		<path fill="#404447" d="M92.6,142.8h2.7v13.1h-2.7V142.8z"/>
		<path fill="#404447" d="M97.3,153.1L97.3,153.1c0-2.1,1.6-3.1,3.9-3.1c1,0,1.7,0.2,2.4,0.4v-0.2c0-1.1-0.7-1.8-2.1-1.8
			c-1,0-1.8,0.2-2.7,0.5l-0.7-2.1c1.1-0.5,2.1-0.8,3.7-0.8c1.5,0,2.6,0.4,3.3,1.1c0.7,0.7,1,1.8,1,3.1v5.6h-2.6v-1
			c-0.7,0.7-1.6,1.2-2.9,1.2C98.8,156.1,97.3,155,97.3,153.1z M103.6,152.5V152c-0.5-0.2-1.1-0.4-1.7-0.4c-1.2,0-1.9,0.5-1.9,1.3v0
			c0,0.7,0.6,1.2,1.5,1.2C102.7,154.2,103.6,153.5,103.6,152.5z"/>
		<path fill="#404447" d="M108.9,153.2v-4.6h-1.2v-2.3h1.2v-2.5h2.7v2.5h2.3v2.3h-2.3v4.1c0,0.6,0.3,0.9,0.9,0.9
			c0.5,0,1-0.1,1.4-0.3v2.2c-0.6,0.3-1.2,0.6-2.2,0.6C110.1,156.1,108.9,155.4,108.9,153.2z"/>
		<path fill="#404447" d="M115.2,151.1L115.2,151.1c0-2.8,2-5.1,4.8-5.1c3.2,0,4.7,2.5,4.7,5.2c0,0.2,0,0.5,0,0.7h-6.7
			c0.3,1.2,1.1,1.9,2.4,1.9c0.9,0,1.6-0.3,2.3-1l1.6,1.4c-0.9,1.1-2.2,1.8-3.9,1.8C117.3,156.1,115.2,154.1,115.2,151.1z M122,150.3
			c-0.2-1.2-0.9-2.1-2-2.1c-1.1,0-1.9,0.8-2.1,2.1H122z"/>
	</g>
</g>
<g>
	<g>
		<g>
			<g>
				<path fill="#404447" d="M84.4,110.4c-0.2,0-0.4-0.1-0.6-0.2c-0.3-0.2-0.5-0.5-0.5-0.9V87.8c0-0.5,0.3-0.9,0.7-1l12.2-4.6
					c0.3-0.1,0.7-0.1,1,0.1c0.3,0.2,0.5,0.5,0.5,0.9v21.6c0,0.5-0.3,0.9-0.7,1l-12.2,4.6C84.7,110.4,84.5,110.4,84.4,110.4
					L84.4,110.4z M85.5,88.5v19.3l10-3.8V84.7L85.5,88.5L85.5,88.5z"/>
			</g>
		</g>
		<g>
			<g>
				<path fill="#404447" d="M108.9,110.4c-0.1,0-0.3,0-0.4-0.1l-12.2-4.6c-0.4-0.2-0.7-0.6-0.7-1V83.2c0-0.4,0.2-0.7,0.5-0.9
					c0.3-0.2,0.7-0.2,1-0.1l12.2,4.6c0.4,0.2,0.7,0.6,0.7,1v21.6c0,0.4-0.2,0.7-0.5,0.9C109.4,110.4,109.2,110.4,108.9,110.4
					L108.9,110.4z M97.8,104l10,3.8V88.5l-10-3.8V104L97.8,104z"/>
			</g>
		</g>
	</g>
	<g>
		<g>
			<path fill="#404447" d="M103.1,67.7H71.7c-1.1,0-2-0.9-2-2V47.9c0-1.1,0.9-2,2-2h31.4c1.1,0,2,0.9,2,2v17.7
				C105.1,66.8,104.2,67.7,103.1,67.7L103.1,67.7z M73.8,63.6H101V49.9H73.8V63.6L73.8,63.6z"/>
		</g>
		<g>
			<g>
				<path fill="#404447" d="M120.3,123.8H50.1c-2.3,0-4.1-1.8-4.1-4.1V31.4c0-2.3,1.8-4.1,4.1-4.1h70.2c2.3,0,4.1,1.8,4.1,4.1v88.3
					C124.4,122,122.6,123.8,120.3,123.8L120.3,123.8z M54.2,115.6h62V35.5h-62V115.6L54.2,115.6z"/>
			</g>
			<g>
				<path fill="#404447" d="M57.2,52H42.9c-2.3,0-4.1-1.8-4.1-4.1c0-2.3,1.8-4.1,4.1-4.1h14.3c2.3,0,4.1,1.8,4.1,4.1
					C61.3,50.2,59.5,52,57.2,52L57.2,52z"/>
			</g>
			<g>
				<path fill="#404447" d="M57.2,70.3H42.9c-2.3,0-4.1-1.8-4.1-4.1c0-2.3,1.8-4.1,4.1-4.1h14.3c2.3,0,4.1,1.8,4.1,4.1
					C61.3,68.5,59.5,70.3,57.2,70.3L57.2,70.3z"/>
			</g>
			<g>
				<path fill="#404447" d="M57.2,88.6H42.9c-2.3,0-4.1-1.8-4.1-4.1c0-2.3,1.8-4.1,4.1-4.1h14.3c2.3,0,4.1,1.8,4.1,4.1
					C61.3,86.7,59.5,88.6,57.2,88.6L57.2,88.6z"/>
			</g>
			<g>
				<path fill="#404447" d="M57.2,106.8H42.9c-2.3,0-4.1-1.8-4.1-4.1c0-2.3,1.8-4.1,4.1-4.1h14.3c2.3,0,4.1,1.8,4.1,4.1
					C61.3,105,59.5,106.8,57.2,106.8L57.2,106.8z"/>
			</g>
		</g>
	</g>
</g>
</svg>
