<?xml version="1.0" encoding="utf-8"?>
<!-- Generator: Adobe Illustrator 19.1.0, SVG Export Plug-In . SVG Version: 6.00 Build 0)  -->
<svg version="1.1" id="Layer_1" xmlns="http://www.w3.org/2000/svg" xmlns:xlink="http://www.w3.org/1999/xlink" x="0px" y="0px"
	 viewBox="0 0 169.2 169.2" enable-background="new 0 0 169.2 169.2" xml:space="preserve">
<g>
	<rect fill="#FFFFFF" width="169.2" height="169.2"/>
	<g>
		<path fill="#404447" d="M13.6,146.2h2.9l2.2,6.5l2.2-6.5h2.8l-3.8,9.7h-2.5L13.6,146.2z"/>
		<path fill="#404447" d="M25.3,142.8h2.9v2.4h-2.9V142.8z M25.4,146.2h2.7v9.7h-2.7V146.2z"/>
		<path fill="#404447" d="M30.7,146.2h2.7v1.9c0.6-1.3,1.5-2.2,3.1-2.1v2.9h-0.1c-1.8,0-2.9,1.1-2.9,3.4v3.6h-2.7V146.2z"/>
		<path fill="#404447" d="M38.6,153.2v-4.6h-1.2v-2.3h1.2v-2.5h2.7v2.5h2.3v2.3h-2.3v4.1c0,0.6,0.3,0.9,0.9,0.9c0.5,0,1-0.1,1.4-0.3
			v2.2c-0.6,0.3-1.2,0.6-2.2,0.6C39.8,156.1,38.6,155.4,38.6,153.2z"/>
		<path fill="#404447" d="M45.6,152.5v-6.2h2.7v5.4c0,1.3,0.6,2,1.7,2s1.7-0.7,1.7-2v-5.4h2.7v9.7h-2.7v-1.4
			c-0.6,0.8-1.4,1.5-2.8,1.5C46.8,156.1,45.6,154.7,45.6,152.5z"/>
		<path fill="#404447" d="M56.3,153.1L56.3,153.1c0-2.1,1.6-3.1,3.9-3.1c1,0,1.7,0.2,2.4,0.4v-0.2c0-1.1-0.7-1.8-2.1-1.8
			c-1,0-1.8,0.2-2.7,0.5l-0.7-2.1c1.1-0.5,2.1-0.8,3.7-0.8c1.5,0,2.6,0.4,3.3,1.1c0.7,0.7,1,1.8,1,3.1v5.6h-2.6v-1
			c-0.7,0.7-1.6,1.2-2.9,1.2C57.8,156.1,56.3,155,56.3,153.1z M62.6,152.5V152c-0.5-0.2-1.1-0.4-1.7-0.4c-1.2,0-1.9,0.5-1.9,1.3v0
			c0,0.7,0.6,1.2,1.5,1.2C61.7,154.2,62.6,153.5,62.6,152.5z"/>
		<path fill="#404447" d="M67.7,142.8h2.7v13.1h-2.7V142.8z"/>
		<path fill="#404447" d="M78.4,146.2h2.7v1.4c0.7-0.9,1.6-1.6,3-1.6c2.2,0,4.4,1.8,4.4,5v0c0,3.2-2.1,5-4.4,5c-1.5,0-2.4-0.7-3-1.4
			v4.1h-2.7V146.2z M85.8,151.1L85.8,151.1c0-1.6-1.1-2.7-2.4-2.7c-1.3,0-2.3,1.1-2.3,2.7v0c0,1.6,1.1,2.7,2.3,2.7
			C84.7,153.8,85.8,152.7,85.8,151.1z"/>
		<path fill="#404447" d="M90.6,142.8h2.7v13.1h-2.7V142.8z"/>
		<path fill="#404447" d="M95.4,153.1L95.4,153.1c0-2.1,1.6-3.1,3.9-3.1c1,0,1.7,0.2,2.4,0.4v-0.2c0-1.1-0.7-1.8-2.1-1.8
			c-1,0-1.8,0.2-2.7,0.5l-0.7-2.1c1.1-0.5,2.1-0.8,3.7-0.8c1.5,0,2.6,0.4,3.3,1.1c0.7,0.7,1,1.8,1,3.1v5.6h-2.6v-1
			c-0.7,0.7-1.6,1.2-2.9,1.2C96.9,156.1,95.4,155,95.4,153.1z M101.7,152.5V152c-0.5-0.2-1.1-0.4-1.7-0.4c-1.2,0-1.9,0.5-1.9,1.3v0
			c0,0.7,0.6,1.2,1.5,1.2C100.8,154.2,101.7,153.5,101.7,152.5z"/>
		<path fill="#404447" d="M107,153.2v-4.6h-1.2v-2.3h1.2v-2.5h2.7v2.5h2.3v2.3h-2.3v4.1c0,0.6,0.3,0.9,0.9,0.9c0.5,0,1-0.1,1.4-0.3
			v2.2c-0.6,0.3-1.2,0.6-2.2,0.6C108.1,156.1,107,155.4,107,153.2z"/>
		<path fill="#404447" d="M114.5,148.6h-1.1v-2.3h1.1v-0.6c0-1.1,0.3-1.8,0.8-2.3c0.5-0.5,1.2-0.8,2.2-0.8c0.9,0,1.4,0.1,1.9,0.3
			v2.3c-0.4-0.1-0.8-0.2-1.2-0.2c-0.6,0-1,0.3-1,1v0.4h2.2v2.2h-2.2v7.3h-2.7V148.6z"/>
		<path fill="#404447" d="M120.2,151.1L120.2,151.1c0-2.8,2.2-5.1,5.2-5.1c3,0,5.2,2.2,5.2,5v0c0,2.8-2.2,5-5.2,5
			C122.4,156.1,120.2,153.9,120.2,151.1z M128,151.1L128,151.1c0-1.5-1-2.7-2.5-2.7c-1.6,0-2.5,1.2-2.5,2.6v0c0,1.4,1,2.7,2.5,2.7
			C127,153.8,128,152.5,128,151.1z"/>
		<path fill="#404447" d="M132.6,146.2h2.7v1.9c0.6-1.3,1.5-2.2,3.1-2.1v2.9h-0.1c-1.8,0-2.9,1.1-2.9,3.4v3.6h-2.7V146.2z"/>
		<path fill="#404447" d="M140.2,146.2h2.7v1.4c0.6-0.8,1.5-1.5,2.8-1.5c1.3,0,2.2,0.6,2.7,1.5c0.8-1,1.9-1.5,3.2-1.5
			c2,0,3.3,1.2,3.3,3.5v6.3h-2.7v-5.4c0-1.3-0.6-2-1.6-2c-1,0-1.7,0.7-1.7,2v5.4h-2.7v-5.4c0-1.3-0.6-2-1.6-2s-1.7,0.7-1.7,2v5.4
			h-2.7V146.2z"/>
	</g>
</g>
<g>
	<g>
		<g>
			<g>
				<path fill="#404447" d="M98.8,102.7H69.6c-1.3,0-2.3-1-2.3-2.3V71.2c0-1.3,1-2.3,2.3-2.3h29.2c1.3,0,2.3,1,2.3,2.3v29.2
					C101.1,101.7,100,102.7,98.8,102.7L98.8,102.7z M71.9,98.1h24.5V73.5H71.9V98.1L71.9,98.1z"/>
			</g>
			<g>
				<g>
					<path fill="#404447" d="M57.9,106c-0.6,0-1.2-0.5-1.2-1.2V66.7c0-0.6,0.5-1.2,1.2-1.2c0.6,0,1.2,0.5,1.2,1.2v38.1
						C59,105.5,58.5,106,57.9,106L57.9,106z"/>
				</g>
				<g>
					<path fill="#404447" d="M63.1,103.4c-0.6,0-1.2-0.5-1.2-1.2v-33c0-0.6,0.5-1.2,1.2-1.2c0.6,0,1.2,0.5,1.2,1.2v33
						C64.3,102.9,63.7,103.4,63.1,103.4L63.1,103.4z"/>
				</g>
				<g>
					<path fill="#404447" d="M110.4,106c-0.6,0-1.2-0.5-1.2-1.2V66.7c0-0.6,0.5-1.2,1.2-1.2c0.6,0,1.2,0.5,1.2,1.2v38.1
						C111.6,105.5,111.1,106,110.4,106L110.4,106z"/>
				</g>
				<g>
					<path fill="#404447" d="M105.2,103.4c-0.6,0-1.2-0.5-1.2-1.2v-33c0-0.6,0.5-1.2,1.2-1.2c0.6,0,1.2,0.5,1.2,1.2v33
						C106.4,102.9,105.9,103.4,105.2,103.4L105.2,103.4z"/>
				</g>
			</g>
		</g>
		<g>
			<path fill="#404447" d="M126.6,125.7H41.4c-2.3,0-4.2-1.9-4.2-4.2v-71c0-2.3,1.9-4.2,4.2-4.2h85.2c2.3,0,4.2,1.9,4.2,4.2v71
				C130.8,123.8,128.9,125.7,126.6,125.7L126.6,125.7z M45.6,117.2h76.7V54.7H45.6V117.2L45.6,117.2z"/>
		</g>
	</g>
	<g>
		<path fill="#404447" d="M121.2,39.6H46.8c-1.2,0-2.1-0.9-2.1-2.1c0-1.2,1-2.1,2.1-2.1h74.4c1.2,0,2.1,0.9,2.1,2.1
			C123.3,38.7,122.3,39.6,121.2,39.6L121.2,39.6z"/>
	</g>
	<g>
		<path fill="#404447" d="M112.7,29.7H55.3c-1.2,0-2.1-0.9-2.1-2.1c0-1.2,1-2.1,2.1-2.1h57.4c1.2,0,2.1,0.9,2.1,2.1
			C114.8,28.7,113.9,29.7,112.7,29.7L112.7,29.7z"/>
	</g>
</g>
</svg>
