<?xml version="1.0" encoding="utf-8"?>
<!-- Generator: Adobe Illustrator 19.1.0, SVG Export Plug-In . SVG Version: 6.00 Build 0)  -->
<svg version="1.1" id="Layer_1" xmlns="http://www.w3.org/2000/svg" xmlns:xlink="http://www.w3.org/1999/xlink" x="0px" y="0px"
	 viewBox="0 0 169.2 169.2" enable-background="new 0 0 169.2 169.2" xml:space="preserve">
<g>
	<rect fill="#FFFFFF" width="169.2" height="169.2"/>
	<g>
		<path fill="#404447" d="M52.6,146.2h2.7v1.9c0.6-1.3,1.5-2.2,3.1-2.1v2.9h-0.1c-1.8,0-2.9,1.1-2.9,3.4v3.6h-2.7V146.2z"/>
		<path fill="#404447" d="M59.4,151.1L59.4,151.1c0-2.8,2-5.1,4.8-5.1c3.2,0,4.7,2.5,4.7,5.2c0,0.2,0,0.5,0,0.7h-6.7
			c0.3,1.2,1.1,1.9,2.4,1.9c0.9,0,1.6-0.3,2.3-1l1.6,1.4c-0.9,1.1-2.2,1.8-3.9,1.8C61.6,156.1,59.4,154.1,59.4,151.1z M66.2,150.3
			c-0.2-1.2-0.9-2.1-2-2.1c-1.1,0-1.9,0.8-2.1,2.1H66.2z"/>
		<path fill="#404447" d="M70.9,146.2h2.7v1.4c0.7-0.9,1.6-1.6,3-1.6c2.3,0,4.4,1.8,4.4,5v0c0,3.2-2.1,5-4.4,5c-1.5,0-2.4-0.7-3-1.4
			v4.1h-2.7V146.2z M78.3,151.1L78.3,151.1c0-1.6-1.1-2.7-2.4-2.7s-2.3,1.1-2.3,2.7v0c0,1.6,1.1,2.7,2.3,2.7S78.3,152.7,78.3,151.1z
			"/>
		<path fill="#404447" d="M82.6,151.1L82.6,151.1c0-2.8,2.2-5.1,5.2-5.1c3,0,5.2,2.2,5.2,5v0c0,2.8-2.2,5-5.2,5
			C84.8,156.1,82.6,153.9,82.6,151.1z M90.3,151.1L90.3,151.1c0-1.5-1-2.7-2.5-2.7c-1.6,0-2.5,1.2-2.5,2.6v0c0,1.4,1,2.7,2.5,2.7
			C89.4,153.8,90.3,152.5,90.3,151.1z"/>
		<path fill="#404447" d="M95,146.2h2.7v1.9c0.6-1.3,1.5-2.2,3.1-2.1v2.9h-0.1c-1.8,0-2.9,1.1-2.9,3.4v3.6H95V146.2z"/>
		<path fill="#404447" d="M103,153.2v-4.6h-1.2v-2.3h1.2v-2.5h2.7v2.5h2.3v2.3h-2.3v4.1c0,0.6,0.3,0.9,0.9,0.9c0.5,0,1-0.1,1.4-0.3
			v2.2c-0.6,0.3-1.2,0.6-2.2,0.6C104.1,156.1,103,155.4,103,153.2z"/>
		<path fill="#404447" d="M109.3,154.6l1.2-1.8c1,0.8,2.1,1.2,3,1.2c0.8,0,1.2-0.3,1.2-0.7v0c0-0.6-0.9-0.8-2-1.1
			c-1.4-0.4-2.9-1-2.9-2.9v0c0-2,1.6-3.1,3.5-3.1c1.2,0,2.6,0.4,3.6,1.1l-1,1.9c-1-0.6-1.9-0.9-2.6-0.9c-0.7,0-1,0.3-1,0.7v0
			c0,0.5,0.9,0.8,2,1.2c1.3,0.5,2.9,1.1,2.9,2.9v0c0,2.1-1.6,3.1-3.7,3.1C112,156.1,110.5,155.6,109.3,154.6z"/>
	</g>
</g>
<g>
	<g>
		<path fill="#404447" d="M126.9,123.9H41.6c-2.2,0-3.9-1.7-3.9-3.9V34.7c0-2.2,1.7-3.9,3.9-3.9c2.2,0,3.9,1.7,3.9,3.9v81.3h81.3
			c2.2,0,3.9,1.7,3.9,3.9C130.8,122.1,129,123.9,126.9,123.9L126.9,123.9z"/>
	</g>
	<g>
		<path fill="#404447" d="M70.1,109.7H55.7c-2,0-3.6-1.6-3.6-3.6V85.9c0-2,1.6-3.6,3.6-3.6h14.4c2,0,3.6,1.6,3.6,3.6v20.2
			C73.7,108.1,72.1,109.7,70.1,109.7L70.1,109.7z M59.3,102.5h7.2v-13h-7.2V102.5L59.3,102.5z"/>
	</g>
	<g>
		<path fill="#404447" d="M125.7,109.7h-14.4c-2,0-3.6-1.6-3.6-3.6V34.7c0-2,1.6-3.6,3.6-3.6h14.4c2,0,3.6,1.6,3.6,3.6v71.4
			C129.3,108.1,127.7,109.7,125.7,109.7L125.7,109.7z M114.9,102.5h7.2V38.3h-7.2V102.5L114.9,102.5z"/>
	</g>
	<g>
		<path fill="#404447" d="M97.9,109.7H83.5c-2,0-3.6-1.6-3.6-3.6V60.9c0-2,1.6-3.6,3.6-3.6h14.4c2,0,3.6,1.6,3.6,3.6v45.2
			C101.5,108.1,99.9,109.7,97.9,109.7L97.9,109.7z M87.1,102.5h7.2v-38h-7.2V102.5L87.1,102.5z"/>
	</g>
</g>
</svg>
