<?xml version="1.0" encoding="utf-8"?>
<!-- Generator: Adobe Illustrator 19.1.0, SVG Export Plug-In . SVG Version: 6.00 Build 0)  -->
<svg version="1.1" id="Layer_1" xmlns="http://www.w3.org/2000/svg" xmlns:xlink="http://www.w3.org/1999/xlink" x="0px" y="0px"
	 viewBox="0 0 169.2 169.2" enable-background="new 0 0 169.2 169.2" xml:space="preserve">
<g>
	<rect fill="#FFFFFF" width="169.2" height="169.2"/>
	<g>
		<path fill="#404447" d="M30.7,146.2h2.7v1.4c0.7-0.9,1.6-1.6,3-1.6c2.3,0,4.4,1.8,4.4,5v0c0,3.2-2.1,5-4.4,5c-1.5,0-2.4-0.7-3-1.4
			v4.1h-2.7V146.2z M38.1,151.1L38.1,151.1c0-1.6-1.1-2.7-2.4-2.7c-1.3,0-2.3,1.1-2.3,2.7v0c0,1.6,1.1,2.7,2.3,2.7
			C37,153.8,38.1,152.7,38.1,151.1z"/>
		<path fill="#404447" d="M42.4,151.1L42.4,151.1c0-2.8,2.2-5.1,5.2-5.1c3,0,5.2,2.2,5.2,5v0c0,2.8-2.2,5-5.2,5
			C44.6,156.1,42.4,153.9,42.4,151.1z M50.1,151.1L50.1,151.1c0-1.5-1-2.7-2.5-2.7c-1.6,0-2.5,1.2-2.5,2.6v0c0,1.4,1,2.7,2.5,2.7
			C49.2,153.8,50.1,152.5,50.1,151.1z"/>
		<path fill="#404447" d="M54.9,142.8h2.7v13.1h-2.7V142.8z"/>
		<path fill="#404447" d="M60.3,142.8h2.9v2.4h-2.9V142.8z M60.4,146.2h2.7v9.7h-2.7V146.2z"/>
		<path fill="#404447" d="M65.2,151.1L65.2,151.1c0-2.8,2.1-5.1,5.1-5.1c1.8,0,3,0.6,3.9,1.6l-1.7,1.8c-0.6-0.6-1.2-1.1-2.2-1.1
			c-1.4,0-2.3,1.2-2.3,2.6v0c0,1.5,1,2.7,2.4,2.7c0.9,0,1.5-0.4,2.2-1l1.6,1.6c-0.9,1-2,1.8-3.9,1.8
			C67.4,156.1,65.2,153.9,65.2,151.1z"/>
		<path fill="#404447" d="M75.8,158.2l0.9-2c0.4,0.2,0.8,0.4,1.2,0.4c0.5,0,0.7-0.1,1-0.6l-3.8-9.7h2.9l2.2,6.6l2.1-6.6h2.8
			l-3.7,9.9c-0.7,2-1.5,2.7-3.2,2.7C77.2,158.8,76.5,158.6,75.8,158.2z"/>
		<path fill="#404447" d="M86.3,157.8l0.9-2.1c1,0.6,2,0.9,3.3,0.9c1.9,0,2.8-0.9,2.8-2.6v-0.5c-0.8,1-1.7,1.6-3.2,1.6
			c-2.3,0-4.3-1.6-4.3-4.5v0c0-2.9,2.1-4.5,4.3-4.5c1.5,0,2.4,0.6,3.1,1.4v-1.3h2.7v7.5c0,1.7-0.4,3-1.2,3.8
			c-0.9,0.9-2.3,1.3-4.2,1.3C89,158.8,87.5,158.5,86.3,157.8z M93.2,150.6L93.2,150.6c0-1.3-1-2.3-2.4-2.3c-1.3,0-2.3,0.9-2.3,2.2v0
			c0,1.3,1,2.2,2.3,2.2C92.2,152.8,93.2,151.9,93.2,150.6z"/>
		<path fill="#404447" d="M98.4,146.2h2.7v1.9c0.6-1.3,1.5-2.2,3.1-2.1v2.9h-0.1c-1.8,0-2.9,1.1-2.9,3.4v3.6h-2.7V146.2z"/>
		<path fill="#404447" d="M105.2,151.1L105.2,151.1c0-2.8,2.2-5.1,5.2-5.1c3,0,5.2,2.2,5.2,5v0c0,2.8-2.2,5-5.2,5
			C107.4,156.1,105.2,153.9,105.2,151.1z M112.9,151.1L112.9,151.1c0-1.5-1-2.7-2.5-2.7c-1.6,0-2.5,1.2-2.5,2.6v0
			c0,1.4,1,2.7,2.5,2.7C112,153.8,112.9,152.5,112.9,151.1z"/>
		<path fill="#404447" d="M117.5,152.5v-6.2h2.7v5.4c0,1.3,0.6,2,1.7,2c1,0,1.7-0.7,1.7-2v-5.4h2.7v9.7h-2.7v-1.4
			c-0.6,0.8-1.4,1.5-2.8,1.5C118.7,156.1,117.5,154.7,117.5,152.5z"/>
		<path fill="#404447" d="M128.8,146.2h2.7v1.4c0.7-0.9,1.6-1.6,3-1.6c2.3,0,4.4,1.8,4.4,5v0c0,3.2-2.1,5-4.4,5
			c-1.5,0-2.4-0.7-3-1.4v4.1h-2.7V146.2z M136.2,151.1L136.2,151.1c0-1.6-1.1-2.7-2.4-2.7c-1.3,0-2.3,1.1-2.3,2.7v0
			c0,1.6,1.1,2.7,2.3,2.7C135.1,153.8,136.2,152.7,136.2,151.1z"/>
	</g>
</g>
<g>
	<g>
		<path fill="#404447" d="M129.8,43.3h-4.2v80.1c0,1-0.8,1.8-1.8,1.8H64.6v4.2c0,1,0.8,1.8,1.8,1.8h0l0,0h63.4c1,0,1.8-0.8,1.8-1.8
			V45.2C131.7,44.2,130.8,43.3,129.8,43.3z"/>
		<path fill="#404447" d="M119.7,117.5V33.2c0-1-0.8-1.8-1.8-1.8h-4.2v80.1c0,1-0.8,1.8-1.8,1.8H52.7v4.2c0,1,0.8,1.8,1.8,1.8l0,0
			h63.4C118.9,119.3,119.7,118.5,119.7,117.5z"/>
		<path fill="#404447" d="M67,77.7h-7.4v-11h29.5v11h-7.8c-1,0-1.8,0.8-1.8,1.8V82H68.8v-2.5C68.8,78.5,68,77.7,67,77.7z"/>
		<path fill="#404447" d="M83.1,81.3h8.1v9.1h-34v-9.1h8V82c0,2,1.6,3.6,3.6,3.6h10.7c2,0,3.6-1.6,3.6-3.6V81.3z"/>
		<path fill="#404447" d="M106,19.5H42.6c-1,0-1.8,0.8-1.8,1.8v84.3c0,1,0.8,1.8,1.8,1.8H106c1,0,1.8-0.8,1.8-1.8V21.3
			C107.8,20.3,107,19.5,106,19.5z M61.6,55.9h25.5c0.5,0,0.9,0.4,0.9,0.9c0,0.5-0.4,0.9-0.9,0.9H61.6c-0.5,0-0.9-0.4-0.9-0.9
			C60.7,56.3,61.1,55.9,61.6,55.9z M59.9,59.5h28.9c0.5,0,0.9,0.4,0.9,0.9c0,0.5-0.4,0.9-0.9,0.9H59.9c-0.5,0-0.9-0.4-0.9-0.9
			C59,59.9,59.4,59.5,59.9,59.5z M94.7,92.1c0,1-0.8,1.8-1.8,1.8H55.3c-1,0-1.8-0.8-1.8-1.8V79.5c0-1,0.8-1.8,1.8-1.8H56V64.9
			c0-1,0.8-1.8,1.8-1.8h33.1c1,0,1.8,0.8,1.8,1.8v12.8h0.2c1,0,1.8,0.8,1.8,1.8V92.1z"/>
	</g>
</g>
</svg>
