<?xml version="1.0" encoding="utf-8"?>
<!-- Generator: Adobe Illustrator 19.1.0, SVG Export Plug-In . SVG Version: 6.00 Build 0)  -->
<svg version="1.1" id="Layer_1" xmlns="http://www.w3.org/2000/svg" xmlns:xlink="http://www.w3.org/1999/xlink" x="0px" y="0px"
	 viewBox="0 0 169.2 169.2" enable-background="new 0 0 169.2 169.2" xml:space="preserve">
<g>
	<rect fill="#FFFFFF" width="169.2" height="169.2"/>
	<g>
		<path fill="#404447" d="M46.4,146.2h2.7v1.4c0.7-0.9,1.6-1.6,3-1.6c2.3,0,4.4,1.8,4.4,5v0c0,3.2-2.1,5-4.4,5c-1.5,0-2.4-0.7-3-1.4
			v4.1h-2.7V146.2z M53.8,151.1L53.8,151.1c0-1.6-1.1-2.7-2.4-2.7s-2.3,1.1-2.3,2.7v0c0,1.6,1.1,2.7,2.3,2.7S53.8,152.7,53.8,151.1z
			"/>
		<path fill="#404447" d="M58.7,142.8h2.7v13.1h-2.7V142.8z"/>
		<path fill="#404447" d="M63.4,153.1L63.4,153.1c0-2.1,1.6-3.1,3.9-3.1c1,0,1.7,0.2,2.4,0.4v-0.2c0-1.1-0.7-1.8-2.1-1.8
			c-1,0-1.8,0.2-2.7,0.5l-0.7-2.1c1.1-0.5,2.1-0.8,3.7-0.8c1.5,0,2.6,0.4,3.3,1.1c0.7,0.7,1,1.8,1,3.1v5.6h-2.6v-1
			c-0.7,0.7-1.6,1.2-2.9,1.2C64.9,156.1,63.4,155,63.4,153.1z M69.7,152.5V152c-0.5-0.2-1.1-0.4-1.7-0.4c-1.2,0-1.9,0.5-1.9,1.3v0
			c0,0.7,0.6,1.2,1.5,1.2C68.8,154.2,69.7,153.5,69.7,152.5z"/>
		<path fill="#404447" d="M75,153.2v-4.6h-1.2v-2.3H75v-2.5h2.7v2.5H80v2.3h-2.3v4.1c0,0.6,0.3,0.9,0.9,0.9c0.5,0,1-0.1,1.4-0.3v2.2
			c-0.6,0.3-1.2,0.6-2.2,0.6C76.1,156.1,75,155.4,75,153.2z"/>
		<path fill="#404447" d="M82.5,148.6h-1.1v-2.3h1.1v-0.6c0-1.1,0.3-1.8,0.8-2.3c0.5-0.5,1.2-0.8,2.2-0.8c0.9,0,1.4,0.1,1.9,0.3v2.3
			c-0.4-0.1-0.8-0.2-1.2-0.2c-0.6,0-1,0.3-1,1v0.4h2.2v2.2h-2.2v7.3h-2.7V148.6z"/>
		<path fill="#404447" d="M88.2,151.1L88.2,151.1c0-2.8,2.2-5.1,5.2-5.1c3,0,5.2,2.2,5.2,5v0c0,2.8-2.2,5-5.2,5
			C90.5,156.1,88.2,153.9,88.2,151.1z M96,151.1L96,151.1c0-1.5-1-2.7-2.5-2.7c-1.6,0-2.5,1.2-2.5,2.6v0c0,1.4,1,2.7,2.5,2.7
			C95,153.8,96,152.5,96,151.1z"/>
		<path fill="#404447" d="M100.7,146.2h2.7v1.9c0.6-1.3,1.5-2.2,3.1-2.1v2.9h-0.1c-1.8,0-2.9,1.1-2.9,3.4v3.6h-2.7V146.2z"/>
		<path fill="#404447" d="M108.2,146.2h2.7v1.4c0.6-0.8,1.5-1.5,2.8-1.5c1.3,0,2.2,0.6,2.7,1.5c0.8-1,1.9-1.5,3.2-1.5
			c2,0,3.3,1.2,3.3,3.5v6.3h-2.7v-5.4c0-1.3-0.6-2-1.6-2s-1.7,0.7-1.7,2v5.4h-2.7v-5.4c0-1.3-0.6-2-1.6-2s-1.7,0.7-1.7,2v5.4h-2.7
			V146.2z"/>
	</g>
</g>
<g>
	<g>
		<path fill="#404447" d="M111.1,108.6H57.8c-2.3,0-4.2-1.9-4.2-4.2V51.1c0-2.3,1.9-4.2,4.2-4.2h53.3c2.3,0,4.2,1.9,4.2,4.2v53.3
			C115.3,106.8,113.4,108.6,111.1,108.6L111.1,108.6z M62.1,100.2h44.8V55.4H62.1V100.2L62.1,100.2z"/>
	</g>
	<g>
		<g>
			<path fill="#404447" d="M36.5,114.6c-1.2,0-2.1-0.9-2.1-2.1V43c0-1.2,1-2.1,2.1-2.1c1.2,0,2.1,0.9,2.1,2.1v69.5
				C38.6,113.7,37.7,114.6,36.5,114.6L36.5,114.6z"/>
		</g>
		<g>
			<path fill="#404447" d="M46,110c-1.2,0-2.1-0.9-2.1-2.1V47.7c0-1.2,1-2.1,2.1-2.1c1.2,0,2.1,0.9,2.1,2.1v60.2
				C48.1,109,47.2,110,46,110L46,110z"/>
		</g>
		<g>
			<path fill="#404447" d="M132.4,114.6c-1.2,0-2.1-0.9-2.1-2.1V43c0-1.2,1-2.1,2.1-2.1c1.2,0,2.1,0.9,2.1,2.1v69.5
				C134.6,113.7,133.6,114.6,132.4,114.6L132.4,114.6z"/>
		</g>
		<g>
			<path fill="#404447" d="M122.9,110c-1.2,0-2.1-0.9-2.1-2.1V47.7c0-1.2,1-2.1,2.1-2.1c1.2,0,2.1,0.9,2.1,2.1v60.2
				C125,109,124.1,110,122.9,110L122.9,110z"/>
		</g>
	</g>
</g>
</svg>
