<?xml version="1.0" encoding="utf-8"?>
<!-- Generator: Adobe Illustrator 19.1.0, SVG Export Plug-In . SVG Version: 6.00 Build 0)  -->
<svg version="1.1" id="Layer_1" xmlns="http://www.w3.org/2000/svg" xmlns:xlink="http://www.w3.org/1999/xlink" x="0px" y="0px"
	 viewBox="0 0 169.2 169.2" enable-background="new 0 0 169.2 169.2" xml:space="preserve">
<g>
	<rect fill="#FFFFFF" width="169.2" height="169.2"/>
	<g>
		<path fill="#404447" d="M63.7,146.2h2.7v1.9c0.6-1.3,1.5-2.2,3.1-2.1v2.9h-0.1c-1.8,0-2.9,1.1-2.9,3.4v3.6h-2.7V146.2z"/>
		<path fill="#404447" d="M71.2,152.5v-6.2h2.7v5.4c0,1.3,0.6,2,1.7,2c1,0,1.7-0.7,1.7-2v-5.4H80v9.7h-2.7v-1.4
			c-0.6,0.8-1.4,1.5-2.8,1.5C72.4,156.1,71.2,154.7,71.2,152.5z"/>
		<path fill="#404447" d="M82.6,142.8h2.7v13.1h-2.7V142.8z"/>
		<path fill="#404447" d="M87.4,151.1L87.4,151.1c0-2.8,2-5.1,4.8-5.1c3.2,0,4.7,2.5,4.7,5.2c0,0.2,0,0.5,0,0.7h-6.7
			c0.3,1.2,1.1,1.9,2.4,1.9c0.9,0,1.6-0.3,2.3-1l1.6,1.4c-0.9,1.1-2.2,1.8-3.9,1.8C89.6,156.1,87.4,154.1,87.4,151.1z M94.2,150.3
			c-0.2-1.2-0.9-2.1-2-2.1c-1.1,0-1.9,0.8-2.1,2.1H94.2z"/>
		<path fill="#404447" d="M98.2,154.6l1.2-1.8c1,0.8,2.1,1.2,3,1.2c0.8,0,1.2-0.3,1.2-0.7v0c0-0.6-0.9-0.8-2-1.1
			c-1.4-0.4-2.9-1-2.9-2.9v0c0-2,1.6-3.1,3.5-3.1c1.2,0,2.6,0.4,3.6,1.1l-1,1.9c-1-0.6-1.9-0.9-2.6-0.9c-0.7,0-1,0.3-1,0.7v0
			c0,0.5,0.9,0.8,2,1.2c1.3,0.5,2.9,1.1,2.9,2.9v0c0,2.1-1.6,3.1-3.7,3.1C101,156.1,99.4,155.6,98.2,154.6z"/>
	</g>
</g>
<g>
	<g>
		<g>
			<path fill="#404447" d="M78.5,109c-1,0-2-0.4-2.8-1.2c-0.8-0.8-1.2-1.9-1.1-3l0.8-14.4c0.1-1,0.5-1.9,1.1-2.6l42.9-42.9
				c1.5-1.5,4.1-1.5,5.6,0l13.6,13.6c1.5,1.5,1.5,4,0,5.6L95.7,107c-0.7,0.7-1.6,1.1-2.6,1.1L78.7,109C78.6,109,78.5,109,78.5,109
				L78.5,109z M83.2,92.4l-0.5,8.5l8.5-0.5l39.1-39.1l-8-8L83.2,92.4L83.2,92.4z"/>
		</g>
		<g>
			<path fill="#404447" d="M128.2,69.5c-0.5,0-1-0.2-1.4-0.6l-12.2-12.2c-0.8-0.8-0.8-2,0-2.8c0.8-0.8,2-0.8,2.8,0l12.2,12.2
				c0.8,0.8,0.8,2,0,2.8C129.2,69.3,128.7,69.5,128.2,69.5L128.2,69.5z"/>
		</g>
		<path fill="#404447" d="M80.7,94.9c-0.3,0-0.5,0-0.8,0c-0.3,0-0.5,0.1-0.8,0.2l-0.6,10l9.6-0.6c0.1-0.4,0.2-0.7,0.2-1.1
			C88.8,98.6,85.4,94.9,80.7,94.9L80.7,94.9z"/>
	</g>
	<g>
		<g>
			<path fill="#404447" d="M101.4,124.2H46.3c-5,0-9-4-9-9V41.2c0-2.2,1.8-4,4-4c2.2,0,4,1.8,4,4v73.9c0,0.6,0.5,1.1,1.1,1.1h55.1
				c0.6,0,1.1-0.5,1.1-1.1V91.9c0-2.2,1.8-4,4-4c2.2,0,4,1.8,4,4v23.3C110.4,120.1,106.4,124.2,101.4,124.2L101.4,124.2z"/>
		</g>
		<g>
			<path fill="#404447" d="M106.5,67.2c-2.2,0-4-1.8-4-4V52.7c0-0.6-0.5-1.1-1.1-1.1c-2.2,0-4-1.8-4-4c0-2.2,1.8-4,4-4c5,0,9,4,9,9
				v10.5C110.4,65.4,108.7,67.2,106.5,67.2L106.5,67.2z"/>
		</g>
		<g>
			<path fill="#404447" d="M100.7,51.6H49.5c-6.7,0-12.2-5.5-12.2-12.2c0-6.7,5.5-12.2,12.2-12.2h56.9c2.2,0,4,1.8,4,4s-1.8,4-4,4
				H49.5c-2.4,0-4.3,1.9-4.3,4.3c0,2.4,1.9,4.3,4.3,4.3h51.1c2.2,0,4,1.8,4,4S102.8,51.6,100.7,51.6L100.7,51.6z"/>
		</g>
	</g>
	<g>
		<path fill="#404447" d="M79.8,66.2H55.6c-1.1,0-2-0.9-2-2c0-1.1,0.9-2,2-2h24.2c1.1,0,2,0.9,2,2C81.8,65.3,80.9,66.2,79.8,66.2
			L79.8,66.2z"/>
	</g>
	<g>
		<path fill="#404447" d="M79.8,77H55.6c-1.1,0-2-0.9-2-2c0-1.1,0.9-2,2-2h24.2c1.1,0,2,0.9,2,2C81.8,76.2,80.9,77,79.8,77L79.8,77z
			"/>
	</g>
</g>
</svg>
